%TF.GenerationSoftware,KiCad,Pcbnew,(5.1.10)-1*%
%TF.CreationDate,2023-08-17T02:42:31-04:00*%
%TF.ProjectId,n65_daughterboard,6e36355f-6461-4756-9768-746572626f61,rev?*%
%TF.SameCoordinates,Original*%
%TF.FileFunction,Copper,L1,Top*%
%TF.FilePolarity,Positive*%
%FSLAX46Y46*%
G04 Gerber Fmt 4.6, Leading zero omitted, Abs format (unit mm)*
G04 Created by KiCad (PCBNEW (5.1.10)-1) date 2023-08-17 02:42:31*
%MOMM*%
%LPD*%
G01*
G04 APERTURE LIST*
%TA.AperFunction,SMDPad,CuDef*%
%ADD10R,1.660000X1.280000*%
%TD*%
%TA.AperFunction,SMDPad,CuDef*%
%ADD11R,1.140000X0.320000*%
%TD*%
%TA.AperFunction,SMDPad,CuDef*%
%ADD12R,0.400000X0.320000*%
%TD*%
%TA.AperFunction,SMDPad,CuDef*%
%ADD13C,0.800000*%
%TD*%
%TA.AperFunction,ComponentPad*%
%ADD14O,1.600000X1.100000*%
%TD*%
%TA.AperFunction,SMDPad,CuDef*%
%ADD15R,0.250000X1.150000*%
%TD*%
%TA.AperFunction,ComponentPad*%
%ADD16C,5.000000*%
%TD*%
%TA.AperFunction,SMDPad,CuDef*%
%ADD17R,0.850000X0.280000*%
%TD*%
%TA.AperFunction,SMDPad,CuDef*%
%ADD18R,0.750000X0.280000*%
%TD*%
%TA.AperFunction,SMDPad,CuDef*%
%ADD19R,1.680000X1.680000*%
%TD*%
%TA.AperFunction,ComponentPad*%
%ADD20C,0.500000*%
%TD*%
%TA.AperFunction,SMDPad,CuDef*%
%ADD21R,0.550000X0.300000*%
%TD*%
%TA.AperFunction,SMDPad,CuDef*%
%ADD22R,0.550000X0.400000*%
%TD*%
%TA.AperFunction,ViaPad*%
%ADD23C,0.800000*%
%TD*%
%TA.AperFunction,ViaPad*%
%ADD24C,0.500000*%
%TD*%
%TA.AperFunction,ViaPad*%
%ADD25C,1.000000*%
%TD*%
%TA.AperFunction,ViaPad*%
%ADD26C,0.600000*%
%TD*%
%TA.AperFunction,Conductor*%
%ADD27C,0.500000*%
%TD*%
%TA.AperFunction,Conductor*%
%ADD28C,1.000000*%
%TD*%
%TA.AperFunction,Conductor*%
%ADD29C,0.300000*%
%TD*%
%TA.AperFunction,Conductor*%
%ADD30C,0.250000*%
%TD*%
%TA.AperFunction,Conductor*%
%ADD31C,0.750000*%
%TD*%
%TA.AperFunction,Conductor*%
%ADD32C,0.400000*%
%TD*%
%TA.AperFunction,Conductor*%
%ADD33C,5.000000*%
%TD*%
%TA.AperFunction,Conductor*%
%ADD34C,0.200000*%
%TD*%
%TA.AperFunction,Conductor*%
%ADD35C,0.254000*%
%TD*%
%TA.AperFunction,Conductor*%
%ADD36C,0.100000*%
%TD*%
G04 APERTURE END LIST*
D10*
%TO.P,U2,5*%
%TO.N,Net-(C1-Pad2)*%
X139735156Y-94027000D03*
D11*
%TO.P,U2,1*%
%TO.N,Net-(U1-Pad2)*%
X137835156Y-92247000D03*
%TO.P,U2,3*%
%TO.N,Net-(U2-Pad2)*%
X137835156Y-93547000D03*
%TO.P,U2,2*%
X137835156Y-92897000D03*
%TO.P,U2,4*%
%TO.N,Net-(U1-Pad3)*%
X137835156Y-94197000D03*
D12*
%TO.P,U2,5*%
%TO.N,Net-(C1-Pad2)*%
X140765156Y-94197000D03*
X140765156Y-93547000D03*
%TO.P,U2,8*%
%TO.N,GND*%
X140765156Y-92247000D03*
D10*
X139735156Y-92417000D03*
D12*
X140765156Y-92897000D03*
%TD*%
D13*
%TO.P,SW1,1*%
%TO.N,GND*%
X144825156Y-95059500D03*
%TO.P,SW1,2*%
%TO.N,Net-(SW1-Pad2)*%
X147365156Y-91884500D03*
%TO.P,SW1,3*%
%TO.N,Net-(SW1-Pad3)*%
X149905156Y-95059500D03*
%TD*%
D14*
%TO.P,J1,S1*%
%TO.N,GND*%
X131365156Y-94902000D03*
X123365156Y-94902000D03*
X131365156Y-92042000D03*
D15*
%TO.P,J1,B7*%
%TO.N,D-*%
X127115156Y-94957000D03*
%TO.P,J1,B6*%
%TO.N,D+*%
X127615156Y-94957000D03*
%TO.P,J1,*%
%TO.N,*%
%TA.AperFunction,WasherPad*%
G36*
G01*
X122815156Y-93472000D02*
X122815156Y-93472000D01*
G75*
G02*
X123170156Y-93117000I355000J0D01*
G01*
X123560156Y-93117000D01*
G75*
G02*
X123915156Y-93472000I0J-355000D01*
G01*
X123915156Y-93472000D01*
G75*
G02*
X123560156Y-93827000I-355000J0D01*
G01*
X123170156Y-93827000D01*
G75*
G02*
X122815156Y-93472000I0J355000D01*
G01*
G37*
%TD.AperFunction*%
%TO.P,J1,B4*%
%TO.N,VIN*%
X128615156Y-94957000D03*
%TO.P,J1,A12*%
%TO.N,GND*%
X130065156Y-91987000D03*
%TO.P,J1,A5*%
%TO.N,Net-(J1-PadA5)*%
X126615156Y-91987000D03*
%TO.P,J1,B5*%
%TO.N,Net-(J1-PadB5)*%
X128115156Y-94957000D03*
%TO.P,J1,A8*%
%TO.N,Net-(J1-PadA8)*%
X128115156Y-91987000D03*
%TO.P,J1,A7*%
%TO.N,D-*%
X127615156Y-91987000D03*
%TO.P,J1,A6*%
%TO.N,D+*%
X127115156Y-91987000D03*
%TO.P,J1,B12*%
%TO.N,GND*%
X124615156Y-94957000D03*
D14*
%TO.P,J1,S1*%
X123365156Y-92042000D03*
D15*
%TO.P,J1,A1*%
X124615156Y-91987000D03*
%TO.P,J1,A4*%
%TO.N,VIN*%
X126115156Y-91987000D03*
%TO.P,J1,A9*%
X128615156Y-91987000D03*
%TO.P,J1,B9*%
X126115156Y-94957000D03*
%TO.P,J1,B1*%
%TO.N,GND*%
X130065156Y-94957000D03*
%TO.P,J1,B8*%
%TO.N,Net-(J1-PadB8)*%
X126615156Y-94957000D03*
%TO.P,J1,*%
%TO.N,*%
%TA.AperFunction,WasherPad*%
G36*
G01*
X130815156Y-93472000D02*
X130815156Y-93472000D01*
G75*
G02*
X131170156Y-93117000I355000J0D01*
G01*
X131560156Y-93117000D01*
G75*
G02*
X131915156Y-93472000I0J-355000D01*
G01*
X131915156Y-93472000D01*
G75*
G02*
X131560156Y-93827000I-355000J0D01*
G01*
X131170156Y-93827000D01*
G75*
G02*
X130815156Y-93472000I0J355000D01*
G01*
G37*
%TD.AperFunction*%
%TD*%
%TO.P,J5,1*%
%TO.N,BMSOUT*%
%TA.AperFunction,SMDPad,CuDef*%
G36*
G01*
X111765156Y-91372000D02*
X112315156Y-91372000D01*
G75*
G02*
X112465156Y-91522000I0J-150000D01*
G01*
X112465156Y-91822000D01*
G75*
G02*
X112315156Y-91972000I-150000J0D01*
G01*
X111765156Y-91972000D01*
G75*
G02*
X111615156Y-91822000I0J150000D01*
G01*
X111615156Y-91522000D01*
G75*
G02*
X111765156Y-91372000I150000J0D01*
G01*
G37*
%TD.AperFunction*%
%TO.P,J5,2*%
%TO.N,D-*%
%TA.AperFunction,SMDPad,CuDef*%
G36*
G01*
X111765156Y-92572000D02*
X112315156Y-92572000D01*
G75*
G02*
X112465156Y-92722000I0J-150000D01*
G01*
X112465156Y-93022000D01*
G75*
G02*
X112315156Y-93172000I-150000J0D01*
G01*
X111765156Y-93172000D01*
G75*
G02*
X111615156Y-93022000I0J150000D01*
G01*
X111615156Y-92722000D01*
G75*
G02*
X111765156Y-92572000I150000J0D01*
G01*
G37*
%TD.AperFunction*%
%TO.P,J5,3*%
%TO.N,D+*%
%TA.AperFunction,SMDPad,CuDef*%
G36*
G01*
X111765156Y-93772000D02*
X112315156Y-93772000D01*
G75*
G02*
X112465156Y-93922000I0J-150000D01*
G01*
X112465156Y-94222000D01*
G75*
G02*
X112315156Y-94372000I-150000J0D01*
G01*
X111765156Y-94372000D01*
G75*
G02*
X111615156Y-94222000I0J150000D01*
G01*
X111615156Y-93922000D01*
G75*
G02*
X111765156Y-93772000I150000J0D01*
G01*
G37*
%TD.AperFunction*%
%TO.P,J5,4*%
%TO.N,GND*%
%TA.AperFunction,SMDPad,CuDef*%
G36*
G01*
X111765156Y-94972000D02*
X112315156Y-94972000D01*
G75*
G02*
X112465156Y-95122000I0J-150000D01*
G01*
X112465156Y-95422000D01*
G75*
G02*
X112315156Y-95572000I-150000J0D01*
G01*
X111765156Y-95572000D01*
G75*
G02*
X111615156Y-95422000I0J150000D01*
G01*
X111615156Y-95122000D01*
G75*
G02*
X111765156Y-94972000I150000J0D01*
G01*
G37*
%TD.AperFunction*%
%TO.P,J5,MP*%
%TO.N,N/C*%
%TA.AperFunction,SMDPad,CuDef*%
G36*
G01*
X108040156Y-90172000D02*
X108490156Y-90172000D01*
G75*
G02*
X108665156Y-90347000I0J-175000D01*
G01*
X108665156Y-90697000D01*
G75*
G02*
X108490156Y-90872000I-175000J0D01*
G01*
X108040156Y-90872000D01*
G75*
G02*
X107865156Y-90697000I0J175000D01*
G01*
X107865156Y-90347000D01*
G75*
G02*
X108040156Y-90172000I175000J0D01*
G01*
G37*
%TD.AperFunction*%
%TA.AperFunction,SMDPad,CuDef*%
G36*
G01*
X108040156Y-96072000D02*
X108490156Y-96072000D01*
G75*
G02*
X108665156Y-96247000I0J-175000D01*
G01*
X108665156Y-96597000D01*
G75*
G02*
X108490156Y-96772000I-175000J0D01*
G01*
X108040156Y-96772000D01*
G75*
G02*
X107865156Y-96597000I0J175000D01*
G01*
X107865156Y-96247000D01*
G75*
G02*
X108040156Y-96072000I175000J0D01*
G01*
G37*
%TD.AperFunction*%
%TD*%
%TO.P,D1,1*%
%TO.N,VIN*%
%TA.AperFunction,SMDPad,CuDef*%
G36*
G01*
X129645156Y-90299500D02*
X129645156Y-90644500D01*
G75*
G02*
X129497656Y-90792000I-147500J0D01*
G01*
X129202656Y-90792000D01*
G75*
G02*
X129055156Y-90644500I0J147500D01*
G01*
X129055156Y-90299500D01*
G75*
G02*
X129202656Y-90152000I147500J0D01*
G01*
X129497656Y-90152000D01*
G75*
G02*
X129645156Y-90299500I0J-147500D01*
G01*
G37*
%TD.AperFunction*%
%TO.P,D1,2*%
%TO.N,GND*%
%TA.AperFunction,SMDPad,CuDef*%
G36*
G01*
X128675156Y-90299500D02*
X128675156Y-90644500D01*
G75*
G02*
X128527656Y-90792000I-147500J0D01*
G01*
X128232656Y-90792000D01*
G75*
G02*
X128085156Y-90644500I0J147500D01*
G01*
X128085156Y-90299500D01*
G75*
G02*
X128232656Y-90152000I147500J0D01*
G01*
X128527656Y-90152000D01*
G75*
G02*
X128675156Y-90299500I0J-147500D01*
G01*
G37*
%TD.AperFunction*%
%TD*%
D16*
%TO.P,H1,1*%
%TO.N,GND*%
X117365156Y-93472000D03*
%TD*%
%TO.P,C1,1*%
%TO.N,Net-(C1-Pad1)*%
%TA.AperFunction,SMDPad,CuDef*%
G36*
G01*
X144265156Y-89422000D02*
X144465156Y-89422000D01*
G75*
G02*
X144565156Y-89522000I0J-100000D01*
G01*
X144565156Y-89782000D01*
G75*
G02*
X144465156Y-89882000I-100000J0D01*
G01*
X144265156Y-89882000D01*
G75*
G02*
X144165156Y-89782000I0J100000D01*
G01*
X144165156Y-89522000D01*
G75*
G02*
X144265156Y-89422000I100000J0D01*
G01*
G37*
%TD.AperFunction*%
%TO.P,C1,2*%
%TO.N,Net-(C1-Pad2)*%
%TA.AperFunction,SMDPad,CuDef*%
G36*
G01*
X144265156Y-90062000D02*
X144465156Y-90062000D01*
G75*
G02*
X144565156Y-90162000I0J-100000D01*
G01*
X144565156Y-90422000D01*
G75*
G02*
X144465156Y-90522000I-100000J0D01*
G01*
X144265156Y-90522000D01*
G75*
G02*
X144165156Y-90422000I0J100000D01*
G01*
X144165156Y-90162000D01*
G75*
G02*
X144265156Y-90062000I100000J0D01*
G01*
G37*
%TD.AperFunction*%
%TD*%
%TO.P,C2,1*%
%TO.N,GND*%
%TA.AperFunction,SMDPad,CuDef*%
G36*
G01*
X136125156Y-90552000D02*
X136125156Y-90892000D01*
G75*
G02*
X135985156Y-91032000I-140000J0D01*
G01*
X135705156Y-91032000D01*
G75*
G02*
X135565156Y-90892000I0J140000D01*
G01*
X135565156Y-90552000D01*
G75*
G02*
X135705156Y-90412000I140000J0D01*
G01*
X135985156Y-90412000D01*
G75*
G02*
X136125156Y-90552000I0J-140000D01*
G01*
G37*
%TD.AperFunction*%
%TO.P,C2,2*%
%TO.N,BMSOUT*%
%TA.AperFunction,SMDPad,CuDef*%
G36*
G01*
X135165156Y-90552000D02*
X135165156Y-90892000D01*
G75*
G02*
X135025156Y-91032000I-140000J0D01*
G01*
X134745156Y-91032000D01*
G75*
G02*
X134605156Y-90892000I0J140000D01*
G01*
X134605156Y-90552000D01*
G75*
G02*
X134745156Y-90412000I140000J0D01*
G01*
X135025156Y-90412000D01*
G75*
G02*
X135165156Y-90552000I0J-140000D01*
G01*
G37*
%TD.AperFunction*%
%TD*%
%TO.P,C3,2*%
%TO.N,VBATT*%
%TA.AperFunction,SMDPad,CuDef*%
G36*
G01*
X137785156Y-96022000D02*
X137445156Y-96022000D01*
G75*
G02*
X137305156Y-95882000I0J140000D01*
G01*
X137305156Y-95602000D01*
G75*
G02*
X137445156Y-95462000I140000J0D01*
G01*
X137785156Y-95462000D01*
G75*
G02*
X137925156Y-95602000I0J-140000D01*
G01*
X137925156Y-95882000D01*
G75*
G02*
X137785156Y-96022000I-140000J0D01*
G01*
G37*
%TD.AperFunction*%
%TO.P,C3,1*%
%TO.N,GND*%
%TA.AperFunction,SMDPad,CuDef*%
G36*
G01*
X137785156Y-96982000D02*
X137445156Y-96982000D01*
G75*
G02*
X137305156Y-96842000I0J140000D01*
G01*
X137305156Y-96562000D01*
G75*
G02*
X137445156Y-96422000I140000J0D01*
G01*
X137785156Y-96422000D01*
G75*
G02*
X137925156Y-96562000I0J-140000D01*
G01*
X137925156Y-96842000D01*
G75*
G02*
X137785156Y-96982000I-140000J0D01*
G01*
G37*
%TD.AperFunction*%
%TD*%
%TO.P,C4,2*%
%TO.N,GND*%
%TA.AperFunction,SMDPad,CuDef*%
G36*
G01*
X132965156Y-90382000D02*
X132765156Y-90382000D01*
G75*
G02*
X132665156Y-90282000I0J100000D01*
G01*
X132665156Y-90022000D01*
G75*
G02*
X132765156Y-89922000I100000J0D01*
G01*
X132965156Y-89922000D01*
G75*
G02*
X133065156Y-90022000I0J-100000D01*
G01*
X133065156Y-90282000D01*
G75*
G02*
X132965156Y-90382000I-100000J0D01*
G01*
G37*
%TD.AperFunction*%
%TO.P,C4,1*%
%TO.N,VIN*%
%TA.AperFunction,SMDPad,CuDef*%
G36*
G01*
X132965156Y-91022000D02*
X132765156Y-91022000D01*
G75*
G02*
X132665156Y-90922000I0J100000D01*
G01*
X132665156Y-90662000D01*
G75*
G02*
X132765156Y-90562000I100000J0D01*
G01*
X132965156Y-90562000D01*
G75*
G02*
X133065156Y-90662000I0J-100000D01*
G01*
X133065156Y-90922000D01*
G75*
G02*
X132965156Y-91022000I-100000J0D01*
G01*
G37*
%TD.AperFunction*%
%TD*%
%TO.P,D2,2*%
%TO.N,Net-(D2-Pad2)*%
%TA.AperFunction,SMDPad,CuDef*%
G36*
G01*
X147715156Y-89728250D02*
X147715156Y-89215750D01*
G75*
G02*
X147933906Y-88997000I218750J0D01*
G01*
X148371406Y-88997000D01*
G75*
G02*
X148590156Y-89215750I0J-218750D01*
G01*
X148590156Y-89728250D01*
G75*
G02*
X148371406Y-89947000I-218750J0D01*
G01*
X147933906Y-89947000D01*
G75*
G02*
X147715156Y-89728250I0J218750D01*
G01*
G37*
%TD.AperFunction*%
%TO.P,D2,1*%
%TO.N,Net-(D2-Pad1)*%
%TA.AperFunction,SMDPad,CuDef*%
G36*
G01*
X146140156Y-89728250D02*
X146140156Y-89215750D01*
G75*
G02*
X146358906Y-88997000I218750J0D01*
G01*
X146796406Y-88997000D01*
G75*
G02*
X147015156Y-89215750I0J-218750D01*
G01*
X147015156Y-89728250D01*
G75*
G02*
X146796406Y-89947000I-218750J0D01*
G01*
X146358906Y-89947000D01*
G75*
G02*
X146140156Y-89728250I0J218750D01*
G01*
G37*
%TD.AperFunction*%
%TD*%
%TO.P,D3,1*%
%TO.N,Net-(D3-Pad1)*%
%TA.AperFunction,SMDPad,CuDef*%
G36*
G01*
X148590156Y-97215750D02*
X148590156Y-97728250D01*
G75*
G02*
X148371406Y-97947000I-218750J0D01*
G01*
X147933906Y-97947000D01*
G75*
G02*
X147715156Y-97728250I0J218750D01*
G01*
X147715156Y-97215750D01*
G75*
G02*
X147933906Y-96997000I218750J0D01*
G01*
X148371406Y-96997000D01*
G75*
G02*
X148590156Y-97215750I0J-218750D01*
G01*
G37*
%TD.AperFunction*%
%TO.P,D3,2*%
%TO.N,Net-(D3-Pad2)*%
%TA.AperFunction,SMDPad,CuDef*%
G36*
G01*
X147015156Y-97215750D02*
X147015156Y-97728250D01*
G75*
G02*
X146796406Y-97947000I-218750J0D01*
G01*
X146358906Y-97947000D01*
G75*
G02*
X146140156Y-97728250I0J218750D01*
G01*
X146140156Y-97215750D01*
G75*
G02*
X146358906Y-96997000I218750J0D01*
G01*
X146796406Y-96997000D01*
G75*
G02*
X147015156Y-97215750I0J-218750D01*
G01*
G37*
%TD.AperFunction*%
%TD*%
%TO.P,F1,1*%
%TO.N,VBATT*%
%TA.AperFunction,SMDPad,CuDef*%
G36*
G01*
X149340156Y-97847000D02*
X149340156Y-96597000D01*
G75*
G02*
X149590156Y-96347000I250000J0D01*
G01*
X150340156Y-96347000D01*
G75*
G02*
X150590156Y-96597000I0J-250000D01*
G01*
X150590156Y-97847000D01*
G75*
G02*
X150340156Y-98097000I-250000J0D01*
G01*
X149590156Y-98097000D01*
G75*
G02*
X149340156Y-97847000I0J250000D01*
G01*
G37*
%TD.AperFunction*%
%TO.P,F1,2*%
%TO.N,Net-(F1-Pad2)*%
%TA.AperFunction,SMDPad,CuDef*%
G36*
G01*
X152140156Y-97847000D02*
X152140156Y-96597000D01*
G75*
G02*
X152390156Y-96347000I250000J0D01*
G01*
X153140156Y-96347000D01*
G75*
G02*
X153390156Y-96597000I0J-250000D01*
G01*
X153390156Y-97847000D01*
G75*
G02*
X153140156Y-98097000I-250000J0D01*
G01*
X152390156Y-98097000D01*
G75*
G02*
X152140156Y-97847000I0J250000D01*
G01*
G37*
%TD.AperFunction*%
%TD*%
%TO.P,H1,1*%
%TO.N,GND*%
X157365156Y-93472000D03*
%TD*%
%TO.P,J2,1*%
%TO.N,Net-(C1-Pad2)*%
%TA.AperFunction,SMDPad,CuDef*%
G36*
G01*
X163515156Y-94972000D02*
X160515156Y-94972000D01*
G75*
G02*
X160265156Y-94722000I0J250000D01*
G01*
X160265156Y-94222000D01*
G75*
G02*
X160515156Y-93972000I250000J0D01*
G01*
X163515156Y-93972000D01*
G75*
G02*
X163765156Y-94222000I0J-250000D01*
G01*
X163765156Y-94722000D01*
G75*
G02*
X163515156Y-94972000I-250000J0D01*
G01*
G37*
%TD.AperFunction*%
%TO.P,J2,2*%
%TO.N,Net-(F1-Pad2)*%
%TA.AperFunction,SMDPad,CuDef*%
G36*
G01*
X163515156Y-92972000D02*
X160515156Y-92972000D01*
G75*
G02*
X160265156Y-92722000I0J250000D01*
G01*
X160265156Y-92222000D01*
G75*
G02*
X160515156Y-91972000I250000J0D01*
G01*
X163515156Y-91972000D01*
G75*
G02*
X163765156Y-92222000I0J-250000D01*
G01*
X163765156Y-92722000D01*
G75*
G02*
X163515156Y-92972000I-250000J0D01*
G01*
G37*
%TD.AperFunction*%
%TO.P,J2,MP*%
%TO.N,N/C*%
%TA.AperFunction,SMDPad,CuDef*%
G36*
G01*
X169215156Y-97572000D02*
X166315156Y-97572000D01*
G75*
G02*
X166065156Y-97322000I0J250000D01*
G01*
X166065156Y-96322000D01*
G75*
G02*
X166315156Y-96072000I250000J0D01*
G01*
X169215156Y-96072000D01*
G75*
G02*
X169465156Y-96322000I0J-250000D01*
G01*
X169465156Y-97322000D01*
G75*
G02*
X169215156Y-97572000I-250000J0D01*
G01*
G37*
%TD.AperFunction*%
%TA.AperFunction,SMDPad,CuDef*%
G36*
G01*
X169215156Y-90872000D02*
X166315156Y-90872000D01*
G75*
G02*
X166065156Y-90622000I0J250000D01*
G01*
X166065156Y-89622000D01*
G75*
G02*
X166315156Y-89372000I250000J0D01*
G01*
X169215156Y-89372000D01*
G75*
G02*
X169465156Y-89622000I0J-250000D01*
G01*
X169465156Y-90622000D01*
G75*
G02*
X169215156Y-90872000I-250000J0D01*
G01*
G37*
%TD.AperFunction*%
%TD*%
%TO.P,R1,2*%
%TO.N,GND*%
%TA.AperFunction,SMDPad,CuDef*%
G36*
G01*
X120940156Y-96447000D02*
X120940156Y-96997000D01*
G75*
G02*
X120740156Y-97197000I-200000J0D01*
G01*
X120340156Y-97197000D01*
G75*
G02*
X120140156Y-96997000I0J200000D01*
G01*
X120140156Y-96447000D01*
G75*
G02*
X120340156Y-96247000I200000J0D01*
G01*
X120740156Y-96247000D01*
G75*
G02*
X120940156Y-96447000I0J-200000D01*
G01*
G37*
%TD.AperFunction*%
%TO.P,R1,1*%
%TO.N,Net-(J1-PadB5)*%
%TA.AperFunction,SMDPad,CuDef*%
G36*
G01*
X122590156Y-96447000D02*
X122590156Y-96997000D01*
G75*
G02*
X122390156Y-97197000I-200000J0D01*
G01*
X121990156Y-97197000D01*
G75*
G02*
X121790156Y-96997000I0J200000D01*
G01*
X121790156Y-96447000D01*
G75*
G02*
X121990156Y-96247000I200000J0D01*
G01*
X122390156Y-96247000D01*
G75*
G02*
X122590156Y-96447000I0J-200000D01*
G01*
G37*
%TD.AperFunction*%
%TD*%
%TO.P,R2,1*%
%TO.N,Net-(J1-PadA5)*%
%TA.AperFunction,SMDPad,CuDef*%
G36*
G01*
X122590156Y-89947000D02*
X122590156Y-90497000D01*
G75*
G02*
X122390156Y-90697000I-200000J0D01*
G01*
X121990156Y-90697000D01*
G75*
G02*
X121790156Y-90497000I0J200000D01*
G01*
X121790156Y-89947000D01*
G75*
G02*
X121990156Y-89747000I200000J0D01*
G01*
X122390156Y-89747000D01*
G75*
G02*
X122590156Y-89947000I0J-200000D01*
G01*
G37*
%TD.AperFunction*%
%TO.P,R2,2*%
%TO.N,GND*%
%TA.AperFunction,SMDPad,CuDef*%
G36*
G01*
X120940156Y-89947000D02*
X120940156Y-90497000D01*
G75*
G02*
X120740156Y-90697000I-200000J0D01*
G01*
X120340156Y-90697000D01*
G75*
G02*
X120140156Y-90497000I0J200000D01*
G01*
X120140156Y-89947000D01*
G75*
G02*
X120340156Y-89747000I200000J0D01*
G01*
X120740156Y-89747000D01*
G75*
G02*
X120940156Y-89947000I0J-200000D01*
G01*
G37*
%TD.AperFunction*%
%TD*%
%TO.P,R3,1*%
%TO.N,VBATT*%
%TA.AperFunction,SMDPad,CuDef*%
G36*
G01*
X142640156Y-95697000D02*
X142090156Y-95697000D01*
G75*
G02*
X141890156Y-95497000I0J200000D01*
G01*
X141890156Y-95097000D01*
G75*
G02*
X142090156Y-94897000I200000J0D01*
G01*
X142640156Y-94897000D01*
G75*
G02*
X142840156Y-95097000I0J-200000D01*
G01*
X142840156Y-95497000D01*
G75*
G02*
X142640156Y-95697000I-200000J0D01*
G01*
G37*
%TD.AperFunction*%
%TO.P,R3,2*%
%TO.N,Net-(C1-Pad1)*%
%TA.AperFunction,SMDPad,CuDef*%
G36*
G01*
X142640156Y-94047000D02*
X142090156Y-94047000D01*
G75*
G02*
X141890156Y-93847000I0J200000D01*
G01*
X141890156Y-93447000D01*
G75*
G02*
X142090156Y-93247000I200000J0D01*
G01*
X142640156Y-93247000D01*
G75*
G02*
X142840156Y-93447000I0J-200000D01*
G01*
X142840156Y-93847000D01*
G75*
G02*
X142640156Y-94047000I-200000J0D01*
G01*
G37*
%TD.AperFunction*%
%TD*%
%TO.P,R4,2*%
%TO.N,GND*%
%TA.AperFunction,SMDPad,CuDef*%
G36*
G01*
X135440156Y-89197000D02*
X135440156Y-89747000D01*
G75*
G02*
X135240156Y-89947000I-200000J0D01*
G01*
X134840156Y-89947000D01*
G75*
G02*
X134640156Y-89747000I0J200000D01*
G01*
X134640156Y-89197000D01*
G75*
G02*
X134840156Y-88997000I200000J0D01*
G01*
X135240156Y-88997000D01*
G75*
G02*
X135440156Y-89197000I0J-200000D01*
G01*
G37*
%TD.AperFunction*%
%TO.P,R4,1*%
%TO.N,Net-(R4-Pad1)*%
%TA.AperFunction,SMDPad,CuDef*%
G36*
G01*
X137090156Y-89197000D02*
X137090156Y-89747000D01*
G75*
G02*
X136890156Y-89947000I-200000J0D01*
G01*
X136490156Y-89947000D01*
G75*
G02*
X136290156Y-89747000I0J200000D01*
G01*
X136290156Y-89197000D01*
G75*
G02*
X136490156Y-88997000I200000J0D01*
G01*
X136890156Y-88997000D01*
G75*
G02*
X137090156Y-89197000I0J-200000D01*
G01*
G37*
%TD.AperFunction*%
%TD*%
%TO.P,R5,2*%
%TO.N,Net-(R5-Pad2)*%
%TA.AperFunction,SMDPad,CuDef*%
G36*
G01*
X134690156Y-96697000D02*
X134690156Y-97247000D01*
G75*
G02*
X134490156Y-97447000I-200000J0D01*
G01*
X134090156Y-97447000D01*
G75*
G02*
X133890156Y-97247000I0J200000D01*
G01*
X133890156Y-96697000D01*
G75*
G02*
X134090156Y-96497000I200000J0D01*
G01*
X134490156Y-96497000D01*
G75*
G02*
X134690156Y-96697000I0J-200000D01*
G01*
G37*
%TD.AperFunction*%
%TO.P,R5,1*%
%TO.N,GND*%
%TA.AperFunction,SMDPad,CuDef*%
G36*
G01*
X136340156Y-96697000D02*
X136340156Y-97247000D01*
G75*
G02*
X136140156Y-97447000I-200000J0D01*
G01*
X135740156Y-97447000D01*
G75*
G02*
X135540156Y-97247000I0J200000D01*
G01*
X135540156Y-96697000D01*
G75*
G02*
X135740156Y-96497000I200000J0D01*
G01*
X136140156Y-96497000D01*
G75*
G02*
X136340156Y-96697000I0J-200000D01*
G01*
G37*
%TD.AperFunction*%
%TD*%
%TO.P,R6,1*%
%TO.N,Net-(R6-Pad1)*%
%TA.AperFunction,SMDPad,CuDef*%
G36*
G01*
X137640156Y-90747000D02*
X137640156Y-90197000D01*
G75*
G02*
X137840156Y-89997000I200000J0D01*
G01*
X138240156Y-89997000D01*
G75*
G02*
X138440156Y-90197000I0J-200000D01*
G01*
X138440156Y-90747000D01*
G75*
G02*
X138240156Y-90947000I-200000J0D01*
G01*
X137840156Y-90947000D01*
G75*
G02*
X137640156Y-90747000I0J200000D01*
G01*
G37*
%TD.AperFunction*%
%TO.P,R6,2*%
%TO.N,GND*%
%TA.AperFunction,SMDPad,CuDef*%
G36*
G01*
X139290156Y-90747000D02*
X139290156Y-90197000D01*
G75*
G02*
X139490156Y-89997000I200000J0D01*
G01*
X139890156Y-89997000D01*
G75*
G02*
X140090156Y-90197000I0J-200000D01*
G01*
X140090156Y-90747000D01*
G75*
G02*
X139890156Y-90947000I-200000J0D01*
G01*
X139490156Y-90947000D01*
G75*
G02*
X139290156Y-90747000I0J200000D01*
G01*
G37*
%TD.AperFunction*%
%TD*%
%TO.P,R7,1*%
%TO.N,GND*%
%TA.AperFunction,SMDPad,CuDef*%
G36*
G01*
X130640156Y-96997000D02*
X130640156Y-96447000D01*
G75*
G02*
X130840156Y-96247000I200000J0D01*
G01*
X131240156Y-96247000D01*
G75*
G02*
X131440156Y-96447000I0J-200000D01*
G01*
X131440156Y-96997000D01*
G75*
G02*
X131240156Y-97197000I-200000J0D01*
G01*
X130840156Y-97197000D01*
G75*
G02*
X130640156Y-96997000I0J200000D01*
G01*
G37*
%TD.AperFunction*%
%TO.P,R7,2*%
%TO.N,Net-(R7-Pad2)*%
%TA.AperFunction,SMDPad,CuDef*%
G36*
G01*
X132290156Y-96997000D02*
X132290156Y-96447000D01*
G75*
G02*
X132490156Y-96247000I200000J0D01*
G01*
X132890156Y-96247000D01*
G75*
G02*
X133090156Y-96447000I0J-200000D01*
G01*
X133090156Y-96997000D01*
G75*
G02*
X132890156Y-97197000I-200000J0D01*
G01*
X132490156Y-97197000D01*
G75*
G02*
X132290156Y-96997000I0J200000D01*
G01*
G37*
%TD.AperFunction*%
%TD*%
%TO.P,R8,1*%
%TO.N,Net-(D2-Pad2)*%
%TA.AperFunction,SMDPad,CuDef*%
G36*
G01*
X149390156Y-89747000D02*
X149390156Y-89197000D01*
G75*
G02*
X149590156Y-88997000I200000J0D01*
G01*
X149990156Y-88997000D01*
G75*
G02*
X150190156Y-89197000I0J-200000D01*
G01*
X150190156Y-89747000D01*
G75*
G02*
X149990156Y-89947000I-200000J0D01*
G01*
X149590156Y-89947000D01*
G75*
G02*
X149390156Y-89747000I0J200000D01*
G01*
G37*
%TD.AperFunction*%
%TO.P,R8,2*%
%TO.N,BMSOUT*%
%TA.AperFunction,SMDPad,CuDef*%
G36*
G01*
X151040156Y-89747000D02*
X151040156Y-89197000D01*
G75*
G02*
X151240156Y-88997000I200000J0D01*
G01*
X151640156Y-88997000D01*
G75*
G02*
X151840156Y-89197000I0J-200000D01*
G01*
X151840156Y-89747000D01*
G75*
G02*
X151640156Y-89947000I-200000J0D01*
G01*
X151240156Y-89947000D01*
G75*
G02*
X151040156Y-89747000I0J200000D01*
G01*
G37*
%TD.AperFunction*%
%TD*%
%TO.P,R9,1*%
%TO.N,Net-(D3-Pad2)*%
%TA.AperFunction,SMDPad,CuDef*%
G36*
G01*
X145340156Y-97197000D02*
X145340156Y-97747000D01*
G75*
G02*
X145140156Y-97947000I-200000J0D01*
G01*
X144740156Y-97947000D01*
G75*
G02*
X144540156Y-97747000I0J200000D01*
G01*
X144540156Y-97197000D01*
G75*
G02*
X144740156Y-96997000I200000J0D01*
G01*
X145140156Y-96997000D01*
G75*
G02*
X145340156Y-97197000I0J-200000D01*
G01*
G37*
%TD.AperFunction*%
%TO.P,R9,2*%
%TO.N,BMSOUT*%
%TA.AperFunction,SMDPad,CuDef*%
G36*
G01*
X143690156Y-97197000D02*
X143690156Y-97747000D01*
G75*
G02*
X143490156Y-97947000I-200000J0D01*
G01*
X143090156Y-97947000D01*
G75*
G02*
X142890156Y-97747000I0J200000D01*
G01*
X142890156Y-97197000D01*
G75*
G02*
X143090156Y-96997000I200000J0D01*
G01*
X143490156Y-96997000D01*
G75*
G02*
X143690156Y-97197000I0J-200000D01*
G01*
G37*
%TD.AperFunction*%
%TD*%
D17*
%TO.P,U1,1*%
%TO.N,Net-(U1-Pad1)*%
X141090156Y-89472000D03*
D18*
%TO.P,U1,2*%
%TO.N,Net-(U1-Pad2)*%
X141040156Y-89972000D03*
%TO.P,U1,3*%
%TO.N,Net-(U1-Pad3)*%
X141040156Y-90472000D03*
%TO.P,U1,4*%
%TO.N,Net-(C1-Pad2)*%
X142190156Y-90472000D03*
%TO.P,U1,5*%
%TO.N,Net-(C1-Pad1)*%
X142190156Y-89972000D03*
%TO.P,U1,6*%
%TO.N,Net-(R4-Pad1)*%
X142190156Y-89472000D03*
%TD*%
%TO.P,U3,1*%
%TO.N,Net-(R5-Pad2)*%
%TA.AperFunction,SMDPad,CuDef*%
G36*
G01*
X134177656Y-95347000D02*
X134052656Y-95347000D01*
G75*
G02*
X133990156Y-95284500I0J62500D01*
G01*
X133990156Y-94584500D01*
G75*
G02*
X134052656Y-94522000I62500J0D01*
G01*
X134177656Y-94522000D01*
G75*
G02*
X134240156Y-94584500I0J-62500D01*
G01*
X134240156Y-95284500D01*
G75*
G02*
X134177656Y-95347000I-62500J0D01*
G01*
G37*
%TD.AperFunction*%
%TO.P,U3,2*%
%TO.N,VBATT*%
%TA.AperFunction,SMDPad,CuDef*%
G36*
G01*
X134677656Y-95347000D02*
X134552656Y-95347000D01*
G75*
G02*
X134490156Y-95284500I0J62500D01*
G01*
X134490156Y-94584500D01*
G75*
G02*
X134552656Y-94522000I62500J0D01*
G01*
X134677656Y-94522000D01*
G75*
G02*
X134740156Y-94584500I0J-62500D01*
G01*
X134740156Y-95284500D01*
G75*
G02*
X134677656Y-95347000I-62500J0D01*
G01*
G37*
%TD.AperFunction*%
%TO.P,U3,3*%
%TA.AperFunction,SMDPad,CuDef*%
G36*
G01*
X135177656Y-95347000D02*
X135052656Y-95347000D01*
G75*
G02*
X134990156Y-95284500I0J62500D01*
G01*
X134990156Y-94584500D01*
G75*
G02*
X135052656Y-94522000I62500J0D01*
G01*
X135177656Y-94522000D01*
G75*
G02*
X135240156Y-94584500I0J-62500D01*
G01*
X135240156Y-95284500D01*
G75*
G02*
X135177656Y-95347000I-62500J0D01*
G01*
G37*
%TD.AperFunction*%
%TO.P,U3,4*%
%TO.N,GND*%
%TA.AperFunction,SMDPad,CuDef*%
G36*
G01*
X135677656Y-95347000D02*
X135552656Y-95347000D01*
G75*
G02*
X135490156Y-95284500I0J62500D01*
G01*
X135490156Y-94584500D01*
G75*
G02*
X135552656Y-94522000I62500J0D01*
G01*
X135677656Y-94522000D01*
G75*
G02*
X135740156Y-94584500I0J-62500D01*
G01*
X135740156Y-95284500D01*
G75*
G02*
X135677656Y-95347000I-62500J0D01*
G01*
G37*
%TD.AperFunction*%
%TO.P,U3,5*%
%TO.N,BMSOUT*%
%TA.AperFunction,SMDPad,CuDef*%
G36*
G01*
X136677656Y-94347000D02*
X135977656Y-94347000D01*
G75*
G02*
X135915156Y-94284500I0J62500D01*
G01*
X135915156Y-94159500D01*
G75*
G02*
X135977656Y-94097000I62500J0D01*
G01*
X136677656Y-94097000D01*
G75*
G02*
X136740156Y-94159500I0J-62500D01*
G01*
X136740156Y-94284500D01*
G75*
G02*
X136677656Y-94347000I-62500J0D01*
G01*
G37*
%TD.AperFunction*%
%TO.P,U3,6*%
%TO.N,GND*%
%TA.AperFunction,SMDPad,CuDef*%
G36*
G01*
X136677656Y-93847000D02*
X135977656Y-93847000D01*
G75*
G02*
X135915156Y-93784500I0J62500D01*
G01*
X135915156Y-93659500D01*
G75*
G02*
X135977656Y-93597000I62500J0D01*
G01*
X136677656Y-93597000D01*
G75*
G02*
X136740156Y-93659500I0J-62500D01*
G01*
X136740156Y-93784500D01*
G75*
G02*
X136677656Y-93847000I-62500J0D01*
G01*
G37*
%TD.AperFunction*%
%TO.P,U3,7*%
%TO.N,Net-(D3-Pad1)*%
%TA.AperFunction,SMDPad,CuDef*%
G36*
G01*
X136677656Y-93347000D02*
X135977656Y-93347000D01*
G75*
G02*
X135915156Y-93284500I0J62500D01*
G01*
X135915156Y-93159500D01*
G75*
G02*
X135977656Y-93097000I62500J0D01*
G01*
X136677656Y-93097000D01*
G75*
G02*
X136740156Y-93159500I0J-62500D01*
G01*
X136740156Y-93284500D01*
G75*
G02*
X136677656Y-93347000I-62500J0D01*
G01*
G37*
%TD.AperFunction*%
%TO.P,U3,8*%
%TO.N,GND*%
%TA.AperFunction,SMDPad,CuDef*%
G36*
G01*
X136677656Y-92847000D02*
X135977656Y-92847000D01*
G75*
G02*
X135915156Y-92784500I0J62500D01*
G01*
X135915156Y-92659500D01*
G75*
G02*
X135977656Y-92597000I62500J0D01*
G01*
X136677656Y-92597000D01*
G75*
G02*
X136740156Y-92659500I0J-62500D01*
G01*
X136740156Y-92784500D01*
G75*
G02*
X136677656Y-92847000I-62500J0D01*
G01*
G37*
%TD.AperFunction*%
%TO.P,U3,9*%
%TO.N,Net-(D2-Pad1)*%
%TA.AperFunction,SMDPad,CuDef*%
G36*
G01*
X135677656Y-92422000D02*
X135552656Y-92422000D01*
G75*
G02*
X135490156Y-92359500I0J62500D01*
G01*
X135490156Y-91659500D01*
G75*
G02*
X135552656Y-91597000I62500J0D01*
G01*
X135677656Y-91597000D01*
G75*
G02*
X135740156Y-91659500I0J-62500D01*
G01*
X135740156Y-92359500D01*
G75*
G02*
X135677656Y-92422000I-62500J0D01*
G01*
G37*
%TD.AperFunction*%
%TO.P,U3,10*%
%TO.N,BMSOUT*%
%TA.AperFunction,SMDPad,CuDef*%
G36*
G01*
X135177656Y-92422000D02*
X135052656Y-92422000D01*
G75*
G02*
X134990156Y-92359500I0J62500D01*
G01*
X134990156Y-91659500D01*
G75*
G02*
X135052656Y-91597000I62500J0D01*
G01*
X135177656Y-91597000D01*
G75*
G02*
X135240156Y-91659500I0J-62500D01*
G01*
X135240156Y-92359500D01*
G75*
G02*
X135177656Y-92422000I-62500J0D01*
G01*
G37*
%TD.AperFunction*%
%TO.P,U3,11*%
%TA.AperFunction,SMDPad,CuDef*%
G36*
G01*
X134677656Y-92422000D02*
X134552656Y-92422000D01*
G75*
G02*
X134490156Y-92359500I0J62500D01*
G01*
X134490156Y-91659500D01*
G75*
G02*
X134552656Y-91597000I62500J0D01*
G01*
X134677656Y-91597000D01*
G75*
G02*
X134740156Y-91659500I0J-62500D01*
G01*
X134740156Y-92359500D01*
G75*
G02*
X134677656Y-92422000I-62500J0D01*
G01*
G37*
%TD.AperFunction*%
%TO.P,U3,12*%
%TO.N,Net-(R6-Pad1)*%
%TA.AperFunction,SMDPad,CuDef*%
G36*
G01*
X134177656Y-92422000D02*
X134052656Y-92422000D01*
G75*
G02*
X133990156Y-92359500I0J62500D01*
G01*
X133990156Y-91659500D01*
G75*
G02*
X134052656Y-91597000I62500J0D01*
G01*
X134177656Y-91597000D01*
G75*
G02*
X134240156Y-91659500I0J-62500D01*
G01*
X134240156Y-92359500D01*
G75*
G02*
X134177656Y-92422000I-62500J0D01*
G01*
G37*
%TD.AperFunction*%
%TO.P,U3,13*%
%TO.N,VIN*%
%TA.AperFunction,SMDPad,CuDef*%
G36*
G01*
X133752656Y-92847000D02*
X133052656Y-92847000D01*
G75*
G02*
X132990156Y-92784500I0J62500D01*
G01*
X132990156Y-92659500D01*
G75*
G02*
X133052656Y-92597000I62500J0D01*
G01*
X133752656Y-92597000D01*
G75*
G02*
X133815156Y-92659500I0J-62500D01*
G01*
X133815156Y-92784500D01*
G75*
G02*
X133752656Y-92847000I-62500J0D01*
G01*
G37*
%TD.AperFunction*%
%TO.P,U3,14*%
%TO.N,Net-(U3-Pad14)*%
%TA.AperFunction,SMDPad,CuDef*%
G36*
G01*
X133752656Y-93347000D02*
X133052656Y-93347000D01*
G75*
G02*
X132990156Y-93284500I0J62500D01*
G01*
X132990156Y-93159500D01*
G75*
G02*
X133052656Y-93097000I62500J0D01*
G01*
X133752656Y-93097000D01*
G75*
G02*
X133815156Y-93159500I0J-62500D01*
G01*
X133815156Y-93284500D01*
G75*
G02*
X133752656Y-93347000I-62500J0D01*
G01*
G37*
%TD.AperFunction*%
%TO.P,U3,15*%
%TO.N,Net-(SW1-Pad2)*%
%TA.AperFunction,SMDPad,CuDef*%
G36*
G01*
X133752656Y-93847000D02*
X133052656Y-93847000D01*
G75*
G02*
X132990156Y-93784500I0J62500D01*
G01*
X132990156Y-93659500D01*
G75*
G02*
X133052656Y-93597000I62500J0D01*
G01*
X133752656Y-93597000D01*
G75*
G02*
X133815156Y-93659500I0J-62500D01*
G01*
X133815156Y-93784500D01*
G75*
G02*
X133752656Y-93847000I-62500J0D01*
G01*
G37*
%TD.AperFunction*%
%TO.P,U3,16*%
%TO.N,Net-(R7-Pad2)*%
%TA.AperFunction,SMDPad,CuDef*%
G36*
G01*
X133752656Y-94347000D02*
X133052656Y-94347000D01*
G75*
G02*
X132990156Y-94284500I0J62500D01*
G01*
X132990156Y-94159500D01*
G75*
G02*
X133052656Y-94097000I62500J0D01*
G01*
X133752656Y-94097000D01*
G75*
G02*
X133815156Y-94159500I0J-62500D01*
G01*
X133815156Y-94284500D01*
G75*
G02*
X133752656Y-94347000I-62500J0D01*
G01*
G37*
%TD.AperFunction*%
D19*
%TO.P,U3,17*%
%TO.N,GND*%
X134865156Y-93472000D03*
D20*
X134275156Y-94062000D03*
X134275156Y-92882000D03*
X135455156Y-94062000D03*
X135455156Y-92882000D03*
%TD*%
D21*
%TO.P,U4,1*%
%TO.N,D+*%
X121750156Y-94472000D03*
%TO.P,U4,2*%
%TO.N,D-*%
X121750156Y-93972000D03*
D22*
%TO.P,U4,3*%
%TO.N,GND*%
X121750156Y-93472000D03*
D21*
%TO.P,U4,4*%
%TO.N,D+*%
X121750156Y-92972000D03*
%TO.P,U4,5*%
%TO.N,D-*%
X121750156Y-92472000D03*
%TO.P,U4,2*%
X120980156Y-93972000D03*
%TO.P,U4,5*%
X120980156Y-92472000D03*
%TO.P,U4,4*%
%TO.N,D+*%
X120980156Y-92972000D03*
%TO.P,U4,1*%
X120980156Y-94472000D03*
D22*
%TO.P,U4,3*%
%TO.N,GND*%
X120980156Y-93472000D03*
%TD*%
D23*
%TO.N,Net-(C1-Pad1)*%
X143115156Y-89972000D03*
X142365156Y-92472000D03*
D24*
%TO.N,BMSOUT*%
X136865156Y-94972000D03*
D25*
X152615156Y-89472000D03*
X133865156Y-89722000D03*
X142115156Y-96472000D03*
%TO.N,GND*%
X109865156Y-95972000D03*
X109865156Y-90972000D03*
D26*
X135115156Y-96422000D03*
D24*
X139815156Y-92722000D03*
X139815156Y-92122000D03*
X139215156Y-92122000D03*
X139215156Y-92722000D03*
D26*
X138955156Y-90462000D03*
X135665156Y-90072000D03*
X127615156Y-90072000D03*
X131915156Y-90072000D03*
D23*
X121365156Y-91222000D03*
D25*
X128115156Y-93472000D03*
X138915156Y-97122000D03*
D23*
X129015156Y-97022000D03*
X129915156Y-97022000D03*
X122915156Y-97722000D03*
X151115156Y-94972000D03*
X144865156Y-93472000D03*
%TO.N,VIN*%
X129365156Y-94972000D03*
X129365156Y-91972000D03*
X125380156Y-91987000D03*
X125380156Y-94957000D03*
%TO.N,Net-(D2-Pad1)*%
X145465156Y-89472000D03*
X136365156Y-91772000D03*
%TO.N,Net-(D3-Pad1)*%
X147365156Y-96572000D03*
D24*
X138115156Y-94972000D03*
D23*
%TO.N,Net-(J1-PadA5)*%
X126365156Y-90722000D03*
X123115156Y-90222000D03*
D24*
%TO.N,D-*%
X114365156Y-91472000D03*
X112865156Y-92972000D03*
X114115156Y-92972000D03*
D23*
%TO.N,Net-(R6-Pad1)*%
X134000000Y-91000000D03*
X137865156Y-91472000D03*
%TO.N,Net-(SW1-Pad2)*%
X141115156Y-96972000D03*
X141115156Y-96972000D03*
X147365156Y-92972000D03*
%TD*%
D27*
%TO.N,Net-(C1-Pad2)*%
X144665156Y-90822000D02*
X143845156Y-90822000D01*
X141365156Y-92472000D02*
X141365156Y-94257002D01*
D28*
X141085158Y-94167000D02*
X139725156Y-94167000D01*
X141095158Y-93877000D02*
X139735156Y-93877000D01*
D29*
X142190156Y-90472000D02*
X142190156Y-91397000D01*
D27*
X142190156Y-91397000D02*
X141365156Y-92222000D01*
D28*
X141095158Y-94027000D02*
X139735156Y-94027000D01*
D27*
X141365156Y-93757002D02*
X141095158Y-94027000D01*
X141365156Y-92222000D02*
X141365156Y-94007002D01*
X143260156Y-91397000D02*
X142190156Y-91397000D01*
X144365156Y-90292000D02*
X143260156Y-91397000D01*
X144365156Y-90292000D02*
X145185156Y-90292000D01*
X145185156Y-90292000D02*
X145685156Y-90292000D01*
D28*
X162115156Y-89222000D02*
X154493158Y-89222000D01*
X164865156Y-91972000D02*
X162115156Y-89222000D01*
X164865156Y-92972000D02*
X164865156Y-91972000D01*
X163365156Y-94472000D02*
X164865156Y-92972000D01*
X162015156Y-94472000D02*
X163365156Y-94472000D01*
X153654157Y-90061001D02*
X153143148Y-90572010D01*
X154493158Y-89222000D02*
X153654157Y-90061001D01*
X153143148Y-90572010D02*
X145745165Y-90572010D01*
X145745165Y-90572010D02*
X144465166Y-90572010D01*
D29*
%TO.N,Net-(C1-Pad1)*%
X142365156Y-92722000D02*
X142365156Y-92722000D01*
X143115156Y-89972000D02*
X143365156Y-89722000D01*
X142190156Y-89972000D02*
X143115156Y-89972000D01*
X143435156Y-89652000D02*
X143365156Y-89722000D01*
X144365156Y-89652000D02*
X143435156Y-89652000D01*
X142365156Y-92472000D02*
X142365156Y-93647000D01*
D30*
%TO.N,BMSOUT*%
X135115156Y-92309500D02*
X134615156Y-92309500D01*
X134615156Y-91722000D02*
X135115156Y-91722000D01*
X135115156Y-92259500D02*
X134615156Y-92259500D01*
X134615156Y-92184500D02*
X135115156Y-92184500D01*
D27*
X134885156Y-91917000D02*
X134902656Y-91934500D01*
D30*
X134902656Y-91934500D02*
X135115156Y-91934500D01*
D27*
X134885156Y-90722000D02*
X134885156Y-91917000D01*
D30*
X134615156Y-91934500D02*
X134902656Y-91934500D01*
D27*
X151440156Y-89472000D02*
X152615156Y-89472000D01*
X152615156Y-89472000D02*
X152615156Y-89472000D01*
X134885156Y-90722000D02*
X134865156Y-90722000D01*
X134865156Y-90722000D02*
X133865156Y-89722000D01*
X136327656Y-94434500D02*
X136865156Y-94972000D01*
D30*
X136327656Y-94222000D02*
X136327656Y-94434500D01*
D31*
X114490156Y-89222000D02*
X112040156Y-91672000D01*
X133365156Y-89222000D02*
X114490156Y-89222000D01*
X133865156Y-89722000D02*
X133365156Y-89222000D01*
D27*
X143115156Y-97472000D02*
X142115156Y-96472000D01*
X143290156Y-97472000D02*
X143115156Y-97472000D01*
%TO.N,GND*%
X131065156Y-91657000D02*
X131800156Y-91657000D01*
X130265156Y-91657000D02*
X131000156Y-91657000D01*
X129215156Y-95957000D02*
X129950156Y-95957000D01*
X129165156Y-95757000D02*
X129900156Y-95757000D01*
X130615156Y-96957000D02*
X129880156Y-96957000D01*
X130615156Y-97457000D02*
X129880156Y-97457000D01*
X130865156Y-97207000D02*
X130130156Y-97207000D01*
X130635156Y-95222000D02*
X130635156Y-96417000D01*
X130135156Y-94972000D02*
X130135156Y-96167000D01*
X157115156Y-91222000D02*
X157365156Y-91222000D01*
X156865156Y-91222000D02*
X157115156Y-91222000D01*
X156615156Y-91222000D02*
X156865156Y-91222000D01*
X156365156Y-91222000D02*
X156615156Y-91222000D01*
X156115156Y-91222000D02*
X156365156Y-91222000D01*
X155865156Y-91222000D02*
X156115156Y-91222000D01*
D28*
X155115156Y-94222000D02*
X154615156Y-94722000D01*
X155115156Y-93472000D02*
X154615156Y-93972000D01*
X155115156Y-92722000D02*
X154615156Y-93222000D01*
X155865156Y-91472000D02*
X155365156Y-91972000D01*
X155115156Y-92222000D02*
X154615156Y-92722000D01*
X155615156Y-91722000D02*
X155115156Y-92222000D01*
D27*
X135090156Y-96422000D02*
X135640156Y-96972000D01*
X135415156Y-96422000D02*
X135690156Y-96422000D01*
X138715156Y-97422000D02*
X135890156Y-97422000D01*
D31*
X135865156Y-97272000D02*
X135865156Y-96772000D01*
X135865156Y-97172000D02*
X135865156Y-96672000D01*
D27*
X138715156Y-96522000D02*
X135890156Y-96522000D01*
X140715156Y-92782000D02*
X140715156Y-92337000D01*
X140715156Y-92512000D02*
X140715156Y-92067000D01*
X140710156Y-92027000D02*
X139640156Y-92027000D01*
X140710156Y-92047000D02*
X139640156Y-92047000D01*
D30*
X136577656Y-92722000D02*
X135365156Y-92722000D01*
X135615156Y-94934500D02*
X135615156Y-93722000D01*
D27*
X135115156Y-93722000D02*
X134865156Y-93472000D01*
D30*
X136327656Y-93722000D02*
X135115156Y-93722000D01*
D32*
X121750156Y-93472000D02*
X117365156Y-93472000D01*
D27*
X123420156Y-91987000D02*
X123365156Y-92042000D01*
X124615156Y-91987000D02*
X123420156Y-91987000D01*
X123420156Y-94957000D02*
X123365156Y-94902000D01*
X124615156Y-94957000D02*
X123420156Y-94957000D01*
X130120156Y-92042000D02*
X130115157Y-92037001D01*
X131365156Y-92042000D02*
X130120156Y-92042000D01*
X130120156Y-94902000D02*
X130115157Y-94906999D01*
X120540156Y-90222000D02*
X120540156Y-90397000D01*
D28*
X120540156Y-90397000D02*
X121365156Y-91222000D01*
D27*
X131965156Y-90122000D02*
X131965156Y-90072000D01*
X131995156Y-90152000D02*
X131965156Y-90122000D01*
X132045156Y-90152000D02*
X131965156Y-90072000D01*
X132865156Y-90152000D02*
X132045156Y-90152000D01*
X128380156Y-90472000D02*
X128015156Y-90472000D01*
X128015156Y-90472000D02*
X127615156Y-90072000D01*
X131040156Y-95457000D02*
X130485156Y-94902000D01*
X131040156Y-96722000D02*
X131040156Y-95457000D01*
X130485156Y-94902000D02*
X130120156Y-94902000D01*
X131365156Y-94902000D02*
X130485156Y-94902000D01*
X131040156Y-96722000D02*
X130915156Y-96722000D01*
X135845156Y-90277000D02*
X135040156Y-89472000D01*
X135845156Y-90722000D02*
X135845156Y-90277000D01*
D28*
X120540156Y-96722000D02*
X120540156Y-97647000D01*
D27*
X120540156Y-96722000D02*
X120540156Y-97197000D01*
D28*
X120540156Y-97197000D02*
X120015156Y-97722000D01*
D27*
X120540156Y-96722000D02*
X120015156Y-96722000D01*
X120015156Y-96722000D02*
X119265156Y-97472000D01*
X120540156Y-96722000D02*
X120665156Y-96722000D01*
X121365156Y-97422000D02*
X121315156Y-97422000D01*
X120665156Y-96722000D02*
X121365156Y-97422000D01*
X121365156Y-97422000D02*
X121615156Y-97672000D01*
X121315156Y-97422000D02*
X121065156Y-97672000D01*
D28*
X112040156Y-95272000D02*
X110165156Y-95272000D01*
X112040156Y-95272000D02*
X112040156Y-96547000D01*
X112040156Y-95272000D02*
X111140156Y-96172000D01*
X112040156Y-95272000D02*
X112815156Y-96047000D01*
D27*
X131365156Y-92042000D02*
X131045156Y-92042000D01*
X131045156Y-92042000D02*
X130165156Y-92922000D01*
X130165156Y-92922000D02*
X130165156Y-94022000D01*
X131045156Y-94902000D02*
X130165156Y-94022000D01*
X131365156Y-94902000D02*
X131045156Y-94902000D01*
X130165156Y-92087000D02*
X130120156Y-92042000D01*
X130165156Y-92922000D02*
X130165156Y-92087000D01*
X130115157Y-94906999D02*
X130115157Y-94957000D01*
X130165156Y-94857000D02*
X130115157Y-94906999D01*
X130165156Y-94022000D02*
X130165156Y-94857000D01*
X130165156Y-94022000D02*
X130165156Y-94422000D01*
X130165156Y-94422000D02*
X130365156Y-94622000D01*
X130165156Y-92572000D02*
X130415156Y-92322000D01*
X130165156Y-92922000D02*
X130165156Y-92572000D01*
X139690156Y-90472000D02*
X138965156Y-90472000D01*
X137345156Y-96972000D02*
X137615156Y-96702000D01*
X135940156Y-96972000D02*
X137345156Y-96972000D01*
X136090156Y-97122000D02*
X135940156Y-96972000D01*
X138915156Y-97122000D02*
X136090156Y-97122000D01*
X135390156Y-96422000D02*
X135940156Y-96972000D01*
X135115156Y-96422000D02*
X135390156Y-96422000D01*
X157365156Y-93722000D02*
X157365156Y-93472000D01*
D33*
X157365156Y-94978220D02*
X157365156Y-93472000D01*
D27*
X130385156Y-95722000D02*
X130385156Y-96917000D01*
D28*
X144825156Y-95059500D02*
X144825156Y-94012000D01*
X144825156Y-95059500D02*
X145865156Y-94019500D01*
X144825156Y-95059500D02*
X144365156Y-94599500D01*
D27*
%TO.N,VBATT*%
X140795156Y-95542000D02*
X141265156Y-95072000D01*
X140595156Y-95742000D02*
X141065156Y-95272000D01*
D30*
X134615156Y-94634500D02*
X135115156Y-94634500D01*
X134615156Y-95222000D02*
X135115156Y-95222000D01*
X134615156Y-95184500D02*
X135115156Y-95184500D01*
X134615156Y-94684500D02*
X135115156Y-94684500D01*
X134827656Y-94934500D02*
X135115156Y-94934500D01*
X134865156Y-94972000D02*
X134827656Y-94934500D01*
X134615156Y-94934500D02*
X134865156Y-94972000D01*
D31*
X134865156Y-95472000D02*
X134865156Y-94972000D01*
D27*
X134765156Y-95572000D02*
X134865156Y-95472000D01*
X135095156Y-95742000D02*
X134765156Y-95572000D01*
X135285156Y-95742000D02*
X134915156Y-95372000D01*
X134915156Y-95372000D02*
X134827656Y-94934500D01*
X135345156Y-95742000D02*
X135285156Y-95742000D01*
X134827656Y-95142878D02*
X134915156Y-95372000D01*
X135345156Y-95742000D02*
X135095156Y-95742000D01*
D28*
X142365156Y-95297000D02*
X141780156Y-95297000D01*
X141440156Y-95297000D02*
X141265156Y-95472000D01*
X142365156Y-95297000D02*
X141440156Y-95297000D01*
D27*
X140095156Y-95742000D02*
X140295156Y-95742000D01*
X141335156Y-95742000D02*
X140095156Y-95742000D01*
X140095156Y-95742000D02*
X135345156Y-95742000D01*
D28*
X142365156Y-95297000D02*
X142990156Y-95297000D01*
X143865156Y-96172000D02*
X145565156Y-96172000D01*
X145565156Y-96172000D02*
X146265156Y-95472000D01*
X148215156Y-95472000D02*
X149965156Y-97222000D01*
X146265156Y-95472000D02*
X148215156Y-95472000D01*
X143865156Y-96172000D02*
X142990156Y-95297000D01*
D27*
%TO.N,VIN*%
X126115156Y-91987000D02*
X125380156Y-91987000D01*
X126115156Y-94957000D02*
X125380156Y-94957000D01*
X128615156Y-94957000D02*
X129350156Y-94957000D01*
X128615156Y-91987000D02*
X129350156Y-91987000D01*
X125380156Y-91987000D02*
X125380156Y-91987000D01*
X125380156Y-94957000D02*
X125380156Y-94957000D01*
X129365156Y-91972000D02*
X129365156Y-94972000D01*
X129365156Y-90487000D02*
X129350156Y-90472000D01*
X129365156Y-91972000D02*
X129365156Y-90487000D01*
D30*
X133205156Y-92524500D02*
X133402656Y-92722000D01*
D27*
X133205156Y-91132000D02*
X133205156Y-92524500D01*
X133205156Y-91132000D02*
X132865156Y-90792000D01*
X130615156Y-90472000D02*
X129350156Y-90472000D01*
X130935156Y-90792000D02*
X130615156Y-90472000D01*
X132865156Y-90792000D02*
X130935156Y-90792000D01*
D28*
%TO.N,Net-(D2-Pad2)*%
X148152656Y-89472000D02*
X149790156Y-89472000D01*
D30*
%TO.N,Net-(D2-Pad1)*%
X135615156Y-92009500D02*
X136127656Y-92009500D01*
D29*
X136127656Y-92009500D02*
X136365156Y-91772000D01*
D27*
X136365156Y-91772000D02*
X136365156Y-91772000D01*
X146577656Y-89472000D02*
X145465156Y-89472000D01*
D34*
%TO.N,Net-(D3-Pad1)*%
X137035146Y-94486992D02*
X137520154Y-94972000D01*
X137035146Y-93516990D02*
X137035146Y-94486992D01*
X136740156Y-93222000D02*
X137035146Y-93516990D01*
X136327656Y-93222000D02*
X136740156Y-93222000D01*
X137520154Y-94972000D02*
X138115156Y-94972000D01*
X148152656Y-97472000D02*
X148152656Y-97359500D01*
D27*
X148152656Y-97359500D02*
X147365156Y-96572000D01*
D28*
%TO.N,Net-(D3-Pad2)*%
X144940156Y-97472000D02*
X146577656Y-97472000D01*
%TO.N,Net-(F1-Pad2)*%
X152765156Y-97222000D02*
X152765156Y-92822000D01*
X159915155Y-90371999D02*
X162015156Y-92472000D01*
X155215157Y-90371999D02*
X159915155Y-90371999D01*
X152765156Y-92822000D02*
X155215157Y-90371999D01*
D29*
%TO.N,Net-(J1-PadA5)*%
X126615156Y-91987000D02*
X126615156Y-90972000D01*
X126615156Y-90972000D02*
X126365156Y-90722000D01*
X126365156Y-90722000D02*
X126365156Y-90722000D01*
X122190156Y-90222000D02*
X123115156Y-90222000D01*
X123115156Y-90222000D02*
X123115156Y-90222000D01*
%TO.N,D+*%
X120980156Y-92972000D02*
X121750156Y-92972000D01*
X120980156Y-94472000D02*
X121750156Y-94472000D01*
X121750156Y-94668384D02*
X121750156Y-94472000D01*
X122863773Y-95782001D02*
X121750156Y-94668384D01*
X121750156Y-94657000D02*
X121565156Y-94472000D01*
X121750156Y-94668384D02*
X121750156Y-94657000D01*
X122430167Y-92866989D02*
X122325156Y-92972000D01*
X126885169Y-92866989D02*
X122430167Y-92866989D01*
X127115156Y-92637002D02*
X126885169Y-92866989D01*
X122325156Y-92972000D02*
X121750156Y-92972000D01*
X127115156Y-91987000D02*
X127115156Y-92637002D01*
X113365156Y-92722000D02*
X113365156Y-93472000D01*
X114365156Y-92222000D02*
X113865156Y-92222000D01*
X116115156Y-90472000D02*
X114365156Y-92222000D01*
X118615156Y-90472000D02*
X116115156Y-90472000D01*
X120115156Y-91972000D02*
X118615156Y-90472000D01*
X120115156Y-92472000D02*
X120115156Y-91972000D01*
X120615156Y-92972000D02*
X120115156Y-92472000D01*
X113865156Y-92222000D02*
X113365156Y-92722000D01*
X120980156Y-92972000D02*
X120615156Y-92972000D01*
X114865156Y-96972000D02*
X113865156Y-95972000D01*
X113865156Y-95972000D02*
X113865156Y-94972000D01*
X120865156Y-94472000D02*
X120615156Y-94722000D01*
X120980156Y-94472000D02*
X120865156Y-94472000D01*
X113365156Y-93472000D02*
X112865156Y-93972000D01*
X120615156Y-95222000D02*
X118865156Y-96972000D01*
X118865156Y-96972000D02*
X114865156Y-96972000D01*
X120615156Y-94722000D02*
X120615156Y-95222000D01*
X113865156Y-94972000D02*
X112865156Y-93972000D01*
X127615156Y-94957000D02*
X127615156Y-96222000D01*
X127615156Y-96222000D02*
X126865156Y-96972000D01*
X126865156Y-96972000D02*
X124865156Y-96972000D01*
X123675157Y-95782001D02*
X122863773Y-95782001D01*
X124865156Y-96972000D02*
X123675157Y-95782001D01*
X112140156Y-93972000D02*
X112040156Y-94072000D01*
X112865156Y-93972000D02*
X112140156Y-93972000D01*
%TO.N,D-*%
X120980156Y-93972000D02*
X121750156Y-93972000D01*
X120980156Y-92472000D02*
X121750156Y-92472000D01*
X121750156Y-92275616D02*
X121750156Y-92472000D01*
X121750156Y-92287000D02*
X121565156Y-92472000D01*
X121750156Y-92275616D02*
X121750156Y-92287000D01*
X122325156Y-93972000D02*
X121750156Y-93972000D01*
X122430167Y-94077011D02*
X122325156Y-93972000D01*
X126885169Y-94077011D02*
X122430167Y-94077011D01*
X127115156Y-94306998D02*
X126885169Y-94077011D01*
X127115156Y-94957000D02*
X127115156Y-94306998D01*
X114365156Y-91472000D02*
X114365156Y-91472000D01*
X116115156Y-96472000D02*
X114365156Y-94722000D01*
X120115156Y-94972000D02*
X118615156Y-96472000D01*
X118615156Y-96472000D02*
X116115156Y-96472000D01*
X120115156Y-94472000D02*
X120115156Y-94972000D01*
X120615156Y-93972000D02*
X120115156Y-94472000D01*
X120980156Y-93972000D02*
X120615156Y-93972000D01*
X114365155Y-93221999D02*
X114115156Y-92972000D01*
X114365156Y-94722000D02*
X114365155Y-93221999D01*
X120615156Y-92222000D02*
X120865156Y-92472000D01*
X120865156Y-92472000D02*
X120980156Y-92472000D01*
X114365156Y-91472000D02*
X115865156Y-89972000D01*
X120615156Y-91722000D02*
X118865156Y-89972000D01*
X115865156Y-89972000D02*
X118865156Y-89972000D01*
X120615156Y-91722000D02*
X120615156Y-92222000D01*
X112140156Y-92972000D02*
X112040156Y-92872000D01*
X112865156Y-92972000D02*
X112140156Y-92972000D01*
X122863773Y-91161999D02*
X121750156Y-92275616D01*
X123675157Y-91161999D02*
X122863773Y-91161999D01*
X124865156Y-89972000D02*
X123675157Y-91161999D01*
X126577158Y-89972000D02*
X124865156Y-89972000D01*
X127615156Y-91009998D02*
X126577158Y-89972000D01*
X127615156Y-91987000D02*
X127615156Y-91009998D01*
%TO.N,Net-(J1-PadB5)*%
X122190156Y-96722000D02*
X123115156Y-96722000D01*
X123115156Y-96722000D02*
X123115156Y-96722000D01*
X123865156Y-97472000D02*
X123115156Y-96722000D01*
X127115156Y-97472000D02*
X123865156Y-97472000D01*
X128115156Y-96472000D02*
X127115156Y-97472000D01*
X128115156Y-94957000D02*
X128115156Y-96472000D01*
%TO.N,Net-(R4-Pad1)*%
X137080157Y-89081999D02*
X136690156Y-89472000D01*
X141800155Y-89081999D02*
X137080157Y-89081999D01*
X142190156Y-89472000D02*
X141800155Y-89081999D01*
D30*
%TO.N,Net-(R5-Pad2)*%
X134115156Y-96797000D02*
X134115156Y-94934500D01*
D29*
X134290156Y-96972000D02*
X134115156Y-96797000D01*
%TO.N,Net-(R6-Pad1)*%
X138040156Y-90472000D02*
X137928000Y-90472000D01*
X134115156Y-92009500D02*
X134115156Y-91115156D01*
X134115156Y-91115156D02*
X134000000Y-91000000D01*
X134000000Y-91000000D02*
X134000000Y-91000000D01*
X138040156Y-90472000D02*
X138040156Y-91297000D01*
X138040156Y-91297000D02*
X137865156Y-91472000D01*
X137865156Y-91472000D02*
X137865156Y-91472000D01*
%TO.N,Net-(R7-Pad2)*%
X133402656Y-94534500D02*
X133402656Y-96259500D01*
D30*
X133402656Y-94222000D02*
X133402656Y-94534500D01*
D29*
X133402656Y-94284500D02*
X133415156Y-94272000D01*
X133402656Y-94534500D02*
X133402656Y-94284500D01*
X132940156Y-96722000D02*
X133402656Y-96259500D01*
X132690156Y-96722000D02*
X132940156Y-96722000D01*
D30*
%TO.N,Net-(SW1-Pad2)*%
X133402656Y-93722000D02*
X132915156Y-93722000D01*
D29*
X132915156Y-93722000D02*
X132565156Y-94072000D01*
X132565156Y-94072000D02*
X132565156Y-95472000D01*
X132565156Y-95472000D02*
X131865156Y-96172000D01*
X131865156Y-96172000D02*
X131865156Y-97272000D01*
X131865156Y-97272000D02*
X132665156Y-98072000D01*
X132665156Y-98072000D02*
X137365156Y-98072000D01*
X137365156Y-98072000D02*
X139765156Y-98072000D01*
X139765156Y-98072000D02*
X140015156Y-98072000D01*
X140015156Y-98072000D02*
X141115156Y-96972000D01*
X141115156Y-96972000D02*
X141115156Y-96972000D01*
X141115156Y-96972000D02*
X141115156Y-96972000D01*
X147365156Y-91884500D02*
X147365156Y-92972000D01*
X147365156Y-92972000D02*
X147365156Y-92972000D01*
D34*
%TO.N,Net-(U1-Pad2)*%
X137578000Y-89722000D02*
X140365156Y-89722000D01*
X137300000Y-90000000D02*
X137578000Y-89722000D01*
X140365156Y-89722000D02*
X140615156Y-89972000D01*
X137300000Y-90200000D02*
X137300000Y-90000000D01*
X140615156Y-89972000D02*
X141040156Y-89972000D01*
X137835156Y-92247000D02*
X137540156Y-92247000D01*
X137096578Y-91803422D02*
X137096578Y-90403422D01*
X137540156Y-92247000D02*
X137096578Y-91803422D01*
X137096578Y-90403422D02*
X137300000Y-90200000D01*
%TO.N,Net-(U1-Pad3)*%
X138275158Y-94197000D02*
X138615156Y-93857002D01*
X137835156Y-94197000D02*
X138275158Y-94197000D01*
X138615156Y-91706998D02*
X138850154Y-91472000D01*
X138615156Y-93857002D02*
X138615156Y-91706998D01*
X140040156Y-91472000D02*
X141040156Y-90472000D01*
X138850154Y-91472000D02*
X140040156Y-91472000D01*
D29*
%TO.N,Net-(U2-Pad2)*%
X137465156Y-92897000D02*
X137465156Y-93547000D01*
X137865156Y-92897000D02*
X137865156Y-93547000D01*
X137965156Y-92897000D02*
X137965156Y-93547000D01*
X138265156Y-92897000D02*
X138265156Y-93547000D01*
X137385156Y-92897000D02*
X137385156Y-93547000D01*
X138165156Y-92897000D02*
X138165156Y-93547000D01*
X137665156Y-92897000D02*
X137665156Y-93547000D01*
%TD*%
D35*
%TO.N,GND*%
X168986790Y-88857711D02*
X169103787Y-88893034D01*
X169211701Y-88950413D01*
X169306410Y-89027656D01*
X169310602Y-89032722D01*
X169215156Y-89023322D01*
X166315156Y-89023322D01*
X166198360Y-89034825D01*
X166086052Y-89068894D01*
X165982548Y-89124217D01*
X165891827Y-89198671D01*
X165817373Y-89289392D01*
X165762050Y-89392896D01*
X165727981Y-89505204D01*
X165716478Y-89622000D01*
X165716478Y-90622000D01*
X165727981Y-90738796D01*
X165762050Y-90851104D01*
X165817373Y-90954608D01*
X165891827Y-91045329D01*
X165982548Y-91119783D01*
X166086052Y-91175106D01*
X166198360Y-91209175D01*
X166315156Y-91220678D01*
X169215156Y-91220678D01*
X169331952Y-91209175D01*
X169444260Y-91175106D01*
X169493156Y-91148971D01*
X169493157Y-95795029D01*
X169444260Y-95768894D01*
X169331952Y-95734825D01*
X169215156Y-95723322D01*
X166315156Y-95723322D01*
X166198360Y-95734825D01*
X166086052Y-95768894D01*
X165982548Y-95824217D01*
X165891827Y-95898671D01*
X165817373Y-95989392D01*
X165762050Y-96092896D01*
X165727981Y-96205204D01*
X165716478Y-96322000D01*
X165716478Y-97322000D01*
X165727981Y-97438796D01*
X165762050Y-97551104D01*
X165817373Y-97654608D01*
X165891827Y-97745329D01*
X165982548Y-97819783D01*
X166086052Y-97875106D01*
X166198360Y-97909175D01*
X166315156Y-97920678D01*
X169215156Y-97920678D01*
X169311157Y-97911223D01*
X169309501Y-97913253D01*
X169215333Y-97991157D01*
X169107825Y-98049285D01*
X168991072Y-98085426D01*
X168852412Y-98100000D01*
X153680490Y-98100000D01*
X153693262Y-98076104D01*
X153727331Y-97963796D01*
X153738834Y-97847000D01*
X153738834Y-96597000D01*
X153727331Y-96480204D01*
X153693262Y-96367896D01*
X153637939Y-96264392D01*
X153612156Y-96232976D01*
X153612156Y-95675148D01*
X155341613Y-95675148D01*
X155617783Y-96093118D01*
X156162713Y-96383649D01*
X156753852Y-96562287D01*
X157368484Y-96622168D01*
X157982987Y-96560990D01*
X158573748Y-96381103D01*
X159112529Y-96093118D01*
X159388699Y-95675148D01*
X157365156Y-93651605D01*
X155341613Y-95675148D01*
X153612156Y-95675148D01*
X153612156Y-93172838D01*
X154426687Y-92358307D01*
X154274869Y-92860696D01*
X154214988Y-93475328D01*
X154276166Y-94089831D01*
X154456053Y-94680592D01*
X154744038Y-95219373D01*
X155162008Y-95495543D01*
X157185551Y-93472000D01*
X157171409Y-93457858D01*
X157351014Y-93278253D01*
X157365156Y-93292395D01*
X157379299Y-93278253D01*
X157558904Y-93457858D01*
X157544761Y-93472000D01*
X159568304Y-95495543D01*
X159986274Y-95219373D01*
X160051772Y-95096523D01*
X160091827Y-95145329D01*
X160182548Y-95219783D01*
X160286052Y-95275106D01*
X160398360Y-95309175D01*
X160515156Y-95320678D01*
X163340595Y-95320678D01*
X163365156Y-95323097D01*
X163389717Y-95320678D01*
X163515156Y-95320678D01*
X163631952Y-95309175D01*
X163744260Y-95275106D01*
X163847764Y-95219783D01*
X163938485Y-95145329D01*
X164012939Y-95054608D01*
X164050317Y-94984677D01*
X165434657Y-93600338D01*
X165466973Y-93573817D01*
X165572818Y-93444845D01*
X165651468Y-93297701D01*
X165699900Y-93138041D01*
X165712156Y-93013607D01*
X165712156Y-93013600D01*
X165716253Y-92972001D01*
X165712156Y-92930402D01*
X165712156Y-92013598D01*
X165716253Y-91971999D01*
X165712156Y-91930400D01*
X165712156Y-91930393D01*
X165699900Y-91805959D01*
X165651468Y-91646299D01*
X165572818Y-91499155D01*
X165466973Y-91370183D01*
X165434656Y-91343661D01*
X162934994Y-88844000D01*
X168846958Y-88844000D01*
X168986790Y-88857711D01*
%TA.AperFunction,Conductor*%
D36*
G36*
X168986790Y-88857711D02*
G01*
X169103787Y-88893034D01*
X169211701Y-88950413D01*
X169306410Y-89027656D01*
X169310602Y-89032722D01*
X169215156Y-89023322D01*
X166315156Y-89023322D01*
X166198360Y-89034825D01*
X166086052Y-89068894D01*
X165982548Y-89124217D01*
X165891827Y-89198671D01*
X165817373Y-89289392D01*
X165762050Y-89392896D01*
X165727981Y-89505204D01*
X165716478Y-89622000D01*
X165716478Y-90622000D01*
X165727981Y-90738796D01*
X165762050Y-90851104D01*
X165817373Y-90954608D01*
X165891827Y-91045329D01*
X165982548Y-91119783D01*
X166086052Y-91175106D01*
X166198360Y-91209175D01*
X166315156Y-91220678D01*
X169215156Y-91220678D01*
X169331952Y-91209175D01*
X169444260Y-91175106D01*
X169493156Y-91148971D01*
X169493157Y-95795029D01*
X169444260Y-95768894D01*
X169331952Y-95734825D01*
X169215156Y-95723322D01*
X166315156Y-95723322D01*
X166198360Y-95734825D01*
X166086052Y-95768894D01*
X165982548Y-95824217D01*
X165891827Y-95898671D01*
X165817373Y-95989392D01*
X165762050Y-96092896D01*
X165727981Y-96205204D01*
X165716478Y-96322000D01*
X165716478Y-97322000D01*
X165727981Y-97438796D01*
X165762050Y-97551104D01*
X165817373Y-97654608D01*
X165891827Y-97745329D01*
X165982548Y-97819783D01*
X166086052Y-97875106D01*
X166198360Y-97909175D01*
X166315156Y-97920678D01*
X169215156Y-97920678D01*
X169311157Y-97911223D01*
X169309501Y-97913253D01*
X169215333Y-97991157D01*
X169107825Y-98049285D01*
X168991072Y-98085426D01*
X168852412Y-98100000D01*
X153680490Y-98100000D01*
X153693262Y-98076104D01*
X153727331Y-97963796D01*
X153738834Y-97847000D01*
X153738834Y-96597000D01*
X153727331Y-96480204D01*
X153693262Y-96367896D01*
X153637939Y-96264392D01*
X153612156Y-96232976D01*
X153612156Y-95675148D01*
X155341613Y-95675148D01*
X155617783Y-96093118D01*
X156162713Y-96383649D01*
X156753852Y-96562287D01*
X157368484Y-96622168D01*
X157982987Y-96560990D01*
X158573748Y-96381103D01*
X159112529Y-96093118D01*
X159388699Y-95675148D01*
X157365156Y-93651605D01*
X155341613Y-95675148D01*
X153612156Y-95675148D01*
X153612156Y-93172838D01*
X154426687Y-92358307D01*
X154274869Y-92860696D01*
X154214988Y-93475328D01*
X154276166Y-94089831D01*
X154456053Y-94680592D01*
X154744038Y-95219373D01*
X155162008Y-95495543D01*
X157185551Y-93472000D01*
X157171409Y-93457858D01*
X157351014Y-93278253D01*
X157365156Y-93292395D01*
X157379299Y-93278253D01*
X157558904Y-93457858D01*
X157544761Y-93472000D01*
X159568304Y-95495543D01*
X159986274Y-95219373D01*
X160051772Y-95096523D01*
X160091827Y-95145329D01*
X160182548Y-95219783D01*
X160286052Y-95275106D01*
X160398360Y-95309175D01*
X160515156Y-95320678D01*
X163340595Y-95320678D01*
X163365156Y-95323097D01*
X163389717Y-95320678D01*
X163515156Y-95320678D01*
X163631952Y-95309175D01*
X163744260Y-95275106D01*
X163847764Y-95219783D01*
X163938485Y-95145329D01*
X164012939Y-95054608D01*
X164050317Y-94984677D01*
X165434657Y-93600338D01*
X165466973Y-93573817D01*
X165572818Y-93444845D01*
X165651468Y-93297701D01*
X165699900Y-93138041D01*
X165712156Y-93013607D01*
X165712156Y-93013600D01*
X165716253Y-92972001D01*
X165712156Y-92930402D01*
X165712156Y-92013598D01*
X165716253Y-91971999D01*
X165712156Y-91930400D01*
X165712156Y-91930393D01*
X165699900Y-91805959D01*
X165651468Y-91646299D01*
X165572818Y-91499155D01*
X165466973Y-91370183D01*
X165434656Y-91343661D01*
X162934994Y-88844000D01*
X168846958Y-88844000D01*
X168986790Y-88857711D01*
G37*
%TD.AperFunction*%
D35*
X144423559Y-91419010D02*
X146777778Y-91419010D01*
X146703174Y-91530663D01*
X146646863Y-91666608D01*
X146618156Y-91810927D01*
X146618156Y-91958073D01*
X146646863Y-92102392D01*
X146703174Y-92238337D01*
X146784924Y-92360684D01*
X146852490Y-92428250D01*
X146784924Y-92495816D01*
X146703174Y-92618163D01*
X146646863Y-92754108D01*
X146618156Y-92898427D01*
X146618156Y-93045573D01*
X146646863Y-93189892D01*
X146703174Y-93325837D01*
X146784924Y-93448184D01*
X146888972Y-93552232D01*
X147011319Y-93633982D01*
X147147264Y-93690293D01*
X147291583Y-93719000D01*
X147438729Y-93719000D01*
X147583048Y-93690293D01*
X147718993Y-93633982D01*
X147841340Y-93552232D01*
X147945388Y-93448184D01*
X148027138Y-93325837D01*
X148083449Y-93189892D01*
X148112156Y-93045573D01*
X148112156Y-92898427D01*
X148083449Y-92754108D01*
X148027138Y-92618163D01*
X147945388Y-92495816D01*
X147877822Y-92428250D01*
X147945388Y-92360684D01*
X148027138Y-92238337D01*
X148083449Y-92102392D01*
X148112156Y-91958073D01*
X148112156Y-91810927D01*
X148083449Y-91666608D01*
X148027138Y-91530663D01*
X147952534Y-91419010D01*
X152970308Y-91419010D01*
X152195657Y-92193661D01*
X152163340Y-92220183D01*
X152136818Y-92252500D01*
X152136816Y-92252502D01*
X152120656Y-92272193D01*
X152057495Y-92349155D01*
X151990406Y-92474670D01*
X151978845Y-92496299D01*
X151930412Y-92655960D01*
X151914059Y-92822000D01*
X151918157Y-92863609D01*
X151918156Y-96232976D01*
X151892373Y-96264392D01*
X151837050Y-96367896D01*
X151802981Y-96480204D01*
X151791478Y-96597000D01*
X151791478Y-97847000D01*
X151802981Y-97963796D01*
X151837050Y-98076104D01*
X151849822Y-98100000D01*
X150880490Y-98100000D01*
X150893262Y-98076104D01*
X150927331Y-97963796D01*
X150938834Y-97847000D01*
X150938834Y-96597000D01*
X150927331Y-96480204D01*
X150893262Y-96367896D01*
X150837939Y-96264392D01*
X150763485Y-96173671D01*
X150672764Y-96099217D01*
X150569260Y-96043894D01*
X150456952Y-96009825D01*
X150340156Y-95998322D01*
X149939317Y-95998322D01*
X149726615Y-95785620D01*
X149831583Y-95806500D01*
X149978729Y-95806500D01*
X150123048Y-95777793D01*
X150258993Y-95721482D01*
X150381340Y-95639732D01*
X150485388Y-95535684D01*
X150567138Y-95413337D01*
X150623449Y-95277392D01*
X150652156Y-95133073D01*
X150652156Y-94985927D01*
X150623449Y-94841608D01*
X150567138Y-94705663D01*
X150485388Y-94583316D01*
X150381340Y-94479268D01*
X150258993Y-94397518D01*
X150123048Y-94341207D01*
X149978729Y-94312500D01*
X149831583Y-94312500D01*
X149687264Y-94341207D01*
X149551319Y-94397518D01*
X149428972Y-94479268D01*
X149324924Y-94583316D01*
X149243174Y-94705663D01*
X149186863Y-94841608D01*
X149158156Y-94985927D01*
X149158156Y-95133073D01*
X149179036Y-95238041D01*
X148843499Y-94902505D01*
X148816973Y-94870183D01*
X148688001Y-94764338D01*
X148540857Y-94685688D01*
X148381197Y-94637256D01*
X148256763Y-94625000D01*
X148256755Y-94625000D01*
X148215156Y-94620903D01*
X148173557Y-94625000D01*
X146306754Y-94625000D01*
X146265155Y-94620903D01*
X146223556Y-94625000D01*
X146223549Y-94625000D01*
X146122152Y-94634987D01*
X146099114Y-94637256D01*
X146069759Y-94646161D01*
X145939455Y-94685688D01*
X145816418Y-94751452D01*
X145749622Y-94583080D01*
X145734892Y-94555519D01*
X145531597Y-94532664D01*
X145004761Y-95059500D01*
X145018904Y-95073643D01*
X144839299Y-95253248D01*
X144825156Y-95239105D01*
X144811014Y-95253248D01*
X144631409Y-95073643D01*
X144645551Y-95059500D01*
X144118715Y-94532664D01*
X143915420Y-94555519D01*
X143834579Y-94742684D01*
X143799086Y-94908092D01*
X143618499Y-94727505D01*
X143591973Y-94695183D01*
X143463001Y-94589338D01*
X143315857Y-94510688D01*
X143156197Y-94462256D01*
X143031763Y-94450000D01*
X143031755Y-94450000D01*
X142990156Y-94445903D01*
X142948557Y-94450000D01*
X141930473Y-94450000D01*
X141952927Y-94375978D01*
X141983114Y-94385135D01*
X142090156Y-94395678D01*
X142640156Y-94395678D01*
X142747198Y-94385135D01*
X142850126Y-94353912D01*
X142851721Y-94353059D01*
X144298320Y-94353059D01*
X144825156Y-94879895D01*
X145351992Y-94353059D01*
X145329137Y-94149764D01*
X145141972Y-94068923D01*
X144942633Y-94026149D01*
X144738779Y-94023087D01*
X144538244Y-94059853D01*
X144348736Y-94135034D01*
X144321175Y-94149764D01*
X144298320Y-94353059D01*
X142851721Y-94353059D01*
X142944985Y-94303209D01*
X143028130Y-94234974D01*
X143096365Y-94151829D01*
X143147068Y-94056970D01*
X143178291Y-93954042D01*
X143188834Y-93847000D01*
X143188834Y-93447000D01*
X143178291Y-93339958D01*
X143147068Y-93237030D01*
X143096365Y-93142171D01*
X143028130Y-93059026D01*
X142944985Y-92990791D01*
X142917482Y-92976090D01*
X142945388Y-92948184D01*
X143027138Y-92825837D01*
X143083449Y-92689892D01*
X143112156Y-92545573D01*
X143112156Y-92398427D01*
X143083449Y-92254108D01*
X143027138Y-92118163D01*
X142945388Y-91995816D01*
X142943572Y-91994000D01*
X143230835Y-91994000D01*
X143260156Y-91996888D01*
X143289477Y-91994000D01*
X143305377Y-91992434D01*
X143377188Y-91985361D01*
X143489723Y-91951224D01*
X143593436Y-91895789D01*
X143684341Y-91821185D01*
X143703041Y-91798399D01*
X144082440Y-91419000D01*
X144423457Y-91419000D01*
X144423559Y-91419010D01*
%TA.AperFunction,Conductor*%
D36*
G36*
X144423559Y-91419010D02*
G01*
X146777778Y-91419010D01*
X146703174Y-91530663D01*
X146646863Y-91666608D01*
X146618156Y-91810927D01*
X146618156Y-91958073D01*
X146646863Y-92102392D01*
X146703174Y-92238337D01*
X146784924Y-92360684D01*
X146852490Y-92428250D01*
X146784924Y-92495816D01*
X146703174Y-92618163D01*
X146646863Y-92754108D01*
X146618156Y-92898427D01*
X146618156Y-93045573D01*
X146646863Y-93189892D01*
X146703174Y-93325837D01*
X146784924Y-93448184D01*
X146888972Y-93552232D01*
X147011319Y-93633982D01*
X147147264Y-93690293D01*
X147291583Y-93719000D01*
X147438729Y-93719000D01*
X147583048Y-93690293D01*
X147718993Y-93633982D01*
X147841340Y-93552232D01*
X147945388Y-93448184D01*
X148027138Y-93325837D01*
X148083449Y-93189892D01*
X148112156Y-93045573D01*
X148112156Y-92898427D01*
X148083449Y-92754108D01*
X148027138Y-92618163D01*
X147945388Y-92495816D01*
X147877822Y-92428250D01*
X147945388Y-92360684D01*
X148027138Y-92238337D01*
X148083449Y-92102392D01*
X148112156Y-91958073D01*
X148112156Y-91810927D01*
X148083449Y-91666608D01*
X148027138Y-91530663D01*
X147952534Y-91419010D01*
X152970308Y-91419010D01*
X152195657Y-92193661D01*
X152163340Y-92220183D01*
X152136818Y-92252500D01*
X152136816Y-92252502D01*
X152120656Y-92272193D01*
X152057495Y-92349155D01*
X151990406Y-92474670D01*
X151978845Y-92496299D01*
X151930412Y-92655960D01*
X151914059Y-92822000D01*
X151918157Y-92863609D01*
X151918156Y-96232976D01*
X151892373Y-96264392D01*
X151837050Y-96367896D01*
X151802981Y-96480204D01*
X151791478Y-96597000D01*
X151791478Y-97847000D01*
X151802981Y-97963796D01*
X151837050Y-98076104D01*
X151849822Y-98100000D01*
X150880490Y-98100000D01*
X150893262Y-98076104D01*
X150927331Y-97963796D01*
X150938834Y-97847000D01*
X150938834Y-96597000D01*
X150927331Y-96480204D01*
X150893262Y-96367896D01*
X150837939Y-96264392D01*
X150763485Y-96173671D01*
X150672764Y-96099217D01*
X150569260Y-96043894D01*
X150456952Y-96009825D01*
X150340156Y-95998322D01*
X149939317Y-95998322D01*
X149726615Y-95785620D01*
X149831583Y-95806500D01*
X149978729Y-95806500D01*
X150123048Y-95777793D01*
X150258993Y-95721482D01*
X150381340Y-95639732D01*
X150485388Y-95535684D01*
X150567138Y-95413337D01*
X150623449Y-95277392D01*
X150652156Y-95133073D01*
X150652156Y-94985927D01*
X150623449Y-94841608D01*
X150567138Y-94705663D01*
X150485388Y-94583316D01*
X150381340Y-94479268D01*
X150258993Y-94397518D01*
X150123048Y-94341207D01*
X149978729Y-94312500D01*
X149831583Y-94312500D01*
X149687264Y-94341207D01*
X149551319Y-94397518D01*
X149428972Y-94479268D01*
X149324924Y-94583316D01*
X149243174Y-94705663D01*
X149186863Y-94841608D01*
X149158156Y-94985927D01*
X149158156Y-95133073D01*
X149179036Y-95238041D01*
X148843499Y-94902505D01*
X148816973Y-94870183D01*
X148688001Y-94764338D01*
X148540857Y-94685688D01*
X148381197Y-94637256D01*
X148256763Y-94625000D01*
X148256755Y-94625000D01*
X148215156Y-94620903D01*
X148173557Y-94625000D01*
X146306754Y-94625000D01*
X146265155Y-94620903D01*
X146223556Y-94625000D01*
X146223549Y-94625000D01*
X146122152Y-94634987D01*
X146099114Y-94637256D01*
X146069759Y-94646161D01*
X145939455Y-94685688D01*
X145816418Y-94751452D01*
X145749622Y-94583080D01*
X145734892Y-94555519D01*
X145531597Y-94532664D01*
X145004761Y-95059500D01*
X145018904Y-95073643D01*
X144839299Y-95253248D01*
X144825156Y-95239105D01*
X144811014Y-95253248D01*
X144631409Y-95073643D01*
X144645551Y-95059500D01*
X144118715Y-94532664D01*
X143915420Y-94555519D01*
X143834579Y-94742684D01*
X143799086Y-94908092D01*
X143618499Y-94727505D01*
X143591973Y-94695183D01*
X143463001Y-94589338D01*
X143315857Y-94510688D01*
X143156197Y-94462256D01*
X143031763Y-94450000D01*
X143031755Y-94450000D01*
X142990156Y-94445903D01*
X142948557Y-94450000D01*
X141930473Y-94450000D01*
X141952927Y-94375978D01*
X141983114Y-94385135D01*
X142090156Y-94395678D01*
X142640156Y-94395678D01*
X142747198Y-94385135D01*
X142850126Y-94353912D01*
X142851721Y-94353059D01*
X144298320Y-94353059D01*
X144825156Y-94879895D01*
X145351992Y-94353059D01*
X145329137Y-94149764D01*
X145141972Y-94068923D01*
X144942633Y-94026149D01*
X144738779Y-94023087D01*
X144538244Y-94059853D01*
X144348736Y-94135034D01*
X144321175Y-94149764D01*
X144298320Y-94353059D01*
X142851721Y-94353059D01*
X142944985Y-94303209D01*
X143028130Y-94234974D01*
X143096365Y-94151829D01*
X143147068Y-94056970D01*
X143178291Y-93954042D01*
X143188834Y-93847000D01*
X143188834Y-93447000D01*
X143178291Y-93339958D01*
X143147068Y-93237030D01*
X143096365Y-93142171D01*
X143028130Y-93059026D01*
X142944985Y-92990791D01*
X142917482Y-92976090D01*
X142945388Y-92948184D01*
X143027138Y-92825837D01*
X143083449Y-92689892D01*
X143112156Y-92545573D01*
X143112156Y-92398427D01*
X143083449Y-92254108D01*
X143027138Y-92118163D01*
X142945388Y-91995816D01*
X142943572Y-91994000D01*
X143230835Y-91994000D01*
X143260156Y-91996888D01*
X143289477Y-91994000D01*
X143305377Y-91992434D01*
X143377188Y-91985361D01*
X143489723Y-91951224D01*
X143593436Y-91895789D01*
X143684341Y-91821185D01*
X143703041Y-91798399D01*
X144082440Y-91419000D01*
X144423457Y-91419000D01*
X144423559Y-91419010D01*
G37*
%TD.AperFunction*%
D35*
X111653977Y-91037118D02*
X111574320Y-91061282D01*
X111488105Y-91107364D01*
X111412537Y-91169381D01*
X111350520Y-91244949D01*
X111304438Y-91331164D01*
X111276060Y-91424713D01*
X111266478Y-91522000D01*
X111266478Y-91822000D01*
X111276060Y-91919287D01*
X111304438Y-92012836D01*
X111350520Y-92099051D01*
X111412537Y-92174619D01*
X111488105Y-92236636D01*
X111554268Y-92272000D01*
X111488105Y-92307364D01*
X111412537Y-92369381D01*
X111350520Y-92444949D01*
X111304438Y-92531164D01*
X111276060Y-92624713D01*
X111266478Y-92722000D01*
X111266478Y-93022000D01*
X111276060Y-93119287D01*
X111304438Y-93212836D01*
X111350520Y-93299051D01*
X111412537Y-93374619D01*
X111488105Y-93436636D01*
X111554268Y-93472000D01*
X111488105Y-93507364D01*
X111412537Y-93569381D01*
X111350520Y-93644949D01*
X111304438Y-93731164D01*
X111276060Y-93824713D01*
X111266478Y-93922000D01*
X111266478Y-94222000D01*
X111276060Y-94319287D01*
X111304438Y-94412836D01*
X111306611Y-94416902D01*
X111260662Y-94441463D01*
X111163971Y-94520815D01*
X111084619Y-94617506D01*
X111025654Y-94727820D01*
X110989344Y-94847518D01*
X110977084Y-94972000D01*
X110980156Y-94986250D01*
X111138906Y-95145000D01*
X111913156Y-95145000D01*
X111913156Y-95125000D01*
X112167156Y-95125000D01*
X112167156Y-95145000D01*
X112941406Y-95145000D01*
X113100156Y-94986250D01*
X113103228Y-94972000D01*
X113096775Y-94906483D01*
X113368157Y-95177865D01*
X113368156Y-95947594D01*
X113365752Y-95972000D01*
X113368156Y-95996405D01*
X113368156Y-95996407D01*
X113375348Y-96069428D01*
X113403767Y-96163113D01*
X113449917Y-96249454D01*
X113512024Y-96325132D01*
X113530984Y-96340692D01*
X114496464Y-97306172D01*
X114512024Y-97325132D01*
X114587702Y-97387239D01*
X114674042Y-97433389D01*
X114696159Y-97440098D01*
X114767727Y-97461808D01*
X114865156Y-97471404D01*
X114889564Y-97469000D01*
X118840751Y-97469000D01*
X118865156Y-97471404D01*
X118889561Y-97469000D01*
X118889564Y-97469000D01*
X118962585Y-97461808D01*
X119056270Y-97433389D01*
X119142610Y-97387239D01*
X119218288Y-97325132D01*
X119233848Y-97306172D01*
X119504709Y-97035311D01*
X119502084Y-97197000D01*
X119514344Y-97321482D01*
X119550654Y-97441180D01*
X119609619Y-97551494D01*
X119688971Y-97648185D01*
X119785662Y-97727537D01*
X119895976Y-97786502D01*
X120015674Y-97822812D01*
X120140156Y-97835072D01*
X120254406Y-97832000D01*
X120413156Y-97673250D01*
X120413156Y-96849000D01*
X120393156Y-96849000D01*
X120393156Y-96595000D01*
X120413156Y-96595000D01*
X120413156Y-96575000D01*
X120667156Y-96575000D01*
X120667156Y-96595000D01*
X120687156Y-96595000D01*
X120687156Y-96849000D01*
X120667156Y-96849000D01*
X120667156Y-97673250D01*
X120825906Y-97832000D01*
X120940156Y-97835072D01*
X121064638Y-97822812D01*
X121184336Y-97786502D01*
X121294650Y-97727537D01*
X121391341Y-97648185D01*
X121470693Y-97551494D01*
X121529658Y-97441180D01*
X121561679Y-97335621D01*
X121602182Y-97384974D01*
X121685327Y-97453209D01*
X121780186Y-97503912D01*
X121883114Y-97535135D01*
X121990156Y-97545678D01*
X122390156Y-97545678D01*
X122497198Y-97535135D01*
X122600126Y-97503912D01*
X122694985Y-97453209D01*
X122778130Y-97384974D01*
X122846365Y-97301829D01*
X122890638Y-97219000D01*
X122909292Y-97219000D01*
X123496468Y-97806177D01*
X123512024Y-97825132D01*
X123530978Y-97840687D01*
X123530982Y-97840691D01*
X123553106Y-97858847D01*
X123587702Y-97887239D01*
X123674042Y-97933389D01*
X123767727Y-97961808D01*
X123840748Y-97969000D01*
X123840757Y-97969000D01*
X123865155Y-97971403D01*
X123889553Y-97969000D01*
X127090751Y-97969000D01*
X127115156Y-97971404D01*
X127139561Y-97969000D01*
X127139564Y-97969000D01*
X127212585Y-97961808D01*
X127306270Y-97933389D01*
X127392610Y-97887239D01*
X127468288Y-97825132D01*
X127483848Y-97806172D01*
X128093020Y-97197000D01*
X130002084Y-97197000D01*
X130014344Y-97321482D01*
X130050654Y-97441180D01*
X130109619Y-97551494D01*
X130188971Y-97648185D01*
X130285662Y-97727537D01*
X130395976Y-97786502D01*
X130515674Y-97822812D01*
X130640156Y-97835072D01*
X130754406Y-97832000D01*
X130913156Y-97673250D01*
X130913156Y-96849000D01*
X130163906Y-96849000D01*
X130005156Y-97007750D01*
X130002084Y-97197000D01*
X128093020Y-97197000D01*
X128449329Y-96840691D01*
X128468288Y-96825132D01*
X128530395Y-96749454D01*
X128576545Y-96663114D01*
X128604964Y-96569429D01*
X128612156Y-96496408D01*
X128614560Y-96472000D01*
X128612156Y-96447592D01*
X128612156Y-95880678D01*
X128740156Y-95880678D01*
X128808180Y-95873978D01*
X128873589Y-95854136D01*
X128933871Y-95821915D01*
X128986709Y-95778553D01*
X129030071Y-95725715D01*
X129062292Y-95665433D01*
X129065078Y-95656250D01*
X129147264Y-95690293D01*
X129291583Y-95719000D01*
X129333137Y-95719000D01*
X129346144Y-95764992D01*
X129403012Y-95876401D01*
X129480522Y-95974575D01*
X129575696Y-96055741D01*
X129684876Y-96116780D01*
X129803866Y-96155347D01*
X129906406Y-96167000D01*
X129938154Y-96135252D01*
X129938154Y-96167000D01*
X130009963Y-96167000D01*
X130002084Y-96247000D01*
X130005156Y-96436250D01*
X130163906Y-96595000D01*
X130913156Y-96595000D01*
X130913156Y-96575000D01*
X131167156Y-96575000D01*
X131167156Y-96595000D01*
X131187156Y-96595000D01*
X131187156Y-96849000D01*
X131167156Y-96849000D01*
X131167156Y-97673250D01*
X131325906Y-97832000D01*
X131440156Y-97835072D01*
X131564638Y-97822812D01*
X131678549Y-97788257D01*
X131990292Y-98100000D01*
X108383354Y-98100000D01*
X108243523Y-98086289D01*
X108126524Y-98050965D01*
X108018611Y-97993587D01*
X107923903Y-97916345D01*
X107845999Y-97822177D01*
X107787871Y-97714669D01*
X107751730Y-97597916D01*
X107737156Y-97459256D01*
X107737156Y-97022525D01*
X107749216Y-97032422D01*
X107839753Y-97080815D01*
X107937991Y-97110616D01*
X108040156Y-97120678D01*
X108490156Y-97120678D01*
X108592321Y-97110616D01*
X108690559Y-97080815D01*
X108781096Y-97032422D01*
X108860452Y-96967296D01*
X108925578Y-96887940D01*
X108973971Y-96797403D01*
X109003772Y-96699165D01*
X109013834Y-96597000D01*
X109013834Y-96247000D01*
X109003772Y-96144835D01*
X108973971Y-96046597D01*
X108925578Y-95956060D01*
X108860452Y-95876704D01*
X108781096Y-95811578D01*
X108690559Y-95763185D01*
X108592321Y-95733384D01*
X108490156Y-95723322D01*
X108040156Y-95723322D01*
X107937991Y-95733384D01*
X107839753Y-95763185D01*
X107749216Y-95811578D01*
X107737156Y-95821475D01*
X107737156Y-95572000D01*
X110977084Y-95572000D01*
X110989344Y-95696482D01*
X111025654Y-95816180D01*
X111084619Y-95926494D01*
X111163971Y-96023185D01*
X111260662Y-96102537D01*
X111370976Y-96161502D01*
X111490674Y-96197812D01*
X111615156Y-96210072D01*
X111754406Y-96207000D01*
X111913156Y-96048250D01*
X111913156Y-95399000D01*
X112167156Y-95399000D01*
X112167156Y-96048250D01*
X112325906Y-96207000D01*
X112465156Y-96210072D01*
X112589638Y-96197812D01*
X112709336Y-96161502D01*
X112819650Y-96102537D01*
X112916341Y-96023185D01*
X112995693Y-95926494D01*
X113054658Y-95816180D01*
X113090968Y-95696482D01*
X113103228Y-95572000D01*
X113100156Y-95557750D01*
X112941406Y-95399000D01*
X112167156Y-95399000D01*
X111913156Y-95399000D01*
X111138906Y-95399000D01*
X110980156Y-95557750D01*
X110977084Y-95572000D01*
X107737156Y-95572000D01*
X107737156Y-91122525D01*
X107749216Y-91132422D01*
X107839753Y-91180815D01*
X107937991Y-91210616D01*
X108040156Y-91220678D01*
X108490156Y-91220678D01*
X108592321Y-91210616D01*
X108690559Y-91180815D01*
X108781096Y-91132422D01*
X108860452Y-91067296D01*
X108925578Y-90987940D01*
X108973971Y-90897403D01*
X109003772Y-90799165D01*
X109013834Y-90697000D01*
X109013834Y-90347000D01*
X109003772Y-90244835D01*
X108973971Y-90146597D01*
X108925578Y-90056060D01*
X108860452Y-89976704D01*
X108781096Y-89911578D01*
X108690559Y-89863185D01*
X108592321Y-89833384D01*
X108490156Y-89823322D01*
X108040156Y-89823322D01*
X107937991Y-89833384D01*
X107839753Y-89863185D01*
X107749216Y-89911578D01*
X107737156Y-89921475D01*
X107737156Y-89490198D01*
X107750867Y-89350366D01*
X107786190Y-89233369D01*
X107843569Y-89125455D01*
X107920812Y-89030746D01*
X108014979Y-88952844D01*
X108122486Y-88894715D01*
X108239240Y-88858574D01*
X108377899Y-88844000D01*
X113847094Y-88844000D01*
X111653977Y-91037118D01*
%TA.AperFunction,Conductor*%
D36*
G36*
X111653977Y-91037118D02*
G01*
X111574320Y-91061282D01*
X111488105Y-91107364D01*
X111412537Y-91169381D01*
X111350520Y-91244949D01*
X111304438Y-91331164D01*
X111276060Y-91424713D01*
X111266478Y-91522000D01*
X111266478Y-91822000D01*
X111276060Y-91919287D01*
X111304438Y-92012836D01*
X111350520Y-92099051D01*
X111412537Y-92174619D01*
X111488105Y-92236636D01*
X111554268Y-92272000D01*
X111488105Y-92307364D01*
X111412537Y-92369381D01*
X111350520Y-92444949D01*
X111304438Y-92531164D01*
X111276060Y-92624713D01*
X111266478Y-92722000D01*
X111266478Y-93022000D01*
X111276060Y-93119287D01*
X111304438Y-93212836D01*
X111350520Y-93299051D01*
X111412537Y-93374619D01*
X111488105Y-93436636D01*
X111554268Y-93472000D01*
X111488105Y-93507364D01*
X111412537Y-93569381D01*
X111350520Y-93644949D01*
X111304438Y-93731164D01*
X111276060Y-93824713D01*
X111266478Y-93922000D01*
X111266478Y-94222000D01*
X111276060Y-94319287D01*
X111304438Y-94412836D01*
X111306611Y-94416902D01*
X111260662Y-94441463D01*
X111163971Y-94520815D01*
X111084619Y-94617506D01*
X111025654Y-94727820D01*
X110989344Y-94847518D01*
X110977084Y-94972000D01*
X110980156Y-94986250D01*
X111138906Y-95145000D01*
X111913156Y-95145000D01*
X111913156Y-95125000D01*
X112167156Y-95125000D01*
X112167156Y-95145000D01*
X112941406Y-95145000D01*
X113100156Y-94986250D01*
X113103228Y-94972000D01*
X113096775Y-94906483D01*
X113368157Y-95177865D01*
X113368156Y-95947594D01*
X113365752Y-95972000D01*
X113368156Y-95996405D01*
X113368156Y-95996407D01*
X113375348Y-96069428D01*
X113403767Y-96163113D01*
X113449917Y-96249454D01*
X113512024Y-96325132D01*
X113530984Y-96340692D01*
X114496464Y-97306172D01*
X114512024Y-97325132D01*
X114587702Y-97387239D01*
X114674042Y-97433389D01*
X114696159Y-97440098D01*
X114767727Y-97461808D01*
X114865156Y-97471404D01*
X114889564Y-97469000D01*
X118840751Y-97469000D01*
X118865156Y-97471404D01*
X118889561Y-97469000D01*
X118889564Y-97469000D01*
X118962585Y-97461808D01*
X119056270Y-97433389D01*
X119142610Y-97387239D01*
X119218288Y-97325132D01*
X119233848Y-97306172D01*
X119504709Y-97035311D01*
X119502084Y-97197000D01*
X119514344Y-97321482D01*
X119550654Y-97441180D01*
X119609619Y-97551494D01*
X119688971Y-97648185D01*
X119785662Y-97727537D01*
X119895976Y-97786502D01*
X120015674Y-97822812D01*
X120140156Y-97835072D01*
X120254406Y-97832000D01*
X120413156Y-97673250D01*
X120413156Y-96849000D01*
X120393156Y-96849000D01*
X120393156Y-96595000D01*
X120413156Y-96595000D01*
X120413156Y-96575000D01*
X120667156Y-96575000D01*
X120667156Y-96595000D01*
X120687156Y-96595000D01*
X120687156Y-96849000D01*
X120667156Y-96849000D01*
X120667156Y-97673250D01*
X120825906Y-97832000D01*
X120940156Y-97835072D01*
X121064638Y-97822812D01*
X121184336Y-97786502D01*
X121294650Y-97727537D01*
X121391341Y-97648185D01*
X121470693Y-97551494D01*
X121529658Y-97441180D01*
X121561679Y-97335621D01*
X121602182Y-97384974D01*
X121685327Y-97453209D01*
X121780186Y-97503912D01*
X121883114Y-97535135D01*
X121990156Y-97545678D01*
X122390156Y-97545678D01*
X122497198Y-97535135D01*
X122600126Y-97503912D01*
X122694985Y-97453209D01*
X122778130Y-97384974D01*
X122846365Y-97301829D01*
X122890638Y-97219000D01*
X122909292Y-97219000D01*
X123496468Y-97806177D01*
X123512024Y-97825132D01*
X123530978Y-97840687D01*
X123530982Y-97840691D01*
X123553106Y-97858847D01*
X123587702Y-97887239D01*
X123674042Y-97933389D01*
X123767727Y-97961808D01*
X123840748Y-97969000D01*
X123840757Y-97969000D01*
X123865155Y-97971403D01*
X123889553Y-97969000D01*
X127090751Y-97969000D01*
X127115156Y-97971404D01*
X127139561Y-97969000D01*
X127139564Y-97969000D01*
X127212585Y-97961808D01*
X127306270Y-97933389D01*
X127392610Y-97887239D01*
X127468288Y-97825132D01*
X127483848Y-97806172D01*
X128093020Y-97197000D01*
X130002084Y-97197000D01*
X130014344Y-97321482D01*
X130050654Y-97441180D01*
X130109619Y-97551494D01*
X130188971Y-97648185D01*
X130285662Y-97727537D01*
X130395976Y-97786502D01*
X130515674Y-97822812D01*
X130640156Y-97835072D01*
X130754406Y-97832000D01*
X130913156Y-97673250D01*
X130913156Y-96849000D01*
X130163906Y-96849000D01*
X130005156Y-97007750D01*
X130002084Y-97197000D01*
X128093020Y-97197000D01*
X128449329Y-96840691D01*
X128468288Y-96825132D01*
X128530395Y-96749454D01*
X128576545Y-96663114D01*
X128604964Y-96569429D01*
X128612156Y-96496408D01*
X128614560Y-96472000D01*
X128612156Y-96447592D01*
X128612156Y-95880678D01*
X128740156Y-95880678D01*
X128808180Y-95873978D01*
X128873589Y-95854136D01*
X128933871Y-95821915D01*
X128986709Y-95778553D01*
X129030071Y-95725715D01*
X129062292Y-95665433D01*
X129065078Y-95656250D01*
X129147264Y-95690293D01*
X129291583Y-95719000D01*
X129333137Y-95719000D01*
X129346144Y-95764992D01*
X129403012Y-95876401D01*
X129480522Y-95974575D01*
X129575696Y-96055741D01*
X129684876Y-96116780D01*
X129803866Y-96155347D01*
X129906406Y-96167000D01*
X129938154Y-96135252D01*
X129938154Y-96167000D01*
X130009963Y-96167000D01*
X130002084Y-96247000D01*
X130005156Y-96436250D01*
X130163906Y-96595000D01*
X130913156Y-96595000D01*
X130913156Y-96575000D01*
X131167156Y-96575000D01*
X131167156Y-96595000D01*
X131187156Y-96595000D01*
X131187156Y-96849000D01*
X131167156Y-96849000D01*
X131167156Y-97673250D01*
X131325906Y-97832000D01*
X131440156Y-97835072D01*
X131564638Y-97822812D01*
X131678549Y-97788257D01*
X131990292Y-98100000D01*
X108383354Y-98100000D01*
X108243523Y-98086289D01*
X108126524Y-98050965D01*
X108018611Y-97993587D01*
X107923903Y-97916345D01*
X107845999Y-97822177D01*
X107787871Y-97714669D01*
X107751730Y-97597916D01*
X107737156Y-97459256D01*
X107737156Y-97022525D01*
X107749216Y-97032422D01*
X107839753Y-97080815D01*
X107937991Y-97110616D01*
X108040156Y-97120678D01*
X108490156Y-97120678D01*
X108592321Y-97110616D01*
X108690559Y-97080815D01*
X108781096Y-97032422D01*
X108860452Y-96967296D01*
X108925578Y-96887940D01*
X108973971Y-96797403D01*
X109003772Y-96699165D01*
X109013834Y-96597000D01*
X109013834Y-96247000D01*
X109003772Y-96144835D01*
X108973971Y-96046597D01*
X108925578Y-95956060D01*
X108860452Y-95876704D01*
X108781096Y-95811578D01*
X108690559Y-95763185D01*
X108592321Y-95733384D01*
X108490156Y-95723322D01*
X108040156Y-95723322D01*
X107937991Y-95733384D01*
X107839753Y-95763185D01*
X107749216Y-95811578D01*
X107737156Y-95821475D01*
X107737156Y-95572000D01*
X110977084Y-95572000D01*
X110989344Y-95696482D01*
X111025654Y-95816180D01*
X111084619Y-95926494D01*
X111163971Y-96023185D01*
X111260662Y-96102537D01*
X111370976Y-96161502D01*
X111490674Y-96197812D01*
X111615156Y-96210072D01*
X111754406Y-96207000D01*
X111913156Y-96048250D01*
X111913156Y-95399000D01*
X112167156Y-95399000D01*
X112167156Y-96048250D01*
X112325906Y-96207000D01*
X112465156Y-96210072D01*
X112589638Y-96197812D01*
X112709336Y-96161502D01*
X112819650Y-96102537D01*
X112916341Y-96023185D01*
X112995693Y-95926494D01*
X113054658Y-95816180D01*
X113090968Y-95696482D01*
X113103228Y-95572000D01*
X113100156Y-95557750D01*
X112941406Y-95399000D01*
X112167156Y-95399000D01*
X111913156Y-95399000D01*
X111138906Y-95399000D01*
X110980156Y-95557750D01*
X110977084Y-95572000D01*
X107737156Y-95572000D01*
X107737156Y-91122525D01*
X107749216Y-91132422D01*
X107839753Y-91180815D01*
X107937991Y-91210616D01*
X108040156Y-91220678D01*
X108490156Y-91220678D01*
X108592321Y-91210616D01*
X108690559Y-91180815D01*
X108781096Y-91132422D01*
X108860452Y-91067296D01*
X108925578Y-90987940D01*
X108973971Y-90897403D01*
X109003772Y-90799165D01*
X109013834Y-90697000D01*
X109013834Y-90347000D01*
X109003772Y-90244835D01*
X108973971Y-90146597D01*
X108925578Y-90056060D01*
X108860452Y-89976704D01*
X108781096Y-89911578D01*
X108690559Y-89863185D01*
X108592321Y-89833384D01*
X108490156Y-89823322D01*
X108040156Y-89823322D01*
X107937991Y-89833384D01*
X107839753Y-89863185D01*
X107749216Y-89911578D01*
X107737156Y-89921475D01*
X107737156Y-89490198D01*
X107750867Y-89350366D01*
X107786190Y-89233369D01*
X107843569Y-89125455D01*
X107920812Y-89030746D01*
X108014979Y-88952844D01*
X108122486Y-88894715D01*
X108239240Y-88858574D01*
X108377899Y-88844000D01*
X113847094Y-88844000D01*
X111653977Y-91037118D01*
G37*
%TD.AperFunction*%
D35*
X140595156Y-96341888D02*
X140624477Y-96339000D01*
X140717945Y-96339000D01*
X140638972Y-96391768D01*
X140534924Y-96495816D01*
X140453174Y-96618163D01*
X140396863Y-96754108D01*
X140368156Y-96898427D01*
X140368156Y-97016136D01*
X139809292Y-97575000D01*
X138158635Y-97575000D01*
X138166632Y-97572614D01*
X138277215Y-97514156D01*
X138374269Y-97435247D01*
X138454064Y-97338921D01*
X138513533Y-97228878D01*
X138550391Y-97109348D01*
X138560156Y-96987750D01*
X138401406Y-96829000D01*
X137742156Y-96829000D01*
X137742156Y-96849000D01*
X137488156Y-96849000D01*
X137488156Y-96829000D01*
X137468156Y-96829000D01*
X137468156Y-96575000D01*
X137488156Y-96575000D01*
X137488156Y-96555000D01*
X137742156Y-96555000D01*
X137742156Y-96575000D01*
X138401406Y-96575000D01*
X138560156Y-96416250D01*
X138553952Y-96339000D01*
X140565835Y-96339000D01*
X140595156Y-96341888D01*
%TA.AperFunction,Conductor*%
D36*
G36*
X140595156Y-96341888D02*
G01*
X140624477Y-96339000D01*
X140717945Y-96339000D01*
X140638972Y-96391768D01*
X140534924Y-96495816D01*
X140453174Y-96618163D01*
X140396863Y-96754108D01*
X140368156Y-96898427D01*
X140368156Y-97016136D01*
X139809292Y-97575000D01*
X138158635Y-97575000D01*
X138166632Y-97572614D01*
X138277215Y-97514156D01*
X138374269Y-97435247D01*
X138454064Y-97338921D01*
X138513533Y-97228878D01*
X138550391Y-97109348D01*
X138560156Y-96987750D01*
X138401406Y-96829000D01*
X137742156Y-96829000D01*
X137742156Y-96849000D01*
X137488156Y-96849000D01*
X137488156Y-96829000D01*
X137468156Y-96829000D01*
X137468156Y-96575000D01*
X137488156Y-96575000D01*
X137488156Y-96555000D01*
X137742156Y-96555000D01*
X137742156Y-96575000D01*
X138401406Y-96575000D01*
X138560156Y-96416250D01*
X138553952Y-96339000D01*
X140565835Y-96339000D01*
X140595156Y-96341888D01*
G37*
%TD.AperFunction*%
D35*
X136067156Y-96845000D02*
X136087156Y-96845000D01*
X136087156Y-97099000D01*
X136067156Y-97099000D01*
X136067156Y-97119000D01*
X135813156Y-97119000D01*
X135813156Y-97099000D01*
X135793156Y-97099000D01*
X135793156Y-96845000D01*
X135813156Y-96845000D01*
X135813156Y-96825000D01*
X136067156Y-96825000D01*
X136067156Y-96845000D01*
%TA.AperFunction,Conductor*%
D36*
G36*
X136067156Y-96845000D02*
G01*
X136087156Y-96845000D01*
X136087156Y-97099000D01*
X136067156Y-97099000D01*
X136067156Y-97119000D01*
X135813156Y-97119000D01*
X135813156Y-97099000D01*
X135793156Y-97099000D01*
X135793156Y-96845000D01*
X135813156Y-96845000D01*
X135813156Y-96825000D01*
X136067156Y-96825000D01*
X136067156Y-96845000D01*
G37*
%TD.AperFunction*%
D35*
X135740156Y-95061500D02*
X135588834Y-95061500D01*
X135588834Y-94949427D01*
X135705156Y-94950072D01*
X135740156Y-94946625D01*
X135740156Y-95061500D01*
%TA.AperFunction,Conductor*%
D36*
G36*
X135740156Y-95061500D02*
G01*
X135588834Y-95061500D01*
X135588834Y-94949427D01*
X135705156Y-94950072D01*
X135740156Y-94946625D01*
X135740156Y-95061500D01*
G37*
%TD.AperFunction*%
D35*
X131492156Y-94775000D02*
X131512156Y-94775000D01*
X131512156Y-95029000D01*
X131492156Y-95029000D01*
X131492156Y-95049000D01*
X131238156Y-95049000D01*
X131238156Y-95029000D01*
X131218156Y-95029000D01*
X131218156Y-94775000D01*
X131238156Y-94775000D01*
X131238156Y-94755000D01*
X131492156Y-94755000D01*
X131492156Y-94775000D01*
%TA.AperFunction,Conductor*%
D36*
G36*
X131492156Y-94775000D02*
G01*
X131512156Y-94775000D01*
X131512156Y-95029000D01*
X131492156Y-95029000D01*
X131492156Y-95049000D01*
X131238156Y-95049000D01*
X131238156Y-95029000D01*
X131218156Y-95029000D01*
X131218156Y-94775000D01*
X131238156Y-94775000D01*
X131238156Y-94755000D01*
X131492156Y-94755000D01*
X131492156Y-94775000D01*
G37*
%TD.AperFunction*%
D35*
X123492156Y-94775000D02*
X123512156Y-94775000D01*
X123512156Y-95029000D01*
X123492156Y-95029000D01*
X123492156Y-95049000D01*
X123238156Y-95049000D01*
X123238156Y-95029000D01*
X123218156Y-95029000D01*
X123218156Y-94775000D01*
X123238156Y-94775000D01*
X123238156Y-94755000D01*
X123492156Y-94755000D01*
X123492156Y-94775000D01*
%TA.AperFunction,Conductor*%
D36*
G36*
X123492156Y-94775000D02*
G01*
X123512156Y-94775000D01*
X123512156Y-95029000D01*
X123492156Y-95029000D01*
X123492156Y-95049000D01*
X123238156Y-95049000D01*
X123238156Y-95029000D01*
X123218156Y-95029000D01*
X123218156Y-94775000D01*
X123238156Y-94775000D01*
X123238156Y-94755000D01*
X123492156Y-94755000D01*
X123492156Y-94775000D01*
G37*
%TD.AperFunction*%
D35*
X128422132Y-92903978D02*
X128490156Y-92910678D01*
X128740156Y-92910678D01*
X128768156Y-92907920D01*
X128768157Y-94036080D01*
X128740156Y-94033322D01*
X128490156Y-94033322D01*
X128422132Y-94040022D01*
X128365156Y-94057306D01*
X128308180Y-94040022D01*
X128240156Y-94033322D01*
X127990156Y-94033322D01*
X127922132Y-94040022D01*
X127865156Y-94057306D01*
X127808180Y-94040022D01*
X127740156Y-94033322D01*
X127532414Y-94033322D01*
X127530395Y-94029544D01*
X127468288Y-93953866D01*
X127449323Y-93938302D01*
X127253861Y-93742839D01*
X127238301Y-93723879D01*
X127162623Y-93661772D01*
X127076283Y-93615622D01*
X126982598Y-93587203D01*
X126909577Y-93580011D01*
X126909574Y-93580011D01*
X126885169Y-93577607D01*
X126860764Y-93580011D01*
X124253196Y-93580011D01*
X124263834Y-93472001D01*
X124263834Y-93471999D01*
X124253196Y-93363989D01*
X126860764Y-93363989D01*
X126885169Y-93366393D01*
X126909574Y-93363989D01*
X126909577Y-93363989D01*
X126982598Y-93356797D01*
X127076283Y-93328378D01*
X127162623Y-93282228D01*
X127238301Y-93220121D01*
X127253862Y-93201160D01*
X127449323Y-93005698D01*
X127468288Y-92990134D01*
X127530395Y-92914456D01*
X127532414Y-92910678D01*
X127740156Y-92910678D01*
X127808180Y-92903978D01*
X127865156Y-92886694D01*
X127922132Y-92903978D01*
X127990156Y-92910678D01*
X128240156Y-92910678D01*
X128308180Y-92903978D01*
X128365156Y-92886694D01*
X128422132Y-92903978D01*
%TA.AperFunction,Conductor*%
D36*
G36*
X128422132Y-92903978D02*
G01*
X128490156Y-92910678D01*
X128740156Y-92910678D01*
X128768156Y-92907920D01*
X128768157Y-94036080D01*
X128740156Y-94033322D01*
X128490156Y-94033322D01*
X128422132Y-94040022D01*
X128365156Y-94057306D01*
X128308180Y-94040022D01*
X128240156Y-94033322D01*
X127990156Y-94033322D01*
X127922132Y-94040022D01*
X127865156Y-94057306D01*
X127808180Y-94040022D01*
X127740156Y-94033322D01*
X127532414Y-94033322D01*
X127530395Y-94029544D01*
X127468288Y-93953866D01*
X127449323Y-93938302D01*
X127253861Y-93742839D01*
X127238301Y-93723879D01*
X127162623Y-93661772D01*
X127076283Y-93615622D01*
X126982598Y-93587203D01*
X126909577Y-93580011D01*
X126909574Y-93580011D01*
X126885169Y-93577607D01*
X126860764Y-93580011D01*
X124253196Y-93580011D01*
X124263834Y-93472001D01*
X124263834Y-93471999D01*
X124253196Y-93363989D01*
X126860764Y-93363989D01*
X126885169Y-93366393D01*
X126909574Y-93363989D01*
X126909577Y-93363989D01*
X126982598Y-93356797D01*
X127076283Y-93328378D01*
X127162623Y-93282228D01*
X127238301Y-93220121D01*
X127253862Y-93201160D01*
X127449323Y-93005698D01*
X127468288Y-92990134D01*
X127530395Y-92914456D01*
X127532414Y-92910678D01*
X127740156Y-92910678D01*
X127808180Y-92903978D01*
X127865156Y-92886694D01*
X127922132Y-92903978D01*
X127990156Y-92910678D01*
X128240156Y-92910678D01*
X128308180Y-92903978D01*
X128365156Y-92886694D01*
X128422132Y-92903978D01*
G37*
%TD.AperFunction*%
D35*
X136454656Y-93748322D02*
X136333799Y-93748322D01*
X136330393Y-93747987D01*
X136278084Y-93695678D01*
X136454656Y-93695678D01*
X136454656Y-93748322D01*
%TA.AperFunction,Conductor*%
D36*
G36*
X136454656Y-93748322D02*
G01*
X136333799Y-93748322D01*
X136330393Y-93747987D01*
X136278084Y-93695678D01*
X136454656Y-93695678D01*
X136454656Y-93748322D01*
G37*
%TD.AperFunction*%
D35*
X117558904Y-93457858D02*
X117544761Y-93472000D01*
X117558904Y-93486143D01*
X117379299Y-93665748D01*
X117365156Y-93651605D01*
X117351014Y-93665748D01*
X117171409Y-93486143D01*
X117185551Y-93472000D01*
X117171409Y-93457858D01*
X117351014Y-93278253D01*
X117365156Y-93292395D01*
X117379299Y-93278253D01*
X117558904Y-93457858D01*
%TA.AperFunction,Conductor*%
D36*
G36*
X117558904Y-93457858D02*
G01*
X117544761Y-93472000D01*
X117558904Y-93486143D01*
X117379299Y-93665748D01*
X117365156Y-93651605D01*
X117351014Y-93665748D01*
X117171409Y-93486143D01*
X117185551Y-93472000D01*
X117171409Y-93457858D01*
X117351014Y-93278253D01*
X117365156Y-93292395D01*
X117379299Y-93278253D01*
X117558904Y-93457858D01*
G37*
%TD.AperFunction*%
D35*
X134992156Y-93345000D02*
X135012156Y-93345000D01*
X135012156Y-93599000D01*
X134992156Y-93599000D01*
X134992156Y-93619000D01*
X134738156Y-93619000D01*
X134738156Y-93599000D01*
X134718156Y-93599000D01*
X134718156Y-93345000D01*
X134738156Y-93345000D01*
X134738156Y-93325000D01*
X134992156Y-93325000D01*
X134992156Y-93345000D01*
%TA.AperFunction,Conductor*%
D36*
G36*
X134992156Y-93345000D02*
G01*
X135012156Y-93345000D01*
X135012156Y-93599000D01*
X134992156Y-93599000D01*
X134992156Y-93619000D01*
X134738156Y-93619000D01*
X134738156Y-93599000D01*
X134718156Y-93599000D01*
X134718156Y-93345000D01*
X134738156Y-93345000D01*
X134738156Y-93325000D01*
X134992156Y-93325000D01*
X134992156Y-93345000D01*
G37*
%TD.AperFunction*%
D35*
X121475156Y-93470678D02*
X121897156Y-93470678D01*
X121897156Y-93473322D01*
X121475156Y-93473322D01*
X121458120Y-93475000D01*
X121272192Y-93475000D01*
X121255156Y-93473322D01*
X120833156Y-93473322D01*
X120833156Y-93470678D01*
X121255156Y-93470678D01*
X121272192Y-93469000D01*
X121458120Y-93469000D01*
X121475156Y-93470678D01*
%TA.AperFunction,Conductor*%
D36*
G36*
X121475156Y-93470678D02*
G01*
X121897156Y-93470678D01*
X121897156Y-93473322D01*
X121475156Y-93473322D01*
X121458120Y-93475000D01*
X121272192Y-93475000D01*
X121255156Y-93473322D01*
X120833156Y-93473322D01*
X120833156Y-93470678D01*
X121255156Y-93470678D01*
X121272192Y-93469000D01*
X121458120Y-93469000D01*
X121475156Y-93470678D01*
G37*
%TD.AperFunction*%
D35*
X136454656Y-92748322D02*
X136342583Y-92748322D01*
X136343228Y-92632000D01*
X136339781Y-92597000D01*
X136454656Y-92597000D01*
X136454656Y-92748322D01*
%TA.AperFunction,Conductor*%
D36*
G36*
X136454656Y-92748322D02*
G01*
X136342583Y-92748322D01*
X136343228Y-92632000D01*
X136339781Y-92597000D01*
X136454656Y-92597000D01*
X136454656Y-92748322D01*
G37*
%TD.AperFunction*%
D35*
X139862156Y-92290000D02*
X139882156Y-92290000D01*
X139882156Y-92544000D01*
X139862156Y-92544000D01*
X139862156Y-92564000D01*
X139608156Y-92564000D01*
X139608156Y-92544000D01*
X139588156Y-92544000D01*
X139588156Y-92290000D01*
X139608156Y-92290000D01*
X139608156Y-92270000D01*
X139862156Y-92270000D01*
X139862156Y-92290000D01*
%TA.AperFunction,Conductor*%
D36*
G36*
X139862156Y-92290000D02*
G01*
X139882156Y-92290000D01*
X139882156Y-92544000D01*
X139862156Y-92544000D01*
X139862156Y-92564000D01*
X139608156Y-92564000D01*
X139608156Y-92544000D01*
X139588156Y-92544000D01*
X139588156Y-92290000D01*
X139608156Y-92290000D01*
X139608156Y-92270000D01*
X139862156Y-92270000D01*
X139862156Y-92290000D01*
G37*
%TD.AperFunction*%
D35*
X131492156Y-91915000D02*
X131512156Y-91915000D01*
X131512156Y-92169000D01*
X131492156Y-92169000D01*
X131492156Y-92189000D01*
X131238156Y-92189000D01*
X131238156Y-92169000D01*
X131218156Y-92169000D01*
X131218156Y-91915000D01*
X131238156Y-91915000D01*
X131238156Y-91895000D01*
X131492156Y-91895000D01*
X131492156Y-91915000D01*
%TA.AperFunction,Conductor*%
D36*
G36*
X131492156Y-91915000D02*
G01*
X131512156Y-91915000D01*
X131512156Y-92169000D01*
X131492156Y-92169000D01*
X131492156Y-92189000D01*
X131238156Y-92189000D01*
X131238156Y-92169000D01*
X131218156Y-92169000D01*
X131218156Y-91915000D01*
X131238156Y-91915000D01*
X131238156Y-91895000D01*
X131492156Y-91895000D01*
X131492156Y-91915000D01*
G37*
%TD.AperFunction*%
D35*
X123492156Y-91915000D02*
X123512156Y-91915000D01*
X123512156Y-92169000D01*
X123492156Y-92169000D01*
X123492156Y-92189000D01*
X123238156Y-92189000D01*
X123238156Y-92169000D01*
X123218156Y-92169000D01*
X123218156Y-91915000D01*
X123238156Y-91915000D01*
X123238156Y-91895000D01*
X123492156Y-91895000D01*
X123492156Y-91915000D01*
%TA.AperFunction,Conductor*%
D36*
G36*
X123492156Y-91915000D02*
G01*
X123512156Y-91915000D01*
X123512156Y-92169000D01*
X123492156Y-92169000D01*
X123492156Y-92189000D01*
X123238156Y-92189000D01*
X123238156Y-92169000D01*
X123218156Y-92169000D01*
X123218156Y-91915000D01*
X123238156Y-91915000D01*
X123238156Y-91895000D01*
X123492156Y-91895000D01*
X123492156Y-91915000D01*
G37*
%TD.AperFunction*%
D35*
X121602182Y-90884974D02*
X121685327Y-90953209D01*
X121780186Y-91003912D01*
X121883114Y-91035135D01*
X121990156Y-91045678D01*
X122277230Y-91045678D01*
X121415984Y-91906924D01*
X121397024Y-91922484D01*
X121353925Y-91975000D01*
X121272192Y-91975000D01*
X121255156Y-91973322D01*
X121112156Y-91973322D01*
X121112156Y-91746408D01*
X121114560Y-91722000D01*
X121104964Y-91624571D01*
X121076545Y-91530886D01*
X121030395Y-91444546D01*
X121012804Y-91423111D01*
X120968288Y-91368868D01*
X120949328Y-91353308D01*
X120930842Y-91334822D01*
X120940156Y-91335072D01*
X121064638Y-91322812D01*
X121184336Y-91286502D01*
X121294650Y-91227537D01*
X121391341Y-91148185D01*
X121470693Y-91051494D01*
X121529658Y-90941180D01*
X121561679Y-90835621D01*
X121602182Y-90884974D01*
%TA.AperFunction,Conductor*%
D36*
G36*
X121602182Y-90884974D02*
G01*
X121685327Y-90953209D01*
X121780186Y-91003912D01*
X121883114Y-91035135D01*
X121990156Y-91045678D01*
X122277230Y-91045678D01*
X121415984Y-91906924D01*
X121397024Y-91922484D01*
X121353925Y-91975000D01*
X121272192Y-91975000D01*
X121255156Y-91973322D01*
X121112156Y-91973322D01*
X121112156Y-91746408D01*
X121114560Y-91722000D01*
X121104964Y-91624571D01*
X121076545Y-91530886D01*
X121030395Y-91444546D01*
X121012804Y-91423111D01*
X120968288Y-91368868D01*
X120949328Y-91353308D01*
X120930842Y-91334822D01*
X120940156Y-91335072D01*
X121064638Y-91322812D01*
X121184336Y-91286502D01*
X121294650Y-91227537D01*
X121391341Y-91148185D01*
X121470693Y-91051494D01*
X121529658Y-90941180D01*
X121561679Y-90835621D01*
X121602182Y-90884974D01*
G37*
%TD.AperFunction*%
D35*
X135972156Y-90595000D02*
X135992156Y-90595000D01*
X135992156Y-90849000D01*
X135972156Y-90849000D01*
X135972156Y-90869000D01*
X135718156Y-90869000D01*
X135718156Y-90849000D01*
X135698156Y-90849000D01*
X135698156Y-90595000D01*
X135718156Y-90595000D01*
X135718156Y-90575000D01*
X135972156Y-90575000D01*
X135972156Y-90595000D01*
%TA.AperFunction,Conductor*%
D36*
G36*
X135972156Y-90595000D02*
G01*
X135992156Y-90595000D01*
X135992156Y-90849000D01*
X135972156Y-90849000D01*
X135972156Y-90869000D01*
X135718156Y-90869000D01*
X135718156Y-90849000D01*
X135698156Y-90849000D01*
X135698156Y-90595000D01*
X135718156Y-90595000D01*
X135718156Y-90575000D01*
X135972156Y-90575000D01*
X135972156Y-90595000D01*
G37*
%TD.AperFunction*%
D35*
X139817156Y-90345000D02*
X139837156Y-90345000D01*
X139837156Y-90599000D01*
X139817156Y-90599000D01*
X139817156Y-90619000D01*
X139563156Y-90619000D01*
X139563156Y-90599000D01*
X139543156Y-90599000D01*
X139543156Y-90345000D01*
X139563156Y-90345000D01*
X139563156Y-90325000D01*
X139817156Y-90325000D01*
X139817156Y-90345000D01*
%TA.AperFunction,Conductor*%
D36*
G36*
X139817156Y-90345000D02*
G01*
X139837156Y-90345000D01*
X139837156Y-90599000D01*
X139817156Y-90599000D01*
X139817156Y-90619000D01*
X139563156Y-90619000D01*
X139563156Y-90599000D01*
X139543156Y-90599000D01*
X139543156Y-90345000D01*
X139563156Y-90345000D01*
X139563156Y-90325000D01*
X139817156Y-90325000D01*
X139817156Y-90345000D01*
G37*
%TD.AperFunction*%
D35*
X128507156Y-90345000D02*
X128527156Y-90345000D01*
X128527156Y-90599000D01*
X128507156Y-90599000D01*
X128507156Y-90619000D01*
X128253156Y-90619000D01*
X128253156Y-90599000D01*
X128233156Y-90599000D01*
X128233156Y-90345000D01*
X128253156Y-90345000D01*
X128253156Y-90325000D01*
X128507156Y-90325000D01*
X128507156Y-90345000D01*
%TA.AperFunction,Conductor*%
D36*
G36*
X128507156Y-90345000D02*
G01*
X128527156Y-90345000D01*
X128527156Y-90599000D01*
X128507156Y-90599000D01*
X128507156Y-90619000D01*
X128253156Y-90619000D01*
X128253156Y-90599000D01*
X128233156Y-90599000D01*
X128233156Y-90345000D01*
X128253156Y-90345000D01*
X128253156Y-90325000D01*
X128507156Y-90325000D01*
X128507156Y-90345000D01*
G37*
%TD.AperFunction*%
D35*
X120667156Y-90095000D02*
X120687156Y-90095000D01*
X120687156Y-90349000D01*
X120667156Y-90349000D01*
X120667156Y-90369000D01*
X120413156Y-90369000D01*
X120413156Y-90349000D01*
X120393156Y-90349000D01*
X120393156Y-90095000D01*
X120413156Y-90095000D01*
X120413156Y-90075000D01*
X120667156Y-90075000D01*
X120667156Y-90095000D01*
%TA.AperFunction,Conductor*%
D36*
G36*
X120667156Y-90095000D02*
G01*
X120687156Y-90095000D01*
X120687156Y-90349000D01*
X120667156Y-90349000D01*
X120667156Y-90369000D01*
X120413156Y-90369000D01*
X120413156Y-90349000D01*
X120393156Y-90349000D01*
X120393156Y-90095000D01*
X120413156Y-90095000D01*
X120413156Y-90075000D01*
X120667156Y-90075000D01*
X120667156Y-90095000D01*
G37*
%TD.AperFunction*%
D35*
X132188906Y-90049000D02*
X132792156Y-90049000D01*
X132792156Y-90005000D01*
X132938156Y-90005000D01*
X132938156Y-90049000D01*
X133012156Y-90049000D01*
X133012156Y-90212729D01*
X132982188Y-90203639D01*
X132945252Y-90200001D01*
X132865156Y-90192112D01*
X132835835Y-90195000D01*
X131182440Y-90195000D01*
X131058041Y-90070601D01*
X131039341Y-90047815D01*
X130948436Y-89973211D01*
X130893785Y-89944000D01*
X132083906Y-89944000D01*
X132188906Y-90049000D01*
%TA.AperFunction,Conductor*%
D36*
G36*
X132188906Y-90049000D02*
G01*
X132792156Y-90049000D01*
X132792156Y-90005000D01*
X132938156Y-90005000D01*
X132938156Y-90049000D01*
X133012156Y-90049000D01*
X133012156Y-90212729D01*
X132982188Y-90203639D01*
X132945252Y-90200001D01*
X132865156Y-90192112D01*
X132835835Y-90195000D01*
X131182440Y-90195000D01*
X131058041Y-90070601D01*
X131039341Y-90047815D01*
X130948436Y-89973211D01*
X130893785Y-89944000D01*
X132083906Y-89944000D01*
X132188906Y-90049000D01*
G37*
%TD.AperFunction*%
D35*
X135167156Y-89345000D02*
X135187156Y-89345000D01*
X135187156Y-89599000D01*
X135167156Y-89599000D01*
X135167156Y-89619000D01*
X134913156Y-89619000D01*
X134913156Y-89599000D01*
X134893156Y-89599000D01*
X134893156Y-89345000D01*
X134913156Y-89345000D01*
X134913156Y-89325000D01*
X135167156Y-89325000D01*
X135167156Y-89345000D01*
%TA.AperFunction,Conductor*%
D36*
G36*
X135167156Y-89345000D02*
G01*
X135187156Y-89345000D01*
X135187156Y-89599000D01*
X135167156Y-89599000D01*
X135167156Y-89619000D01*
X134913156Y-89619000D01*
X134913156Y-89599000D01*
X134893156Y-89599000D01*
X134893156Y-89345000D01*
X134913156Y-89345000D01*
X134913156Y-89325000D01*
X135167156Y-89325000D01*
X135167156Y-89345000D01*
G37*
%TD.AperFunction*%
%TD*%
M02*
