%TF.GenerationSoftware,KiCad,Pcbnew,(5.1.10)-1*%
%TF.CreationDate,2023-08-17T02:42:31-04:00*%
%TF.ProjectId,n65_daughterboard,6e36355f-6461-4756-9768-746572626f61,rev?*%
%TF.SameCoordinates,Original*%
%TF.FileFunction,Legend,Bot*%
%TF.FilePolarity,Positive*%
%FSLAX46Y46*%
G04 Gerber Fmt 4.6, Leading zero omitted, Abs format (unit mm)*
G04 Created by KiCad (PCBNEW (5.1.10)-1) date 2023-08-17 02:42:31*
%MOMM*%
%LPD*%
G01*
G04 APERTURE LIST*
%ADD10C,0.150000*%
%ADD11C,0.120000*%
%ADD12C,0.010000*%
G04 APERTURE END LIST*
D10*
X163636584Y-91200571D02*
X163636584Y-90914857D01*
X163036584Y-90914857D01*
X163636584Y-91400571D02*
X163236584Y-91400571D01*
X163036584Y-91400571D02*
X163065156Y-91372000D01*
X163093727Y-91400571D01*
X163065156Y-91429142D01*
X163036584Y-91400571D01*
X163093727Y-91400571D01*
X163236584Y-91600571D02*
X163236584Y-91829142D01*
X163036584Y-91686285D02*
X163550870Y-91686285D01*
X163608013Y-91714857D01*
X163636584Y-91772000D01*
X163636584Y-91829142D01*
X163636584Y-92029142D02*
X163036584Y-92029142D01*
X163636584Y-92286285D02*
X163322298Y-92286285D01*
X163265156Y-92257714D01*
X163236584Y-92200571D01*
X163236584Y-92114857D01*
X163265156Y-92057714D01*
X163293727Y-92029142D01*
X163636584Y-92572000D02*
X163236584Y-92572000D01*
X163036584Y-92572000D02*
X163065156Y-92543428D01*
X163093727Y-92572000D01*
X163065156Y-92600571D01*
X163036584Y-92572000D01*
X163093727Y-92572000D01*
X163236584Y-93114857D02*
X163636584Y-93114857D01*
X163236584Y-92857714D02*
X163550870Y-92857714D01*
X163608013Y-92886285D01*
X163636584Y-92943428D01*
X163636584Y-93029142D01*
X163608013Y-93086285D01*
X163579441Y-93114857D01*
X163636584Y-93400571D02*
X163236584Y-93400571D01*
X163293727Y-93400571D02*
X163265156Y-93429142D01*
X163236584Y-93486285D01*
X163236584Y-93572000D01*
X163265156Y-93629142D01*
X163322298Y-93657714D01*
X163636584Y-93657714D01*
X163322298Y-93657714D02*
X163265156Y-93686285D01*
X163236584Y-93743428D01*
X163236584Y-93829142D01*
X163265156Y-93886285D01*
X163322298Y-93914857D01*
X163636584Y-93914857D01*
X163408013Y-94200571D02*
X163408013Y-94657714D01*
X163636584Y-94943428D02*
X163036584Y-94943428D01*
X163636584Y-95314857D02*
X163608013Y-95257714D01*
X163579441Y-95229142D01*
X163522298Y-95200571D01*
X163350870Y-95200571D01*
X163293727Y-95229142D01*
X163265156Y-95257714D01*
X163236584Y-95314857D01*
X163236584Y-95400571D01*
X163265156Y-95457714D01*
X163293727Y-95486285D01*
X163350870Y-95514857D01*
X163522298Y-95514857D01*
X163579441Y-95486285D01*
X163608013Y-95457714D01*
X163636584Y-95400571D01*
X163636584Y-95314857D01*
X163236584Y-95772000D02*
X163636584Y-95772000D01*
X163293727Y-95772000D02*
X163265156Y-95800571D01*
X163236584Y-95857714D01*
X163236584Y-95943428D01*
X163265156Y-96000571D01*
X163322298Y-96029142D01*
X163636584Y-96029142D01*
D11*
X143115156Y-91722000D02*
X151615156Y-91722000D01*
X143115156Y-95222000D02*
X143115156Y-91722000D01*
X151615156Y-95222000D02*
X143115156Y-95222000D01*
X151615156Y-91722000D02*
X151615156Y-95222000D01*
D10*
X149817536Y-92519619D02*
X149817536Y-92710095D01*
X149865156Y-92805333D01*
X149960394Y-92900571D01*
X150150870Y-92948190D01*
X150484203Y-92948190D01*
X150674679Y-92900571D01*
X150769917Y-92805333D01*
X150817536Y-92710095D01*
X150817536Y-92519619D01*
X150769917Y-92424380D01*
X150674679Y-92329142D01*
X150484203Y-92281523D01*
X150150870Y-92281523D01*
X149960394Y-92329142D01*
X149865156Y-92424380D01*
X149817536Y-92519619D01*
X150293727Y-93710095D02*
X150293727Y-93376761D01*
X150817536Y-93376761D02*
X149817536Y-93376761D01*
X149817536Y-93852952D01*
X150293727Y-94567238D02*
X150293727Y-94233904D01*
X150817536Y-94233904D02*
X149817536Y-94233904D01*
X149817536Y-94710095D01*
X143817536Y-92852952D02*
X143817536Y-93043428D01*
X143865156Y-93138666D01*
X143960394Y-93233904D01*
X144150870Y-93281523D01*
X144484203Y-93281523D01*
X144674679Y-93233904D01*
X144769917Y-93138666D01*
X144817536Y-93043428D01*
X144817536Y-92852952D01*
X144769917Y-92757714D01*
X144674679Y-92662476D01*
X144484203Y-92614857D01*
X144150870Y-92614857D01*
X143960394Y-92662476D01*
X143865156Y-92757714D01*
X143817536Y-92852952D01*
X144817536Y-93710095D02*
X143817536Y-93710095D01*
X144817536Y-94281523D01*
X143817536Y-94281523D01*
D11*
X145365156Y-93472000D02*
X149365156Y-93472000D01*
D10*
X167640156Y-93672000D02*
X167640156Y-95422000D01*
X168140156Y-94672000D02*
X168140156Y-94422000D01*
X168140156Y-95422000D02*
X168140156Y-95172000D01*
X168140156Y-93672000D02*
X168140156Y-93922000D01*
X166640156Y-94407000D02*
X166640156Y-94657000D01*
X166140156Y-94407000D02*
X166140156Y-96157000D01*
X166640156Y-95407000D02*
X166640156Y-95157000D01*
X166640156Y-96157000D02*
X166640156Y-95907000D01*
X165161584Y-96176642D02*
X165161584Y-95833785D01*
X165161584Y-96005214D02*
X164561584Y-96005214D01*
X164647298Y-95948071D01*
X164704441Y-95890928D01*
X164733013Y-95833785D01*
X165104441Y-96433785D02*
X165133013Y-96462357D01*
X165161584Y-96433785D01*
X165133013Y-96405214D01*
X165104441Y-96433785D01*
X165161584Y-96433785D01*
X164761584Y-96976642D02*
X165161584Y-96976642D01*
X164533013Y-96833785D02*
X164961584Y-96690928D01*
X164961584Y-97062357D01*
X164990156Y-97262357D02*
X164990156Y-97548071D01*
X165161584Y-97205214D02*
X164561584Y-97405214D01*
X165161584Y-97605214D01*
X165140156Y-95372000D02*
X165140156Y-95122000D01*
X165140156Y-94622000D02*
X165140156Y-94372000D01*
X165140156Y-93622000D02*
X165140156Y-93872000D01*
X168161584Y-96226642D02*
X168161584Y-95883785D01*
X168161584Y-96055214D02*
X167561584Y-96055214D01*
X167647298Y-95998071D01*
X167704441Y-95940928D01*
X167733013Y-95883785D01*
X167990156Y-96455214D02*
X167990156Y-96740928D01*
X168161584Y-96398071D02*
X167561584Y-96598071D01*
X168161584Y-96798071D01*
X168161584Y-90238785D02*
X168133013Y-90181642D01*
X168104441Y-90153071D01*
X168047298Y-90124500D01*
X167875870Y-90124500D01*
X167818727Y-90153071D01*
X167790156Y-90181642D01*
X167761584Y-90238785D01*
X167761584Y-90324500D01*
X167790156Y-90381642D01*
X167818727Y-90410214D01*
X167875870Y-90438785D01*
X168047298Y-90438785D01*
X168104441Y-90410214D01*
X168133013Y-90381642D01*
X168161584Y-90324500D01*
X168161584Y-90238785D01*
X168161584Y-90695928D02*
X167761584Y-90695928D01*
X167875870Y-90695928D02*
X167818727Y-90724500D01*
X167790156Y-90753071D01*
X167761584Y-90810214D01*
X167761584Y-90867357D01*
X167561584Y-91467357D02*
X167561584Y-91838785D01*
X167790156Y-91638785D01*
X167790156Y-91724500D01*
X167818727Y-91781642D01*
X167847298Y-91810214D01*
X167904441Y-91838785D01*
X168047298Y-91838785D01*
X168104441Y-91810214D01*
X168133013Y-91781642D01*
X168161584Y-91724500D01*
X168161584Y-91553071D01*
X168133013Y-91495928D01*
X168104441Y-91467357D01*
X168104441Y-92095928D02*
X168133013Y-92124500D01*
X168161584Y-92095928D01*
X168133013Y-92067357D01*
X168104441Y-92095928D01*
X168161584Y-92095928D01*
X167561584Y-92324500D02*
X167561584Y-92724500D01*
X168161584Y-92467357D01*
X167561584Y-92867357D02*
X168161584Y-93067357D01*
X167561584Y-93267357D01*
X166661584Y-96961642D02*
X166661584Y-96618785D01*
X166661584Y-96790214D02*
X166061584Y-96790214D01*
X166147298Y-96733071D01*
X166204441Y-96675928D01*
X166233013Y-96618785D01*
X166490156Y-97190214D02*
X166490156Y-97475928D01*
X166661584Y-97133071D02*
X166061584Y-97333071D01*
X166661584Y-97533071D01*
X164640156Y-93622000D02*
X164640156Y-95372000D01*
X166061584Y-89545214D02*
X166061584Y-89659500D01*
X166090156Y-89716642D01*
X166147298Y-89773785D01*
X166261584Y-89802357D01*
X166461584Y-89802357D01*
X166575870Y-89773785D01*
X166633013Y-89716642D01*
X166661584Y-89659500D01*
X166661584Y-89545214D01*
X166633013Y-89488071D01*
X166575870Y-89430928D01*
X166461584Y-89402357D01*
X166261584Y-89402357D01*
X166147298Y-89430928D01*
X166090156Y-89488071D01*
X166061584Y-89545214D01*
X166261584Y-90316642D02*
X166661584Y-90316642D01*
X166261584Y-90059500D02*
X166575870Y-90059500D01*
X166633013Y-90088071D01*
X166661584Y-90145214D01*
X166661584Y-90230928D01*
X166633013Y-90288071D01*
X166604441Y-90316642D01*
X166261584Y-90516642D02*
X166261584Y-90745214D01*
X166061584Y-90602357D02*
X166575870Y-90602357D01*
X166633013Y-90630928D01*
X166661584Y-90688071D01*
X166661584Y-90745214D01*
X166261584Y-90945214D02*
X166861584Y-90945214D01*
X166290156Y-90945214D02*
X166261584Y-91002357D01*
X166261584Y-91116642D01*
X166290156Y-91173785D01*
X166318727Y-91202357D01*
X166375870Y-91230928D01*
X166547298Y-91230928D01*
X166604441Y-91202357D01*
X166633013Y-91173785D01*
X166661584Y-91116642D01*
X166661584Y-91002357D01*
X166633013Y-90945214D01*
X166261584Y-91745214D02*
X166661584Y-91745214D01*
X166261584Y-91488071D02*
X166575870Y-91488071D01*
X166633013Y-91516642D01*
X166661584Y-91573785D01*
X166661584Y-91659500D01*
X166633013Y-91716642D01*
X166604441Y-91745214D01*
X166261584Y-91945214D02*
X166261584Y-92173785D01*
X166061584Y-92030928D02*
X166575870Y-92030928D01*
X166633013Y-92059500D01*
X166661584Y-92116642D01*
X166661584Y-92173785D01*
X166604441Y-92373785D02*
X166633013Y-92402357D01*
X166661584Y-92373785D01*
X166633013Y-92345214D01*
X166604441Y-92373785D01*
X166661584Y-92373785D01*
X166290156Y-92373785D02*
X166318727Y-92402357D01*
X166347298Y-92373785D01*
X166318727Y-92345214D01*
X166290156Y-92373785D01*
X166347298Y-92373785D01*
X166061584Y-93402357D02*
X166061584Y-93116642D01*
X166347298Y-93088071D01*
X166318727Y-93116642D01*
X166290156Y-93173785D01*
X166290156Y-93316642D01*
X166318727Y-93373785D01*
X166347298Y-93402357D01*
X166404441Y-93430928D01*
X166547298Y-93430928D01*
X166604441Y-93402357D01*
X166633013Y-93373785D01*
X166661584Y-93316642D01*
X166661584Y-93173785D01*
X166633013Y-93116642D01*
X166604441Y-93088071D01*
X166061584Y-93602357D02*
X166661584Y-93802357D01*
X166061584Y-94002357D01*
X165161584Y-89331642D02*
X164561584Y-89331642D01*
X164761584Y-89617357D02*
X165161584Y-89617357D01*
X164818727Y-89617357D02*
X164790156Y-89645928D01*
X164761584Y-89703071D01*
X164761584Y-89788785D01*
X164790156Y-89845928D01*
X164847298Y-89874500D01*
X165161584Y-89874500D01*
X164761584Y-90160214D02*
X165361584Y-90160214D01*
X164790156Y-90160214D02*
X164761584Y-90217357D01*
X164761584Y-90331642D01*
X164790156Y-90388785D01*
X164818727Y-90417357D01*
X164875870Y-90445928D01*
X165047298Y-90445928D01*
X165104441Y-90417357D01*
X165133013Y-90388785D01*
X165161584Y-90331642D01*
X165161584Y-90217357D01*
X165133013Y-90160214D01*
X164761584Y-90960214D02*
X165161584Y-90960214D01*
X164761584Y-90703071D02*
X165075870Y-90703071D01*
X165133013Y-90731642D01*
X165161584Y-90788785D01*
X165161584Y-90874500D01*
X165133013Y-90931642D01*
X165104441Y-90960214D01*
X164761584Y-91160214D02*
X164761584Y-91388785D01*
X164561584Y-91245928D02*
X165075870Y-91245928D01*
X165133013Y-91274500D01*
X165161584Y-91331642D01*
X165161584Y-91388785D01*
X165104441Y-91588785D02*
X165133013Y-91617357D01*
X165161584Y-91588785D01*
X165133013Y-91560214D01*
X165104441Y-91588785D01*
X165161584Y-91588785D01*
X164790156Y-91588785D02*
X164818727Y-91617357D01*
X164847298Y-91588785D01*
X164818727Y-91560214D01*
X164790156Y-91588785D01*
X164847298Y-91588785D01*
X164561584Y-92617357D02*
X164561584Y-92331642D01*
X164847298Y-92303071D01*
X164818727Y-92331642D01*
X164790156Y-92388785D01*
X164790156Y-92531642D01*
X164818727Y-92588785D01*
X164847298Y-92617357D01*
X164904441Y-92645928D01*
X165047298Y-92645928D01*
X165104441Y-92617357D01*
X165133013Y-92588785D01*
X165161584Y-92531642D01*
X165161584Y-92388785D01*
X165133013Y-92331642D01*
X165104441Y-92303071D01*
X164561584Y-92817357D02*
X165161584Y-93017357D01*
X164561584Y-93217357D01*
D12*
%TO.C,G\u002A\u002A\u002A*%
G36*
X125352226Y-92206468D02*
G01*
X125359969Y-92232853D01*
X125364210Y-92235867D01*
X125382322Y-92231844D01*
X125429778Y-92220359D01*
X125503095Y-92202291D01*
X125598794Y-92178516D01*
X125713393Y-92149914D01*
X125843413Y-92117362D01*
X125985371Y-92081737D01*
X126135787Y-92043917D01*
X126291180Y-92004780D01*
X126448070Y-91965205D01*
X126602975Y-91926068D01*
X126752415Y-91888247D01*
X126892909Y-91852620D01*
X127020975Y-91820066D01*
X127133134Y-91791461D01*
X127225905Y-91767684D01*
X127295805Y-91749612D01*
X127339356Y-91738124D01*
X127351523Y-91734715D01*
X127375426Y-91712190D01*
X127381156Y-91687761D01*
X127379236Y-91678393D01*
X127371703Y-91668640D01*
X127355897Y-91657501D01*
X127329160Y-91643974D01*
X127288833Y-91627060D01*
X127232256Y-91605756D01*
X127156771Y-91579063D01*
X127059719Y-91545979D01*
X126938441Y-91505503D01*
X126790277Y-91456636D01*
X126612570Y-91398375D01*
X126610690Y-91397760D01*
X126456605Y-91347135D01*
X126312806Y-91299517D01*
X126182409Y-91255965D01*
X126068529Y-91217537D01*
X125974283Y-91185292D01*
X125902787Y-91160288D01*
X125857158Y-91143583D01*
X125840512Y-91136236D01*
X125840492Y-91136158D01*
X125855976Y-91128647D01*
X125899922Y-91111426D01*
X125968766Y-91085790D01*
X126058941Y-91053035D01*
X126166882Y-91014456D01*
X126289023Y-90971348D01*
X126420459Y-90925472D01*
X126620005Y-90856221D01*
X126789952Y-90797233D01*
X126932663Y-90747583D01*
X127050504Y-90706343D01*
X127145839Y-90672588D01*
X127221033Y-90645392D01*
X127278451Y-90623829D01*
X127320458Y-90606972D01*
X127349418Y-90593896D01*
X127367697Y-90583673D01*
X127377658Y-90575380D01*
X127381668Y-90568088D01*
X127382090Y-90560872D01*
X127381289Y-90552806D01*
X127381156Y-90549238D01*
X127379641Y-90517991D01*
X127376923Y-90508114D01*
X127360227Y-90503912D01*
X127313550Y-90491989D01*
X127239710Y-90473068D01*
X127141522Y-90447872D01*
X127021804Y-90417125D01*
X126883372Y-90381551D01*
X126729042Y-90341872D01*
X126561632Y-90298812D01*
X126383957Y-90253095D01*
X126365156Y-90248256D01*
X125357623Y-89988951D01*
X125352366Y-90064905D01*
X125352000Y-90113382D01*
X125357231Y-90146733D01*
X125360832Y-90153134D01*
X125379524Y-90159534D01*
X125427889Y-90173200D01*
X125502718Y-90193296D01*
X125600800Y-90218991D01*
X125718924Y-90249452D01*
X125853880Y-90283845D01*
X126002457Y-90321338D01*
X126161446Y-90361097D01*
X126183123Y-90366491D01*
X126342686Y-90406345D01*
X126491801Y-90443925D01*
X126627332Y-90478416D01*
X126746137Y-90509002D01*
X126845079Y-90534869D01*
X126921018Y-90555203D01*
X126970815Y-90569189D01*
X126991332Y-90576011D01*
X126991690Y-90576362D01*
X126976318Y-90583872D01*
X126932748Y-90601021D01*
X126864803Y-90626408D01*
X126776301Y-90658637D01*
X126671065Y-90696308D01*
X126552914Y-90738024D01*
X126487923Y-90760751D01*
X126285293Y-90831348D01*
X126112286Y-90891610D01*
X125966579Y-90942442D01*
X125845848Y-90984747D01*
X125747768Y-91019431D01*
X125670016Y-91047396D01*
X125610267Y-91069547D01*
X125566198Y-91086788D01*
X125535484Y-91100022D01*
X125515802Y-91110154D01*
X125504826Y-91118087D01*
X125500235Y-91124726D01*
X125499702Y-91130974D01*
X125500905Y-91137735D01*
X125501556Y-91144408D01*
X125504312Y-91153433D01*
X125513898Y-91163624D01*
X125532299Y-91175684D01*
X125561497Y-91190313D01*
X125603474Y-91208215D01*
X125660211Y-91230091D01*
X125733693Y-91256644D01*
X125825900Y-91288575D01*
X125938816Y-91326586D01*
X126074423Y-91371380D01*
X126234703Y-91423658D01*
X126421639Y-91484123D01*
X126637213Y-91553476D01*
X126843602Y-91619668D01*
X126905470Y-91641244D01*
X126949945Y-91660204D01*
X126971144Y-91673839D01*
X126970602Y-91678166D01*
X126950372Y-91684340D01*
X126900533Y-91697810D01*
X126824352Y-91717742D01*
X126725097Y-91743299D01*
X126606035Y-91773645D01*
X126470431Y-91807944D01*
X126321555Y-91845358D01*
X126162671Y-91885054D01*
X126149256Y-91888395D01*
X125349157Y-92087622D01*
X125349157Y-92161744D01*
X125352226Y-92206468D01*
G37*
X125352226Y-92206468D02*
X125359969Y-92232853D01*
X125364210Y-92235867D01*
X125382322Y-92231844D01*
X125429778Y-92220359D01*
X125503095Y-92202291D01*
X125598794Y-92178516D01*
X125713393Y-92149914D01*
X125843413Y-92117362D01*
X125985371Y-92081737D01*
X126135787Y-92043917D01*
X126291180Y-92004780D01*
X126448070Y-91965205D01*
X126602975Y-91926068D01*
X126752415Y-91888247D01*
X126892909Y-91852620D01*
X127020975Y-91820066D01*
X127133134Y-91791461D01*
X127225905Y-91767684D01*
X127295805Y-91749612D01*
X127339356Y-91738124D01*
X127351523Y-91734715D01*
X127375426Y-91712190D01*
X127381156Y-91687761D01*
X127379236Y-91678393D01*
X127371703Y-91668640D01*
X127355897Y-91657501D01*
X127329160Y-91643974D01*
X127288833Y-91627060D01*
X127232256Y-91605756D01*
X127156771Y-91579063D01*
X127059719Y-91545979D01*
X126938441Y-91505503D01*
X126790277Y-91456636D01*
X126612570Y-91398375D01*
X126610690Y-91397760D01*
X126456605Y-91347135D01*
X126312806Y-91299517D01*
X126182409Y-91255965D01*
X126068529Y-91217537D01*
X125974283Y-91185292D01*
X125902787Y-91160288D01*
X125857158Y-91143583D01*
X125840512Y-91136236D01*
X125840492Y-91136158D01*
X125855976Y-91128647D01*
X125899922Y-91111426D01*
X125968766Y-91085790D01*
X126058941Y-91053035D01*
X126166882Y-91014456D01*
X126289023Y-90971348D01*
X126420459Y-90925472D01*
X126620005Y-90856221D01*
X126789952Y-90797233D01*
X126932663Y-90747583D01*
X127050504Y-90706343D01*
X127145839Y-90672588D01*
X127221033Y-90645392D01*
X127278451Y-90623829D01*
X127320458Y-90606972D01*
X127349418Y-90593896D01*
X127367697Y-90583673D01*
X127377658Y-90575380D01*
X127381668Y-90568088D01*
X127382090Y-90560872D01*
X127381289Y-90552806D01*
X127381156Y-90549238D01*
X127379641Y-90517991D01*
X127376923Y-90508114D01*
X127360227Y-90503912D01*
X127313550Y-90491989D01*
X127239710Y-90473068D01*
X127141522Y-90447872D01*
X127021804Y-90417125D01*
X126883372Y-90381551D01*
X126729042Y-90341872D01*
X126561632Y-90298812D01*
X126383957Y-90253095D01*
X126365156Y-90248256D01*
X125357623Y-89988951D01*
X125352366Y-90064905D01*
X125352000Y-90113382D01*
X125357231Y-90146733D01*
X125360832Y-90153134D01*
X125379524Y-90159534D01*
X125427889Y-90173200D01*
X125502718Y-90193296D01*
X125600800Y-90218991D01*
X125718924Y-90249452D01*
X125853880Y-90283845D01*
X126002457Y-90321338D01*
X126161446Y-90361097D01*
X126183123Y-90366491D01*
X126342686Y-90406345D01*
X126491801Y-90443925D01*
X126627332Y-90478416D01*
X126746137Y-90509002D01*
X126845079Y-90534869D01*
X126921018Y-90555203D01*
X126970815Y-90569189D01*
X126991332Y-90576011D01*
X126991690Y-90576362D01*
X126976318Y-90583872D01*
X126932748Y-90601021D01*
X126864803Y-90626408D01*
X126776301Y-90658637D01*
X126671065Y-90696308D01*
X126552914Y-90738024D01*
X126487923Y-90760751D01*
X126285293Y-90831348D01*
X126112286Y-90891610D01*
X125966579Y-90942442D01*
X125845848Y-90984747D01*
X125747768Y-91019431D01*
X125670016Y-91047396D01*
X125610267Y-91069547D01*
X125566198Y-91086788D01*
X125535484Y-91100022D01*
X125515802Y-91110154D01*
X125504826Y-91118087D01*
X125500235Y-91124726D01*
X125499702Y-91130974D01*
X125500905Y-91137735D01*
X125501556Y-91144408D01*
X125504312Y-91153433D01*
X125513898Y-91163624D01*
X125532299Y-91175684D01*
X125561497Y-91190313D01*
X125603474Y-91208215D01*
X125660211Y-91230091D01*
X125733693Y-91256644D01*
X125825900Y-91288575D01*
X125938816Y-91326586D01*
X126074423Y-91371380D01*
X126234703Y-91423658D01*
X126421639Y-91484123D01*
X126637213Y-91553476D01*
X126843602Y-91619668D01*
X126905470Y-91641244D01*
X126949945Y-91660204D01*
X126971144Y-91673839D01*
X126970602Y-91678166D01*
X126950372Y-91684340D01*
X126900533Y-91697810D01*
X126824352Y-91717742D01*
X126725097Y-91743299D01*
X126606035Y-91773645D01*
X126470431Y-91807944D01*
X126321555Y-91845358D01*
X126162671Y-91885054D01*
X126149256Y-91888395D01*
X125349157Y-92087622D01*
X125349157Y-92161744D01*
X125352226Y-92206468D01*
G36*
X125354059Y-93120634D02*
G01*
X125357683Y-93294082D01*
X125362270Y-93438202D01*
X125368478Y-93557532D01*
X125376962Y-93656608D01*
X125388380Y-93739968D01*
X125403390Y-93812149D01*
X125422647Y-93877689D01*
X125446808Y-93941124D01*
X125476532Y-94006992D01*
X125484898Y-94024349D01*
X125573849Y-94173399D01*
X125683743Y-94296700D01*
X125816174Y-94395583D01*
X125972736Y-94471381D01*
X126052775Y-94498704D01*
X126153216Y-94519624D01*
X126274315Y-94530185D01*
X126404534Y-94530539D01*
X126532337Y-94520840D01*
X126646188Y-94501242D01*
X126686463Y-94490285D01*
X126814105Y-94445139D01*
X126916553Y-94395681D01*
X127002473Y-94337091D01*
X127066673Y-94278854D01*
X127159344Y-94165456D01*
X127235145Y-94028477D01*
X127296085Y-93864201D01*
X127302033Y-93844078D01*
X127328104Y-93740008D01*
X127348439Y-93625959D01*
X127363476Y-93497168D01*
X127373650Y-93348870D01*
X127379397Y-93176300D01*
X127381156Y-92980269D01*
X127381156Y-92608400D01*
X126362334Y-92608400D01*
X126362334Y-92777734D01*
X126529942Y-92777949D01*
X126687212Y-92778569D01*
X126830909Y-92779550D01*
X126957797Y-92780850D01*
X127064640Y-92782429D01*
X127148203Y-92784244D01*
X127205251Y-92786253D01*
X127232547Y-92788414D01*
X127234401Y-92789022D01*
X127239310Y-92810598D01*
X127242709Y-92859878D01*
X127244655Y-92930736D01*
X127245201Y-93017046D01*
X127244403Y-93112680D01*
X127242317Y-93211513D01*
X127238997Y-93307419D01*
X127234498Y-93394270D01*
X127228876Y-93465942D01*
X127228258Y-93472000D01*
X127199842Y-93663276D01*
X127156949Y-93826738D01*
X127098299Y-93965762D01*
X127022614Y-94083724D01*
X126975890Y-94138085D01*
X126862949Y-94233310D01*
X126729330Y-94303808D01*
X126578814Y-94348280D01*
X126415179Y-94365426D01*
X126322288Y-94362836D01*
X126141259Y-94336908D01*
X125983981Y-94286953D01*
X125849815Y-94212412D01*
X125738124Y-94112723D01*
X125648272Y-93987325D01*
X125579619Y-93835658D01*
X125533981Y-93669291D01*
X125522387Y-93605780D01*
X125513811Y-93539221D01*
X125507859Y-93463190D01*
X125504133Y-93371263D01*
X125502240Y-93257018D01*
X125501779Y-93146034D01*
X125501557Y-92777734D01*
X126362334Y-92777734D01*
X126362334Y-92608400D01*
X125344981Y-92608400D01*
X125354059Y-93120634D01*
G37*
X125354059Y-93120634D02*
X125357683Y-93294082D01*
X125362270Y-93438202D01*
X125368478Y-93557532D01*
X125376962Y-93656608D01*
X125388380Y-93739968D01*
X125403390Y-93812149D01*
X125422647Y-93877689D01*
X125446808Y-93941124D01*
X125476532Y-94006992D01*
X125484898Y-94024349D01*
X125573849Y-94173399D01*
X125683743Y-94296700D01*
X125816174Y-94395583D01*
X125972736Y-94471381D01*
X126052775Y-94498704D01*
X126153216Y-94519624D01*
X126274315Y-94530185D01*
X126404534Y-94530539D01*
X126532337Y-94520840D01*
X126646188Y-94501242D01*
X126686463Y-94490285D01*
X126814105Y-94445139D01*
X126916553Y-94395681D01*
X127002473Y-94337091D01*
X127066673Y-94278854D01*
X127159344Y-94165456D01*
X127235145Y-94028477D01*
X127296085Y-93864201D01*
X127302033Y-93844078D01*
X127328104Y-93740008D01*
X127348439Y-93625959D01*
X127363476Y-93497168D01*
X127373650Y-93348870D01*
X127379397Y-93176300D01*
X127381156Y-92980269D01*
X127381156Y-92608400D01*
X126362334Y-92608400D01*
X126362334Y-92777734D01*
X126529942Y-92777949D01*
X126687212Y-92778569D01*
X126830909Y-92779550D01*
X126957797Y-92780850D01*
X127064640Y-92782429D01*
X127148203Y-92784244D01*
X127205251Y-92786253D01*
X127232547Y-92788414D01*
X127234401Y-92789022D01*
X127239310Y-92810598D01*
X127242709Y-92859878D01*
X127244655Y-92930736D01*
X127245201Y-93017046D01*
X127244403Y-93112680D01*
X127242317Y-93211513D01*
X127238997Y-93307419D01*
X127234498Y-93394270D01*
X127228876Y-93465942D01*
X127228258Y-93472000D01*
X127199842Y-93663276D01*
X127156949Y-93826738D01*
X127098299Y-93965762D01*
X127022614Y-94083724D01*
X126975890Y-94138085D01*
X126862949Y-94233310D01*
X126729330Y-94303808D01*
X126578814Y-94348280D01*
X126415179Y-94365426D01*
X126322288Y-94362836D01*
X126141259Y-94336908D01*
X125983981Y-94286953D01*
X125849815Y-94212412D01*
X125738124Y-94112723D01*
X125648272Y-93987325D01*
X125579619Y-93835658D01*
X125533981Y-93669291D01*
X125522387Y-93605780D01*
X125513811Y-93539221D01*
X125507859Y-93463190D01*
X125504133Y-93371263D01*
X125502240Y-93257018D01*
X125501779Y-93146034D01*
X125501557Y-92777734D01*
X126362334Y-92777734D01*
X126362334Y-92608400D01*
X125344981Y-92608400D01*
X125354059Y-93120634D01*
G36*
X125351092Y-95751136D02*
G01*
X125357271Y-95960307D01*
X125368251Y-96140563D01*
X125384591Y-96294275D01*
X125406849Y-96423820D01*
X125435582Y-96531571D01*
X125471350Y-96619902D01*
X125514709Y-96691189D01*
X125566218Y-96747805D01*
X125626436Y-96792126D01*
X125653957Y-96807388D01*
X125761431Y-96845688D01*
X125866871Y-96851763D01*
X125967421Y-96827247D01*
X126060228Y-96773773D01*
X126142439Y-96692972D01*
X126211198Y-96586478D01*
X126262653Y-96459173D01*
X126291452Y-96366095D01*
X126320342Y-96470006D01*
X126371240Y-96610632D01*
X126439777Y-96735129D01*
X126522273Y-96838249D01*
X126615052Y-96914747D01*
X126643795Y-96931434D01*
X126736959Y-96962824D01*
X126842852Y-96969276D01*
X126951562Y-96951041D01*
X127028099Y-96921749D01*
X127098187Y-96879703D01*
X127159081Y-96825635D01*
X127211310Y-96757362D01*
X127255404Y-96672700D01*
X127291890Y-96569465D01*
X127321299Y-96445474D01*
X127344157Y-96298544D01*
X127360995Y-96126490D01*
X127372342Y-95927129D01*
X127378725Y-95698278D01*
X127380663Y-95465900D01*
X127381156Y-95029867D01*
X127228756Y-95029867D01*
X127228756Y-95199200D01*
X127228618Y-95643700D01*
X127227919Y-95772556D01*
X127226030Y-95898755D01*
X127223140Y-96015701D01*
X127219438Y-96116795D01*
X127215112Y-96195442D01*
X127211667Y-96234913D01*
X127183939Y-96403177D01*
X127142819Y-96540484D01*
X127088221Y-96647020D01*
X127020056Y-96722971D01*
X126967520Y-96756471D01*
X126891728Y-96781083D01*
X126806355Y-96790337D01*
X126725202Y-96783791D01*
X126670815Y-96765978D01*
X126608744Y-96719805D01*
X126547627Y-96649719D01*
X126494710Y-96565083D01*
X126466256Y-96501729D01*
X126442424Y-96435156D01*
X126423234Y-96373054D01*
X126408097Y-96310472D01*
X126396424Y-96242457D01*
X126387625Y-96164057D01*
X126381112Y-96070320D01*
X126376295Y-95956294D01*
X126372585Y-95817027D01*
X126370200Y-95694500D01*
X126361452Y-95199200D01*
X127228756Y-95199200D01*
X127228756Y-95029867D01*
X126229690Y-95029867D01*
X126229690Y-95199200D01*
X126229551Y-95567500D01*
X126228702Y-95687434D01*
X126226415Y-95806571D01*
X126222949Y-95916968D01*
X126218561Y-96010685D01*
X126213509Y-96079779D01*
X126212637Y-96088200D01*
X126186521Y-96250870D01*
X126147188Y-96389823D01*
X126095713Y-96503309D01*
X126033175Y-96589580D01*
X125960650Y-96646888D01*
X125879217Y-96673483D01*
X125850975Y-96675222D01*
X125758778Y-96660546D01*
X125680189Y-96615699D01*
X125616511Y-96544588D01*
X125590114Y-96503592D01*
X125568519Y-96461618D01*
X125551190Y-96414761D01*
X125537592Y-96359113D01*
X125527189Y-96290767D01*
X125519446Y-96205816D01*
X125513825Y-96100354D01*
X125509793Y-95970472D01*
X125506813Y-95812264D01*
X125505752Y-95736834D01*
X125498687Y-95199200D01*
X126229690Y-95199200D01*
X126229690Y-95029867D01*
X125349157Y-95029867D01*
X125349157Y-95510673D01*
X125351092Y-95751136D01*
G37*
X125351092Y-95751136D02*
X125357271Y-95960307D01*
X125368251Y-96140563D01*
X125384591Y-96294275D01*
X125406849Y-96423820D01*
X125435582Y-96531571D01*
X125471350Y-96619902D01*
X125514709Y-96691189D01*
X125566218Y-96747805D01*
X125626436Y-96792126D01*
X125653957Y-96807388D01*
X125761431Y-96845688D01*
X125866871Y-96851763D01*
X125967421Y-96827247D01*
X126060228Y-96773773D01*
X126142439Y-96692972D01*
X126211198Y-96586478D01*
X126262653Y-96459173D01*
X126291452Y-96366095D01*
X126320342Y-96470006D01*
X126371240Y-96610632D01*
X126439777Y-96735129D01*
X126522273Y-96838249D01*
X126615052Y-96914747D01*
X126643795Y-96931434D01*
X126736959Y-96962824D01*
X126842852Y-96969276D01*
X126951562Y-96951041D01*
X127028099Y-96921749D01*
X127098187Y-96879703D01*
X127159081Y-96825635D01*
X127211310Y-96757362D01*
X127255404Y-96672700D01*
X127291890Y-96569465D01*
X127321299Y-96445474D01*
X127344157Y-96298544D01*
X127360995Y-96126490D01*
X127372342Y-95927129D01*
X127378725Y-95698278D01*
X127380663Y-95465900D01*
X127381156Y-95029867D01*
X127228756Y-95029867D01*
X127228756Y-95199200D01*
X127228618Y-95643700D01*
X127227919Y-95772556D01*
X127226030Y-95898755D01*
X127223140Y-96015701D01*
X127219438Y-96116795D01*
X127215112Y-96195442D01*
X127211667Y-96234913D01*
X127183939Y-96403177D01*
X127142819Y-96540484D01*
X127088221Y-96647020D01*
X127020056Y-96722971D01*
X126967520Y-96756471D01*
X126891728Y-96781083D01*
X126806355Y-96790337D01*
X126725202Y-96783791D01*
X126670815Y-96765978D01*
X126608744Y-96719805D01*
X126547627Y-96649719D01*
X126494710Y-96565083D01*
X126466256Y-96501729D01*
X126442424Y-96435156D01*
X126423234Y-96373054D01*
X126408097Y-96310472D01*
X126396424Y-96242457D01*
X126387625Y-96164057D01*
X126381112Y-96070320D01*
X126376295Y-95956294D01*
X126372585Y-95817027D01*
X126370200Y-95694500D01*
X126361452Y-95199200D01*
X127228756Y-95199200D01*
X127228756Y-95029867D01*
X126229690Y-95029867D01*
X126229690Y-95199200D01*
X126229551Y-95567500D01*
X126228702Y-95687434D01*
X126226415Y-95806571D01*
X126222949Y-95916968D01*
X126218561Y-96010685D01*
X126213509Y-96079779D01*
X126212637Y-96088200D01*
X126186521Y-96250870D01*
X126147188Y-96389823D01*
X126095713Y-96503309D01*
X126033175Y-96589580D01*
X125960650Y-96646888D01*
X125879217Y-96673483D01*
X125850975Y-96675222D01*
X125758778Y-96660546D01*
X125680189Y-96615699D01*
X125616511Y-96544588D01*
X125590114Y-96503592D01*
X125568519Y-96461618D01*
X125551190Y-96414761D01*
X125537592Y-96359113D01*
X125527189Y-96290767D01*
X125519446Y-96205816D01*
X125513825Y-96100354D01*
X125509793Y-95970472D01*
X125506813Y-95812264D01*
X125505752Y-95736834D01*
X125498687Y-95199200D01*
X126229690Y-95199200D01*
X126229690Y-95029867D01*
X125349157Y-95029867D01*
X125349157Y-95510673D01*
X125351092Y-95751136D01*
G36*
X121869078Y-90472491D02*
G01*
X121254590Y-90473663D01*
X120640102Y-90474834D01*
X120640102Y-90548708D01*
X120640219Y-90578321D01*
X120640845Y-90599625D01*
X120642393Y-90613544D01*
X120645276Y-90621006D01*
X120649905Y-90622936D01*
X120656694Y-90620260D01*
X120666055Y-90613905D01*
X120668383Y-90612191D01*
X120682436Y-90601800D01*
X122099756Y-90599158D01*
X122097138Y-90503142D01*
X120827138Y-89359510D01*
X121463293Y-89358339D01*
X122099447Y-89357168D01*
X122099447Y-89232510D01*
X120640102Y-89232510D01*
X120640102Y-89360345D01*
X121869078Y-90472491D01*
G37*
X121869078Y-90472491D02*
X121254590Y-90473663D01*
X120640102Y-90474834D01*
X120640102Y-90548708D01*
X120640219Y-90578321D01*
X120640845Y-90599625D01*
X120642393Y-90613544D01*
X120645276Y-90621006D01*
X120649905Y-90622936D01*
X120656694Y-90620260D01*
X120666055Y-90613905D01*
X120668383Y-90612191D01*
X120682436Y-90601800D01*
X122099756Y-90599158D01*
X122097138Y-90503142D01*
X120827138Y-89359510D01*
X121463293Y-89358339D01*
X122099447Y-89357168D01*
X122099447Y-89232510D01*
X120640102Y-89232510D01*
X120640102Y-89360345D01*
X121869078Y-90472491D01*
G36*
X121007247Y-91391060D02*
G01*
X121057253Y-91434417D01*
X121105249Y-91476088D01*
X121150781Y-91515673D01*
X121193391Y-91552773D01*
X121232624Y-91586989D01*
X121268023Y-91617921D01*
X121299133Y-91645172D01*
X121325496Y-91668341D01*
X121346657Y-91687029D01*
X121362160Y-91700839D01*
X121371548Y-91709370D01*
X121374393Y-91712210D01*
X121370872Y-91715462D01*
X121360627Y-91724109D01*
X121344136Y-91737763D01*
X121321877Y-91756036D01*
X121294326Y-91778540D01*
X121261962Y-91804886D01*
X121225263Y-91834685D01*
X121184704Y-91867549D01*
X121140765Y-91903091D01*
X121093923Y-91940921D01*
X121044655Y-91980652D01*
X121007510Y-92010569D01*
X120640628Y-92305910D01*
X120640365Y-92379211D01*
X120640405Y-92407440D01*
X120640815Y-92427459D01*
X120641675Y-92440287D01*
X120643069Y-92446947D01*
X120645077Y-92448461D01*
X120645874Y-92448016D01*
X120649990Y-92444755D01*
X120660555Y-92436363D01*
X120677621Y-92422795D01*
X120701244Y-92404009D01*
X120731477Y-92379963D01*
X120768375Y-92350612D01*
X120811992Y-92315913D01*
X120862381Y-92275825D01*
X120919598Y-92230303D01*
X120983696Y-92179304D01*
X121054729Y-92122786D01*
X121132752Y-92060705D01*
X121217818Y-91993019D01*
X121309983Y-91919683D01*
X121409299Y-91840656D01*
X121449675Y-91808528D01*
X121494940Y-91772510D01*
X122099447Y-91772510D01*
X122099447Y-91643200D01*
X121489039Y-91643200D01*
X121072549Y-91286446D01*
X121018949Y-91240538D01*
X120967221Y-91196241D01*
X120917808Y-91153934D01*
X120871151Y-91113995D01*
X120827691Y-91076801D01*
X120787872Y-91042731D01*
X120752134Y-91012163D01*
X120720920Y-90985474D01*
X120694671Y-90963043D01*
X120673830Y-90945247D01*
X120658838Y-90932465D01*
X120650138Y-90925075D01*
X120648080Y-90923353D01*
X120645167Y-90921569D01*
X120643064Y-90922341D01*
X120641638Y-90926842D01*
X120640760Y-90936246D01*
X120640299Y-90951729D01*
X120640124Y-90974464D01*
X120640102Y-90994971D01*
X120640102Y-91072928D01*
X121007247Y-91391060D01*
G37*
X121007247Y-91391060D02*
X121057253Y-91434417D01*
X121105249Y-91476088D01*
X121150781Y-91515673D01*
X121193391Y-91552773D01*
X121232624Y-91586989D01*
X121268023Y-91617921D01*
X121299133Y-91645172D01*
X121325496Y-91668341D01*
X121346657Y-91687029D01*
X121362160Y-91700839D01*
X121371548Y-91709370D01*
X121374393Y-91712210D01*
X121370872Y-91715462D01*
X121360627Y-91724109D01*
X121344136Y-91737763D01*
X121321877Y-91756036D01*
X121294326Y-91778540D01*
X121261962Y-91804886D01*
X121225263Y-91834685D01*
X121184704Y-91867549D01*
X121140765Y-91903091D01*
X121093923Y-91940921D01*
X121044655Y-91980652D01*
X121007510Y-92010569D01*
X120640628Y-92305910D01*
X120640365Y-92379211D01*
X120640405Y-92407440D01*
X120640815Y-92427459D01*
X120641675Y-92440287D01*
X120643069Y-92446947D01*
X120645077Y-92448461D01*
X120645874Y-92448016D01*
X120649990Y-92444755D01*
X120660555Y-92436363D01*
X120677621Y-92422795D01*
X120701244Y-92404009D01*
X120731477Y-92379963D01*
X120768375Y-92350612D01*
X120811992Y-92315913D01*
X120862381Y-92275825D01*
X120919598Y-92230303D01*
X120983696Y-92179304D01*
X121054729Y-92122786D01*
X121132752Y-92060705D01*
X121217818Y-91993019D01*
X121309983Y-91919683D01*
X121409299Y-91840656D01*
X121449675Y-91808528D01*
X121494940Y-91772510D01*
X122099447Y-91772510D01*
X122099447Y-91643200D01*
X121489039Y-91643200D01*
X121072549Y-91286446D01*
X121018949Y-91240538D01*
X120967221Y-91196241D01*
X120917808Y-91153934D01*
X120871151Y-91113995D01*
X120827691Y-91076801D01*
X120787872Y-91042731D01*
X120752134Y-91012163D01*
X120720920Y-90985474D01*
X120694671Y-90963043D01*
X120673830Y-90945247D01*
X120658838Y-90932465D01*
X120650138Y-90925075D01*
X120648080Y-90923353D01*
X120645167Y-90921569D01*
X120643064Y-90922341D01*
X120641638Y-90926842D01*
X120640760Y-90936246D01*
X120640299Y-90951729D01*
X120640124Y-90974464D01*
X120640102Y-90994971D01*
X120640102Y-91072928D01*
X121007247Y-91391060D01*
G36*
X120641292Y-93214537D02*
G01*
X120641582Y-93288816D01*
X120641874Y-93354467D01*
X120642179Y-93412097D01*
X120642508Y-93462315D01*
X120642876Y-93505728D01*
X120643293Y-93542944D01*
X120643772Y-93574572D01*
X120644326Y-93601219D01*
X120644966Y-93623493D01*
X120645704Y-93642002D01*
X120646554Y-93657354D01*
X120647527Y-93670157D01*
X120648636Y-93681018D01*
X120649893Y-93690547D01*
X120651031Y-93697725D01*
X120665009Y-93767742D01*
X120682006Y-93829673D01*
X120702351Y-93884271D01*
X120726373Y-93932285D01*
X120754401Y-93974467D01*
X120786763Y-94011568D01*
X120789852Y-94014637D01*
X120819637Y-94041832D01*
X120848125Y-94062899D01*
X120878449Y-94079813D01*
X120913743Y-94094548D01*
X120920604Y-94097028D01*
X120936345Y-94102458D01*
X120949470Y-94106317D01*
X120962114Y-94108876D01*
X120976416Y-94110406D01*
X120994512Y-94111177D01*
X121018538Y-94111460D01*
X121034956Y-94111505D01*
X121073896Y-94110865D01*
X121105780Y-94108499D01*
X121132703Y-94103932D01*
X121156762Y-94096691D01*
X121180052Y-94086305D01*
X121202336Y-94073725D01*
X121251383Y-94039059D01*
X121294272Y-93998307D01*
X121331164Y-93951205D01*
X121362219Y-93897485D01*
X121387598Y-93836883D01*
X121407461Y-93769132D01*
X121418468Y-93715595D01*
X121421822Y-93696950D01*
X121424716Y-93682118D01*
X121426731Y-93673185D01*
X121427306Y-93671548D01*
X121431103Y-93674073D01*
X121441718Y-93681818D01*
X121458632Y-93694392D01*
X121481327Y-93711403D01*
X121509285Y-93732459D01*
X121541988Y-93757169D01*
X121578916Y-93785141D01*
X121619552Y-93815983D01*
X121663378Y-93849303D01*
X121709875Y-93884711D01*
X121758525Y-93921813D01*
X121761838Y-93924342D01*
X121810641Y-93961574D01*
X121857341Y-93997166D01*
X121901417Y-94030722D01*
X121942349Y-94061848D01*
X121979617Y-94090150D01*
X122012701Y-94115234D01*
X122041081Y-94136705D01*
X122064236Y-94154168D01*
X122081646Y-94167230D01*
X122092791Y-94175496D01*
X122097150Y-94178571D01*
X122097186Y-94178582D01*
X122097929Y-94174214D01*
X122098569Y-94162112D01*
X122099063Y-94143775D01*
X122099368Y-94120707D01*
X122099447Y-94100261D01*
X122099447Y-94021939D01*
X121766938Y-93771702D01*
X121434429Y-93521466D01*
X121434429Y-92903964D01*
X122099447Y-92903964D01*
X122099447Y-92779273D01*
X121036223Y-92779273D01*
X121036223Y-92903964D01*
X121086768Y-92904012D01*
X121134558Y-92904152D01*
X121178796Y-92904375D01*
X121218684Y-92904671D01*
X121253426Y-92905034D01*
X121282224Y-92905453D01*
X121304281Y-92905922D01*
X121318799Y-92906430D01*
X121324982Y-92906971D01*
X121325132Y-92907043D01*
X121325801Y-92912228D01*
X121326379Y-92925763D01*
X121326868Y-92946763D01*
X121327270Y-92974340D01*
X121327585Y-93007609D01*
X121327817Y-93045684D01*
X121327967Y-93087679D01*
X121328036Y-93132709D01*
X121328027Y-93179886D01*
X121327940Y-93228326D01*
X121327778Y-93277142D01*
X121327543Y-93325448D01*
X121327235Y-93372358D01*
X121326858Y-93416987D01*
X121326412Y-93458448D01*
X121325900Y-93495855D01*
X121325322Y-93528323D01*
X121324682Y-93554965D01*
X121323980Y-93574896D01*
X121323821Y-93578219D01*
X121319134Y-93643041D01*
X121311953Y-93700029D01*
X121302037Y-93750304D01*
X121289143Y-93794991D01*
X121273031Y-93835211D01*
X121265019Y-93851477D01*
X121247538Y-93879775D01*
X121225495Y-93907675D01*
X121201330Y-93932412D01*
X121177479Y-93951217D01*
X121176707Y-93951716D01*
X121137343Y-93971650D01*
X121094269Y-93983943D01*
X121049052Y-93988535D01*
X121003256Y-93985368D01*
X120958447Y-93974381D01*
X120926861Y-93961189D01*
X120891150Y-93939741D01*
X120860065Y-93913158D01*
X120833211Y-93880792D01*
X120810196Y-93841994D01*
X120790628Y-93796116D01*
X120774112Y-93742510D01*
X120761916Y-93689055D01*
X120760476Y-93680947D01*
X120759210Y-93671614D01*
X120758102Y-93660410D01*
X120757137Y-93646686D01*
X120756300Y-93629793D01*
X120755576Y-93609084D01*
X120754949Y-93583910D01*
X120754405Y-93553623D01*
X120753928Y-93517575D01*
X120753503Y-93475118D01*
X120753115Y-93425604D01*
X120752749Y-93368385D01*
X120752388Y-93302812D01*
X120752257Y-93276882D01*
X120750393Y-92903964D01*
X121036223Y-92903964D01*
X121036223Y-92779273D01*
X120639665Y-92779273D01*
X120641292Y-93214537D01*
G37*
X120641292Y-93214537D02*
X120641582Y-93288816D01*
X120641874Y-93354467D01*
X120642179Y-93412097D01*
X120642508Y-93462315D01*
X120642876Y-93505728D01*
X120643293Y-93542944D01*
X120643772Y-93574572D01*
X120644326Y-93601219D01*
X120644966Y-93623493D01*
X120645704Y-93642002D01*
X120646554Y-93657354D01*
X120647527Y-93670157D01*
X120648636Y-93681018D01*
X120649893Y-93690547D01*
X120651031Y-93697725D01*
X120665009Y-93767742D01*
X120682006Y-93829673D01*
X120702351Y-93884271D01*
X120726373Y-93932285D01*
X120754401Y-93974467D01*
X120786763Y-94011568D01*
X120789852Y-94014637D01*
X120819637Y-94041832D01*
X120848125Y-94062899D01*
X120878449Y-94079813D01*
X120913743Y-94094548D01*
X120920604Y-94097028D01*
X120936345Y-94102458D01*
X120949470Y-94106317D01*
X120962114Y-94108876D01*
X120976416Y-94110406D01*
X120994512Y-94111177D01*
X121018538Y-94111460D01*
X121034956Y-94111505D01*
X121073896Y-94110865D01*
X121105780Y-94108499D01*
X121132703Y-94103932D01*
X121156762Y-94096691D01*
X121180052Y-94086305D01*
X121202336Y-94073725D01*
X121251383Y-94039059D01*
X121294272Y-93998307D01*
X121331164Y-93951205D01*
X121362219Y-93897485D01*
X121387598Y-93836883D01*
X121407461Y-93769132D01*
X121418468Y-93715595D01*
X121421822Y-93696950D01*
X121424716Y-93682118D01*
X121426731Y-93673185D01*
X121427306Y-93671548D01*
X121431103Y-93674073D01*
X121441718Y-93681818D01*
X121458632Y-93694392D01*
X121481327Y-93711403D01*
X121509285Y-93732459D01*
X121541988Y-93757169D01*
X121578916Y-93785141D01*
X121619552Y-93815983D01*
X121663378Y-93849303D01*
X121709875Y-93884711D01*
X121758525Y-93921813D01*
X121761838Y-93924342D01*
X121810641Y-93961574D01*
X121857341Y-93997166D01*
X121901417Y-94030722D01*
X121942349Y-94061848D01*
X121979617Y-94090150D01*
X122012701Y-94115234D01*
X122041081Y-94136705D01*
X122064236Y-94154168D01*
X122081646Y-94167230D01*
X122092791Y-94175496D01*
X122097150Y-94178571D01*
X122097186Y-94178582D01*
X122097929Y-94174214D01*
X122098569Y-94162112D01*
X122099063Y-94143775D01*
X122099368Y-94120707D01*
X122099447Y-94100261D01*
X122099447Y-94021939D01*
X121766938Y-93771702D01*
X121434429Y-93521466D01*
X121434429Y-92903964D01*
X122099447Y-92903964D01*
X122099447Y-92779273D01*
X121036223Y-92779273D01*
X121036223Y-92903964D01*
X121086768Y-92904012D01*
X121134558Y-92904152D01*
X121178796Y-92904375D01*
X121218684Y-92904671D01*
X121253426Y-92905034D01*
X121282224Y-92905453D01*
X121304281Y-92905922D01*
X121318799Y-92906430D01*
X121324982Y-92906971D01*
X121325132Y-92907043D01*
X121325801Y-92912228D01*
X121326379Y-92925763D01*
X121326868Y-92946763D01*
X121327270Y-92974340D01*
X121327585Y-93007609D01*
X121327817Y-93045684D01*
X121327967Y-93087679D01*
X121328036Y-93132709D01*
X121328027Y-93179886D01*
X121327940Y-93228326D01*
X121327778Y-93277142D01*
X121327543Y-93325448D01*
X121327235Y-93372358D01*
X121326858Y-93416987D01*
X121326412Y-93458448D01*
X121325900Y-93495855D01*
X121325322Y-93528323D01*
X121324682Y-93554965D01*
X121323980Y-93574896D01*
X121323821Y-93578219D01*
X121319134Y-93643041D01*
X121311953Y-93700029D01*
X121302037Y-93750304D01*
X121289143Y-93794991D01*
X121273031Y-93835211D01*
X121265019Y-93851477D01*
X121247538Y-93879775D01*
X121225495Y-93907675D01*
X121201330Y-93932412D01*
X121177479Y-93951217D01*
X121176707Y-93951716D01*
X121137343Y-93971650D01*
X121094269Y-93983943D01*
X121049052Y-93988535D01*
X121003256Y-93985368D01*
X120958447Y-93974381D01*
X120926861Y-93961189D01*
X120891150Y-93939741D01*
X120860065Y-93913158D01*
X120833211Y-93880792D01*
X120810196Y-93841994D01*
X120790628Y-93796116D01*
X120774112Y-93742510D01*
X120761916Y-93689055D01*
X120760476Y-93680947D01*
X120759210Y-93671614D01*
X120758102Y-93660410D01*
X120757137Y-93646686D01*
X120756300Y-93629793D01*
X120755576Y-93609084D01*
X120754949Y-93583910D01*
X120754405Y-93553623D01*
X120753928Y-93517575D01*
X120753503Y-93475118D01*
X120753115Y-93425604D01*
X120752749Y-93368385D01*
X120752388Y-93302812D01*
X120752257Y-93276882D01*
X120750393Y-92903964D01*
X121036223Y-92903964D01*
X121036223Y-92779273D01*
X120639665Y-92779273D01*
X120641292Y-93214537D01*
G36*
X120746320Y-95864219D02*
G01*
X120746320Y-94658873D01*
X121282029Y-94658873D01*
X121282029Y-95674873D01*
X121392865Y-95674873D01*
X121392865Y-94658873D01*
X121988611Y-94658873D01*
X121988611Y-95854982D01*
X122099447Y-95854982D01*
X122099447Y-94534182D01*
X120635484Y-94534182D01*
X120635484Y-95864219D01*
X120746320Y-95864219D01*
G37*
X120746320Y-95864219D02*
X120746320Y-94658873D01*
X121282029Y-94658873D01*
X121282029Y-95674873D01*
X121392865Y-95674873D01*
X121392865Y-94658873D01*
X121988611Y-94658873D01*
X121988611Y-95854982D01*
X122099447Y-95854982D01*
X122099447Y-94534182D01*
X120635484Y-94534182D01*
X120635484Y-95864219D01*
X120746320Y-95864219D01*
G36*
X120635573Y-96406855D02*
G01*
X120675937Y-96442066D01*
X120705927Y-96468282D01*
X120739262Y-96497523D01*
X120775364Y-96529273D01*
X120813652Y-96563016D01*
X120853547Y-96598238D01*
X120894470Y-96634424D01*
X120935842Y-96671059D01*
X120977082Y-96707627D01*
X121017612Y-96743613D01*
X121056853Y-96778503D01*
X121094224Y-96811782D01*
X121129147Y-96842933D01*
X121161042Y-96871443D01*
X121189329Y-96896796D01*
X121213430Y-96918477D01*
X121232764Y-96935971D01*
X121246753Y-96948762D01*
X121254817Y-96956337D01*
X121256629Y-96958277D01*
X121253226Y-96961783D01*
X121243350Y-96970912D01*
X121227494Y-96985225D01*
X121206156Y-97004283D01*
X121179831Y-97027648D01*
X121149015Y-97054882D01*
X121114203Y-97085547D01*
X121075892Y-97119205D01*
X121034577Y-97155417D01*
X120990755Y-97193745D01*
X120947997Y-97231068D01*
X120902225Y-97271025D01*
X120858456Y-97309309D01*
X120817193Y-97345478D01*
X120778935Y-97379091D01*
X120744182Y-97409704D01*
X120713435Y-97436877D01*
X120687193Y-97460166D01*
X120665958Y-97479131D01*
X120650229Y-97493329D01*
X120640507Y-97502318D01*
X120637296Y-97505611D01*
X120636648Y-97511941D01*
X120636259Y-97525723D01*
X120636148Y-97545176D01*
X120636334Y-97568518D01*
X120636509Y-97579255D01*
X120637793Y-97647503D01*
X121348597Y-97046579D01*
X121360340Y-97057350D01*
X121368887Y-97065090D01*
X121383388Y-97078104D01*
X121403289Y-97095901D01*
X121428042Y-97117993D01*
X121457094Y-97143889D01*
X121489896Y-97173101D01*
X121525894Y-97205139D01*
X121564539Y-97239515D01*
X121605280Y-97275738D01*
X121647565Y-97313320D01*
X121690844Y-97351770D01*
X121734565Y-97390601D01*
X121778177Y-97429322D01*
X121821129Y-97467444D01*
X121862871Y-97504477D01*
X121902850Y-97539934D01*
X121940517Y-97573324D01*
X121975320Y-97604157D01*
X122006707Y-97631945D01*
X122034128Y-97656199D01*
X122057032Y-97676428D01*
X122074868Y-97692144D01*
X122087084Y-97702857D01*
X122093130Y-97708079D01*
X122093674Y-97708511D01*
X122095829Y-97707945D01*
X122097406Y-97702575D01*
X122098481Y-97691422D01*
X122099125Y-97673502D01*
X122099414Y-97647833D01*
X122099447Y-97631415D01*
X122099447Y-97550793D01*
X121783825Y-97266706D01*
X121737597Y-97225102D01*
X121693139Y-97185099D01*
X121650957Y-97147152D01*
X121611553Y-97111714D01*
X121575434Y-97079239D01*
X121543104Y-97050180D01*
X121515068Y-97024990D01*
X121491830Y-97004125D01*
X121473895Y-96988036D01*
X121461767Y-96977179D01*
X121455951Y-96972005D01*
X121455749Y-96971828D01*
X121443295Y-96961037D01*
X121730632Y-96713964D01*
X121776002Y-96674954D01*
X121820168Y-96636986D01*
X121862508Y-96600593D01*
X121902405Y-96566306D01*
X121939237Y-96534658D01*
X121972387Y-96506180D01*
X122001234Y-96481405D01*
X122025160Y-96460866D01*
X122043544Y-96445094D01*
X122055767Y-96434621D01*
X122058535Y-96432255D01*
X122099100Y-96397619D01*
X122099274Y-96320264D01*
X122099201Y-96294702D01*
X122098889Y-96272703D01*
X122098380Y-96255777D01*
X122097715Y-96245436D01*
X122097136Y-96242910D01*
X122093376Y-96245837D01*
X122083045Y-96254360D01*
X122066606Y-96268087D01*
X122044523Y-96286626D01*
X122017259Y-96309586D01*
X121985277Y-96336577D01*
X121949041Y-96367206D01*
X121909013Y-96401083D01*
X121865656Y-96437817D01*
X121819434Y-96477016D01*
X121770811Y-96518289D01*
X121725307Y-96556946D01*
X121674873Y-96599770D01*
X121626385Y-96640871D01*
X121580309Y-96679858D01*
X121537111Y-96716338D01*
X121497258Y-96749921D01*
X121461217Y-96780213D01*
X121429453Y-96806824D01*
X121402435Y-96829362D01*
X121380629Y-96847436D01*
X121364500Y-96860652D01*
X121354517Y-96868621D01*
X121351173Y-96870982D01*
X121347127Y-96868003D01*
X121336611Y-96859338D01*
X121320095Y-96845393D01*
X121298052Y-96826576D01*
X121270951Y-96803293D01*
X121239264Y-96775951D01*
X121203462Y-96744957D01*
X121164016Y-96710718D01*
X121121396Y-96673642D01*
X121076075Y-96634134D01*
X121028523Y-96592601D01*
X120996793Y-96564846D01*
X120948001Y-96522154D01*
X120901116Y-96481160D01*
X120856613Y-96442277D01*
X120814966Y-96405916D01*
X120776647Y-96372492D01*
X120742132Y-96342415D01*
X120711892Y-96316100D01*
X120686403Y-96293958D01*
X120666137Y-96276401D01*
X120651569Y-96263844D01*
X120643172Y-96256697D01*
X120641256Y-96255155D01*
X120639068Y-96255695D01*
X120637480Y-96261074D01*
X120636414Y-96272289D01*
X120635794Y-96290337D01*
X120635543Y-96316215D01*
X120635528Y-96329228D01*
X120635573Y-96406855D01*
G37*
X120635573Y-96406855D02*
X120675937Y-96442066D01*
X120705927Y-96468282D01*
X120739262Y-96497523D01*
X120775364Y-96529273D01*
X120813652Y-96563016D01*
X120853547Y-96598238D01*
X120894470Y-96634424D01*
X120935842Y-96671059D01*
X120977082Y-96707627D01*
X121017612Y-96743613D01*
X121056853Y-96778503D01*
X121094224Y-96811782D01*
X121129147Y-96842933D01*
X121161042Y-96871443D01*
X121189329Y-96896796D01*
X121213430Y-96918477D01*
X121232764Y-96935971D01*
X121246753Y-96948762D01*
X121254817Y-96956337D01*
X121256629Y-96958277D01*
X121253226Y-96961783D01*
X121243350Y-96970912D01*
X121227494Y-96985225D01*
X121206156Y-97004283D01*
X121179831Y-97027648D01*
X121149015Y-97054882D01*
X121114203Y-97085547D01*
X121075892Y-97119205D01*
X121034577Y-97155417D01*
X120990755Y-97193745D01*
X120947997Y-97231068D01*
X120902225Y-97271025D01*
X120858456Y-97309309D01*
X120817193Y-97345478D01*
X120778935Y-97379091D01*
X120744182Y-97409704D01*
X120713435Y-97436877D01*
X120687193Y-97460166D01*
X120665958Y-97479131D01*
X120650229Y-97493329D01*
X120640507Y-97502318D01*
X120637296Y-97505611D01*
X120636648Y-97511941D01*
X120636259Y-97525723D01*
X120636148Y-97545176D01*
X120636334Y-97568518D01*
X120636509Y-97579255D01*
X120637793Y-97647503D01*
X121348597Y-97046579D01*
X121360340Y-97057350D01*
X121368887Y-97065090D01*
X121383388Y-97078104D01*
X121403289Y-97095901D01*
X121428042Y-97117993D01*
X121457094Y-97143889D01*
X121489896Y-97173101D01*
X121525894Y-97205139D01*
X121564539Y-97239515D01*
X121605280Y-97275738D01*
X121647565Y-97313320D01*
X121690844Y-97351770D01*
X121734565Y-97390601D01*
X121778177Y-97429322D01*
X121821129Y-97467444D01*
X121862871Y-97504477D01*
X121902850Y-97539934D01*
X121940517Y-97573324D01*
X121975320Y-97604157D01*
X122006707Y-97631945D01*
X122034128Y-97656199D01*
X122057032Y-97676428D01*
X122074868Y-97692144D01*
X122087084Y-97702857D01*
X122093130Y-97708079D01*
X122093674Y-97708511D01*
X122095829Y-97707945D01*
X122097406Y-97702575D01*
X122098481Y-97691422D01*
X122099125Y-97673502D01*
X122099414Y-97647833D01*
X122099447Y-97631415D01*
X122099447Y-97550793D01*
X121783825Y-97266706D01*
X121737597Y-97225102D01*
X121693139Y-97185099D01*
X121650957Y-97147152D01*
X121611553Y-97111714D01*
X121575434Y-97079239D01*
X121543104Y-97050180D01*
X121515068Y-97024990D01*
X121491830Y-97004125D01*
X121473895Y-96988036D01*
X121461767Y-96977179D01*
X121455951Y-96972005D01*
X121455749Y-96971828D01*
X121443295Y-96961037D01*
X121730632Y-96713964D01*
X121776002Y-96674954D01*
X121820168Y-96636986D01*
X121862508Y-96600593D01*
X121902405Y-96566306D01*
X121939237Y-96534658D01*
X121972387Y-96506180D01*
X122001234Y-96481405D01*
X122025160Y-96460866D01*
X122043544Y-96445094D01*
X122055767Y-96434621D01*
X122058535Y-96432255D01*
X122099100Y-96397619D01*
X122099274Y-96320264D01*
X122099201Y-96294702D01*
X122098889Y-96272703D01*
X122098380Y-96255777D01*
X122097715Y-96245436D01*
X122097136Y-96242910D01*
X122093376Y-96245837D01*
X122083045Y-96254360D01*
X122066606Y-96268087D01*
X122044523Y-96286626D01*
X122017259Y-96309586D01*
X121985277Y-96336577D01*
X121949041Y-96367206D01*
X121909013Y-96401083D01*
X121865656Y-96437817D01*
X121819434Y-96477016D01*
X121770811Y-96518289D01*
X121725307Y-96556946D01*
X121674873Y-96599770D01*
X121626385Y-96640871D01*
X121580309Y-96679858D01*
X121537111Y-96716338D01*
X121497258Y-96749921D01*
X121461217Y-96780213D01*
X121429453Y-96806824D01*
X121402435Y-96829362D01*
X121380629Y-96847436D01*
X121364500Y-96860652D01*
X121354517Y-96868621D01*
X121351173Y-96870982D01*
X121347127Y-96868003D01*
X121336611Y-96859338D01*
X121320095Y-96845393D01*
X121298052Y-96826576D01*
X121270951Y-96803293D01*
X121239264Y-96775951D01*
X121203462Y-96744957D01*
X121164016Y-96710718D01*
X121121396Y-96673642D01*
X121076075Y-96634134D01*
X121028523Y-96592601D01*
X120996793Y-96564846D01*
X120948001Y-96522154D01*
X120901116Y-96481160D01*
X120856613Y-96442277D01*
X120814966Y-96405916D01*
X120776647Y-96372492D01*
X120742132Y-96342415D01*
X120711892Y-96316100D01*
X120686403Y-96293958D01*
X120666137Y-96276401D01*
X120651569Y-96263844D01*
X120643172Y-96256697D01*
X120641256Y-96255155D01*
X120639068Y-96255695D01*
X120637480Y-96261074D01*
X120636414Y-96272289D01*
X120635794Y-96290337D01*
X120635543Y-96316215D01*
X120635528Y-96329228D01*
X120635573Y-96406855D01*
G36*
X112158940Y-93477291D02*
G01*
X109777725Y-91096006D01*
X112952451Y-91096006D01*
X113746303Y-91889652D01*
X114540155Y-92683299D01*
X114540155Y-90297000D01*
X108190156Y-90297000D01*
X108190156Y-91085424D01*
X110571371Y-93466708D01*
X112952586Y-95847993D01*
X109777860Y-95847993D01*
X108984008Y-95054347D01*
X108190156Y-94260700D01*
X108190156Y-96646999D01*
X114540155Y-96646999D01*
X114540155Y-95858575D01*
X112158940Y-93477291D01*
G37*
X112158940Y-93477291D02*
X109777725Y-91096006D01*
X112952451Y-91096006D01*
X113746303Y-91889652D01*
X114540155Y-92683299D01*
X114540155Y-90297000D01*
X108190156Y-90297000D01*
X108190156Y-91085424D01*
X110571371Y-93466708D01*
X112952586Y-95847993D01*
X109777860Y-95847993D01*
X108984008Y-95054347D01*
X108190156Y-94260700D01*
X108190156Y-96646999D01*
X114540155Y-96646999D01*
X114540155Y-95858575D01*
X112158940Y-93477291D01*
%TD*%
M02*
