%TF.GenerationSoftware,KiCad,Pcbnew,(5.1.10)-1*%
%TF.CreationDate,2023-08-17T02:42:31-04:00*%
%TF.ProjectId,n65_daughterboard,6e36355f-6461-4756-9768-746572626f61,rev?*%
%TF.SameCoordinates,Original*%
%TF.FileFunction,Legend,Top*%
%TF.FilePolarity,Positive*%
%FSLAX46Y46*%
G04 Gerber Fmt 4.6, Leading zero omitted, Abs format (unit mm)*
G04 Created by KiCad (PCBNEW (5.1.10)-1) date 2023-08-17 02:42:31*
%MOMM*%
%LPD*%
G01*
G04 APERTURE LIST*
%ADD10C,0.120000*%
%ADD11C,0.150000*%
G04 APERTURE END LIST*
D10*
X142865156Y-91722000D02*
X142865156Y-92722000D01*
D11*
X142036584Y-92593428D02*
X142036584Y-92479142D01*
X142065156Y-92422000D01*
X142122298Y-92364857D01*
X142236584Y-92336285D01*
X142436584Y-92336285D01*
X142550870Y-92364857D01*
X142608013Y-92422000D01*
X142636584Y-92479142D01*
X142636584Y-92593428D01*
X142608013Y-92650571D01*
X142550870Y-92707714D01*
X142436584Y-92736285D01*
X142236584Y-92736285D01*
X142122298Y-92707714D01*
X142065156Y-92650571D01*
X142036584Y-92593428D01*
X142636584Y-92079142D02*
X142036584Y-92079142D01*
X142636584Y-91736285D01*
X142036584Y-91736285D01*
D10*
X151865156Y-92722000D02*
X151865156Y-94222000D01*
D11*
X152693727Y-92900571D02*
X152693727Y-93014857D01*
X152665156Y-93072000D01*
X152608013Y-93129142D01*
X152493727Y-93157714D01*
X152293727Y-93157714D01*
X152179441Y-93129142D01*
X152122298Y-93072000D01*
X152093727Y-93014857D01*
X152093727Y-92900571D01*
X152122298Y-92843428D01*
X152179441Y-92786285D01*
X152293727Y-92757714D01*
X152493727Y-92757714D01*
X152608013Y-92786285D01*
X152665156Y-92843428D01*
X152693727Y-92900571D01*
X152408013Y-93614857D02*
X152408013Y-93414857D01*
X152093727Y-93414857D02*
X152693727Y-93414857D01*
X152693727Y-93700571D01*
X152408013Y-94129142D02*
X152408013Y-93929142D01*
X152093727Y-93929142D02*
X152693727Y-93929142D01*
X152693727Y-94214857D01*
X149065156Y-96300571D02*
X149065156Y-95814857D01*
X149036584Y-95757714D01*
X149008013Y-95729142D01*
X148950870Y-95700571D01*
X148836584Y-95700571D01*
X148779441Y-95729142D01*
X148750870Y-95757714D01*
X148722298Y-95814857D01*
X148722298Y-96300571D01*
X148465156Y-95729142D02*
X148379441Y-95700571D01*
X148236584Y-95700571D01*
X148179441Y-95729142D01*
X148150870Y-95757714D01*
X148122298Y-95814857D01*
X148122298Y-95872000D01*
X148150870Y-95929142D01*
X148179441Y-95957714D01*
X148236584Y-95986285D01*
X148350870Y-96014857D01*
X148408013Y-96043428D01*
X148436584Y-96072000D01*
X148465156Y-96129142D01*
X148465156Y-96186285D01*
X148436584Y-96243428D01*
X148408013Y-96272000D01*
X148350870Y-96300571D01*
X148208013Y-96300571D01*
X148122298Y-96272000D01*
X147665156Y-96014857D02*
X147579441Y-95986285D01*
X147550870Y-95957714D01*
X147522298Y-95900571D01*
X147522298Y-95814857D01*
X147550870Y-95757714D01*
X147579441Y-95729142D01*
X147636584Y-95700571D01*
X147865156Y-95700571D01*
X147865156Y-96300571D01*
X147665156Y-96300571D01*
X147608013Y-96272000D01*
X147579441Y-96243428D01*
X147550870Y-96186285D01*
X147550870Y-96129142D01*
X147579441Y-96072000D01*
X147608013Y-96043428D01*
X147665156Y-96014857D01*
X147865156Y-96014857D01*
X147265156Y-95700571D02*
X147265156Y-96300571D01*
X147036584Y-96300571D01*
X146979441Y-96272000D01*
X146950870Y-96243428D01*
X146922298Y-96186285D01*
X146922298Y-96100571D01*
X146950870Y-96043428D01*
X146979441Y-96014857D01*
X147036584Y-95986285D01*
X147265156Y-95986285D01*
X146722298Y-96300571D02*
X146579441Y-95700571D01*
X146465156Y-96129142D01*
X146350870Y-95700571D01*
X146208013Y-96300571D01*
X145636584Y-95700571D02*
X145836584Y-95986285D01*
X145979441Y-95700571D02*
X145979441Y-96300571D01*
X145750870Y-96300571D01*
X145693727Y-96272000D01*
X145665156Y-96243428D01*
X145636584Y-96186285D01*
X145636584Y-96100571D01*
X145665156Y-96043428D01*
X145693727Y-96014857D01*
X145750870Y-95986285D01*
X145979441Y-95986285D01*
X146108013Y-91186285D02*
X146079441Y-91214857D01*
X145993727Y-91243428D01*
X145936584Y-91243428D01*
X145850870Y-91214857D01*
X145793727Y-91157714D01*
X145765156Y-91100571D01*
X145736584Y-90986285D01*
X145736584Y-90900571D01*
X145765156Y-90786285D01*
X145793727Y-90729142D01*
X145850870Y-90672000D01*
X145936584Y-90643428D01*
X145993727Y-90643428D01*
X146079441Y-90672000D01*
X146108013Y-90700571D01*
X146365156Y-91243428D02*
X146365156Y-90643428D01*
X146365156Y-90929142D02*
X146708013Y-90929142D01*
X146708013Y-91243428D02*
X146708013Y-90643428D01*
X146965156Y-91072000D02*
X147250870Y-91072000D01*
X146908013Y-91243428D02*
X147108013Y-90643428D01*
X147308013Y-91243428D01*
X147850870Y-91243428D02*
X147650870Y-90957714D01*
X147508013Y-91243428D02*
X147508013Y-90643428D01*
X147736584Y-90643428D01*
X147793727Y-90672000D01*
X147822298Y-90700571D01*
X147850870Y-90757714D01*
X147850870Y-90843428D01*
X147822298Y-90900571D01*
X147793727Y-90929142D01*
X147736584Y-90957714D01*
X147508013Y-90957714D01*
X148422298Y-90672000D02*
X148365156Y-90643428D01*
X148279441Y-90643428D01*
X148193727Y-90672000D01*
X148136584Y-90729142D01*
X148108013Y-90786285D01*
X148079441Y-90900571D01*
X148079441Y-90986285D01*
X148108013Y-91100571D01*
X148136584Y-91157714D01*
X148193727Y-91214857D01*
X148279441Y-91243428D01*
X148336584Y-91243428D01*
X148422298Y-91214857D01*
X148450870Y-91186285D01*
X148450870Y-90986285D01*
X148336584Y-90986285D01*
X148708013Y-90929142D02*
X148908013Y-90929142D01*
X148993727Y-91243428D02*
X148708013Y-91243428D01*
X148708013Y-90643428D01*
X148993727Y-90643428D01*
D10*
X160865156Y-96472000D02*
X159865156Y-96472000D01*
X159865156Y-90472000D02*
X160865156Y-90472000D01*
X160365156Y-90972000D02*
X160365156Y-89972000D01*
%TO.C,U2*%
X137215156Y-91422000D02*
X140345156Y-91422000D01*
X137885156Y-95022000D02*
X140345156Y-95022000D01*
%TO.C,SW1*%
X143809156Y-95222000D02*
X143115156Y-95222000D01*
X151615156Y-95222000D02*
X150921156Y-95222000D01*
X151615156Y-91722000D02*
X148381156Y-91722000D01*
X143115156Y-91722000D02*
X146349156Y-91722000D01*
X143115156Y-95222000D02*
X143115156Y-91722000D01*
X148889156Y-95222000D02*
X145841156Y-95222000D01*
X151615156Y-91722000D02*
X151615156Y-95222000D01*
%TO.C,J1*%
X122465156Y-91272000D02*
X132265156Y-91272000D01*
X132265156Y-91272000D02*
X132265156Y-95672000D01*
X122465156Y-91272000D02*
X122465156Y-95672000D01*
X122465156Y-95672000D02*
X132265156Y-95672000D01*
%TO.C,J5*%
X113165156Y-95272000D02*
X113165156Y-95472000D01*
X107535156Y-95312000D02*
X107535156Y-95812000D01*
X108035156Y-95012000D02*
X107535156Y-95312000D01*
X108035156Y-91932000D02*
X108035156Y-95012000D01*
X107535156Y-91632000D02*
X108035156Y-91932000D01*
X107535156Y-91132000D02*
X107535156Y-91632000D01*
X112255156Y-96882000D02*
X112255156Y-95832000D01*
X108925156Y-96882000D02*
X112255156Y-96882000D01*
X112255156Y-90062000D02*
X112255156Y-91112000D01*
X108925156Y-90062000D02*
X112255156Y-90062000D01*
X113365156Y-94072000D02*
X112965156Y-94072000D01*
X113165156Y-92672000D02*
X113165156Y-93072000D01*
X113165156Y-93872000D02*
X113165156Y-94272000D01*
X113365156Y-91472000D02*
X112965156Y-91672000D01*
X112965156Y-91672000D02*
X113365156Y-91872000D01*
X113165156Y-95472000D02*
G75*
G02*
X113365156Y-95272000I0J200000D01*
G01*
%TO.C,C2*%
X135472992Y-90362000D02*
X135257320Y-90362000D01*
X135472992Y-91082000D02*
X135257320Y-91082000D01*
%TO.C,C3*%
X137255156Y-96329836D02*
X137255156Y-96114164D01*
X137975156Y-96329836D02*
X137975156Y-96114164D01*
%TO.C,D2*%
X145880156Y-90207000D02*
X147365156Y-90207000D01*
X145880156Y-88737000D02*
X145880156Y-90207000D01*
X147365156Y-88737000D02*
X145880156Y-88737000D01*
%TO.C,D3*%
X147365156Y-98207000D02*
X148850156Y-98207000D01*
X148850156Y-98207000D02*
X148850156Y-96737000D01*
X148850156Y-96737000D02*
X147365156Y-96737000D01*
%TO.C,F1*%
X150763092Y-98132000D02*
X151967220Y-98132000D01*
X150763092Y-96312000D02*
X151967220Y-96312000D01*
%TO.C,J2*%
X165805156Y-97532000D02*
X161555156Y-97532000D01*
X161555156Y-97532000D02*
X161555156Y-96512000D01*
X161555156Y-96512000D02*
X163155156Y-96512000D01*
X163155156Y-96512000D02*
X163155156Y-95232000D01*
X165805156Y-89412000D02*
X161555156Y-89412000D01*
X161555156Y-89412000D02*
X161555156Y-90432000D01*
X161555156Y-90432000D02*
X163155156Y-90432000D01*
X163155156Y-90432000D02*
X163155156Y-91712000D01*
X169375156Y-95812000D02*
X169375156Y-91132000D01*
%TO.C,R1*%
X121602414Y-97244500D02*
X121127898Y-97244500D01*
X121602414Y-96199500D02*
X121127898Y-96199500D01*
%TO.C,R2*%
X121602414Y-89699500D02*
X121127898Y-89699500D01*
X121602414Y-90744500D02*
X121127898Y-90744500D01*
%TO.C,R3*%
X142887656Y-94709258D02*
X142887656Y-94234742D01*
X141842656Y-94709258D02*
X141842656Y-94234742D01*
%TO.C,R4*%
X136102414Y-89994500D02*
X135627898Y-89994500D01*
X136102414Y-88949500D02*
X135627898Y-88949500D01*
%TO.C,R5*%
X135352414Y-97494500D02*
X134877898Y-97494500D01*
X135352414Y-96449500D02*
X134877898Y-96449500D01*
%TO.C,R6*%
X138627898Y-90994500D02*
X139102414Y-90994500D01*
X138627898Y-89949500D02*
X139102414Y-89949500D01*
%TO.C,R7*%
X131627898Y-97244500D02*
X132102414Y-97244500D01*
X131627898Y-96199500D02*
X132102414Y-96199500D01*
%TO.C,R8*%
X150377898Y-89994500D02*
X150852414Y-89994500D01*
X150377898Y-88949500D02*
X150852414Y-88949500D01*
%TO.C,R9*%
X144352414Y-96949500D02*
X143877898Y-96949500D01*
X144352414Y-97994500D02*
X143877898Y-97994500D01*
%TO.C,U1*%
X140820156Y-90822000D02*
X142370156Y-90822000D01*
X140670156Y-89122000D02*
X142370156Y-89122000D01*
%TO.C,U3*%
X133255156Y-94607000D02*
X133255156Y-95082000D01*
X136475156Y-91862000D02*
X136000156Y-91862000D01*
X136475156Y-92337000D02*
X136475156Y-91862000D01*
X136475156Y-95082000D02*
X136000156Y-95082000D01*
X136475156Y-94607000D02*
X136475156Y-95082000D01*
X133255156Y-91862000D02*
X133730156Y-91862000D01*
X133255156Y-92337000D02*
X133255156Y-91862000D01*
%TO.C,U4*%
X120865156Y-92072000D02*
X121865156Y-92072000D01*
X120865156Y-94872000D02*
X122165156Y-94872000D01*
%TD*%
M02*
