%TF.GenerationSoftware,KiCad,Pcbnew,(5.1.10)-1*%
%TF.CreationDate,2023-08-17T02:42:31-04:00*%
%TF.ProjectId,n65_daughterboard,6e36355f-6461-4756-9768-746572626f61,rev?*%
%TF.SameCoordinates,Original*%
%TF.FileFunction,Copper,L2,Bot*%
%TF.FilePolarity,Positive*%
%FSLAX46Y46*%
G04 Gerber Fmt 4.6, Leading zero omitted, Abs format (unit mm)*
G04 Created by KiCad (PCBNEW (5.1.10)-1) date 2023-08-17 02:42:31*
%MOMM*%
%LPD*%
G01*
G04 APERTURE LIST*
%TA.AperFunction,ComponentPad*%
%ADD10O,1.600000X1.100000*%
%TD*%
%TA.AperFunction,ComponentPad*%
%ADD11C,5.000000*%
%TD*%
%TA.AperFunction,ComponentPad*%
%ADD12C,0.500000*%
%TD*%
%TA.AperFunction,SMDPad,CuDef*%
%ADD13R,1.680000X1.680000*%
%TD*%
%TA.AperFunction,ViaPad*%
%ADD14C,0.800000*%
%TD*%
%TA.AperFunction,ViaPad*%
%ADD15C,0.500000*%
%TD*%
%TA.AperFunction,ViaPad*%
%ADD16C,1.000000*%
%TD*%
%TA.AperFunction,ViaPad*%
%ADD17C,0.600000*%
%TD*%
%TA.AperFunction,Conductor*%
%ADD18C,0.300000*%
%TD*%
%TA.AperFunction,Conductor*%
%ADD19C,0.500000*%
%TD*%
%TA.AperFunction,Conductor*%
%ADD20C,5.500000*%
%TD*%
%TA.AperFunction,Conductor*%
%ADD21C,1.500000*%
%TD*%
%TA.AperFunction,Conductor*%
%ADD22C,1.000000*%
%TD*%
%TA.AperFunction,Conductor*%
%ADD23C,2.000000*%
%TD*%
%TA.AperFunction,Conductor*%
%ADD24C,0.254000*%
%TD*%
%TA.AperFunction,Conductor*%
%ADD25C,0.100000*%
%TD*%
G04 APERTURE END LIST*
D10*
%TO.P,J1,S1*%
%TO.N,GND*%
X131365156Y-94902000D03*
X123365156Y-94902000D03*
X131365156Y-92042000D03*
%TO.P,J1,*%
%TO.N,*%
%TA.AperFunction,WasherPad*%
G36*
G01*
X122815156Y-93472000D02*
X122815156Y-93472000D01*
G75*
G02*
X123170156Y-93117000I355000J0D01*
G01*
X123560156Y-93117000D01*
G75*
G02*
X123915156Y-93472000I0J-355000D01*
G01*
X123915156Y-93472000D01*
G75*
G02*
X123560156Y-93827000I-355000J0D01*
G01*
X123170156Y-93827000D01*
G75*
G02*
X122815156Y-93472000I0J355000D01*
G01*
G37*
%TD.AperFunction*%
%TO.P,J1,S1*%
%TO.N,GND*%
X123365156Y-92042000D03*
%TO.P,J1,*%
%TO.N,*%
%TA.AperFunction,WasherPad*%
G36*
G01*
X130815156Y-93472000D02*
X130815156Y-93472000D01*
G75*
G02*
X131170156Y-93117000I355000J0D01*
G01*
X131560156Y-93117000D01*
G75*
G02*
X131915156Y-93472000I0J-355000D01*
G01*
X131915156Y-93472000D01*
G75*
G02*
X131560156Y-93827000I-355000J0D01*
G01*
X131170156Y-93827000D01*
G75*
G02*
X130815156Y-93472000I0J355000D01*
G01*
G37*
%TD.AperFunction*%
%TD*%
D11*
%TO.P,H1,1*%
%TO.N,GND*%
X117365156Y-93472000D03*
%TD*%
%TO.P,H1,1*%
%TO.N,GND*%
X157365156Y-93472000D03*
%TD*%
D12*
%TO.P,U3,17*%
%TO.N,GND*%
X134275156Y-94062000D03*
X134275156Y-92882000D03*
X135455156Y-94062000D03*
X135455156Y-92882000D03*
D13*
X134865156Y-93472000D03*
%TD*%
D14*
%TO.N,Net-(C1-Pad1)*%
X143115156Y-89972000D03*
X142365156Y-92472000D03*
D15*
%TO.N,BMSOUT*%
X136865156Y-94972000D03*
D16*
X152615156Y-89472000D03*
X133865156Y-89722000D03*
X142115156Y-96472000D03*
%TO.N,GND*%
X109865156Y-95972000D03*
X109865156Y-90972000D03*
D17*
X135115156Y-96422000D03*
D15*
X139815156Y-92722000D03*
X139815156Y-92122000D03*
X139215156Y-92122000D03*
X139215156Y-92722000D03*
D17*
X138955156Y-90462000D03*
X135665156Y-90072000D03*
X127615156Y-90072000D03*
X131915156Y-90072000D03*
D14*
X121365156Y-91222000D03*
D16*
X128115156Y-93472000D03*
X138915156Y-97122000D03*
D14*
X129015156Y-97022000D03*
X129915156Y-97022000D03*
X122915156Y-97722000D03*
X151115156Y-94972000D03*
X144865156Y-93472000D03*
%TO.N,VIN*%
X129365156Y-94972000D03*
X129365156Y-91972000D03*
X125380156Y-91987000D03*
X125380156Y-94957000D03*
%TO.N,Net-(D2-Pad1)*%
X145465156Y-89472000D03*
X136365156Y-91772000D03*
%TO.N,Net-(D3-Pad1)*%
X147365156Y-96572000D03*
D15*
X138115156Y-94972000D03*
D14*
%TO.N,Net-(J1-PadA5)*%
X126365156Y-90722000D03*
X123115156Y-90222000D03*
D15*
%TO.N,D-*%
X114365156Y-91472000D03*
X112865156Y-92972000D03*
X114115156Y-92972000D03*
D14*
%TO.N,Net-(R6-Pad1)*%
X134000000Y-91000000D03*
X137865156Y-91472000D03*
%TO.N,Net-(SW1-Pad2)*%
X141115156Y-96972000D03*
X141115156Y-96972000D03*
X147365156Y-92972000D03*
%TD*%
D18*
%TO.N,Net-(C1-Pad1)*%
X142365156Y-92472000D02*
X142365156Y-92722000D01*
X143115156Y-91722000D02*
X143115156Y-91222000D01*
X142365156Y-92472000D02*
X143115156Y-91722000D01*
X143115156Y-89972000D02*
X143115156Y-91222000D01*
D19*
%TO.N,BMSOUT*%
X139865156Y-94222000D02*
X142115156Y-96472000D01*
X137615156Y-94222000D02*
X139865156Y-94222000D01*
X136865156Y-94972000D02*
X137615156Y-94222000D01*
X152615156Y-89472000D02*
X151865155Y-90222001D01*
X142115156Y-96472000D02*
X144865156Y-96472000D01*
X144865156Y-96472000D02*
X146115156Y-95222000D01*
X146115156Y-91972000D02*
X147865155Y-90222001D01*
X146115156Y-95222000D02*
X146115156Y-91972000D01*
X151865155Y-90222001D02*
X147865155Y-90222001D01*
X135615156Y-97922000D02*
X136865156Y-96672000D01*
X128115156Y-97522000D02*
X128515156Y-97922000D01*
X128115156Y-96522000D02*
X128115156Y-97522000D01*
X136865156Y-96672000D02*
X136865156Y-94972000D01*
X128515156Y-97922000D02*
X135615156Y-97922000D01*
X128515156Y-96122000D02*
X128115156Y-96522000D01*
X132115156Y-96122000D02*
X128515156Y-96122000D01*
X133115156Y-95122000D02*
X132115156Y-96122000D01*
X133115156Y-90472000D02*
X133115156Y-95122000D01*
X133865156Y-89722000D02*
X133115156Y-90472000D01*
D20*
%TO.N,GND*%
X154815156Y-93722000D02*
X155015156Y-93722000D01*
X159315156Y-94222000D02*
X159515156Y-94222000D01*
X157065156Y-95222000D02*
X157265156Y-95222000D01*
X157315156Y-92222000D02*
X157515156Y-92222000D01*
D18*
X136345156Y-92542000D02*
X135345156Y-92542000D01*
D21*
X135525156Y-95662000D02*
X135525156Y-93402000D01*
X135035156Y-95712000D02*
X135035156Y-93452000D01*
X134335156Y-95682000D02*
X134335156Y-93422000D01*
D19*
X115115156Y-93072000D02*
X114365156Y-93822000D01*
D18*
X114965156Y-92572000D02*
X114965156Y-93822000D01*
D20*
X116315156Y-95472000D02*
X116515156Y-95472000D01*
X118165156Y-93972000D02*
X118365156Y-93972000D01*
X117565156Y-92572000D02*
X117765156Y-92572000D01*
D19*
X123365156Y-92042000D02*
X123935156Y-92042000D01*
D22*
X123935156Y-92042000D02*
X125365156Y-93472000D01*
X123935156Y-94902000D02*
X125365156Y-93472000D01*
D19*
X123365156Y-94902000D02*
X123935156Y-94902000D01*
X131365156Y-92042000D02*
X131045156Y-92042000D01*
X131045156Y-92042000D02*
X129615156Y-93472000D01*
X129615156Y-93472000D02*
X127865156Y-93472000D01*
X127865156Y-93472000D02*
X128115156Y-93472000D01*
X125365156Y-93472000D02*
X127865156Y-93472000D01*
X131045156Y-94902000D02*
X129615156Y-93472000D01*
X131365156Y-94902000D02*
X131045156Y-94902000D01*
D23*
X136165156Y-93472000D02*
X134615156Y-93472000D01*
X134615156Y-93472000D02*
X135115156Y-93472000D01*
X134865156Y-93222000D02*
X134615156Y-93472000D01*
X134865156Y-93472000D02*
X134865156Y-93222000D01*
D19*
X128115156Y-93472000D02*
X128115156Y-93472000D01*
X131365156Y-92042000D02*
X131365156Y-92072000D01*
X131365156Y-92072000D02*
X130265156Y-93172000D01*
X130265156Y-93802000D02*
X131365156Y-94902000D01*
X130265156Y-93172000D02*
X130265156Y-93802000D01*
X131365156Y-92042000D02*
X131535156Y-92042000D01*
X131535156Y-92042000D02*
X132465156Y-92972000D01*
X132465156Y-93822000D02*
X131365156Y-94922000D01*
X132465156Y-92972000D02*
X132465156Y-93822000D01*
D21*
X131365156Y-92042000D02*
X131365156Y-90472000D01*
X123365156Y-92042000D02*
X121895156Y-92042000D01*
D19*
X121895156Y-92042000D02*
X121215156Y-92722000D01*
X121215156Y-92722000D02*
X121215156Y-94372000D01*
D21*
X121745156Y-94902000D02*
X123365156Y-94902000D01*
D19*
X121215156Y-94372000D02*
X121745156Y-94902000D01*
X136165156Y-93472000D02*
X137965156Y-93472000D01*
X138365156Y-93072000D02*
X138665156Y-93072000D01*
X138665156Y-93072000D02*
X139515156Y-92222000D01*
X138365156Y-93072000D02*
X139515156Y-91922000D01*
X137965156Y-93472000D02*
X138365156Y-93072000D01*
%TO.N,VIN*%
X129350156Y-91987000D02*
X129365156Y-91972000D01*
X125380156Y-91987000D02*
X129350156Y-91987000D01*
X129350156Y-94957000D02*
X129365156Y-94972000D01*
X125380156Y-94957000D02*
X129350156Y-94957000D01*
D18*
%TO.N,Net-(D2-Pad1)*%
X138065156Y-92472000D02*
X137065156Y-92472000D01*
X139315156Y-91222000D02*
X138065156Y-92472000D01*
X140415156Y-91222000D02*
X139315156Y-91222000D01*
X142365156Y-89272000D02*
X140415156Y-91222000D01*
X145265156Y-89272000D02*
X142365156Y-89272000D01*
X137065156Y-92472000D02*
X136365156Y-91772000D01*
X145465156Y-89472000D02*
X145265156Y-89272000D01*
%TO.N,Net-(D3-Pad1)*%
X140490156Y-97347000D02*
X138115156Y-94972000D01*
X140865156Y-97722000D02*
X140490156Y-97347000D01*
X146015156Y-97722000D02*
X140865156Y-97722000D01*
X147365156Y-96572000D02*
X146215156Y-97722000D01*
X146215156Y-97722000D02*
X146015156Y-97722000D01*
%TO.N,Net-(J1-PadA5)*%
X126365156Y-90722000D02*
X126615156Y-90722000D01*
X125865156Y-90222000D02*
X126365156Y-90722000D01*
X123115156Y-90222000D02*
X125865156Y-90222000D01*
%TO.N,D-*%
X112865156Y-92972000D02*
X112865156Y-92972000D01*
X114115156Y-92972000D02*
X114365156Y-92722000D01*
X114365156Y-92722000D02*
X114365156Y-91472000D01*
X112865156Y-92972000D02*
X114115156Y-92972000D01*
%TO.N,Net-(R6-Pad1)*%
X134000000Y-91000000D02*
X137093157Y-91000001D01*
X137393157Y-91000001D02*
X137093157Y-91000001D01*
X137865156Y-91472000D02*
X137393157Y-91000001D01*
%TO.N,Net-(SW1-Pad2)*%
X147365156Y-92972000D02*
X147365156Y-94972000D01*
X147365156Y-94972000D02*
X145065156Y-97272000D01*
X145065156Y-97272000D02*
X141415156Y-97272000D01*
X141415156Y-97272000D02*
X141115156Y-96972000D01*
%TD*%
D24*
%TO.N,GND*%
X137541098Y-95146139D02*
X137586101Y-95254786D01*
X137651436Y-95352566D01*
X137734590Y-95435720D01*
X137832370Y-95501055D01*
X137941017Y-95546058D01*
X137997606Y-95557314D01*
X140121465Y-97681173D01*
X140496468Y-98056177D01*
X140512024Y-98075132D01*
X140530978Y-98090687D01*
X140530982Y-98090691D01*
X140542325Y-98100000D01*
X136281440Y-98100000D01*
X137266561Y-97114880D01*
X137289341Y-97096185D01*
X137363945Y-97005280D01*
X137419380Y-96901567D01*
X137453517Y-96789032D01*
X137462156Y-96701321D01*
X137462156Y-96701320D01*
X137465044Y-96672000D01*
X137462156Y-96642679D01*
X137462156Y-95219284D01*
X137540136Y-95141304D01*
X137541098Y-95146139D01*
%TA.AperFunction,Conductor*%
D25*
G36*
X137541098Y-95146139D02*
G01*
X137586101Y-95254786D01*
X137651436Y-95352566D01*
X137734590Y-95435720D01*
X137832370Y-95501055D01*
X137941017Y-95546058D01*
X137997606Y-95557314D01*
X140121465Y-97681173D01*
X140496468Y-98056177D01*
X140512024Y-98075132D01*
X140530978Y-98090687D01*
X140530982Y-98090691D01*
X140542325Y-98100000D01*
X136281440Y-98100000D01*
X137266561Y-97114880D01*
X137289341Y-97096185D01*
X137363945Y-97005280D01*
X137419380Y-96901567D01*
X137453517Y-96789032D01*
X137462156Y-96701321D01*
X137462156Y-96701320D01*
X137465044Y-96672000D01*
X137462156Y-96642679D01*
X137462156Y-95219284D01*
X137540136Y-95141304D01*
X137541098Y-95146139D01*
G37*
%TD.AperFunction*%
D24*
X168986790Y-88857711D02*
X169103787Y-88893034D01*
X169211701Y-88950413D01*
X169306410Y-89027656D01*
X169384312Y-89121823D01*
X169442441Y-89229330D01*
X169478582Y-89346084D01*
X169493156Y-89484743D01*
X169493157Y-97453792D01*
X169479445Y-97593633D01*
X169444121Y-97710632D01*
X169386743Y-97818545D01*
X169309501Y-97913253D01*
X169215333Y-97991157D01*
X169107825Y-98049285D01*
X168991072Y-98085426D01*
X168852412Y-98100000D01*
X146537986Y-98100000D01*
X146568288Y-98075132D01*
X146583848Y-98056172D01*
X147321020Y-97319000D01*
X147438729Y-97319000D01*
X147583048Y-97290293D01*
X147718993Y-97233982D01*
X147841340Y-97152232D01*
X147945388Y-97048184D01*
X148027138Y-96925837D01*
X148083449Y-96789892D01*
X148112156Y-96645573D01*
X148112156Y-96498427D01*
X148083449Y-96354108D01*
X148027138Y-96218163D01*
X147945388Y-96095816D01*
X147841340Y-95991768D01*
X147718993Y-95910018D01*
X147583048Y-95853707D01*
X147438729Y-95825000D01*
X147291583Y-95825000D01*
X147196009Y-95844011D01*
X147364872Y-95675148D01*
X155341613Y-95675148D01*
X155617783Y-96093118D01*
X156162713Y-96383649D01*
X156753852Y-96562287D01*
X157368484Y-96622168D01*
X157982987Y-96560990D01*
X158573748Y-96381103D01*
X159112529Y-96093118D01*
X159388699Y-95675148D01*
X157365156Y-93651605D01*
X155341613Y-95675148D01*
X147364872Y-95675148D01*
X147699328Y-95340692D01*
X147718288Y-95325132D01*
X147780395Y-95249454D01*
X147826545Y-95163114D01*
X147854964Y-95069429D01*
X147862156Y-94996408D01*
X147862156Y-94996399D01*
X147864559Y-94972001D01*
X147862156Y-94947603D01*
X147862156Y-93531416D01*
X147918244Y-93475328D01*
X154214988Y-93475328D01*
X154276166Y-94089831D01*
X154456053Y-94680592D01*
X154744038Y-95219373D01*
X155162008Y-95495543D01*
X157185551Y-93472000D01*
X157544761Y-93472000D01*
X159568304Y-95495543D01*
X159986274Y-95219373D01*
X160276805Y-94674443D01*
X160455443Y-94083304D01*
X160515324Y-93468672D01*
X160454146Y-92854169D01*
X160274259Y-92263408D01*
X159986274Y-91724627D01*
X159568304Y-91448457D01*
X157544761Y-93472000D01*
X157185551Y-93472000D01*
X155162008Y-91448457D01*
X154744038Y-91724627D01*
X154453507Y-92269557D01*
X154274869Y-92860696D01*
X154214988Y-93475328D01*
X147918244Y-93475328D01*
X147945388Y-93448184D01*
X148027138Y-93325837D01*
X148083449Y-93189892D01*
X148112156Y-93045573D01*
X148112156Y-92898427D01*
X148083449Y-92754108D01*
X148027138Y-92618163D01*
X147945388Y-92495816D01*
X147841340Y-92391768D01*
X147718993Y-92310018D01*
X147583048Y-92253707D01*
X147438729Y-92225000D01*
X147291583Y-92225000D01*
X147147264Y-92253707D01*
X147011319Y-92310018D01*
X146888972Y-92391768D01*
X146784924Y-92495816D01*
X146712156Y-92604721D01*
X146712156Y-92219284D01*
X147662588Y-91268852D01*
X155341613Y-91268852D01*
X157365156Y-93292395D01*
X159388699Y-91268852D01*
X159112529Y-90850882D01*
X158567599Y-90560351D01*
X157976460Y-90381713D01*
X157361828Y-90321832D01*
X156747325Y-90383010D01*
X156156564Y-90562897D01*
X155617783Y-90850882D01*
X155341613Y-91268852D01*
X147662588Y-91268852D01*
X148112440Y-90819001D01*
X151835834Y-90819001D01*
X151865155Y-90821889D01*
X151894476Y-90819001D01*
X151982187Y-90810362D01*
X152094722Y-90776225D01*
X152198435Y-90720790D01*
X152289340Y-90646186D01*
X152308040Y-90623400D01*
X152612441Y-90319000D01*
X152698578Y-90319000D01*
X152862217Y-90286450D01*
X153016361Y-90222601D01*
X153155087Y-90129908D01*
X153273064Y-90011931D01*
X153365757Y-89873205D01*
X153429606Y-89719061D01*
X153462156Y-89555422D01*
X153462156Y-89388578D01*
X153429606Y-89224939D01*
X153365757Y-89070795D01*
X153273064Y-88932069D01*
X153184995Y-88844000D01*
X168846958Y-88844000D01*
X168986790Y-88857711D01*
%TA.AperFunction,Conductor*%
D25*
G36*
X168986790Y-88857711D02*
G01*
X169103787Y-88893034D01*
X169211701Y-88950413D01*
X169306410Y-89027656D01*
X169384312Y-89121823D01*
X169442441Y-89229330D01*
X169478582Y-89346084D01*
X169493156Y-89484743D01*
X169493157Y-97453792D01*
X169479445Y-97593633D01*
X169444121Y-97710632D01*
X169386743Y-97818545D01*
X169309501Y-97913253D01*
X169215333Y-97991157D01*
X169107825Y-98049285D01*
X168991072Y-98085426D01*
X168852412Y-98100000D01*
X146537986Y-98100000D01*
X146568288Y-98075132D01*
X146583848Y-98056172D01*
X147321020Y-97319000D01*
X147438729Y-97319000D01*
X147583048Y-97290293D01*
X147718993Y-97233982D01*
X147841340Y-97152232D01*
X147945388Y-97048184D01*
X148027138Y-96925837D01*
X148083449Y-96789892D01*
X148112156Y-96645573D01*
X148112156Y-96498427D01*
X148083449Y-96354108D01*
X148027138Y-96218163D01*
X147945388Y-96095816D01*
X147841340Y-95991768D01*
X147718993Y-95910018D01*
X147583048Y-95853707D01*
X147438729Y-95825000D01*
X147291583Y-95825000D01*
X147196009Y-95844011D01*
X147364872Y-95675148D01*
X155341613Y-95675148D01*
X155617783Y-96093118D01*
X156162713Y-96383649D01*
X156753852Y-96562287D01*
X157368484Y-96622168D01*
X157982987Y-96560990D01*
X158573748Y-96381103D01*
X159112529Y-96093118D01*
X159388699Y-95675148D01*
X157365156Y-93651605D01*
X155341613Y-95675148D01*
X147364872Y-95675148D01*
X147699328Y-95340692D01*
X147718288Y-95325132D01*
X147780395Y-95249454D01*
X147826545Y-95163114D01*
X147854964Y-95069429D01*
X147862156Y-94996408D01*
X147862156Y-94996399D01*
X147864559Y-94972001D01*
X147862156Y-94947603D01*
X147862156Y-93531416D01*
X147918244Y-93475328D01*
X154214988Y-93475328D01*
X154276166Y-94089831D01*
X154456053Y-94680592D01*
X154744038Y-95219373D01*
X155162008Y-95495543D01*
X157185551Y-93472000D01*
X157544761Y-93472000D01*
X159568304Y-95495543D01*
X159986274Y-95219373D01*
X160276805Y-94674443D01*
X160455443Y-94083304D01*
X160515324Y-93468672D01*
X160454146Y-92854169D01*
X160274259Y-92263408D01*
X159986274Y-91724627D01*
X159568304Y-91448457D01*
X157544761Y-93472000D01*
X157185551Y-93472000D01*
X155162008Y-91448457D01*
X154744038Y-91724627D01*
X154453507Y-92269557D01*
X154274869Y-92860696D01*
X154214988Y-93475328D01*
X147918244Y-93475328D01*
X147945388Y-93448184D01*
X148027138Y-93325837D01*
X148083449Y-93189892D01*
X148112156Y-93045573D01*
X148112156Y-92898427D01*
X148083449Y-92754108D01*
X148027138Y-92618163D01*
X147945388Y-92495816D01*
X147841340Y-92391768D01*
X147718993Y-92310018D01*
X147583048Y-92253707D01*
X147438729Y-92225000D01*
X147291583Y-92225000D01*
X147147264Y-92253707D01*
X147011319Y-92310018D01*
X146888972Y-92391768D01*
X146784924Y-92495816D01*
X146712156Y-92604721D01*
X146712156Y-92219284D01*
X147662588Y-91268852D01*
X155341613Y-91268852D01*
X157365156Y-93292395D01*
X159388699Y-91268852D01*
X159112529Y-90850882D01*
X158567599Y-90560351D01*
X157976460Y-90381713D01*
X157361828Y-90321832D01*
X156747325Y-90383010D01*
X156156564Y-90562897D01*
X155617783Y-90850882D01*
X155341613Y-91268852D01*
X147662588Y-91268852D01*
X148112440Y-90819001D01*
X151835834Y-90819001D01*
X151865155Y-90821889D01*
X151894476Y-90819001D01*
X151982187Y-90810362D01*
X152094722Y-90776225D01*
X152198435Y-90720790D01*
X152289340Y-90646186D01*
X152308040Y-90623400D01*
X152612441Y-90319000D01*
X152698578Y-90319000D01*
X152862217Y-90286450D01*
X153016361Y-90222601D01*
X153155087Y-90129908D01*
X153273064Y-90011931D01*
X153365757Y-89873205D01*
X153429606Y-89719061D01*
X153462156Y-89555422D01*
X153462156Y-89388578D01*
X153429606Y-89224939D01*
X153365757Y-89070795D01*
X153273064Y-88932069D01*
X153184995Y-88844000D01*
X168846958Y-88844000D01*
X168986790Y-88857711D01*
G37*
%TD.AperFunction*%
D24*
X142087702Y-88856761D02*
X142012024Y-88918868D01*
X141996464Y-88937828D01*
X140209292Y-90725000D01*
X139339561Y-90725000D01*
X139315156Y-90722596D01*
X139290751Y-90725000D01*
X139290748Y-90725000D01*
X139217727Y-90732192D01*
X139124042Y-90760611D01*
X139037702Y-90806761D01*
X138962024Y-90868868D01*
X138946465Y-90887827D01*
X138582493Y-91251799D01*
X138527138Y-91118163D01*
X138445388Y-90995816D01*
X138341340Y-90891768D01*
X138218993Y-90810018D01*
X138083048Y-90753707D01*
X137938729Y-90725000D01*
X137821020Y-90725000D01*
X137761849Y-90665829D01*
X137746289Y-90646869D01*
X137670611Y-90584762D01*
X137584271Y-90538612D01*
X137490586Y-90510193D01*
X137417565Y-90503001D01*
X137417562Y-90503001D01*
X137393157Y-90500597D01*
X137368752Y-90503001D01*
X137068749Y-90503001D01*
X137068739Y-90503002D01*
X134559416Y-90503000D01*
X134476184Y-90419768D01*
X134409670Y-90375325D01*
X134523064Y-90261931D01*
X134615757Y-90123205D01*
X134679606Y-89969061D01*
X134712156Y-89805422D01*
X134712156Y-89638578D01*
X134679606Y-89474939D01*
X134615757Y-89320795D01*
X134523064Y-89182069D01*
X134405087Y-89064092D01*
X134266361Y-88971399D01*
X134112217Y-88907550D01*
X133948578Y-88875000D01*
X133781734Y-88875000D01*
X133618095Y-88907550D01*
X133463951Y-88971399D01*
X133325225Y-89064092D01*
X133207248Y-89182069D01*
X133114555Y-89320795D01*
X133050706Y-89474939D01*
X133018156Y-89638578D01*
X133018156Y-89724716D01*
X132713757Y-90029115D01*
X132690971Y-90047815D01*
X132616367Y-90138721D01*
X132560932Y-90242434D01*
X132555018Y-90261931D01*
X132526795Y-90354968D01*
X132515268Y-90472000D01*
X132518156Y-90501322D01*
X132518156Y-91257506D01*
X132506856Y-91242105D01*
X132333671Y-91083513D01*
X132132873Y-90961755D01*
X131912180Y-90881510D01*
X131680072Y-90845862D01*
X131492156Y-91009183D01*
X131492156Y-91915000D01*
X131512156Y-91915000D01*
X131512156Y-92169000D01*
X131492156Y-92169000D01*
X131492156Y-92189000D01*
X131238156Y-92189000D01*
X131238156Y-92169000D01*
X131218156Y-92169000D01*
X131218156Y-91915000D01*
X131238156Y-91915000D01*
X131238156Y-91009183D01*
X131050240Y-90845862D01*
X130818132Y-90881510D01*
X130597439Y-90961755D01*
X130396641Y-91083513D01*
X130223456Y-91242105D01*
X130084538Y-91431437D01*
X130009625Y-91591953D01*
X129945388Y-91495816D01*
X129841340Y-91391768D01*
X129718993Y-91310018D01*
X129583048Y-91253707D01*
X129438729Y-91225000D01*
X129291583Y-91225000D01*
X129147264Y-91253707D01*
X129011319Y-91310018D01*
X128891618Y-91390000D01*
X126704464Y-91390000D01*
X126718993Y-91383982D01*
X126841340Y-91302232D01*
X126945388Y-91198184D01*
X127027138Y-91075837D01*
X127083449Y-90939892D01*
X127112156Y-90795573D01*
X127112156Y-90746408D01*
X127114560Y-90722000D01*
X127112156Y-90697592D01*
X127112156Y-90648427D01*
X127083449Y-90504108D01*
X127027138Y-90368163D01*
X126945388Y-90245816D01*
X126841340Y-90141768D01*
X126718993Y-90060018D01*
X126583048Y-90003707D01*
X126438729Y-89975000D01*
X126321020Y-89975000D01*
X126233848Y-89887828D01*
X126218288Y-89868868D01*
X126142610Y-89806761D01*
X126056270Y-89760611D01*
X125962585Y-89732192D01*
X125889564Y-89725000D01*
X125889561Y-89725000D01*
X125865156Y-89722596D01*
X125840751Y-89725000D01*
X123674572Y-89725000D01*
X123591340Y-89641768D01*
X123468993Y-89560018D01*
X123333048Y-89503707D01*
X123188729Y-89475000D01*
X123041583Y-89475000D01*
X122897264Y-89503707D01*
X122761319Y-89560018D01*
X122638972Y-89641768D01*
X122534924Y-89745816D01*
X122453174Y-89868163D01*
X122396863Y-90004108D01*
X122368156Y-90148427D01*
X122368156Y-90295573D01*
X122396863Y-90439892D01*
X122453174Y-90575837D01*
X122534924Y-90698184D01*
X122638972Y-90802232D01*
X122761319Y-90883982D01*
X122784699Y-90893666D01*
X122597439Y-90961755D01*
X122396641Y-91083513D01*
X122223456Y-91242105D01*
X122084538Y-91431437D01*
X121985226Y-91644232D01*
X121971353Y-91732256D01*
X122096795Y-91915000D01*
X123238156Y-91915000D01*
X123238156Y-91895000D01*
X123492156Y-91895000D01*
X123492156Y-91915000D01*
X123512156Y-91915000D01*
X123512156Y-92169000D01*
X123492156Y-92169000D01*
X123492156Y-92189000D01*
X123238156Y-92189000D01*
X123238156Y-92169000D01*
X122096795Y-92169000D01*
X121971353Y-92351744D01*
X121985226Y-92439768D01*
X122084538Y-92652563D01*
X122223456Y-92841895D01*
X122396641Y-93000487D01*
X122571470Y-93106498D01*
X122520042Y-93202713D01*
X122479999Y-93334718D01*
X122466478Y-93471999D01*
X122466478Y-93472001D01*
X122479999Y-93609282D01*
X122520042Y-93741287D01*
X122571470Y-93837502D01*
X122396641Y-93943513D01*
X122223456Y-94102105D01*
X122084538Y-94291437D01*
X121985226Y-94504232D01*
X121971353Y-94592256D01*
X122096795Y-94775000D01*
X123238156Y-94775000D01*
X123238156Y-94755000D01*
X123492156Y-94755000D01*
X123492156Y-94775000D01*
X123512156Y-94775000D01*
X123512156Y-95029000D01*
X123492156Y-95029000D01*
X123492156Y-95934817D01*
X123680072Y-96098138D01*
X123912180Y-96062490D01*
X124132873Y-95982245D01*
X124333671Y-95860487D01*
X124506856Y-95701895D01*
X124645774Y-95512563D01*
X124730977Y-95329998D01*
X124799924Y-95433184D01*
X124903972Y-95537232D01*
X125026319Y-95618982D01*
X125162264Y-95675293D01*
X125306583Y-95704000D01*
X125453729Y-95704000D01*
X125598048Y-95675293D01*
X125733993Y-95618982D01*
X125831245Y-95554000D01*
X128331003Y-95554000D01*
X128285589Y-95567776D01*
X128181876Y-95623211D01*
X128090971Y-95697815D01*
X128072271Y-95720601D01*
X127713757Y-96079115D01*
X127690971Y-96097815D01*
X127616367Y-96188721D01*
X127560932Y-96292434D01*
X127541963Y-96354967D01*
X127526795Y-96404968D01*
X127515268Y-96522000D01*
X127518156Y-96551322D01*
X127518157Y-97492669D01*
X127515268Y-97522000D01*
X127526795Y-97639032D01*
X127551964Y-97722000D01*
X127560933Y-97751567D01*
X127616368Y-97855280D01*
X127690972Y-97946185D01*
X127713753Y-97964881D01*
X127848872Y-98100000D01*
X108383354Y-98100000D01*
X108243523Y-98086289D01*
X108126524Y-98050965D01*
X108018611Y-97993587D01*
X107923903Y-97916345D01*
X107845999Y-97822177D01*
X107787871Y-97714669D01*
X107751730Y-97597916D01*
X107737156Y-97459256D01*
X107737156Y-95675148D01*
X115341613Y-95675148D01*
X115617783Y-96093118D01*
X116162713Y-96383649D01*
X116753852Y-96562287D01*
X117368484Y-96622168D01*
X117982987Y-96560990D01*
X118573748Y-96381103D01*
X119112529Y-96093118D01*
X119388699Y-95675148D01*
X117365156Y-93651605D01*
X115341613Y-95675148D01*
X107737156Y-95675148D01*
X107737156Y-92913201D01*
X112268156Y-92913201D01*
X112268156Y-93030799D01*
X112291098Y-93146139D01*
X112336101Y-93254786D01*
X112401436Y-93352566D01*
X112484590Y-93435720D01*
X112582370Y-93501055D01*
X112691017Y-93546058D01*
X112806357Y-93569000D01*
X112923955Y-93569000D01*
X113039295Y-93546058D01*
X113147942Y-93501055D01*
X113195915Y-93469000D01*
X113784397Y-93469000D01*
X113832370Y-93501055D01*
X113941017Y-93546058D01*
X114056357Y-93569000D01*
X114173955Y-93569000D01*
X114223336Y-93559178D01*
X114276166Y-94089831D01*
X114456053Y-94680592D01*
X114744038Y-95219373D01*
X115162008Y-95495543D01*
X117185551Y-93472000D01*
X117544761Y-93472000D01*
X119568304Y-95495543D01*
X119986274Y-95219373D01*
X119990341Y-95211744D01*
X121971353Y-95211744D01*
X121985226Y-95299768D01*
X122084538Y-95512563D01*
X122223456Y-95701895D01*
X122396641Y-95860487D01*
X122597439Y-95982245D01*
X122818132Y-96062490D01*
X123050240Y-96098138D01*
X123238156Y-95934817D01*
X123238156Y-95029000D01*
X122096795Y-95029000D01*
X121971353Y-95211744D01*
X119990341Y-95211744D01*
X120276805Y-94674443D01*
X120455443Y-94083304D01*
X120515324Y-93468672D01*
X120454146Y-92854169D01*
X120274259Y-92263408D01*
X119986274Y-91724627D01*
X119568304Y-91448457D01*
X117544761Y-93472000D01*
X117185551Y-93472000D01*
X115162008Y-91448457D01*
X114950773Y-91588029D01*
X114962156Y-91530799D01*
X114962156Y-91413201D01*
X114939214Y-91297861D01*
X114927199Y-91268852D01*
X115341613Y-91268852D01*
X117365156Y-93292395D01*
X119388699Y-91268852D01*
X119112529Y-90850882D01*
X118567599Y-90560351D01*
X117976460Y-90381713D01*
X117361828Y-90321832D01*
X116747325Y-90383010D01*
X116156564Y-90562897D01*
X115617783Y-90850882D01*
X115341613Y-91268852D01*
X114927199Y-91268852D01*
X114894211Y-91189214D01*
X114828876Y-91091434D01*
X114745722Y-91008280D01*
X114647942Y-90942945D01*
X114539295Y-90897942D01*
X114423955Y-90875000D01*
X114306357Y-90875000D01*
X114191017Y-90897942D01*
X114082370Y-90942945D01*
X113984590Y-91008280D01*
X113901436Y-91091434D01*
X113836101Y-91189214D01*
X113791098Y-91297861D01*
X113768156Y-91413201D01*
X113768156Y-91530799D01*
X113791098Y-91646139D01*
X113836101Y-91754786D01*
X113868157Y-91802760D01*
X113868156Y-92428122D01*
X113832370Y-92442945D01*
X113784397Y-92475000D01*
X113195915Y-92475000D01*
X113147942Y-92442945D01*
X113039295Y-92397942D01*
X112923955Y-92375000D01*
X112806357Y-92375000D01*
X112691017Y-92397942D01*
X112582370Y-92442945D01*
X112484590Y-92508280D01*
X112401436Y-92591434D01*
X112336101Y-92689214D01*
X112291098Y-92797861D01*
X112268156Y-92913201D01*
X107737156Y-92913201D01*
X107737156Y-89490198D01*
X107750867Y-89350366D01*
X107786190Y-89233369D01*
X107843569Y-89125455D01*
X107920812Y-89030746D01*
X108014979Y-88952844D01*
X108122486Y-88894715D01*
X108239240Y-88858574D01*
X108377899Y-88844000D01*
X142111576Y-88844000D01*
X142087702Y-88856761D01*
%TA.AperFunction,Conductor*%
D25*
G36*
X142087702Y-88856761D02*
G01*
X142012024Y-88918868D01*
X141996464Y-88937828D01*
X140209292Y-90725000D01*
X139339561Y-90725000D01*
X139315156Y-90722596D01*
X139290751Y-90725000D01*
X139290748Y-90725000D01*
X139217727Y-90732192D01*
X139124042Y-90760611D01*
X139037702Y-90806761D01*
X138962024Y-90868868D01*
X138946465Y-90887827D01*
X138582493Y-91251799D01*
X138527138Y-91118163D01*
X138445388Y-90995816D01*
X138341340Y-90891768D01*
X138218993Y-90810018D01*
X138083048Y-90753707D01*
X137938729Y-90725000D01*
X137821020Y-90725000D01*
X137761849Y-90665829D01*
X137746289Y-90646869D01*
X137670611Y-90584762D01*
X137584271Y-90538612D01*
X137490586Y-90510193D01*
X137417565Y-90503001D01*
X137417562Y-90503001D01*
X137393157Y-90500597D01*
X137368752Y-90503001D01*
X137068749Y-90503001D01*
X137068739Y-90503002D01*
X134559416Y-90503000D01*
X134476184Y-90419768D01*
X134409670Y-90375325D01*
X134523064Y-90261931D01*
X134615757Y-90123205D01*
X134679606Y-89969061D01*
X134712156Y-89805422D01*
X134712156Y-89638578D01*
X134679606Y-89474939D01*
X134615757Y-89320795D01*
X134523064Y-89182069D01*
X134405087Y-89064092D01*
X134266361Y-88971399D01*
X134112217Y-88907550D01*
X133948578Y-88875000D01*
X133781734Y-88875000D01*
X133618095Y-88907550D01*
X133463951Y-88971399D01*
X133325225Y-89064092D01*
X133207248Y-89182069D01*
X133114555Y-89320795D01*
X133050706Y-89474939D01*
X133018156Y-89638578D01*
X133018156Y-89724716D01*
X132713757Y-90029115D01*
X132690971Y-90047815D01*
X132616367Y-90138721D01*
X132560932Y-90242434D01*
X132555018Y-90261931D01*
X132526795Y-90354968D01*
X132515268Y-90472000D01*
X132518156Y-90501322D01*
X132518156Y-91257506D01*
X132506856Y-91242105D01*
X132333671Y-91083513D01*
X132132873Y-90961755D01*
X131912180Y-90881510D01*
X131680072Y-90845862D01*
X131492156Y-91009183D01*
X131492156Y-91915000D01*
X131512156Y-91915000D01*
X131512156Y-92169000D01*
X131492156Y-92169000D01*
X131492156Y-92189000D01*
X131238156Y-92189000D01*
X131238156Y-92169000D01*
X131218156Y-92169000D01*
X131218156Y-91915000D01*
X131238156Y-91915000D01*
X131238156Y-91009183D01*
X131050240Y-90845862D01*
X130818132Y-90881510D01*
X130597439Y-90961755D01*
X130396641Y-91083513D01*
X130223456Y-91242105D01*
X130084538Y-91431437D01*
X130009625Y-91591953D01*
X129945388Y-91495816D01*
X129841340Y-91391768D01*
X129718993Y-91310018D01*
X129583048Y-91253707D01*
X129438729Y-91225000D01*
X129291583Y-91225000D01*
X129147264Y-91253707D01*
X129011319Y-91310018D01*
X128891618Y-91390000D01*
X126704464Y-91390000D01*
X126718993Y-91383982D01*
X126841340Y-91302232D01*
X126945388Y-91198184D01*
X127027138Y-91075837D01*
X127083449Y-90939892D01*
X127112156Y-90795573D01*
X127112156Y-90746408D01*
X127114560Y-90722000D01*
X127112156Y-90697592D01*
X127112156Y-90648427D01*
X127083449Y-90504108D01*
X127027138Y-90368163D01*
X126945388Y-90245816D01*
X126841340Y-90141768D01*
X126718993Y-90060018D01*
X126583048Y-90003707D01*
X126438729Y-89975000D01*
X126321020Y-89975000D01*
X126233848Y-89887828D01*
X126218288Y-89868868D01*
X126142610Y-89806761D01*
X126056270Y-89760611D01*
X125962585Y-89732192D01*
X125889564Y-89725000D01*
X125889561Y-89725000D01*
X125865156Y-89722596D01*
X125840751Y-89725000D01*
X123674572Y-89725000D01*
X123591340Y-89641768D01*
X123468993Y-89560018D01*
X123333048Y-89503707D01*
X123188729Y-89475000D01*
X123041583Y-89475000D01*
X122897264Y-89503707D01*
X122761319Y-89560018D01*
X122638972Y-89641768D01*
X122534924Y-89745816D01*
X122453174Y-89868163D01*
X122396863Y-90004108D01*
X122368156Y-90148427D01*
X122368156Y-90295573D01*
X122396863Y-90439892D01*
X122453174Y-90575837D01*
X122534924Y-90698184D01*
X122638972Y-90802232D01*
X122761319Y-90883982D01*
X122784699Y-90893666D01*
X122597439Y-90961755D01*
X122396641Y-91083513D01*
X122223456Y-91242105D01*
X122084538Y-91431437D01*
X121985226Y-91644232D01*
X121971353Y-91732256D01*
X122096795Y-91915000D01*
X123238156Y-91915000D01*
X123238156Y-91895000D01*
X123492156Y-91895000D01*
X123492156Y-91915000D01*
X123512156Y-91915000D01*
X123512156Y-92169000D01*
X123492156Y-92169000D01*
X123492156Y-92189000D01*
X123238156Y-92189000D01*
X123238156Y-92169000D01*
X122096795Y-92169000D01*
X121971353Y-92351744D01*
X121985226Y-92439768D01*
X122084538Y-92652563D01*
X122223456Y-92841895D01*
X122396641Y-93000487D01*
X122571470Y-93106498D01*
X122520042Y-93202713D01*
X122479999Y-93334718D01*
X122466478Y-93471999D01*
X122466478Y-93472001D01*
X122479999Y-93609282D01*
X122520042Y-93741287D01*
X122571470Y-93837502D01*
X122396641Y-93943513D01*
X122223456Y-94102105D01*
X122084538Y-94291437D01*
X121985226Y-94504232D01*
X121971353Y-94592256D01*
X122096795Y-94775000D01*
X123238156Y-94775000D01*
X123238156Y-94755000D01*
X123492156Y-94755000D01*
X123492156Y-94775000D01*
X123512156Y-94775000D01*
X123512156Y-95029000D01*
X123492156Y-95029000D01*
X123492156Y-95934817D01*
X123680072Y-96098138D01*
X123912180Y-96062490D01*
X124132873Y-95982245D01*
X124333671Y-95860487D01*
X124506856Y-95701895D01*
X124645774Y-95512563D01*
X124730977Y-95329998D01*
X124799924Y-95433184D01*
X124903972Y-95537232D01*
X125026319Y-95618982D01*
X125162264Y-95675293D01*
X125306583Y-95704000D01*
X125453729Y-95704000D01*
X125598048Y-95675293D01*
X125733993Y-95618982D01*
X125831245Y-95554000D01*
X128331003Y-95554000D01*
X128285589Y-95567776D01*
X128181876Y-95623211D01*
X128090971Y-95697815D01*
X128072271Y-95720601D01*
X127713757Y-96079115D01*
X127690971Y-96097815D01*
X127616367Y-96188721D01*
X127560932Y-96292434D01*
X127541963Y-96354967D01*
X127526795Y-96404968D01*
X127515268Y-96522000D01*
X127518156Y-96551322D01*
X127518157Y-97492669D01*
X127515268Y-97522000D01*
X127526795Y-97639032D01*
X127551964Y-97722000D01*
X127560933Y-97751567D01*
X127616368Y-97855280D01*
X127690972Y-97946185D01*
X127713753Y-97964881D01*
X127848872Y-98100000D01*
X108383354Y-98100000D01*
X108243523Y-98086289D01*
X108126524Y-98050965D01*
X108018611Y-97993587D01*
X107923903Y-97916345D01*
X107845999Y-97822177D01*
X107787871Y-97714669D01*
X107751730Y-97597916D01*
X107737156Y-97459256D01*
X107737156Y-95675148D01*
X115341613Y-95675148D01*
X115617783Y-96093118D01*
X116162713Y-96383649D01*
X116753852Y-96562287D01*
X117368484Y-96622168D01*
X117982987Y-96560990D01*
X118573748Y-96381103D01*
X119112529Y-96093118D01*
X119388699Y-95675148D01*
X117365156Y-93651605D01*
X115341613Y-95675148D01*
X107737156Y-95675148D01*
X107737156Y-92913201D01*
X112268156Y-92913201D01*
X112268156Y-93030799D01*
X112291098Y-93146139D01*
X112336101Y-93254786D01*
X112401436Y-93352566D01*
X112484590Y-93435720D01*
X112582370Y-93501055D01*
X112691017Y-93546058D01*
X112806357Y-93569000D01*
X112923955Y-93569000D01*
X113039295Y-93546058D01*
X113147942Y-93501055D01*
X113195915Y-93469000D01*
X113784397Y-93469000D01*
X113832370Y-93501055D01*
X113941017Y-93546058D01*
X114056357Y-93569000D01*
X114173955Y-93569000D01*
X114223336Y-93559178D01*
X114276166Y-94089831D01*
X114456053Y-94680592D01*
X114744038Y-95219373D01*
X115162008Y-95495543D01*
X117185551Y-93472000D01*
X117544761Y-93472000D01*
X119568304Y-95495543D01*
X119986274Y-95219373D01*
X119990341Y-95211744D01*
X121971353Y-95211744D01*
X121985226Y-95299768D01*
X122084538Y-95512563D01*
X122223456Y-95701895D01*
X122396641Y-95860487D01*
X122597439Y-95982245D01*
X122818132Y-96062490D01*
X123050240Y-96098138D01*
X123238156Y-95934817D01*
X123238156Y-95029000D01*
X122096795Y-95029000D01*
X121971353Y-95211744D01*
X119990341Y-95211744D01*
X120276805Y-94674443D01*
X120455443Y-94083304D01*
X120515324Y-93468672D01*
X120454146Y-92854169D01*
X120274259Y-92263408D01*
X119986274Y-91724627D01*
X119568304Y-91448457D01*
X117544761Y-93472000D01*
X117185551Y-93472000D01*
X115162008Y-91448457D01*
X114950773Y-91588029D01*
X114962156Y-91530799D01*
X114962156Y-91413201D01*
X114939214Y-91297861D01*
X114927199Y-91268852D01*
X115341613Y-91268852D01*
X117365156Y-93292395D01*
X119388699Y-91268852D01*
X119112529Y-90850882D01*
X118567599Y-90560351D01*
X117976460Y-90381713D01*
X117361828Y-90321832D01*
X116747325Y-90383010D01*
X116156564Y-90562897D01*
X115617783Y-90850882D01*
X115341613Y-91268852D01*
X114927199Y-91268852D01*
X114894211Y-91189214D01*
X114828876Y-91091434D01*
X114745722Y-91008280D01*
X114647942Y-90942945D01*
X114539295Y-90897942D01*
X114423955Y-90875000D01*
X114306357Y-90875000D01*
X114191017Y-90897942D01*
X114082370Y-90942945D01*
X113984590Y-91008280D01*
X113901436Y-91091434D01*
X113836101Y-91189214D01*
X113791098Y-91297861D01*
X113768156Y-91413201D01*
X113768156Y-91530799D01*
X113791098Y-91646139D01*
X113836101Y-91754786D01*
X113868157Y-91802760D01*
X113868156Y-92428122D01*
X113832370Y-92442945D01*
X113784397Y-92475000D01*
X113195915Y-92475000D01*
X113147942Y-92442945D01*
X113039295Y-92397942D01*
X112923955Y-92375000D01*
X112806357Y-92375000D01*
X112691017Y-92397942D01*
X112582370Y-92442945D01*
X112484590Y-92508280D01*
X112401436Y-92591434D01*
X112336101Y-92689214D01*
X112291098Y-92797861D01*
X112268156Y-92913201D01*
X107737156Y-92913201D01*
X107737156Y-89490198D01*
X107750867Y-89350366D01*
X107786190Y-89233369D01*
X107843569Y-89125455D01*
X107920812Y-89030746D01*
X108014979Y-88952844D01*
X108122486Y-88894715D01*
X108239240Y-88858574D01*
X108377899Y-88844000D01*
X142111576Y-88844000D01*
X142087702Y-88856761D01*
G37*
%TD.AperFunction*%
D24*
X151957248Y-88932069D02*
X151864555Y-89070795D01*
X151800706Y-89224939D01*
X151768156Y-89388578D01*
X151768156Y-89474715D01*
X151617871Y-89625001D01*
X147894468Y-89625001D01*
X147865154Y-89622114D01*
X147835840Y-89625001D01*
X147835834Y-89625001D01*
X147760383Y-89632432D01*
X147748122Y-89633640D01*
X147720722Y-89641952D01*
X147635588Y-89667777D01*
X147531875Y-89723212D01*
X147440970Y-89797816D01*
X147422274Y-89820597D01*
X145713752Y-91529119D01*
X145690972Y-91547815D01*
X145616368Y-91638720D01*
X145577303Y-91711807D01*
X145560933Y-91742433D01*
X145526795Y-91854968D01*
X145515268Y-91972000D01*
X145518157Y-92001331D01*
X145518156Y-94974715D01*
X144617872Y-95875000D01*
X142715995Y-95875000D01*
X142655087Y-95814092D01*
X142516361Y-95721399D01*
X142362217Y-95657550D01*
X142198578Y-95625000D01*
X142112442Y-95625000D01*
X140308041Y-93820601D01*
X140289341Y-93797815D01*
X140198436Y-93723211D01*
X140094723Y-93667776D01*
X139982188Y-93633639D01*
X139894477Y-93625000D01*
X139865156Y-93622112D01*
X139835835Y-93625000D01*
X137644477Y-93625000D01*
X137615155Y-93622112D01*
X137498123Y-93633639D01*
X137464542Y-93643826D01*
X137385589Y-93667776D01*
X137281876Y-93723211D01*
X137190971Y-93797815D01*
X137172275Y-93820596D01*
X136484596Y-94508276D01*
X136484590Y-94508280D01*
X136463741Y-94529129D01*
X136440972Y-94547815D01*
X136422286Y-94570584D01*
X136401436Y-94591434D01*
X136385054Y-94615951D01*
X136366368Y-94638720D01*
X136352485Y-94664695D01*
X136336101Y-94689214D01*
X136324814Y-94716463D01*
X136322502Y-94720789D01*
X136310933Y-94742433D01*
X136302384Y-94770613D01*
X136291098Y-94797861D01*
X136285345Y-94826782D01*
X136276795Y-94854968D01*
X136273907Y-94884287D01*
X136268156Y-94913201D01*
X136268156Y-94942679D01*
X136265268Y-94972000D01*
X136268156Y-95001321D01*
X136268156Y-95030799D01*
X136268157Y-95030804D01*
X136268156Y-96424715D01*
X135367872Y-97325000D01*
X128762440Y-97325000D01*
X128712156Y-97274716D01*
X128712156Y-96769284D01*
X128762440Y-96719000D01*
X132085835Y-96719000D01*
X132115156Y-96721888D01*
X132144477Y-96719000D01*
X132232188Y-96710361D01*
X132344723Y-96676224D01*
X132448436Y-96620789D01*
X132539341Y-96546185D01*
X132558041Y-96523399D01*
X133516566Y-95564876D01*
X133539341Y-95546185D01*
X133613945Y-95455280D01*
X133669380Y-95351567D01*
X133687971Y-95290280D01*
X133703517Y-95239033D01*
X133715044Y-95122000D01*
X133712156Y-95092679D01*
X133712156Y-94864716D01*
X133780976Y-94901502D01*
X133900674Y-94937812D01*
X134025156Y-94950072D01*
X134579406Y-94947000D01*
X134669856Y-94856550D01*
X134693330Y-94846827D01*
X134693631Y-94832775D01*
X134738156Y-94788250D01*
X134738156Y-94481627D01*
X134858992Y-94484216D01*
X134865156Y-94478052D01*
X134871320Y-94484216D01*
X134992156Y-94481627D01*
X134992156Y-94788250D01*
X135036681Y-94832775D01*
X135036982Y-94846827D01*
X135060395Y-94856489D01*
X135150906Y-94947000D01*
X135705156Y-94950072D01*
X135829638Y-94937812D01*
X135949336Y-94901502D01*
X136059650Y-94842537D01*
X136156341Y-94763185D01*
X136235693Y-94666494D01*
X136294658Y-94556180D01*
X136330968Y-94436482D01*
X136343228Y-94312000D01*
X136340156Y-93757750D01*
X136249706Y-93667300D01*
X136239983Y-93643826D01*
X136225931Y-93643525D01*
X136181406Y-93599000D01*
X135874783Y-93599000D01*
X135877372Y-93478164D01*
X135871208Y-93472000D01*
X135877372Y-93465836D01*
X135874783Y-93345000D01*
X136181406Y-93345000D01*
X136225931Y-93300475D01*
X136239983Y-93300174D01*
X136249645Y-93276761D01*
X136340156Y-93186250D01*
X136343228Y-92632000D01*
X136332099Y-92519000D01*
X136409292Y-92519000D01*
X136696464Y-92806172D01*
X136712024Y-92825132D01*
X136787702Y-92887239D01*
X136874042Y-92933389D01*
X136967727Y-92961808D01*
X137040748Y-92969000D01*
X137040757Y-92969000D01*
X137065155Y-92971403D01*
X137089553Y-92969000D01*
X138040751Y-92969000D01*
X138065156Y-92971404D01*
X138089561Y-92969000D01*
X138089564Y-92969000D01*
X138162585Y-92961808D01*
X138256270Y-92933389D01*
X138342610Y-92887239D01*
X138418288Y-92825132D01*
X138433848Y-92806172D01*
X139521020Y-91719000D01*
X140390751Y-91719000D01*
X140415156Y-91721404D01*
X140439561Y-91719000D01*
X140439564Y-91719000D01*
X140512585Y-91711808D01*
X140606270Y-91683389D01*
X140692610Y-91637239D01*
X140768288Y-91575132D01*
X140783848Y-91556172D01*
X142368156Y-89971864D01*
X142368156Y-90045573D01*
X142396863Y-90189892D01*
X142453174Y-90325837D01*
X142534924Y-90448184D01*
X142618156Y-90531416D01*
X142618157Y-91197592D01*
X142618156Y-91516135D01*
X142409291Y-91725000D01*
X142291583Y-91725000D01*
X142147264Y-91753707D01*
X142011319Y-91810018D01*
X141888972Y-91891768D01*
X141784924Y-91995816D01*
X141703174Y-92118163D01*
X141646863Y-92254108D01*
X141618156Y-92398427D01*
X141618156Y-92545573D01*
X141646863Y-92689892D01*
X141703174Y-92825837D01*
X141784924Y-92948184D01*
X141888972Y-93052232D01*
X142011319Y-93133982D01*
X142147264Y-93190293D01*
X142291583Y-93219000D01*
X142340748Y-93219000D01*
X142365156Y-93221404D01*
X142389564Y-93219000D01*
X142438729Y-93219000D01*
X142583048Y-93190293D01*
X142718993Y-93133982D01*
X142841340Y-93052232D01*
X142945388Y-92948184D01*
X143027138Y-92825837D01*
X143083449Y-92689892D01*
X143112156Y-92545573D01*
X143112156Y-92427865D01*
X143449333Y-92090688D01*
X143468288Y-92075132D01*
X143483843Y-92056178D01*
X143483847Y-92056174D01*
X143530395Y-91999454D01*
X143576545Y-91913114D01*
X143594183Y-91854968D01*
X143604964Y-91819429D01*
X143612156Y-91746408D01*
X143612156Y-91746399D01*
X143614559Y-91722001D01*
X143612156Y-91697603D01*
X143612156Y-90531416D01*
X143695388Y-90448184D01*
X143777138Y-90325837D01*
X143833449Y-90189892D01*
X143862156Y-90045573D01*
X143862156Y-89898427D01*
X143836411Y-89769000D01*
X144779631Y-89769000D01*
X144803174Y-89825837D01*
X144884924Y-89948184D01*
X144988972Y-90052232D01*
X145111319Y-90133982D01*
X145247264Y-90190293D01*
X145391583Y-90219000D01*
X145538729Y-90219000D01*
X145683048Y-90190293D01*
X145818993Y-90133982D01*
X145941340Y-90052232D01*
X146045388Y-89948184D01*
X146127138Y-89825837D01*
X146183449Y-89689892D01*
X146212156Y-89545573D01*
X146212156Y-89398427D01*
X146183449Y-89254108D01*
X146127138Y-89118163D01*
X146045388Y-88995816D01*
X145941340Y-88891768D01*
X145869850Y-88844000D01*
X152045317Y-88844000D01*
X151957248Y-88932069D01*
%TA.AperFunction,Conductor*%
D25*
G36*
X151957248Y-88932069D02*
G01*
X151864555Y-89070795D01*
X151800706Y-89224939D01*
X151768156Y-89388578D01*
X151768156Y-89474715D01*
X151617871Y-89625001D01*
X147894468Y-89625001D01*
X147865154Y-89622114D01*
X147835840Y-89625001D01*
X147835834Y-89625001D01*
X147760383Y-89632432D01*
X147748122Y-89633640D01*
X147720722Y-89641952D01*
X147635588Y-89667777D01*
X147531875Y-89723212D01*
X147440970Y-89797816D01*
X147422274Y-89820597D01*
X145713752Y-91529119D01*
X145690972Y-91547815D01*
X145616368Y-91638720D01*
X145577303Y-91711807D01*
X145560933Y-91742433D01*
X145526795Y-91854968D01*
X145515268Y-91972000D01*
X145518157Y-92001331D01*
X145518156Y-94974715D01*
X144617872Y-95875000D01*
X142715995Y-95875000D01*
X142655087Y-95814092D01*
X142516361Y-95721399D01*
X142362217Y-95657550D01*
X142198578Y-95625000D01*
X142112442Y-95625000D01*
X140308041Y-93820601D01*
X140289341Y-93797815D01*
X140198436Y-93723211D01*
X140094723Y-93667776D01*
X139982188Y-93633639D01*
X139894477Y-93625000D01*
X139865156Y-93622112D01*
X139835835Y-93625000D01*
X137644477Y-93625000D01*
X137615155Y-93622112D01*
X137498123Y-93633639D01*
X137464542Y-93643826D01*
X137385589Y-93667776D01*
X137281876Y-93723211D01*
X137190971Y-93797815D01*
X137172275Y-93820596D01*
X136484596Y-94508276D01*
X136484590Y-94508280D01*
X136463741Y-94529129D01*
X136440972Y-94547815D01*
X136422286Y-94570584D01*
X136401436Y-94591434D01*
X136385054Y-94615951D01*
X136366368Y-94638720D01*
X136352485Y-94664695D01*
X136336101Y-94689214D01*
X136324814Y-94716463D01*
X136322502Y-94720789D01*
X136310933Y-94742433D01*
X136302384Y-94770613D01*
X136291098Y-94797861D01*
X136285345Y-94826782D01*
X136276795Y-94854968D01*
X136273907Y-94884287D01*
X136268156Y-94913201D01*
X136268156Y-94942679D01*
X136265268Y-94972000D01*
X136268156Y-95001321D01*
X136268156Y-95030799D01*
X136268157Y-95030804D01*
X136268156Y-96424715D01*
X135367872Y-97325000D01*
X128762440Y-97325000D01*
X128712156Y-97274716D01*
X128712156Y-96769284D01*
X128762440Y-96719000D01*
X132085835Y-96719000D01*
X132115156Y-96721888D01*
X132144477Y-96719000D01*
X132232188Y-96710361D01*
X132344723Y-96676224D01*
X132448436Y-96620789D01*
X132539341Y-96546185D01*
X132558041Y-96523399D01*
X133516566Y-95564876D01*
X133539341Y-95546185D01*
X133613945Y-95455280D01*
X133669380Y-95351567D01*
X133687971Y-95290280D01*
X133703517Y-95239033D01*
X133715044Y-95122000D01*
X133712156Y-95092679D01*
X133712156Y-94864716D01*
X133780976Y-94901502D01*
X133900674Y-94937812D01*
X134025156Y-94950072D01*
X134579406Y-94947000D01*
X134669856Y-94856550D01*
X134693330Y-94846827D01*
X134693631Y-94832775D01*
X134738156Y-94788250D01*
X134738156Y-94481627D01*
X134858992Y-94484216D01*
X134865156Y-94478052D01*
X134871320Y-94484216D01*
X134992156Y-94481627D01*
X134992156Y-94788250D01*
X135036681Y-94832775D01*
X135036982Y-94846827D01*
X135060395Y-94856489D01*
X135150906Y-94947000D01*
X135705156Y-94950072D01*
X135829638Y-94937812D01*
X135949336Y-94901502D01*
X136059650Y-94842537D01*
X136156341Y-94763185D01*
X136235693Y-94666494D01*
X136294658Y-94556180D01*
X136330968Y-94436482D01*
X136343228Y-94312000D01*
X136340156Y-93757750D01*
X136249706Y-93667300D01*
X136239983Y-93643826D01*
X136225931Y-93643525D01*
X136181406Y-93599000D01*
X135874783Y-93599000D01*
X135877372Y-93478164D01*
X135871208Y-93472000D01*
X135877372Y-93465836D01*
X135874783Y-93345000D01*
X136181406Y-93345000D01*
X136225931Y-93300475D01*
X136239983Y-93300174D01*
X136249645Y-93276761D01*
X136340156Y-93186250D01*
X136343228Y-92632000D01*
X136332099Y-92519000D01*
X136409292Y-92519000D01*
X136696464Y-92806172D01*
X136712024Y-92825132D01*
X136787702Y-92887239D01*
X136874042Y-92933389D01*
X136967727Y-92961808D01*
X137040748Y-92969000D01*
X137040757Y-92969000D01*
X137065155Y-92971403D01*
X137089553Y-92969000D01*
X138040751Y-92969000D01*
X138065156Y-92971404D01*
X138089561Y-92969000D01*
X138089564Y-92969000D01*
X138162585Y-92961808D01*
X138256270Y-92933389D01*
X138342610Y-92887239D01*
X138418288Y-92825132D01*
X138433848Y-92806172D01*
X139521020Y-91719000D01*
X140390751Y-91719000D01*
X140415156Y-91721404D01*
X140439561Y-91719000D01*
X140439564Y-91719000D01*
X140512585Y-91711808D01*
X140606270Y-91683389D01*
X140692610Y-91637239D01*
X140768288Y-91575132D01*
X140783848Y-91556172D01*
X142368156Y-89971864D01*
X142368156Y-90045573D01*
X142396863Y-90189892D01*
X142453174Y-90325837D01*
X142534924Y-90448184D01*
X142618156Y-90531416D01*
X142618157Y-91197592D01*
X142618156Y-91516135D01*
X142409291Y-91725000D01*
X142291583Y-91725000D01*
X142147264Y-91753707D01*
X142011319Y-91810018D01*
X141888972Y-91891768D01*
X141784924Y-91995816D01*
X141703174Y-92118163D01*
X141646863Y-92254108D01*
X141618156Y-92398427D01*
X141618156Y-92545573D01*
X141646863Y-92689892D01*
X141703174Y-92825837D01*
X141784924Y-92948184D01*
X141888972Y-93052232D01*
X142011319Y-93133982D01*
X142147264Y-93190293D01*
X142291583Y-93219000D01*
X142340748Y-93219000D01*
X142365156Y-93221404D01*
X142389564Y-93219000D01*
X142438729Y-93219000D01*
X142583048Y-93190293D01*
X142718993Y-93133982D01*
X142841340Y-93052232D01*
X142945388Y-92948184D01*
X143027138Y-92825837D01*
X143083449Y-92689892D01*
X143112156Y-92545573D01*
X143112156Y-92427865D01*
X143449333Y-92090688D01*
X143468288Y-92075132D01*
X143483843Y-92056178D01*
X143483847Y-92056174D01*
X143530395Y-91999454D01*
X143576545Y-91913114D01*
X143594183Y-91854968D01*
X143604964Y-91819429D01*
X143612156Y-91746408D01*
X143612156Y-91746399D01*
X143614559Y-91722001D01*
X143612156Y-91697603D01*
X143612156Y-90531416D01*
X143695388Y-90448184D01*
X143777138Y-90325837D01*
X143833449Y-90189892D01*
X143862156Y-90045573D01*
X143862156Y-89898427D01*
X143836411Y-89769000D01*
X144779631Y-89769000D01*
X144803174Y-89825837D01*
X144884924Y-89948184D01*
X144988972Y-90052232D01*
X145111319Y-90133982D01*
X145247264Y-90190293D01*
X145391583Y-90219000D01*
X145538729Y-90219000D01*
X145683048Y-90190293D01*
X145818993Y-90133982D01*
X145941340Y-90052232D01*
X146045388Y-89948184D01*
X146127138Y-89825837D01*
X146183449Y-89689892D01*
X146212156Y-89545573D01*
X146212156Y-89398427D01*
X146183449Y-89254108D01*
X146127138Y-89118163D01*
X146045388Y-88995816D01*
X145941340Y-88891768D01*
X145869850Y-88844000D01*
X152045317Y-88844000D01*
X151957248Y-88932069D01*
G37*
%TD.AperFunction*%
D24*
X131492156Y-94775000D02*
X131512156Y-94775000D01*
X131512156Y-95029000D01*
X131492156Y-95029000D01*
X131492156Y-95049000D01*
X131238156Y-95049000D01*
X131238156Y-95029000D01*
X131218156Y-95029000D01*
X131218156Y-94775000D01*
X131238156Y-94775000D01*
X131238156Y-94755000D01*
X131492156Y-94755000D01*
X131492156Y-94775000D01*
%TA.AperFunction,Conductor*%
D25*
G36*
X131492156Y-94775000D02*
G01*
X131512156Y-94775000D01*
X131512156Y-95029000D01*
X131492156Y-95029000D01*
X131492156Y-95049000D01*
X131238156Y-95049000D01*
X131238156Y-95029000D01*
X131218156Y-95029000D01*
X131218156Y-94775000D01*
X131238156Y-94775000D01*
X131238156Y-94755000D01*
X131492156Y-94755000D01*
X131492156Y-94775000D01*
G37*
%TD.AperFunction*%
D24*
X124799924Y-92463184D02*
X124903972Y-92567232D01*
X125026319Y-92648982D01*
X125162264Y-92705293D01*
X125306583Y-92734000D01*
X125453729Y-92734000D01*
X125598048Y-92705293D01*
X125733993Y-92648982D01*
X125831245Y-92584000D01*
X128936516Y-92584000D01*
X129011319Y-92633982D01*
X129147264Y-92690293D01*
X129291583Y-92719000D01*
X129438729Y-92719000D01*
X129583048Y-92690293D01*
X129718993Y-92633982D01*
X129841340Y-92552232D01*
X129945388Y-92448184D01*
X129978696Y-92398335D01*
X129985226Y-92439768D01*
X130084538Y-92652563D01*
X130223456Y-92841895D01*
X130396641Y-93000487D01*
X130571470Y-93106498D01*
X130520042Y-93202713D01*
X130479999Y-93334718D01*
X130466478Y-93471999D01*
X130466478Y-93472001D01*
X130479999Y-93609282D01*
X130520042Y-93741287D01*
X130571470Y-93837502D01*
X130396641Y-93943513D01*
X130223456Y-94102105D01*
X130084538Y-94291437D01*
X129985226Y-94504232D01*
X129978696Y-94545665D01*
X129945388Y-94495816D01*
X129841340Y-94391768D01*
X129718993Y-94310018D01*
X129583048Y-94253707D01*
X129438729Y-94225000D01*
X129291583Y-94225000D01*
X129147264Y-94253707D01*
X129011319Y-94310018D01*
X128936516Y-94360000D01*
X125831245Y-94360000D01*
X125733993Y-94295018D01*
X125598048Y-94238707D01*
X125453729Y-94210000D01*
X125306583Y-94210000D01*
X125162264Y-94238707D01*
X125026319Y-94295018D01*
X124903972Y-94376768D01*
X124799924Y-94480816D01*
X124752566Y-94551692D01*
X124745086Y-94504232D01*
X124645774Y-94291437D01*
X124506856Y-94102105D01*
X124333671Y-93943513D01*
X124158842Y-93837502D01*
X124210270Y-93741287D01*
X124250313Y-93609282D01*
X124263834Y-93472001D01*
X124263834Y-93471999D01*
X124250313Y-93334718D01*
X124210270Y-93202713D01*
X124158842Y-93106498D01*
X124333671Y-93000487D01*
X124506856Y-92841895D01*
X124645774Y-92652563D01*
X124745086Y-92439768D01*
X124752566Y-92392308D01*
X124799924Y-92463184D01*
%TA.AperFunction,Conductor*%
D25*
G36*
X124799924Y-92463184D02*
G01*
X124903972Y-92567232D01*
X125026319Y-92648982D01*
X125162264Y-92705293D01*
X125306583Y-92734000D01*
X125453729Y-92734000D01*
X125598048Y-92705293D01*
X125733993Y-92648982D01*
X125831245Y-92584000D01*
X128936516Y-92584000D01*
X129011319Y-92633982D01*
X129147264Y-92690293D01*
X129291583Y-92719000D01*
X129438729Y-92719000D01*
X129583048Y-92690293D01*
X129718993Y-92633982D01*
X129841340Y-92552232D01*
X129945388Y-92448184D01*
X129978696Y-92398335D01*
X129985226Y-92439768D01*
X130084538Y-92652563D01*
X130223456Y-92841895D01*
X130396641Y-93000487D01*
X130571470Y-93106498D01*
X130520042Y-93202713D01*
X130479999Y-93334718D01*
X130466478Y-93471999D01*
X130466478Y-93472001D01*
X130479999Y-93609282D01*
X130520042Y-93741287D01*
X130571470Y-93837502D01*
X130396641Y-93943513D01*
X130223456Y-94102105D01*
X130084538Y-94291437D01*
X129985226Y-94504232D01*
X129978696Y-94545665D01*
X129945388Y-94495816D01*
X129841340Y-94391768D01*
X129718993Y-94310018D01*
X129583048Y-94253707D01*
X129438729Y-94225000D01*
X129291583Y-94225000D01*
X129147264Y-94253707D01*
X129011319Y-94310018D01*
X128936516Y-94360000D01*
X125831245Y-94360000D01*
X125733993Y-94295018D01*
X125598048Y-94238707D01*
X125453729Y-94210000D01*
X125306583Y-94210000D01*
X125162264Y-94238707D01*
X125026319Y-94295018D01*
X124903972Y-94376768D01*
X124799924Y-94480816D01*
X124752566Y-94551692D01*
X124745086Y-94504232D01*
X124645774Y-94291437D01*
X124506856Y-94102105D01*
X124333671Y-93943513D01*
X124158842Y-93837502D01*
X124210270Y-93741287D01*
X124250313Y-93609282D01*
X124263834Y-93472001D01*
X124263834Y-93471999D01*
X124250313Y-93334718D01*
X124210270Y-93202713D01*
X124158842Y-93106498D01*
X124333671Y-93000487D01*
X124506856Y-92841895D01*
X124645774Y-92652563D01*
X124745086Y-92439768D01*
X124752566Y-92392308D01*
X124799924Y-92463184D01*
G37*
%TD.AperFunction*%
D24*
X132518157Y-94117507D02*
X132506856Y-94102105D01*
X132333671Y-93943513D01*
X132158842Y-93837502D01*
X132210270Y-93741287D01*
X132250313Y-93609282D01*
X132263834Y-93472001D01*
X132263834Y-93471999D01*
X132250313Y-93334718D01*
X132210270Y-93202713D01*
X132158842Y-93106498D01*
X132333671Y-93000487D01*
X132506856Y-92841895D01*
X132518157Y-92826493D01*
X132518157Y-94117507D01*
%TA.AperFunction,Conductor*%
D25*
G36*
X132518157Y-94117507D02*
G01*
X132506856Y-94102105D01*
X132333671Y-93943513D01*
X132158842Y-93837502D01*
X132210270Y-93741287D01*
X132250313Y-93609282D01*
X132263834Y-93472001D01*
X132263834Y-93471999D01*
X132250313Y-93334718D01*
X132210270Y-93202713D01*
X132158842Y-93106498D01*
X132333671Y-93000487D01*
X132506856Y-92841895D01*
X132518157Y-92826493D01*
X132518157Y-94117507D01*
G37*
%TD.AperFunction*%
D24*
X134871320Y-93304216D02*
X134992156Y-93301627D01*
X134992156Y-93345000D01*
X135035529Y-93345000D01*
X135032940Y-93465836D01*
X135039104Y-93472000D01*
X135032940Y-93478164D01*
X135035529Y-93599000D01*
X134992156Y-93599000D01*
X134992156Y-93642373D01*
X134871320Y-93639784D01*
X134865156Y-93645948D01*
X134858992Y-93639784D01*
X134738156Y-93642373D01*
X134738156Y-93599000D01*
X134718156Y-93599000D01*
X134718156Y-93345000D01*
X134738156Y-93345000D01*
X134738156Y-93301627D01*
X134858992Y-93304216D01*
X134865156Y-93298052D01*
X134871320Y-93304216D01*
%TA.AperFunction,Conductor*%
D25*
G36*
X134871320Y-93304216D02*
G01*
X134992156Y-93301627D01*
X134992156Y-93345000D01*
X135035529Y-93345000D01*
X135032940Y-93465836D01*
X135039104Y-93472000D01*
X135032940Y-93478164D01*
X135035529Y-93599000D01*
X134992156Y-93599000D01*
X134992156Y-93642373D01*
X134871320Y-93639784D01*
X134865156Y-93645948D01*
X134858992Y-93639784D01*
X134738156Y-93642373D01*
X134738156Y-93599000D01*
X134718156Y-93599000D01*
X134718156Y-93345000D01*
X134738156Y-93345000D01*
X134738156Y-93301627D01*
X134858992Y-93304216D01*
X134865156Y-93298052D01*
X134871320Y-93304216D01*
G37*
%TD.AperFunction*%
%TD*%
M02*
