M48
; DRILL file {KiCad (5.1.10)-1} date 08/17/23 02:42:34
; FORMAT={-:-/ absolute / inch / decimal}
; #@! TF.CreationDate,2023-08-17T02:42:34-04:00
; #@! TF.GenerationSoftware,Kicad,Pcbnew,(5.1.10)-1
; #@! TF.FileFunction,Plated,1,2,PTH
FMAT,2
INCH
T1C0.0079
T2C0.0118
T3C0.0157
T4C0.0197
T5C0.0236
T6C0.0866
%
G90
G05
T1
X5.2864Y-3.6568
X5.2864Y-3.7032
X5.3329Y-3.6568
X5.3329Y-3.7032
T2
X4.4435Y-3.6603
X4.4927Y-3.6603
X4.5026Y-3.6013
X5.0242Y-3.5461
X5.1935Y-3.5461
X5.3195Y-3.7961
X5.3411Y-3.5461
X5.3884Y-3.7391
X5.4376Y-3.7391
X5.4707Y-3.5615
X5.4809Y-3.6269
X5.4809Y-3.6505
X5.5045Y-3.6269
X5.5045Y-3.6505
T3
X4.7782Y-3.5914
X4.8392Y-3.8473
X4.8471Y-3.552
X4.975Y-3.5717
X5.0793Y-3.8198
X5.1148Y-3.8198
X5.2756Y-3.5827
X5.3687Y-3.6131
X5.4278Y-3.6013
X5.5557Y-3.8178
X5.5557Y-3.8178
X5.6049Y-3.6406
X5.6345Y-3.5422
X5.7034Y-3.68
X5.727Y-3.5225
X5.8018Y-3.6603
X5.8018Y-3.802
X5.9494Y-3.7391
T4
X4.3254Y-3.5816
X4.3254Y-3.7784
X4.9362Y-3.6215
X4.9362Y-3.7385
X5.0439Y-3.68
X5.0931Y-3.6209
X5.0931Y-3.7391
X5.2703Y-3.5324
X5.4691Y-3.8237
X5.5951Y-3.7981
X6.0085Y-3.5225
T6
X4.6207Y-3.68
X6.1955Y-3.68
T5
G00X4.8471Y-3.6237
M15
G01X4.8667Y-3.6237
M16
G05
G00X4.8471Y-3.7363
M15
G01X4.8667Y-3.7363
M16
G05
G00X5.162Y-3.6237
M15
G01X5.1817Y-3.6237
M16
G05
G00X5.162Y-3.7363
M15
G01X5.1817Y-3.7363
M16
G05
T0
M30
