M48
; DRILL file {KiCad (5.1.10)-1} date 08/12/23 15:50:16
; FORMAT={-:-/ absolute / inch / decimal}
; #@! TF.CreationDate,2023-08-12T15:50:16-04:00
; #@! TF.GenerationSoftware,Kicad,Pcbnew,(5.1.10)-1
; #@! TF.FileFunction,NonPlated,1,2,NPTH
FMAT,2
INCH
T1C0.0670
T2C0.1181
T3C0.1200
T4C0.1570
%
G90
G05
T1
X3.362Y-4.687
X3.5495Y-5.437
X3.737Y-3.937
X3.762Y-4.687
X3.9245Y-6.187
X3.9495Y-5.437
X4.112Y-4.687
X4.137Y-3.937
X4.2058Y-6.937
X4.2995Y-5.437
X4.3245Y-6.187
X4.487Y-3.937
X4.512Y-4.687
X4.6058Y-6.937
X4.6745Y-6.187
X4.6995Y-5.437
X4.862Y-4.687
X4.887Y-3.937
X5.0495Y-5.437
X5.0745Y-6.187
X5.237Y-3.937
X5.262Y-4.687
X5.4245Y-6.187
X5.4495Y-5.437
X5.612Y-4.687
X5.637Y-3.937
X5.7058Y-6.937
X5.7995Y-5.437
X5.8245Y-6.187
X5.987Y-3.937
X6.012Y-4.687
X6.1058Y-6.937
X6.1745Y-6.187
X6.1995Y-5.437
X6.362Y-4.687
X6.387Y-3.937
X6.5495Y-5.437
X6.5495Y-6.937
X6.5745Y-6.187
X6.737Y-3.937
X6.762Y-4.687
X6.9245Y-6.187
X6.9495Y-5.437
X6.9495Y-6.937
X7.112Y-4.687
X7.137Y-3.937
X7.2995Y-5.437
X7.3245Y-6.187
X7.3933Y-6.937
X7.487Y-3.937
X7.512Y-4.687
X7.6995Y-5.437
X7.7933Y-6.937
X7.862Y-4.687
X7.887Y-3.937
X7.9558Y-6.187
X8.237Y-6.937
X8.262Y-4.687
X8.3558Y-6.187
X8.5183Y-5.437
X8.612Y-3.937
X8.637Y-6.937
X8.7995Y-4.687
X8.9183Y-5.437
X8.987Y-6.187
X8.987Y-6.937
X9.012Y-3.937
X9.1995Y-4.687
X9.387Y-6.187
X9.387Y-6.937
X9.737Y-3.937
X9.737Y-4.687
X9.737Y-5.437
X9.737Y-6.187
X9.737Y-6.937
X10.137Y-3.937
X10.137Y-4.687
X10.137Y-5.437
X10.137Y-6.187
X10.137Y-6.937
T2
X3.462Y-4.887
X3.6495Y-5.637
X3.712Y-4.787
X3.837Y-4.137
X3.8995Y-5.537
X4.0245Y-6.387
X4.087Y-4.037
X4.162Y-4.587
X4.2558Y-6.837
X4.2745Y-6.287
X4.3495Y-5.337
X4.412Y-4.487
X4.5058Y-6.737
X4.537Y-3.837
X4.5995Y-5.237
X4.7245Y-6.087
X4.787Y-3.737
X4.912Y-4.587
X4.9745Y-5.987
X5.0995Y-5.337
X5.162Y-4.487
X5.287Y-3.837
X5.3495Y-5.237
X5.4745Y-6.087
X5.537Y-3.737
X5.662Y-4.587
X5.7245Y-5.987
X5.7558Y-6.837
X5.8495Y-5.337
X5.912Y-4.487
X6.0058Y-6.737
X6.037Y-3.837
X6.0995Y-5.237
X6.2245Y-6.087
X6.287Y-3.737
X6.412Y-4.587
X6.4745Y-5.987
X6.5995Y-5.337
X6.5995Y-6.837
X6.662Y-4.487
X6.787Y-3.837
X6.8495Y-5.237
X6.8495Y-6.737
X6.9745Y-6.087
X7.037Y-3.737
X7.162Y-4.587
X7.2245Y-5.987
X7.3495Y-5.337
X7.412Y-4.487
X7.4433Y-6.837
X7.537Y-3.837
X7.5995Y-5.237
X7.6933Y-6.737
X7.787Y-3.737
X7.912Y-4.587
X8.0058Y-6.087
X8.162Y-4.487
X8.2558Y-5.987
X8.287Y-6.837
X8.537Y-6.737
X8.5683Y-5.337
X8.662Y-3.837
X8.8183Y-5.237
X8.8495Y-4.587
X8.912Y-3.737
X9.037Y-6.087
X9.037Y-6.837
X9.0995Y-4.487
X9.287Y-5.987
X9.287Y-6.737
X9.787Y-3.837
X9.787Y-4.587
X9.787Y-5.337
X9.787Y-6.087
X9.787Y-6.837
X10.037Y-3.737
X10.037Y-4.487
X10.037Y-5.237
X10.037Y-5.987
X10.037Y-6.737
T3
X3.9373Y-7.212
X4.8743Y-7.212
X8.2498Y-5.162
X8.3435Y-3.662
X9.1868Y-5.162
X9.2805Y-3.662
T4
X3.562Y-4.687
X3.7495Y-5.437
X3.937Y-3.937
X3.9373Y-6.612
X4.1245Y-6.187
X4.312Y-4.687
X4.4058Y-6.937
X4.4995Y-5.437
X4.687Y-3.937
X4.8743Y-6.612
X4.8745Y-6.187
X5.062Y-4.687
X5.2495Y-5.437
X5.437Y-3.937
X5.6245Y-6.187
X5.812Y-4.687
X5.9058Y-6.937
X5.9995Y-5.437
X6.187Y-3.937
X6.3745Y-6.187
X6.562Y-4.687
X6.7495Y-5.437
X6.7495Y-6.937
X6.937Y-3.937
X7.1245Y-6.187
X7.312Y-4.687
X7.4995Y-5.437
X7.5933Y-6.937
X7.687Y-3.937
X8.062Y-4.687
X8.1558Y-6.187
X8.2498Y-5.762
X8.3435Y-4.262
X8.437Y-6.937
X8.7183Y-5.437
X8.812Y-3.937
X8.9995Y-4.687
X9.1868Y-5.762
X9.187Y-6.187
X9.187Y-6.937
X9.2805Y-4.262
X9.937Y-3.937
X9.937Y-4.687
X9.937Y-5.437
X9.937Y-6.187
X9.937Y-6.937
T0
M30
