M48
; DRILL file {KiCad (5.1.10)-1} date 08/12/23 15:50:16
; FORMAT={-:-/ absolute / inch / decimal}
; #@! TF.CreationDate,2023-08-12T15:50:16-04:00
; #@! TF.GenerationSoftware,Kicad,Pcbnew,(5.1.10)-1
; #@! TF.FileFunction,Plated,1,2,PTH
FMAT,2
INCH
T1C0.0098
T2C0.0118
T3C0.0157
T4C0.0197
T5C0.0394
%
G90
G05
T1
X4.8573Y-6.8169
X4.8848Y-6.8169
X4.9045Y-7.002
X4.9281Y-7.002
X5.0758Y-6.9094
X5.1073Y-7.002
X5.1073Y-7.0217
X5.1073Y-7.0413
X5.1073Y-7.061
X5.1565Y-6.874
X5.1762Y-6.874
X5.1959Y-6.874
X5.2156Y-6.874
X5.2156Y-7.0906
X5.2352Y-6.874
X5.2549Y-6.874
X5.255Y-7.0906
X5.2648Y-7.1102
X5.2844Y-7.1209
X5.2943Y-6.874
X5.3025Y-7.1225
X5.3239Y-6.9626
X5.3239Y-7.002
X5.3239Y-7.0217
X5.3435Y-6.8661
X5.3436Y-6.9528
X5.3436Y-7.0118
X5.3436Y-7.0315
X5.3632Y-6.9429
T2
X3.4917Y-4.5933
X3.6792Y-5.3433
X3.7781Y-6.8189
X3.7781Y-6.878
X3.7781Y-6.937
X3.7781Y-6.9961
X3.7781Y-7.0551
X3.8901Y-3.8433
X4.0542Y-6.0933
X4.1081Y-6.6331
X4.1081Y-6.696
X4.6167Y-4.7808
X4.7195Y-6.6555
X4.7589Y-6.687
X4.8042Y-5.5308
X4.8494Y-7.061
X4.8494Y-7.1083
X4.8495Y-6.9142
X4.8691Y-7.0374
X4.8691Y-7.0846
X4.8691Y-7.1319
X4.9917Y-7.0464
X4.9917Y-4.0308
X5.0151Y-7.0854
X5.0485Y-7.1223
X5.152Y-6.815
X5.1663Y-7.1949
X5.1714Y-6.6948
X5.1792Y-6.2808
X5.1978Y-7.1949
X5.2182Y-6.6948
X5.2215Y-7.1536
X5.2524Y-7.1614
X5.2524Y-7.1909
X5.2549Y-6.7185
X5.2549Y-6.75
X5.255Y-6.6871
X5.3667Y-4.7808
X5.3824Y-7.0177
X5.3941Y-6.8248
X5.4385Y-7.193
X5.5542Y-5.5308
X5.6128Y-6.7319
X5.6289Y-7.1713
X5.6362Y-6.7085
X5.6948Y-7.2886
X5.7077Y-7.0472
X5.7417Y-7.0483
X5.7417Y-4.0308
X5.8999Y-7.2065
X5.9292Y-6.2808
X6.0171Y-7.0308
X6.0171Y-7.1335
X6.0522Y-7.0308
X6.0874Y-7.0308
X6.1167Y-4.7808
X6.1276Y-7.0312
X6.1284Y-7.2065
X6.1753Y-7.2065
X6.2104Y-7.0308
X6.2925Y-7.0073
X6.3042Y-5.5308
X6.3276Y-6.9487
X6.4448Y-7.2886
X6.4917Y-4.0308
X6.5503Y-7.1362
X6.6792Y-6.2808
X6.8667Y-4.7808
X7.0542Y-5.5308
X7.0542Y-7.0308
X7.2417Y-4.0308
X7.2886Y-7.2886
X7.3999Y-7.0483
X7.4292Y-6.2808
X7.4878Y-7.1362
X7.6167Y-4.7808
X7.8042Y-5.5308
X7.8979Y-7.0308
X7.9917Y-4.0308
X8.1323Y-7.2886
X8.1645Y-6.9692
X8.2202Y-6.7261
X8.3374Y-7.1421
X8.3667Y-4.7808
X8.4604Y-6.2808
X8.7417Y-7.0308
X8.8823Y-7.2886
X8.914Y-7.2882
X9.0229Y-5.5308
X9.0933Y-4.7808
X9.1167Y-4.0308
X9.1636Y-7.1655
X9.1929Y-7.1831
X9.2261Y-6.5151
X9.2261Y-6.5464
X9.2261Y-6.5776
X9.2261Y-6.6089
X9.2261Y-6.6401
X9.3511Y-6.5151
X9.3979Y-6.5151
X9.4446Y-5.0384
X9.4448Y-6.5151
X9.4917Y-6.5151
X9.4917Y-6.2808
X9.4917Y-7.0308
X9.4919Y-5.0384
X9.5776Y-6.2808
X9.5776Y-5.5308
X9.6558Y-4.7808
X9.6558Y-4.0308
X9.6558Y-7.0308
T3
X4.924Y-6.8721
X4.9596Y-7.2697
X4.999Y-6.9921
X5.1171Y-7.1791
T4
X3.3511Y-4.7808
X3.5386Y-5.5308
X3.562Y-4.4995
X3.562Y-4.8745
X3.7026Y-4.312
X3.7026Y-7.2417
X3.7026Y-4.6401
X3.7261Y-6.6792
X3.7495Y-5.2495
X3.7495Y-5.6245
X3.8901Y-5.3901
X3.9136Y-6.2808
X3.937Y-3.7495
X3.937Y-4.1245
X3.937Y-4.4995
X3.937Y-4.8745
X4.0542Y-7.1011
X4.0776Y-3.8901
X4.1245Y-5.2495
X4.1245Y-5.6245
X4.1245Y-5.9995
X4.1245Y-6.3745
X4.2651Y-6.1401
X4.312Y-4.4995
X4.312Y-4.8745
X4.3589Y-6.7261
X4.3589Y-6.8198
X4.4995Y-5.2495
X4.4995Y-5.6245
X4.5698Y-6.8198
X4.6085Y-7.2228
X4.687Y-3.7495
X4.687Y-4.1245
X4.8042Y-6.7964
X4.8745Y-5.9995
X5.0002Y-6.6362
X5.0117Y-6.813
X5.062Y-4.4995
X5.062Y-4.8745
X5.137Y-6.4995
X5.1762Y-6.9429
X5.1762Y-6.9823
X5.1762Y-7.0217
X5.2156Y-6.9429
X5.2156Y-6.9823
X5.2156Y-7.0217
X5.2495Y-5.2495
X5.2495Y-5.6245
X5.2549Y-6.9429
X5.2549Y-6.9823
X5.2549Y-7.0217
X5.437Y-3.7495
X5.437Y-4.1245
X5.4833Y-7.1407
X5.5116Y-6.8118
X5.5644Y-6.7378
X5.5699Y-6.924
X5.5738Y-7.002
X5.5894Y-7.1597
X5.6245Y-5.9995
X5.6245Y-6.3745
X5.6427Y-6.9724
X5.7805Y-6.9606
X5.812Y-4.4995
X5.812Y-4.8745
X5.8526Y-6.8169
X5.9104Y-6.6909
X5.9409Y-7.1421
X5.9995Y-5.2495
X5.9995Y-5.6245
X6.0933Y-6.8433
X6.187Y-3.7495
X6.187Y-4.1245
X6.3511Y-6.9956
X6.3745Y-5.9995
X6.3745Y-6.3745
X6.3745Y-6.7495
X6.488Y-6.9169
X6.5151Y-6.7026
X6.562Y-4.4995
X6.562Y-4.8745
X6.6323Y-6.9839
X6.7495Y-5.2495
X6.7495Y-5.6245
X6.7495Y-6.7495
X6.8667Y-6.9839
X6.937Y-3.7495
X6.937Y-4.1245
X7.1245Y-5.9995
X7.1245Y-6.3745
X7.2183Y-6.7495
X7.2183Y-6.937
X7.312Y-4.4995
X7.312Y-4.8745
X7.4995Y-5.2495
X7.4995Y-5.6245
X7.5933Y-6.7495
X7.687Y-3.7495
X7.687Y-4.1245
X7.7104Y-6.9839
X7.7339Y-6.8667
X8.0151Y-6.937
X8.062Y-4.4995
X8.062Y-4.8745
X8.062Y-6.7495
X8.1558Y-5.9995
X8.1558Y-6.3745
X8.1792Y-6.7026
X8.3198Y-6.9839
X8.437Y-6.7495
X8.5542Y-6.9839
X8.7183Y-5.2495
X8.7183Y-5.6245
X8.812Y-3.7495
X8.812Y-4.1245
X8.9995Y-4.4995
X8.9995Y-4.8745
X9.073Y-7.0083
X9.187Y-5.9995
X9.187Y-6.3745
X9.3042Y-6.9839
X9.4904Y-6.185
X9.5167Y-6.0563
X9.5321Y-6.8031
X9.5386Y-5.0386
X9.66Y-3.9406
X9.6628Y-5.4327
X9.6636Y-6.1933
X9.6703Y-6.913
X9.937Y-3.7495
X9.937Y-4.1245
X9.937Y-4.4995
X9.937Y-4.8745
X9.937Y-5.2495
X9.937Y-5.6245
X9.937Y-5.9995
X9.937Y-6.3745
X9.937Y-6.7495
X10.0249Y-7.0308
X10.137Y-6.5938
X10.2652Y-6.5982
T5
X9.337Y-7.262
X9.437Y-7.262
X9.537Y-7.262
X9.637Y-7.262
X9.737Y-7.262
X9.837Y-7.262
X9.937Y-7.262
X10.037Y-7.262
X10.137Y-7.262
X10.237Y-7.262
T0
M30
