%TF.GenerationSoftware,KiCad,Pcbnew,(5.1.10)-1*%
%TF.CreationDate,2023-08-12T15:50:14-04:00*%
%TF.ProjectId,niche65_mk2_right,6e696368-6536-4355-9f6d-6b325f726967,rev?*%
%TF.SameCoordinates,Original*%
%TF.FileFunction,Legend,Bot*%
%TF.FilePolarity,Positive*%
%FSLAX46Y46*%
G04 Gerber Fmt 4.6, Leading zero omitted, Abs format (unit mm)*
G04 Created by KiCad (PCBNEW (5.1.10)-1) date 2023-08-12 15:50:14*
%MOMM*%
%LPD*%
G01*
G04 APERTURE LIST*
%ADD10C,0.150000*%
%ADD11C,0.010000*%
%ADD12C,0.120000*%
G04 APERTURE END LIST*
D10*
X120459642Y-164470000D02*
X120516785Y-164441428D01*
X120602500Y-164441428D01*
X120688214Y-164470000D01*
X120745357Y-164527142D01*
X120773928Y-164584285D01*
X120802500Y-164698571D01*
X120802500Y-164784285D01*
X120773928Y-164898571D01*
X120745357Y-164955714D01*
X120688214Y-165012857D01*
X120602500Y-165041428D01*
X120545357Y-165041428D01*
X120459642Y-165012857D01*
X120431071Y-164984285D01*
X120431071Y-164784285D01*
X120545357Y-164784285D01*
X120173928Y-165041428D02*
X120173928Y-164441428D01*
X119831071Y-165041428D01*
X119831071Y-164441428D01*
X119545357Y-165041428D02*
X119545357Y-164441428D01*
X119402500Y-164441428D01*
X119316785Y-164470000D01*
X119259642Y-164527142D01*
X119231071Y-164584285D01*
X119202500Y-164698571D01*
X119202500Y-164784285D01*
X119231071Y-164898571D01*
X119259642Y-164955714D01*
X119316785Y-165012857D01*
X119402500Y-165041428D01*
X119545357Y-165041428D01*
X128422500Y-164441428D02*
X128222500Y-165041428D01*
X128022500Y-164441428D01*
X127822500Y-165041428D02*
X127822500Y-164441428D01*
X127679642Y-164441428D01*
X127593928Y-164470000D01*
X127536785Y-164527142D01*
X127508214Y-164584285D01*
X127479642Y-164698571D01*
X127479642Y-164784285D01*
X127508214Y-164898571D01*
X127536785Y-164955714D01*
X127593928Y-165012857D01*
X127679642Y-165041428D01*
X127822500Y-165041428D01*
X127222500Y-165041428D02*
X127222500Y-164441428D01*
X127079642Y-164441428D01*
X126993928Y-164470000D01*
X126936785Y-164527142D01*
X126908214Y-164584285D01*
X126879642Y-164698571D01*
X126879642Y-164784285D01*
X126908214Y-164898571D01*
X126936785Y-164955714D01*
X126993928Y-165012857D01*
X127079642Y-165041428D01*
X127222500Y-165041428D01*
X123356785Y-165012857D02*
X123271071Y-165041428D01*
X123128214Y-165041428D01*
X123071071Y-165012857D01*
X123042500Y-164984285D01*
X123013928Y-164927142D01*
X123013928Y-164870000D01*
X123042500Y-164812857D01*
X123071071Y-164784285D01*
X123128214Y-164755714D01*
X123242500Y-164727142D01*
X123299642Y-164698571D01*
X123328214Y-164670000D01*
X123356785Y-164612857D01*
X123356785Y-164555714D01*
X123328214Y-164498571D01*
X123299642Y-164470000D01*
X123242500Y-164441428D01*
X123099642Y-164441428D01*
X123013928Y-164470000D01*
X122813928Y-164441428D02*
X122671071Y-165041428D01*
X122556785Y-164612857D01*
X122442500Y-165041428D01*
X122299642Y-164441428D01*
X122071071Y-165041428D02*
X122071071Y-164441428D01*
X121928214Y-164441428D01*
X121842500Y-164470000D01*
X121785357Y-164527142D01*
X121756785Y-164584285D01*
X121728214Y-164698571D01*
X121728214Y-164784285D01*
X121756785Y-164898571D01*
X121785357Y-164955714D01*
X121842500Y-165012857D01*
X121928214Y-165041428D01*
X122071071Y-165041428D01*
X125896785Y-165012857D02*
X125811071Y-165041428D01*
X125668214Y-165041428D01*
X125611071Y-165012857D01*
X125582500Y-164984285D01*
X125553928Y-164927142D01*
X125553928Y-164870000D01*
X125582500Y-164812857D01*
X125611071Y-164784285D01*
X125668214Y-164755714D01*
X125782500Y-164727142D01*
X125839642Y-164698571D01*
X125868214Y-164670000D01*
X125896785Y-164612857D01*
X125896785Y-164555714D01*
X125868214Y-164498571D01*
X125839642Y-164470000D01*
X125782500Y-164441428D01*
X125639642Y-164441428D01*
X125553928Y-164470000D01*
X125353928Y-164441428D02*
X125211071Y-165041428D01*
X125096785Y-164612857D01*
X124982500Y-165041428D01*
X124839642Y-164441428D01*
X124268214Y-164984285D02*
X124296785Y-165012857D01*
X124382500Y-165041428D01*
X124439642Y-165041428D01*
X124525357Y-165012857D01*
X124582500Y-164955714D01*
X124611071Y-164898571D01*
X124639642Y-164784285D01*
X124639642Y-164698571D01*
X124611071Y-164584285D01*
X124582500Y-164527142D01*
X124525357Y-164470000D01*
X124439642Y-164441428D01*
X124382500Y-164441428D01*
X124296785Y-164470000D01*
X124268214Y-164498571D01*
X237665000Y-184796428D02*
X237607857Y-184796428D01*
X237550714Y-184825000D01*
X237522142Y-184853571D01*
X237493571Y-184910714D01*
X237465000Y-185025000D01*
X237465000Y-185167857D01*
X237493571Y-185282142D01*
X237522142Y-185339285D01*
X237550714Y-185367857D01*
X237607857Y-185396428D01*
X237665000Y-185396428D01*
X237722142Y-185367857D01*
X237750714Y-185339285D01*
X237779285Y-185282142D01*
X237807857Y-185167857D01*
X237807857Y-185025000D01*
X237779285Y-184910714D01*
X237750714Y-184853571D01*
X237722142Y-184825000D01*
X237665000Y-184796428D01*
X237093571Y-184796428D02*
X237036428Y-184796428D01*
X236979285Y-184825000D01*
X236950714Y-184853571D01*
X236922142Y-184910714D01*
X236893571Y-185025000D01*
X236893571Y-185167857D01*
X236922142Y-185282142D01*
X236950714Y-185339285D01*
X236979285Y-185367857D01*
X237036428Y-185396428D01*
X237093571Y-185396428D01*
X237150714Y-185367857D01*
X237179285Y-185339285D01*
X237207857Y-185282142D01*
X237236428Y-185167857D01*
X237236428Y-185025000D01*
X237207857Y-184910714D01*
X237179285Y-184853571D01*
X237150714Y-184825000D01*
X237093571Y-184796428D01*
X236665000Y-184853571D02*
X236636428Y-184825000D01*
X236579285Y-184796428D01*
X236436428Y-184796428D01*
X236379285Y-184825000D01*
X236350714Y-184853571D01*
X236322142Y-184910714D01*
X236322142Y-184967857D01*
X236350714Y-185053571D01*
X236693571Y-185396428D01*
X236322142Y-185396428D01*
X240205000Y-184796428D02*
X240147857Y-184796428D01*
X240090714Y-184825000D01*
X240062142Y-184853571D01*
X240033571Y-184910714D01*
X240005000Y-185025000D01*
X240005000Y-185167857D01*
X240033571Y-185282142D01*
X240062142Y-185339285D01*
X240090714Y-185367857D01*
X240147857Y-185396428D01*
X240205000Y-185396428D01*
X240262142Y-185367857D01*
X240290714Y-185339285D01*
X240319285Y-185282142D01*
X240347857Y-185167857D01*
X240347857Y-185025000D01*
X240319285Y-184910714D01*
X240290714Y-184853571D01*
X240262142Y-184825000D01*
X240205000Y-184796428D01*
X239633571Y-184796428D02*
X239576428Y-184796428D01*
X239519285Y-184825000D01*
X239490714Y-184853571D01*
X239462142Y-184910714D01*
X239433571Y-185025000D01*
X239433571Y-185167857D01*
X239462142Y-185282142D01*
X239490714Y-185339285D01*
X239519285Y-185367857D01*
X239576428Y-185396428D01*
X239633571Y-185396428D01*
X239690714Y-185367857D01*
X239719285Y-185339285D01*
X239747857Y-185282142D01*
X239776428Y-185167857D01*
X239776428Y-185025000D01*
X239747857Y-184910714D01*
X239719285Y-184853571D01*
X239690714Y-184825000D01*
X239633571Y-184796428D01*
X239233571Y-184796428D02*
X238862142Y-184796428D01*
X239062142Y-185025000D01*
X238976428Y-185025000D01*
X238919285Y-185053571D01*
X238890714Y-185082142D01*
X238862142Y-185139285D01*
X238862142Y-185282142D01*
X238890714Y-185339285D01*
X238919285Y-185367857D01*
X238976428Y-185396428D01*
X239147857Y-185396428D01*
X239205000Y-185367857D01*
X239233571Y-185339285D01*
X242745000Y-184796428D02*
X242687857Y-184796428D01*
X242630714Y-184825000D01*
X242602142Y-184853571D01*
X242573571Y-184910714D01*
X242545000Y-185025000D01*
X242545000Y-185167857D01*
X242573571Y-185282142D01*
X242602142Y-185339285D01*
X242630714Y-185367857D01*
X242687857Y-185396428D01*
X242745000Y-185396428D01*
X242802142Y-185367857D01*
X242830714Y-185339285D01*
X242859285Y-185282142D01*
X242887857Y-185167857D01*
X242887857Y-185025000D01*
X242859285Y-184910714D01*
X242830714Y-184853571D01*
X242802142Y-184825000D01*
X242745000Y-184796428D01*
X242173571Y-184796428D02*
X242116428Y-184796428D01*
X242059285Y-184825000D01*
X242030714Y-184853571D01*
X242002142Y-184910714D01*
X241973571Y-185025000D01*
X241973571Y-185167857D01*
X242002142Y-185282142D01*
X242030714Y-185339285D01*
X242059285Y-185367857D01*
X242116428Y-185396428D01*
X242173571Y-185396428D01*
X242230714Y-185367857D01*
X242259285Y-185339285D01*
X242287857Y-185282142D01*
X242316428Y-185167857D01*
X242316428Y-185025000D01*
X242287857Y-184910714D01*
X242259285Y-184853571D01*
X242230714Y-184825000D01*
X242173571Y-184796428D01*
X241459285Y-184996428D02*
X241459285Y-185396428D01*
X241602142Y-184767857D02*
X241745000Y-185196428D01*
X241373571Y-185196428D01*
X245285000Y-184796428D02*
X245227857Y-184796428D01*
X245170714Y-184825000D01*
X245142142Y-184853571D01*
X245113571Y-184910714D01*
X245085000Y-185025000D01*
X245085000Y-185167857D01*
X245113571Y-185282142D01*
X245142142Y-185339285D01*
X245170714Y-185367857D01*
X245227857Y-185396428D01*
X245285000Y-185396428D01*
X245342142Y-185367857D01*
X245370714Y-185339285D01*
X245399285Y-185282142D01*
X245427857Y-185167857D01*
X245427857Y-185025000D01*
X245399285Y-184910714D01*
X245370714Y-184853571D01*
X245342142Y-184825000D01*
X245285000Y-184796428D01*
X244713571Y-184796428D02*
X244656428Y-184796428D01*
X244599285Y-184825000D01*
X244570714Y-184853571D01*
X244542142Y-184910714D01*
X244513571Y-185025000D01*
X244513571Y-185167857D01*
X244542142Y-185282142D01*
X244570714Y-185339285D01*
X244599285Y-185367857D01*
X244656428Y-185396428D01*
X244713571Y-185396428D01*
X244770714Y-185367857D01*
X244799285Y-185339285D01*
X244827857Y-185282142D01*
X244856428Y-185167857D01*
X244856428Y-185025000D01*
X244827857Y-184910714D01*
X244799285Y-184853571D01*
X244770714Y-184825000D01*
X244713571Y-184796428D01*
X243970714Y-184796428D02*
X244256428Y-184796428D01*
X244285000Y-185082142D01*
X244256428Y-185053571D01*
X244199285Y-185025000D01*
X244056428Y-185025000D01*
X243999285Y-185053571D01*
X243970714Y-185082142D01*
X243942142Y-185139285D01*
X243942142Y-185282142D01*
X243970714Y-185339285D01*
X243999285Y-185367857D01*
X244056428Y-185396428D01*
X244199285Y-185396428D01*
X244256428Y-185367857D01*
X244285000Y-185339285D01*
X247825000Y-184796428D02*
X247767857Y-184796428D01*
X247710714Y-184825000D01*
X247682142Y-184853571D01*
X247653571Y-184910714D01*
X247625000Y-185025000D01*
X247625000Y-185167857D01*
X247653571Y-185282142D01*
X247682142Y-185339285D01*
X247710714Y-185367857D01*
X247767857Y-185396428D01*
X247825000Y-185396428D01*
X247882142Y-185367857D01*
X247910714Y-185339285D01*
X247939285Y-185282142D01*
X247967857Y-185167857D01*
X247967857Y-185025000D01*
X247939285Y-184910714D01*
X247910714Y-184853571D01*
X247882142Y-184825000D01*
X247825000Y-184796428D01*
X247396428Y-184853571D02*
X247367857Y-184825000D01*
X247310714Y-184796428D01*
X247167857Y-184796428D01*
X247110714Y-184825000D01*
X247082142Y-184853571D01*
X247053571Y-184910714D01*
X247053571Y-184967857D01*
X247082142Y-185053571D01*
X247425000Y-185396428D01*
X247053571Y-185396428D01*
X246710714Y-185053571D02*
X246767857Y-185025000D01*
X246796428Y-184996428D01*
X246825000Y-184939285D01*
X246825000Y-184910714D01*
X246796428Y-184853571D01*
X246767857Y-184825000D01*
X246710714Y-184796428D01*
X246596428Y-184796428D01*
X246539285Y-184825000D01*
X246510714Y-184853571D01*
X246482142Y-184910714D01*
X246482142Y-184939285D01*
X246510714Y-184996428D01*
X246539285Y-185025000D01*
X246596428Y-185053571D01*
X246710714Y-185053571D01*
X246767857Y-185082142D01*
X246796428Y-185110714D01*
X246825000Y-185167857D01*
X246825000Y-185282142D01*
X246796428Y-185339285D01*
X246767857Y-185367857D01*
X246710714Y-185396428D01*
X246596428Y-185396428D01*
X246539285Y-185367857D01*
X246510714Y-185339285D01*
X246482142Y-185282142D01*
X246482142Y-185167857D01*
X246510714Y-185110714D01*
X246539285Y-185082142D01*
X246596428Y-185053571D01*
X250365000Y-184796428D02*
X250307857Y-184796428D01*
X250250714Y-184825000D01*
X250222142Y-184853571D01*
X250193571Y-184910714D01*
X250165000Y-185025000D01*
X250165000Y-185167857D01*
X250193571Y-185282142D01*
X250222142Y-185339285D01*
X250250714Y-185367857D01*
X250307857Y-185396428D01*
X250365000Y-185396428D01*
X250422142Y-185367857D01*
X250450714Y-185339285D01*
X250479285Y-185282142D01*
X250507857Y-185167857D01*
X250507857Y-185025000D01*
X250479285Y-184910714D01*
X250450714Y-184853571D01*
X250422142Y-184825000D01*
X250365000Y-184796428D01*
X249936428Y-184853571D02*
X249907857Y-184825000D01*
X249850714Y-184796428D01*
X249707857Y-184796428D01*
X249650714Y-184825000D01*
X249622142Y-184853571D01*
X249593571Y-184910714D01*
X249593571Y-184967857D01*
X249622142Y-185053571D01*
X249965000Y-185396428D01*
X249593571Y-185396428D01*
X249307857Y-185396428D02*
X249193571Y-185396428D01*
X249136428Y-185367857D01*
X249107857Y-185339285D01*
X249050714Y-185253571D01*
X249022142Y-185139285D01*
X249022142Y-184910714D01*
X249050714Y-184853571D01*
X249079285Y-184825000D01*
X249136428Y-184796428D01*
X249250714Y-184796428D01*
X249307857Y-184825000D01*
X249336428Y-184853571D01*
X249365000Y-184910714D01*
X249365000Y-185053571D01*
X249336428Y-185110714D01*
X249307857Y-185139285D01*
X249250714Y-185167857D01*
X249136428Y-185167857D01*
X249079285Y-185139285D01*
X249050714Y-185110714D01*
X249022142Y-185053571D01*
X252905000Y-184796428D02*
X252847857Y-184796428D01*
X252790714Y-184825000D01*
X252762142Y-184853571D01*
X252733571Y-184910714D01*
X252705000Y-185025000D01*
X252705000Y-185167857D01*
X252733571Y-185282142D01*
X252762142Y-185339285D01*
X252790714Y-185367857D01*
X252847857Y-185396428D01*
X252905000Y-185396428D01*
X252962142Y-185367857D01*
X252990714Y-185339285D01*
X253019285Y-185282142D01*
X253047857Y-185167857D01*
X253047857Y-185025000D01*
X253019285Y-184910714D01*
X252990714Y-184853571D01*
X252962142Y-184825000D01*
X252905000Y-184796428D01*
X252505000Y-184796428D02*
X252133571Y-184796428D01*
X252333571Y-185025000D01*
X252247857Y-185025000D01*
X252190714Y-185053571D01*
X252162142Y-185082142D01*
X252133571Y-185139285D01*
X252133571Y-185282142D01*
X252162142Y-185339285D01*
X252190714Y-185367857D01*
X252247857Y-185396428D01*
X252419285Y-185396428D01*
X252476428Y-185367857D01*
X252505000Y-185339285D01*
X251762142Y-184796428D02*
X251705000Y-184796428D01*
X251647857Y-184825000D01*
X251619285Y-184853571D01*
X251590714Y-184910714D01*
X251562142Y-185025000D01*
X251562142Y-185167857D01*
X251590714Y-185282142D01*
X251619285Y-185339285D01*
X251647857Y-185367857D01*
X251705000Y-185396428D01*
X251762142Y-185396428D01*
X251819285Y-185367857D01*
X251847857Y-185339285D01*
X251876428Y-185282142D01*
X251905000Y-185167857D01*
X251905000Y-185025000D01*
X251876428Y-184910714D01*
X251847857Y-184853571D01*
X251819285Y-184825000D01*
X251762142Y-184796428D01*
X255445000Y-184796428D02*
X255387857Y-184796428D01*
X255330714Y-184825000D01*
X255302142Y-184853571D01*
X255273571Y-184910714D01*
X255245000Y-185025000D01*
X255245000Y-185167857D01*
X255273571Y-185282142D01*
X255302142Y-185339285D01*
X255330714Y-185367857D01*
X255387857Y-185396428D01*
X255445000Y-185396428D01*
X255502142Y-185367857D01*
X255530714Y-185339285D01*
X255559285Y-185282142D01*
X255587857Y-185167857D01*
X255587857Y-185025000D01*
X255559285Y-184910714D01*
X255530714Y-184853571D01*
X255502142Y-184825000D01*
X255445000Y-184796428D01*
X255045000Y-184796428D02*
X254673571Y-184796428D01*
X254873571Y-185025000D01*
X254787857Y-185025000D01*
X254730714Y-185053571D01*
X254702142Y-185082142D01*
X254673571Y-185139285D01*
X254673571Y-185282142D01*
X254702142Y-185339285D01*
X254730714Y-185367857D01*
X254787857Y-185396428D01*
X254959285Y-185396428D01*
X255016428Y-185367857D01*
X255045000Y-185339285D01*
X254102142Y-185396428D02*
X254445000Y-185396428D01*
X254273571Y-185396428D02*
X254273571Y-184796428D01*
X254330714Y-184882142D01*
X254387857Y-184939285D01*
X254445000Y-184967857D01*
X258185000Y-184796428D02*
X257985000Y-185396428D01*
X257785000Y-184796428D01*
X257585000Y-185396428D02*
X257585000Y-184796428D01*
X257442142Y-184796428D01*
X257356428Y-184825000D01*
X257299285Y-184882142D01*
X257270714Y-184939285D01*
X257242142Y-185053571D01*
X257242142Y-185139285D01*
X257270714Y-185253571D01*
X257299285Y-185310714D01*
X257356428Y-185367857D01*
X257442142Y-185396428D01*
X257585000Y-185396428D01*
X256985000Y-185396428D02*
X256985000Y-184796428D01*
X256842142Y-184796428D01*
X256756428Y-184825000D01*
X256699285Y-184882142D01*
X256670714Y-184939285D01*
X256642142Y-185053571D01*
X256642142Y-185139285D01*
X256670714Y-185253571D01*
X256699285Y-185310714D01*
X256756428Y-185367857D01*
X256842142Y-185396428D01*
X256985000Y-185396428D01*
X260382142Y-184825000D02*
X260439285Y-184796428D01*
X260525000Y-184796428D01*
X260610714Y-184825000D01*
X260667857Y-184882142D01*
X260696428Y-184939285D01*
X260725000Y-185053571D01*
X260725000Y-185139285D01*
X260696428Y-185253571D01*
X260667857Y-185310714D01*
X260610714Y-185367857D01*
X260525000Y-185396428D01*
X260467857Y-185396428D01*
X260382142Y-185367857D01*
X260353571Y-185339285D01*
X260353571Y-185139285D01*
X260467857Y-185139285D01*
X260096428Y-185396428D02*
X260096428Y-184796428D01*
X259753571Y-185396428D01*
X259753571Y-184796428D01*
X259467857Y-185396428D02*
X259467857Y-184796428D01*
X259325000Y-184796428D01*
X259239285Y-184825000D01*
X259182142Y-184882142D01*
X259153571Y-184939285D01*
X259125000Y-185053571D01*
X259125000Y-185139285D01*
X259153571Y-185253571D01*
X259182142Y-185310714D01*
X259239285Y-185367857D01*
X259325000Y-185396428D01*
X259467857Y-185396428D01*
D11*
%TO.C,G\u002A\u002A\u002A*%
G36*
X107680630Y-180191675D02*
G01*
X107651216Y-180195842D01*
X107641803Y-180206351D01*
X107645460Y-180226115D01*
X107646380Y-180229034D01*
X107656078Y-180265973D01*
X107658655Y-180284067D01*
X107658583Y-180305138D01*
X107658312Y-180355158D01*
X107657872Y-180429212D01*
X107657291Y-180522382D01*
X107656600Y-180629752D01*
X107656117Y-180703167D01*
X107653450Y-181105333D01*
X106061716Y-181105333D01*
X106061716Y-180190934D01*
X105958305Y-180190934D01*
X105901867Y-180191912D01*
X105872815Y-180196284D01*
X105864693Y-180206202D01*
X105869405Y-180220567D01*
X105872068Y-180242411D01*
X105874719Y-180295102D01*
X105877304Y-180375619D01*
X105879768Y-180480943D01*
X105882057Y-180608054D01*
X105884117Y-180753932D01*
X105885894Y-180915556D01*
X105887334Y-181089907D01*
X105888382Y-181273964D01*
X105888408Y-181279776D01*
X105892899Y-182309352D01*
X106070183Y-182299134D01*
X106079139Y-181257734D01*
X106866050Y-181257734D01*
X107652960Y-181257733D01*
X107657438Y-181778434D01*
X107661916Y-182299134D01*
X107839716Y-182309370D01*
X107839716Y-180190934D01*
X107736975Y-180190934D01*
X107680630Y-180191675D01*
G37*
X107680630Y-180191675D02*
X107651216Y-180195842D01*
X107641803Y-180206351D01*
X107645460Y-180226115D01*
X107646380Y-180229034D01*
X107656078Y-180265973D01*
X107658655Y-180284067D01*
X107658583Y-180305138D01*
X107658312Y-180355158D01*
X107657872Y-180429212D01*
X107657291Y-180522382D01*
X107656600Y-180629752D01*
X107656117Y-180703167D01*
X107653450Y-181105333D01*
X106061716Y-181105333D01*
X106061716Y-180190934D01*
X105958305Y-180190934D01*
X105901867Y-180191912D01*
X105872815Y-180196284D01*
X105864693Y-180206202D01*
X105869405Y-180220567D01*
X105872068Y-180242411D01*
X105874719Y-180295102D01*
X105877304Y-180375619D01*
X105879768Y-180480943D01*
X105882057Y-180608054D01*
X105884117Y-180753932D01*
X105885894Y-180915556D01*
X105887334Y-181089907D01*
X105888382Y-181273964D01*
X105888408Y-181279776D01*
X105892899Y-182309352D01*
X106070183Y-182299134D01*
X106079139Y-181257734D01*
X106866050Y-181257734D01*
X107652960Y-181257733D01*
X107657438Y-181778434D01*
X107661916Y-182299134D01*
X107839716Y-182309370D01*
X107839716Y-180190934D01*
X107736975Y-180190934D01*
X107680630Y-180191675D01*
G36*
X109681217Y-180195306D02*
G01*
X109512652Y-180197690D01*
X109374099Y-180200059D01*
X109261701Y-180202629D01*
X109171602Y-180205614D01*
X109099948Y-180209230D01*
X109042883Y-180213691D01*
X108996552Y-180219213D01*
X108957100Y-180226010D01*
X108920671Y-180234298D01*
X108903907Y-180238660D01*
X108769035Y-180282094D01*
X108661796Y-180333787D01*
X108576342Y-180396896D01*
X108537400Y-180436605D01*
X108470061Y-180536638D01*
X108428185Y-180650478D01*
X108412892Y-180770359D01*
X108425300Y-180888518D01*
X108458752Y-180982380D01*
X108525866Y-181081273D01*
X108620294Y-181168356D01*
X108736448Y-181239856D01*
X108868742Y-181291996D01*
X108944616Y-181310713D01*
X108996569Y-181322574D01*
X109031821Y-181333758D01*
X109041798Y-181340370D01*
X109031843Y-181355823D01*
X109003634Y-181395004D01*
X108959522Y-181454765D01*
X108901857Y-181531957D01*
X108832989Y-181623430D01*
X108755270Y-181726036D01*
X108686383Y-181816534D01*
X108603119Y-181926031D01*
X108526779Y-182027092D01*
X108459717Y-182116550D01*
X108404284Y-182191238D01*
X108362835Y-182247990D01*
X108337721Y-182283638D01*
X108330968Y-182294900D01*
X108346279Y-182301341D01*
X108386397Y-182305573D01*
X108436616Y-182306657D01*
X108542450Y-182305715D01*
X108904432Y-181824057D01*
X109266415Y-181342400D01*
X110159583Y-181342400D01*
X110159583Y-182307600D01*
X110328917Y-182307600D01*
X110328917Y-181190000D01*
X110159583Y-181190000D01*
X109647350Y-181189872D01*
X109512847Y-181189251D01*
X109383994Y-181187557D01*
X109266180Y-181184946D01*
X109164793Y-181181571D01*
X109085223Y-181177587D01*
X109032857Y-181173148D01*
X109025050Y-181172050D01*
X108939604Y-181152607D01*
X108851292Y-181123054D01*
X108771178Y-181087820D01*
X108710326Y-181051335D01*
X108697741Y-181041043D01*
X108643428Y-180971001D01*
X108607660Y-180879928D01*
X108594096Y-180777214D01*
X108594076Y-180775134D01*
X108608122Y-180666628D01*
X108652076Y-180573091D01*
X108726249Y-180494139D01*
X108830952Y-180429391D01*
X108899454Y-180400510D01*
X108925378Y-180392125D01*
X108955708Y-180385289D01*
X108994226Y-180379796D01*
X109044713Y-180375439D01*
X109110952Y-180372010D01*
X109196725Y-180369305D01*
X109305814Y-180367116D01*
X109442001Y-180365237D01*
X109571150Y-180363836D01*
X110159583Y-180357918D01*
X110159583Y-181190000D01*
X110328917Y-181190000D01*
X110328917Y-180186678D01*
X109681217Y-180195306D01*
G37*
X109681217Y-180195306D02*
X109512652Y-180197690D01*
X109374099Y-180200059D01*
X109261701Y-180202629D01*
X109171602Y-180205614D01*
X109099948Y-180209230D01*
X109042883Y-180213691D01*
X108996552Y-180219213D01*
X108957100Y-180226010D01*
X108920671Y-180234298D01*
X108903907Y-180238660D01*
X108769035Y-180282094D01*
X108661796Y-180333787D01*
X108576342Y-180396896D01*
X108537400Y-180436605D01*
X108470061Y-180536638D01*
X108428185Y-180650478D01*
X108412892Y-180770359D01*
X108425300Y-180888518D01*
X108458752Y-180982380D01*
X108525866Y-181081273D01*
X108620294Y-181168356D01*
X108736448Y-181239856D01*
X108868742Y-181291996D01*
X108944616Y-181310713D01*
X108996569Y-181322574D01*
X109031821Y-181333758D01*
X109041798Y-181340370D01*
X109031843Y-181355823D01*
X109003634Y-181395004D01*
X108959522Y-181454765D01*
X108901857Y-181531957D01*
X108832989Y-181623430D01*
X108755270Y-181726036D01*
X108686383Y-181816534D01*
X108603119Y-181926031D01*
X108526779Y-182027092D01*
X108459717Y-182116550D01*
X108404284Y-182191238D01*
X108362835Y-182247990D01*
X108337721Y-182283638D01*
X108330968Y-182294900D01*
X108346279Y-182301341D01*
X108386397Y-182305573D01*
X108436616Y-182306657D01*
X108542450Y-182305715D01*
X108904432Y-181824057D01*
X109266415Y-181342400D01*
X110159583Y-181342400D01*
X110159583Y-182307600D01*
X110328917Y-182307600D01*
X110328917Y-181190000D01*
X110159583Y-181190000D01*
X109647350Y-181189872D01*
X109512847Y-181189251D01*
X109383994Y-181187557D01*
X109266180Y-181184946D01*
X109164793Y-181181571D01*
X109085223Y-181177587D01*
X109032857Y-181173148D01*
X109025050Y-181172050D01*
X108939604Y-181152607D01*
X108851292Y-181123054D01*
X108771178Y-181087820D01*
X108710326Y-181051335D01*
X108697741Y-181041043D01*
X108643428Y-180971001D01*
X108607660Y-180879928D01*
X108594096Y-180777214D01*
X108594076Y-180775134D01*
X108608122Y-180666628D01*
X108652076Y-180573091D01*
X108726249Y-180494139D01*
X108830952Y-180429391D01*
X108899454Y-180400510D01*
X108925378Y-180392125D01*
X108955708Y-180385289D01*
X108994226Y-180379796D01*
X109044713Y-180375439D01*
X109110952Y-180372010D01*
X109196725Y-180369305D01*
X109305814Y-180367116D01*
X109442001Y-180365237D01*
X109571150Y-180363836D01*
X110159583Y-180357918D01*
X110159583Y-181190000D01*
X110328917Y-181190000D01*
X110328917Y-180186678D01*
X109681217Y-180195306D01*
G36*
X111057050Y-180360267D02*
G01*
X112477915Y-180360267D01*
X112486789Y-180415300D01*
X112492975Y-180461430D01*
X112500415Y-180528874D01*
X112508595Y-180611480D01*
X112517003Y-180703099D01*
X112525126Y-180797580D01*
X112532451Y-180888773D01*
X112538467Y-180970526D01*
X112542659Y-181036690D01*
X112544515Y-181081115D01*
X112543660Y-181097567D01*
X112524467Y-181096789D01*
X112486341Y-181084933D01*
X112470959Y-181078832D01*
X112351618Y-181039722D01*
X112209078Y-181010249D01*
X112052801Y-180991096D01*
X111892249Y-180982951D01*
X111736887Y-180986500D01*
X111596177Y-181002426D01*
X111548116Y-181011958D01*
X111385231Y-181061153D01*
X111244788Y-181128718D01*
X111130318Y-181212812D01*
X111094336Y-181248749D01*
X111024948Y-181337981D01*
X110979680Y-181431120D01*
X110955315Y-181537197D01*
X110948602Y-181658016D01*
X110950602Y-181734274D01*
X110958316Y-181791456D01*
X110974988Y-181844262D01*
X111003515Y-181906679D01*
X111081723Y-182027805D01*
X111187036Y-182129445D01*
X111318552Y-182211151D01*
X111475368Y-182272473D01*
X111656581Y-182312963D01*
X111860262Y-182332132D01*
X111951874Y-182333734D01*
X112045388Y-182332013D01*
X112127038Y-182327365D01*
X112164192Y-182323393D01*
X112282195Y-182300502D01*
X112405327Y-182265187D01*
X112526161Y-182220574D01*
X112637270Y-182169791D01*
X112731229Y-182115964D01*
X112800611Y-182062221D01*
X112811868Y-182050688D01*
X112847870Y-182011267D01*
X112765260Y-181947509D01*
X112716658Y-181913405D01*
X112688817Y-181901780D01*
X112682650Y-181907904D01*
X112667258Y-181942363D01*
X112624836Y-181982520D01*
X112561015Y-182025114D01*
X112481424Y-182066884D01*
X112391695Y-182104572D01*
X112297457Y-182134916D01*
X112284897Y-182138221D01*
X112110971Y-182172129D01*
X111943167Y-182184713D01*
X111784058Y-182177402D01*
X111636215Y-182151628D01*
X111502212Y-182108819D01*
X111384619Y-182050405D01*
X111286009Y-181977817D01*
X111208953Y-181892483D01*
X111156025Y-181795834D01*
X111129796Y-181689299D01*
X111132838Y-181574309D01*
X111148382Y-181506435D01*
X111197441Y-181400343D01*
X111275067Y-181311205D01*
X111380222Y-181239528D01*
X111511868Y-181185819D01*
X111668967Y-181150587D01*
X111850482Y-181134336D01*
X111912183Y-181133231D01*
X112066100Y-181138237D01*
X112198792Y-181155584D01*
X112321389Y-181187602D01*
X112445020Y-181236621D01*
X112476615Y-181251431D01*
X112549814Y-181283994D01*
X112602730Y-181300423D01*
X112643505Y-181302997D01*
X112654883Y-181301352D01*
X112681157Y-181296408D01*
X112701902Y-181290450D01*
X112717366Y-181279945D01*
X112727797Y-181261362D01*
X112733446Y-181231169D01*
X112734560Y-181185834D01*
X112731388Y-181121824D01*
X112724179Y-181035607D01*
X112713183Y-180923651D01*
X112698647Y-180782425D01*
X112694360Y-180740879D01*
X112640316Y-180216334D01*
X111057050Y-180207532D01*
X111057050Y-180360267D01*
G37*
X111057050Y-180360267D02*
X112477915Y-180360267D01*
X112486789Y-180415300D01*
X112492975Y-180461430D01*
X112500415Y-180528874D01*
X112508595Y-180611480D01*
X112517003Y-180703099D01*
X112525126Y-180797580D01*
X112532451Y-180888773D01*
X112538467Y-180970526D01*
X112542659Y-181036690D01*
X112544515Y-181081115D01*
X112543660Y-181097567D01*
X112524467Y-181096789D01*
X112486341Y-181084933D01*
X112470959Y-181078832D01*
X112351618Y-181039722D01*
X112209078Y-181010249D01*
X112052801Y-180991096D01*
X111892249Y-180982951D01*
X111736887Y-180986500D01*
X111596177Y-181002426D01*
X111548116Y-181011958D01*
X111385231Y-181061153D01*
X111244788Y-181128718D01*
X111130318Y-181212812D01*
X111094336Y-181248749D01*
X111024948Y-181337981D01*
X110979680Y-181431120D01*
X110955315Y-181537197D01*
X110948602Y-181658016D01*
X110950602Y-181734274D01*
X110958316Y-181791456D01*
X110974988Y-181844262D01*
X111003515Y-181906679D01*
X111081723Y-182027805D01*
X111187036Y-182129445D01*
X111318552Y-182211151D01*
X111475368Y-182272473D01*
X111656581Y-182312963D01*
X111860262Y-182332132D01*
X111951874Y-182333734D01*
X112045388Y-182332013D01*
X112127038Y-182327365D01*
X112164192Y-182323393D01*
X112282195Y-182300502D01*
X112405327Y-182265187D01*
X112526161Y-182220574D01*
X112637270Y-182169791D01*
X112731229Y-182115964D01*
X112800611Y-182062221D01*
X112811868Y-182050688D01*
X112847870Y-182011267D01*
X112765260Y-181947509D01*
X112716658Y-181913405D01*
X112688817Y-181901780D01*
X112682650Y-181907904D01*
X112667258Y-181942363D01*
X112624836Y-181982520D01*
X112561015Y-182025114D01*
X112481424Y-182066884D01*
X112391695Y-182104572D01*
X112297457Y-182134916D01*
X112284897Y-182138221D01*
X112110971Y-182172129D01*
X111943167Y-182184713D01*
X111784058Y-182177402D01*
X111636215Y-182151628D01*
X111502212Y-182108819D01*
X111384619Y-182050405D01*
X111286009Y-181977817D01*
X111208953Y-181892483D01*
X111156025Y-181795834D01*
X111129796Y-181689299D01*
X111132838Y-181574309D01*
X111148382Y-181506435D01*
X111197441Y-181400343D01*
X111275067Y-181311205D01*
X111380222Y-181239528D01*
X111511868Y-181185819D01*
X111668967Y-181150587D01*
X111850482Y-181134336D01*
X111912183Y-181133231D01*
X112066100Y-181138237D01*
X112198792Y-181155584D01*
X112321389Y-181187602D01*
X112445020Y-181236621D01*
X112476615Y-181251431D01*
X112549814Y-181283994D01*
X112602730Y-181300423D01*
X112643505Y-181302997D01*
X112654883Y-181301352D01*
X112681157Y-181296408D01*
X112701902Y-181290450D01*
X112717366Y-181279945D01*
X112727797Y-181261362D01*
X112733446Y-181231169D01*
X112734560Y-181185834D01*
X112731388Y-181121824D01*
X112724179Y-181035607D01*
X112713183Y-180923651D01*
X112698647Y-180782425D01*
X112694360Y-180740879D01*
X112640316Y-180216334D01*
X111057050Y-180207532D01*
X111057050Y-180360267D01*
G36*
X114123646Y-180204600D02*
G01*
X113995553Y-180220417D01*
X113880035Y-180249513D01*
X113767020Y-180294154D01*
X113694785Y-180330102D01*
X113641679Y-180359621D01*
X113616073Y-180382657D01*
X113616460Y-180408055D01*
X113641331Y-180444663D01*
X113669534Y-180478217D01*
X113716618Y-180533429D01*
X113756771Y-180490103D01*
X113811909Y-180445907D01*
X113889903Y-180409606D01*
X113995195Y-180379354D01*
X114051506Y-180367446D01*
X114235799Y-180345784D01*
X114412062Y-180352524D01*
X114577364Y-180386198D01*
X114728773Y-180445340D01*
X114863357Y-180528480D01*
X114978185Y-180634152D01*
X115070326Y-180760888D01*
X115136846Y-180907221D01*
X115138266Y-180911450D01*
X115151380Y-180958477D01*
X115165043Y-181019707D01*
X115177922Y-181087101D01*
X115188682Y-181152617D01*
X115195990Y-181208214D01*
X115198512Y-181245852D01*
X115195715Y-181257734D01*
X115181034Y-181249040D01*
X115146114Y-181226319D01*
X115101585Y-181196554D01*
X114929156Y-181100251D01*
X114739804Y-181031784D01*
X114537453Y-180992296D01*
X114367517Y-180982341D01*
X114190964Y-180994523D01*
X114029868Y-181029703D01*
X113886512Y-181085943D01*
X113763176Y-181161307D01*
X113662142Y-181253858D01*
X113585691Y-181361660D01*
X113536104Y-181482776D01*
X113515662Y-181615270D01*
X113518688Y-181702879D01*
X113548781Y-181835481D01*
X113608195Y-181956389D01*
X113693851Y-182063769D01*
X113802669Y-182155787D01*
X113931571Y-182230610D01*
X114077478Y-182286404D01*
X114237311Y-182321335D01*
X114407991Y-182333569D01*
X114562250Y-182324402D01*
X114746401Y-182288252D01*
X114908302Y-182226907D01*
X115047420Y-182140832D01*
X115163224Y-182030492D01*
X115255182Y-181896350D01*
X115322759Y-181738873D01*
X115350764Y-181636174D01*
X115363525Y-181567922D01*
X115370869Y-181497396D01*
X115372267Y-181450213D01*
X115192958Y-181450213D01*
X115182411Y-181552940D01*
X115155340Y-181673267D01*
X115101549Y-181794217D01*
X115026284Y-181905236D01*
X114983948Y-181952023D01*
X114922964Y-182003349D01*
X114844662Y-182055797D01*
X114759690Y-182103395D01*
X114678698Y-182140170D01*
X114613050Y-182160025D01*
X114542917Y-182167440D01*
X114453374Y-182169952D01*
X114356526Y-182167919D01*
X114264479Y-182161702D01*
X114189339Y-182151658D01*
X114167358Y-182146814D01*
X114040191Y-182103646D01*
X113933031Y-182043392D01*
X113856406Y-181981192D01*
X113785178Y-181906506D01*
X113739730Y-181833206D01*
X113715387Y-181750504D01*
X113707475Y-181647614D01*
X113707410Y-181637406D01*
X113708602Y-181565033D01*
X113714427Y-181514335D01*
X113727700Y-181473167D01*
X113751233Y-181429388D01*
X113758279Y-181417857D01*
X113836001Y-181320598D01*
X113936980Y-181243883D01*
X114062971Y-181186756D01*
X114215728Y-181148264D01*
X114268866Y-181139956D01*
X114432613Y-181132883D01*
X114603609Y-181153099D01*
X114773432Y-181198138D01*
X114933659Y-181265536D01*
X115075866Y-181352826D01*
X115122364Y-181389787D01*
X115192958Y-181450213D01*
X115372267Y-181450213D01*
X115373311Y-181415026D01*
X115371367Y-181311244D01*
X115370107Y-181277049D01*
X115356713Y-181097952D01*
X115330401Y-180944973D01*
X115288857Y-180812065D01*
X115229772Y-180693184D01*
X115150832Y-180582285D01*
X115070711Y-180494118D01*
X114956115Y-180391648D01*
X114837029Y-180313369D01*
X114707843Y-180257207D01*
X114562947Y-180221089D01*
X114396731Y-180202941D01*
X114274383Y-180199800D01*
X114123646Y-180204600D01*
G37*
X114123646Y-180204600D02*
X113995553Y-180220417D01*
X113880035Y-180249513D01*
X113767020Y-180294154D01*
X113694785Y-180330102D01*
X113641679Y-180359621D01*
X113616073Y-180382657D01*
X113616460Y-180408055D01*
X113641331Y-180444663D01*
X113669534Y-180478217D01*
X113716618Y-180533429D01*
X113756771Y-180490103D01*
X113811909Y-180445907D01*
X113889903Y-180409606D01*
X113995195Y-180379354D01*
X114051506Y-180367446D01*
X114235799Y-180345784D01*
X114412062Y-180352524D01*
X114577364Y-180386198D01*
X114728773Y-180445340D01*
X114863357Y-180528480D01*
X114978185Y-180634152D01*
X115070326Y-180760888D01*
X115136846Y-180907221D01*
X115138266Y-180911450D01*
X115151380Y-180958477D01*
X115165043Y-181019707D01*
X115177922Y-181087101D01*
X115188682Y-181152617D01*
X115195990Y-181208214D01*
X115198512Y-181245852D01*
X115195715Y-181257734D01*
X115181034Y-181249040D01*
X115146114Y-181226319D01*
X115101585Y-181196554D01*
X114929156Y-181100251D01*
X114739804Y-181031784D01*
X114537453Y-180992296D01*
X114367517Y-180982341D01*
X114190964Y-180994523D01*
X114029868Y-181029703D01*
X113886512Y-181085943D01*
X113763176Y-181161307D01*
X113662142Y-181253858D01*
X113585691Y-181361660D01*
X113536104Y-181482776D01*
X113515662Y-181615270D01*
X113518688Y-181702879D01*
X113548781Y-181835481D01*
X113608195Y-181956389D01*
X113693851Y-182063769D01*
X113802669Y-182155787D01*
X113931571Y-182230610D01*
X114077478Y-182286404D01*
X114237311Y-182321335D01*
X114407991Y-182333569D01*
X114562250Y-182324402D01*
X114746401Y-182288252D01*
X114908302Y-182226907D01*
X115047420Y-182140832D01*
X115163224Y-182030492D01*
X115255182Y-181896350D01*
X115322759Y-181738873D01*
X115350764Y-181636174D01*
X115363525Y-181567922D01*
X115370869Y-181497396D01*
X115372267Y-181450213D01*
X115192958Y-181450213D01*
X115182411Y-181552940D01*
X115155340Y-181673267D01*
X115101549Y-181794217D01*
X115026284Y-181905236D01*
X114983948Y-181952023D01*
X114922964Y-182003349D01*
X114844662Y-182055797D01*
X114759690Y-182103395D01*
X114678698Y-182140170D01*
X114613050Y-182160025D01*
X114542917Y-182167440D01*
X114453374Y-182169952D01*
X114356526Y-182167919D01*
X114264479Y-182161702D01*
X114189339Y-182151658D01*
X114167358Y-182146814D01*
X114040191Y-182103646D01*
X113933031Y-182043392D01*
X113856406Y-181981192D01*
X113785178Y-181906506D01*
X113739730Y-181833206D01*
X113715387Y-181750504D01*
X113707475Y-181647614D01*
X113707410Y-181637406D01*
X113708602Y-181565033D01*
X113714427Y-181514335D01*
X113727700Y-181473167D01*
X113751233Y-181429388D01*
X113758279Y-181417857D01*
X113836001Y-181320598D01*
X113936980Y-181243883D01*
X114062971Y-181186756D01*
X114215728Y-181148264D01*
X114268866Y-181139956D01*
X114432613Y-181132883D01*
X114603609Y-181153099D01*
X114773432Y-181198138D01*
X114933659Y-181265536D01*
X115075866Y-181352826D01*
X115122364Y-181389787D01*
X115192958Y-181450213D01*
X115372267Y-181450213D01*
X115373311Y-181415026D01*
X115371367Y-181311244D01*
X115370107Y-181277049D01*
X115356713Y-181097952D01*
X115330401Y-180944973D01*
X115288857Y-180812065D01*
X115229772Y-180693184D01*
X115150832Y-180582285D01*
X115070711Y-180494118D01*
X114956115Y-180391648D01*
X114837029Y-180313369D01*
X114707843Y-180257207D01*
X114562947Y-180221089D01*
X114396731Y-180202941D01*
X114274383Y-180199800D01*
X114123646Y-180204600D01*
G36*
X116714995Y-180194730D02*
G01*
X116652969Y-180199285D01*
X116600405Y-180206591D01*
X116553099Y-180216479D01*
X116482361Y-180237375D01*
X116398718Y-180268058D01*
X116311641Y-180304400D01*
X116230596Y-180342273D01*
X116165053Y-180377549D01*
X116130728Y-180400647D01*
X116113458Y-180417315D01*
X116111505Y-180434326D01*
X116127086Y-180460930D01*
X116153318Y-180494894D01*
X116184935Y-180533625D01*
X116207040Y-180558488D01*
X116212979Y-180563467D01*
X116226987Y-180552630D01*
X116256518Y-180525106D01*
X116275057Y-180506906D01*
X116349995Y-180451775D01*
X116453371Y-180405184D01*
X116580566Y-180368312D01*
X116726960Y-180342343D01*
X116887933Y-180328458D01*
X116980691Y-180326400D01*
X117160154Y-180333030D01*
X117311291Y-180353465D01*
X117437052Y-180388523D01*
X117540389Y-180439023D01*
X117622950Y-180504484D01*
X117664627Y-180549217D01*
X117686298Y-180585053D01*
X117694162Y-180624546D01*
X117694853Y-180650139D01*
X117682338Y-180730971D01*
X117642981Y-180802015D01*
X117573842Y-180867842D01*
X117538877Y-180892620D01*
X117485770Y-180925561D01*
X117428176Y-180956054D01*
X117361621Y-180985771D01*
X117281632Y-181016386D01*
X117183735Y-181049570D01*
X117063456Y-181086997D01*
X116916322Y-181130338D01*
X116858678Y-181146920D01*
X116659918Y-181206366D01*
X116492353Y-181262561D01*
X116353657Y-181317101D01*
X116241508Y-181371580D01*
X116153582Y-181427594D01*
X116087554Y-181486737D01*
X116041101Y-181550604D01*
X116011899Y-181620791D01*
X115997623Y-181698891D01*
X115995396Y-181739366D01*
X116008734Y-181860256D01*
X116053519Y-181970030D01*
X116128913Y-182067809D01*
X116234080Y-182152711D01*
X116368185Y-182223857D01*
X116501544Y-182272032D01*
X116549870Y-182283585D01*
X116618554Y-182296234D01*
X116699762Y-182308962D01*
X116785658Y-182320754D01*
X116868408Y-182330596D01*
X116940178Y-182337471D01*
X116993131Y-182340364D01*
X117017583Y-182338912D01*
X117037013Y-182336684D01*
X117082586Y-182332498D01*
X117146684Y-182327033D01*
X117195383Y-182323059D01*
X117288042Y-182312920D01*
X117387026Y-182297777D01*
X117475139Y-182280378D01*
X117499269Y-182274513D01*
X117577016Y-182250482D01*
X117666965Y-182216771D01*
X117759354Y-182177645D01*
X117844422Y-182137369D01*
X117912405Y-182100208D01*
X117939778Y-182082049D01*
X117957043Y-182066899D01*
X117960102Y-182051131D01*
X117946517Y-182026602D01*
X117913852Y-181985170D01*
X117909031Y-181979281D01*
X117845089Y-181901249D01*
X117805241Y-181948605D01*
X117751594Y-181994761D01*
X117670753Y-182041082D01*
X117569229Y-182084402D01*
X117453530Y-182121558D01*
X117444419Y-182124019D01*
X117350625Y-182142881D01*
X117233916Y-182157059D01*
X117103822Y-182166254D01*
X116969868Y-182170168D01*
X116841581Y-182168501D01*
X116728490Y-182160956D01*
X116647958Y-182148974D01*
X116511970Y-182110749D01*
X116392400Y-182058582D01*
X116294113Y-181995336D01*
X116221970Y-181923873D01*
X116195451Y-181882594D01*
X116174453Y-181811118D01*
X116174201Y-181729644D01*
X116194113Y-181654478D01*
X116204286Y-181635012D01*
X116235547Y-181592400D01*
X116276950Y-181552937D01*
X116331613Y-181515212D01*
X116402656Y-181477815D01*
X116493196Y-181439335D01*
X116606351Y-181398360D01*
X116745240Y-181353480D01*
X116912982Y-181303283D01*
X116980580Y-181283769D01*
X117147024Y-181234650D01*
X117285133Y-181190438D01*
X117399749Y-181149230D01*
X117495713Y-181109124D01*
X117577865Y-181068217D01*
X117651047Y-181024607D01*
X117667216Y-181013929D01*
X117767294Y-180932557D01*
X117834600Y-180844411D01*
X117869796Y-180748109D01*
X117873544Y-180642270D01*
X117866626Y-180598119D01*
X117830178Y-180496251D01*
X117764880Y-180407760D01*
X117669714Y-180331702D01*
X117543661Y-180267131D01*
X117485795Y-180244818D01*
X117441867Y-180229959D01*
X117400785Y-180218758D01*
X117356483Y-180210565D01*
X117302896Y-180204730D01*
X117233957Y-180200602D01*
X117143601Y-180197530D01*
X117025760Y-180194863D01*
X117018766Y-180194723D01*
X116891803Y-180192734D01*
X116792576Y-180192641D01*
X116714995Y-180194730D01*
G37*
X116714995Y-180194730D02*
X116652969Y-180199285D01*
X116600405Y-180206591D01*
X116553099Y-180216479D01*
X116482361Y-180237375D01*
X116398718Y-180268058D01*
X116311641Y-180304400D01*
X116230596Y-180342273D01*
X116165053Y-180377549D01*
X116130728Y-180400647D01*
X116113458Y-180417315D01*
X116111505Y-180434326D01*
X116127086Y-180460930D01*
X116153318Y-180494894D01*
X116184935Y-180533625D01*
X116207040Y-180558488D01*
X116212979Y-180563467D01*
X116226987Y-180552630D01*
X116256518Y-180525106D01*
X116275057Y-180506906D01*
X116349995Y-180451775D01*
X116453371Y-180405184D01*
X116580566Y-180368312D01*
X116726960Y-180342343D01*
X116887933Y-180328458D01*
X116980691Y-180326400D01*
X117160154Y-180333030D01*
X117311291Y-180353465D01*
X117437052Y-180388523D01*
X117540389Y-180439023D01*
X117622950Y-180504484D01*
X117664627Y-180549217D01*
X117686298Y-180585053D01*
X117694162Y-180624546D01*
X117694853Y-180650139D01*
X117682338Y-180730971D01*
X117642981Y-180802015D01*
X117573842Y-180867842D01*
X117538877Y-180892620D01*
X117485770Y-180925561D01*
X117428176Y-180956054D01*
X117361621Y-180985771D01*
X117281632Y-181016386D01*
X117183735Y-181049570D01*
X117063456Y-181086997D01*
X116916322Y-181130338D01*
X116858678Y-181146920D01*
X116659918Y-181206366D01*
X116492353Y-181262561D01*
X116353657Y-181317101D01*
X116241508Y-181371580D01*
X116153582Y-181427594D01*
X116087554Y-181486737D01*
X116041101Y-181550604D01*
X116011899Y-181620791D01*
X115997623Y-181698891D01*
X115995396Y-181739366D01*
X116008734Y-181860256D01*
X116053519Y-181970030D01*
X116128913Y-182067809D01*
X116234080Y-182152711D01*
X116368185Y-182223857D01*
X116501544Y-182272032D01*
X116549870Y-182283585D01*
X116618554Y-182296234D01*
X116699762Y-182308962D01*
X116785658Y-182320754D01*
X116868408Y-182330596D01*
X116940178Y-182337471D01*
X116993131Y-182340364D01*
X117017583Y-182338912D01*
X117037013Y-182336684D01*
X117082586Y-182332498D01*
X117146684Y-182327033D01*
X117195383Y-182323059D01*
X117288042Y-182312920D01*
X117387026Y-182297777D01*
X117475139Y-182280378D01*
X117499269Y-182274513D01*
X117577016Y-182250482D01*
X117666965Y-182216771D01*
X117759354Y-182177645D01*
X117844422Y-182137369D01*
X117912405Y-182100208D01*
X117939778Y-182082049D01*
X117957043Y-182066899D01*
X117960102Y-182051131D01*
X117946517Y-182026602D01*
X117913852Y-181985170D01*
X117909031Y-181979281D01*
X117845089Y-181901249D01*
X117805241Y-181948605D01*
X117751594Y-181994761D01*
X117670753Y-182041082D01*
X117569229Y-182084402D01*
X117453530Y-182121558D01*
X117444419Y-182124019D01*
X117350625Y-182142881D01*
X117233916Y-182157059D01*
X117103822Y-182166254D01*
X116969868Y-182170168D01*
X116841581Y-182168501D01*
X116728490Y-182160956D01*
X116647958Y-182148974D01*
X116511970Y-182110749D01*
X116392400Y-182058582D01*
X116294113Y-181995336D01*
X116221970Y-181923873D01*
X116195451Y-181882594D01*
X116174453Y-181811118D01*
X116174201Y-181729644D01*
X116194113Y-181654478D01*
X116204286Y-181635012D01*
X116235547Y-181592400D01*
X116276950Y-181552937D01*
X116331613Y-181515212D01*
X116402656Y-181477815D01*
X116493196Y-181439335D01*
X116606351Y-181398360D01*
X116745240Y-181353480D01*
X116912982Y-181303283D01*
X116980580Y-181283769D01*
X117147024Y-181234650D01*
X117285133Y-181190438D01*
X117399749Y-181149230D01*
X117495713Y-181109124D01*
X117577865Y-181068217D01*
X117651047Y-181024607D01*
X117667216Y-181013929D01*
X117767294Y-180932557D01*
X117834600Y-180844411D01*
X117869796Y-180748109D01*
X117873544Y-180642270D01*
X117866626Y-180598119D01*
X117830178Y-180496251D01*
X117764880Y-180407760D01*
X117669714Y-180331702D01*
X117543661Y-180267131D01*
X117485795Y-180244818D01*
X117441867Y-180229959D01*
X117400785Y-180218758D01*
X117356483Y-180210565D01*
X117302896Y-180204730D01*
X117233957Y-180200602D01*
X117143601Y-180197530D01*
X117025760Y-180194863D01*
X117018766Y-180194723D01*
X116891803Y-180192734D01*
X116792576Y-180192641D01*
X116714995Y-180194730D01*
G36*
X173824041Y-181359341D02*
G01*
X171442756Y-183740556D01*
X171442756Y-180565830D01*
X172236402Y-179771978D01*
X173030049Y-178978126D01*
X170643750Y-178978126D01*
X170643750Y-185328125D01*
X171432174Y-185328125D01*
X173813458Y-182946910D01*
X176194743Y-180565695D01*
X176194743Y-183740421D01*
X175401097Y-184534273D01*
X174607450Y-185328125D01*
X176993749Y-185328125D01*
X176993749Y-178978126D01*
X176205325Y-178978126D01*
X173824041Y-181359341D01*
G37*
X173824041Y-181359341D02*
X171442756Y-183740556D01*
X171442756Y-180565830D01*
X172236402Y-179771978D01*
X173030049Y-178978126D01*
X170643750Y-178978126D01*
X170643750Y-185328125D01*
X171432174Y-185328125D01*
X173813458Y-182946910D01*
X176194743Y-180565695D01*
X176194743Y-183740421D01*
X175401097Y-184534273D01*
X174607450Y-185328125D01*
X176993749Y-185328125D01*
X176993749Y-178978126D01*
X176205325Y-178978126D01*
X173824041Y-181359341D01*
G36*
X165737227Y-181849067D02*
G01*
X164208025Y-183538909D01*
X164201583Y-180159225D01*
X163998429Y-180159225D01*
X163916993Y-180159547D01*
X163858409Y-180161269D01*
X163820131Y-180165526D01*
X163799611Y-180173453D01*
X163794303Y-180186184D01*
X163801661Y-180204853D01*
X163819138Y-180230595D01*
X163823850Y-180236998D01*
X163852425Y-180275643D01*
X163859693Y-184173275D01*
X164123737Y-184166075D01*
X167268725Y-180673575D01*
X167275165Y-184172425D01*
X167617975Y-184172425D01*
X167617975Y-180159225D01*
X167442202Y-180159224D01*
X167266428Y-180159224D01*
X165737227Y-181849067D01*
G37*
X165737227Y-181849067D02*
X164208025Y-183538909D01*
X164201583Y-180159225D01*
X163998429Y-180159225D01*
X163916993Y-180159547D01*
X163858409Y-180161269D01*
X163820131Y-180165526D01*
X163799611Y-180173453D01*
X163794303Y-180186184D01*
X163801661Y-180204853D01*
X163819138Y-180230595D01*
X163823850Y-180236998D01*
X163852425Y-180275643D01*
X163859693Y-184173275D01*
X164123737Y-184166075D01*
X167268725Y-180673575D01*
X167275165Y-184172425D01*
X167617975Y-184172425D01*
X167617975Y-180159225D01*
X167442202Y-180159224D01*
X167266428Y-180159224D01*
X165737227Y-181849067D01*
G36*
X161681963Y-181168874D02*
G01*
X161562729Y-181306389D01*
X161448134Y-181438380D01*
X161339275Y-181563592D01*
X161237251Y-181680771D01*
X161143157Y-181788661D01*
X161058093Y-181886009D01*
X160983154Y-181971560D01*
X160919440Y-182044060D01*
X160868046Y-182102253D01*
X160830070Y-182144885D01*
X160806610Y-182170702D01*
X160798800Y-182178525D01*
X160789857Y-182168842D01*
X160766077Y-182140669D01*
X160728528Y-182095319D01*
X160678277Y-182034106D01*
X160616392Y-181958342D01*
X160543941Y-181869341D01*
X160461993Y-181768417D01*
X160371616Y-181656882D01*
X160273876Y-181536050D01*
X160169843Y-181407233D01*
X160060585Y-181271747D01*
X159978313Y-181169598D01*
X159166125Y-180160672D01*
X158964545Y-180159948D01*
X158886916Y-180160059D01*
X158831866Y-180161185D01*
X158796587Y-180163552D01*
X158778271Y-180167384D01*
X158774110Y-180172908D01*
X158775334Y-180175100D01*
X158784300Y-180186419D01*
X158807380Y-180215470D01*
X158844690Y-180262403D01*
X158896351Y-180327365D01*
X158962480Y-180410507D01*
X159043195Y-180511976D01*
X159138615Y-180631922D01*
X159248859Y-180770493D01*
X159374044Y-180927839D01*
X159514290Y-181104109D01*
X159669715Y-181299450D01*
X159840437Y-181514013D01*
X160026575Y-181747945D01*
X160228247Y-182001397D01*
X160445572Y-182274516D01*
X160533926Y-182385552D01*
X160632975Y-182510030D01*
X160632975Y-184172425D01*
X160988575Y-184172425D01*
X160988575Y-182493801D01*
X161969650Y-181348454D01*
X162095898Y-181201054D01*
X162217713Y-181058803D01*
X162334057Y-180922917D01*
X162443890Y-180794609D01*
X162546173Y-180675096D01*
X162639865Y-180565592D01*
X162723929Y-180467313D01*
X162797323Y-180381474D01*
X162859009Y-180309291D01*
X162907947Y-180251978D01*
X162943097Y-180210750D01*
X162963421Y-180186824D01*
X162968156Y-180181165D01*
X162973061Y-180173155D01*
X162970940Y-180167370D01*
X162958562Y-180163450D01*
X162932699Y-180161036D01*
X162890122Y-180159768D01*
X162827600Y-180159287D01*
X162771205Y-180159225D01*
X162556825Y-180159225D01*
X161681963Y-181168874D01*
G37*
X161681963Y-181168874D02*
X161562729Y-181306389D01*
X161448134Y-181438380D01*
X161339275Y-181563592D01*
X161237251Y-181680771D01*
X161143157Y-181788661D01*
X161058093Y-181886009D01*
X160983154Y-181971560D01*
X160919440Y-182044060D01*
X160868046Y-182102253D01*
X160830070Y-182144885D01*
X160806610Y-182170702D01*
X160798800Y-182178525D01*
X160789857Y-182168842D01*
X160766077Y-182140669D01*
X160728528Y-182095319D01*
X160678277Y-182034106D01*
X160616392Y-181958342D01*
X160543941Y-181869341D01*
X160461993Y-181768417D01*
X160371616Y-181656882D01*
X160273876Y-181536050D01*
X160169843Y-181407233D01*
X160060585Y-181271747D01*
X159978313Y-181169598D01*
X159166125Y-180160672D01*
X158964545Y-180159948D01*
X158886916Y-180160059D01*
X158831866Y-180161185D01*
X158796587Y-180163552D01*
X158778271Y-180167384D01*
X158774110Y-180172908D01*
X158775334Y-180175100D01*
X158784300Y-180186419D01*
X158807380Y-180215470D01*
X158844690Y-180262403D01*
X158896351Y-180327365D01*
X158962480Y-180410507D01*
X159043195Y-180511976D01*
X159138615Y-180631922D01*
X159248859Y-180770493D01*
X159374044Y-180927839D01*
X159514290Y-181104109D01*
X159669715Y-181299450D01*
X159840437Y-181514013D01*
X160026575Y-181747945D01*
X160228247Y-182001397D01*
X160445572Y-182274516D01*
X160533926Y-182385552D01*
X160632975Y-182510030D01*
X160632975Y-184172425D01*
X160988575Y-184172425D01*
X160988575Y-182493801D01*
X161969650Y-181348454D01*
X162095898Y-181201054D01*
X162217713Y-181058803D01*
X162334057Y-180922917D01*
X162443890Y-180794609D01*
X162546173Y-180675096D01*
X162639865Y-180565592D01*
X162723929Y-180467313D01*
X162797323Y-180381474D01*
X162859009Y-180309291D01*
X162907947Y-180251978D01*
X162943097Y-180210750D01*
X162963421Y-180186824D01*
X162968156Y-180181165D01*
X162973061Y-180173155D01*
X162970940Y-180167370D01*
X162958562Y-180163450D01*
X162932699Y-180161036D01*
X162890122Y-180159768D01*
X162827600Y-180159287D01*
X162771205Y-180159225D01*
X162556825Y-180159225D01*
X161681963Y-181168874D01*
G36*
X156667400Y-180162497D02*
G01*
X156463133Y-180163297D01*
X156282593Y-180164098D01*
X156124110Y-180164936D01*
X155986011Y-180165843D01*
X155866625Y-180166853D01*
X155764280Y-180168000D01*
X155677304Y-180169318D01*
X155604025Y-180170840D01*
X155542771Y-180172600D01*
X155491872Y-180174632D01*
X155449654Y-180176969D01*
X155414446Y-180179645D01*
X155384576Y-180182694D01*
X155358373Y-180186150D01*
X155338632Y-180189279D01*
X155146087Y-180227719D01*
X154975775Y-180274462D01*
X154825632Y-180330411D01*
X154693592Y-180396471D01*
X154577592Y-180473547D01*
X154475564Y-180562543D01*
X154467125Y-180571037D01*
X154392338Y-180652947D01*
X154334403Y-180731288D01*
X154287891Y-180814679D01*
X154247371Y-180911739D01*
X154240549Y-180930607D01*
X154225618Y-180973894D01*
X154215005Y-181009986D01*
X154207967Y-181044759D01*
X154203760Y-181084089D01*
X154201640Y-181133852D01*
X154200862Y-181199924D01*
X154200738Y-181245075D01*
X154202497Y-181352158D01*
X154209006Y-181439839D01*
X154221565Y-181513879D01*
X154241475Y-181580041D01*
X154270037Y-181644087D01*
X154304633Y-181705370D01*
X154399965Y-181840248D01*
X154512031Y-181958193D01*
X154641564Y-182059646D01*
X154789292Y-182145047D01*
X154955949Y-182214839D01*
X155142264Y-182269462D01*
X155289490Y-182299732D01*
X155340765Y-182308957D01*
X155381552Y-182316914D01*
X155406118Y-182322454D01*
X155410620Y-182324035D01*
X155403676Y-182334478D01*
X155382376Y-182363669D01*
X155347798Y-182410183D01*
X155301018Y-182472595D01*
X155243113Y-182549479D01*
X155175161Y-182639411D01*
X155098239Y-182740964D01*
X155013424Y-182852714D01*
X154921793Y-182973234D01*
X154824423Y-183101101D01*
X154722390Y-183234887D01*
X154715436Y-183243999D01*
X154613047Y-183378208D01*
X154515171Y-183506632D01*
X154422892Y-183627841D01*
X154337295Y-183740405D01*
X154259464Y-183842893D01*
X154190484Y-183933874D01*
X154131439Y-184011918D01*
X154083414Y-184075594D01*
X154047494Y-184123471D01*
X154024763Y-184154119D01*
X154016305Y-184166108D01*
X154016275Y-184166205D01*
X154028287Y-184168248D01*
X154061570Y-184170010D01*
X154111994Y-184171369D01*
X154175433Y-184172208D01*
X154231660Y-184172425D01*
X154447044Y-184172425D01*
X155823346Y-182343625D01*
X157521475Y-182343625D01*
X157521475Y-184172425D01*
X157864375Y-184172425D01*
X157864375Y-181248559D01*
X157521475Y-181248559D01*
X157521342Y-181387557D01*
X157520958Y-181518980D01*
X157520347Y-181640634D01*
X157519531Y-181750327D01*
X157518534Y-181845867D01*
X157517380Y-181925061D01*
X157516092Y-181985717D01*
X157514693Y-182025643D01*
X157513207Y-182042646D01*
X157513009Y-182043058D01*
X157498749Y-182044898D01*
X157461527Y-182046487D01*
X157403780Y-182047832D01*
X157327943Y-182048936D01*
X157236452Y-182049805D01*
X157131745Y-182050443D01*
X157016258Y-182050854D01*
X156892427Y-182051044D01*
X156762689Y-182051018D01*
X156629480Y-182050780D01*
X156495236Y-182050335D01*
X156362394Y-182049687D01*
X156233391Y-182048842D01*
X156110662Y-182047804D01*
X155996644Y-182046578D01*
X155893774Y-182045169D01*
X155804488Y-182043581D01*
X155731222Y-182041819D01*
X155676413Y-182039889D01*
X155667275Y-182039452D01*
X155489014Y-182026563D01*
X155332298Y-182006816D01*
X155194040Y-181979546D01*
X155071152Y-181944089D01*
X154960546Y-181899780D01*
X154915816Y-181877748D01*
X154837997Y-181829674D01*
X154761270Y-181769057D01*
X154693245Y-181702602D01*
X154641530Y-181637011D01*
X154640158Y-181634890D01*
X154585339Y-181526638D01*
X154551533Y-181408185D01*
X154538904Y-181283837D01*
X154547615Y-181157898D01*
X154577830Y-181034674D01*
X154614106Y-180947812D01*
X154673088Y-180849608D01*
X154746191Y-180764123D01*
X154835199Y-180690276D01*
X154941893Y-180626985D01*
X155068057Y-180573171D01*
X155215474Y-180527754D01*
X155362475Y-180494214D01*
X155384773Y-180490254D01*
X155410437Y-180486772D01*
X155441249Y-180483725D01*
X155478991Y-180481072D01*
X155525446Y-180478770D01*
X155582397Y-180476779D01*
X155651625Y-180475056D01*
X155734914Y-180473559D01*
X155834045Y-180472247D01*
X155950801Y-180471079D01*
X156086964Y-180470011D01*
X156244318Y-180469003D01*
X156424643Y-180468013D01*
X156495950Y-180467651D01*
X157521475Y-180462527D01*
X157521475Y-181248559D01*
X157864375Y-181248559D01*
X157864375Y-180158024D01*
X156667400Y-180162497D01*
G37*
X156667400Y-180162497D02*
X156463133Y-180163297D01*
X156282593Y-180164098D01*
X156124110Y-180164936D01*
X155986011Y-180165843D01*
X155866625Y-180166853D01*
X155764280Y-180168000D01*
X155677304Y-180169318D01*
X155604025Y-180170840D01*
X155542771Y-180172600D01*
X155491872Y-180174632D01*
X155449654Y-180176969D01*
X155414446Y-180179645D01*
X155384576Y-180182694D01*
X155358373Y-180186150D01*
X155338632Y-180189279D01*
X155146087Y-180227719D01*
X154975775Y-180274462D01*
X154825632Y-180330411D01*
X154693592Y-180396471D01*
X154577592Y-180473547D01*
X154475564Y-180562543D01*
X154467125Y-180571037D01*
X154392338Y-180652947D01*
X154334403Y-180731288D01*
X154287891Y-180814679D01*
X154247371Y-180911739D01*
X154240549Y-180930607D01*
X154225618Y-180973894D01*
X154215005Y-181009986D01*
X154207967Y-181044759D01*
X154203760Y-181084089D01*
X154201640Y-181133852D01*
X154200862Y-181199924D01*
X154200738Y-181245075D01*
X154202497Y-181352158D01*
X154209006Y-181439839D01*
X154221565Y-181513879D01*
X154241475Y-181580041D01*
X154270037Y-181644087D01*
X154304633Y-181705370D01*
X154399965Y-181840248D01*
X154512031Y-181958193D01*
X154641564Y-182059646D01*
X154789292Y-182145047D01*
X154955949Y-182214839D01*
X155142264Y-182269462D01*
X155289490Y-182299732D01*
X155340765Y-182308957D01*
X155381552Y-182316914D01*
X155406118Y-182322454D01*
X155410620Y-182324035D01*
X155403676Y-182334478D01*
X155382376Y-182363669D01*
X155347798Y-182410183D01*
X155301018Y-182472595D01*
X155243113Y-182549479D01*
X155175161Y-182639411D01*
X155098239Y-182740964D01*
X155013424Y-182852714D01*
X154921793Y-182973234D01*
X154824423Y-183101101D01*
X154722390Y-183234887D01*
X154715436Y-183243999D01*
X154613047Y-183378208D01*
X154515171Y-183506632D01*
X154422892Y-183627841D01*
X154337295Y-183740405D01*
X154259464Y-183842893D01*
X154190484Y-183933874D01*
X154131439Y-184011918D01*
X154083414Y-184075594D01*
X154047494Y-184123471D01*
X154024763Y-184154119D01*
X154016305Y-184166108D01*
X154016275Y-184166205D01*
X154028287Y-184168248D01*
X154061570Y-184170010D01*
X154111994Y-184171369D01*
X154175433Y-184172208D01*
X154231660Y-184172425D01*
X154447044Y-184172425D01*
X155823346Y-182343625D01*
X157521475Y-182343625D01*
X157521475Y-184172425D01*
X157864375Y-184172425D01*
X157864375Y-181248559D01*
X157521475Y-181248559D01*
X157521342Y-181387557D01*
X157520958Y-181518980D01*
X157520347Y-181640634D01*
X157519531Y-181750327D01*
X157518534Y-181845867D01*
X157517380Y-181925061D01*
X157516092Y-181985717D01*
X157514693Y-182025643D01*
X157513207Y-182042646D01*
X157513009Y-182043058D01*
X157498749Y-182044898D01*
X157461527Y-182046487D01*
X157403780Y-182047832D01*
X157327943Y-182048936D01*
X157236452Y-182049805D01*
X157131745Y-182050443D01*
X157016258Y-182050854D01*
X156892427Y-182051044D01*
X156762689Y-182051018D01*
X156629480Y-182050780D01*
X156495236Y-182050335D01*
X156362394Y-182049687D01*
X156233391Y-182048842D01*
X156110662Y-182047804D01*
X155996644Y-182046578D01*
X155893774Y-182045169D01*
X155804488Y-182043581D01*
X155731222Y-182041819D01*
X155676413Y-182039889D01*
X155667275Y-182039452D01*
X155489014Y-182026563D01*
X155332298Y-182006816D01*
X155194040Y-181979546D01*
X155071152Y-181944089D01*
X154960546Y-181899780D01*
X154915816Y-181877748D01*
X154837997Y-181829674D01*
X154761270Y-181769057D01*
X154693245Y-181702602D01*
X154641530Y-181637011D01*
X154640158Y-181634890D01*
X154585339Y-181526638D01*
X154551533Y-181408185D01*
X154538904Y-181283837D01*
X154547615Y-181157898D01*
X154577830Y-181034674D01*
X154614106Y-180947812D01*
X154673088Y-180849608D01*
X154746191Y-180764123D01*
X154835199Y-180690276D01*
X154941893Y-180626985D01*
X155068057Y-180573171D01*
X155215474Y-180527754D01*
X155362475Y-180494214D01*
X155384773Y-180490254D01*
X155410437Y-180486772D01*
X155441249Y-180483725D01*
X155478991Y-180481072D01*
X155525446Y-180478770D01*
X155582397Y-180476779D01*
X155651625Y-180475056D01*
X155734914Y-180473559D01*
X155834045Y-180472247D01*
X155950801Y-180471079D01*
X156086964Y-180470011D01*
X156244318Y-180469003D01*
X156424643Y-180468013D01*
X156495950Y-180467651D01*
X157521475Y-180462527D01*
X157521475Y-181248559D01*
X157864375Y-181248559D01*
X157864375Y-180158024D01*
X156667400Y-180162497D01*
G36*
X149380775Y-180451325D02*
G01*
X152695475Y-180451325D01*
X152695475Y-181924525D01*
X149901475Y-181924525D01*
X149901475Y-182229325D01*
X152695475Y-182229325D01*
X152695475Y-183867625D01*
X149406175Y-183867625D01*
X149406175Y-184172425D01*
X153038375Y-184172425D01*
X153038375Y-180146525D01*
X149380775Y-180146525D01*
X149380775Y-180451325D01*
G37*
X149380775Y-180451325D02*
X152695475Y-180451325D01*
X152695475Y-181924525D01*
X149901475Y-181924525D01*
X149901475Y-182229325D01*
X152695475Y-182229325D01*
X152695475Y-183867625D01*
X149406175Y-183867625D01*
X149406175Y-184172425D01*
X153038375Y-184172425D01*
X153038375Y-180146525D01*
X149380775Y-180146525D01*
X149380775Y-180451325D01*
G36*
X147888525Y-180146771D02*
G01*
X147791696Y-180257773D01*
X147719600Y-180340244D01*
X147639188Y-180431916D01*
X147551876Y-180531195D01*
X147459082Y-180636487D01*
X147362221Y-180746199D01*
X147262710Y-180858737D01*
X147161965Y-180972509D01*
X147061403Y-181085921D01*
X146962440Y-181197379D01*
X146866492Y-181305291D01*
X146774977Y-181408062D01*
X146689311Y-181504099D01*
X146610909Y-181591810D01*
X146541188Y-181669600D01*
X146481566Y-181735877D01*
X146433457Y-181789046D01*
X146398280Y-181827516D01*
X146377449Y-181849691D01*
X146372116Y-181854675D01*
X146362472Y-181845318D01*
X146337368Y-181818156D01*
X146298009Y-181774554D01*
X146245600Y-181715874D01*
X146181345Y-181643480D01*
X146106451Y-181558735D01*
X146022122Y-181463003D01*
X145929563Y-181357648D01*
X145829980Y-181244033D01*
X145724578Y-181123521D01*
X145621941Y-181005938D01*
X145512059Y-180880062D01*
X145406778Y-180759700D01*
X145307312Y-180646225D01*
X145214878Y-180541015D01*
X145130690Y-180445445D01*
X145055965Y-180360890D01*
X144991919Y-180288726D01*
X144939766Y-180230329D01*
X144900722Y-180187075D01*
X144876003Y-180160339D01*
X144866945Y-180151508D01*
X144849538Y-180149726D01*
X144811637Y-180148656D01*
X144758143Y-180148351D01*
X144693953Y-180148863D01*
X144664426Y-180149345D01*
X144476743Y-180152875D01*
X146129285Y-182107587D01*
X146099665Y-182139881D01*
X146078378Y-182163385D01*
X146042590Y-182203261D01*
X145993648Y-182257991D01*
X145932897Y-182326060D01*
X145861682Y-182405955D01*
X145781349Y-182496158D01*
X145693243Y-182595154D01*
X145598711Y-182701428D01*
X145499097Y-182813466D01*
X145395748Y-182929750D01*
X145290009Y-183048766D01*
X145183225Y-183168998D01*
X145076742Y-183288932D01*
X144971907Y-183407051D01*
X144870064Y-183521840D01*
X144772558Y-183631784D01*
X144680737Y-183735367D01*
X144595945Y-183831074D01*
X144519527Y-183917389D01*
X144452830Y-183992797D01*
X144397200Y-184055784D01*
X144353980Y-184104832D01*
X144324519Y-184138427D01*
X144310160Y-184155054D01*
X144308970Y-184156550D01*
X144310529Y-184162474D01*
X144325294Y-184166812D01*
X144355966Y-184169767D01*
X144405246Y-184171539D01*
X144475836Y-184172332D01*
X144520986Y-184172425D01*
X144742696Y-184172425D01*
X145523934Y-183304463D01*
X145638347Y-183177337D01*
X145748354Y-183055078D01*
X145852709Y-182939075D01*
X145950163Y-182830717D01*
X146039470Y-182731390D01*
X146119383Y-182642482D01*
X146188653Y-182565382D01*
X146246033Y-182501477D01*
X146290277Y-182452155D01*
X146320136Y-182418804D01*
X146334363Y-182402811D01*
X146334849Y-182402254D01*
X146364525Y-182368005D01*
X147043975Y-183158182D01*
X147151253Y-183282952D01*
X147255664Y-183404406D01*
X147355746Y-183520843D01*
X147450035Y-183630558D01*
X147537068Y-183731848D01*
X147615381Y-183823009D01*
X147683512Y-183902339D01*
X147739995Y-183968134D01*
X147783369Y-184018690D01*
X147812169Y-184052304D01*
X147818675Y-184059915D01*
X147913925Y-184171471D01*
X148126650Y-184171948D01*
X148196947Y-184171747D01*
X148257445Y-184170889D01*
X148303990Y-184169489D01*
X148332428Y-184167662D01*
X148339375Y-184166069D01*
X148331324Y-184155728D01*
X148307886Y-184127318D01*
X148270138Y-184082112D01*
X148219156Y-184021384D01*
X148156014Y-183946408D01*
X148081790Y-183858458D01*
X147997559Y-183758807D01*
X147904397Y-183648729D01*
X147803380Y-183529499D01*
X147695582Y-183402389D01*
X147582081Y-183268674D01*
X147475775Y-183143538D01*
X147358009Y-183004847D01*
X147244980Y-182871504D01*
X147137767Y-182744794D01*
X147037446Y-182626000D01*
X146945095Y-182516404D01*
X146861790Y-182417290D01*
X146788610Y-182329942D01*
X146726630Y-182255642D01*
X146676929Y-182195674D01*
X146640582Y-182151321D01*
X146618668Y-182123866D01*
X146612175Y-182114671D01*
X146620367Y-182103544D01*
X146644197Y-182074625D01*
X146682545Y-182029207D01*
X146734293Y-181968587D01*
X146798322Y-181894059D01*
X146873512Y-181806920D01*
X146958745Y-181708465D01*
X147052901Y-181599988D01*
X147154862Y-181482785D01*
X147263509Y-181358152D01*
X147377723Y-181227384D01*
X147454051Y-181140126D01*
X147571453Y-181005947D01*
X147684186Y-180877014D01*
X147791116Y-180754632D01*
X147891107Y-180640101D01*
X147983024Y-180534725D01*
X148065735Y-180439807D01*
X148138103Y-180356649D01*
X148198993Y-180286553D01*
X148247273Y-180230822D01*
X148281806Y-180190759D01*
X148301459Y-180167667D01*
X148305700Y-180162400D01*
X148304216Y-180156382D01*
X148289424Y-180152014D01*
X148258582Y-180149084D01*
X148208950Y-180147379D01*
X148137785Y-180146687D01*
X148102000Y-180146648D01*
X147888525Y-180146771D01*
G37*
X147888525Y-180146771D02*
X147791696Y-180257773D01*
X147719600Y-180340244D01*
X147639188Y-180431916D01*
X147551876Y-180531195D01*
X147459082Y-180636487D01*
X147362221Y-180746199D01*
X147262710Y-180858737D01*
X147161965Y-180972509D01*
X147061403Y-181085921D01*
X146962440Y-181197379D01*
X146866492Y-181305291D01*
X146774977Y-181408062D01*
X146689311Y-181504099D01*
X146610909Y-181591810D01*
X146541188Y-181669600D01*
X146481566Y-181735877D01*
X146433457Y-181789046D01*
X146398280Y-181827516D01*
X146377449Y-181849691D01*
X146372116Y-181854675D01*
X146362472Y-181845318D01*
X146337368Y-181818156D01*
X146298009Y-181774554D01*
X146245600Y-181715874D01*
X146181345Y-181643480D01*
X146106451Y-181558735D01*
X146022122Y-181463003D01*
X145929563Y-181357648D01*
X145829980Y-181244033D01*
X145724578Y-181123521D01*
X145621941Y-181005938D01*
X145512059Y-180880062D01*
X145406778Y-180759700D01*
X145307312Y-180646225D01*
X145214878Y-180541015D01*
X145130690Y-180445445D01*
X145055965Y-180360890D01*
X144991919Y-180288726D01*
X144939766Y-180230329D01*
X144900722Y-180187075D01*
X144876003Y-180160339D01*
X144866945Y-180151508D01*
X144849538Y-180149726D01*
X144811637Y-180148656D01*
X144758143Y-180148351D01*
X144693953Y-180148863D01*
X144664426Y-180149345D01*
X144476743Y-180152875D01*
X146129285Y-182107587D01*
X146099665Y-182139881D01*
X146078378Y-182163385D01*
X146042590Y-182203261D01*
X145993648Y-182257991D01*
X145932897Y-182326060D01*
X145861682Y-182405955D01*
X145781349Y-182496158D01*
X145693243Y-182595154D01*
X145598711Y-182701428D01*
X145499097Y-182813466D01*
X145395748Y-182929750D01*
X145290009Y-183048766D01*
X145183225Y-183168998D01*
X145076742Y-183288932D01*
X144971907Y-183407051D01*
X144870064Y-183521840D01*
X144772558Y-183631784D01*
X144680737Y-183735367D01*
X144595945Y-183831074D01*
X144519527Y-183917389D01*
X144452830Y-183992797D01*
X144397200Y-184055784D01*
X144353980Y-184104832D01*
X144324519Y-184138427D01*
X144310160Y-184155054D01*
X144308970Y-184156550D01*
X144310529Y-184162474D01*
X144325294Y-184166812D01*
X144355966Y-184169767D01*
X144405246Y-184171539D01*
X144475836Y-184172332D01*
X144520986Y-184172425D01*
X144742696Y-184172425D01*
X145523934Y-183304463D01*
X145638347Y-183177337D01*
X145748354Y-183055078D01*
X145852709Y-182939075D01*
X145950163Y-182830717D01*
X146039470Y-182731390D01*
X146119383Y-182642482D01*
X146188653Y-182565382D01*
X146246033Y-182501477D01*
X146290277Y-182452155D01*
X146320136Y-182418804D01*
X146334363Y-182402811D01*
X146334849Y-182402254D01*
X146364525Y-182368005D01*
X147043975Y-183158182D01*
X147151253Y-183282952D01*
X147255664Y-183404406D01*
X147355746Y-183520843D01*
X147450035Y-183630558D01*
X147537068Y-183731848D01*
X147615381Y-183823009D01*
X147683512Y-183902339D01*
X147739995Y-183968134D01*
X147783369Y-184018690D01*
X147812169Y-184052304D01*
X147818675Y-184059915D01*
X147913925Y-184171471D01*
X148126650Y-184171948D01*
X148196947Y-184171747D01*
X148257445Y-184170889D01*
X148303990Y-184169489D01*
X148332428Y-184167662D01*
X148339375Y-184166069D01*
X148331324Y-184155728D01*
X148307886Y-184127318D01*
X148270138Y-184082112D01*
X148219156Y-184021384D01*
X148156014Y-183946408D01*
X148081790Y-183858458D01*
X147997559Y-183758807D01*
X147904397Y-183648729D01*
X147803380Y-183529499D01*
X147695582Y-183402389D01*
X147582081Y-183268674D01*
X147475775Y-183143538D01*
X147358009Y-183004847D01*
X147244980Y-182871504D01*
X147137767Y-182744794D01*
X147037446Y-182626000D01*
X146945095Y-182516404D01*
X146861790Y-182417290D01*
X146788610Y-182329942D01*
X146726630Y-182255642D01*
X146676929Y-182195674D01*
X146640582Y-182151321D01*
X146618668Y-182123866D01*
X146612175Y-182114671D01*
X146620367Y-182103544D01*
X146644197Y-182074625D01*
X146682545Y-182029207D01*
X146734293Y-181968587D01*
X146798322Y-181894059D01*
X146873512Y-181806920D01*
X146958745Y-181708465D01*
X147052901Y-181599988D01*
X147154862Y-181482785D01*
X147263509Y-181358152D01*
X147377723Y-181227384D01*
X147454051Y-181140126D01*
X147571453Y-181005947D01*
X147684186Y-180877014D01*
X147791116Y-180754632D01*
X147891107Y-180640101D01*
X147983024Y-180534725D01*
X148065735Y-180439807D01*
X148138103Y-180356649D01*
X148198993Y-180286553D01*
X148247273Y-180230822D01*
X148281806Y-180190759D01*
X148301459Y-180167667D01*
X148305700Y-180162400D01*
X148304216Y-180156382D01*
X148289424Y-180152014D01*
X148258582Y-180149084D01*
X148208950Y-180147379D01*
X148137785Y-180146687D01*
X148102000Y-180146648D01*
X147888525Y-180146771D01*
D12*
%TO.C,J1*%
X242293750Y-126612500D02*
X242493750Y-127012500D01*
X242093750Y-127012500D02*
X242293750Y-126612500D01*
X240893750Y-126812500D02*
X241293750Y-126812500D01*
X239693750Y-126812500D02*
X240093750Y-126812500D01*
X239893750Y-127012500D02*
X239893750Y-126612500D01*
X237083750Y-122572500D02*
X237083750Y-125902500D01*
X237083750Y-125902500D02*
X238133750Y-125902500D01*
X243903750Y-122572500D02*
X243903750Y-125902500D01*
X243903750Y-125902500D02*
X242853750Y-125902500D01*
X238153750Y-121182500D02*
X238653750Y-121182500D01*
X238653750Y-121182500D02*
X238953750Y-121682500D01*
X238953750Y-121682500D02*
X242033750Y-121682500D01*
X242033750Y-121682500D02*
X242333750Y-121182500D01*
X242333750Y-121182500D02*
X242833750Y-121182500D01*
X238693750Y-126812500D02*
X238893750Y-126812500D01*
X238893750Y-126812500D02*
G75*
G03*
X238693750Y-127012500I-200000J0D01*
G01*
%TO.C,U1*%
X128865000Y-173740000D02*
X129425000Y-173740000D01*
X128865000Y-173740000D02*
X128865000Y-174300000D01*
X128865000Y-180960000D02*
X128865000Y-180400000D01*
X128865000Y-180960000D02*
X129425000Y-180960000D01*
X136085000Y-180960000D02*
X135525000Y-180960000D01*
X136085000Y-180960000D02*
X136085000Y-180400000D01*
X136085000Y-173740000D02*
X135525000Y-173740000D01*
%TO.C,C1*%
X141285000Y-182009420D02*
X141285000Y-182290580D01*
X140265000Y-182009420D02*
X140265000Y-182290580D01*
%TO.C,C2*%
X130835000Y-181992164D02*
X130835000Y-182207836D01*
X130115000Y-181992164D02*
X130115000Y-182207836D01*
%TO.C,C3*%
X129115000Y-181992164D02*
X129115000Y-182207836D01*
X129835000Y-181992164D02*
X129835000Y-182207836D01*
%TO.C,C4*%
X130487836Y-173460000D02*
X130272164Y-173460000D01*
X130487836Y-172740000D02*
X130272164Y-172740000D01*
%TO.C,C5*%
X137584420Y-173860000D02*
X137865580Y-173860000D01*
X137584420Y-172840000D02*
X137865580Y-172840000D01*
%TO.C,C6*%
X138765000Y-182009420D02*
X138765000Y-182290580D01*
X139785000Y-182009420D02*
X139785000Y-182290580D01*
%TO.C,C7*%
X134251000Y-182824580D02*
X134251000Y-182543420D01*
X135271000Y-182824580D02*
X135271000Y-182543420D01*
%TO.C,C8*%
X134366420Y-173288000D02*
X134647580Y-173288000D01*
X134366420Y-172268000D02*
X134647580Y-172268000D01*
%TO.C,C9*%
X126667164Y-174790000D02*
X126882836Y-174790000D01*
X126667164Y-175510000D02*
X126882836Y-175510000D01*
%TO.C,C10*%
X136795000Y-182543420D02*
X136795000Y-182824580D01*
X135775000Y-182543420D02*
X135775000Y-182824580D01*
%TO.C,C11*%
X127852836Y-177240000D02*
X127637164Y-177240000D01*
X127852836Y-177960000D02*
X127637164Y-177960000D01*
%TO.C,C12*%
X127883836Y-174535000D02*
X127668164Y-174535000D01*
X127883836Y-173815000D02*
X127668164Y-173815000D01*
%TO.C,C13*%
X137167164Y-175010000D02*
X137382836Y-175010000D01*
X137167164Y-174290000D02*
X137382836Y-174290000D01*
%TO.C,C14*%
X139467164Y-174290000D02*
X139682836Y-174290000D01*
X139467164Y-175010000D02*
X139682836Y-175010000D01*
%TO.C,C15*%
X141115000Y-176242164D02*
X141115000Y-176457836D01*
X141835000Y-176242164D02*
X141835000Y-176457836D01*
%TO.C,C16*%
X116386250Y-183892164D02*
X116386250Y-184107836D01*
X115666250Y-183892164D02*
X115666250Y-184107836D01*
%TO.C,C17*%
X125585000Y-176207836D02*
X125585000Y-175992164D01*
X124865000Y-176207836D02*
X124865000Y-175992164D01*
%TO.C,C18*%
X127865000Y-176207836D02*
X127865000Y-175992164D01*
X128585000Y-176207836D02*
X128585000Y-175992164D01*
%TO.C,C19*%
X126250000Y-171242164D02*
X126250000Y-171457836D01*
X126970000Y-171242164D02*
X126970000Y-171457836D01*
%TO.C,C20*%
X130250000Y-171457836D02*
X130250000Y-171242164D01*
X130970000Y-171457836D02*
X130970000Y-171242164D01*
%TO.C,D1*%
X98214053Y-98809378D02*
X95832793Y-98809378D01*
X98214053Y-96428118D02*
X98214053Y-98809378D01*
X95832793Y-96428118D02*
X98214053Y-96428118D01*
%TO.C,D2*%
X127979699Y-100000000D02*
X127979699Y-102381260D01*
X127979699Y-102381260D02*
X125598439Y-102381260D01*
X125598439Y-102381260D02*
X125598439Y-100000000D01*
%TO.C,D3*%
X147029715Y-100000000D02*
X147029715Y-102381260D01*
X147029715Y-102381260D02*
X144648455Y-102381260D01*
X144648455Y-102381260D02*
X144648455Y-100000000D01*
%TO.C,D4*%
X166079731Y-100000000D02*
X166079731Y-102381260D01*
X166079731Y-102381260D02*
X163698471Y-102381260D01*
X163698471Y-102381260D02*
X163698471Y-100000000D01*
%TO.C,D5*%
X182748439Y-102381260D02*
X182748439Y-100000000D01*
X185129699Y-102381260D02*
X182748439Y-102381260D01*
X185129699Y-100000000D02*
X185129699Y-102381260D01*
%TO.C,D6*%
X204179715Y-100000000D02*
X204179715Y-102381260D01*
X204179715Y-102381260D02*
X201798455Y-102381260D01*
X201798455Y-102381260D02*
X201798455Y-100000000D01*
%TO.C,D8*%
X232754739Y-100000000D02*
X232754739Y-102381260D01*
X232754739Y-102381260D02*
X230373479Y-102381260D01*
X230373479Y-102381260D02*
X230373479Y-100000000D01*
%TO.C,D9*%
X245256240Y-101190620D02*
X247637500Y-101190620D01*
X245256240Y-103571880D02*
X245256240Y-101190620D01*
X247637500Y-103571880D02*
X245256240Y-103571880D01*
%TO.C,D10*%
X88688997Y-117859394D02*
X86307737Y-117859394D01*
X88688997Y-115478134D02*
X88688997Y-117859394D01*
X86307737Y-115478134D02*
X88688997Y-115478134D01*
%TO.C,D11*%
X116073383Y-121431276D02*
X116073383Y-119050016D01*
X118454643Y-121431276D02*
X116073383Y-121431276D01*
X118454643Y-119050016D02*
X118454643Y-121431276D01*
%TO.C,D12*%
X137504659Y-119050016D02*
X137504659Y-121431276D01*
X137504659Y-121431276D02*
X135123399Y-121431276D01*
X135123399Y-121431276D02*
X135123399Y-119050016D01*
%TO.C,D13*%
X156554675Y-119050016D02*
X156554675Y-121431276D01*
X156554675Y-121431276D02*
X154173415Y-121431276D01*
X154173415Y-121431276D02*
X154173415Y-119050016D01*
%TO.C,D14*%
X175604691Y-119050016D02*
X175604691Y-121431276D01*
X175604691Y-121431276D02*
X173223431Y-121431276D01*
X173223431Y-121431276D02*
X173223431Y-119050016D01*
%TO.C,D15*%
X192273447Y-121431276D02*
X192273447Y-119050016D01*
X194654707Y-121431276D02*
X192273447Y-121431276D01*
X194654707Y-119050016D02*
X194654707Y-121431276D01*
%TO.C,D16*%
X213704723Y-119050016D02*
X213704723Y-121431276D01*
X213704723Y-121431276D02*
X211323463Y-121431276D01*
X211323463Y-121431276D02*
X211323463Y-119050016D01*
%TO.C,D17*%
X230968740Y-120240620D02*
X233350000Y-120240620D01*
X230968740Y-122621880D02*
X230968740Y-120240620D01*
X233350000Y-122621880D02*
X230968740Y-122621880D01*
%TO.C,D18*%
X245256240Y-120240620D02*
X247637500Y-120240620D01*
X245256240Y-122621880D02*
X245256240Y-120240620D01*
X247637500Y-122621880D02*
X245256240Y-122621880D01*
%TO.C,D19*%
X93451501Y-136909410D02*
X91070241Y-136909410D01*
X93451501Y-134528150D02*
X93451501Y-136909410D01*
X91070241Y-134528150D02*
X93451501Y-134528150D01*
%TO.C,D20*%
X120835887Y-140481292D02*
X120835887Y-138100032D01*
X123217147Y-140481292D02*
X120835887Y-140481292D01*
X123217147Y-138100032D02*
X123217147Y-140481292D01*
%TO.C,D21*%
X142267163Y-138100032D02*
X142267163Y-140481292D01*
X142267163Y-140481292D02*
X139885903Y-140481292D01*
X139885903Y-140481292D02*
X139885903Y-138100032D01*
%TO.C,D22*%
X161317179Y-138100032D02*
X161317179Y-140481292D01*
X161317179Y-140481292D02*
X158935919Y-140481292D01*
X158935919Y-140481292D02*
X158935919Y-138100032D01*
%TO.C,D23*%
X180367195Y-138100032D02*
X180367195Y-140481292D01*
X180367195Y-140481292D02*
X177985935Y-140481292D01*
X177985935Y-140481292D02*
X177985935Y-138100032D01*
%TO.C,D24*%
X197035951Y-140481292D02*
X197035951Y-138100032D01*
X199417211Y-140481292D02*
X197035951Y-140481292D01*
X199417211Y-138100032D02*
X199417211Y-140481292D01*
%TO.C,D25*%
X230373487Y-138100032D02*
X230373487Y-140481292D01*
X230373487Y-140481292D02*
X227992227Y-140481292D01*
X227992227Y-140481292D02*
X227992227Y-138100032D01*
%TO.C,D26*%
X245256240Y-139290620D02*
X247637500Y-139290620D01*
X245256240Y-141671880D02*
X245256240Y-139290620D01*
X247637500Y-141671880D02*
X245256240Y-141671880D01*
%TO.C,D27*%
X102976509Y-155959426D02*
X100595249Y-155959426D01*
X102976509Y-153578166D02*
X102976509Y-155959426D01*
X100595249Y-153578166D02*
X102976509Y-153578166D01*
%TO.C,D28*%
X132742155Y-157150048D02*
X132742155Y-159531308D01*
X132742155Y-159531308D02*
X130360895Y-159531308D01*
X130360895Y-159531308D02*
X130360895Y-157150048D01*
%TO.C,D29*%
X149410911Y-159531308D02*
X149410911Y-157150048D01*
X151792171Y-159531308D02*
X149410911Y-159531308D01*
X151792171Y-157150048D02*
X151792171Y-159531308D01*
%TO.C,D30*%
X170842187Y-157150048D02*
X170842187Y-159531308D01*
X170842187Y-159531308D02*
X168460927Y-159531308D01*
X168460927Y-159531308D02*
X168460927Y-157150048D01*
%TO.C,D31*%
X187510943Y-159531308D02*
X187510943Y-157150048D01*
X189892203Y-159531308D02*
X187510943Y-159531308D01*
X189892203Y-157150048D02*
X189892203Y-159531308D01*
%TO.C,D32*%
X216085975Y-157150048D02*
X216085975Y-159531308D01*
X216085975Y-159531308D02*
X213704715Y-159531308D01*
X213704715Y-159531308D02*
X213704715Y-157150048D01*
%TO.C,D33*%
X239898487Y-159531308D02*
X239898487Y-157150048D01*
X242279747Y-159531308D02*
X239898487Y-159531308D01*
X242279747Y-157150048D02*
X242279747Y-159531308D01*
%TO.C,D34*%
X247637500Y-160721880D02*
X245256240Y-160721880D01*
X245256240Y-160721880D02*
X245256240Y-158340620D01*
X245256240Y-158340620D02*
X247637500Y-158340620D01*
%TO.C,D35*%
X120568745Y-174968760D02*
X120568745Y-172587500D01*
X122950005Y-174968760D02*
X120568745Y-174968760D01*
X122950005Y-172587500D02*
X122950005Y-174968760D01*
%TO.C,D36*%
X156554667Y-178581324D02*
X156554667Y-176200064D01*
X158935927Y-178581324D02*
X156554667Y-178581324D01*
X158935927Y-176200064D02*
X158935927Y-178581324D01*
%TO.C,D37*%
X177985935Y-178581324D02*
X177985935Y-176200064D01*
X180367195Y-178581324D02*
X177985935Y-178581324D01*
X180367195Y-176200064D02*
X180367195Y-178581324D01*
%TO.C,D38*%
X201798463Y-176200064D02*
X201798463Y-178581324D01*
X201798463Y-178581324D02*
X199417203Y-178581324D01*
X199417203Y-178581324D02*
X199417203Y-176200064D01*
%TO.C,D39*%
X223229731Y-176200064D02*
X223229731Y-178581324D01*
X223229731Y-178581324D02*
X220848471Y-178581324D01*
X220848471Y-178581324D02*
X220848471Y-176200064D01*
%TO.C,D40*%
X242279747Y-176200064D02*
X242279747Y-178581324D01*
X242279747Y-178581324D02*
X239898487Y-178581324D01*
X239898487Y-178581324D02*
X239898487Y-176200064D01*
%TO.C,D41*%
X247637500Y-179771880D02*
X245256240Y-179771880D01*
X245256240Y-179771880D02*
X245256240Y-177390620D01*
X245256240Y-177390620D02*
X247637500Y-177390620D01*
%TO.C,D100*%
X87831240Y-171390630D02*
X90212500Y-171390630D01*
X87831240Y-169009370D02*
X90212500Y-169009370D01*
X87831240Y-171390630D02*
X87831240Y-169009370D01*
%TO.C,D101*%
X87831240Y-174390630D02*
X90212500Y-174390630D01*
X87831240Y-172009370D02*
X90212500Y-172009370D01*
X87831240Y-174390630D02*
X87831240Y-172009370D01*
%TO.C,D102*%
X87831240Y-177390630D02*
X90212500Y-177390630D01*
X87831240Y-175009370D02*
X90212500Y-175009370D01*
X87831240Y-177390630D02*
X87831240Y-175009370D01*
%TO.C,D103*%
X87831240Y-180390630D02*
X87831240Y-178009370D01*
X87831240Y-178009370D02*
X90212500Y-178009370D01*
X87831240Y-180390630D02*
X90212500Y-180390630D01*
%TO.C,D104*%
X87831240Y-183390630D02*
X87831240Y-181009370D01*
X87831240Y-181009370D02*
X90212500Y-181009370D01*
X87831240Y-183390630D02*
X90212500Y-183390630D01*
%TO.C,L2*%
X137392221Y-172272000D02*
X137717779Y-172272000D01*
X137392221Y-171252000D02*
X137717779Y-171252000D01*
%TO.C,L3*%
X138285000Y-181987221D02*
X138285000Y-182312779D01*
X137265000Y-181987221D02*
X137265000Y-182312779D01*
%TO.C,R1*%
X93975242Y-172677500D02*
X94449758Y-172677500D01*
X93975242Y-173722500D02*
X94449758Y-173722500D01*
%TO.C,R2*%
X93975242Y-175222500D02*
X94449758Y-175222500D01*
X93975242Y-174177500D02*
X94449758Y-174177500D01*
%TO.C,R3*%
X93975242Y-175677500D02*
X94449758Y-175677500D01*
X93975242Y-176722500D02*
X94449758Y-176722500D01*
%TO.C,R4*%
X93975242Y-177177500D02*
X94449758Y-177177500D01*
X93975242Y-178222500D02*
X94449758Y-178222500D01*
%TO.C,R5*%
X93975242Y-179722500D02*
X94449758Y-179722500D01*
X93975242Y-178677500D02*
X94449758Y-178677500D01*
%TO.C,R6*%
X116676250Y-184123641D02*
X116676250Y-183816359D01*
X117436250Y-184123641D02*
X117436250Y-183816359D01*
%TO.C,SW100*%
X220612500Y-154950000D02*
X220612500Y-159350000D01*
X217512500Y-159350000D02*
X217512500Y-154950000D01*
%TO.C,Y1*%
X138300000Y-177225000D02*
X139650000Y-177225000D01*
X138300000Y-175475000D02*
X139650000Y-175475000D01*
%TO.C,Y2*%
X127260000Y-172500000D02*
X127260000Y-170200000D01*
X127260000Y-170200000D02*
X129960000Y-170200000D01*
%TO.C,SW6*%
D10*
X191820833Y-102786011D02*
X191677976Y-102833630D01*
X191439880Y-102833630D01*
X191344642Y-102786011D01*
X191297023Y-102738392D01*
X191249404Y-102643154D01*
X191249404Y-102547916D01*
X191297023Y-102452678D01*
X191344642Y-102405059D01*
X191439880Y-102357440D01*
X191630357Y-102309821D01*
X191725595Y-102262202D01*
X191773214Y-102214583D01*
X191820833Y-102119345D01*
X191820833Y-102024107D01*
X191773214Y-101928869D01*
X191725595Y-101881250D01*
X191630357Y-101833630D01*
X191392261Y-101833630D01*
X191249404Y-101881250D01*
X190916071Y-101833630D02*
X190677976Y-102833630D01*
X190487500Y-102119345D01*
X190297023Y-102833630D01*
X190058928Y-101833630D01*
X189249404Y-101833630D02*
X189439880Y-101833630D01*
X189535119Y-101881250D01*
X189582738Y-101928869D01*
X189677976Y-102071726D01*
X189725595Y-102262202D01*
X189725595Y-102643154D01*
X189677976Y-102738392D01*
X189630357Y-102786011D01*
X189535119Y-102833630D01*
X189344642Y-102833630D01*
X189249404Y-102786011D01*
X189201785Y-102738392D01*
X189154166Y-102643154D01*
X189154166Y-102405059D01*
X189201785Y-102309821D01*
X189249404Y-102262202D01*
X189344642Y-102214583D01*
X189535119Y-102214583D01*
X189630357Y-102262202D01*
X189677976Y-102309821D01*
X189725595Y-102405059D01*
%TO.C,SW24*%
X187534523Y-140886011D02*
X187391666Y-140933630D01*
X187153571Y-140933630D01*
X187058333Y-140886011D01*
X187010714Y-140838392D01*
X186963095Y-140743154D01*
X186963095Y-140647916D01*
X187010714Y-140552678D01*
X187058333Y-140505059D01*
X187153571Y-140457440D01*
X187344047Y-140409821D01*
X187439285Y-140362202D01*
X187486904Y-140314583D01*
X187534523Y-140219345D01*
X187534523Y-140124107D01*
X187486904Y-140028869D01*
X187439285Y-139981250D01*
X187344047Y-139933630D01*
X187105952Y-139933630D01*
X186963095Y-139981250D01*
X186629761Y-139933630D02*
X186391666Y-140933630D01*
X186201190Y-140219345D01*
X186010714Y-140933630D01*
X185772619Y-139933630D01*
X185439285Y-140028869D02*
X185391666Y-139981250D01*
X185296428Y-139933630D01*
X185058333Y-139933630D01*
X184963095Y-139981250D01*
X184915476Y-140028869D01*
X184867857Y-140124107D01*
X184867857Y-140219345D01*
X184915476Y-140362202D01*
X185486904Y-140933630D01*
X184867857Y-140933630D01*
X184010714Y-140266964D02*
X184010714Y-140933630D01*
X184248809Y-139886011D02*
X184486904Y-140600297D01*
X183867857Y-140600297D01*
%TO.C,SW23*%
X168484523Y-140886011D02*
X168341666Y-140933630D01*
X168103571Y-140933630D01*
X168008333Y-140886011D01*
X167960714Y-140838392D01*
X167913095Y-140743154D01*
X167913095Y-140647916D01*
X167960714Y-140552678D01*
X168008333Y-140505059D01*
X168103571Y-140457440D01*
X168294047Y-140409821D01*
X168389285Y-140362202D01*
X168436904Y-140314583D01*
X168484523Y-140219345D01*
X168484523Y-140124107D01*
X168436904Y-140028869D01*
X168389285Y-139981250D01*
X168294047Y-139933630D01*
X168055952Y-139933630D01*
X167913095Y-139981250D01*
X167579761Y-139933630D02*
X167341666Y-140933630D01*
X167151190Y-140219345D01*
X166960714Y-140933630D01*
X166722619Y-139933630D01*
X166389285Y-140028869D02*
X166341666Y-139981250D01*
X166246428Y-139933630D01*
X166008333Y-139933630D01*
X165913095Y-139981250D01*
X165865476Y-140028869D01*
X165817857Y-140124107D01*
X165817857Y-140219345D01*
X165865476Y-140362202D01*
X166436904Y-140933630D01*
X165817857Y-140933630D01*
X165484523Y-139933630D02*
X164865476Y-139933630D01*
X165198809Y-140314583D01*
X165055952Y-140314583D01*
X164960714Y-140362202D01*
X164913095Y-140409821D01*
X164865476Y-140505059D01*
X164865476Y-140743154D01*
X164913095Y-140838392D01*
X164960714Y-140886011D01*
X165055952Y-140933630D01*
X165341666Y-140933630D01*
X165436904Y-140886011D01*
X165484523Y-140838392D01*
%TO.C,SW1*%
X106095833Y-98023511D02*
X105952976Y-98071130D01*
X105714880Y-98071130D01*
X105619642Y-98023511D01*
X105572023Y-97975892D01*
X105524404Y-97880654D01*
X105524404Y-97785416D01*
X105572023Y-97690178D01*
X105619642Y-97642559D01*
X105714880Y-97594940D01*
X105905357Y-97547321D01*
X106000595Y-97499702D01*
X106048214Y-97452083D01*
X106095833Y-97356845D01*
X106095833Y-97261607D01*
X106048214Y-97166369D01*
X106000595Y-97118750D01*
X105905357Y-97071130D01*
X105667261Y-97071130D01*
X105524404Y-97118750D01*
X105191071Y-97071130D02*
X104952976Y-98071130D01*
X104762500Y-97356845D01*
X104572023Y-98071130D01*
X104333928Y-97071130D01*
X103429166Y-98071130D02*
X104000595Y-98071130D01*
X103714880Y-98071130D02*
X103714880Y-97071130D01*
X103810119Y-97213988D01*
X103905357Y-97309226D01*
X104000595Y-97356845D01*
%TO.C,SW2*%
X115620833Y-102786011D02*
X115477976Y-102833630D01*
X115239880Y-102833630D01*
X115144642Y-102786011D01*
X115097023Y-102738392D01*
X115049404Y-102643154D01*
X115049404Y-102547916D01*
X115097023Y-102452678D01*
X115144642Y-102405059D01*
X115239880Y-102357440D01*
X115430357Y-102309821D01*
X115525595Y-102262202D01*
X115573214Y-102214583D01*
X115620833Y-102119345D01*
X115620833Y-102024107D01*
X115573214Y-101928869D01*
X115525595Y-101881250D01*
X115430357Y-101833630D01*
X115192261Y-101833630D01*
X115049404Y-101881250D01*
X114716071Y-101833630D02*
X114477976Y-102833630D01*
X114287500Y-102119345D01*
X114097023Y-102833630D01*
X113858928Y-101833630D01*
X113525595Y-101928869D02*
X113477976Y-101881250D01*
X113382738Y-101833630D01*
X113144642Y-101833630D01*
X113049404Y-101881250D01*
X113001785Y-101928869D01*
X112954166Y-102024107D01*
X112954166Y-102119345D01*
X113001785Y-102262202D01*
X113573214Y-102833630D01*
X112954166Y-102833630D01*
%TO.C,SW3*%
X134670833Y-102786011D02*
X134527976Y-102833630D01*
X134289880Y-102833630D01*
X134194642Y-102786011D01*
X134147023Y-102738392D01*
X134099404Y-102643154D01*
X134099404Y-102547916D01*
X134147023Y-102452678D01*
X134194642Y-102405059D01*
X134289880Y-102357440D01*
X134480357Y-102309821D01*
X134575595Y-102262202D01*
X134623214Y-102214583D01*
X134670833Y-102119345D01*
X134670833Y-102024107D01*
X134623214Y-101928869D01*
X134575595Y-101881250D01*
X134480357Y-101833630D01*
X134242261Y-101833630D01*
X134099404Y-101881250D01*
X133766071Y-101833630D02*
X133527976Y-102833630D01*
X133337500Y-102119345D01*
X133147023Y-102833630D01*
X132908928Y-101833630D01*
X132623214Y-101833630D02*
X132004166Y-101833630D01*
X132337500Y-102214583D01*
X132194642Y-102214583D01*
X132099404Y-102262202D01*
X132051785Y-102309821D01*
X132004166Y-102405059D01*
X132004166Y-102643154D01*
X132051785Y-102738392D01*
X132099404Y-102786011D01*
X132194642Y-102833630D01*
X132480357Y-102833630D01*
X132575595Y-102786011D01*
X132623214Y-102738392D01*
%TO.C,SW4*%
X153720833Y-102786011D02*
X153577976Y-102833630D01*
X153339880Y-102833630D01*
X153244642Y-102786011D01*
X153197023Y-102738392D01*
X153149404Y-102643154D01*
X153149404Y-102547916D01*
X153197023Y-102452678D01*
X153244642Y-102405059D01*
X153339880Y-102357440D01*
X153530357Y-102309821D01*
X153625595Y-102262202D01*
X153673214Y-102214583D01*
X153720833Y-102119345D01*
X153720833Y-102024107D01*
X153673214Y-101928869D01*
X153625595Y-101881250D01*
X153530357Y-101833630D01*
X153292261Y-101833630D01*
X153149404Y-101881250D01*
X152816071Y-101833630D02*
X152577976Y-102833630D01*
X152387500Y-102119345D01*
X152197023Y-102833630D01*
X151958928Y-101833630D01*
X151149404Y-102166964D02*
X151149404Y-102833630D01*
X151387500Y-101786011D02*
X151625595Y-102500297D01*
X151006547Y-102500297D01*
%TO.C,SW5*%
X172770833Y-102786011D02*
X172627976Y-102833630D01*
X172389880Y-102833630D01*
X172294642Y-102786011D01*
X172247023Y-102738392D01*
X172199404Y-102643154D01*
X172199404Y-102547916D01*
X172247023Y-102452678D01*
X172294642Y-102405059D01*
X172389880Y-102357440D01*
X172580357Y-102309821D01*
X172675595Y-102262202D01*
X172723214Y-102214583D01*
X172770833Y-102119345D01*
X172770833Y-102024107D01*
X172723214Y-101928869D01*
X172675595Y-101881250D01*
X172580357Y-101833630D01*
X172342261Y-101833630D01*
X172199404Y-101881250D01*
X171866071Y-101833630D02*
X171627976Y-102833630D01*
X171437500Y-102119345D01*
X171247023Y-102833630D01*
X171008928Y-101833630D01*
X170151785Y-101833630D02*
X170627976Y-101833630D01*
X170675595Y-102309821D01*
X170627976Y-102262202D01*
X170532738Y-102214583D01*
X170294642Y-102214583D01*
X170199404Y-102262202D01*
X170151785Y-102309821D01*
X170104166Y-102405059D01*
X170104166Y-102643154D01*
X170151785Y-102738392D01*
X170199404Y-102786011D01*
X170294642Y-102833630D01*
X170532738Y-102833630D01*
X170627976Y-102786011D01*
X170675595Y-102738392D01*
%TO.C,SW8*%
X220395833Y-102786011D02*
X220252976Y-102833630D01*
X220014880Y-102833630D01*
X219919642Y-102786011D01*
X219872023Y-102738392D01*
X219824404Y-102643154D01*
X219824404Y-102547916D01*
X219872023Y-102452678D01*
X219919642Y-102405059D01*
X220014880Y-102357440D01*
X220205357Y-102309821D01*
X220300595Y-102262202D01*
X220348214Y-102214583D01*
X220395833Y-102119345D01*
X220395833Y-102024107D01*
X220348214Y-101928869D01*
X220300595Y-101881250D01*
X220205357Y-101833630D01*
X219967261Y-101833630D01*
X219824404Y-101881250D01*
X219491071Y-101833630D02*
X219252976Y-102833630D01*
X219062500Y-102119345D01*
X218872023Y-102833630D01*
X218633928Y-101833630D01*
X218110119Y-102262202D02*
X218205357Y-102214583D01*
X218252976Y-102166964D01*
X218300595Y-102071726D01*
X218300595Y-102024107D01*
X218252976Y-101928869D01*
X218205357Y-101881250D01*
X218110119Y-101833630D01*
X217919642Y-101833630D01*
X217824404Y-101881250D01*
X217776785Y-101928869D01*
X217729166Y-102024107D01*
X217729166Y-102071726D01*
X217776785Y-102166964D01*
X217824404Y-102214583D01*
X217919642Y-102262202D01*
X218110119Y-102262202D01*
X218205357Y-102309821D01*
X218252976Y-102357440D01*
X218300595Y-102452678D01*
X218300595Y-102643154D01*
X218252976Y-102738392D01*
X218205357Y-102786011D01*
X218110119Y-102833630D01*
X217919642Y-102833630D01*
X217824404Y-102786011D01*
X217776785Y-102738392D01*
X217729166Y-102643154D01*
X217729166Y-102452678D01*
X217776785Y-102357440D01*
X217824404Y-102309821D01*
X217919642Y-102262202D01*
%TO.C,SW9*%
X258495833Y-102786011D02*
X258352976Y-102833630D01*
X258114880Y-102833630D01*
X258019642Y-102786011D01*
X257972023Y-102738392D01*
X257924404Y-102643154D01*
X257924404Y-102547916D01*
X257972023Y-102452678D01*
X258019642Y-102405059D01*
X258114880Y-102357440D01*
X258305357Y-102309821D01*
X258400595Y-102262202D01*
X258448214Y-102214583D01*
X258495833Y-102119345D01*
X258495833Y-102024107D01*
X258448214Y-101928869D01*
X258400595Y-101881250D01*
X258305357Y-101833630D01*
X258067261Y-101833630D01*
X257924404Y-101881250D01*
X257591071Y-101833630D02*
X257352976Y-102833630D01*
X257162500Y-102119345D01*
X256972023Y-102833630D01*
X256733928Y-101833630D01*
X256305357Y-102833630D02*
X256114880Y-102833630D01*
X256019642Y-102786011D01*
X255972023Y-102738392D01*
X255876785Y-102595535D01*
X255829166Y-102405059D01*
X255829166Y-102024107D01*
X255876785Y-101928869D01*
X255924404Y-101881250D01*
X256019642Y-101833630D01*
X256210119Y-101833630D01*
X256305357Y-101881250D01*
X256352976Y-101928869D01*
X256400595Y-102024107D01*
X256400595Y-102262202D01*
X256352976Y-102357440D01*
X256305357Y-102405059D01*
X256210119Y-102452678D01*
X256019642Y-102452678D01*
X255924404Y-102405059D01*
X255876785Y-102357440D01*
X255829166Y-102262202D01*
%TO.C,SW10*%
X97047023Y-117073511D02*
X96904166Y-117121130D01*
X96666071Y-117121130D01*
X96570833Y-117073511D01*
X96523214Y-117025892D01*
X96475595Y-116930654D01*
X96475595Y-116835416D01*
X96523214Y-116740178D01*
X96570833Y-116692559D01*
X96666071Y-116644940D01*
X96856547Y-116597321D01*
X96951785Y-116549702D01*
X96999404Y-116502083D01*
X97047023Y-116406845D01*
X97047023Y-116311607D01*
X96999404Y-116216369D01*
X96951785Y-116168750D01*
X96856547Y-116121130D01*
X96618452Y-116121130D01*
X96475595Y-116168750D01*
X96142261Y-116121130D02*
X95904166Y-117121130D01*
X95713690Y-116406845D01*
X95523214Y-117121130D01*
X95285119Y-116121130D01*
X94380357Y-117121130D02*
X94951785Y-117121130D01*
X94666071Y-117121130D02*
X94666071Y-116121130D01*
X94761309Y-116263988D01*
X94856547Y-116359226D01*
X94951785Y-116406845D01*
X93761309Y-116121130D02*
X93666071Y-116121130D01*
X93570833Y-116168750D01*
X93523214Y-116216369D01*
X93475595Y-116311607D01*
X93427976Y-116502083D01*
X93427976Y-116740178D01*
X93475595Y-116930654D01*
X93523214Y-117025892D01*
X93570833Y-117073511D01*
X93666071Y-117121130D01*
X93761309Y-117121130D01*
X93856547Y-117073511D01*
X93904166Y-117025892D01*
X93951785Y-116930654D01*
X93999404Y-116740178D01*
X93999404Y-116502083D01*
X93951785Y-116311607D01*
X93904166Y-116216369D01*
X93856547Y-116168750D01*
X93761309Y-116121130D01*
%TO.C,SW11*%
X106572023Y-121836011D02*
X106429166Y-121883630D01*
X106191071Y-121883630D01*
X106095833Y-121836011D01*
X106048214Y-121788392D01*
X106000595Y-121693154D01*
X106000595Y-121597916D01*
X106048214Y-121502678D01*
X106095833Y-121455059D01*
X106191071Y-121407440D01*
X106381547Y-121359821D01*
X106476785Y-121312202D01*
X106524404Y-121264583D01*
X106572023Y-121169345D01*
X106572023Y-121074107D01*
X106524404Y-120978869D01*
X106476785Y-120931250D01*
X106381547Y-120883630D01*
X106143452Y-120883630D01*
X106000595Y-120931250D01*
X105667261Y-120883630D02*
X105429166Y-121883630D01*
X105238690Y-121169345D01*
X105048214Y-121883630D01*
X104810119Y-120883630D01*
X103905357Y-121883630D02*
X104476785Y-121883630D01*
X104191071Y-121883630D02*
X104191071Y-120883630D01*
X104286309Y-121026488D01*
X104381547Y-121121726D01*
X104476785Y-121169345D01*
X102952976Y-121883630D02*
X103524404Y-121883630D01*
X103238690Y-121883630D02*
X103238690Y-120883630D01*
X103333928Y-121026488D01*
X103429166Y-121121726D01*
X103524404Y-121169345D01*
%TO.C,SW12*%
X125622023Y-121836011D02*
X125479166Y-121883630D01*
X125241071Y-121883630D01*
X125145833Y-121836011D01*
X125098214Y-121788392D01*
X125050595Y-121693154D01*
X125050595Y-121597916D01*
X125098214Y-121502678D01*
X125145833Y-121455059D01*
X125241071Y-121407440D01*
X125431547Y-121359821D01*
X125526785Y-121312202D01*
X125574404Y-121264583D01*
X125622023Y-121169345D01*
X125622023Y-121074107D01*
X125574404Y-120978869D01*
X125526785Y-120931250D01*
X125431547Y-120883630D01*
X125193452Y-120883630D01*
X125050595Y-120931250D01*
X124717261Y-120883630D02*
X124479166Y-121883630D01*
X124288690Y-121169345D01*
X124098214Y-121883630D01*
X123860119Y-120883630D01*
X122955357Y-121883630D02*
X123526785Y-121883630D01*
X123241071Y-121883630D02*
X123241071Y-120883630D01*
X123336309Y-121026488D01*
X123431547Y-121121726D01*
X123526785Y-121169345D01*
X122574404Y-120978869D02*
X122526785Y-120931250D01*
X122431547Y-120883630D01*
X122193452Y-120883630D01*
X122098214Y-120931250D01*
X122050595Y-120978869D01*
X122002976Y-121074107D01*
X122002976Y-121169345D01*
X122050595Y-121312202D01*
X122622023Y-121883630D01*
X122002976Y-121883630D01*
%TO.C,SW13*%
X144672023Y-121836011D02*
X144529166Y-121883630D01*
X144291071Y-121883630D01*
X144195833Y-121836011D01*
X144148214Y-121788392D01*
X144100595Y-121693154D01*
X144100595Y-121597916D01*
X144148214Y-121502678D01*
X144195833Y-121455059D01*
X144291071Y-121407440D01*
X144481547Y-121359821D01*
X144576785Y-121312202D01*
X144624404Y-121264583D01*
X144672023Y-121169345D01*
X144672023Y-121074107D01*
X144624404Y-120978869D01*
X144576785Y-120931250D01*
X144481547Y-120883630D01*
X144243452Y-120883630D01*
X144100595Y-120931250D01*
X143767261Y-120883630D02*
X143529166Y-121883630D01*
X143338690Y-121169345D01*
X143148214Y-121883630D01*
X142910119Y-120883630D01*
X142005357Y-121883630D02*
X142576785Y-121883630D01*
X142291071Y-121883630D02*
X142291071Y-120883630D01*
X142386309Y-121026488D01*
X142481547Y-121121726D01*
X142576785Y-121169345D01*
X141672023Y-120883630D02*
X141052976Y-120883630D01*
X141386309Y-121264583D01*
X141243452Y-121264583D01*
X141148214Y-121312202D01*
X141100595Y-121359821D01*
X141052976Y-121455059D01*
X141052976Y-121693154D01*
X141100595Y-121788392D01*
X141148214Y-121836011D01*
X141243452Y-121883630D01*
X141529166Y-121883630D01*
X141624404Y-121836011D01*
X141672023Y-121788392D01*
%TO.C,SW14*%
X163722023Y-121836011D02*
X163579166Y-121883630D01*
X163341071Y-121883630D01*
X163245833Y-121836011D01*
X163198214Y-121788392D01*
X163150595Y-121693154D01*
X163150595Y-121597916D01*
X163198214Y-121502678D01*
X163245833Y-121455059D01*
X163341071Y-121407440D01*
X163531547Y-121359821D01*
X163626785Y-121312202D01*
X163674404Y-121264583D01*
X163722023Y-121169345D01*
X163722023Y-121074107D01*
X163674404Y-120978869D01*
X163626785Y-120931250D01*
X163531547Y-120883630D01*
X163293452Y-120883630D01*
X163150595Y-120931250D01*
X162817261Y-120883630D02*
X162579166Y-121883630D01*
X162388690Y-121169345D01*
X162198214Y-121883630D01*
X161960119Y-120883630D01*
X161055357Y-121883630D02*
X161626785Y-121883630D01*
X161341071Y-121883630D02*
X161341071Y-120883630D01*
X161436309Y-121026488D01*
X161531547Y-121121726D01*
X161626785Y-121169345D01*
X160198214Y-121216964D02*
X160198214Y-121883630D01*
X160436309Y-120836011D02*
X160674404Y-121550297D01*
X160055357Y-121550297D01*
%TO.C,SW15*%
X182772023Y-121836011D02*
X182629166Y-121883630D01*
X182391071Y-121883630D01*
X182295833Y-121836011D01*
X182248214Y-121788392D01*
X182200595Y-121693154D01*
X182200595Y-121597916D01*
X182248214Y-121502678D01*
X182295833Y-121455059D01*
X182391071Y-121407440D01*
X182581547Y-121359821D01*
X182676785Y-121312202D01*
X182724404Y-121264583D01*
X182772023Y-121169345D01*
X182772023Y-121074107D01*
X182724404Y-120978869D01*
X182676785Y-120931250D01*
X182581547Y-120883630D01*
X182343452Y-120883630D01*
X182200595Y-120931250D01*
X181867261Y-120883630D02*
X181629166Y-121883630D01*
X181438690Y-121169345D01*
X181248214Y-121883630D01*
X181010119Y-120883630D01*
X180105357Y-121883630D02*
X180676785Y-121883630D01*
X180391071Y-121883630D02*
X180391071Y-120883630D01*
X180486309Y-121026488D01*
X180581547Y-121121726D01*
X180676785Y-121169345D01*
X179200595Y-120883630D02*
X179676785Y-120883630D01*
X179724404Y-121359821D01*
X179676785Y-121312202D01*
X179581547Y-121264583D01*
X179343452Y-121264583D01*
X179248214Y-121312202D01*
X179200595Y-121359821D01*
X179152976Y-121455059D01*
X179152976Y-121693154D01*
X179200595Y-121788392D01*
X179248214Y-121836011D01*
X179343452Y-121883630D01*
X179581547Y-121883630D01*
X179676785Y-121836011D01*
X179724404Y-121788392D01*
%TO.C,SW16*%
X201822023Y-121836011D02*
X201679166Y-121883630D01*
X201441071Y-121883630D01*
X201345833Y-121836011D01*
X201298214Y-121788392D01*
X201250595Y-121693154D01*
X201250595Y-121597916D01*
X201298214Y-121502678D01*
X201345833Y-121455059D01*
X201441071Y-121407440D01*
X201631547Y-121359821D01*
X201726785Y-121312202D01*
X201774404Y-121264583D01*
X201822023Y-121169345D01*
X201822023Y-121074107D01*
X201774404Y-120978869D01*
X201726785Y-120931250D01*
X201631547Y-120883630D01*
X201393452Y-120883630D01*
X201250595Y-120931250D01*
X200917261Y-120883630D02*
X200679166Y-121883630D01*
X200488690Y-121169345D01*
X200298214Y-121883630D01*
X200060119Y-120883630D01*
X199155357Y-121883630D02*
X199726785Y-121883630D01*
X199441071Y-121883630D02*
X199441071Y-120883630D01*
X199536309Y-121026488D01*
X199631547Y-121121726D01*
X199726785Y-121169345D01*
X198298214Y-120883630D02*
X198488690Y-120883630D01*
X198583928Y-120931250D01*
X198631547Y-120978869D01*
X198726785Y-121121726D01*
X198774404Y-121312202D01*
X198774404Y-121693154D01*
X198726785Y-121788392D01*
X198679166Y-121836011D01*
X198583928Y-121883630D01*
X198393452Y-121883630D01*
X198298214Y-121836011D01*
X198250595Y-121788392D01*
X198202976Y-121693154D01*
X198202976Y-121455059D01*
X198250595Y-121359821D01*
X198298214Y-121312202D01*
X198393452Y-121264583D01*
X198583928Y-121264583D01*
X198679166Y-121312202D01*
X198726785Y-121359821D01*
X198774404Y-121455059D01*
%TO.C,SW17*%
X225634523Y-121836011D02*
X225491666Y-121883630D01*
X225253571Y-121883630D01*
X225158333Y-121836011D01*
X225110714Y-121788392D01*
X225063095Y-121693154D01*
X225063095Y-121597916D01*
X225110714Y-121502678D01*
X225158333Y-121455059D01*
X225253571Y-121407440D01*
X225444047Y-121359821D01*
X225539285Y-121312202D01*
X225586904Y-121264583D01*
X225634523Y-121169345D01*
X225634523Y-121074107D01*
X225586904Y-120978869D01*
X225539285Y-120931250D01*
X225444047Y-120883630D01*
X225205952Y-120883630D01*
X225063095Y-120931250D01*
X224729761Y-120883630D02*
X224491666Y-121883630D01*
X224301190Y-121169345D01*
X224110714Y-121883630D01*
X223872619Y-120883630D01*
X222967857Y-121883630D02*
X223539285Y-121883630D01*
X223253571Y-121883630D02*
X223253571Y-120883630D01*
X223348809Y-121026488D01*
X223444047Y-121121726D01*
X223539285Y-121169345D01*
X222634523Y-120883630D02*
X221967857Y-120883630D01*
X222396428Y-121883630D01*
%TO.C,SW18*%
X258972023Y-121836011D02*
X258829166Y-121883630D01*
X258591071Y-121883630D01*
X258495833Y-121836011D01*
X258448214Y-121788392D01*
X258400595Y-121693154D01*
X258400595Y-121597916D01*
X258448214Y-121502678D01*
X258495833Y-121455059D01*
X258591071Y-121407440D01*
X258781547Y-121359821D01*
X258876785Y-121312202D01*
X258924404Y-121264583D01*
X258972023Y-121169345D01*
X258972023Y-121074107D01*
X258924404Y-120978869D01*
X258876785Y-120931250D01*
X258781547Y-120883630D01*
X258543452Y-120883630D01*
X258400595Y-120931250D01*
X258067261Y-120883630D02*
X257829166Y-121883630D01*
X257638690Y-121169345D01*
X257448214Y-121883630D01*
X257210119Y-120883630D01*
X256305357Y-121883630D02*
X256876785Y-121883630D01*
X256591071Y-121883630D02*
X256591071Y-120883630D01*
X256686309Y-121026488D01*
X256781547Y-121121726D01*
X256876785Y-121169345D01*
X255733928Y-121312202D02*
X255829166Y-121264583D01*
X255876785Y-121216964D01*
X255924404Y-121121726D01*
X255924404Y-121074107D01*
X255876785Y-120978869D01*
X255829166Y-120931250D01*
X255733928Y-120883630D01*
X255543452Y-120883630D01*
X255448214Y-120931250D01*
X255400595Y-120978869D01*
X255352976Y-121074107D01*
X255352976Y-121121726D01*
X255400595Y-121216964D01*
X255448214Y-121264583D01*
X255543452Y-121312202D01*
X255733928Y-121312202D01*
X255829166Y-121359821D01*
X255876785Y-121407440D01*
X255924404Y-121502678D01*
X255924404Y-121693154D01*
X255876785Y-121788392D01*
X255829166Y-121836011D01*
X255733928Y-121883630D01*
X255543452Y-121883630D01*
X255448214Y-121836011D01*
X255400595Y-121788392D01*
X255352976Y-121693154D01*
X255352976Y-121502678D01*
X255400595Y-121407440D01*
X255448214Y-121359821D01*
X255543452Y-121312202D01*
%TO.C,SW19*%
X101809523Y-136123511D02*
X101666666Y-136171130D01*
X101428571Y-136171130D01*
X101333333Y-136123511D01*
X101285714Y-136075892D01*
X101238095Y-135980654D01*
X101238095Y-135885416D01*
X101285714Y-135790178D01*
X101333333Y-135742559D01*
X101428571Y-135694940D01*
X101619047Y-135647321D01*
X101714285Y-135599702D01*
X101761904Y-135552083D01*
X101809523Y-135456845D01*
X101809523Y-135361607D01*
X101761904Y-135266369D01*
X101714285Y-135218750D01*
X101619047Y-135171130D01*
X101380952Y-135171130D01*
X101238095Y-135218750D01*
X100904761Y-135171130D02*
X100666666Y-136171130D01*
X100476190Y-135456845D01*
X100285714Y-136171130D01*
X100047619Y-135171130D01*
X99142857Y-136171130D02*
X99714285Y-136171130D01*
X99428571Y-136171130D02*
X99428571Y-135171130D01*
X99523809Y-135313988D01*
X99619047Y-135409226D01*
X99714285Y-135456845D01*
X98666666Y-136171130D02*
X98476190Y-136171130D01*
X98380952Y-136123511D01*
X98333333Y-136075892D01*
X98238095Y-135933035D01*
X98190476Y-135742559D01*
X98190476Y-135361607D01*
X98238095Y-135266369D01*
X98285714Y-135218750D01*
X98380952Y-135171130D01*
X98571428Y-135171130D01*
X98666666Y-135218750D01*
X98714285Y-135266369D01*
X98761904Y-135361607D01*
X98761904Y-135599702D01*
X98714285Y-135694940D01*
X98666666Y-135742559D01*
X98571428Y-135790178D01*
X98380952Y-135790178D01*
X98285714Y-135742559D01*
X98238095Y-135694940D01*
X98190476Y-135599702D01*
%TO.C,SW20*%
X111334523Y-140886011D02*
X111191666Y-140933630D01*
X110953571Y-140933630D01*
X110858333Y-140886011D01*
X110810714Y-140838392D01*
X110763095Y-140743154D01*
X110763095Y-140647916D01*
X110810714Y-140552678D01*
X110858333Y-140505059D01*
X110953571Y-140457440D01*
X111144047Y-140409821D01*
X111239285Y-140362202D01*
X111286904Y-140314583D01*
X111334523Y-140219345D01*
X111334523Y-140124107D01*
X111286904Y-140028869D01*
X111239285Y-139981250D01*
X111144047Y-139933630D01*
X110905952Y-139933630D01*
X110763095Y-139981250D01*
X110429761Y-139933630D02*
X110191666Y-140933630D01*
X110001190Y-140219345D01*
X109810714Y-140933630D01*
X109572619Y-139933630D01*
X109239285Y-140028869D02*
X109191666Y-139981250D01*
X109096428Y-139933630D01*
X108858333Y-139933630D01*
X108763095Y-139981250D01*
X108715476Y-140028869D01*
X108667857Y-140124107D01*
X108667857Y-140219345D01*
X108715476Y-140362202D01*
X109286904Y-140933630D01*
X108667857Y-140933630D01*
X108048809Y-139933630D02*
X107953571Y-139933630D01*
X107858333Y-139981250D01*
X107810714Y-140028869D01*
X107763095Y-140124107D01*
X107715476Y-140314583D01*
X107715476Y-140552678D01*
X107763095Y-140743154D01*
X107810714Y-140838392D01*
X107858333Y-140886011D01*
X107953571Y-140933630D01*
X108048809Y-140933630D01*
X108144047Y-140886011D01*
X108191666Y-140838392D01*
X108239285Y-140743154D01*
X108286904Y-140552678D01*
X108286904Y-140314583D01*
X108239285Y-140124107D01*
X108191666Y-140028869D01*
X108144047Y-139981250D01*
X108048809Y-139933630D01*
%TO.C,SW21*%
X130384523Y-140886011D02*
X130241666Y-140933630D01*
X130003571Y-140933630D01*
X129908333Y-140886011D01*
X129860714Y-140838392D01*
X129813095Y-140743154D01*
X129813095Y-140647916D01*
X129860714Y-140552678D01*
X129908333Y-140505059D01*
X130003571Y-140457440D01*
X130194047Y-140409821D01*
X130289285Y-140362202D01*
X130336904Y-140314583D01*
X130384523Y-140219345D01*
X130384523Y-140124107D01*
X130336904Y-140028869D01*
X130289285Y-139981250D01*
X130194047Y-139933630D01*
X129955952Y-139933630D01*
X129813095Y-139981250D01*
X129479761Y-139933630D02*
X129241666Y-140933630D01*
X129051190Y-140219345D01*
X128860714Y-140933630D01*
X128622619Y-139933630D01*
X128289285Y-140028869D02*
X128241666Y-139981250D01*
X128146428Y-139933630D01*
X127908333Y-139933630D01*
X127813095Y-139981250D01*
X127765476Y-140028869D01*
X127717857Y-140124107D01*
X127717857Y-140219345D01*
X127765476Y-140362202D01*
X128336904Y-140933630D01*
X127717857Y-140933630D01*
X126765476Y-140933630D02*
X127336904Y-140933630D01*
X127051190Y-140933630D02*
X127051190Y-139933630D01*
X127146428Y-140076488D01*
X127241666Y-140171726D01*
X127336904Y-140219345D01*
%TO.C,SW22*%
X149434523Y-140886011D02*
X149291666Y-140933630D01*
X149053571Y-140933630D01*
X148958333Y-140886011D01*
X148910714Y-140838392D01*
X148863095Y-140743154D01*
X148863095Y-140647916D01*
X148910714Y-140552678D01*
X148958333Y-140505059D01*
X149053571Y-140457440D01*
X149244047Y-140409821D01*
X149339285Y-140362202D01*
X149386904Y-140314583D01*
X149434523Y-140219345D01*
X149434523Y-140124107D01*
X149386904Y-140028869D01*
X149339285Y-139981250D01*
X149244047Y-139933630D01*
X149005952Y-139933630D01*
X148863095Y-139981250D01*
X148529761Y-139933630D02*
X148291666Y-140933630D01*
X148101190Y-140219345D01*
X147910714Y-140933630D01*
X147672619Y-139933630D01*
X147339285Y-140028869D02*
X147291666Y-139981250D01*
X147196428Y-139933630D01*
X146958333Y-139933630D01*
X146863095Y-139981250D01*
X146815476Y-140028869D01*
X146767857Y-140124107D01*
X146767857Y-140219345D01*
X146815476Y-140362202D01*
X147386904Y-140933630D01*
X146767857Y-140933630D01*
X146386904Y-140028869D02*
X146339285Y-139981250D01*
X146244047Y-139933630D01*
X146005952Y-139933630D01*
X145910714Y-139981250D01*
X145863095Y-140028869D01*
X145815476Y-140124107D01*
X145815476Y-140219345D01*
X145863095Y-140362202D01*
X146434523Y-140933630D01*
X145815476Y-140933630D01*
%TO.C,SW25*%
X218490773Y-140886011D02*
X218347916Y-140933630D01*
X218109821Y-140933630D01*
X218014583Y-140886011D01*
X217966964Y-140838392D01*
X217919345Y-140743154D01*
X217919345Y-140647916D01*
X217966964Y-140552678D01*
X218014583Y-140505059D01*
X218109821Y-140457440D01*
X218300297Y-140409821D01*
X218395535Y-140362202D01*
X218443154Y-140314583D01*
X218490773Y-140219345D01*
X218490773Y-140124107D01*
X218443154Y-140028869D01*
X218395535Y-139981250D01*
X218300297Y-139933630D01*
X218062202Y-139933630D01*
X217919345Y-139981250D01*
X217586011Y-139933630D02*
X217347916Y-140933630D01*
X217157440Y-140219345D01*
X216966964Y-140933630D01*
X216728869Y-139933630D01*
X216395535Y-140028869D02*
X216347916Y-139981250D01*
X216252678Y-139933630D01*
X216014583Y-139933630D01*
X215919345Y-139981250D01*
X215871726Y-140028869D01*
X215824107Y-140124107D01*
X215824107Y-140219345D01*
X215871726Y-140362202D01*
X216443154Y-140933630D01*
X215824107Y-140933630D01*
X214919345Y-139933630D02*
X215395535Y-139933630D01*
X215443154Y-140409821D01*
X215395535Y-140362202D01*
X215300297Y-140314583D01*
X215062202Y-140314583D01*
X214966964Y-140362202D01*
X214919345Y-140409821D01*
X214871726Y-140505059D01*
X214871726Y-140743154D01*
X214919345Y-140838392D01*
X214966964Y-140886011D01*
X215062202Y-140933630D01*
X215300297Y-140933630D01*
X215395535Y-140886011D01*
X215443154Y-140838392D01*
%TO.C,SW26*%
X258972023Y-140886011D02*
X258829166Y-140933630D01*
X258591071Y-140933630D01*
X258495833Y-140886011D01*
X258448214Y-140838392D01*
X258400595Y-140743154D01*
X258400595Y-140647916D01*
X258448214Y-140552678D01*
X258495833Y-140505059D01*
X258591071Y-140457440D01*
X258781547Y-140409821D01*
X258876785Y-140362202D01*
X258924404Y-140314583D01*
X258972023Y-140219345D01*
X258972023Y-140124107D01*
X258924404Y-140028869D01*
X258876785Y-139981250D01*
X258781547Y-139933630D01*
X258543452Y-139933630D01*
X258400595Y-139981250D01*
X258067261Y-139933630D02*
X257829166Y-140933630D01*
X257638690Y-140219345D01*
X257448214Y-140933630D01*
X257210119Y-139933630D01*
X256876785Y-140028869D02*
X256829166Y-139981250D01*
X256733928Y-139933630D01*
X256495833Y-139933630D01*
X256400595Y-139981250D01*
X256352976Y-140028869D01*
X256305357Y-140124107D01*
X256305357Y-140219345D01*
X256352976Y-140362202D01*
X256924404Y-140933630D01*
X256305357Y-140933630D01*
X255448214Y-139933630D02*
X255638690Y-139933630D01*
X255733928Y-139981250D01*
X255781547Y-140028869D01*
X255876785Y-140171726D01*
X255924404Y-140362202D01*
X255924404Y-140743154D01*
X255876785Y-140838392D01*
X255829166Y-140886011D01*
X255733928Y-140933630D01*
X255543452Y-140933630D01*
X255448214Y-140886011D01*
X255400595Y-140838392D01*
X255352976Y-140743154D01*
X255352976Y-140505059D01*
X255400595Y-140409821D01*
X255448214Y-140362202D01*
X255543452Y-140314583D01*
X255733928Y-140314583D01*
X255829166Y-140362202D01*
X255876785Y-140409821D01*
X255924404Y-140505059D01*
%TO.C,SW27*%
X111334523Y-155173511D02*
X111191666Y-155221130D01*
X110953571Y-155221130D01*
X110858333Y-155173511D01*
X110810714Y-155125892D01*
X110763095Y-155030654D01*
X110763095Y-154935416D01*
X110810714Y-154840178D01*
X110858333Y-154792559D01*
X110953571Y-154744940D01*
X111144047Y-154697321D01*
X111239285Y-154649702D01*
X111286904Y-154602083D01*
X111334523Y-154506845D01*
X111334523Y-154411607D01*
X111286904Y-154316369D01*
X111239285Y-154268750D01*
X111144047Y-154221130D01*
X110905952Y-154221130D01*
X110763095Y-154268750D01*
X110429761Y-154221130D02*
X110191666Y-155221130D01*
X110001190Y-154506845D01*
X109810714Y-155221130D01*
X109572619Y-154221130D01*
X109239285Y-154316369D02*
X109191666Y-154268750D01*
X109096428Y-154221130D01*
X108858333Y-154221130D01*
X108763095Y-154268750D01*
X108715476Y-154316369D01*
X108667857Y-154411607D01*
X108667857Y-154506845D01*
X108715476Y-154649702D01*
X109286904Y-155221130D01*
X108667857Y-155221130D01*
X108334523Y-154221130D02*
X107667857Y-154221130D01*
X108096428Y-155221130D01*
%TO.C,SW28*%
X120859523Y-159936011D02*
X120716666Y-159983630D01*
X120478571Y-159983630D01*
X120383333Y-159936011D01*
X120335714Y-159888392D01*
X120288095Y-159793154D01*
X120288095Y-159697916D01*
X120335714Y-159602678D01*
X120383333Y-159555059D01*
X120478571Y-159507440D01*
X120669047Y-159459821D01*
X120764285Y-159412202D01*
X120811904Y-159364583D01*
X120859523Y-159269345D01*
X120859523Y-159174107D01*
X120811904Y-159078869D01*
X120764285Y-159031250D01*
X120669047Y-158983630D01*
X120430952Y-158983630D01*
X120288095Y-159031250D01*
X119954761Y-158983630D02*
X119716666Y-159983630D01*
X119526190Y-159269345D01*
X119335714Y-159983630D01*
X119097619Y-158983630D01*
X118764285Y-159078869D02*
X118716666Y-159031250D01*
X118621428Y-158983630D01*
X118383333Y-158983630D01*
X118288095Y-159031250D01*
X118240476Y-159078869D01*
X118192857Y-159174107D01*
X118192857Y-159269345D01*
X118240476Y-159412202D01*
X118811904Y-159983630D01*
X118192857Y-159983630D01*
X117621428Y-159412202D02*
X117716666Y-159364583D01*
X117764285Y-159316964D01*
X117811904Y-159221726D01*
X117811904Y-159174107D01*
X117764285Y-159078869D01*
X117716666Y-159031250D01*
X117621428Y-158983630D01*
X117430952Y-158983630D01*
X117335714Y-159031250D01*
X117288095Y-159078869D01*
X117240476Y-159174107D01*
X117240476Y-159221726D01*
X117288095Y-159316964D01*
X117335714Y-159364583D01*
X117430952Y-159412202D01*
X117621428Y-159412202D01*
X117716666Y-159459821D01*
X117764285Y-159507440D01*
X117811904Y-159602678D01*
X117811904Y-159793154D01*
X117764285Y-159888392D01*
X117716666Y-159936011D01*
X117621428Y-159983630D01*
X117430952Y-159983630D01*
X117335714Y-159936011D01*
X117288095Y-159888392D01*
X117240476Y-159793154D01*
X117240476Y-159602678D01*
X117288095Y-159507440D01*
X117335714Y-159459821D01*
X117430952Y-159412202D01*
%TO.C,SW29*%
X139909523Y-159936011D02*
X139766666Y-159983630D01*
X139528571Y-159983630D01*
X139433333Y-159936011D01*
X139385714Y-159888392D01*
X139338095Y-159793154D01*
X139338095Y-159697916D01*
X139385714Y-159602678D01*
X139433333Y-159555059D01*
X139528571Y-159507440D01*
X139719047Y-159459821D01*
X139814285Y-159412202D01*
X139861904Y-159364583D01*
X139909523Y-159269345D01*
X139909523Y-159174107D01*
X139861904Y-159078869D01*
X139814285Y-159031250D01*
X139719047Y-158983630D01*
X139480952Y-158983630D01*
X139338095Y-159031250D01*
X139004761Y-158983630D02*
X138766666Y-159983630D01*
X138576190Y-159269345D01*
X138385714Y-159983630D01*
X138147619Y-158983630D01*
X137814285Y-159078869D02*
X137766666Y-159031250D01*
X137671428Y-158983630D01*
X137433333Y-158983630D01*
X137338095Y-159031250D01*
X137290476Y-159078869D01*
X137242857Y-159174107D01*
X137242857Y-159269345D01*
X137290476Y-159412202D01*
X137861904Y-159983630D01*
X137242857Y-159983630D01*
X136766666Y-159983630D02*
X136576190Y-159983630D01*
X136480952Y-159936011D01*
X136433333Y-159888392D01*
X136338095Y-159745535D01*
X136290476Y-159555059D01*
X136290476Y-159174107D01*
X136338095Y-159078869D01*
X136385714Y-159031250D01*
X136480952Y-158983630D01*
X136671428Y-158983630D01*
X136766666Y-159031250D01*
X136814285Y-159078869D01*
X136861904Y-159174107D01*
X136861904Y-159412202D01*
X136814285Y-159507440D01*
X136766666Y-159555059D01*
X136671428Y-159602678D01*
X136480952Y-159602678D01*
X136385714Y-159555059D01*
X136338095Y-159507440D01*
X136290476Y-159412202D01*
%TO.C,SW30*%
X158959523Y-159936011D02*
X158816666Y-159983630D01*
X158578571Y-159983630D01*
X158483333Y-159936011D01*
X158435714Y-159888392D01*
X158388095Y-159793154D01*
X158388095Y-159697916D01*
X158435714Y-159602678D01*
X158483333Y-159555059D01*
X158578571Y-159507440D01*
X158769047Y-159459821D01*
X158864285Y-159412202D01*
X158911904Y-159364583D01*
X158959523Y-159269345D01*
X158959523Y-159174107D01*
X158911904Y-159078869D01*
X158864285Y-159031250D01*
X158769047Y-158983630D01*
X158530952Y-158983630D01*
X158388095Y-159031250D01*
X158054761Y-158983630D02*
X157816666Y-159983630D01*
X157626190Y-159269345D01*
X157435714Y-159983630D01*
X157197619Y-158983630D01*
X156911904Y-158983630D02*
X156292857Y-158983630D01*
X156626190Y-159364583D01*
X156483333Y-159364583D01*
X156388095Y-159412202D01*
X156340476Y-159459821D01*
X156292857Y-159555059D01*
X156292857Y-159793154D01*
X156340476Y-159888392D01*
X156388095Y-159936011D01*
X156483333Y-159983630D01*
X156769047Y-159983630D01*
X156864285Y-159936011D01*
X156911904Y-159888392D01*
X155673809Y-158983630D02*
X155578571Y-158983630D01*
X155483333Y-159031250D01*
X155435714Y-159078869D01*
X155388095Y-159174107D01*
X155340476Y-159364583D01*
X155340476Y-159602678D01*
X155388095Y-159793154D01*
X155435714Y-159888392D01*
X155483333Y-159936011D01*
X155578571Y-159983630D01*
X155673809Y-159983630D01*
X155769047Y-159936011D01*
X155816666Y-159888392D01*
X155864285Y-159793154D01*
X155911904Y-159602678D01*
X155911904Y-159364583D01*
X155864285Y-159174107D01*
X155816666Y-159078869D01*
X155769047Y-159031250D01*
X155673809Y-158983630D01*
%TO.C,SW31*%
X178009523Y-159936011D02*
X177866666Y-159983630D01*
X177628571Y-159983630D01*
X177533333Y-159936011D01*
X177485714Y-159888392D01*
X177438095Y-159793154D01*
X177438095Y-159697916D01*
X177485714Y-159602678D01*
X177533333Y-159555059D01*
X177628571Y-159507440D01*
X177819047Y-159459821D01*
X177914285Y-159412202D01*
X177961904Y-159364583D01*
X178009523Y-159269345D01*
X178009523Y-159174107D01*
X177961904Y-159078869D01*
X177914285Y-159031250D01*
X177819047Y-158983630D01*
X177580952Y-158983630D01*
X177438095Y-159031250D01*
X177104761Y-158983630D02*
X176866666Y-159983630D01*
X176676190Y-159269345D01*
X176485714Y-159983630D01*
X176247619Y-158983630D01*
X175961904Y-158983630D02*
X175342857Y-158983630D01*
X175676190Y-159364583D01*
X175533333Y-159364583D01*
X175438095Y-159412202D01*
X175390476Y-159459821D01*
X175342857Y-159555059D01*
X175342857Y-159793154D01*
X175390476Y-159888392D01*
X175438095Y-159936011D01*
X175533333Y-159983630D01*
X175819047Y-159983630D01*
X175914285Y-159936011D01*
X175961904Y-159888392D01*
X174390476Y-159983630D02*
X174961904Y-159983630D01*
X174676190Y-159983630D02*
X174676190Y-158983630D01*
X174771428Y-159126488D01*
X174866666Y-159221726D01*
X174961904Y-159269345D01*
%TO.C,SW32*%
X204203273Y-159936011D02*
X204060416Y-159983630D01*
X203822321Y-159983630D01*
X203727083Y-159936011D01*
X203679464Y-159888392D01*
X203631845Y-159793154D01*
X203631845Y-159697916D01*
X203679464Y-159602678D01*
X203727083Y-159555059D01*
X203822321Y-159507440D01*
X204012797Y-159459821D01*
X204108035Y-159412202D01*
X204155654Y-159364583D01*
X204203273Y-159269345D01*
X204203273Y-159174107D01*
X204155654Y-159078869D01*
X204108035Y-159031250D01*
X204012797Y-158983630D01*
X203774702Y-158983630D01*
X203631845Y-159031250D01*
X203298511Y-158983630D02*
X203060416Y-159983630D01*
X202869940Y-159269345D01*
X202679464Y-159983630D01*
X202441369Y-158983630D01*
X202155654Y-158983630D02*
X201536607Y-158983630D01*
X201869940Y-159364583D01*
X201727083Y-159364583D01*
X201631845Y-159412202D01*
X201584226Y-159459821D01*
X201536607Y-159555059D01*
X201536607Y-159793154D01*
X201584226Y-159888392D01*
X201631845Y-159936011D01*
X201727083Y-159983630D01*
X202012797Y-159983630D01*
X202108035Y-159936011D01*
X202155654Y-159888392D01*
X201155654Y-159078869D02*
X201108035Y-159031250D01*
X201012797Y-158983630D01*
X200774702Y-158983630D01*
X200679464Y-159031250D01*
X200631845Y-159078869D01*
X200584226Y-159174107D01*
X200584226Y-159269345D01*
X200631845Y-159412202D01*
X201203273Y-159983630D01*
X200584226Y-159983630D01*
%TO.C,SW33*%
X230397023Y-159936011D02*
X230254166Y-159983630D01*
X230016071Y-159983630D01*
X229920833Y-159936011D01*
X229873214Y-159888392D01*
X229825595Y-159793154D01*
X229825595Y-159697916D01*
X229873214Y-159602678D01*
X229920833Y-159555059D01*
X230016071Y-159507440D01*
X230206547Y-159459821D01*
X230301785Y-159412202D01*
X230349404Y-159364583D01*
X230397023Y-159269345D01*
X230397023Y-159174107D01*
X230349404Y-159078869D01*
X230301785Y-159031250D01*
X230206547Y-158983630D01*
X229968452Y-158983630D01*
X229825595Y-159031250D01*
X229492261Y-158983630D02*
X229254166Y-159983630D01*
X229063690Y-159269345D01*
X228873214Y-159983630D01*
X228635119Y-158983630D01*
X228349404Y-158983630D02*
X227730357Y-158983630D01*
X228063690Y-159364583D01*
X227920833Y-159364583D01*
X227825595Y-159412202D01*
X227777976Y-159459821D01*
X227730357Y-159555059D01*
X227730357Y-159793154D01*
X227777976Y-159888392D01*
X227825595Y-159936011D01*
X227920833Y-159983630D01*
X228206547Y-159983630D01*
X228301785Y-159936011D01*
X228349404Y-159888392D01*
X227397023Y-158983630D02*
X226777976Y-158983630D01*
X227111309Y-159364583D01*
X226968452Y-159364583D01*
X226873214Y-159412202D01*
X226825595Y-159459821D01*
X226777976Y-159555059D01*
X226777976Y-159793154D01*
X226825595Y-159888392D01*
X226873214Y-159936011D01*
X226968452Y-159983630D01*
X227254166Y-159983630D01*
X227349404Y-159936011D01*
X227397023Y-159888392D01*
%TO.C,SW34*%
X258972023Y-159936011D02*
X258829166Y-159983630D01*
X258591071Y-159983630D01*
X258495833Y-159936011D01*
X258448214Y-159888392D01*
X258400595Y-159793154D01*
X258400595Y-159697916D01*
X258448214Y-159602678D01*
X258495833Y-159555059D01*
X258591071Y-159507440D01*
X258781547Y-159459821D01*
X258876785Y-159412202D01*
X258924404Y-159364583D01*
X258972023Y-159269345D01*
X258972023Y-159174107D01*
X258924404Y-159078869D01*
X258876785Y-159031250D01*
X258781547Y-158983630D01*
X258543452Y-158983630D01*
X258400595Y-159031250D01*
X258067261Y-158983630D02*
X257829166Y-159983630D01*
X257638690Y-159269345D01*
X257448214Y-159983630D01*
X257210119Y-158983630D01*
X256924404Y-158983630D02*
X256305357Y-158983630D01*
X256638690Y-159364583D01*
X256495833Y-159364583D01*
X256400595Y-159412202D01*
X256352976Y-159459821D01*
X256305357Y-159555059D01*
X256305357Y-159793154D01*
X256352976Y-159888392D01*
X256400595Y-159936011D01*
X256495833Y-159983630D01*
X256781547Y-159983630D01*
X256876785Y-159936011D01*
X256924404Y-159888392D01*
X255448214Y-159316964D02*
X255448214Y-159983630D01*
X255686309Y-158936011D02*
X255924404Y-159650297D01*
X255305357Y-159650297D01*
%TO.C,SW37*%
X104190773Y-171842261D02*
X104047916Y-171889880D01*
X103809821Y-171889880D01*
X103714583Y-171842261D01*
X103666964Y-171794642D01*
X103619345Y-171699404D01*
X103619345Y-171604166D01*
X103666964Y-171508928D01*
X103714583Y-171461309D01*
X103809821Y-171413690D01*
X104000297Y-171366071D01*
X104095535Y-171318452D01*
X104143154Y-171270833D01*
X104190773Y-171175595D01*
X104190773Y-171080357D01*
X104143154Y-170985119D01*
X104095535Y-170937500D01*
X104000297Y-170889880D01*
X103762202Y-170889880D01*
X103619345Y-170937500D01*
X103286011Y-170889880D02*
X103047916Y-171889880D01*
X102857440Y-171175595D01*
X102666964Y-171889880D01*
X102428869Y-170889880D01*
X102143154Y-170889880D02*
X101524107Y-170889880D01*
X101857440Y-171270833D01*
X101714583Y-171270833D01*
X101619345Y-171318452D01*
X101571726Y-171366071D01*
X101524107Y-171461309D01*
X101524107Y-171699404D01*
X101571726Y-171794642D01*
X101619345Y-171842261D01*
X101714583Y-171889880D01*
X102000297Y-171889880D01*
X102095535Y-171842261D01*
X102143154Y-171794642D01*
X101190773Y-170889880D02*
X100524107Y-170889880D01*
X100952678Y-171889880D01*
%TO.C,SW38*%
X142290773Y-169461011D02*
X142147916Y-169508630D01*
X141909821Y-169508630D01*
X141814583Y-169461011D01*
X141766964Y-169413392D01*
X141719345Y-169318154D01*
X141719345Y-169222916D01*
X141766964Y-169127678D01*
X141814583Y-169080059D01*
X141909821Y-169032440D01*
X142100297Y-168984821D01*
X142195535Y-168937202D01*
X142243154Y-168889583D01*
X142290773Y-168794345D01*
X142290773Y-168699107D01*
X142243154Y-168603869D01*
X142195535Y-168556250D01*
X142100297Y-168508630D01*
X141862202Y-168508630D01*
X141719345Y-168556250D01*
X141386011Y-168508630D02*
X141147916Y-169508630D01*
X140957440Y-168794345D01*
X140766964Y-169508630D01*
X140528869Y-168508630D01*
X140243154Y-168508630D02*
X139624107Y-168508630D01*
X139957440Y-168889583D01*
X139814583Y-168889583D01*
X139719345Y-168937202D01*
X139671726Y-168984821D01*
X139624107Y-169080059D01*
X139624107Y-169318154D01*
X139671726Y-169413392D01*
X139719345Y-169461011D01*
X139814583Y-169508630D01*
X140100297Y-169508630D01*
X140195535Y-169461011D01*
X140243154Y-169413392D01*
X139052678Y-168937202D02*
X139147916Y-168889583D01*
X139195535Y-168841964D01*
X139243154Y-168746726D01*
X139243154Y-168699107D01*
X139195535Y-168603869D01*
X139147916Y-168556250D01*
X139052678Y-168508630D01*
X138862202Y-168508630D01*
X138766964Y-168556250D01*
X138719345Y-168603869D01*
X138671726Y-168699107D01*
X138671726Y-168746726D01*
X138719345Y-168841964D01*
X138766964Y-168889583D01*
X138862202Y-168937202D01*
X139052678Y-168937202D01*
X139147916Y-168984821D01*
X139195535Y-169032440D01*
X139243154Y-169127678D01*
X139243154Y-169318154D01*
X139195535Y-169413392D01*
X139147916Y-169461011D01*
X139052678Y-169508630D01*
X138862202Y-169508630D01*
X138766964Y-169461011D01*
X138719345Y-169413392D01*
X138671726Y-169318154D01*
X138671726Y-169127678D01*
X138719345Y-169032440D01*
X138766964Y-168984821D01*
X138862202Y-168937202D01*
%TO.C,SW39*%
X163722023Y-169461011D02*
X163579166Y-169508630D01*
X163341071Y-169508630D01*
X163245833Y-169461011D01*
X163198214Y-169413392D01*
X163150595Y-169318154D01*
X163150595Y-169222916D01*
X163198214Y-169127678D01*
X163245833Y-169080059D01*
X163341071Y-169032440D01*
X163531547Y-168984821D01*
X163626785Y-168937202D01*
X163674404Y-168889583D01*
X163722023Y-168794345D01*
X163722023Y-168699107D01*
X163674404Y-168603869D01*
X163626785Y-168556250D01*
X163531547Y-168508630D01*
X163293452Y-168508630D01*
X163150595Y-168556250D01*
X162817261Y-168508630D02*
X162579166Y-169508630D01*
X162388690Y-168794345D01*
X162198214Y-169508630D01*
X161960119Y-168508630D01*
X161674404Y-168508630D02*
X161055357Y-168508630D01*
X161388690Y-168889583D01*
X161245833Y-168889583D01*
X161150595Y-168937202D01*
X161102976Y-168984821D01*
X161055357Y-169080059D01*
X161055357Y-169318154D01*
X161102976Y-169413392D01*
X161150595Y-169461011D01*
X161245833Y-169508630D01*
X161531547Y-169508630D01*
X161626785Y-169461011D01*
X161674404Y-169413392D01*
X160579166Y-169508630D02*
X160388690Y-169508630D01*
X160293452Y-169461011D01*
X160245833Y-169413392D01*
X160150595Y-169270535D01*
X160102976Y-169080059D01*
X160102976Y-168699107D01*
X160150595Y-168603869D01*
X160198214Y-168556250D01*
X160293452Y-168508630D01*
X160483928Y-168508630D01*
X160579166Y-168556250D01*
X160626785Y-168603869D01*
X160674404Y-168699107D01*
X160674404Y-168937202D01*
X160626785Y-169032440D01*
X160579166Y-169080059D01*
X160483928Y-169127678D01*
X160293452Y-169127678D01*
X160198214Y-169080059D01*
X160150595Y-169032440D01*
X160102976Y-168937202D01*
%TO.C,SW40*%
X189915773Y-178986011D02*
X189772916Y-179033630D01*
X189534821Y-179033630D01*
X189439583Y-178986011D01*
X189391964Y-178938392D01*
X189344345Y-178843154D01*
X189344345Y-178747916D01*
X189391964Y-178652678D01*
X189439583Y-178605059D01*
X189534821Y-178557440D01*
X189725297Y-178509821D01*
X189820535Y-178462202D01*
X189868154Y-178414583D01*
X189915773Y-178319345D01*
X189915773Y-178224107D01*
X189868154Y-178128869D01*
X189820535Y-178081250D01*
X189725297Y-178033630D01*
X189487202Y-178033630D01*
X189344345Y-178081250D01*
X189011011Y-178033630D02*
X188772916Y-179033630D01*
X188582440Y-178319345D01*
X188391964Y-179033630D01*
X188153869Y-178033630D01*
X187344345Y-178366964D02*
X187344345Y-179033630D01*
X187582440Y-177986011D02*
X187820535Y-178700297D01*
X187201488Y-178700297D01*
X186630059Y-178033630D02*
X186534821Y-178033630D01*
X186439583Y-178081250D01*
X186391964Y-178128869D01*
X186344345Y-178224107D01*
X186296726Y-178414583D01*
X186296726Y-178652678D01*
X186344345Y-178843154D01*
X186391964Y-178938392D01*
X186439583Y-178986011D01*
X186534821Y-179033630D01*
X186630059Y-179033630D01*
X186725297Y-178986011D01*
X186772916Y-178938392D01*
X186820535Y-178843154D01*
X186868154Y-178652678D01*
X186868154Y-178414583D01*
X186820535Y-178224107D01*
X186772916Y-178128869D01*
X186725297Y-178081250D01*
X186630059Y-178033630D01*
%TO.C,SW41*%
X211347023Y-178986011D02*
X211204166Y-179033630D01*
X210966071Y-179033630D01*
X210870833Y-178986011D01*
X210823214Y-178938392D01*
X210775595Y-178843154D01*
X210775595Y-178747916D01*
X210823214Y-178652678D01*
X210870833Y-178605059D01*
X210966071Y-178557440D01*
X211156547Y-178509821D01*
X211251785Y-178462202D01*
X211299404Y-178414583D01*
X211347023Y-178319345D01*
X211347023Y-178224107D01*
X211299404Y-178128869D01*
X211251785Y-178081250D01*
X211156547Y-178033630D01*
X210918452Y-178033630D01*
X210775595Y-178081250D01*
X210442261Y-178033630D02*
X210204166Y-179033630D01*
X210013690Y-178319345D01*
X209823214Y-179033630D01*
X209585119Y-178033630D01*
X208775595Y-178366964D02*
X208775595Y-179033630D01*
X209013690Y-177986011D02*
X209251785Y-178700297D01*
X208632738Y-178700297D01*
X207727976Y-179033630D02*
X208299404Y-179033630D01*
X208013690Y-179033630D02*
X208013690Y-178033630D01*
X208108928Y-178176488D01*
X208204166Y-178271726D01*
X208299404Y-178319345D01*
%TO.C,SW42*%
X230397023Y-178986011D02*
X230254166Y-179033630D01*
X230016071Y-179033630D01*
X229920833Y-178986011D01*
X229873214Y-178938392D01*
X229825595Y-178843154D01*
X229825595Y-178747916D01*
X229873214Y-178652678D01*
X229920833Y-178605059D01*
X230016071Y-178557440D01*
X230206547Y-178509821D01*
X230301785Y-178462202D01*
X230349404Y-178414583D01*
X230397023Y-178319345D01*
X230397023Y-178224107D01*
X230349404Y-178128869D01*
X230301785Y-178081250D01*
X230206547Y-178033630D01*
X229968452Y-178033630D01*
X229825595Y-178081250D01*
X229492261Y-178033630D02*
X229254166Y-179033630D01*
X229063690Y-178319345D01*
X228873214Y-179033630D01*
X228635119Y-178033630D01*
X227825595Y-178366964D02*
X227825595Y-179033630D01*
X228063690Y-177986011D02*
X228301785Y-178700297D01*
X227682738Y-178700297D01*
X227349404Y-178128869D02*
X227301785Y-178081250D01*
X227206547Y-178033630D01*
X226968452Y-178033630D01*
X226873214Y-178081250D01*
X226825595Y-178128869D01*
X226777976Y-178224107D01*
X226777976Y-178319345D01*
X226825595Y-178462202D01*
X227397023Y-179033630D01*
X226777976Y-179033630D01*
%TO.C,SW43*%
X258972023Y-178986011D02*
X258829166Y-179033630D01*
X258591071Y-179033630D01*
X258495833Y-178986011D01*
X258448214Y-178938392D01*
X258400595Y-178843154D01*
X258400595Y-178747916D01*
X258448214Y-178652678D01*
X258495833Y-178605059D01*
X258591071Y-178557440D01*
X258781547Y-178509821D01*
X258876785Y-178462202D01*
X258924404Y-178414583D01*
X258972023Y-178319345D01*
X258972023Y-178224107D01*
X258924404Y-178128869D01*
X258876785Y-178081250D01*
X258781547Y-178033630D01*
X258543452Y-178033630D01*
X258400595Y-178081250D01*
X258067261Y-178033630D02*
X257829166Y-179033630D01*
X257638690Y-178319345D01*
X257448214Y-179033630D01*
X257210119Y-178033630D01*
X256400595Y-178366964D02*
X256400595Y-179033630D01*
X256638690Y-177986011D02*
X256876785Y-178700297D01*
X256257738Y-178700297D01*
X255972023Y-178033630D02*
X255352976Y-178033630D01*
X255686309Y-178414583D01*
X255543452Y-178414583D01*
X255448214Y-178462202D01*
X255400595Y-178509821D01*
X255352976Y-178605059D01*
X255352976Y-178843154D01*
X255400595Y-178938392D01*
X255448214Y-178986011D01*
X255543452Y-179033630D01*
X255829166Y-179033630D01*
X255924404Y-178986011D01*
X255972023Y-178938392D01*
%TD*%
M02*
