%TF.GenerationSoftware,KiCad,Pcbnew,(5.1.10)-1*%
%TF.CreationDate,2023-08-12T15:50:14-04:00*%
%TF.ProjectId,niche65_mk2_right,6e696368-6536-4355-9f6d-6b325f726967,rev?*%
%TF.SameCoordinates,Original*%
%TF.FileFunction,Legend,Top*%
%TF.FilePolarity,Positive*%
%FSLAX46Y46*%
G04 Gerber Fmt 4.6, Leading zero omitted, Abs format (unit mm)*
G04 Created by KiCad (PCBNEW (5.1.10)-1) date 2023-08-12 15:50:14*
%MOMM*%
%LPD*%
G01*
G04 APERTURE LIST*
%ADD10C,0.010000*%
G04 APERTURE END LIST*
D10*
%TO.C,G\u002A\u002A\u002A*%
G36*
X116131870Y-180191675D02*
G01*
X116161284Y-180195842D01*
X116170697Y-180206351D01*
X116167040Y-180226115D01*
X116166120Y-180229034D01*
X116156422Y-180265973D01*
X116153845Y-180284067D01*
X116153917Y-180305138D01*
X116154188Y-180355158D01*
X116154628Y-180429212D01*
X116155209Y-180522382D01*
X116155900Y-180629752D01*
X116156383Y-180703167D01*
X116159050Y-181105333D01*
X117750784Y-181105333D01*
X117750784Y-180190934D01*
X117854195Y-180190934D01*
X117910633Y-180191912D01*
X117939685Y-180196284D01*
X117947807Y-180206202D01*
X117943095Y-180220567D01*
X117940432Y-180242411D01*
X117937781Y-180295102D01*
X117935196Y-180375619D01*
X117932732Y-180480943D01*
X117930443Y-180608054D01*
X117928383Y-180753932D01*
X117926606Y-180915556D01*
X117925166Y-181089907D01*
X117924118Y-181273964D01*
X117924092Y-181279776D01*
X117919601Y-182309352D01*
X117742317Y-182299134D01*
X117733361Y-181257734D01*
X116946450Y-181257734D01*
X116159540Y-181257733D01*
X116155062Y-181778434D01*
X116150584Y-182299134D01*
X115972784Y-182309370D01*
X115972784Y-180190934D01*
X116075525Y-180190934D01*
X116131870Y-180191675D01*
G37*
X116131870Y-180191675D02*
X116161284Y-180195842D01*
X116170697Y-180206351D01*
X116167040Y-180226115D01*
X116166120Y-180229034D01*
X116156422Y-180265973D01*
X116153845Y-180284067D01*
X116153917Y-180305138D01*
X116154188Y-180355158D01*
X116154628Y-180429212D01*
X116155209Y-180522382D01*
X116155900Y-180629752D01*
X116156383Y-180703167D01*
X116159050Y-181105333D01*
X117750784Y-181105333D01*
X117750784Y-180190934D01*
X117854195Y-180190934D01*
X117910633Y-180191912D01*
X117939685Y-180196284D01*
X117947807Y-180206202D01*
X117943095Y-180220567D01*
X117940432Y-180242411D01*
X117937781Y-180295102D01*
X117935196Y-180375619D01*
X117932732Y-180480943D01*
X117930443Y-180608054D01*
X117928383Y-180753932D01*
X117926606Y-180915556D01*
X117925166Y-181089907D01*
X117924118Y-181273964D01*
X117924092Y-181279776D01*
X117919601Y-182309352D01*
X117742317Y-182299134D01*
X117733361Y-181257734D01*
X116946450Y-181257734D01*
X116159540Y-181257733D01*
X116155062Y-181778434D01*
X116150584Y-182299134D01*
X115972784Y-182309370D01*
X115972784Y-180190934D01*
X116075525Y-180190934D01*
X116131870Y-180191675D01*
G36*
X114131283Y-180195306D02*
G01*
X114299848Y-180197690D01*
X114438401Y-180200059D01*
X114550799Y-180202629D01*
X114640898Y-180205614D01*
X114712552Y-180209230D01*
X114769617Y-180213691D01*
X114815948Y-180219213D01*
X114855400Y-180226010D01*
X114891829Y-180234298D01*
X114908593Y-180238660D01*
X115043465Y-180282094D01*
X115150704Y-180333787D01*
X115236158Y-180396896D01*
X115275100Y-180436605D01*
X115342439Y-180536638D01*
X115384315Y-180650478D01*
X115399608Y-180770359D01*
X115387200Y-180888518D01*
X115353748Y-180982380D01*
X115286634Y-181081273D01*
X115192206Y-181168356D01*
X115076052Y-181239856D01*
X114943758Y-181291996D01*
X114867884Y-181310713D01*
X114815931Y-181322574D01*
X114780679Y-181333758D01*
X114770702Y-181340370D01*
X114780657Y-181355823D01*
X114808866Y-181395004D01*
X114852978Y-181454765D01*
X114910643Y-181531957D01*
X114979511Y-181623430D01*
X115057230Y-181726036D01*
X115126117Y-181816534D01*
X115209381Y-181926031D01*
X115285721Y-182027092D01*
X115352783Y-182116550D01*
X115408216Y-182191238D01*
X115449665Y-182247990D01*
X115474779Y-182283638D01*
X115481532Y-182294900D01*
X115466221Y-182301341D01*
X115426103Y-182305573D01*
X115375884Y-182306657D01*
X115270050Y-182305715D01*
X114908068Y-181824057D01*
X114546085Y-181342400D01*
X113652917Y-181342400D01*
X113652917Y-182307600D01*
X113483583Y-182307600D01*
X113483583Y-181190000D01*
X113652917Y-181190000D01*
X114165150Y-181189872D01*
X114299653Y-181189251D01*
X114428506Y-181187557D01*
X114546320Y-181184946D01*
X114647707Y-181181571D01*
X114727277Y-181177587D01*
X114779643Y-181173148D01*
X114787450Y-181172050D01*
X114872896Y-181152607D01*
X114961208Y-181123054D01*
X115041322Y-181087820D01*
X115102174Y-181051335D01*
X115114759Y-181041043D01*
X115169072Y-180971001D01*
X115204840Y-180879928D01*
X115218404Y-180777214D01*
X115218424Y-180775134D01*
X115204378Y-180666628D01*
X115160424Y-180573091D01*
X115086251Y-180494139D01*
X114981548Y-180429391D01*
X114913046Y-180400510D01*
X114887122Y-180392125D01*
X114856792Y-180385289D01*
X114818274Y-180379796D01*
X114767787Y-180375439D01*
X114701548Y-180372010D01*
X114615775Y-180369305D01*
X114506686Y-180367116D01*
X114370499Y-180365237D01*
X114241350Y-180363836D01*
X113652917Y-180357918D01*
X113652917Y-181190000D01*
X113483583Y-181190000D01*
X113483583Y-180186678D01*
X114131283Y-180195306D01*
G37*
X114131283Y-180195306D02*
X114299848Y-180197690D01*
X114438401Y-180200059D01*
X114550799Y-180202629D01*
X114640898Y-180205614D01*
X114712552Y-180209230D01*
X114769617Y-180213691D01*
X114815948Y-180219213D01*
X114855400Y-180226010D01*
X114891829Y-180234298D01*
X114908593Y-180238660D01*
X115043465Y-180282094D01*
X115150704Y-180333787D01*
X115236158Y-180396896D01*
X115275100Y-180436605D01*
X115342439Y-180536638D01*
X115384315Y-180650478D01*
X115399608Y-180770359D01*
X115387200Y-180888518D01*
X115353748Y-180982380D01*
X115286634Y-181081273D01*
X115192206Y-181168356D01*
X115076052Y-181239856D01*
X114943758Y-181291996D01*
X114867884Y-181310713D01*
X114815931Y-181322574D01*
X114780679Y-181333758D01*
X114770702Y-181340370D01*
X114780657Y-181355823D01*
X114808866Y-181395004D01*
X114852978Y-181454765D01*
X114910643Y-181531957D01*
X114979511Y-181623430D01*
X115057230Y-181726036D01*
X115126117Y-181816534D01*
X115209381Y-181926031D01*
X115285721Y-182027092D01*
X115352783Y-182116550D01*
X115408216Y-182191238D01*
X115449665Y-182247990D01*
X115474779Y-182283638D01*
X115481532Y-182294900D01*
X115466221Y-182301341D01*
X115426103Y-182305573D01*
X115375884Y-182306657D01*
X115270050Y-182305715D01*
X114908068Y-181824057D01*
X114546085Y-181342400D01*
X113652917Y-181342400D01*
X113652917Y-182307600D01*
X113483583Y-182307600D01*
X113483583Y-181190000D01*
X113652917Y-181190000D01*
X114165150Y-181189872D01*
X114299653Y-181189251D01*
X114428506Y-181187557D01*
X114546320Y-181184946D01*
X114647707Y-181181571D01*
X114727277Y-181177587D01*
X114779643Y-181173148D01*
X114787450Y-181172050D01*
X114872896Y-181152607D01*
X114961208Y-181123054D01*
X115041322Y-181087820D01*
X115102174Y-181051335D01*
X115114759Y-181041043D01*
X115169072Y-180971001D01*
X115204840Y-180879928D01*
X115218404Y-180777214D01*
X115218424Y-180775134D01*
X115204378Y-180666628D01*
X115160424Y-180573091D01*
X115086251Y-180494139D01*
X114981548Y-180429391D01*
X114913046Y-180400510D01*
X114887122Y-180392125D01*
X114856792Y-180385289D01*
X114818274Y-180379796D01*
X114767787Y-180375439D01*
X114701548Y-180372010D01*
X114615775Y-180369305D01*
X114506686Y-180367116D01*
X114370499Y-180365237D01*
X114241350Y-180363836D01*
X113652917Y-180357918D01*
X113652917Y-181190000D01*
X113483583Y-181190000D01*
X113483583Y-180186678D01*
X114131283Y-180195306D01*
G36*
X112755450Y-180360267D02*
G01*
X111334585Y-180360267D01*
X111325711Y-180415300D01*
X111319525Y-180461430D01*
X111312085Y-180528874D01*
X111303905Y-180611480D01*
X111295497Y-180703099D01*
X111287374Y-180797580D01*
X111280049Y-180888773D01*
X111274033Y-180970526D01*
X111269841Y-181036690D01*
X111267985Y-181081115D01*
X111268840Y-181097567D01*
X111288033Y-181096789D01*
X111326159Y-181084933D01*
X111341541Y-181078832D01*
X111460882Y-181039722D01*
X111603422Y-181010249D01*
X111759699Y-180991096D01*
X111920251Y-180982951D01*
X112075613Y-180986500D01*
X112216323Y-181002426D01*
X112264384Y-181011958D01*
X112427269Y-181061153D01*
X112567712Y-181128718D01*
X112682182Y-181212812D01*
X112718164Y-181248749D01*
X112787552Y-181337981D01*
X112832820Y-181431120D01*
X112857185Y-181537197D01*
X112863898Y-181658016D01*
X112861898Y-181734274D01*
X112854184Y-181791456D01*
X112837512Y-181844262D01*
X112808985Y-181906679D01*
X112730777Y-182027805D01*
X112625464Y-182129445D01*
X112493948Y-182211151D01*
X112337132Y-182272473D01*
X112155919Y-182312963D01*
X111952238Y-182332132D01*
X111860626Y-182333734D01*
X111767112Y-182332013D01*
X111685462Y-182327365D01*
X111648308Y-182323393D01*
X111530305Y-182300502D01*
X111407173Y-182265187D01*
X111286339Y-182220574D01*
X111175230Y-182169791D01*
X111081271Y-182115964D01*
X111011889Y-182062221D01*
X111000632Y-182050688D01*
X110964630Y-182011267D01*
X111047240Y-181947509D01*
X111095842Y-181913405D01*
X111123683Y-181901780D01*
X111129850Y-181907904D01*
X111145242Y-181942363D01*
X111187664Y-181982520D01*
X111251485Y-182025114D01*
X111331076Y-182066884D01*
X111420805Y-182104572D01*
X111515043Y-182134916D01*
X111527603Y-182138221D01*
X111701529Y-182172129D01*
X111869333Y-182184713D01*
X112028442Y-182177402D01*
X112176285Y-182151628D01*
X112310288Y-182108819D01*
X112427881Y-182050405D01*
X112526491Y-181977817D01*
X112603547Y-181892483D01*
X112656475Y-181795834D01*
X112682704Y-181689299D01*
X112679662Y-181574309D01*
X112664118Y-181506435D01*
X112615059Y-181400343D01*
X112537433Y-181311205D01*
X112432278Y-181239528D01*
X112300632Y-181185819D01*
X112143533Y-181150587D01*
X111962018Y-181134336D01*
X111900317Y-181133231D01*
X111746400Y-181138237D01*
X111613708Y-181155584D01*
X111491111Y-181187602D01*
X111367480Y-181236621D01*
X111335885Y-181251431D01*
X111262686Y-181283994D01*
X111209770Y-181300423D01*
X111168995Y-181302997D01*
X111157617Y-181301352D01*
X111131343Y-181296408D01*
X111110598Y-181290450D01*
X111095134Y-181279945D01*
X111084703Y-181261362D01*
X111079054Y-181231169D01*
X111077940Y-181185834D01*
X111081112Y-181121824D01*
X111088321Y-181035607D01*
X111099317Y-180923651D01*
X111113853Y-180782425D01*
X111118140Y-180740879D01*
X111172184Y-180216334D01*
X112755450Y-180207532D01*
X112755450Y-180360267D01*
G37*
X112755450Y-180360267D02*
X111334585Y-180360267D01*
X111325711Y-180415300D01*
X111319525Y-180461430D01*
X111312085Y-180528874D01*
X111303905Y-180611480D01*
X111295497Y-180703099D01*
X111287374Y-180797580D01*
X111280049Y-180888773D01*
X111274033Y-180970526D01*
X111269841Y-181036690D01*
X111267985Y-181081115D01*
X111268840Y-181097567D01*
X111288033Y-181096789D01*
X111326159Y-181084933D01*
X111341541Y-181078832D01*
X111460882Y-181039722D01*
X111603422Y-181010249D01*
X111759699Y-180991096D01*
X111920251Y-180982951D01*
X112075613Y-180986500D01*
X112216323Y-181002426D01*
X112264384Y-181011958D01*
X112427269Y-181061153D01*
X112567712Y-181128718D01*
X112682182Y-181212812D01*
X112718164Y-181248749D01*
X112787552Y-181337981D01*
X112832820Y-181431120D01*
X112857185Y-181537197D01*
X112863898Y-181658016D01*
X112861898Y-181734274D01*
X112854184Y-181791456D01*
X112837512Y-181844262D01*
X112808985Y-181906679D01*
X112730777Y-182027805D01*
X112625464Y-182129445D01*
X112493948Y-182211151D01*
X112337132Y-182272473D01*
X112155919Y-182312963D01*
X111952238Y-182332132D01*
X111860626Y-182333734D01*
X111767112Y-182332013D01*
X111685462Y-182327365D01*
X111648308Y-182323393D01*
X111530305Y-182300502D01*
X111407173Y-182265187D01*
X111286339Y-182220574D01*
X111175230Y-182169791D01*
X111081271Y-182115964D01*
X111011889Y-182062221D01*
X111000632Y-182050688D01*
X110964630Y-182011267D01*
X111047240Y-181947509D01*
X111095842Y-181913405D01*
X111123683Y-181901780D01*
X111129850Y-181907904D01*
X111145242Y-181942363D01*
X111187664Y-181982520D01*
X111251485Y-182025114D01*
X111331076Y-182066884D01*
X111420805Y-182104572D01*
X111515043Y-182134916D01*
X111527603Y-182138221D01*
X111701529Y-182172129D01*
X111869333Y-182184713D01*
X112028442Y-182177402D01*
X112176285Y-182151628D01*
X112310288Y-182108819D01*
X112427881Y-182050405D01*
X112526491Y-181977817D01*
X112603547Y-181892483D01*
X112656475Y-181795834D01*
X112682704Y-181689299D01*
X112679662Y-181574309D01*
X112664118Y-181506435D01*
X112615059Y-181400343D01*
X112537433Y-181311205D01*
X112432278Y-181239528D01*
X112300632Y-181185819D01*
X112143533Y-181150587D01*
X111962018Y-181134336D01*
X111900317Y-181133231D01*
X111746400Y-181138237D01*
X111613708Y-181155584D01*
X111491111Y-181187602D01*
X111367480Y-181236621D01*
X111335885Y-181251431D01*
X111262686Y-181283994D01*
X111209770Y-181300423D01*
X111168995Y-181302997D01*
X111157617Y-181301352D01*
X111131343Y-181296408D01*
X111110598Y-181290450D01*
X111095134Y-181279945D01*
X111084703Y-181261362D01*
X111079054Y-181231169D01*
X111077940Y-181185834D01*
X111081112Y-181121824D01*
X111088321Y-181035607D01*
X111099317Y-180923651D01*
X111113853Y-180782425D01*
X111118140Y-180740879D01*
X111172184Y-180216334D01*
X112755450Y-180207532D01*
X112755450Y-180360267D01*
G36*
X109688854Y-180204600D02*
G01*
X109816947Y-180220417D01*
X109932465Y-180249513D01*
X110045480Y-180294154D01*
X110117715Y-180330102D01*
X110170821Y-180359621D01*
X110196427Y-180382657D01*
X110196040Y-180408055D01*
X110171169Y-180444663D01*
X110142966Y-180478217D01*
X110095882Y-180533429D01*
X110055729Y-180490103D01*
X110000591Y-180445907D01*
X109922597Y-180409606D01*
X109817305Y-180379354D01*
X109760994Y-180367446D01*
X109576701Y-180345784D01*
X109400438Y-180352524D01*
X109235136Y-180386198D01*
X109083727Y-180445340D01*
X108949143Y-180528480D01*
X108834315Y-180634152D01*
X108742174Y-180760888D01*
X108675654Y-180907221D01*
X108674234Y-180911450D01*
X108661120Y-180958477D01*
X108647457Y-181019707D01*
X108634578Y-181087101D01*
X108623818Y-181152617D01*
X108616510Y-181208214D01*
X108613988Y-181245852D01*
X108616785Y-181257734D01*
X108631466Y-181249040D01*
X108666386Y-181226319D01*
X108710915Y-181196554D01*
X108883344Y-181100251D01*
X109072696Y-181031784D01*
X109275047Y-180992296D01*
X109444983Y-180982341D01*
X109621536Y-180994523D01*
X109782632Y-181029703D01*
X109925988Y-181085943D01*
X110049324Y-181161307D01*
X110150358Y-181253858D01*
X110226809Y-181361660D01*
X110276396Y-181482776D01*
X110296838Y-181615270D01*
X110293812Y-181702879D01*
X110263719Y-181835481D01*
X110204305Y-181956389D01*
X110118649Y-182063769D01*
X110009831Y-182155787D01*
X109880929Y-182230610D01*
X109735022Y-182286404D01*
X109575189Y-182321335D01*
X109404509Y-182333569D01*
X109250250Y-182324402D01*
X109066099Y-182288252D01*
X108904198Y-182226907D01*
X108765080Y-182140832D01*
X108649276Y-182030492D01*
X108557318Y-181896350D01*
X108489741Y-181738873D01*
X108461736Y-181636174D01*
X108448975Y-181567922D01*
X108441631Y-181497396D01*
X108440233Y-181450213D01*
X108619542Y-181450213D01*
X108630089Y-181552940D01*
X108657160Y-181673267D01*
X108710951Y-181794217D01*
X108786216Y-181905236D01*
X108828552Y-181952023D01*
X108889536Y-182003349D01*
X108967838Y-182055797D01*
X109052810Y-182103395D01*
X109133802Y-182140170D01*
X109199450Y-182160025D01*
X109269583Y-182167440D01*
X109359126Y-182169952D01*
X109455974Y-182167919D01*
X109548021Y-182161702D01*
X109623161Y-182151658D01*
X109645142Y-182146814D01*
X109772309Y-182103646D01*
X109879469Y-182043392D01*
X109956094Y-181981192D01*
X110027322Y-181906506D01*
X110072770Y-181833206D01*
X110097113Y-181750504D01*
X110105025Y-181647614D01*
X110105090Y-181637406D01*
X110103898Y-181565033D01*
X110098073Y-181514335D01*
X110084800Y-181473167D01*
X110061267Y-181429388D01*
X110054221Y-181417857D01*
X109976499Y-181320598D01*
X109875520Y-181243883D01*
X109749529Y-181186756D01*
X109596772Y-181148264D01*
X109543634Y-181139956D01*
X109379887Y-181132883D01*
X109208891Y-181153099D01*
X109039068Y-181198138D01*
X108878841Y-181265536D01*
X108736634Y-181352826D01*
X108690136Y-181389787D01*
X108619542Y-181450213D01*
X108440233Y-181450213D01*
X108439189Y-181415026D01*
X108441133Y-181311244D01*
X108442393Y-181277049D01*
X108455787Y-181097952D01*
X108482099Y-180944973D01*
X108523643Y-180812065D01*
X108582728Y-180693184D01*
X108661668Y-180582285D01*
X108741789Y-180494118D01*
X108856385Y-180391648D01*
X108975471Y-180313369D01*
X109104657Y-180257207D01*
X109249553Y-180221089D01*
X109415769Y-180202941D01*
X109538117Y-180199800D01*
X109688854Y-180204600D01*
G37*
X109688854Y-180204600D02*
X109816947Y-180220417D01*
X109932465Y-180249513D01*
X110045480Y-180294154D01*
X110117715Y-180330102D01*
X110170821Y-180359621D01*
X110196427Y-180382657D01*
X110196040Y-180408055D01*
X110171169Y-180444663D01*
X110142966Y-180478217D01*
X110095882Y-180533429D01*
X110055729Y-180490103D01*
X110000591Y-180445907D01*
X109922597Y-180409606D01*
X109817305Y-180379354D01*
X109760994Y-180367446D01*
X109576701Y-180345784D01*
X109400438Y-180352524D01*
X109235136Y-180386198D01*
X109083727Y-180445340D01*
X108949143Y-180528480D01*
X108834315Y-180634152D01*
X108742174Y-180760888D01*
X108675654Y-180907221D01*
X108674234Y-180911450D01*
X108661120Y-180958477D01*
X108647457Y-181019707D01*
X108634578Y-181087101D01*
X108623818Y-181152617D01*
X108616510Y-181208214D01*
X108613988Y-181245852D01*
X108616785Y-181257734D01*
X108631466Y-181249040D01*
X108666386Y-181226319D01*
X108710915Y-181196554D01*
X108883344Y-181100251D01*
X109072696Y-181031784D01*
X109275047Y-180992296D01*
X109444983Y-180982341D01*
X109621536Y-180994523D01*
X109782632Y-181029703D01*
X109925988Y-181085943D01*
X110049324Y-181161307D01*
X110150358Y-181253858D01*
X110226809Y-181361660D01*
X110276396Y-181482776D01*
X110296838Y-181615270D01*
X110293812Y-181702879D01*
X110263719Y-181835481D01*
X110204305Y-181956389D01*
X110118649Y-182063769D01*
X110009831Y-182155787D01*
X109880929Y-182230610D01*
X109735022Y-182286404D01*
X109575189Y-182321335D01*
X109404509Y-182333569D01*
X109250250Y-182324402D01*
X109066099Y-182288252D01*
X108904198Y-182226907D01*
X108765080Y-182140832D01*
X108649276Y-182030492D01*
X108557318Y-181896350D01*
X108489741Y-181738873D01*
X108461736Y-181636174D01*
X108448975Y-181567922D01*
X108441631Y-181497396D01*
X108440233Y-181450213D01*
X108619542Y-181450213D01*
X108630089Y-181552940D01*
X108657160Y-181673267D01*
X108710951Y-181794217D01*
X108786216Y-181905236D01*
X108828552Y-181952023D01*
X108889536Y-182003349D01*
X108967838Y-182055797D01*
X109052810Y-182103395D01*
X109133802Y-182140170D01*
X109199450Y-182160025D01*
X109269583Y-182167440D01*
X109359126Y-182169952D01*
X109455974Y-182167919D01*
X109548021Y-182161702D01*
X109623161Y-182151658D01*
X109645142Y-182146814D01*
X109772309Y-182103646D01*
X109879469Y-182043392D01*
X109956094Y-181981192D01*
X110027322Y-181906506D01*
X110072770Y-181833206D01*
X110097113Y-181750504D01*
X110105025Y-181647614D01*
X110105090Y-181637406D01*
X110103898Y-181565033D01*
X110098073Y-181514335D01*
X110084800Y-181473167D01*
X110061267Y-181429388D01*
X110054221Y-181417857D01*
X109976499Y-181320598D01*
X109875520Y-181243883D01*
X109749529Y-181186756D01*
X109596772Y-181148264D01*
X109543634Y-181139956D01*
X109379887Y-181132883D01*
X109208891Y-181153099D01*
X109039068Y-181198138D01*
X108878841Y-181265536D01*
X108736634Y-181352826D01*
X108690136Y-181389787D01*
X108619542Y-181450213D01*
X108440233Y-181450213D01*
X108439189Y-181415026D01*
X108441133Y-181311244D01*
X108442393Y-181277049D01*
X108455787Y-181097952D01*
X108482099Y-180944973D01*
X108523643Y-180812065D01*
X108582728Y-180693184D01*
X108661668Y-180582285D01*
X108741789Y-180494118D01*
X108856385Y-180391648D01*
X108975471Y-180313369D01*
X109104657Y-180257207D01*
X109249553Y-180221089D01*
X109415769Y-180202941D01*
X109538117Y-180199800D01*
X109688854Y-180204600D01*
G36*
X107097505Y-180194730D02*
G01*
X107159531Y-180199285D01*
X107212095Y-180206591D01*
X107259401Y-180216479D01*
X107330139Y-180237375D01*
X107413782Y-180268058D01*
X107500859Y-180304400D01*
X107581904Y-180342273D01*
X107647447Y-180377549D01*
X107681772Y-180400647D01*
X107699042Y-180417315D01*
X107700995Y-180434326D01*
X107685414Y-180460930D01*
X107659182Y-180494894D01*
X107627565Y-180533625D01*
X107605460Y-180558488D01*
X107599521Y-180563467D01*
X107585513Y-180552630D01*
X107555982Y-180525106D01*
X107537443Y-180506906D01*
X107462505Y-180451775D01*
X107359129Y-180405184D01*
X107231934Y-180368312D01*
X107085540Y-180342343D01*
X106924567Y-180328458D01*
X106831809Y-180326400D01*
X106652346Y-180333030D01*
X106501209Y-180353465D01*
X106375448Y-180388523D01*
X106272111Y-180439023D01*
X106189550Y-180504484D01*
X106147873Y-180549217D01*
X106126202Y-180585053D01*
X106118338Y-180624546D01*
X106117647Y-180650139D01*
X106130162Y-180730971D01*
X106169519Y-180802015D01*
X106238658Y-180867842D01*
X106273623Y-180892620D01*
X106326730Y-180925561D01*
X106384324Y-180956054D01*
X106450879Y-180985771D01*
X106530868Y-181016386D01*
X106628765Y-181049570D01*
X106749044Y-181086997D01*
X106896178Y-181130338D01*
X106953822Y-181146920D01*
X107152582Y-181206366D01*
X107320147Y-181262561D01*
X107458843Y-181317101D01*
X107570992Y-181371580D01*
X107658918Y-181427594D01*
X107724946Y-181486737D01*
X107771399Y-181550604D01*
X107800601Y-181620791D01*
X107814877Y-181698891D01*
X107817104Y-181739366D01*
X107803766Y-181860256D01*
X107758981Y-181970030D01*
X107683587Y-182067809D01*
X107578420Y-182152711D01*
X107444315Y-182223857D01*
X107310956Y-182272032D01*
X107262630Y-182283585D01*
X107193946Y-182296234D01*
X107112738Y-182308962D01*
X107026842Y-182320754D01*
X106944092Y-182330596D01*
X106872322Y-182337471D01*
X106819369Y-182340364D01*
X106794917Y-182338912D01*
X106775487Y-182336684D01*
X106729914Y-182332498D01*
X106665816Y-182327033D01*
X106617117Y-182323059D01*
X106524458Y-182312920D01*
X106425474Y-182297777D01*
X106337361Y-182280378D01*
X106313231Y-182274513D01*
X106235484Y-182250482D01*
X106145535Y-182216771D01*
X106053146Y-182177645D01*
X105968078Y-182137369D01*
X105900095Y-182100208D01*
X105872722Y-182082049D01*
X105855457Y-182066899D01*
X105852398Y-182051131D01*
X105865983Y-182026602D01*
X105898648Y-181985170D01*
X105903469Y-181979281D01*
X105967411Y-181901249D01*
X106007259Y-181948605D01*
X106060906Y-181994761D01*
X106141747Y-182041082D01*
X106243271Y-182084402D01*
X106358970Y-182121558D01*
X106368081Y-182124019D01*
X106461875Y-182142881D01*
X106578584Y-182157059D01*
X106708678Y-182166254D01*
X106842632Y-182170168D01*
X106970919Y-182168501D01*
X107084010Y-182160956D01*
X107164542Y-182148974D01*
X107300530Y-182110749D01*
X107420100Y-182058582D01*
X107518387Y-181995336D01*
X107590530Y-181923873D01*
X107617049Y-181882594D01*
X107638047Y-181811118D01*
X107638299Y-181729644D01*
X107618387Y-181654478D01*
X107608214Y-181635012D01*
X107576953Y-181592400D01*
X107535550Y-181552937D01*
X107480887Y-181515212D01*
X107409844Y-181477815D01*
X107319304Y-181439335D01*
X107206149Y-181398360D01*
X107067260Y-181353480D01*
X106899518Y-181303283D01*
X106831920Y-181283769D01*
X106665476Y-181234650D01*
X106527367Y-181190438D01*
X106412751Y-181149230D01*
X106316787Y-181109124D01*
X106234635Y-181068217D01*
X106161453Y-181024607D01*
X106145284Y-181013929D01*
X106045206Y-180932557D01*
X105977900Y-180844411D01*
X105942704Y-180748109D01*
X105938956Y-180642270D01*
X105945874Y-180598119D01*
X105982322Y-180496251D01*
X106047620Y-180407760D01*
X106142786Y-180331702D01*
X106268839Y-180267131D01*
X106326705Y-180244818D01*
X106370633Y-180229959D01*
X106411715Y-180218758D01*
X106456017Y-180210565D01*
X106509604Y-180204730D01*
X106578543Y-180200602D01*
X106668899Y-180197530D01*
X106786740Y-180194863D01*
X106793734Y-180194723D01*
X106920697Y-180192734D01*
X107019924Y-180192641D01*
X107097505Y-180194730D01*
G37*
X107097505Y-180194730D02*
X107159531Y-180199285D01*
X107212095Y-180206591D01*
X107259401Y-180216479D01*
X107330139Y-180237375D01*
X107413782Y-180268058D01*
X107500859Y-180304400D01*
X107581904Y-180342273D01*
X107647447Y-180377549D01*
X107681772Y-180400647D01*
X107699042Y-180417315D01*
X107700995Y-180434326D01*
X107685414Y-180460930D01*
X107659182Y-180494894D01*
X107627565Y-180533625D01*
X107605460Y-180558488D01*
X107599521Y-180563467D01*
X107585513Y-180552630D01*
X107555982Y-180525106D01*
X107537443Y-180506906D01*
X107462505Y-180451775D01*
X107359129Y-180405184D01*
X107231934Y-180368312D01*
X107085540Y-180342343D01*
X106924567Y-180328458D01*
X106831809Y-180326400D01*
X106652346Y-180333030D01*
X106501209Y-180353465D01*
X106375448Y-180388523D01*
X106272111Y-180439023D01*
X106189550Y-180504484D01*
X106147873Y-180549217D01*
X106126202Y-180585053D01*
X106118338Y-180624546D01*
X106117647Y-180650139D01*
X106130162Y-180730971D01*
X106169519Y-180802015D01*
X106238658Y-180867842D01*
X106273623Y-180892620D01*
X106326730Y-180925561D01*
X106384324Y-180956054D01*
X106450879Y-180985771D01*
X106530868Y-181016386D01*
X106628765Y-181049570D01*
X106749044Y-181086997D01*
X106896178Y-181130338D01*
X106953822Y-181146920D01*
X107152582Y-181206366D01*
X107320147Y-181262561D01*
X107458843Y-181317101D01*
X107570992Y-181371580D01*
X107658918Y-181427594D01*
X107724946Y-181486737D01*
X107771399Y-181550604D01*
X107800601Y-181620791D01*
X107814877Y-181698891D01*
X107817104Y-181739366D01*
X107803766Y-181860256D01*
X107758981Y-181970030D01*
X107683587Y-182067809D01*
X107578420Y-182152711D01*
X107444315Y-182223857D01*
X107310956Y-182272032D01*
X107262630Y-182283585D01*
X107193946Y-182296234D01*
X107112738Y-182308962D01*
X107026842Y-182320754D01*
X106944092Y-182330596D01*
X106872322Y-182337471D01*
X106819369Y-182340364D01*
X106794917Y-182338912D01*
X106775487Y-182336684D01*
X106729914Y-182332498D01*
X106665816Y-182327033D01*
X106617117Y-182323059D01*
X106524458Y-182312920D01*
X106425474Y-182297777D01*
X106337361Y-182280378D01*
X106313231Y-182274513D01*
X106235484Y-182250482D01*
X106145535Y-182216771D01*
X106053146Y-182177645D01*
X105968078Y-182137369D01*
X105900095Y-182100208D01*
X105872722Y-182082049D01*
X105855457Y-182066899D01*
X105852398Y-182051131D01*
X105865983Y-182026602D01*
X105898648Y-181985170D01*
X105903469Y-181979281D01*
X105967411Y-181901249D01*
X106007259Y-181948605D01*
X106060906Y-181994761D01*
X106141747Y-182041082D01*
X106243271Y-182084402D01*
X106358970Y-182121558D01*
X106368081Y-182124019D01*
X106461875Y-182142881D01*
X106578584Y-182157059D01*
X106708678Y-182166254D01*
X106842632Y-182170168D01*
X106970919Y-182168501D01*
X107084010Y-182160956D01*
X107164542Y-182148974D01*
X107300530Y-182110749D01*
X107420100Y-182058582D01*
X107518387Y-181995336D01*
X107590530Y-181923873D01*
X107617049Y-181882594D01*
X107638047Y-181811118D01*
X107638299Y-181729644D01*
X107618387Y-181654478D01*
X107608214Y-181635012D01*
X107576953Y-181592400D01*
X107535550Y-181552937D01*
X107480887Y-181515212D01*
X107409844Y-181477815D01*
X107319304Y-181439335D01*
X107206149Y-181398360D01*
X107067260Y-181353480D01*
X106899518Y-181303283D01*
X106831920Y-181283769D01*
X106665476Y-181234650D01*
X106527367Y-181190438D01*
X106412751Y-181149230D01*
X106316787Y-181109124D01*
X106234635Y-181068217D01*
X106161453Y-181024607D01*
X106145284Y-181013929D01*
X106045206Y-180932557D01*
X105977900Y-180844411D01*
X105942704Y-180748109D01*
X105938956Y-180642270D01*
X105945874Y-180598119D01*
X105982322Y-180496251D01*
X106047620Y-180407760D01*
X106142786Y-180331702D01*
X106268839Y-180267131D01*
X106326705Y-180244818D01*
X106370633Y-180229959D01*
X106411715Y-180218758D01*
X106456017Y-180210565D01*
X106509604Y-180204730D01*
X106578543Y-180200602D01*
X106668899Y-180197530D01*
X106786740Y-180194863D01*
X106793734Y-180194723D01*
X106920697Y-180192734D01*
X107019924Y-180192641D01*
X107097505Y-180194730D01*
G36*
X150000959Y-181359341D02*
G01*
X152382244Y-183740556D01*
X152382244Y-180565830D01*
X151588598Y-179771978D01*
X150794951Y-178978126D01*
X153181250Y-178978126D01*
X153181250Y-185328125D01*
X152392826Y-185328125D01*
X150011542Y-182946910D01*
X147630257Y-180565695D01*
X147630257Y-183740421D01*
X148423903Y-184534273D01*
X149217550Y-185328125D01*
X146831251Y-185328125D01*
X146831251Y-178978126D01*
X147619675Y-178978126D01*
X150000959Y-181359341D01*
G37*
X150000959Y-181359341D02*
X152382244Y-183740556D01*
X152382244Y-180565830D01*
X151588598Y-179771978D01*
X150794951Y-178978126D01*
X153181250Y-178978126D01*
X153181250Y-185328125D01*
X152392826Y-185328125D01*
X150011542Y-182946910D01*
X147630257Y-180565695D01*
X147630257Y-183740421D01*
X148423903Y-184534273D01*
X149217550Y-185328125D01*
X146831251Y-185328125D01*
X146831251Y-178978126D01*
X147619675Y-178978126D01*
X150000959Y-181359341D01*
G36*
X155706523Y-181849067D02*
G01*
X157235725Y-183538909D01*
X157242167Y-180159225D01*
X157445321Y-180159225D01*
X157526757Y-180159547D01*
X157585341Y-180161269D01*
X157623619Y-180165526D01*
X157644139Y-180173453D01*
X157649447Y-180186184D01*
X157642089Y-180204853D01*
X157624612Y-180230595D01*
X157619900Y-180236998D01*
X157591325Y-180275643D01*
X157584057Y-184173275D01*
X157320013Y-184166075D01*
X154175025Y-180673575D01*
X154168585Y-184172425D01*
X153825775Y-184172425D01*
X153825775Y-180159225D01*
X154001548Y-180159224D01*
X154177322Y-180159224D01*
X155706523Y-181849067D01*
G37*
X155706523Y-181849067D02*
X157235725Y-183538909D01*
X157242167Y-180159225D01*
X157445321Y-180159225D01*
X157526757Y-180159547D01*
X157585341Y-180161269D01*
X157623619Y-180165526D01*
X157644139Y-180173453D01*
X157649447Y-180186184D01*
X157642089Y-180204853D01*
X157624612Y-180230595D01*
X157619900Y-180236998D01*
X157591325Y-180275643D01*
X157584057Y-184173275D01*
X157320013Y-184166075D01*
X154175025Y-180673575D01*
X154168585Y-184172425D01*
X153825775Y-184172425D01*
X153825775Y-180159225D01*
X154001548Y-180159224D01*
X154177322Y-180159224D01*
X155706523Y-181849067D01*
G36*
X159761787Y-181168874D02*
G01*
X159881021Y-181306389D01*
X159995616Y-181438380D01*
X160104475Y-181563592D01*
X160206499Y-181680771D01*
X160300593Y-181788661D01*
X160385657Y-181886009D01*
X160460596Y-181971560D01*
X160524310Y-182044060D01*
X160575704Y-182102253D01*
X160613680Y-182144885D01*
X160637140Y-182170702D01*
X160644950Y-182178525D01*
X160653893Y-182168842D01*
X160677673Y-182140669D01*
X160715222Y-182095319D01*
X160765473Y-182034106D01*
X160827358Y-181958342D01*
X160899809Y-181869341D01*
X160981757Y-181768417D01*
X161072134Y-181656882D01*
X161169874Y-181536050D01*
X161273907Y-181407233D01*
X161383165Y-181271747D01*
X161465437Y-181169598D01*
X162277625Y-180160672D01*
X162479205Y-180159948D01*
X162556834Y-180160059D01*
X162611884Y-180161185D01*
X162647163Y-180163552D01*
X162665479Y-180167384D01*
X162669640Y-180172908D01*
X162668416Y-180175100D01*
X162659450Y-180186419D01*
X162636370Y-180215470D01*
X162599060Y-180262403D01*
X162547399Y-180327365D01*
X162481270Y-180410507D01*
X162400555Y-180511976D01*
X162305135Y-180631922D01*
X162194891Y-180770493D01*
X162069706Y-180927839D01*
X161929460Y-181104109D01*
X161774035Y-181299450D01*
X161603313Y-181514013D01*
X161417175Y-181747945D01*
X161215503Y-182001397D01*
X160998178Y-182274516D01*
X160909824Y-182385552D01*
X160810775Y-182510030D01*
X160810775Y-184172425D01*
X160455175Y-184172425D01*
X160455175Y-182493801D01*
X159474100Y-181348454D01*
X159347852Y-181201054D01*
X159226037Y-181058803D01*
X159109693Y-180922917D01*
X158999860Y-180794609D01*
X158897577Y-180675096D01*
X158803885Y-180565592D01*
X158719821Y-180467313D01*
X158646427Y-180381474D01*
X158584741Y-180309291D01*
X158535803Y-180251978D01*
X158500653Y-180210750D01*
X158480329Y-180186824D01*
X158475594Y-180181165D01*
X158470689Y-180173155D01*
X158472810Y-180167370D01*
X158485188Y-180163450D01*
X158511051Y-180161036D01*
X158553628Y-180159768D01*
X158616150Y-180159287D01*
X158672545Y-180159225D01*
X158886925Y-180159225D01*
X159761787Y-181168874D01*
G37*
X159761787Y-181168874D02*
X159881021Y-181306389D01*
X159995616Y-181438380D01*
X160104475Y-181563592D01*
X160206499Y-181680771D01*
X160300593Y-181788661D01*
X160385657Y-181886009D01*
X160460596Y-181971560D01*
X160524310Y-182044060D01*
X160575704Y-182102253D01*
X160613680Y-182144885D01*
X160637140Y-182170702D01*
X160644950Y-182178525D01*
X160653893Y-182168842D01*
X160677673Y-182140669D01*
X160715222Y-182095319D01*
X160765473Y-182034106D01*
X160827358Y-181958342D01*
X160899809Y-181869341D01*
X160981757Y-181768417D01*
X161072134Y-181656882D01*
X161169874Y-181536050D01*
X161273907Y-181407233D01*
X161383165Y-181271747D01*
X161465437Y-181169598D01*
X162277625Y-180160672D01*
X162479205Y-180159948D01*
X162556834Y-180160059D01*
X162611884Y-180161185D01*
X162647163Y-180163552D01*
X162665479Y-180167384D01*
X162669640Y-180172908D01*
X162668416Y-180175100D01*
X162659450Y-180186419D01*
X162636370Y-180215470D01*
X162599060Y-180262403D01*
X162547399Y-180327365D01*
X162481270Y-180410507D01*
X162400555Y-180511976D01*
X162305135Y-180631922D01*
X162194891Y-180770493D01*
X162069706Y-180927839D01*
X161929460Y-181104109D01*
X161774035Y-181299450D01*
X161603313Y-181514013D01*
X161417175Y-181747945D01*
X161215503Y-182001397D01*
X160998178Y-182274516D01*
X160909824Y-182385552D01*
X160810775Y-182510030D01*
X160810775Y-184172425D01*
X160455175Y-184172425D01*
X160455175Y-182493801D01*
X159474100Y-181348454D01*
X159347852Y-181201054D01*
X159226037Y-181058803D01*
X159109693Y-180922917D01*
X158999860Y-180794609D01*
X158897577Y-180675096D01*
X158803885Y-180565592D01*
X158719821Y-180467313D01*
X158646427Y-180381474D01*
X158584741Y-180309291D01*
X158535803Y-180251978D01*
X158500653Y-180210750D01*
X158480329Y-180186824D01*
X158475594Y-180181165D01*
X158470689Y-180173155D01*
X158472810Y-180167370D01*
X158485188Y-180163450D01*
X158511051Y-180161036D01*
X158553628Y-180159768D01*
X158616150Y-180159287D01*
X158672545Y-180159225D01*
X158886925Y-180159225D01*
X159761787Y-181168874D01*
G36*
X164776350Y-180162497D02*
G01*
X164980617Y-180163297D01*
X165161157Y-180164098D01*
X165319640Y-180164936D01*
X165457739Y-180165843D01*
X165577125Y-180166853D01*
X165679470Y-180168000D01*
X165766446Y-180169318D01*
X165839725Y-180170840D01*
X165900979Y-180172600D01*
X165951878Y-180174632D01*
X165994096Y-180176969D01*
X166029304Y-180179645D01*
X166059174Y-180182694D01*
X166085377Y-180186150D01*
X166105118Y-180189279D01*
X166297663Y-180227719D01*
X166467975Y-180274462D01*
X166618118Y-180330411D01*
X166750158Y-180396471D01*
X166866158Y-180473547D01*
X166968186Y-180562543D01*
X166976625Y-180571037D01*
X167051412Y-180652947D01*
X167109347Y-180731288D01*
X167155859Y-180814679D01*
X167196379Y-180911739D01*
X167203201Y-180930607D01*
X167218132Y-180973894D01*
X167228745Y-181009986D01*
X167235783Y-181044759D01*
X167239990Y-181084089D01*
X167242110Y-181133852D01*
X167242888Y-181199924D01*
X167243012Y-181245075D01*
X167241253Y-181352158D01*
X167234744Y-181439839D01*
X167222185Y-181513879D01*
X167202275Y-181580041D01*
X167173713Y-181644087D01*
X167139117Y-181705370D01*
X167043785Y-181840248D01*
X166931719Y-181958193D01*
X166802186Y-182059646D01*
X166654458Y-182145047D01*
X166487801Y-182214839D01*
X166301486Y-182269462D01*
X166154260Y-182299732D01*
X166102985Y-182308957D01*
X166062198Y-182316914D01*
X166037632Y-182322454D01*
X166033130Y-182324035D01*
X166040074Y-182334478D01*
X166061374Y-182363669D01*
X166095952Y-182410183D01*
X166142732Y-182472595D01*
X166200637Y-182549479D01*
X166268589Y-182639411D01*
X166345511Y-182740964D01*
X166430326Y-182852714D01*
X166521957Y-182973234D01*
X166619327Y-183101101D01*
X166721360Y-183234887D01*
X166728314Y-183243999D01*
X166830703Y-183378208D01*
X166928579Y-183506632D01*
X167020858Y-183627841D01*
X167106455Y-183740405D01*
X167184286Y-183842893D01*
X167253266Y-183933874D01*
X167312311Y-184011918D01*
X167360336Y-184075594D01*
X167396256Y-184123471D01*
X167418987Y-184154119D01*
X167427445Y-184166108D01*
X167427475Y-184166205D01*
X167415463Y-184168248D01*
X167382180Y-184170010D01*
X167331756Y-184171369D01*
X167268317Y-184172208D01*
X167212090Y-184172425D01*
X166996706Y-184172425D01*
X165620404Y-182343625D01*
X163922275Y-182343625D01*
X163922275Y-184172425D01*
X163579375Y-184172425D01*
X163579375Y-181248559D01*
X163922275Y-181248559D01*
X163922408Y-181387557D01*
X163922792Y-181518980D01*
X163923403Y-181640634D01*
X163924219Y-181750327D01*
X163925216Y-181845867D01*
X163926370Y-181925061D01*
X163927658Y-181985717D01*
X163929057Y-182025643D01*
X163930543Y-182042646D01*
X163930741Y-182043058D01*
X163945001Y-182044898D01*
X163982223Y-182046487D01*
X164039970Y-182047832D01*
X164115807Y-182048936D01*
X164207298Y-182049805D01*
X164312005Y-182050443D01*
X164427492Y-182050854D01*
X164551323Y-182051044D01*
X164681061Y-182051018D01*
X164814270Y-182050780D01*
X164948514Y-182050335D01*
X165081356Y-182049687D01*
X165210359Y-182048842D01*
X165333088Y-182047804D01*
X165447106Y-182046578D01*
X165549976Y-182045169D01*
X165639262Y-182043581D01*
X165712528Y-182041819D01*
X165767337Y-182039889D01*
X165776475Y-182039452D01*
X165954736Y-182026563D01*
X166111452Y-182006816D01*
X166249710Y-181979546D01*
X166372598Y-181944089D01*
X166483204Y-181899780D01*
X166527934Y-181877748D01*
X166605753Y-181829674D01*
X166682480Y-181769057D01*
X166750505Y-181702602D01*
X166802220Y-181637011D01*
X166803592Y-181634890D01*
X166858411Y-181526638D01*
X166892217Y-181408185D01*
X166904846Y-181283837D01*
X166896135Y-181157898D01*
X166865920Y-181034674D01*
X166829644Y-180947812D01*
X166770662Y-180849608D01*
X166697559Y-180764123D01*
X166608551Y-180690276D01*
X166501857Y-180626985D01*
X166375693Y-180573171D01*
X166228276Y-180527754D01*
X166081275Y-180494214D01*
X166058977Y-180490254D01*
X166033313Y-180486772D01*
X166002501Y-180483725D01*
X165964759Y-180481072D01*
X165918304Y-180478770D01*
X165861353Y-180476779D01*
X165792125Y-180475056D01*
X165708836Y-180473559D01*
X165609705Y-180472247D01*
X165492949Y-180471079D01*
X165356786Y-180470011D01*
X165199432Y-180469003D01*
X165019107Y-180468013D01*
X164947800Y-180467651D01*
X163922275Y-180462527D01*
X163922275Y-181248559D01*
X163579375Y-181248559D01*
X163579375Y-180158024D01*
X164776350Y-180162497D01*
G37*
X164776350Y-180162497D02*
X164980617Y-180163297D01*
X165161157Y-180164098D01*
X165319640Y-180164936D01*
X165457739Y-180165843D01*
X165577125Y-180166853D01*
X165679470Y-180168000D01*
X165766446Y-180169318D01*
X165839725Y-180170840D01*
X165900979Y-180172600D01*
X165951878Y-180174632D01*
X165994096Y-180176969D01*
X166029304Y-180179645D01*
X166059174Y-180182694D01*
X166085377Y-180186150D01*
X166105118Y-180189279D01*
X166297663Y-180227719D01*
X166467975Y-180274462D01*
X166618118Y-180330411D01*
X166750158Y-180396471D01*
X166866158Y-180473547D01*
X166968186Y-180562543D01*
X166976625Y-180571037D01*
X167051412Y-180652947D01*
X167109347Y-180731288D01*
X167155859Y-180814679D01*
X167196379Y-180911739D01*
X167203201Y-180930607D01*
X167218132Y-180973894D01*
X167228745Y-181009986D01*
X167235783Y-181044759D01*
X167239990Y-181084089D01*
X167242110Y-181133852D01*
X167242888Y-181199924D01*
X167243012Y-181245075D01*
X167241253Y-181352158D01*
X167234744Y-181439839D01*
X167222185Y-181513879D01*
X167202275Y-181580041D01*
X167173713Y-181644087D01*
X167139117Y-181705370D01*
X167043785Y-181840248D01*
X166931719Y-181958193D01*
X166802186Y-182059646D01*
X166654458Y-182145047D01*
X166487801Y-182214839D01*
X166301486Y-182269462D01*
X166154260Y-182299732D01*
X166102985Y-182308957D01*
X166062198Y-182316914D01*
X166037632Y-182322454D01*
X166033130Y-182324035D01*
X166040074Y-182334478D01*
X166061374Y-182363669D01*
X166095952Y-182410183D01*
X166142732Y-182472595D01*
X166200637Y-182549479D01*
X166268589Y-182639411D01*
X166345511Y-182740964D01*
X166430326Y-182852714D01*
X166521957Y-182973234D01*
X166619327Y-183101101D01*
X166721360Y-183234887D01*
X166728314Y-183243999D01*
X166830703Y-183378208D01*
X166928579Y-183506632D01*
X167020858Y-183627841D01*
X167106455Y-183740405D01*
X167184286Y-183842893D01*
X167253266Y-183933874D01*
X167312311Y-184011918D01*
X167360336Y-184075594D01*
X167396256Y-184123471D01*
X167418987Y-184154119D01*
X167427445Y-184166108D01*
X167427475Y-184166205D01*
X167415463Y-184168248D01*
X167382180Y-184170010D01*
X167331756Y-184171369D01*
X167268317Y-184172208D01*
X167212090Y-184172425D01*
X166996706Y-184172425D01*
X165620404Y-182343625D01*
X163922275Y-182343625D01*
X163922275Y-184172425D01*
X163579375Y-184172425D01*
X163579375Y-181248559D01*
X163922275Y-181248559D01*
X163922408Y-181387557D01*
X163922792Y-181518980D01*
X163923403Y-181640634D01*
X163924219Y-181750327D01*
X163925216Y-181845867D01*
X163926370Y-181925061D01*
X163927658Y-181985717D01*
X163929057Y-182025643D01*
X163930543Y-182042646D01*
X163930741Y-182043058D01*
X163945001Y-182044898D01*
X163982223Y-182046487D01*
X164039970Y-182047832D01*
X164115807Y-182048936D01*
X164207298Y-182049805D01*
X164312005Y-182050443D01*
X164427492Y-182050854D01*
X164551323Y-182051044D01*
X164681061Y-182051018D01*
X164814270Y-182050780D01*
X164948514Y-182050335D01*
X165081356Y-182049687D01*
X165210359Y-182048842D01*
X165333088Y-182047804D01*
X165447106Y-182046578D01*
X165549976Y-182045169D01*
X165639262Y-182043581D01*
X165712528Y-182041819D01*
X165767337Y-182039889D01*
X165776475Y-182039452D01*
X165954736Y-182026563D01*
X166111452Y-182006816D01*
X166249710Y-181979546D01*
X166372598Y-181944089D01*
X166483204Y-181899780D01*
X166527934Y-181877748D01*
X166605753Y-181829674D01*
X166682480Y-181769057D01*
X166750505Y-181702602D01*
X166802220Y-181637011D01*
X166803592Y-181634890D01*
X166858411Y-181526638D01*
X166892217Y-181408185D01*
X166904846Y-181283837D01*
X166896135Y-181157898D01*
X166865920Y-181034674D01*
X166829644Y-180947812D01*
X166770662Y-180849608D01*
X166697559Y-180764123D01*
X166608551Y-180690276D01*
X166501857Y-180626985D01*
X166375693Y-180573171D01*
X166228276Y-180527754D01*
X166081275Y-180494214D01*
X166058977Y-180490254D01*
X166033313Y-180486772D01*
X166002501Y-180483725D01*
X165964759Y-180481072D01*
X165918304Y-180478770D01*
X165861353Y-180476779D01*
X165792125Y-180475056D01*
X165708836Y-180473559D01*
X165609705Y-180472247D01*
X165492949Y-180471079D01*
X165356786Y-180470011D01*
X165199432Y-180469003D01*
X165019107Y-180468013D01*
X164947800Y-180467651D01*
X163922275Y-180462527D01*
X163922275Y-181248559D01*
X163579375Y-181248559D01*
X163579375Y-180158024D01*
X164776350Y-180162497D01*
G36*
X172062975Y-180451325D02*
G01*
X168748275Y-180451325D01*
X168748275Y-181924525D01*
X171542275Y-181924525D01*
X171542275Y-182229325D01*
X168748275Y-182229325D01*
X168748275Y-183867625D01*
X172037575Y-183867625D01*
X172037575Y-184172425D01*
X168405375Y-184172425D01*
X168405375Y-180146525D01*
X172062975Y-180146525D01*
X172062975Y-180451325D01*
G37*
X172062975Y-180451325D02*
X168748275Y-180451325D01*
X168748275Y-181924525D01*
X171542275Y-181924525D01*
X171542275Y-182229325D01*
X168748275Y-182229325D01*
X168748275Y-183867625D01*
X172037575Y-183867625D01*
X172037575Y-184172425D01*
X168405375Y-184172425D01*
X168405375Y-180146525D01*
X172062975Y-180146525D01*
X172062975Y-180451325D01*
G36*
X173555225Y-180146771D02*
G01*
X173652054Y-180257773D01*
X173724150Y-180340244D01*
X173804562Y-180431916D01*
X173891874Y-180531195D01*
X173984668Y-180636487D01*
X174081529Y-180746199D01*
X174181040Y-180858737D01*
X174281785Y-180972509D01*
X174382347Y-181085921D01*
X174481310Y-181197379D01*
X174577258Y-181305291D01*
X174668773Y-181408062D01*
X174754439Y-181504099D01*
X174832841Y-181591810D01*
X174902562Y-181669600D01*
X174962184Y-181735877D01*
X175010293Y-181789046D01*
X175045470Y-181827516D01*
X175066301Y-181849691D01*
X175071634Y-181854675D01*
X175081278Y-181845318D01*
X175106382Y-181818156D01*
X175145741Y-181774554D01*
X175198150Y-181715874D01*
X175262405Y-181643480D01*
X175337299Y-181558735D01*
X175421628Y-181463003D01*
X175514187Y-181357648D01*
X175613770Y-181244033D01*
X175719172Y-181123521D01*
X175821809Y-181005938D01*
X175931691Y-180880062D01*
X176036972Y-180759700D01*
X176136438Y-180646225D01*
X176228872Y-180541015D01*
X176313060Y-180445445D01*
X176387785Y-180360890D01*
X176451831Y-180288726D01*
X176503984Y-180230329D01*
X176543028Y-180187075D01*
X176567747Y-180160339D01*
X176576805Y-180151508D01*
X176594212Y-180149726D01*
X176632113Y-180148656D01*
X176685607Y-180148351D01*
X176749797Y-180148863D01*
X176779324Y-180149345D01*
X176967007Y-180152875D01*
X175314465Y-182107587D01*
X175344085Y-182139881D01*
X175365372Y-182163385D01*
X175401160Y-182203261D01*
X175450102Y-182257991D01*
X175510853Y-182326060D01*
X175582068Y-182405955D01*
X175662401Y-182496158D01*
X175750507Y-182595154D01*
X175845039Y-182701428D01*
X175944653Y-182813466D01*
X176048002Y-182929750D01*
X176153741Y-183048766D01*
X176260525Y-183168998D01*
X176367008Y-183288932D01*
X176471843Y-183407051D01*
X176573686Y-183521840D01*
X176671192Y-183631784D01*
X176763013Y-183735367D01*
X176847805Y-183831074D01*
X176924223Y-183917389D01*
X176990920Y-183992797D01*
X177046550Y-184055784D01*
X177089770Y-184104832D01*
X177119231Y-184138427D01*
X177133590Y-184155054D01*
X177134780Y-184156550D01*
X177133221Y-184162474D01*
X177118456Y-184166812D01*
X177087784Y-184169767D01*
X177038504Y-184171539D01*
X176967914Y-184172332D01*
X176922764Y-184172425D01*
X176701054Y-184172425D01*
X175919816Y-183304463D01*
X175805403Y-183177337D01*
X175695396Y-183055078D01*
X175591041Y-182939075D01*
X175493587Y-182830717D01*
X175404280Y-182731390D01*
X175324367Y-182642482D01*
X175255097Y-182565382D01*
X175197717Y-182501477D01*
X175153473Y-182452155D01*
X175123614Y-182418804D01*
X175109387Y-182402811D01*
X175108901Y-182402254D01*
X175079225Y-182368005D01*
X174399775Y-183158182D01*
X174292497Y-183282952D01*
X174188086Y-183404406D01*
X174088004Y-183520843D01*
X173993715Y-183630558D01*
X173906682Y-183731848D01*
X173828369Y-183823009D01*
X173760238Y-183902339D01*
X173703755Y-183968134D01*
X173660381Y-184018690D01*
X173631581Y-184052304D01*
X173625075Y-184059915D01*
X173529825Y-184171471D01*
X173317100Y-184171948D01*
X173246803Y-184171747D01*
X173186305Y-184170889D01*
X173139760Y-184169489D01*
X173111322Y-184167662D01*
X173104375Y-184166069D01*
X173112426Y-184155728D01*
X173135864Y-184127318D01*
X173173612Y-184082112D01*
X173224594Y-184021384D01*
X173287736Y-183946408D01*
X173361960Y-183858458D01*
X173446191Y-183758807D01*
X173539353Y-183648729D01*
X173640370Y-183529499D01*
X173748168Y-183402389D01*
X173861669Y-183268674D01*
X173967975Y-183143538D01*
X174085741Y-183004847D01*
X174198770Y-182871504D01*
X174305983Y-182744794D01*
X174406304Y-182626000D01*
X174498655Y-182516404D01*
X174581960Y-182417290D01*
X174655140Y-182329942D01*
X174717120Y-182255642D01*
X174766821Y-182195674D01*
X174803168Y-182151321D01*
X174825082Y-182123866D01*
X174831575Y-182114671D01*
X174823383Y-182103544D01*
X174799553Y-182074625D01*
X174761205Y-182029207D01*
X174709457Y-181968587D01*
X174645428Y-181894059D01*
X174570238Y-181806920D01*
X174485005Y-181708465D01*
X174390849Y-181599988D01*
X174288888Y-181482785D01*
X174180241Y-181358152D01*
X174066027Y-181227384D01*
X173989699Y-181140126D01*
X173872297Y-181005947D01*
X173759564Y-180877014D01*
X173652634Y-180754632D01*
X173552643Y-180640101D01*
X173460726Y-180534725D01*
X173378015Y-180439807D01*
X173305647Y-180356649D01*
X173244757Y-180286553D01*
X173196477Y-180230822D01*
X173161944Y-180190759D01*
X173142291Y-180167667D01*
X173138050Y-180162400D01*
X173139534Y-180156382D01*
X173154326Y-180152014D01*
X173185168Y-180149084D01*
X173234800Y-180147379D01*
X173305965Y-180146687D01*
X173341750Y-180146648D01*
X173555225Y-180146771D01*
G37*
X173555225Y-180146771D02*
X173652054Y-180257773D01*
X173724150Y-180340244D01*
X173804562Y-180431916D01*
X173891874Y-180531195D01*
X173984668Y-180636487D01*
X174081529Y-180746199D01*
X174181040Y-180858737D01*
X174281785Y-180972509D01*
X174382347Y-181085921D01*
X174481310Y-181197379D01*
X174577258Y-181305291D01*
X174668773Y-181408062D01*
X174754439Y-181504099D01*
X174832841Y-181591810D01*
X174902562Y-181669600D01*
X174962184Y-181735877D01*
X175010293Y-181789046D01*
X175045470Y-181827516D01*
X175066301Y-181849691D01*
X175071634Y-181854675D01*
X175081278Y-181845318D01*
X175106382Y-181818156D01*
X175145741Y-181774554D01*
X175198150Y-181715874D01*
X175262405Y-181643480D01*
X175337299Y-181558735D01*
X175421628Y-181463003D01*
X175514187Y-181357648D01*
X175613770Y-181244033D01*
X175719172Y-181123521D01*
X175821809Y-181005938D01*
X175931691Y-180880062D01*
X176036972Y-180759700D01*
X176136438Y-180646225D01*
X176228872Y-180541015D01*
X176313060Y-180445445D01*
X176387785Y-180360890D01*
X176451831Y-180288726D01*
X176503984Y-180230329D01*
X176543028Y-180187075D01*
X176567747Y-180160339D01*
X176576805Y-180151508D01*
X176594212Y-180149726D01*
X176632113Y-180148656D01*
X176685607Y-180148351D01*
X176749797Y-180148863D01*
X176779324Y-180149345D01*
X176967007Y-180152875D01*
X175314465Y-182107587D01*
X175344085Y-182139881D01*
X175365372Y-182163385D01*
X175401160Y-182203261D01*
X175450102Y-182257991D01*
X175510853Y-182326060D01*
X175582068Y-182405955D01*
X175662401Y-182496158D01*
X175750507Y-182595154D01*
X175845039Y-182701428D01*
X175944653Y-182813466D01*
X176048002Y-182929750D01*
X176153741Y-183048766D01*
X176260525Y-183168998D01*
X176367008Y-183288932D01*
X176471843Y-183407051D01*
X176573686Y-183521840D01*
X176671192Y-183631784D01*
X176763013Y-183735367D01*
X176847805Y-183831074D01*
X176924223Y-183917389D01*
X176990920Y-183992797D01*
X177046550Y-184055784D01*
X177089770Y-184104832D01*
X177119231Y-184138427D01*
X177133590Y-184155054D01*
X177134780Y-184156550D01*
X177133221Y-184162474D01*
X177118456Y-184166812D01*
X177087784Y-184169767D01*
X177038504Y-184171539D01*
X176967914Y-184172332D01*
X176922764Y-184172425D01*
X176701054Y-184172425D01*
X175919816Y-183304463D01*
X175805403Y-183177337D01*
X175695396Y-183055078D01*
X175591041Y-182939075D01*
X175493587Y-182830717D01*
X175404280Y-182731390D01*
X175324367Y-182642482D01*
X175255097Y-182565382D01*
X175197717Y-182501477D01*
X175153473Y-182452155D01*
X175123614Y-182418804D01*
X175109387Y-182402811D01*
X175108901Y-182402254D01*
X175079225Y-182368005D01*
X174399775Y-183158182D01*
X174292497Y-183282952D01*
X174188086Y-183404406D01*
X174088004Y-183520843D01*
X173993715Y-183630558D01*
X173906682Y-183731848D01*
X173828369Y-183823009D01*
X173760238Y-183902339D01*
X173703755Y-183968134D01*
X173660381Y-184018690D01*
X173631581Y-184052304D01*
X173625075Y-184059915D01*
X173529825Y-184171471D01*
X173317100Y-184171948D01*
X173246803Y-184171747D01*
X173186305Y-184170889D01*
X173139760Y-184169489D01*
X173111322Y-184167662D01*
X173104375Y-184166069D01*
X173112426Y-184155728D01*
X173135864Y-184127318D01*
X173173612Y-184082112D01*
X173224594Y-184021384D01*
X173287736Y-183946408D01*
X173361960Y-183858458D01*
X173446191Y-183758807D01*
X173539353Y-183648729D01*
X173640370Y-183529499D01*
X173748168Y-183402389D01*
X173861669Y-183268674D01*
X173967975Y-183143538D01*
X174085741Y-183004847D01*
X174198770Y-182871504D01*
X174305983Y-182744794D01*
X174406304Y-182626000D01*
X174498655Y-182516404D01*
X174581960Y-182417290D01*
X174655140Y-182329942D01*
X174717120Y-182255642D01*
X174766821Y-182195674D01*
X174803168Y-182151321D01*
X174825082Y-182123866D01*
X174831575Y-182114671D01*
X174823383Y-182103544D01*
X174799553Y-182074625D01*
X174761205Y-182029207D01*
X174709457Y-181968587D01*
X174645428Y-181894059D01*
X174570238Y-181806920D01*
X174485005Y-181708465D01*
X174390849Y-181599988D01*
X174288888Y-181482785D01*
X174180241Y-181358152D01*
X174066027Y-181227384D01*
X173989699Y-181140126D01*
X173872297Y-181005947D01*
X173759564Y-180877014D01*
X173652634Y-180754632D01*
X173552643Y-180640101D01*
X173460726Y-180534725D01*
X173378015Y-180439807D01*
X173305647Y-180356649D01*
X173244757Y-180286553D01*
X173196477Y-180230822D01*
X173161944Y-180190759D01*
X173142291Y-180167667D01*
X173138050Y-180162400D01*
X173139534Y-180156382D01*
X173154326Y-180152014D01*
X173185168Y-180149084D01*
X173234800Y-180147379D01*
X173305965Y-180146687D01*
X173341750Y-180146648D01*
X173555225Y-180146771D01*
%TD*%
M02*
