%TF.GenerationSoftware,KiCad,Pcbnew,(5.1.10)-1*%
%TF.CreationDate,2023-08-12T15:50:14-04:00*%
%TF.ProjectId,niche65_mk2_right,6e696368-6536-4355-9f6d-6b325f726967,rev?*%
%TF.SameCoordinates,Original*%
%TF.FileFunction,Paste,Bot*%
%TF.FilePolarity,Positive*%
%FSLAX46Y46*%
G04 Gerber Fmt 4.6, Leading zero omitted, Abs format (unit mm)*
G04 Created by KiCad (PCBNEW (5.1.10)-1) date 2023-08-12 15:50:14*
%MOMM*%
%LPD*%
G01*
G04 APERTURE LIST*
%ADD10R,2.000000X2.000000*%
%ADD11C,0.250000*%
%ADD12R,2.550000X2.500000*%
%ADD13R,1.000000X0.900000*%
%ADD14R,1.000000X1.800000*%
%ADD15R,0.900000X0.800000*%
G04 APERTURE END LIST*
%TO.C,REF\u002A\u002A*%
G36*
G01*
X127122500Y-162980000D02*
X127122500Y-161480000D01*
G75*
G02*
X127372500Y-161230000I250000J0D01*
G01*
X127872500Y-161230000D01*
G75*
G02*
X128122500Y-161480000I0J-250000D01*
G01*
X128122500Y-162980000D01*
G75*
G02*
X127872500Y-163230000I-250000J0D01*
G01*
X127372500Y-163230000D01*
G75*
G02*
X127122500Y-162980000I0J250000D01*
G01*
G37*
%TD*%
%TO.C,REF\u002A\u002A*%
G36*
G01*
X119502500Y-162980000D02*
X119502500Y-161480000D01*
G75*
G02*
X119752500Y-161230000I250000J0D01*
G01*
X120252500Y-161230000D01*
G75*
G02*
X120502500Y-161480000I0J-250000D01*
G01*
X120502500Y-162980000D01*
G75*
G02*
X120252500Y-163230000I-250000J0D01*
G01*
X119752500Y-163230000D01*
G75*
G02*
X119502500Y-162980000I0J250000D01*
G01*
G37*
%TD*%
%TO.C,REF\u002A\u002A*%
G36*
G01*
X122042500Y-162980000D02*
X122042500Y-161480000D01*
G75*
G02*
X122292500Y-161230000I250000J0D01*
G01*
X122792500Y-161230000D01*
G75*
G02*
X123042500Y-161480000I0J-250000D01*
G01*
X123042500Y-162980000D01*
G75*
G02*
X122792500Y-163230000I-250000J0D01*
G01*
X122292500Y-163230000D01*
G75*
G02*
X122042500Y-162980000I0J250000D01*
G01*
G37*
%TD*%
%TO.C,REF\u002A\u002A*%
G36*
G01*
X124582500Y-162980000D02*
X124582500Y-161480000D01*
G75*
G02*
X124832500Y-161230000I250000J0D01*
G01*
X125332500Y-161230000D01*
G75*
G02*
X125582500Y-161480000I0J-250000D01*
G01*
X125582500Y-162980000D01*
G75*
G02*
X125332500Y-163230000I-250000J0D01*
G01*
X124832500Y-163230000D01*
G75*
G02*
X124582500Y-162980000I0J250000D01*
G01*
G37*
%TD*%
%TO.C,J1*%
G36*
G01*
X243093750Y-122137500D02*
X243093750Y-121687500D01*
G75*
G02*
X243268750Y-121512500I175000J0D01*
G01*
X243618750Y-121512500D01*
G75*
G02*
X243793750Y-121687500I0J-175000D01*
G01*
X243793750Y-122137500D01*
G75*
G02*
X243618750Y-122312500I-175000J0D01*
G01*
X243268750Y-122312500D01*
G75*
G02*
X243093750Y-122137500I0J175000D01*
G01*
G37*
G36*
G01*
X237193750Y-122137500D02*
X237193750Y-121687500D01*
G75*
G02*
X237368750Y-121512500I175000J0D01*
G01*
X237718750Y-121512500D01*
G75*
G02*
X237893750Y-121687500I0J-175000D01*
G01*
X237893750Y-122137500D01*
G75*
G02*
X237718750Y-122312500I-175000J0D01*
G01*
X237368750Y-122312500D01*
G75*
G02*
X237193750Y-122137500I0J175000D01*
G01*
G37*
G36*
G01*
X241993750Y-125962500D02*
X241993750Y-125412500D01*
G75*
G02*
X242143750Y-125262500I150000J0D01*
G01*
X242443750Y-125262500D01*
G75*
G02*
X242593750Y-125412500I0J-150000D01*
G01*
X242593750Y-125962500D01*
G75*
G02*
X242443750Y-126112500I-150000J0D01*
G01*
X242143750Y-126112500D01*
G75*
G02*
X241993750Y-125962500I0J150000D01*
G01*
G37*
G36*
G01*
X240793750Y-125962500D02*
X240793750Y-125412500D01*
G75*
G02*
X240943750Y-125262500I150000J0D01*
G01*
X241243750Y-125262500D01*
G75*
G02*
X241393750Y-125412500I0J-150000D01*
G01*
X241393750Y-125962500D01*
G75*
G02*
X241243750Y-126112500I-150000J0D01*
G01*
X240943750Y-126112500D01*
G75*
G02*
X240793750Y-125962500I0J150000D01*
G01*
G37*
G36*
G01*
X239593750Y-125962500D02*
X239593750Y-125412500D01*
G75*
G02*
X239743750Y-125262500I150000J0D01*
G01*
X240043750Y-125262500D01*
G75*
G02*
X240193750Y-125412500I0J-150000D01*
G01*
X240193750Y-125962500D01*
G75*
G02*
X240043750Y-126112500I-150000J0D01*
G01*
X239743750Y-126112500D01*
G75*
G02*
X239593750Y-125962500I0J150000D01*
G01*
G37*
G36*
G01*
X238393750Y-125962500D02*
X238393750Y-125412500D01*
G75*
G02*
X238543750Y-125262500I150000J0D01*
G01*
X238843750Y-125262500D01*
G75*
G02*
X238993750Y-125412500I0J-150000D01*
G01*
X238993750Y-125962500D01*
G75*
G02*
X238843750Y-126112500I-150000J0D01*
G01*
X238543750Y-126112500D01*
G75*
G02*
X238393750Y-125962500I0J150000D01*
G01*
G37*
%TD*%
D10*
%TO.C,U1*%
X131262500Y-178562500D03*
X133687500Y-178562500D03*
X131262500Y-176137500D03*
X133687500Y-176137500D03*
D11*
X129225000Y-174600000D03*
X129725000Y-175350000D03*
X133725000Y-174100000D03*
X134975000Y-174600000D03*
X130475000Y-180100000D03*
X129725000Y-180600000D03*
X135225000Y-180600000D03*
X135225000Y-179850000D03*
X135225000Y-179350000D03*
X135725000Y-179100000D03*
X135725000Y-178600000D03*
X135725000Y-178100000D03*
X135725000Y-177600000D03*
X135725000Y-177100000D03*
X135725000Y-176600000D03*
X135725000Y-176100000D03*
X135225000Y-178350000D03*
X135225000Y-177850000D03*
X135225000Y-177350000D03*
X135225000Y-176850000D03*
X135225000Y-176350000D03*
X135225000Y-175850000D03*
X135725000Y-175100000D03*
X135225000Y-175350000D03*
X135725000Y-174600000D03*
X134725000Y-180600000D03*
X134225000Y-180600000D03*
X133725000Y-180600000D03*
X133225000Y-180600000D03*
X132725000Y-180600000D03*
X132225000Y-180600000D03*
X131725000Y-180600000D03*
X131225000Y-180600000D03*
X130725000Y-180600000D03*
X130225000Y-180600000D03*
X130975000Y-180100000D03*
X131475000Y-180100000D03*
X131975000Y-180100000D03*
X132475000Y-180100000D03*
X132975000Y-180100000D03*
X133475000Y-180100000D03*
X134475000Y-180100000D03*
X134475000Y-174600000D03*
X133975000Y-174600000D03*
X133475000Y-174600000D03*
X132975000Y-174600000D03*
X132475000Y-174600000D03*
X131975000Y-174600000D03*
X131475000Y-174600000D03*
X130975000Y-174600000D03*
X133225000Y-174100000D03*
X132725000Y-174100000D03*
X132225000Y-174100000D03*
X131725000Y-174100000D03*
X131225000Y-174100000D03*
X130725000Y-174100000D03*
X130225000Y-174100000D03*
X129725000Y-174100000D03*
X129725000Y-175850000D03*
X129725000Y-176350000D03*
X129725000Y-177850000D03*
X129725000Y-178350000D03*
X129725000Y-178850000D03*
X129725000Y-179350000D03*
X129225000Y-175600000D03*
X129225000Y-176600000D03*
X129225000Y-177100000D03*
X129225000Y-177600000D03*
X129225000Y-178100000D03*
X129225000Y-178600000D03*
X129225000Y-179100000D03*
X129225000Y-179600000D03*
X129225000Y-180100000D03*
%TD*%
D12*
%TO.C,SW6*%
X201540000Y-94920000D03*
X187690000Y-97460000D03*
%TD*%
%TO.C,SW24*%
X196777500Y-133020000D03*
X182927500Y-135560000D03*
%TD*%
%TO.C,SW23*%
X177727500Y-133020000D03*
X163877500Y-135560000D03*
%TD*%
%TO.C,C1*%
G36*
G01*
X140525000Y-180925000D02*
X141025000Y-180925000D01*
G75*
G02*
X141250000Y-181150000I0J-225000D01*
G01*
X141250000Y-181600000D01*
G75*
G02*
X141025000Y-181825000I-225000J0D01*
G01*
X140525000Y-181825000D01*
G75*
G02*
X140300000Y-181600000I0J225000D01*
G01*
X140300000Y-181150000D01*
G75*
G02*
X140525000Y-180925000I225000J0D01*
G01*
G37*
G36*
G01*
X140525000Y-182475000D02*
X141025000Y-182475000D01*
G75*
G02*
X141250000Y-182700000I0J-225000D01*
G01*
X141250000Y-183150000D01*
G75*
G02*
X141025000Y-183375000I-225000J0D01*
G01*
X140525000Y-183375000D01*
G75*
G02*
X140300000Y-183150000I0J225000D01*
G01*
X140300000Y-182700000D01*
G75*
G02*
X140525000Y-182475000I225000J0D01*
G01*
G37*
%TD*%
%TO.C,C2*%
G36*
G01*
X130305000Y-181340000D02*
X130645000Y-181340000D01*
G75*
G02*
X130785000Y-181480000I0J-140000D01*
G01*
X130785000Y-181760000D01*
G75*
G02*
X130645000Y-181900000I-140000J0D01*
G01*
X130305000Y-181900000D01*
G75*
G02*
X130165000Y-181760000I0J140000D01*
G01*
X130165000Y-181480000D01*
G75*
G02*
X130305000Y-181340000I140000J0D01*
G01*
G37*
G36*
G01*
X130305000Y-182300000D02*
X130645000Y-182300000D01*
G75*
G02*
X130785000Y-182440000I0J-140000D01*
G01*
X130785000Y-182720000D01*
G75*
G02*
X130645000Y-182860000I-140000J0D01*
G01*
X130305000Y-182860000D01*
G75*
G02*
X130165000Y-182720000I0J140000D01*
G01*
X130165000Y-182440000D01*
G75*
G02*
X130305000Y-182300000I140000J0D01*
G01*
G37*
%TD*%
%TO.C,C3*%
G36*
G01*
X129305000Y-182300000D02*
X129645000Y-182300000D01*
G75*
G02*
X129785000Y-182440000I0J-140000D01*
G01*
X129785000Y-182720000D01*
G75*
G02*
X129645000Y-182860000I-140000J0D01*
G01*
X129305000Y-182860000D01*
G75*
G02*
X129165000Y-182720000I0J140000D01*
G01*
X129165000Y-182440000D01*
G75*
G02*
X129305000Y-182300000I140000J0D01*
G01*
G37*
G36*
G01*
X129305000Y-181340000D02*
X129645000Y-181340000D01*
G75*
G02*
X129785000Y-181480000I0J-140000D01*
G01*
X129785000Y-181760000D01*
G75*
G02*
X129645000Y-181900000I-140000J0D01*
G01*
X129305000Y-181900000D01*
G75*
G02*
X129165000Y-181760000I0J140000D01*
G01*
X129165000Y-181480000D01*
G75*
G02*
X129305000Y-181340000I140000J0D01*
G01*
G37*
%TD*%
%TO.C,C4*%
G36*
G01*
X131140000Y-172930000D02*
X131140000Y-173270000D01*
G75*
G02*
X131000000Y-173410000I-140000J0D01*
G01*
X130720000Y-173410000D01*
G75*
G02*
X130580000Y-173270000I0J140000D01*
G01*
X130580000Y-172930000D01*
G75*
G02*
X130720000Y-172790000I140000J0D01*
G01*
X131000000Y-172790000D01*
G75*
G02*
X131140000Y-172930000I0J-140000D01*
G01*
G37*
G36*
G01*
X130180000Y-172930000D02*
X130180000Y-173270000D01*
G75*
G02*
X130040000Y-173410000I-140000J0D01*
G01*
X129760000Y-173410000D01*
G75*
G02*
X129620000Y-173270000I0J140000D01*
G01*
X129620000Y-172930000D01*
G75*
G02*
X129760000Y-172790000I140000J0D01*
G01*
X130040000Y-172790000D01*
G75*
G02*
X130180000Y-172930000I0J-140000D01*
G01*
G37*
%TD*%
%TO.C,C5*%
G36*
G01*
X138050000Y-173600000D02*
X138050000Y-173100000D01*
G75*
G02*
X138275000Y-172875000I225000J0D01*
G01*
X138725000Y-172875000D01*
G75*
G02*
X138950000Y-173100000I0J-225000D01*
G01*
X138950000Y-173600000D01*
G75*
G02*
X138725000Y-173825000I-225000J0D01*
G01*
X138275000Y-173825000D01*
G75*
G02*
X138050000Y-173600000I0J225000D01*
G01*
G37*
G36*
G01*
X136500000Y-173600000D02*
X136500000Y-173100000D01*
G75*
G02*
X136725000Y-172875000I225000J0D01*
G01*
X137175000Y-172875000D01*
G75*
G02*
X137400000Y-173100000I0J-225000D01*
G01*
X137400000Y-173600000D01*
G75*
G02*
X137175000Y-173825000I-225000J0D01*
G01*
X136725000Y-173825000D01*
G75*
G02*
X136500000Y-173600000I0J225000D01*
G01*
G37*
%TD*%
%TO.C,C6*%
G36*
G01*
X139025000Y-182475000D02*
X139525000Y-182475000D01*
G75*
G02*
X139750000Y-182700000I0J-225000D01*
G01*
X139750000Y-183150000D01*
G75*
G02*
X139525000Y-183375000I-225000J0D01*
G01*
X139025000Y-183375000D01*
G75*
G02*
X138800000Y-183150000I0J225000D01*
G01*
X138800000Y-182700000D01*
G75*
G02*
X139025000Y-182475000I225000J0D01*
G01*
G37*
G36*
G01*
X139025000Y-180925000D02*
X139525000Y-180925000D01*
G75*
G02*
X139750000Y-181150000I0J-225000D01*
G01*
X139750000Y-181600000D01*
G75*
G02*
X139525000Y-181825000I-225000J0D01*
G01*
X139025000Y-181825000D01*
G75*
G02*
X138800000Y-181600000I0J225000D01*
G01*
X138800000Y-181150000D01*
G75*
G02*
X139025000Y-180925000I225000J0D01*
G01*
G37*
%TD*%
%TO.C,C7*%
G36*
G01*
X135011000Y-183909000D02*
X134511000Y-183909000D01*
G75*
G02*
X134286000Y-183684000I0J225000D01*
G01*
X134286000Y-183234000D01*
G75*
G02*
X134511000Y-183009000I225000J0D01*
G01*
X135011000Y-183009000D01*
G75*
G02*
X135236000Y-183234000I0J-225000D01*
G01*
X135236000Y-183684000D01*
G75*
G02*
X135011000Y-183909000I-225000J0D01*
G01*
G37*
G36*
G01*
X135011000Y-182359000D02*
X134511000Y-182359000D01*
G75*
G02*
X134286000Y-182134000I0J225000D01*
G01*
X134286000Y-181684000D01*
G75*
G02*
X134511000Y-181459000I225000J0D01*
G01*
X135011000Y-181459000D01*
G75*
G02*
X135236000Y-181684000I0J-225000D01*
G01*
X135236000Y-182134000D01*
G75*
G02*
X135011000Y-182359000I-225000J0D01*
G01*
G37*
%TD*%
%TO.C,C8*%
G36*
G01*
X134832000Y-173028000D02*
X134832000Y-172528000D01*
G75*
G02*
X135057000Y-172303000I225000J0D01*
G01*
X135507000Y-172303000D01*
G75*
G02*
X135732000Y-172528000I0J-225000D01*
G01*
X135732000Y-173028000D01*
G75*
G02*
X135507000Y-173253000I-225000J0D01*
G01*
X135057000Y-173253000D01*
G75*
G02*
X134832000Y-173028000I0J225000D01*
G01*
G37*
G36*
G01*
X133282000Y-173028000D02*
X133282000Y-172528000D01*
G75*
G02*
X133507000Y-172303000I225000J0D01*
G01*
X133957000Y-172303000D01*
G75*
G02*
X134182000Y-172528000I0J-225000D01*
G01*
X134182000Y-173028000D01*
G75*
G02*
X133957000Y-173253000I-225000J0D01*
G01*
X133507000Y-173253000D01*
G75*
G02*
X133282000Y-173028000I0J225000D01*
G01*
G37*
%TD*%
%TO.C,C9*%
G36*
G01*
X126015000Y-175320000D02*
X126015000Y-174980000D01*
G75*
G02*
X126155000Y-174840000I140000J0D01*
G01*
X126435000Y-174840000D01*
G75*
G02*
X126575000Y-174980000I0J-140000D01*
G01*
X126575000Y-175320000D01*
G75*
G02*
X126435000Y-175460000I-140000J0D01*
G01*
X126155000Y-175460000D01*
G75*
G02*
X126015000Y-175320000I0J140000D01*
G01*
G37*
G36*
G01*
X126975000Y-175320000D02*
X126975000Y-174980000D01*
G75*
G02*
X127115000Y-174840000I140000J0D01*
G01*
X127395000Y-174840000D01*
G75*
G02*
X127535000Y-174980000I0J-140000D01*
G01*
X127535000Y-175320000D01*
G75*
G02*
X127395000Y-175460000I-140000J0D01*
G01*
X127115000Y-175460000D01*
G75*
G02*
X126975000Y-175320000I0J140000D01*
G01*
G37*
%TD*%
%TO.C,C10*%
G36*
G01*
X136035000Y-181459000D02*
X136535000Y-181459000D01*
G75*
G02*
X136760000Y-181684000I0J-225000D01*
G01*
X136760000Y-182134000D01*
G75*
G02*
X136535000Y-182359000I-225000J0D01*
G01*
X136035000Y-182359000D01*
G75*
G02*
X135810000Y-182134000I0J225000D01*
G01*
X135810000Y-181684000D01*
G75*
G02*
X136035000Y-181459000I225000J0D01*
G01*
G37*
G36*
G01*
X136035000Y-183009000D02*
X136535000Y-183009000D01*
G75*
G02*
X136760000Y-183234000I0J-225000D01*
G01*
X136760000Y-183684000D01*
G75*
G02*
X136535000Y-183909000I-225000J0D01*
G01*
X136035000Y-183909000D01*
G75*
G02*
X135810000Y-183684000I0J225000D01*
G01*
X135810000Y-183234000D01*
G75*
G02*
X136035000Y-183009000I225000J0D01*
G01*
G37*
%TD*%
%TO.C,C11*%
G36*
G01*
X127545000Y-177430000D02*
X127545000Y-177770000D01*
G75*
G02*
X127405000Y-177910000I-140000J0D01*
G01*
X127125000Y-177910000D01*
G75*
G02*
X126985000Y-177770000I0J140000D01*
G01*
X126985000Y-177430000D01*
G75*
G02*
X127125000Y-177290000I140000J0D01*
G01*
X127405000Y-177290000D01*
G75*
G02*
X127545000Y-177430000I0J-140000D01*
G01*
G37*
G36*
G01*
X128505000Y-177430000D02*
X128505000Y-177770000D01*
G75*
G02*
X128365000Y-177910000I-140000J0D01*
G01*
X128085000Y-177910000D01*
G75*
G02*
X127945000Y-177770000I0J140000D01*
G01*
X127945000Y-177430000D01*
G75*
G02*
X128085000Y-177290000I140000J0D01*
G01*
X128365000Y-177290000D01*
G75*
G02*
X128505000Y-177430000I0J-140000D01*
G01*
G37*
%TD*%
%TO.C,C12*%
G36*
G01*
X128536000Y-174005000D02*
X128536000Y-174345000D01*
G75*
G02*
X128396000Y-174485000I-140000J0D01*
G01*
X128116000Y-174485000D01*
G75*
G02*
X127976000Y-174345000I0J140000D01*
G01*
X127976000Y-174005000D01*
G75*
G02*
X128116000Y-173865000I140000J0D01*
G01*
X128396000Y-173865000D01*
G75*
G02*
X128536000Y-174005000I0J-140000D01*
G01*
G37*
G36*
G01*
X127576000Y-174005000D02*
X127576000Y-174345000D01*
G75*
G02*
X127436000Y-174485000I-140000J0D01*
G01*
X127156000Y-174485000D01*
G75*
G02*
X127016000Y-174345000I0J140000D01*
G01*
X127016000Y-174005000D01*
G75*
G02*
X127156000Y-173865000I140000J0D01*
G01*
X127436000Y-173865000D01*
G75*
G02*
X127576000Y-174005000I0J-140000D01*
G01*
G37*
%TD*%
%TO.C,C13*%
G36*
G01*
X137475000Y-174820000D02*
X137475000Y-174480000D01*
G75*
G02*
X137615000Y-174340000I140000J0D01*
G01*
X137895000Y-174340000D01*
G75*
G02*
X138035000Y-174480000I0J-140000D01*
G01*
X138035000Y-174820000D01*
G75*
G02*
X137895000Y-174960000I-140000J0D01*
G01*
X137615000Y-174960000D01*
G75*
G02*
X137475000Y-174820000I0J140000D01*
G01*
G37*
G36*
G01*
X136515000Y-174820000D02*
X136515000Y-174480000D01*
G75*
G02*
X136655000Y-174340000I140000J0D01*
G01*
X136935000Y-174340000D01*
G75*
G02*
X137075000Y-174480000I0J-140000D01*
G01*
X137075000Y-174820000D01*
G75*
G02*
X136935000Y-174960000I-140000J0D01*
G01*
X136655000Y-174960000D01*
G75*
G02*
X136515000Y-174820000I0J140000D01*
G01*
G37*
%TD*%
%TO.C,C14*%
G36*
G01*
X138815000Y-174820000D02*
X138815000Y-174480000D01*
G75*
G02*
X138955000Y-174340000I140000J0D01*
G01*
X139235000Y-174340000D01*
G75*
G02*
X139375000Y-174480000I0J-140000D01*
G01*
X139375000Y-174820000D01*
G75*
G02*
X139235000Y-174960000I-140000J0D01*
G01*
X138955000Y-174960000D01*
G75*
G02*
X138815000Y-174820000I0J140000D01*
G01*
G37*
G36*
G01*
X139775000Y-174820000D02*
X139775000Y-174480000D01*
G75*
G02*
X139915000Y-174340000I140000J0D01*
G01*
X140195000Y-174340000D01*
G75*
G02*
X140335000Y-174480000I0J-140000D01*
G01*
X140335000Y-174820000D01*
G75*
G02*
X140195000Y-174960000I-140000J0D01*
G01*
X139915000Y-174960000D01*
G75*
G02*
X139775000Y-174820000I0J140000D01*
G01*
G37*
%TD*%
%TO.C,C15*%
G36*
G01*
X141305000Y-176550000D02*
X141645000Y-176550000D01*
G75*
G02*
X141785000Y-176690000I0J-140000D01*
G01*
X141785000Y-176970000D01*
G75*
G02*
X141645000Y-177110000I-140000J0D01*
G01*
X141305000Y-177110000D01*
G75*
G02*
X141165000Y-176970000I0J140000D01*
G01*
X141165000Y-176690000D01*
G75*
G02*
X141305000Y-176550000I140000J0D01*
G01*
G37*
G36*
G01*
X141305000Y-175590000D02*
X141645000Y-175590000D01*
G75*
G02*
X141785000Y-175730000I0J-140000D01*
G01*
X141785000Y-176010000D01*
G75*
G02*
X141645000Y-176150000I-140000J0D01*
G01*
X141305000Y-176150000D01*
G75*
G02*
X141165000Y-176010000I0J140000D01*
G01*
X141165000Y-175730000D01*
G75*
G02*
X141305000Y-175590000I140000J0D01*
G01*
G37*
%TD*%
%TO.C,C16*%
G36*
G01*
X115856250Y-183240000D02*
X116196250Y-183240000D01*
G75*
G02*
X116336250Y-183380000I0J-140000D01*
G01*
X116336250Y-183660000D01*
G75*
G02*
X116196250Y-183800000I-140000J0D01*
G01*
X115856250Y-183800000D01*
G75*
G02*
X115716250Y-183660000I0J140000D01*
G01*
X115716250Y-183380000D01*
G75*
G02*
X115856250Y-183240000I140000J0D01*
G01*
G37*
G36*
G01*
X115856250Y-184200000D02*
X116196250Y-184200000D01*
G75*
G02*
X116336250Y-184340000I0J-140000D01*
G01*
X116336250Y-184620000D01*
G75*
G02*
X116196250Y-184760000I-140000J0D01*
G01*
X115856250Y-184760000D01*
G75*
G02*
X115716250Y-184620000I0J140000D01*
G01*
X115716250Y-184340000D01*
G75*
G02*
X115856250Y-184200000I140000J0D01*
G01*
G37*
%TD*%
%TO.C,C17*%
G36*
G01*
X125395000Y-175900000D02*
X125055000Y-175900000D01*
G75*
G02*
X124915000Y-175760000I0J140000D01*
G01*
X124915000Y-175480000D01*
G75*
G02*
X125055000Y-175340000I140000J0D01*
G01*
X125395000Y-175340000D01*
G75*
G02*
X125535000Y-175480000I0J-140000D01*
G01*
X125535000Y-175760000D01*
G75*
G02*
X125395000Y-175900000I-140000J0D01*
G01*
G37*
G36*
G01*
X125395000Y-176860000D02*
X125055000Y-176860000D01*
G75*
G02*
X124915000Y-176720000I0J140000D01*
G01*
X124915000Y-176440000D01*
G75*
G02*
X125055000Y-176300000I140000J0D01*
G01*
X125395000Y-176300000D01*
G75*
G02*
X125535000Y-176440000I0J-140000D01*
G01*
X125535000Y-176720000D01*
G75*
G02*
X125395000Y-176860000I-140000J0D01*
G01*
G37*
%TD*%
%TO.C,C18*%
G36*
G01*
X128395000Y-176860000D02*
X128055000Y-176860000D01*
G75*
G02*
X127915000Y-176720000I0J140000D01*
G01*
X127915000Y-176440000D01*
G75*
G02*
X128055000Y-176300000I140000J0D01*
G01*
X128395000Y-176300000D01*
G75*
G02*
X128535000Y-176440000I0J-140000D01*
G01*
X128535000Y-176720000D01*
G75*
G02*
X128395000Y-176860000I-140000J0D01*
G01*
G37*
G36*
G01*
X128395000Y-175900000D02*
X128055000Y-175900000D01*
G75*
G02*
X127915000Y-175760000I0J140000D01*
G01*
X127915000Y-175480000D01*
G75*
G02*
X128055000Y-175340000I140000J0D01*
G01*
X128395000Y-175340000D01*
G75*
G02*
X128535000Y-175480000I0J-140000D01*
G01*
X128535000Y-175760000D01*
G75*
G02*
X128395000Y-175900000I-140000J0D01*
G01*
G37*
%TD*%
%TO.C,C19*%
G36*
G01*
X126440000Y-171550000D02*
X126780000Y-171550000D01*
G75*
G02*
X126920000Y-171690000I0J-140000D01*
G01*
X126920000Y-171970000D01*
G75*
G02*
X126780000Y-172110000I-140000J0D01*
G01*
X126440000Y-172110000D01*
G75*
G02*
X126300000Y-171970000I0J140000D01*
G01*
X126300000Y-171690000D01*
G75*
G02*
X126440000Y-171550000I140000J0D01*
G01*
G37*
G36*
G01*
X126440000Y-170590000D02*
X126780000Y-170590000D01*
G75*
G02*
X126920000Y-170730000I0J-140000D01*
G01*
X126920000Y-171010000D01*
G75*
G02*
X126780000Y-171150000I-140000J0D01*
G01*
X126440000Y-171150000D01*
G75*
G02*
X126300000Y-171010000I0J140000D01*
G01*
X126300000Y-170730000D01*
G75*
G02*
X126440000Y-170590000I140000J0D01*
G01*
G37*
%TD*%
%TO.C,C20*%
G36*
G01*
X130780000Y-172110000D02*
X130440000Y-172110000D01*
G75*
G02*
X130300000Y-171970000I0J140000D01*
G01*
X130300000Y-171690000D01*
G75*
G02*
X130440000Y-171550000I140000J0D01*
G01*
X130780000Y-171550000D01*
G75*
G02*
X130920000Y-171690000I0J-140000D01*
G01*
X130920000Y-171970000D01*
G75*
G02*
X130780000Y-172110000I-140000J0D01*
G01*
G37*
G36*
G01*
X130780000Y-171150000D02*
X130440000Y-171150000D01*
G75*
G02*
X130300000Y-171010000I0J140000D01*
G01*
X130300000Y-170730000D01*
G75*
G02*
X130440000Y-170590000I140000J0D01*
G01*
X130780000Y-170590000D01*
G75*
G02*
X130920000Y-170730000I0J-140000D01*
G01*
X130920000Y-171010000D01*
G75*
G02*
X130780000Y-171150000I-140000J0D01*
G01*
G37*
%TD*%
%TO.C,D1*%
G36*
G01*
X97857793Y-96993748D02*
X97857793Y-98243748D01*
G75*
G02*
X97607793Y-98493748I-250000J0D01*
G01*
X96857793Y-98493748D01*
G75*
G02*
X96607793Y-98243748I0J250000D01*
G01*
X96607793Y-96993748D01*
G75*
G02*
X96857793Y-96743748I250000J0D01*
G01*
X97607793Y-96743748D01*
G75*
G02*
X97857793Y-96993748I0J-250000D01*
G01*
G37*
G36*
G01*
X95057793Y-96993748D02*
X95057793Y-98243748D01*
G75*
G02*
X94807793Y-98493748I-250000J0D01*
G01*
X94057793Y-98493748D01*
G75*
G02*
X93807793Y-98243748I0J250000D01*
G01*
X93807793Y-96993748D01*
G75*
G02*
X94057793Y-96743748I250000J0D01*
G01*
X94807793Y-96743748D01*
G75*
G02*
X95057793Y-96993748I0J-250000D01*
G01*
G37*
%TD*%
%TO.C,D2*%
G36*
G01*
X127414069Y-99225000D02*
X126164069Y-99225000D01*
G75*
G02*
X125914069Y-98975000I0J250000D01*
G01*
X125914069Y-98225000D01*
G75*
G02*
X126164069Y-97975000I250000J0D01*
G01*
X127414069Y-97975000D01*
G75*
G02*
X127664069Y-98225000I0J-250000D01*
G01*
X127664069Y-98975000D01*
G75*
G02*
X127414069Y-99225000I-250000J0D01*
G01*
G37*
G36*
G01*
X127414069Y-102025000D02*
X126164069Y-102025000D01*
G75*
G02*
X125914069Y-101775000I0J250000D01*
G01*
X125914069Y-101025000D01*
G75*
G02*
X126164069Y-100775000I250000J0D01*
G01*
X127414069Y-100775000D01*
G75*
G02*
X127664069Y-101025000I0J-250000D01*
G01*
X127664069Y-101775000D01*
G75*
G02*
X127414069Y-102025000I-250000J0D01*
G01*
G37*
%TD*%
%TO.C,D3*%
G36*
G01*
X146464085Y-99225000D02*
X145214085Y-99225000D01*
G75*
G02*
X144964085Y-98975000I0J250000D01*
G01*
X144964085Y-98225000D01*
G75*
G02*
X145214085Y-97975000I250000J0D01*
G01*
X146464085Y-97975000D01*
G75*
G02*
X146714085Y-98225000I0J-250000D01*
G01*
X146714085Y-98975000D01*
G75*
G02*
X146464085Y-99225000I-250000J0D01*
G01*
G37*
G36*
G01*
X146464085Y-102025000D02*
X145214085Y-102025000D01*
G75*
G02*
X144964085Y-101775000I0J250000D01*
G01*
X144964085Y-101025000D01*
G75*
G02*
X145214085Y-100775000I250000J0D01*
G01*
X146464085Y-100775000D01*
G75*
G02*
X146714085Y-101025000I0J-250000D01*
G01*
X146714085Y-101775000D01*
G75*
G02*
X146464085Y-102025000I-250000J0D01*
G01*
G37*
%TD*%
%TO.C,D4*%
G36*
G01*
X165514101Y-99225000D02*
X164264101Y-99225000D01*
G75*
G02*
X164014101Y-98975000I0J250000D01*
G01*
X164014101Y-98225000D01*
G75*
G02*
X164264101Y-97975000I250000J0D01*
G01*
X165514101Y-97975000D01*
G75*
G02*
X165764101Y-98225000I0J-250000D01*
G01*
X165764101Y-98975000D01*
G75*
G02*
X165514101Y-99225000I-250000J0D01*
G01*
G37*
G36*
G01*
X165514101Y-102025000D02*
X164264101Y-102025000D01*
G75*
G02*
X164014101Y-101775000I0J250000D01*
G01*
X164014101Y-101025000D01*
G75*
G02*
X164264101Y-100775000I250000J0D01*
G01*
X165514101Y-100775000D01*
G75*
G02*
X165764101Y-101025000I0J-250000D01*
G01*
X165764101Y-101775000D01*
G75*
G02*
X165514101Y-102025000I-250000J0D01*
G01*
G37*
%TD*%
%TO.C,D5*%
G36*
G01*
X184564069Y-102025000D02*
X183314069Y-102025000D01*
G75*
G02*
X183064069Y-101775000I0J250000D01*
G01*
X183064069Y-101025000D01*
G75*
G02*
X183314069Y-100775000I250000J0D01*
G01*
X184564069Y-100775000D01*
G75*
G02*
X184814069Y-101025000I0J-250000D01*
G01*
X184814069Y-101775000D01*
G75*
G02*
X184564069Y-102025000I-250000J0D01*
G01*
G37*
G36*
G01*
X184564069Y-99225000D02*
X183314069Y-99225000D01*
G75*
G02*
X183064069Y-98975000I0J250000D01*
G01*
X183064069Y-98225000D01*
G75*
G02*
X183314069Y-97975000I250000J0D01*
G01*
X184564069Y-97975000D01*
G75*
G02*
X184814069Y-98225000I0J-250000D01*
G01*
X184814069Y-98975000D01*
G75*
G02*
X184564069Y-99225000I-250000J0D01*
G01*
G37*
%TD*%
%TO.C,D6*%
G36*
G01*
X203614085Y-99225000D02*
X202364085Y-99225000D01*
G75*
G02*
X202114085Y-98975000I0J250000D01*
G01*
X202114085Y-98225000D01*
G75*
G02*
X202364085Y-97975000I250000J0D01*
G01*
X203614085Y-97975000D01*
G75*
G02*
X203864085Y-98225000I0J-250000D01*
G01*
X203864085Y-98975000D01*
G75*
G02*
X203614085Y-99225000I-250000J0D01*
G01*
G37*
G36*
G01*
X203614085Y-102025000D02*
X202364085Y-102025000D01*
G75*
G02*
X202114085Y-101775000I0J250000D01*
G01*
X202114085Y-101025000D01*
G75*
G02*
X202364085Y-100775000I250000J0D01*
G01*
X203614085Y-100775000D01*
G75*
G02*
X203864085Y-101025000I0J-250000D01*
G01*
X203864085Y-101775000D01*
G75*
G02*
X203614085Y-102025000I-250000J0D01*
G01*
G37*
%TD*%
%TO.C,D8*%
G36*
G01*
X232189109Y-99225000D02*
X230939109Y-99225000D01*
G75*
G02*
X230689109Y-98975000I0J250000D01*
G01*
X230689109Y-98225000D01*
G75*
G02*
X230939109Y-97975000I250000J0D01*
G01*
X232189109Y-97975000D01*
G75*
G02*
X232439109Y-98225000I0J-250000D01*
G01*
X232439109Y-98975000D01*
G75*
G02*
X232189109Y-99225000I-250000J0D01*
G01*
G37*
G36*
G01*
X232189109Y-102025000D02*
X230939109Y-102025000D01*
G75*
G02*
X230689109Y-101775000I0J250000D01*
G01*
X230689109Y-101025000D01*
G75*
G02*
X230939109Y-100775000I250000J0D01*
G01*
X232189109Y-100775000D01*
G75*
G02*
X232439109Y-101025000I0J-250000D01*
G01*
X232439109Y-101775000D01*
G75*
G02*
X232189109Y-102025000I-250000J0D01*
G01*
G37*
%TD*%
%TO.C,D9*%
G36*
G01*
X245612500Y-103006250D02*
X245612500Y-101756250D01*
G75*
G02*
X245862500Y-101506250I250000J0D01*
G01*
X246612500Y-101506250D01*
G75*
G02*
X246862500Y-101756250I0J-250000D01*
G01*
X246862500Y-103006250D01*
G75*
G02*
X246612500Y-103256250I-250000J0D01*
G01*
X245862500Y-103256250D01*
G75*
G02*
X245612500Y-103006250I0J250000D01*
G01*
G37*
G36*
G01*
X248412500Y-103006250D02*
X248412500Y-101756250D01*
G75*
G02*
X248662500Y-101506250I250000J0D01*
G01*
X249412500Y-101506250D01*
G75*
G02*
X249662500Y-101756250I0J-250000D01*
G01*
X249662500Y-103006250D01*
G75*
G02*
X249412500Y-103256250I-250000J0D01*
G01*
X248662500Y-103256250D01*
G75*
G02*
X248412500Y-103006250I0J250000D01*
G01*
G37*
%TD*%
%TO.C,D10*%
G36*
G01*
X88332737Y-116043764D02*
X88332737Y-117293764D01*
G75*
G02*
X88082737Y-117543764I-250000J0D01*
G01*
X87332737Y-117543764D01*
G75*
G02*
X87082737Y-117293764I0J250000D01*
G01*
X87082737Y-116043764D01*
G75*
G02*
X87332737Y-115793764I250000J0D01*
G01*
X88082737Y-115793764D01*
G75*
G02*
X88332737Y-116043764I0J-250000D01*
G01*
G37*
G36*
G01*
X85532737Y-116043764D02*
X85532737Y-117293764D01*
G75*
G02*
X85282737Y-117543764I-250000J0D01*
G01*
X84532737Y-117543764D01*
G75*
G02*
X84282737Y-117293764I0J250000D01*
G01*
X84282737Y-116043764D01*
G75*
G02*
X84532737Y-115793764I250000J0D01*
G01*
X85282737Y-115793764D01*
G75*
G02*
X85532737Y-116043764I0J-250000D01*
G01*
G37*
%TD*%
%TO.C,D11*%
G36*
G01*
X117889013Y-121075016D02*
X116639013Y-121075016D01*
G75*
G02*
X116389013Y-120825016I0J250000D01*
G01*
X116389013Y-120075016D01*
G75*
G02*
X116639013Y-119825016I250000J0D01*
G01*
X117889013Y-119825016D01*
G75*
G02*
X118139013Y-120075016I0J-250000D01*
G01*
X118139013Y-120825016D01*
G75*
G02*
X117889013Y-121075016I-250000J0D01*
G01*
G37*
G36*
G01*
X117889013Y-118275016D02*
X116639013Y-118275016D01*
G75*
G02*
X116389013Y-118025016I0J250000D01*
G01*
X116389013Y-117275016D01*
G75*
G02*
X116639013Y-117025016I250000J0D01*
G01*
X117889013Y-117025016D01*
G75*
G02*
X118139013Y-117275016I0J-250000D01*
G01*
X118139013Y-118025016D01*
G75*
G02*
X117889013Y-118275016I-250000J0D01*
G01*
G37*
%TD*%
%TO.C,D12*%
G36*
G01*
X136939029Y-118275016D02*
X135689029Y-118275016D01*
G75*
G02*
X135439029Y-118025016I0J250000D01*
G01*
X135439029Y-117275016D01*
G75*
G02*
X135689029Y-117025016I250000J0D01*
G01*
X136939029Y-117025016D01*
G75*
G02*
X137189029Y-117275016I0J-250000D01*
G01*
X137189029Y-118025016D01*
G75*
G02*
X136939029Y-118275016I-250000J0D01*
G01*
G37*
G36*
G01*
X136939029Y-121075016D02*
X135689029Y-121075016D01*
G75*
G02*
X135439029Y-120825016I0J250000D01*
G01*
X135439029Y-120075016D01*
G75*
G02*
X135689029Y-119825016I250000J0D01*
G01*
X136939029Y-119825016D01*
G75*
G02*
X137189029Y-120075016I0J-250000D01*
G01*
X137189029Y-120825016D01*
G75*
G02*
X136939029Y-121075016I-250000J0D01*
G01*
G37*
%TD*%
%TO.C,D13*%
G36*
G01*
X155989045Y-118275016D02*
X154739045Y-118275016D01*
G75*
G02*
X154489045Y-118025016I0J250000D01*
G01*
X154489045Y-117275016D01*
G75*
G02*
X154739045Y-117025016I250000J0D01*
G01*
X155989045Y-117025016D01*
G75*
G02*
X156239045Y-117275016I0J-250000D01*
G01*
X156239045Y-118025016D01*
G75*
G02*
X155989045Y-118275016I-250000J0D01*
G01*
G37*
G36*
G01*
X155989045Y-121075016D02*
X154739045Y-121075016D01*
G75*
G02*
X154489045Y-120825016I0J250000D01*
G01*
X154489045Y-120075016D01*
G75*
G02*
X154739045Y-119825016I250000J0D01*
G01*
X155989045Y-119825016D01*
G75*
G02*
X156239045Y-120075016I0J-250000D01*
G01*
X156239045Y-120825016D01*
G75*
G02*
X155989045Y-121075016I-250000J0D01*
G01*
G37*
%TD*%
%TO.C,D14*%
G36*
G01*
X175039061Y-118275016D02*
X173789061Y-118275016D01*
G75*
G02*
X173539061Y-118025016I0J250000D01*
G01*
X173539061Y-117275016D01*
G75*
G02*
X173789061Y-117025016I250000J0D01*
G01*
X175039061Y-117025016D01*
G75*
G02*
X175289061Y-117275016I0J-250000D01*
G01*
X175289061Y-118025016D01*
G75*
G02*
X175039061Y-118275016I-250000J0D01*
G01*
G37*
G36*
G01*
X175039061Y-121075016D02*
X173789061Y-121075016D01*
G75*
G02*
X173539061Y-120825016I0J250000D01*
G01*
X173539061Y-120075016D01*
G75*
G02*
X173789061Y-119825016I250000J0D01*
G01*
X175039061Y-119825016D01*
G75*
G02*
X175289061Y-120075016I0J-250000D01*
G01*
X175289061Y-120825016D01*
G75*
G02*
X175039061Y-121075016I-250000J0D01*
G01*
G37*
%TD*%
%TO.C,D15*%
G36*
G01*
X194089077Y-121075016D02*
X192839077Y-121075016D01*
G75*
G02*
X192589077Y-120825016I0J250000D01*
G01*
X192589077Y-120075016D01*
G75*
G02*
X192839077Y-119825016I250000J0D01*
G01*
X194089077Y-119825016D01*
G75*
G02*
X194339077Y-120075016I0J-250000D01*
G01*
X194339077Y-120825016D01*
G75*
G02*
X194089077Y-121075016I-250000J0D01*
G01*
G37*
G36*
G01*
X194089077Y-118275016D02*
X192839077Y-118275016D01*
G75*
G02*
X192589077Y-118025016I0J250000D01*
G01*
X192589077Y-117275016D01*
G75*
G02*
X192839077Y-117025016I250000J0D01*
G01*
X194089077Y-117025016D01*
G75*
G02*
X194339077Y-117275016I0J-250000D01*
G01*
X194339077Y-118025016D01*
G75*
G02*
X194089077Y-118275016I-250000J0D01*
G01*
G37*
%TD*%
%TO.C,D16*%
G36*
G01*
X213139093Y-118275016D02*
X211889093Y-118275016D01*
G75*
G02*
X211639093Y-118025016I0J250000D01*
G01*
X211639093Y-117275016D01*
G75*
G02*
X211889093Y-117025016I250000J0D01*
G01*
X213139093Y-117025016D01*
G75*
G02*
X213389093Y-117275016I0J-250000D01*
G01*
X213389093Y-118025016D01*
G75*
G02*
X213139093Y-118275016I-250000J0D01*
G01*
G37*
G36*
G01*
X213139093Y-121075016D02*
X211889093Y-121075016D01*
G75*
G02*
X211639093Y-120825016I0J250000D01*
G01*
X211639093Y-120075016D01*
G75*
G02*
X211889093Y-119825016I250000J0D01*
G01*
X213139093Y-119825016D01*
G75*
G02*
X213389093Y-120075016I0J-250000D01*
G01*
X213389093Y-120825016D01*
G75*
G02*
X213139093Y-121075016I-250000J0D01*
G01*
G37*
%TD*%
%TO.C,D17*%
G36*
G01*
X231325000Y-122056250D02*
X231325000Y-120806250D01*
G75*
G02*
X231575000Y-120556250I250000J0D01*
G01*
X232325000Y-120556250D01*
G75*
G02*
X232575000Y-120806250I0J-250000D01*
G01*
X232575000Y-122056250D01*
G75*
G02*
X232325000Y-122306250I-250000J0D01*
G01*
X231575000Y-122306250D01*
G75*
G02*
X231325000Y-122056250I0J250000D01*
G01*
G37*
G36*
G01*
X234125000Y-122056250D02*
X234125000Y-120806250D01*
G75*
G02*
X234375000Y-120556250I250000J0D01*
G01*
X235125000Y-120556250D01*
G75*
G02*
X235375000Y-120806250I0J-250000D01*
G01*
X235375000Y-122056250D01*
G75*
G02*
X235125000Y-122306250I-250000J0D01*
G01*
X234375000Y-122306250D01*
G75*
G02*
X234125000Y-122056250I0J250000D01*
G01*
G37*
%TD*%
%TO.C,D18*%
G36*
G01*
X245612500Y-122056250D02*
X245612500Y-120806250D01*
G75*
G02*
X245862500Y-120556250I250000J0D01*
G01*
X246612500Y-120556250D01*
G75*
G02*
X246862500Y-120806250I0J-250000D01*
G01*
X246862500Y-122056250D01*
G75*
G02*
X246612500Y-122306250I-250000J0D01*
G01*
X245862500Y-122306250D01*
G75*
G02*
X245612500Y-122056250I0J250000D01*
G01*
G37*
G36*
G01*
X248412500Y-122056250D02*
X248412500Y-120806250D01*
G75*
G02*
X248662500Y-120556250I250000J0D01*
G01*
X249412500Y-120556250D01*
G75*
G02*
X249662500Y-120806250I0J-250000D01*
G01*
X249662500Y-122056250D01*
G75*
G02*
X249412500Y-122306250I-250000J0D01*
G01*
X248662500Y-122306250D01*
G75*
G02*
X248412500Y-122056250I0J250000D01*
G01*
G37*
%TD*%
%TO.C,D19*%
G36*
G01*
X93095241Y-135093780D02*
X93095241Y-136343780D01*
G75*
G02*
X92845241Y-136593780I-250000J0D01*
G01*
X92095241Y-136593780D01*
G75*
G02*
X91845241Y-136343780I0J250000D01*
G01*
X91845241Y-135093780D01*
G75*
G02*
X92095241Y-134843780I250000J0D01*
G01*
X92845241Y-134843780D01*
G75*
G02*
X93095241Y-135093780I0J-250000D01*
G01*
G37*
G36*
G01*
X90295241Y-135093780D02*
X90295241Y-136343780D01*
G75*
G02*
X90045241Y-136593780I-250000J0D01*
G01*
X89295241Y-136593780D01*
G75*
G02*
X89045241Y-136343780I0J250000D01*
G01*
X89045241Y-135093780D01*
G75*
G02*
X89295241Y-134843780I250000J0D01*
G01*
X90045241Y-134843780D01*
G75*
G02*
X90295241Y-135093780I0J-250000D01*
G01*
G37*
%TD*%
%TO.C,D20*%
G36*
G01*
X122651517Y-140125032D02*
X121401517Y-140125032D01*
G75*
G02*
X121151517Y-139875032I0J250000D01*
G01*
X121151517Y-139125032D01*
G75*
G02*
X121401517Y-138875032I250000J0D01*
G01*
X122651517Y-138875032D01*
G75*
G02*
X122901517Y-139125032I0J-250000D01*
G01*
X122901517Y-139875032D01*
G75*
G02*
X122651517Y-140125032I-250000J0D01*
G01*
G37*
G36*
G01*
X122651517Y-137325032D02*
X121401517Y-137325032D01*
G75*
G02*
X121151517Y-137075032I0J250000D01*
G01*
X121151517Y-136325032D01*
G75*
G02*
X121401517Y-136075032I250000J0D01*
G01*
X122651517Y-136075032D01*
G75*
G02*
X122901517Y-136325032I0J-250000D01*
G01*
X122901517Y-137075032D01*
G75*
G02*
X122651517Y-137325032I-250000J0D01*
G01*
G37*
%TD*%
%TO.C,D21*%
G36*
G01*
X141701533Y-137325032D02*
X140451533Y-137325032D01*
G75*
G02*
X140201533Y-137075032I0J250000D01*
G01*
X140201533Y-136325032D01*
G75*
G02*
X140451533Y-136075032I250000J0D01*
G01*
X141701533Y-136075032D01*
G75*
G02*
X141951533Y-136325032I0J-250000D01*
G01*
X141951533Y-137075032D01*
G75*
G02*
X141701533Y-137325032I-250000J0D01*
G01*
G37*
G36*
G01*
X141701533Y-140125032D02*
X140451533Y-140125032D01*
G75*
G02*
X140201533Y-139875032I0J250000D01*
G01*
X140201533Y-139125032D01*
G75*
G02*
X140451533Y-138875032I250000J0D01*
G01*
X141701533Y-138875032D01*
G75*
G02*
X141951533Y-139125032I0J-250000D01*
G01*
X141951533Y-139875032D01*
G75*
G02*
X141701533Y-140125032I-250000J0D01*
G01*
G37*
%TD*%
%TO.C,D22*%
G36*
G01*
X160751549Y-137325032D02*
X159501549Y-137325032D01*
G75*
G02*
X159251549Y-137075032I0J250000D01*
G01*
X159251549Y-136325032D01*
G75*
G02*
X159501549Y-136075032I250000J0D01*
G01*
X160751549Y-136075032D01*
G75*
G02*
X161001549Y-136325032I0J-250000D01*
G01*
X161001549Y-137075032D01*
G75*
G02*
X160751549Y-137325032I-250000J0D01*
G01*
G37*
G36*
G01*
X160751549Y-140125032D02*
X159501549Y-140125032D01*
G75*
G02*
X159251549Y-139875032I0J250000D01*
G01*
X159251549Y-139125032D01*
G75*
G02*
X159501549Y-138875032I250000J0D01*
G01*
X160751549Y-138875032D01*
G75*
G02*
X161001549Y-139125032I0J-250000D01*
G01*
X161001549Y-139875032D01*
G75*
G02*
X160751549Y-140125032I-250000J0D01*
G01*
G37*
%TD*%
%TO.C,D23*%
G36*
G01*
X179801565Y-137325032D02*
X178551565Y-137325032D01*
G75*
G02*
X178301565Y-137075032I0J250000D01*
G01*
X178301565Y-136325032D01*
G75*
G02*
X178551565Y-136075032I250000J0D01*
G01*
X179801565Y-136075032D01*
G75*
G02*
X180051565Y-136325032I0J-250000D01*
G01*
X180051565Y-137075032D01*
G75*
G02*
X179801565Y-137325032I-250000J0D01*
G01*
G37*
G36*
G01*
X179801565Y-140125032D02*
X178551565Y-140125032D01*
G75*
G02*
X178301565Y-139875032I0J250000D01*
G01*
X178301565Y-139125032D01*
G75*
G02*
X178551565Y-138875032I250000J0D01*
G01*
X179801565Y-138875032D01*
G75*
G02*
X180051565Y-139125032I0J-250000D01*
G01*
X180051565Y-139875032D01*
G75*
G02*
X179801565Y-140125032I-250000J0D01*
G01*
G37*
%TD*%
%TO.C,D24*%
G36*
G01*
X198851581Y-140125032D02*
X197601581Y-140125032D01*
G75*
G02*
X197351581Y-139875032I0J250000D01*
G01*
X197351581Y-139125032D01*
G75*
G02*
X197601581Y-138875032I250000J0D01*
G01*
X198851581Y-138875032D01*
G75*
G02*
X199101581Y-139125032I0J-250000D01*
G01*
X199101581Y-139875032D01*
G75*
G02*
X198851581Y-140125032I-250000J0D01*
G01*
G37*
G36*
G01*
X198851581Y-137325032D02*
X197601581Y-137325032D01*
G75*
G02*
X197351581Y-137075032I0J250000D01*
G01*
X197351581Y-136325032D01*
G75*
G02*
X197601581Y-136075032I250000J0D01*
G01*
X198851581Y-136075032D01*
G75*
G02*
X199101581Y-136325032I0J-250000D01*
G01*
X199101581Y-137075032D01*
G75*
G02*
X198851581Y-137325032I-250000J0D01*
G01*
G37*
%TD*%
%TO.C,D25*%
G36*
G01*
X229807857Y-137325032D02*
X228557857Y-137325032D01*
G75*
G02*
X228307857Y-137075032I0J250000D01*
G01*
X228307857Y-136325032D01*
G75*
G02*
X228557857Y-136075032I250000J0D01*
G01*
X229807857Y-136075032D01*
G75*
G02*
X230057857Y-136325032I0J-250000D01*
G01*
X230057857Y-137075032D01*
G75*
G02*
X229807857Y-137325032I-250000J0D01*
G01*
G37*
G36*
G01*
X229807857Y-140125032D02*
X228557857Y-140125032D01*
G75*
G02*
X228307857Y-139875032I0J250000D01*
G01*
X228307857Y-139125032D01*
G75*
G02*
X228557857Y-138875032I250000J0D01*
G01*
X229807857Y-138875032D01*
G75*
G02*
X230057857Y-139125032I0J-250000D01*
G01*
X230057857Y-139875032D01*
G75*
G02*
X229807857Y-140125032I-250000J0D01*
G01*
G37*
%TD*%
%TO.C,D26*%
G36*
G01*
X245612500Y-141106250D02*
X245612500Y-139856250D01*
G75*
G02*
X245862500Y-139606250I250000J0D01*
G01*
X246612500Y-139606250D01*
G75*
G02*
X246862500Y-139856250I0J-250000D01*
G01*
X246862500Y-141106250D01*
G75*
G02*
X246612500Y-141356250I-250000J0D01*
G01*
X245862500Y-141356250D01*
G75*
G02*
X245612500Y-141106250I0J250000D01*
G01*
G37*
G36*
G01*
X248412500Y-141106250D02*
X248412500Y-139856250D01*
G75*
G02*
X248662500Y-139606250I250000J0D01*
G01*
X249412500Y-139606250D01*
G75*
G02*
X249662500Y-139856250I0J-250000D01*
G01*
X249662500Y-141106250D01*
G75*
G02*
X249412500Y-141356250I-250000J0D01*
G01*
X248662500Y-141356250D01*
G75*
G02*
X248412500Y-141106250I0J250000D01*
G01*
G37*
%TD*%
%TO.C,D27*%
G36*
G01*
X102620249Y-154143796D02*
X102620249Y-155393796D01*
G75*
G02*
X102370249Y-155643796I-250000J0D01*
G01*
X101620249Y-155643796D01*
G75*
G02*
X101370249Y-155393796I0J250000D01*
G01*
X101370249Y-154143796D01*
G75*
G02*
X101620249Y-153893796I250000J0D01*
G01*
X102370249Y-153893796D01*
G75*
G02*
X102620249Y-154143796I0J-250000D01*
G01*
G37*
G36*
G01*
X99820249Y-154143796D02*
X99820249Y-155393796D01*
G75*
G02*
X99570249Y-155643796I-250000J0D01*
G01*
X98820249Y-155643796D01*
G75*
G02*
X98570249Y-155393796I0J250000D01*
G01*
X98570249Y-154143796D01*
G75*
G02*
X98820249Y-153893796I250000J0D01*
G01*
X99570249Y-153893796D01*
G75*
G02*
X99820249Y-154143796I0J-250000D01*
G01*
G37*
%TD*%
%TO.C,D28*%
G36*
G01*
X132176525Y-156375048D02*
X130926525Y-156375048D01*
G75*
G02*
X130676525Y-156125048I0J250000D01*
G01*
X130676525Y-155375048D01*
G75*
G02*
X130926525Y-155125048I250000J0D01*
G01*
X132176525Y-155125048D01*
G75*
G02*
X132426525Y-155375048I0J-250000D01*
G01*
X132426525Y-156125048D01*
G75*
G02*
X132176525Y-156375048I-250000J0D01*
G01*
G37*
G36*
G01*
X132176525Y-159175048D02*
X130926525Y-159175048D01*
G75*
G02*
X130676525Y-158925048I0J250000D01*
G01*
X130676525Y-158175048D01*
G75*
G02*
X130926525Y-157925048I250000J0D01*
G01*
X132176525Y-157925048D01*
G75*
G02*
X132426525Y-158175048I0J-250000D01*
G01*
X132426525Y-158925048D01*
G75*
G02*
X132176525Y-159175048I-250000J0D01*
G01*
G37*
%TD*%
%TO.C,D29*%
G36*
G01*
X151226541Y-159175048D02*
X149976541Y-159175048D01*
G75*
G02*
X149726541Y-158925048I0J250000D01*
G01*
X149726541Y-158175048D01*
G75*
G02*
X149976541Y-157925048I250000J0D01*
G01*
X151226541Y-157925048D01*
G75*
G02*
X151476541Y-158175048I0J-250000D01*
G01*
X151476541Y-158925048D01*
G75*
G02*
X151226541Y-159175048I-250000J0D01*
G01*
G37*
G36*
G01*
X151226541Y-156375048D02*
X149976541Y-156375048D01*
G75*
G02*
X149726541Y-156125048I0J250000D01*
G01*
X149726541Y-155375048D01*
G75*
G02*
X149976541Y-155125048I250000J0D01*
G01*
X151226541Y-155125048D01*
G75*
G02*
X151476541Y-155375048I0J-250000D01*
G01*
X151476541Y-156125048D01*
G75*
G02*
X151226541Y-156375048I-250000J0D01*
G01*
G37*
%TD*%
%TO.C,D30*%
G36*
G01*
X170276557Y-156375048D02*
X169026557Y-156375048D01*
G75*
G02*
X168776557Y-156125048I0J250000D01*
G01*
X168776557Y-155375048D01*
G75*
G02*
X169026557Y-155125048I250000J0D01*
G01*
X170276557Y-155125048D01*
G75*
G02*
X170526557Y-155375048I0J-250000D01*
G01*
X170526557Y-156125048D01*
G75*
G02*
X170276557Y-156375048I-250000J0D01*
G01*
G37*
G36*
G01*
X170276557Y-159175048D02*
X169026557Y-159175048D01*
G75*
G02*
X168776557Y-158925048I0J250000D01*
G01*
X168776557Y-158175048D01*
G75*
G02*
X169026557Y-157925048I250000J0D01*
G01*
X170276557Y-157925048D01*
G75*
G02*
X170526557Y-158175048I0J-250000D01*
G01*
X170526557Y-158925048D01*
G75*
G02*
X170276557Y-159175048I-250000J0D01*
G01*
G37*
%TD*%
%TO.C,D31*%
G36*
G01*
X189326573Y-159175048D02*
X188076573Y-159175048D01*
G75*
G02*
X187826573Y-158925048I0J250000D01*
G01*
X187826573Y-158175048D01*
G75*
G02*
X188076573Y-157925048I250000J0D01*
G01*
X189326573Y-157925048D01*
G75*
G02*
X189576573Y-158175048I0J-250000D01*
G01*
X189576573Y-158925048D01*
G75*
G02*
X189326573Y-159175048I-250000J0D01*
G01*
G37*
G36*
G01*
X189326573Y-156375048D02*
X188076573Y-156375048D01*
G75*
G02*
X187826573Y-156125048I0J250000D01*
G01*
X187826573Y-155375048D01*
G75*
G02*
X188076573Y-155125048I250000J0D01*
G01*
X189326573Y-155125048D01*
G75*
G02*
X189576573Y-155375048I0J-250000D01*
G01*
X189576573Y-156125048D01*
G75*
G02*
X189326573Y-156375048I-250000J0D01*
G01*
G37*
%TD*%
%TO.C,D32*%
G36*
G01*
X215520345Y-156375048D02*
X214270345Y-156375048D01*
G75*
G02*
X214020345Y-156125048I0J250000D01*
G01*
X214020345Y-155375048D01*
G75*
G02*
X214270345Y-155125048I250000J0D01*
G01*
X215520345Y-155125048D01*
G75*
G02*
X215770345Y-155375048I0J-250000D01*
G01*
X215770345Y-156125048D01*
G75*
G02*
X215520345Y-156375048I-250000J0D01*
G01*
G37*
G36*
G01*
X215520345Y-159175048D02*
X214270345Y-159175048D01*
G75*
G02*
X214020345Y-158925048I0J250000D01*
G01*
X214020345Y-158175048D01*
G75*
G02*
X214270345Y-157925048I250000J0D01*
G01*
X215520345Y-157925048D01*
G75*
G02*
X215770345Y-158175048I0J-250000D01*
G01*
X215770345Y-158925048D01*
G75*
G02*
X215520345Y-159175048I-250000J0D01*
G01*
G37*
%TD*%
%TO.C,D33*%
G36*
G01*
X241714117Y-159175048D02*
X240464117Y-159175048D01*
G75*
G02*
X240214117Y-158925048I0J250000D01*
G01*
X240214117Y-158175048D01*
G75*
G02*
X240464117Y-157925048I250000J0D01*
G01*
X241714117Y-157925048D01*
G75*
G02*
X241964117Y-158175048I0J-250000D01*
G01*
X241964117Y-158925048D01*
G75*
G02*
X241714117Y-159175048I-250000J0D01*
G01*
G37*
G36*
G01*
X241714117Y-156375048D02*
X240464117Y-156375048D01*
G75*
G02*
X240214117Y-156125048I0J250000D01*
G01*
X240214117Y-155375048D01*
G75*
G02*
X240464117Y-155125048I250000J0D01*
G01*
X241714117Y-155125048D01*
G75*
G02*
X241964117Y-155375048I0J-250000D01*
G01*
X241964117Y-156125048D01*
G75*
G02*
X241714117Y-156375048I-250000J0D01*
G01*
G37*
%TD*%
%TO.C,D34*%
G36*
G01*
X248412500Y-160156250D02*
X248412500Y-158906250D01*
G75*
G02*
X248662500Y-158656250I250000J0D01*
G01*
X249412500Y-158656250D01*
G75*
G02*
X249662500Y-158906250I0J-250000D01*
G01*
X249662500Y-160156250D01*
G75*
G02*
X249412500Y-160406250I-250000J0D01*
G01*
X248662500Y-160406250D01*
G75*
G02*
X248412500Y-160156250I0J250000D01*
G01*
G37*
G36*
G01*
X245612500Y-160156250D02*
X245612500Y-158906250D01*
G75*
G02*
X245862500Y-158656250I250000J0D01*
G01*
X246612500Y-158656250D01*
G75*
G02*
X246862500Y-158906250I0J-250000D01*
G01*
X246862500Y-160156250D01*
G75*
G02*
X246612500Y-160406250I-250000J0D01*
G01*
X245862500Y-160406250D01*
G75*
G02*
X245612500Y-160156250I0J250000D01*
G01*
G37*
%TD*%
%TO.C,D35*%
G36*
G01*
X122384375Y-174612500D02*
X121134375Y-174612500D01*
G75*
G02*
X120884375Y-174362500I0J250000D01*
G01*
X120884375Y-173612500D01*
G75*
G02*
X121134375Y-173362500I250000J0D01*
G01*
X122384375Y-173362500D01*
G75*
G02*
X122634375Y-173612500I0J-250000D01*
G01*
X122634375Y-174362500D01*
G75*
G02*
X122384375Y-174612500I-250000J0D01*
G01*
G37*
G36*
G01*
X122384375Y-171812500D02*
X121134375Y-171812500D01*
G75*
G02*
X120884375Y-171562500I0J250000D01*
G01*
X120884375Y-170812500D01*
G75*
G02*
X121134375Y-170562500I250000J0D01*
G01*
X122384375Y-170562500D01*
G75*
G02*
X122634375Y-170812500I0J-250000D01*
G01*
X122634375Y-171562500D01*
G75*
G02*
X122384375Y-171812500I-250000J0D01*
G01*
G37*
%TD*%
%TO.C,D36*%
G36*
G01*
X158370297Y-178225064D02*
X157120297Y-178225064D01*
G75*
G02*
X156870297Y-177975064I0J250000D01*
G01*
X156870297Y-177225064D01*
G75*
G02*
X157120297Y-176975064I250000J0D01*
G01*
X158370297Y-176975064D01*
G75*
G02*
X158620297Y-177225064I0J-250000D01*
G01*
X158620297Y-177975064D01*
G75*
G02*
X158370297Y-178225064I-250000J0D01*
G01*
G37*
G36*
G01*
X158370297Y-175425064D02*
X157120297Y-175425064D01*
G75*
G02*
X156870297Y-175175064I0J250000D01*
G01*
X156870297Y-174425064D01*
G75*
G02*
X157120297Y-174175064I250000J0D01*
G01*
X158370297Y-174175064D01*
G75*
G02*
X158620297Y-174425064I0J-250000D01*
G01*
X158620297Y-175175064D01*
G75*
G02*
X158370297Y-175425064I-250000J0D01*
G01*
G37*
%TD*%
%TO.C,D37*%
G36*
G01*
X179801565Y-178225064D02*
X178551565Y-178225064D01*
G75*
G02*
X178301565Y-177975064I0J250000D01*
G01*
X178301565Y-177225064D01*
G75*
G02*
X178551565Y-176975064I250000J0D01*
G01*
X179801565Y-176975064D01*
G75*
G02*
X180051565Y-177225064I0J-250000D01*
G01*
X180051565Y-177975064D01*
G75*
G02*
X179801565Y-178225064I-250000J0D01*
G01*
G37*
G36*
G01*
X179801565Y-175425064D02*
X178551565Y-175425064D01*
G75*
G02*
X178301565Y-175175064I0J250000D01*
G01*
X178301565Y-174425064D01*
G75*
G02*
X178551565Y-174175064I250000J0D01*
G01*
X179801565Y-174175064D01*
G75*
G02*
X180051565Y-174425064I0J-250000D01*
G01*
X180051565Y-175175064D01*
G75*
G02*
X179801565Y-175425064I-250000J0D01*
G01*
G37*
%TD*%
%TO.C,D38*%
G36*
G01*
X201232833Y-175425064D02*
X199982833Y-175425064D01*
G75*
G02*
X199732833Y-175175064I0J250000D01*
G01*
X199732833Y-174425064D01*
G75*
G02*
X199982833Y-174175064I250000J0D01*
G01*
X201232833Y-174175064D01*
G75*
G02*
X201482833Y-174425064I0J-250000D01*
G01*
X201482833Y-175175064D01*
G75*
G02*
X201232833Y-175425064I-250000J0D01*
G01*
G37*
G36*
G01*
X201232833Y-178225064D02*
X199982833Y-178225064D01*
G75*
G02*
X199732833Y-177975064I0J250000D01*
G01*
X199732833Y-177225064D01*
G75*
G02*
X199982833Y-176975064I250000J0D01*
G01*
X201232833Y-176975064D01*
G75*
G02*
X201482833Y-177225064I0J-250000D01*
G01*
X201482833Y-177975064D01*
G75*
G02*
X201232833Y-178225064I-250000J0D01*
G01*
G37*
%TD*%
%TO.C,D39*%
G36*
G01*
X222664101Y-175425064D02*
X221414101Y-175425064D01*
G75*
G02*
X221164101Y-175175064I0J250000D01*
G01*
X221164101Y-174425064D01*
G75*
G02*
X221414101Y-174175064I250000J0D01*
G01*
X222664101Y-174175064D01*
G75*
G02*
X222914101Y-174425064I0J-250000D01*
G01*
X222914101Y-175175064D01*
G75*
G02*
X222664101Y-175425064I-250000J0D01*
G01*
G37*
G36*
G01*
X222664101Y-178225064D02*
X221414101Y-178225064D01*
G75*
G02*
X221164101Y-177975064I0J250000D01*
G01*
X221164101Y-177225064D01*
G75*
G02*
X221414101Y-176975064I250000J0D01*
G01*
X222664101Y-176975064D01*
G75*
G02*
X222914101Y-177225064I0J-250000D01*
G01*
X222914101Y-177975064D01*
G75*
G02*
X222664101Y-178225064I-250000J0D01*
G01*
G37*
%TD*%
%TO.C,D40*%
G36*
G01*
X241714117Y-175425064D02*
X240464117Y-175425064D01*
G75*
G02*
X240214117Y-175175064I0J250000D01*
G01*
X240214117Y-174425064D01*
G75*
G02*
X240464117Y-174175064I250000J0D01*
G01*
X241714117Y-174175064D01*
G75*
G02*
X241964117Y-174425064I0J-250000D01*
G01*
X241964117Y-175175064D01*
G75*
G02*
X241714117Y-175425064I-250000J0D01*
G01*
G37*
G36*
G01*
X241714117Y-178225064D02*
X240464117Y-178225064D01*
G75*
G02*
X240214117Y-177975064I0J250000D01*
G01*
X240214117Y-177225064D01*
G75*
G02*
X240464117Y-176975064I250000J0D01*
G01*
X241714117Y-176975064D01*
G75*
G02*
X241964117Y-177225064I0J-250000D01*
G01*
X241964117Y-177975064D01*
G75*
G02*
X241714117Y-178225064I-250000J0D01*
G01*
G37*
%TD*%
%TO.C,D41*%
G36*
G01*
X248412500Y-179206250D02*
X248412500Y-177956250D01*
G75*
G02*
X248662500Y-177706250I250000J0D01*
G01*
X249412500Y-177706250D01*
G75*
G02*
X249662500Y-177956250I0J-250000D01*
G01*
X249662500Y-179206250D01*
G75*
G02*
X249412500Y-179456250I-250000J0D01*
G01*
X248662500Y-179456250D01*
G75*
G02*
X248412500Y-179206250I0J250000D01*
G01*
G37*
G36*
G01*
X245612500Y-179206250D02*
X245612500Y-177956250D01*
G75*
G02*
X245862500Y-177706250I250000J0D01*
G01*
X246612500Y-177706250D01*
G75*
G02*
X246862500Y-177956250I0J-250000D01*
G01*
X246862500Y-179206250D01*
G75*
G02*
X246612500Y-179456250I-250000J0D01*
G01*
X245862500Y-179456250D01*
G75*
G02*
X245612500Y-179206250I0J250000D01*
G01*
G37*
%TD*%
%TO.C,D100*%
G36*
G01*
X88187500Y-170825000D02*
X88187500Y-169575000D01*
G75*
G02*
X88437500Y-169325000I250000J0D01*
G01*
X89187500Y-169325000D01*
G75*
G02*
X89437500Y-169575000I0J-250000D01*
G01*
X89437500Y-170825000D01*
G75*
G02*
X89187500Y-171075000I-250000J0D01*
G01*
X88437500Y-171075000D01*
G75*
G02*
X88187500Y-170825000I0J250000D01*
G01*
G37*
G36*
G01*
X90987500Y-170825000D02*
X90987500Y-169575000D01*
G75*
G02*
X91237500Y-169325000I250000J0D01*
G01*
X91987500Y-169325000D01*
G75*
G02*
X92237500Y-169575000I0J-250000D01*
G01*
X92237500Y-170825000D01*
G75*
G02*
X91987500Y-171075000I-250000J0D01*
G01*
X91237500Y-171075000D01*
G75*
G02*
X90987500Y-170825000I0J250000D01*
G01*
G37*
%TD*%
%TO.C,D101*%
G36*
G01*
X88187500Y-173825000D02*
X88187500Y-172575000D01*
G75*
G02*
X88437500Y-172325000I250000J0D01*
G01*
X89187500Y-172325000D01*
G75*
G02*
X89437500Y-172575000I0J-250000D01*
G01*
X89437500Y-173825000D01*
G75*
G02*
X89187500Y-174075000I-250000J0D01*
G01*
X88437500Y-174075000D01*
G75*
G02*
X88187500Y-173825000I0J250000D01*
G01*
G37*
G36*
G01*
X90987500Y-173825000D02*
X90987500Y-172575000D01*
G75*
G02*
X91237500Y-172325000I250000J0D01*
G01*
X91987500Y-172325000D01*
G75*
G02*
X92237500Y-172575000I0J-250000D01*
G01*
X92237500Y-173825000D01*
G75*
G02*
X91987500Y-174075000I-250000J0D01*
G01*
X91237500Y-174075000D01*
G75*
G02*
X90987500Y-173825000I0J250000D01*
G01*
G37*
%TD*%
%TO.C,D102*%
G36*
G01*
X88187500Y-176825000D02*
X88187500Y-175575000D01*
G75*
G02*
X88437500Y-175325000I250000J0D01*
G01*
X89187500Y-175325000D01*
G75*
G02*
X89437500Y-175575000I0J-250000D01*
G01*
X89437500Y-176825000D01*
G75*
G02*
X89187500Y-177075000I-250000J0D01*
G01*
X88437500Y-177075000D01*
G75*
G02*
X88187500Y-176825000I0J250000D01*
G01*
G37*
G36*
G01*
X90987500Y-176825000D02*
X90987500Y-175575000D01*
G75*
G02*
X91237500Y-175325000I250000J0D01*
G01*
X91987500Y-175325000D01*
G75*
G02*
X92237500Y-175575000I0J-250000D01*
G01*
X92237500Y-176825000D01*
G75*
G02*
X91987500Y-177075000I-250000J0D01*
G01*
X91237500Y-177075000D01*
G75*
G02*
X90987500Y-176825000I0J250000D01*
G01*
G37*
%TD*%
%TO.C,D103*%
G36*
G01*
X90987500Y-179825000D02*
X90987500Y-178575000D01*
G75*
G02*
X91237500Y-178325000I250000J0D01*
G01*
X91987500Y-178325000D01*
G75*
G02*
X92237500Y-178575000I0J-250000D01*
G01*
X92237500Y-179825000D01*
G75*
G02*
X91987500Y-180075000I-250000J0D01*
G01*
X91237500Y-180075000D01*
G75*
G02*
X90987500Y-179825000I0J250000D01*
G01*
G37*
G36*
G01*
X88187500Y-179825000D02*
X88187500Y-178575000D01*
G75*
G02*
X88437500Y-178325000I250000J0D01*
G01*
X89187500Y-178325000D01*
G75*
G02*
X89437500Y-178575000I0J-250000D01*
G01*
X89437500Y-179825000D01*
G75*
G02*
X89187500Y-180075000I-250000J0D01*
G01*
X88437500Y-180075000D01*
G75*
G02*
X88187500Y-179825000I0J250000D01*
G01*
G37*
%TD*%
%TO.C,D104*%
G36*
G01*
X90987500Y-182825000D02*
X90987500Y-181575000D01*
G75*
G02*
X91237500Y-181325000I250000J0D01*
G01*
X91987500Y-181325000D01*
G75*
G02*
X92237500Y-181575000I0J-250000D01*
G01*
X92237500Y-182825000D01*
G75*
G02*
X91987500Y-183075000I-250000J0D01*
G01*
X91237500Y-183075000D01*
G75*
G02*
X90987500Y-182825000I0J250000D01*
G01*
G37*
G36*
G01*
X88187500Y-182825000D02*
X88187500Y-181575000D01*
G75*
G02*
X88437500Y-181325000I250000J0D01*
G01*
X89187500Y-181325000D01*
G75*
G02*
X89437500Y-181575000I0J-250000D01*
G01*
X89437500Y-182825000D01*
G75*
G02*
X89187500Y-183075000I-250000J0D01*
G01*
X88437500Y-183075000D01*
G75*
G02*
X88187500Y-182825000I0J250000D01*
G01*
G37*
%TD*%
%TO.C,L1*%
G36*
G01*
X135205000Y-171680500D02*
X135205000Y-171335500D01*
G75*
G02*
X135352500Y-171188000I147500J0D01*
G01*
X135647500Y-171188000D01*
G75*
G02*
X135795000Y-171335500I0J-147500D01*
G01*
X135795000Y-171680500D01*
G75*
G02*
X135647500Y-171828000I-147500J0D01*
G01*
X135352500Y-171828000D01*
G75*
G02*
X135205000Y-171680500I0J147500D01*
G01*
G37*
G36*
G01*
X134235000Y-171680500D02*
X134235000Y-171335500D01*
G75*
G02*
X134382500Y-171188000I147500J0D01*
G01*
X134677500Y-171188000D01*
G75*
G02*
X134825000Y-171335500I0J-147500D01*
G01*
X134825000Y-171680500D01*
G75*
G02*
X134677500Y-171828000I-147500J0D01*
G01*
X134382500Y-171828000D01*
G75*
G02*
X134235000Y-171680500I0J147500D01*
G01*
G37*
%TD*%
%TO.C,L2*%
G36*
G01*
X137905000Y-172018250D02*
X137905000Y-171505750D01*
G75*
G02*
X138123750Y-171287000I218750J0D01*
G01*
X138561250Y-171287000D01*
G75*
G02*
X138780000Y-171505750I0J-218750D01*
G01*
X138780000Y-172018250D01*
G75*
G02*
X138561250Y-172237000I-218750J0D01*
G01*
X138123750Y-172237000D01*
G75*
G02*
X137905000Y-172018250I0J218750D01*
G01*
G37*
G36*
G01*
X136330000Y-172018250D02*
X136330000Y-171505750D01*
G75*
G02*
X136548750Y-171287000I218750J0D01*
G01*
X136986250Y-171287000D01*
G75*
G02*
X137205000Y-171505750I0J-218750D01*
G01*
X137205000Y-172018250D01*
G75*
G02*
X136986250Y-172237000I-218750J0D01*
G01*
X136548750Y-172237000D01*
G75*
G02*
X136330000Y-172018250I0J218750D01*
G01*
G37*
%TD*%
%TO.C,L3*%
G36*
G01*
X137518750Y-180925000D02*
X138031250Y-180925000D01*
G75*
G02*
X138250000Y-181143750I0J-218750D01*
G01*
X138250000Y-181581250D01*
G75*
G02*
X138031250Y-181800000I-218750J0D01*
G01*
X137518750Y-181800000D01*
G75*
G02*
X137300000Y-181581250I0J218750D01*
G01*
X137300000Y-181143750D01*
G75*
G02*
X137518750Y-180925000I218750J0D01*
G01*
G37*
G36*
G01*
X137518750Y-182500000D02*
X138031250Y-182500000D01*
G75*
G02*
X138250000Y-182718750I0J-218750D01*
G01*
X138250000Y-183156250D01*
G75*
G02*
X138031250Y-183375000I-218750J0D01*
G01*
X137518750Y-183375000D01*
G75*
G02*
X137300000Y-183156250I0J218750D01*
G01*
X137300000Y-182718750D01*
G75*
G02*
X137518750Y-182500000I218750J0D01*
G01*
G37*
%TD*%
%TO.C,L4*%
G36*
G01*
X125945000Y-176772500D02*
X125945000Y-176427500D01*
G75*
G02*
X126092500Y-176280000I147500J0D01*
G01*
X126387500Y-176280000D01*
G75*
G02*
X126535000Y-176427500I0J-147500D01*
G01*
X126535000Y-176772500D01*
G75*
G02*
X126387500Y-176920000I-147500J0D01*
G01*
X126092500Y-176920000D01*
G75*
G02*
X125945000Y-176772500I0J147500D01*
G01*
G37*
G36*
G01*
X126915000Y-176772500D02*
X126915000Y-176427500D01*
G75*
G02*
X127062500Y-176280000I147500J0D01*
G01*
X127357500Y-176280000D01*
G75*
G02*
X127505000Y-176427500I0J-147500D01*
G01*
X127505000Y-176772500D01*
G75*
G02*
X127357500Y-176920000I-147500J0D01*
G01*
X127062500Y-176920000D01*
G75*
G02*
X126915000Y-176772500I0J147500D01*
G01*
G37*
%TD*%
%TO.C,R1*%
G36*
G01*
X92987500Y-173475000D02*
X92987500Y-172925000D01*
G75*
G02*
X93187500Y-172725000I200000J0D01*
G01*
X93587500Y-172725000D01*
G75*
G02*
X93787500Y-172925000I0J-200000D01*
G01*
X93787500Y-173475000D01*
G75*
G02*
X93587500Y-173675000I-200000J0D01*
G01*
X93187500Y-173675000D01*
G75*
G02*
X92987500Y-173475000I0J200000D01*
G01*
G37*
G36*
G01*
X94637500Y-173475000D02*
X94637500Y-172925000D01*
G75*
G02*
X94837500Y-172725000I200000J0D01*
G01*
X95237500Y-172725000D01*
G75*
G02*
X95437500Y-172925000I0J-200000D01*
G01*
X95437500Y-173475000D01*
G75*
G02*
X95237500Y-173675000I-200000J0D01*
G01*
X94837500Y-173675000D01*
G75*
G02*
X94637500Y-173475000I0J200000D01*
G01*
G37*
%TD*%
%TO.C,R2*%
G36*
G01*
X94637500Y-174975000D02*
X94637500Y-174425000D01*
G75*
G02*
X94837500Y-174225000I200000J0D01*
G01*
X95237500Y-174225000D01*
G75*
G02*
X95437500Y-174425000I0J-200000D01*
G01*
X95437500Y-174975000D01*
G75*
G02*
X95237500Y-175175000I-200000J0D01*
G01*
X94837500Y-175175000D01*
G75*
G02*
X94637500Y-174975000I0J200000D01*
G01*
G37*
G36*
G01*
X92987500Y-174975000D02*
X92987500Y-174425000D01*
G75*
G02*
X93187500Y-174225000I200000J0D01*
G01*
X93587500Y-174225000D01*
G75*
G02*
X93787500Y-174425000I0J-200000D01*
G01*
X93787500Y-174975000D01*
G75*
G02*
X93587500Y-175175000I-200000J0D01*
G01*
X93187500Y-175175000D01*
G75*
G02*
X92987500Y-174975000I0J200000D01*
G01*
G37*
%TD*%
%TO.C,R3*%
G36*
G01*
X92987500Y-176475000D02*
X92987500Y-175925000D01*
G75*
G02*
X93187500Y-175725000I200000J0D01*
G01*
X93587500Y-175725000D01*
G75*
G02*
X93787500Y-175925000I0J-200000D01*
G01*
X93787500Y-176475000D01*
G75*
G02*
X93587500Y-176675000I-200000J0D01*
G01*
X93187500Y-176675000D01*
G75*
G02*
X92987500Y-176475000I0J200000D01*
G01*
G37*
G36*
G01*
X94637500Y-176475000D02*
X94637500Y-175925000D01*
G75*
G02*
X94837500Y-175725000I200000J0D01*
G01*
X95237500Y-175725000D01*
G75*
G02*
X95437500Y-175925000I0J-200000D01*
G01*
X95437500Y-176475000D01*
G75*
G02*
X95237500Y-176675000I-200000J0D01*
G01*
X94837500Y-176675000D01*
G75*
G02*
X94637500Y-176475000I0J200000D01*
G01*
G37*
%TD*%
%TO.C,R4*%
G36*
G01*
X92987500Y-177975000D02*
X92987500Y-177425000D01*
G75*
G02*
X93187500Y-177225000I200000J0D01*
G01*
X93587500Y-177225000D01*
G75*
G02*
X93787500Y-177425000I0J-200000D01*
G01*
X93787500Y-177975000D01*
G75*
G02*
X93587500Y-178175000I-200000J0D01*
G01*
X93187500Y-178175000D01*
G75*
G02*
X92987500Y-177975000I0J200000D01*
G01*
G37*
G36*
G01*
X94637500Y-177975000D02*
X94637500Y-177425000D01*
G75*
G02*
X94837500Y-177225000I200000J0D01*
G01*
X95237500Y-177225000D01*
G75*
G02*
X95437500Y-177425000I0J-200000D01*
G01*
X95437500Y-177975000D01*
G75*
G02*
X95237500Y-178175000I-200000J0D01*
G01*
X94837500Y-178175000D01*
G75*
G02*
X94637500Y-177975000I0J200000D01*
G01*
G37*
%TD*%
%TO.C,R5*%
G36*
G01*
X94637500Y-179475000D02*
X94637500Y-178925000D01*
G75*
G02*
X94837500Y-178725000I200000J0D01*
G01*
X95237500Y-178725000D01*
G75*
G02*
X95437500Y-178925000I0J-200000D01*
G01*
X95437500Y-179475000D01*
G75*
G02*
X95237500Y-179675000I-200000J0D01*
G01*
X94837500Y-179675000D01*
G75*
G02*
X94637500Y-179475000I0J200000D01*
G01*
G37*
G36*
G01*
X92987500Y-179475000D02*
X92987500Y-178925000D01*
G75*
G02*
X93187500Y-178725000I200000J0D01*
G01*
X93587500Y-178725000D01*
G75*
G02*
X93787500Y-178925000I0J-200000D01*
G01*
X93787500Y-179475000D01*
G75*
G02*
X93587500Y-179675000I-200000J0D01*
G01*
X93187500Y-179675000D01*
G75*
G02*
X92987500Y-179475000I0J200000D01*
G01*
G37*
%TD*%
%TO.C,R6*%
G36*
G01*
X117241250Y-184750000D02*
X116871250Y-184750000D01*
G75*
G02*
X116736250Y-184615000I0J135000D01*
G01*
X116736250Y-184345000D01*
G75*
G02*
X116871250Y-184210000I135000J0D01*
G01*
X117241250Y-184210000D01*
G75*
G02*
X117376250Y-184345000I0J-135000D01*
G01*
X117376250Y-184615000D01*
G75*
G02*
X117241250Y-184750000I-135000J0D01*
G01*
G37*
G36*
G01*
X117241250Y-183730000D02*
X116871250Y-183730000D01*
G75*
G02*
X116736250Y-183595000I0J135000D01*
G01*
X116736250Y-183325000D01*
G75*
G02*
X116871250Y-183190000I135000J0D01*
G01*
X117241250Y-183190000D01*
G75*
G02*
X117376250Y-183325000I0J-135000D01*
G01*
X117376250Y-183595000D01*
G75*
G02*
X117241250Y-183730000I-135000J0D01*
G01*
G37*
%TD*%
%TO.C,SW1*%
X93710000Y-105080000D03*
X107560000Y-102540000D03*
%TD*%
%TO.C,SW2*%
X111490000Y-97460000D03*
X125340000Y-94920000D03*
%TD*%
%TO.C,SW3*%
X144390000Y-94920000D03*
X130540000Y-97460000D03*
%TD*%
%TO.C,SW4*%
X149590000Y-97460000D03*
X163440000Y-94920000D03*
%TD*%
%TO.C,SW5*%
X182490000Y-94920000D03*
X168640000Y-97460000D03*
%TD*%
%TO.C,SW8*%
X216265000Y-97460000D03*
X230115000Y-94920000D03*
%TD*%
%TO.C,SW9*%
X244840000Y-97460000D03*
X258690000Y-94920000D03*
%TD*%
%TO.C,SW10*%
X84185000Y-124130000D03*
X98035000Y-121590000D03*
%TD*%
%TO.C,SW11*%
X101965000Y-116510000D03*
X115815000Y-113970000D03*
%TD*%
%TO.C,SW12*%
X134865000Y-113970000D03*
X121015000Y-116510000D03*
%TD*%
%TO.C,SW13*%
X140065000Y-116510000D03*
X153915000Y-113970000D03*
%TD*%
%TO.C,SW14*%
X172965000Y-113970000D03*
X159115000Y-116510000D03*
%TD*%
%TO.C,SW15*%
X192015000Y-113970000D03*
X178165000Y-116510000D03*
%TD*%
%TO.C,SW16*%
X197215000Y-116510000D03*
X211065000Y-113970000D03*
%TD*%
%TO.C,SW17*%
X221027500Y-116510000D03*
X234877500Y-113970000D03*
%TD*%
%TO.C,SW18*%
X244840000Y-116510000D03*
X258690000Y-113970000D03*
%TD*%
%TO.C,SW19*%
X88947500Y-143180000D03*
X102797500Y-140640000D03*
%TD*%
%TO.C,SW20*%
X106727500Y-135560000D03*
X120577500Y-133020000D03*
%TD*%
%TO.C,SW21*%
X139627500Y-133020000D03*
X125777500Y-135560000D03*
%TD*%
%TO.C,SW22*%
X144827500Y-135560000D03*
X158677500Y-133020000D03*
%TD*%
%TO.C,SW25*%
X213883750Y-135560000D03*
X227733750Y-133020000D03*
%TD*%
%TO.C,SW26*%
X244840000Y-135560000D03*
X258690000Y-133020000D03*
%TD*%
%TO.C,SW27*%
X112322500Y-159690000D03*
X98472500Y-162230000D03*
%TD*%
%TO.C,SW28*%
X130102500Y-152070000D03*
X116252500Y-154610000D03*
%TD*%
%TO.C,SW29*%
X149152500Y-152070000D03*
X135302500Y-154610000D03*
%TD*%
%TO.C,SW30*%
X154352500Y-154610000D03*
X168202500Y-152070000D03*
%TD*%
%TO.C,SW31*%
X173402500Y-154610000D03*
X187252500Y-152070000D03*
%TD*%
%TO.C,SW32*%
X213446250Y-152070000D03*
X199596250Y-154610000D03*
%TD*%
%TO.C,SW33*%
X239640000Y-152070000D03*
X225790000Y-154610000D03*
%TD*%
%TO.C,SW34*%
X244840000Y-154610000D03*
X258690000Y-152070000D03*
%TD*%
%TO.C,SW37*%
X118196250Y-171120000D03*
X104346250Y-173660000D03*
%TD*%
%TO.C,SW38*%
X142446250Y-173660000D03*
X156296250Y-171120000D03*
%TD*%
%TO.C,SW39*%
X177727500Y-171120000D03*
X163877500Y-173660000D03*
%TD*%
%TO.C,SW40*%
X185308750Y-173660000D03*
X199158750Y-171120000D03*
%TD*%
%TO.C,SW41*%
X206740000Y-173660000D03*
X220590000Y-171120000D03*
%TD*%
%TO.C,SW42*%
X239640000Y-171120000D03*
X225790000Y-173660000D03*
%TD*%
%TO.C,SW43*%
X258690000Y-171120000D03*
X244840000Y-173660000D03*
%TD*%
D13*
%TO.C,SW100*%
X218262500Y-155100000D03*
X219862500Y-155100000D03*
X218262500Y-159200000D03*
X219862500Y-159200000D03*
%TD*%
D14*
%TO.C,Y1*%
X140225000Y-176350000D03*
X137725000Y-176350000D03*
%TD*%
D15*
%TO.C,Y2*%
X127910000Y-170800000D03*
X129310000Y-171900000D03*
X129310000Y-170800000D03*
X127910000Y-171900000D03*
%TD*%
M02*
