%TF.GenerationSoftware,KiCad,Pcbnew,(5.1.10)-1*%
%TF.CreationDate,2023-08-12T15:50:22-04:00*%
%TF.ProjectId,niche65_mk2_left_RIGID,6e696368-6536-4355-9f6d-6b325f6c6566,rev?*%
%TF.SameCoordinates,Original*%
%TF.FileFunction,Profile,NP*%
%FSLAX46Y46*%
G04 Gerber Fmt 4.6, Leading zero omitted, Abs format (unit mm)*
G04 Created by KiCad (PCBNEW (5.1.10)-1) date 2023-08-12 15:50:22*
%MOMM*%
%LPD*%
G01*
G04 APERTURE LIST*
%TA.AperFunction,Profile*%
%ADD10C,0.100000*%
%TD*%
G04 APERTURE END LIST*
D10*
X194662500Y-162230000D02*
G75*
G03*
X194662500Y-162230000I-1000000J0D01*
G01*
X207362500Y-162230000D02*
G75*
G03*
X207362500Y-162230000I-1000000J0D01*
G01*
X90474992Y-92474992D02*
G75*
G02*
X92474992Y-90474992I2000000J0D01*
G01*
X92474992Y-186360000D02*
G75*
G02*
X90474992Y-184360000I0J2000000D01*
G01*
X217037500Y-184360000D02*
G75*
G02*
X215037500Y-186360000I-2000000J0D01*
G01*
X226562500Y-162650000D02*
G75*
G02*
X224562500Y-164650000I-2000000J0D01*
G01*
X224562500Y-149650000D02*
G75*
G02*
X226562500Y-151650000I0J-2000000D01*
G01*
X215037500Y-130600000D02*
G75*
G02*
X217037500Y-132600000I0J-2000000D01*
G01*
X221800000Y-105500000D02*
G75*
G02*
X219800000Y-107500000I-2000000J0D01*
G01*
X219800000Y-90474992D02*
G75*
G02*
X221800000Y-92474992I0J-2000000D01*
G01*
X212275000Y-107750000D02*
G75*
G02*
X212525000Y-107500000I0J250000D01*
G01*
X212525000Y-130600000D02*
G75*
G02*
X212275000Y-130350000I-250000J0D01*
G01*
X217287500Y-149650000D02*
G75*
G02*
X217037500Y-149400000I-250000J0D01*
G01*
X217037500Y-164900000D02*
G75*
G02*
X217287500Y-164650000I0J250000D01*
G01*
X217037500Y-184360000D02*
X217037500Y-164900000D01*
X224562500Y-164650000D02*
X217287500Y-164650000D01*
X226562500Y-151650000D02*
X226562500Y-162650000D01*
X217287500Y-149650000D02*
X224562500Y-149650000D01*
X217037500Y-145600000D02*
X217037500Y-149400000D01*
X217037500Y-132600000D02*
X217037500Y-145600000D01*
X212525000Y-130600000D02*
X215037500Y-130600000D01*
X212275000Y-107750000D02*
X212275000Y-130350000D01*
X219800000Y-107500000D02*
X212525000Y-107500000D01*
X221800000Y-105500000D02*
X221800000Y-92474992D01*
X92474992Y-186360000D02*
X215037500Y-186360000D01*
X90474992Y-92474992D02*
X90474992Y-184360000D01*
X219800000Y-90474992D02*
X92474992Y-90474992D01*
M02*
