M48
; DRILL file {KiCad (5.1.10)-1} date 08/12/23 15:50:24
; FORMAT={-:-/ absolute / inch / decimal}
; #@! TF.CreationDate,2023-08-12T15:50:24-04:00
; #@! TF.GenerationSoftware,Kicad,Pcbnew,(5.1.10)-1
; #@! TF.FileFunction,Plated,1,2,PTH
FMAT,2
INCH
T1C0.0098
T2C0.0118
T3C0.0197
T4C0.0394
%
G90
G05
T1
X6.9094Y-6.7378
X6.9094Y-6.8363
X6.9291Y-6.7477
X6.9291Y-6.7674
X6.9291Y-6.787
X6.9291Y-6.8264
X6.998Y-6.6985
X6.998Y-6.915
X7.0177Y-6.915
X7.0374Y-6.6985
X7.0374Y-6.915
X7.0571Y-6.915
X7.0768Y-6.915
X7.0965Y-6.915
X7.1358Y-6.6985
X7.1457Y-6.7477
X7.1457Y-6.7674
X7.1457Y-6.787
T2
X3.7992Y-7.0551
X4.2183Y-4.0308
X4.4058Y-4.7808
X4.4175Y-6.937
X4.4526Y-6.733
X4.5696Y-5.0384
X4.6167Y-5.5308
X4.6169Y-5.0384
X4.8979Y-6.2808
X4.9917Y-6.5386
X4.9917Y-4.0308
X5.0256Y-6.8839
X5.0298Y-6.5167
X5.0612Y-6.4969
X5.0861Y-6.4781
X5.1122Y-6.7319
X5.239Y-6.6759
X5.2451Y-6.792
X5.2495Y-6.9453
X5.3081Y-6.9487
X5.3667Y-6.9956
X5.3667Y-4.7808
X5.5542Y-5.5308
X5.7417Y-4.0308
X5.8036Y-6.8091
X5.9292Y-6.2808
X5.9292Y-7.0308
X5.9454Y-6.8051
X6.0768Y-7.2359
X6.1083Y-7.1492
X6.1167Y-4.7808
X6.1791Y-6.6768
X6.1988Y-7.0587
X6.2237Y-7.078
X6.3042Y-5.5308
X6.4917Y-4.0308
X6.5386Y-7.0308
X6.5679Y-6.8491
X6.5925Y-6.8658
X6.5965Y-6.8973
X6.6476Y-6.5666
X6.6792Y-6.2808
X6.7768Y-6.913
X6.7889Y-6.8141
X6.8504Y-6.7142
X6.8593Y-6.7408
X6.8612Y-6.9642
X6.8667Y-4.7808
X6.8676Y-6.8574
X6.9269Y-6.9867
X6.9532Y-6.6595
X6.9606Y-7.0823
X6.9741Y-6.6595
X6.9918Y-6.5323
X6.9978Y-7.0448
X7.0202Y-6.5827
X7.028Y-7.0799
X7.0542Y-7.1245
X7.0542Y-7.1714
X7.0542Y-7.2065
X7.0542Y-5.5308
X7.101Y-6.974
X7.1127Y-7.1244
X7.1611Y-6.5335
X7.1875Y-6.6811
X7.2126Y-6.7614
X7.217Y-6.5335
X7.217Y-6.6842
X7.2417Y-4.0308
X7.2425Y-6.8937
X7.315Y-6.7614
X7.3844Y-6.7894
X7.4139Y-6.8189
X7.4292Y-6.2808
X7.4631Y-6.7402
X7.4845Y-6.567
X7.5145Y-6.567
X7.5445Y-6.567
X7.5689Y-6.7477
X7.6167Y-4.7808
X7.8042Y-5.5308
X7.8245Y-6.467
X7.9245Y-6.467
X7.9917Y-4.0308
X8.0245Y-6.467
X8.1323Y-4.7808
X8.1792Y-6.2808
X8.2308Y-6.878
X8.2308Y-6.937
X8.2308Y-6.8189
X8.2308Y-6.9961
X8.2308Y-7.0551
X8.3198Y-5.5308
X8.5073Y-4.0308
X8.6948Y-6.2808
T3
X3.8433Y-6.187
X3.8851Y-5.5374
X3.937Y-3.7495
X3.937Y-4.1245
X3.937Y-6.7495
X4.0308Y-5.2495
X4.0308Y-7.1245
X4.1245Y-4.4995
X4.1245Y-4.8745
X4.2183Y-5.6245
X4.2183Y-6.8465
X4.3504Y-6.9213
X4.4058Y-5.9995
X4.4058Y-6.3745
X4.5224Y-5.038
X4.6641Y-5.038
X4.687Y-3.7495
X4.687Y-4.1245
X4.7808Y-6.7495
X4.8745Y-7.1245
X5.062Y-4.4995
X5.062Y-4.8745
X5.2355Y-6.8858
X5.2495Y-5.2495
X5.2495Y-5.6245
X5.437Y-3.7495
X5.437Y-4.1245
X5.6245Y-5.9995
X5.6245Y-6.3745
X5.6245Y-6.7495
X5.6245Y-7.1245
X5.812Y-4.4995
X5.812Y-4.8745
X5.8627Y-7.0768
X5.9941Y-6.7792
X5.9995Y-5.2495
X5.9995Y-5.6245
X6.0438Y-7.1516
X6.1462Y-6.9587
X6.187Y-3.7495
X6.187Y-4.1245
X6.2036Y-6.7122
X6.3469Y-6.9587
X6.3745Y-5.9995
X6.3745Y-6.3745
X6.4218Y-6.7028
X6.4683Y-7.1245
X6.562Y-4.4995
X6.562Y-4.8745
X6.7495Y-5.2495
X6.7495Y-5.6245
X6.7697Y-6.6453
X6.7709Y-6.5413
X6.8012Y-6.9642
X6.937Y-3.7495
X6.937Y-4.1245
X6.9823Y-6.9878
X6.998Y-6.7674
X6.998Y-6.8067
X6.998Y-6.8461
X7.0374Y-6.7674
X7.0374Y-6.8067
X7.0374Y-6.8461
X7.0768Y-6.7674
X7.0768Y-6.8067
X7.0768Y-6.8461
X7.1166Y-6.5984
X7.1245Y-5.9995
X7.1245Y-6.3745
X7.3012Y-6.9524
X7.312Y-4.4995
X7.312Y-4.8745
X7.4995Y-5.2495
X7.4995Y-5.6245
X7.578Y-7.2579
X7.687Y-3.7495
X7.687Y-4.1245
X7.7808Y-6.7495
X7.8745Y-5.9995
X8.062Y-4.4995
X8.062Y-4.8745
X8.1558Y-7.1245
X8.2495Y-5.2495
X8.2495Y-5.6245
X8.2971Y-4.586
X8.437Y-3.7495
X8.437Y-4.1245
X8.4846Y-5.336
X8.6245Y-5.9995
X8.6245Y-6.3745
X8.6721Y-3.836
X8.8596Y-6.086
T4
X3.637Y-7.262
X3.737Y-7.262
X3.837Y-7.262
X3.937Y-7.262
X4.037Y-7.262
X4.137Y-7.262
X4.237Y-7.262
X4.337Y-7.262
X4.437Y-7.262
X4.537Y-7.262
T0
M30
