%TF.GenerationSoftware,KiCad,Pcbnew,(5.1.10)-1*%
%TF.CreationDate,2023-08-12T15:50:22-04:00*%
%TF.ProjectId,niche65_mk2_left_RIGID,6e696368-6536-4355-9f6d-6b325f6c6566,rev?*%
%TF.SameCoordinates,Original*%
%TF.FileFunction,Legend,Top*%
%TF.FilePolarity,Positive*%
%FSLAX46Y46*%
G04 Gerber Fmt 4.6, Leading zero omitted, Abs format (unit mm)*
G04 Created by KiCad (PCBNEW (5.1.10)-1) date 2023-08-12 15:50:22*
%MOMM*%
%LPD*%
G01*
G04 APERTURE LIST*
%ADD10C,0.010000*%
G04 APERTURE END LIST*
D10*
%TO.C,G\u002A\u002A\u002A*%
G36*
X192822505Y-180194730D02*
G01*
X192884531Y-180199285D01*
X192937095Y-180206591D01*
X192984401Y-180216479D01*
X193055139Y-180237375D01*
X193138782Y-180268058D01*
X193225859Y-180304400D01*
X193306904Y-180342273D01*
X193372447Y-180377549D01*
X193406772Y-180400647D01*
X193424042Y-180417315D01*
X193425995Y-180434326D01*
X193410414Y-180460930D01*
X193384182Y-180494894D01*
X193352565Y-180533625D01*
X193330460Y-180558488D01*
X193324521Y-180563467D01*
X193310513Y-180552630D01*
X193280982Y-180525106D01*
X193262443Y-180506906D01*
X193187505Y-180451775D01*
X193084129Y-180405184D01*
X192956934Y-180368312D01*
X192810540Y-180342343D01*
X192649567Y-180328458D01*
X192556809Y-180326400D01*
X192377346Y-180333030D01*
X192226209Y-180353465D01*
X192100448Y-180388523D01*
X191997111Y-180439023D01*
X191914550Y-180504484D01*
X191872873Y-180549217D01*
X191851202Y-180585053D01*
X191843338Y-180624546D01*
X191842647Y-180650139D01*
X191855162Y-180730971D01*
X191894519Y-180802015D01*
X191963658Y-180867842D01*
X191998623Y-180892620D01*
X192051730Y-180925561D01*
X192109324Y-180956054D01*
X192175879Y-180985771D01*
X192255868Y-181016386D01*
X192353765Y-181049570D01*
X192474044Y-181086997D01*
X192621178Y-181130338D01*
X192678822Y-181146920D01*
X192877582Y-181206366D01*
X193045147Y-181262561D01*
X193183843Y-181317101D01*
X193295992Y-181371580D01*
X193383918Y-181427594D01*
X193449946Y-181486737D01*
X193496399Y-181550604D01*
X193525601Y-181620791D01*
X193539877Y-181698891D01*
X193542104Y-181739366D01*
X193528766Y-181860256D01*
X193483981Y-181970030D01*
X193408587Y-182067809D01*
X193303420Y-182152711D01*
X193169315Y-182223857D01*
X193035956Y-182272032D01*
X192987630Y-182283585D01*
X192918946Y-182296234D01*
X192837738Y-182308962D01*
X192751842Y-182320754D01*
X192669092Y-182330596D01*
X192597322Y-182337471D01*
X192544369Y-182340364D01*
X192519917Y-182338912D01*
X192500487Y-182336684D01*
X192454914Y-182332498D01*
X192390816Y-182327033D01*
X192342117Y-182323059D01*
X192249458Y-182312920D01*
X192150474Y-182297777D01*
X192062361Y-182280378D01*
X192038231Y-182274513D01*
X191960484Y-182250482D01*
X191870535Y-182216771D01*
X191778146Y-182177645D01*
X191693078Y-182137369D01*
X191625095Y-182100208D01*
X191597722Y-182082049D01*
X191580457Y-182066899D01*
X191577398Y-182051131D01*
X191590983Y-182026602D01*
X191623648Y-181985170D01*
X191628469Y-181979281D01*
X191692411Y-181901249D01*
X191732259Y-181948605D01*
X191785906Y-181994761D01*
X191866747Y-182041082D01*
X191968271Y-182084402D01*
X192083970Y-182121558D01*
X192093081Y-182124019D01*
X192186875Y-182142881D01*
X192303584Y-182157059D01*
X192433678Y-182166254D01*
X192567632Y-182170168D01*
X192695919Y-182168501D01*
X192809010Y-182160956D01*
X192889542Y-182148974D01*
X193025530Y-182110749D01*
X193145100Y-182058582D01*
X193243387Y-181995336D01*
X193315530Y-181923873D01*
X193342049Y-181882594D01*
X193363047Y-181811118D01*
X193363299Y-181729644D01*
X193343387Y-181654478D01*
X193333214Y-181635012D01*
X193301953Y-181592400D01*
X193260550Y-181552937D01*
X193205887Y-181515212D01*
X193134844Y-181477815D01*
X193044304Y-181439335D01*
X192931149Y-181398360D01*
X192792260Y-181353480D01*
X192624518Y-181303283D01*
X192556920Y-181283769D01*
X192390476Y-181234650D01*
X192252367Y-181190438D01*
X192137751Y-181149230D01*
X192041787Y-181109124D01*
X191959635Y-181068217D01*
X191886453Y-181024607D01*
X191870284Y-181013929D01*
X191770206Y-180932557D01*
X191702900Y-180844411D01*
X191667704Y-180748109D01*
X191663956Y-180642270D01*
X191670874Y-180598119D01*
X191707322Y-180496251D01*
X191772620Y-180407760D01*
X191867786Y-180331702D01*
X191993839Y-180267131D01*
X192051705Y-180244818D01*
X192095633Y-180229959D01*
X192136715Y-180218758D01*
X192181017Y-180210565D01*
X192234604Y-180204730D01*
X192303543Y-180200602D01*
X192393899Y-180197530D01*
X192511740Y-180194863D01*
X192518734Y-180194723D01*
X192645697Y-180192734D01*
X192744924Y-180192641D01*
X192822505Y-180194730D01*
G37*
X192822505Y-180194730D02*
X192884531Y-180199285D01*
X192937095Y-180206591D01*
X192984401Y-180216479D01*
X193055139Y-180237375D01*
X193138782Y-180268058D01*
X193225859Y-180304400D01*
X193306904Y-180342273D01*
X193372447Y-180377549D01*
X193406772Y-180400647D01*
X193424042Y-180417315D01*
X193425995Y-180434326D01*
X193410414Y-180460930D01*
X193384182Y-180494894D01*
X193352565Y-180533625D01*
X193330460Y-180558488D01*
X193324521Y-180563467D01*
X193310513Y-180552630D01*
X193280982Y-180525106D01*
X193262443Y-180506906D01*
X193187505Y-180451775D01*
X193084129Y-180405184D01*
X192956934Y-180368312D01*
X192810540Y-180342343D01*
X192649567Y-180328458D01*
X192556809Y-180326400D01*
X192377346Y-180333030D01*
X192226209Y-180353465D01*
X192100448Y-180388523D01*
X191997111Y-180439023D01*
X191914550Y-180504484D01*
X191872873Y-180549217D01*
X191851202Y-180585053D01*
X191843338Y-180624546D01*
X191842647Y-180650139D01*
X191855162Y-180730971D01*
X191894519Y-180802015D01*
X191963658Y-180867842D01*
X191998623Y-180892620D01*
X192051730Y-180925561D01*
X192109324Y-180956054D01*
X192175879Y-180985771D01*
X192255868Y-181016386D01*
X192353765Y-181049570D01*
X192474044Y-181086997D01*
X192621178Y-181130338D01*
X192678822Y-181146920D01*
X192877582Y-181206366D01*
X193045147Y-181262561D01*
X193183843Y-181317101D01*
X193295992Y-181371580D01*
X193383918Y-181427594D01*
X193449946Y-181486737D01*
X193496399Y-181550604D01*
X193525601Y-181620791D01*
X193539877Y-181698891D01*
X193542104Y-181739366D01*
X193528766Y-181860256D01*
X193483981Y-181970030D01*
X193408587Y-182067809D01*
X193303420Y-182152711D01*
X193169315Y-182223857D01*
X193035956Y-182272032D01*
X192987630Y-182283585D01*
X192918946Y-182296234D01*
X192837738Y-182308962D01*
X192751842Y-182320754D01*
X192669092Y-182330596D01*
X192597322Y-182337471D01*
X192544369Y-182340364D01*
X192519917Y-182338912D01*
X192500487Y-182336684D01*
X192454914Y-182332498D01*
X192390816Y-182327033D01*
X192342117Y-182323059D01*
X192249458Y-182312920D01*
X192150474Y-182297777D01*
X192062361Y-182280378D01*
X192038231Y-182274513D01*
X191960484Y-182250482D01*
X191870535Y-182216771D01*
X191778146Y-182177645D01*
X191693078Y-182137369D01*
X191625095Y-182100208D01*
X191597722Y-182082049D01*
X191580457Y-182066899D01*
X191577398Y-182051131D01*
X191590983Y-182026602D01*
X191623648Y-181985170D01*
X191628469Y-181979281D01*
X191692411Y-181901249D01*
X191732259Y-181948605D01*
X191785906Y-181994761D01*
X191866747Y-182041082D01*
X191968271Y-182084402D01*
X192083970Y-182121558D01*
X192093081Y-182124019D01*
X192186875Y-182142881D01*
X192303584Y-182157059D01*
X192433678Y-182166254D01*
X192567632Y-182170168D01*
X192695919Y-182168501D01*
X192809010Y-182160956D01*
X192889542Y-182148974D01*
X193025530Y-182110749D01*
X193145100Y-182058582D01*
X193243387Y-181995336D01*
X193315530Y-181923873D01*
X193342049Y-181882594D01*
X193363047Y-181811118D01*
X193363299Y-181729644D01*
X193343387Y-181654478D01*
X193333214Y-181635012D01*
X193301953Y-181592400D01*
X193260550Y-181552937D01*
X193205887Y-181515212D01*
X193134844Y-181477815D01*
X193044304Y-181439335D01*
X192931149Y-181398360D01*
X192792260Y-181353480D01*
X192624518Y-181303283D01*
X192556920Y-181283769D01*
X192390476Y-181234650D01*
X192252367Y-181190438D01*
X192137751Y-181149230D01*
X192041787Y-181109124D01*
X191959635Y-181068217D01*
X191886453Y-181024607D01*
X191870284Y-181013929D01*
X191770206Y-180932557D01*
X191702900Y-180844411D01*
X191667704Y-180748109D01*
X191663956Y-180642270D01*
X191670874Y-180598119D01*
X191707322Y-180496251D01*
X191772620Y-180407760D01*
X191867786Y-180331702D01*
X191993839Y-180267131D01*
X192051705Y-180244818D01*
X192095633Y-180229959D01*
X192136715Y-180218758D01*
X192181017Y-180210565D01*
X192234604Y-180204730D01*
X192303543Y-180200602D01*
X192393899Y-180197530D01*
X192511740Y-180194863D01*
X192518734Y-180194723D01*
X192645697Y-180192734D01*
X192744924Y-180192641D01*
X192822505Y-180194730D01*
G36*
X195413854Y-180204600D02*
G01*
X195541947Y-180220417D01*
X195657465Y-180249513D01*
X195770480Y-180294154D01*
X195842715Y-180330102D01*
X195895821Y-180359621D01*
X195921427Y-180382657D01*
X195921040Y-180408055D01*
X195896169Y-180444663D01*
X195867966Y-180478217D01*
X195820882Y-180533429D01*
X195780729Y-180490103D01*
X195725591Y-180445907D01*
X195647597Y-180409606D01*
X195542305Y-180379354D01*
X195485994Y-180367446D01*
X195301701Y-180345784D01*
X195125438Y-180352524D01*
X194960136Y-180386198D01*
X194808727Y-180445340D01*
X194674143Y-180528480D01*
X194559315Y-180634152D01*
X194467174Y-180760888D01*
X194400654Y-180907221D01*
X194399234Y-180911450D01*
X194386120Y-180958477D01*
X194372457Y-181019707D01*
X194359578Y-181087101D01*
X194348818Y-181152617D01*
X194341510Y-181208214D01*
X194338988Y-181245852D01*
X194341785Y-181257734D01*
X194356466Y-181249040D01*
X194391386Y-181226319D01*
X194435915Y-181196554D01*
X194608344Y-181100251D01*
X194797696Y-181031784D01*
X195000047Y-180992296D01*
X195169983Y-180982341D01*
X195346536Y-180994523D01*
X195507632Y-181029703D01*
X195650988Y-181085943D01*
X195774324Y-181161307D01*
X195875358Y-181253858D01*
X195951809Y-181361660D01*
X196001396Y-181482776D01*
X196021838Y-181615270D01*
X196018812Y-181702879D01*
X195988719Y-181835481D01*
X195929305Y-181956389D01*
X195843649Y-182063769D01*
X195734831Y-182155787D01*
X195605929Y-182230610D01*
X195460022Y-182286404D01*
X195300189Y-182321335D01*
X195129509Y-182333569D01*
X194975250Y-182324402D01*
X194791099Y-182288252D01*
X194629198Y-182226907D01*
X194490080Y-182140832D01*
X194374276Y-182030492D01*
X194282318Y-181896350D01*
X194214741Y-181738873D01*
X194186736Y-181636174D01*
X194173975Y-181567922D01*
X194166631Y-181497396D01*
X194165233Y-181450213D01*
X194344542Y-181450213D01*
X194355089Y-181552940D01*
X194382160Y-181673267D01*
X194435951Y-181794217D01*
X194511216Y-181905236D01*
X194553552Y-181952023D01*
X194614536Y-182003349D01*
X194692838Y-182055797D01*
X194777810Y-182103395D01*
X194858802Y-182140170D01*
X194924450Y-182160025D01*
X194994583Y-182167440D01*
X195084126Y-182169952D01*
X195180974Y-182167919D01*
X195273021Y-182161702D01*
X195348161Y-182151658D01*
X195370142Y-182146814D01*
X195497309Y-182103646D01*
X195604469Y-182043392D01*
X195681094Y-181981192D01*
X195752322Y-181906506D01*
X195797770Y-181833206D01*
X195822113Y-181750504D01*
X195830025Y-181647614D01*
X195830090Y-181637406D01*
X195828898Y-181565033D01*
X195823073Y-181514335D01*
X195809800Y-181473167D01*
X195786267Y-181429388D01*
X195779221Y-181417857D01*
X195701499Y-181320598D01*
X195600520Y-181243883D01*
X195474529Y-181186756D01*
X195321772Y-181148264D01*
X195268634Y-181139956D01*
X195104887Y-181132883D01*
X194933891Y-181153099D01*
X194764068Y-181198138D01*
X194603841Y-181265536D01*
X194461634Y-181352826D01*
X194415136Y-181389787D01*
X194344542Y-181450213D01*
X194165233Y-181450213D01*
X194164189Y-181415026D01*
X194166133Y-181311244D01*
X194167393Y-181277049D01*
X194180787Y-181097952D01*
X194207099Y-180944973D01*
X194248643Y-180812065D01*
X194307728Y-180693184D01*
X194386668Y-180582285D01*
X194466789Y-180494118D01*
X194581385Y-180391648D01*
X194700471Y-180313369D01*
X194829657Y-180257207D01*
X194974553Y-180221089D01*
X195140769Y-180202941D01*
X195263117Y-180199800D01*
X195413854Y-180204600D01*
G37*
X195413854Y-180204600D02*
X195541947Y-180220417D01*
X195657465Y-180249513D01*
X195770480Y-180294154D01*
X195842715Y-180330102D01*
X195895821Y-180359621D01*
X195921427Y-180382657D01*
X195921040Y-180408055D01*
X195896169Y-180444663D01*
X195867966Y-180478217D01*
X195820882Y-180533429D01*
X195780729Y-180490103D01*
X195725591Y-180445907D01*
X195647597Y-180409606D01*
X195542305Y-180379354D01*
X195485994Y-180367446D01*
X195301701Y-180345784D01*
X195125438Y-180352524D01*
X194960136Y-180386198D01*
X194808727Y-180445340D01*
X194674143Y-180528480D01*
X194559315Y-180634152D01*
X194467174Y-180760888D01*
X194400654Y-180907221D01*
X194399234Y-180911450D01*
X194386120Y-180958477D01*
X194372457Y-181019707D01*
X194359578Y-181087101D01*
X194348818Y-181152617D01*
X194341510Y-181208214D01*
X194338988Y-181245852D01*
X194341785Y-181257734D01*
X194356466Y-181249040D01*
X194391386Y-181226319D01*
X194435915Y-181196554D01*
X194608344Y-181100251D01*
X194797696Y-181031784D01*
X195000047Y-180992296D01*
X195169983Y-180982341D01*
X195346536Y-180994523D01*
X195507632Y-181029703D01*
X195650988Y-181085943D01*
X195774324Y-181161307D01*
X195875358Y-181253858D01*
X195951809Y-181361660D01*
X196001396Y-181482776D01*
X196021838Y-181615270D01*
X196018812Y-181702879D01*
X195988719Y-181835481D01*
X195929305Y-181956389D01*
X195843649Y-182063769D01*
X195734831Y-182155787D01*
X195605929Y-182230610D01*
X195460022Y-182286404D01*
X195300189Y-182321335D01*
X195129509Y-182333569D01*
X194975250Y-182324402D01*
X194791099Y-182288252D01*
X194629198Y-182226907D01*
X194490080Y-182140832D01*
X194374276Y-182030492D01*
X194282318Y-181896350D01*
X194214741Y-181738873D01*
X194186736Y-181636174D01*
X194173975Y-181567922D01*
X194166631Y-181497396D01*
X194165233Y-181450213D01*
X194344542Y-181450213D01*
X194355089Y-181552940D01*
X194382160Y-181673267D01*
X194435951Y-181794217D01*
X194511216Y-181905236D01*
X194553552Y-181952023D01*
X194614536Y-182003349D01*
X194692838Y-182055797D01*
X194777810Y-182103395D01*
X194858802Y-182140170D01*
X194924450Y-182160025D01*
X194994583Y-182167440D01*
X195084126Y-182169952D01*
X195180974Y-182167919D01*
X195273021Y-182161702D01*
X195348161Y-182151658D01*
X195370142Y-182146814D01*
X195497309Y-182103646D01*
X195604469Y-182043392D01*
X195681094Y-181981192D01*
X195752322Y-181906506D01*
X195797770Y-181833206D01*
X195822113Y-181750504D01*
X195830025Y-181647614D01*
X195830090Y-181637406D01*
X195828898Y-181565033D01*
X195823073Y-181514335D01*
X195809800Y-181473167D01*
X195786267Y-181429388D01*
X195779221Y-181417857D01*
X195701499Y-181320598D01*
X195600520Y-181243883D01*
X195474529Y-181186756D01*
X195321772Y-181148264D01*
X195268634Y-181139956D01*
X195104887Y-181132883D01*
X194933891Y-181153099D01*
X194764068Y-181198138D01*
X194603841Y-181265536D01*
X194461634Y-181352826D01*
X194415136Y-181389787D01*
X194344542Y-181450213D01*
X194165233Y-181450213D01*
X194164189Y-181415026D01*
X194166133Y-181311244D01*
X194167393Y-181277049D01*
X194180787Y-181097952D01*
X194207099Y-180944973D01*
X194248643Y-180812065D01*
X194307728Y-180693184D01*
X194386668Y-180582285D01*
X194466789Y-180494118D01*
X194581385Y-180391648D01*
X194700471Y-180313369D01*
X194829657Y-180257207D01*
X194974553Y-180221089D01*
X195140769Y-180202941D01*
X195263117Y-180199800D01*
X195413854Y-180204600D01*
G36*
X198480450Y-180360267D02*
G01*
X197059585Y-180360267D01*
X197050711Y-180415300D01*
X197044525Y-180461430D01*
X197037085Y-180528874D01*
X197028905Y-180611480D01*
X197020497Y-180703099D01*
X197012374Y-180797580D01*
X197005049Y-180888773D01*
X196999033Y-180970526D01*
X196994841Y-181036690D01*
X196992985Y-181081115D01*
X196993840Y-181097567D01*
X197013033Y-181096789D01*
X197051159Y-181084933D01*
X197066541Y-181078832D01*
X197185882Y-181039722D01*
X197328422Y-181010249D01*
X197484699Y-180991096D01*
X197645251Y-180982951D01*
X197800613Y-180986500D01*
X197941323Y-181002426D01*
X197989384Y-181011958D01*
X198152269Y-181061153D01*
X198292712Y-181128718D01*
X198407182Y-181212812D01*
X198443164Y-181248749D01*
X198512552Y-181337981D01*
X198557820Y-181431120D01*
X198582185Y-181537197D01*
X198588898Y-181658016D01*
X198586898Y-181734274D01*
X198579184Y-181791456D01*
X198562512Y-181844262D01*
X198533985Y-181906679D01*
X198455777Y-182027805D01*
X198350464Y-182129445D01*
X198218948Y-182211151D01*
X198062132Y-182272473D01*
X197880919Y-182312963D01*
X197677238Y-182332132D01*
X197585626Y-182333734D01*
X197492112Y-182332013D01*
X197410462Y-182327365D01*
X197373308Y-182323393D01*
X197255305Y-182300502D01*
X197132173Y-182265187D01*
X197011339Y-182220574D01*
X196900230Y-182169791D01*
X196806271Y-182115964D01*
X196736889Y-182062221D01*
X196725632Y-182050688D01*
X196689630Y-182011267D01*
X196772240Y-181947509D01*
X196820842Y-181913405D01*
X196848683Y-181901780D01*
X196854850Y-181907904D01*
X196870242Y-181942363D01*
X196912664Y-181982520D01*
X196976485Y-182025114D01*
X197056076Y-182066884D01*
X197145805Y-182104572D01*
X197240043Y-182134916D01*
X197252603Y-182138221D01*
X197426529Y-182172129D01*
X197594333Y-182184713D01*
X197753442Y-182177402D01*
X197901285Y-182151628D01*
X198035288Y-182108819D01*
X198152881Y-182050405D01*
X198251491Y-181977817D01*
X198328547Y-181892483D01*
X198381475Y-181795834D01*
X198407704Y-181689299D01*
X198404662Y-181574309D01*
X198389118Y-181506435D01*
X198340059Y-181400343D01*
X198262433Y-181311205D01*
X198157278Y-181239528D01*
X198025632Y-181185819D01*
X197868533Y-181150587D01*
X197687018Y-181134336D01*
X197625317Y-181133231D01*
X197471400Y-181138237D01*
X197338708Y-181155584D01*
X197216111Y-181187602D01*
X197092480Y-181236621D01*
X197060885Y-181251431D01*
X196987686Y-181283994D01*
X196934770Y-181300423D01*
X196893995Y-181302997D01*
X196882617Y-181301352D01*
X196856343Y-181296408D01*
X196835598Y-181290450D01*
X196820134Y-181279945D01*
X196809703Y-181261362D01*
X196804054Y-181231169D01*
X196802940Y-181185834D01*
X196806112Y-181121824D01*
X196813321Y-181035607D01*
X196824317Y-180923651D01*
X196838853Y-180782425D01*
X196843140Y-180740879D01*
X196897184Y-180216334D01*
X198480450Y-180207532D01*
X198480450Y-180360267D01*
G37*
X198480450Y-180360267D02*
X197059585Y-180360267D01*
X197050711Y-180415300D01*
X197044525Y-180461430D01*
X197037085Y-180528874D01*
X197028905Y-180611480D01*
X197020497Y-180703099D01*
X197012374Y-180797580D01*
X197005049Y-180888773D01*
X196999033Y-180970526D01*
X196994841Y-181036690D01*
X196992985Y-181081115D01*
X196993840Y-181097567D01*
X197013033Y-181096789D01*
X197051159Y-181084933D01*
X197066541Y-181078832D01*
X197185882Y-181039722D01*
X197328422Y-181010249D01*
X197484699Y-180991096D01*
X197645251Y-180982951D01*
X197800613Y-180986500D01*
X197941323Y-181002426D01*
X197989384Y-181011958D01*
X198152269Y-181061153D01*
X198292712Y-181128718D01*
X198407182Y-181212812D01*
X198443164Y-181248749D01*
X198512552Y-181337981D01*
X198557820Y-181431120D01*
X198582185Y-181537197D01*
X198588898Y-181658016D01*
X198586898Y-181734274D01*
X198579184Y-181791456D01*
X198562512Y-181844262D01*
X198533985Y-181906679D01*
X198455777Y-182027805D01*
X198350464Y-182129445D01*
X198218948Y-182211151D01*
X198062132Y-182272473D01*
X197880919Y-182312963D01*
X197677238Y-182332132D01*
X197585626Y-182333734D01*
X197492112Y-182332013D01*
X197410462Y-182327365D01*
X197373308Y-182323393D01*
X197255305Y-182300502D01*
X197132173Y-182265187D01*
X197011339Y-182220574D01*
X196900230Y-182169791D01*
X196806271Y-182115964D01*
X196736889Y-182062221D01*
X196725632Y-182050688D01*
X196689630Y-182011267D01*
X196772240Y-181947509D01*
X196820842Y-181913405D01*
X196848683Y-181901780D01*
X196854850Y-181907904D01*
X196870242Y-181942363D01*
X196912664Y-181982520D01*
X196976485Y-182025114D01*
X197056076Y-182066884D01*
X197145805Y-182104572D01*
X197240043Y-182134916D01*
X197252603Y-182138221D01*
X197426529Y-182172129D01*
X197594333Y-182184713D01*
X197753442Y-182177402D01*
X197901285Y-182151628D01*
X198035288Y-182108819D01*
X198152881Y-182050405D01*
X198251491Y-181977817D01*
X198328547Y-181892483D01*
X198381475Y-181795834D01*
X198407704Y-181689299D01*
X198404662Y-181574309D01*
X198389118Y-181506435D01*
X198340059Y-181400343D01*
X198262433Y-181311205D01*
X198157278Y-181239528D01*
X198025632Y-181185819D01*
X197868533Y-181150587D01*
X197687018Y-181134336D01*
X197625317Y-181133231D01*
X197471400Y-181138237D01*
X197338708Y-181155584D01*
X197216111Y-181187602D01*
X197092480Y-181236621D01*
X197060885Y-181251431D01*
X196987686Y-181283994D01*
X196934770Y-181300423D01*
X196893995Y-181302997D01*
X196882617Y-181301352D01*
X196856343Y-181296408D01*
X196835598Y-181290450D01*
X196820134Y-181279945D01*
X196809703Y-181261362D01*
X196804054Y-181231169D01*
X196802940Y-181185834D01*
X196806112Y-181121824D01*
X196813321Y-181035607D01*
X196824317Y-180923651D01*
X196838853Y-180782425D01*
X196843140Y-180740879D01*
X196897184Y-180216334D01*
X198480450Y-180207532D01*
X198480450Y-180360267D01*
G36*
X199402300Y-180191912D02*
G01*
X199431351Y-180196284D01*
X199439474Y-180206202D01*
X199434762Y-180220567D01*
X199432064Y-180242617D01*
X199429529Y-180295377D01*
X199427204Y-180375689D01*
X199425136Y-180480397D01*
X199423370Y-180606343D01*
X199421955Y-180750372D01*
X199420937Y-180909325D01*
X199420363Y-181080046D01*
X199420250Y-181198467D01*
X199420250Y-182146733D01*
X200272116Y-182151124D01*
X201123982Y-182155514D01*
X201113584Y-182299134D01*
X200178017Y-182303510D01*
X199242450Y-182307887D01*
X199242450Y-180190934D01*
X199345862Y-180190934D01*
X199402300Y-180191912D01*
G37*
X199402300Y-180191912D02*
X199431351Y-180196284D01*
X199439474Y-180206202D01*
X199434762Y-180220567D01*
X199432064Y-180242617D01*
X199429529Y-180295377D01*
X199427204Y-180375689D01*
X199425136Y-180480397D01*
X199423370Y-180606343D01*
X199421955Y-180750372D01*
X199420937Y-180909325D01*
X199420363Y-181080046D01*
X199420250Y-181198467D01*
X199420250Y-182146733D01*
X200272116Y-182151124D01*
X201123982Y-182155514D01*
X201113584Y-182299134D01*
X200178017Y-182303510D01*
X199242450Y-182307887D01*
X199242450Y-180190934D01*
X199345862Y-180190934D01*
X199402300Y-180191912D01*
G36*
X201856870Y-180191675D02*
G01*
X201886284Y-180195842D01*
X201895697Y-180206351D01*
X201892040Y-180226115D01*
X201891120Y-180229034D01*
X201881422Y-180265973D01*
X201878845Y-180284067D01*
X201878917Y-180305138D01*
X201879188Y-180355158D01*
X201879628Y-180429212D01*
X201880209Y-180522382D01*
X201880900Y-180629752D01*
X201881383Y-180703167D01*
X201884050Y-181105333D01*
X203475784Y-181105333D01*
X203475784Y-180190934D01*
X203579195Y-180190934D01*
X203635633Y-180191912D01*
X203664685Y-180196284D01*
X203672807Y-180206202D01*
X203668095Y-180220567D01*
X203665432Y-180242411D01*
X203662781Y-180295102D01*
X203660196Y-180375619D01*
X203657732Y-180480943D01*
X203655443Y-180608054D01*
X203653383Y-180753932D01*
X203651606Y-180915556D01*
X203650166Y-181089907D01*
X203649118Y-181273964D01*
X203649092Y-181279776D01*
X203644601Y-182309352D01*
X203467317Y-182299134D01*
X203458361Y-181257734D01*
X202671450Y-181257734D01*
X201884540Y-181257733D01*
X201880062Y-181778434D01*
X201875584Y-182299134D01*
X201697784Y-182309370D01*
X201697784Y-180190934D01*
X201800525Y-180190934D01*
X201856870Y-180191675D01*
G37*
X201856870Y-180191675D02*
X201886284Y-180195842D01*
X201895697Y-180206351D01*
X201892040Y-180226115D01*
X201891120Y-180229034D01*
X201881422Y-180265973D01*
X201878845Y-180284067D01*
X201878917Y-180305138D01*
X201879188Y-180355158D01*
X201879628Y-180429212D01*
X201880209Y-180522382D01*
X201880900Y-180629752D01*
X201881383Y-180703167D01*
X201884050Y-181105333D01*
X203475784Y-181105333D01*
X203475784Y-180190934D01*
X203579195Y-180190934D01*
X203635633Y-180191912D01*
X203664685Y-180196284D01*
X203672807Y-180206202D01*
X203668095Y-180220567D01*
X203665432Y-180242411D01*
X203662781Y-180295102D01*
X203660196Y-180375619D01*
X203657732Y-180480943D01*
X203655443Y-180608054D01*
X203653383Y-180753932D01*
X203651606Y-180915556D01*
X203650166Y-181089907D01*
X203649118Y-181273964D01*
X203649092Y-181279776D01*
X203644601Y-182309352D01*
X203467317Y-182299134D01*
X203458361Y-181257734D01*
X202671450Y-181257734D01*
X201884540Y-181257733D01*
X201880062Y-181778434D01*
X201875584Y-182299134D01*
X201697784Y-182309370D01*
X201697784Y-180190934D01*
X201800525Y-180190934D01*
X201856870Y-180191675D01*
G36*
X161648975Y-180146771D02*
G01*
X161745804Y-180257773D01*
X161817900Y-180340244D01*
X161898312Y-180431916D01*
X161985624Y-180531195D01*
X162078418Y-180636487D01*
X162175279Y-180746199D01*
X162274790Y-180858737D01*
X162375535Y-180972509D01*
X162476097Y-181085921D01*
X162575060Y-181197379D01*
X162671008Y-181305291D01*
X162762523Y-181408062D01*
X162848189Y-181504099D01*
X162926591Y-181591810D01*
X162996312Y-181669600D01*
X163055934Y-181735877D01*
X163104043Y-181789046D01*
X163139220Y-181827516D01*
X163160051Y-181849691D01*
X163165384Y-181854675D01*
X163175028Y-181845318D01*
X163200132Y-181818156D01*
X163239491Y-181774554D01*
X163291900Y-181715874D01*
X163356155Y-181643480D01*
X163431049Y-181558735D01*
X163515378Y-181463003D01*
X163607937Y-181357648D01*
X163707520Y-181244033D01*
X163812922Y-181123521D01*
X163915559Y-181005938D01*
X164025441Y-180880062D01*
X164130722Y-180759700D01*
X164230188Y-180646225D01*
X164322622Y-180541015D01*
X164406810Y-180445445D01*
X164481535Y-180360890D01*
X164545581Y-180288726D01*
X164597734Y-180230329D01*
X164636778Y-180187075D01*
X164661497Y-180160339D01*
X164670555Y-180151508D01*
X164687962Y-180149726D01*
X164725863Y-180148656D01*
X164779357Y-180148351D01*
X164843547Y-180148863D01*
X164873074Y-180149345D01*
X165060757Y-180152875D01*
X163408215Y-182107587D01*
X163437835Y-182139881D01*
X163459122Y-182163385D01*
X163494910Y-182203261D01*
X163543852Y-182257991D01*
X163604603Y-182326060D01*
X163675818Y-182405955D01*
X163756151Y-182496158D01*
X163844257Y-182595154D01*
X163938789Y-182701428D01*
X164038403Y-182813466D01*
X164141752Y-182929750D01*
X164247491Y-183048766D01*
X164354275Y-183168998D01*
X164460758Y-183288932D01*
X164565593Y-183407051D01*
X164667436Y-183521840D01*
X164764942Y-183631784D01*
X164856763Y-183735367D01*
X164941555Y-183831074D01*
X165017973Y-183917389D01*
X165084670Y-183992797D01*
X165140300Y-184055784D01*
X165183520Y-184104832D01*
X165212981Y-184138427D01*
X165227340Y-184155054D01*
X165228530Y-184156550D01*
X165226971Y-184162474D01*
X165212206Y-184166812D01*
X165181534Y-184169767D01*
X165132254Y-184171539D01*
X165061664Y-184172332D01*
X165016514Y-184172425D01*
X164794804Y-184172425D01*
X164013566Y-183304463D01*
X163899153Y-183177337D01*
X163789146Y-183055078D01*
X163684791Y-182939075D01*
X163587337Y-182830717D01*
X163498030Y-182731390D01*
X163418117Y-182642482D01*
X163348847Y-182565382D01*
X163291467Y-182501477D01*
X163247223Y-182452155D01*
X163217364Y-182418804D01*
X163203137Y-182402811D01*
X163202651Y-182402254D01*
X163172975Y-182368005D01*
X162493525Y-183158182D01*
X162386247Y-183282952D01*
X162281836Y-183404406D01*
X162181754Y-183520843D01*
X162087465Y-183630558D01*
X162000432Y-183731848D01*
X161922119Y-183823009D01*
X161853988Y-183902339D01*
X161797505Y-183968134D01*
X161754131Y-184018690D01*
X161725331Y-184052304D01*
X161718825Y-184059915D01*
X161623575Y-184171471D01*
X161410850Y-184171948D01*
X161340553Y-184171747D01*
X161280055Y-184170889D01*
X161233510Y-184169489D01*
X161205072Y-184167662D01*
X161198125Y-184166069D01*
X161206176Y-184155728D01*
X161229614Y-184127318D01*
X161267362Y-184082112D01*
X161318344Y-184021384D01*
X161381486Y-183946408D01*
X161455710Y-183858458D01*
X161539941Y-183758807D01*
X161633103Y-183648729D01*
X161734120Y-183529499D01*
X161841918Y-183402389D01*
X161955419Y-183268674D01*
X162061725Y-183143538D01*
X162179491Y-183004847D01*
X162292520Y-182871504D01*
X162399733Y-182744794D01*
X162500054Y-182626000D01*
X162592405Y-182516404D01*
X162675710Y-182417290D01*
X162748890Y-182329942D01*
X162810870Y-182255642D01*
X162860571Y-182195674D01*
X162896918Y-182151321D01*
X162918832Y-182123866D01*
X162925325Y-182114671D01*
X162917133Y-182103544D01*
X162893303Y-182074625D01*
X162854955Y-182029207D01*
X162803207Y-181968587D01*
X162739178Y-181894059D01*
X162663988Y-181806920D01*
X162578755Y-181708465D01*
X162484599Y-181599988D01*
X162382638Y-181482785D01*
X162273991Y-181358152D01*
X162159777Y-181227384D01*
X162083449Y-181140126D01*
X161966047Y-181005947D01*
X161853314Y-180877014D01*
X161746384Y-180754632D01*
X161646393Y-180640101D01*
X161554476Y-180534725D01*
X161471765Y-180439807D01*
X161399397Y-180356649D01*
X161338507Y-180286553D01*
X161290227Y-180230822D01*
X161255694Y-180190759D01*
X161236041Y-180167667D01*
X161231800Y-180162400D01*
X161233284Y-180156382D01*
X161248076Y-180152014D01*
X161278918Y-180149084D01*
X161328550Y-180147379D01*
X161399715Y-180146687D01*
X161435500Y-180146648D01*
X161648975Y-180146771D01*
G37*
X161648975Y-180146771D02*
X161745804Y-180257773D01*
X161817900Y-180340244D01*
X161898312Y-180431916D01*
X161985624Y-180531195D01*
X162078418Y-180636487D01*
X162175279Y-180746199D01*
X162274790Y-180858737D01*
X162375535Y-180972509D01*
X162476097Y-181085921D01*
X162575060Y-181197379D01*
X162671008Y-181305291D01*
X162762523Y-181408062D01*
X162848189Y-181504099D01*
X162926591Y-181591810D01*
X162996312Y-181669600D01*
X163055934Y-181735877D01*
X163104043Y-181789046D01*
X163139220Y-181827516D01*
X163160051Y-181849691D01*
X163165384Y-181854675D01*
X163175028Y-181845318D01*
X163200132Y-181818156D01*
X163239491Y-181774554D01*
X163291900Y-181715874D01*
X163356155Y-181643480D01*
X163431049Y-181558735D01*
X163515378Y-181463003D01*
X163607937Y-181357648D01*
X163707520Y-181244033D01*
X163812922Y-181123521D01*
X163915559Y-181005938D01*
X164025441Y-180880062D01*
X164130722Y-180759700D01*
X164230188Y-180646225D01*
X164322622Y-180541015D01*
X164406810Y-180445445D01*
X164481535Y-180360890D01*
X164545581Y-180288726D01*
X164597734Y-180230329D01*
X164636778Y-180187075D01*
X164661497Y-180160339D01*
X164670555Y-180151508D01*
X164687962Y-180149726D01*
X164725863Y-180148656D01*
X164779357Y-180148351D01*
X164843547Y-180148863D01*
X164873074Y-180149345D01*
X165060757Y-180152875D01*
X163408215Y-182107587D01*
X163437835Y-182139881D01*
X163459122Y-182163385D01*
X163494910Y-182203261D01*
X163543852Y-182257991D01*
X163604603Y-182326060D01*
X163675818Y-182405955D01*
X163756151Y-182496158D01*
X163844257Y-182595154D01*
X163938789Y-182701428D01*
X164038403Y-182813466D01*
X164141752Y-182929750D01*
X164247491Y-183048766D01*
X164354275Y-183168998D01*
X164460758Y-183288932D01*
X164565593Y-183407051D01*
X164667436Y-183521840D01*
X164764942Y-183631784D01*
X164856763Y-183735367D01*
X164941555Y-183831074D01*
X165017973Y-183917389D01*
X165084670Y-183992797D01*
X165140300Y-184055784D01*
X165183520Y-184104832D01*
X165212981Y-184138427D01*
X165227340Y-184155054D01*
X165228530Y-184156550D01*
X165226971Y-184162474D01*
X165212206Y-184166812D01*
X165181534Y-184169767D01*
X165132254Y-184171539D01*
X165061664Y-184172332D01*
X165016514Y-184172425D01*
X164794804Y-184172425D01*
X164013566Y-183304463D01*
X163899153Y-183177337D01*
X163789146Y-183055078D01*
X163684791Y-182939075D01*
X163587337Y-182830717D01*
X163498030Y-182731390D01*
X163418117Y-182642482D01*
X163348847Y-182565382D01*
X163291467Y-182501477D01*
X163247223Y-182452155D01*
X163217364Y-182418804D01*
X163203137Y-182402811D01*
X163202651Y-182402254D01*
X163172975Y-182368005D01*
X162493525Y-183158182D01*
X162386247Y-183282952D01*
X162281836Y-183404406D01*
X162181754Y-183520843D01*
X162087465Y-183630558D01*
X162000432Y-183731848D01*
X161922119Y-183823009D01*
X161853988Y-183902339D01*
X161797505Y-183968134D01*
X161754131Y-184018690D01*
X161725331Y-184052304D01*
X161718825Y-184059915D01*
X161623575Y-184171471D01*
X161410850Y-184171948D01*
X161340553Y-184171747D01*
X161280055Y-184170889D01*
X161233510Y-184169489D01*
X161205072Y-184167662D01*
X161198125Y-184166069D01*
X161206176Y-184155728D01*
X161229614Y-184127318D01*
X161267362Y-184082112D01*
X161318344Y-184021384D01*
X161381486Y-183946408D01*
X161455710Y-183858458D01*
X161539941Y-183758807D01*
X161633103Y-183648729D01*
X161734120Y-183529499D01*
X161841918Y-183402389D01*
X161955419Y-183268674D01*
X162061725Y-183143538D01*
X162179491Y-183004847D01*
X162292520Y-182871504D01*
X162399733Y-182744794D01*
X162500054Y-182626000D01*
X162592405Y-182516404D01*
X162675710Y-182417290D01*
X162748890Y-182329942D01*
X162810870Y-182255642D01*
X162860571Y-182195674D01*
X162896918Y-182151321D01*
X162918832Y-182123866D01*
X162925325Y-182114671D01*
X162917133Y-182103544D01*
X162893303Y-182074625D01*
X162854955Y-182029207D01*
X162803207Y-181968587D01*
X162739178Y-181894059D01*
X162663988Y-181806920D01*
X162578755Y-181708465D01*
X162484599Y-181599988D01*
X162382638Y-181482785D01*
X162273991Y-181358152D01*
X162159777Y-181227384D01*
X162083449Y-181140126D01*
X161966047Y-181005947D01*
X161853314Y-180877014D01*
X161746384Y-180754632D01*
X161646393Y-180640101D01*
X161554476Y-180534725D01*
X161471765Y-180439807D01*
X161399397Y-180356649D01*
X161338507Y-180286553D01*
X161290227Y-180230822D01*
X161255694Y-180190759D01*
X161236041Y-180167667D01*
X161231800Y-180162400D01*
X161233284Y-180156382D01*
X161248076Y-180152014D01*
X161278918Y-180149084D01*
X161328550Y-180147379D01*
X161399715Y-180146687D01*
X161435500Y-180146648D01*
X161648975Y-180146771D01*
G36*
X160156725Y-180451325D02*
G01*
X156842025Y-180451325D01*
X156842025Y-181924525D01*
X159636025Y-181924525D01*
X159636025Y-182229325D01*
X156842025Y-182229325D01*
X156842025Y-183867625D01*
X160131325Y-183867625D01*
X160131325Y-184172425D01*
X156499125Y-184172425D01*
X156499125Y-180146525D01*
X160156725Y-180146525D01*
X160156725Y-180451325D01*
G37*
X160156725Y-180451325D02*
X156842025Y-180451325D01*
X156842025Y-181924525D01*
X159636025Y-181924525D01*
X159636025Y-182229325D01*
X156842025Y-182229325D01*
X156842025Y-183867625D01*
X160131325Y-183867625D01*
X160131325Y-184172425D01*
X156499125Y-184172425D01*
X156499125Y-180146525D01*
X160156725Y-180146525D01*
X160156725Y-180451325D01*
G36*
X152870100Y-180162497D02*
G01*
X153074367Y-180163297D01*
X153254907Y-180164098D01*
X153413390Y-180164936D01*
X153551489Y-180165843D01*
X153670875Y-180166853D01*
X153773220Y-180168000D01*
X153860196Y-180169318D01*
X153933475Y-180170840D01*
X153994729Y-180172600D01*
X154045628Y-180174632D01*
X154087846Y-180176969D01*
X154123054Y-180179645D01*
X154152924Y-180182694D01*
X154179127Y-180186150D01*
X154198868Y-180189279D01*
X154391413Y-180227719D01*
X154561725Y-180274462D01*
X154711868Y-180330411D01*
X154843908Y-180396471D01*
X154959908Y-180473547D01*
X155061936Y-180562543D01*
X155070375Y-180571037D01*
X155145162Y-180652947D01*
X155203097Y-180731288D01*
X155249609Y-180814679D01*
X155290129Y-180911739D01*
X155296951Y-180930607D01*
X155311882Y-180973894D01*
X155322495Y-181009986D01*
X155329533Y-181044759D01*
X155333740Y-181084089D01*
X155335860Y-181133852D01*
X155336638Y-181199924D01*
X155336762Y-181245075D01*
X155335003Y-181352158D01*
X155328494Y-181439839D01*
X155315935Y-181513879D01*
X155296025Y-181580041D01*
X155267463Y-181644087D01*
X155232867Y-181705370D01*
X155137535Y-181840248D01*
X155025469Y-181958193D01*
X154895936Y-182059646D01*
X154748208Y-182145047D01*
X154581551Y-182214839D01*
X154395236Y-182269462D01*
X154248010Y-182299732D01*
X154196735Y-182308957D01*
X154155948Y-182316914D01*
X154131382Y-182322454D01*
X154126880Y-182324035D01*
X154133824Y-182334478D01*
X154155124Y-182363669D01*
X154189702Y-182410183D01*
X154236482Y-182472595D01*
X154294387Y-182549479D01*
X154362339Y-182639411D01*
X154439261Y-182740964D01*
X154524076Y-182852714D01*
X154615707Y-182973234D01*
X154713077Y-183101101D01*
X154815110Y-183234887D01*
X154822064Y-183243999D01*
X154924453Y-183378208D01*
X155022329Y-183506632D01*
X155114608Y-183627841D01*
X155200205Y-183740405D01*
X155278036Y-183842893D01*
X155347016Y-183933874D01*
X155406061Y-184011918D01*
X155454086Y-184075594D01*
X155490006Y-184123471D01*
X155512737Y-184154119D01*
X155521195Y-184166108D01*
X155521225Y-184166205D01*
X155509213Y-184168248D01*
X155475930Y-184170010D01*
X155425506Y-184171369D01*
X155362067Y-184172208D01*
X155305840Y-184172425D01*
X155090456Y-184172425D01*
X153714154Y-182343625D01*
X152016025Y-182343625D01*
X152016025Y-184172425D01*
X151673125Y-184172425D01*
X151673125Y-181248559D01*
X152016025Y-181248559D01*
X152016158Y-181387557D01*
X152016542Y-181518980D01*
X152017153Y-181640634D01*
X152017969Y-181750327D01*
X152018966Y-181845867D01*
X152020120Y-181925061D01*
X152021408Y-181985717D01*
X152022807Y-182025643D01*
X152024293Y-182042646D01*
X152024491Y-182043058D01*
X152038751Y-182044898D01*
X152075973Y-182046487D01*
X152133720Y-182047832D01*
X152209557Y-182048936D01*
X152301048Y-182049805D01*
X152405755Y-182050443D01*
X152521242Y-182050854D01*
X152645073Y-182051044D01*
X152774811Y-182051018D01*
X152908020Y-182050780D01*
X153042264Y-182050335D01*
X153175106Y-182049687D01*
X153304109Y-182048842D01*
X153426838Y-182047804D01*
X153540856Y-182046578D01*
X153643726Y-182045169D01*
X153733012Y-182043581D01*
X153806278Y-182041819D01*
X153861087Y-182039889D01*
X153870225Y-182039452D01*
X154048486Y-182026563D01*
X154205202Y-182006816D01*
X154343460Y-181979546D01*
X154466348Y-181944089D01*
X154576954Y-181899780D01*
X154621684Y-181877748D01*
X154699503Y-181829674D01*
X154776230Y-181769057D01*
X154844255Y-181702602D01*
X154895970Y-181637011D01*
X154897342Y-181634890D01*
X154952161Y-181526638D01*
X154985967Y-181408185D01*
X154998596Y-181283837D01*
X154989885Y-181157898D01*
X154959670Y-181034674D01*
X154923394Y-180947812D01*
X154864412Y-180849608D01*
X154791309Y-180764123D01*
X154702301Y-180690276D01*
X154595607Y-180626985D01*
X154469443Y-180573171D01*
X154322026Y-180527754D01*
X154175025Y-180494214D01*
X154152727Y-180490254D01*
X154127063Y-180486772D01*
X154096251Y-180483725D01*
X154058509Y-180481072D01*
X154012054Y-180478770D01*
X153955103Y-180476779D01*
X153885875Y-180475056D01*
X153802586Y-180473559D01*
X153703455Y-180472247D01*
X153586699Y-180471079D01*
X153450536Y-180470011D01*
X153293182Y-180469003D01*
X153112857Y-180468013D01*
X153041550Y-180467651D01*
X152016025Y-180462527D01*
X152016025Y-181248559D01*
X151673125Y-181248559D01*
X151673125Y-180158024D01*
X152870100Y-180162497D01*
G37*
X152870100Y-180162497D02*
X153074367Y-180163297D01*
X153254907Y-180164098D01*
X153413390Y-180164936D01*
X153551489Y-180165843D01*
X153670875Y-180166853D01*
X153773220Y-180168000D01*
X153860196Y-180169318D01*
X153933475Y-180170840D01*
X153994729Y-180172600D01*
X154045628Y-180174632D01*
X154087846Y-180176969D01*
X154123054Y-180179645D01*
X154152924Y-180182694D01*
X154179127Y-180186150D01*
X154198868Y-180189279D01*
X154391413Y-180227719D01*
X154561725Y-180274462D01*
X154711868Y-180330411D01*
X154843908Y-180396471D01*
X154959908Y-180473547D01*
X155061936Y-180562543D01*
X155070375Y-180571037D01*
X155145162Y-180652947D01*
X155203097Y-180731288D01*
X155249609Y-180814679D01*
X155290129Y-180911739D01*
X155296951Y-180930607D01*
X155311882Y-180973894D01*
X155322495Y-181009986D01*
X155329533Y-181044759D01*
X155333740Y-181084089D01*
X155335860Y-181133852D01*
X155336638Y-181199924D01*
X155336762Y-181245075D01*
X155335003Y-181352158D01*
X155328494Y-181439839D01*
X155315935Y-181513879D01*
X155296025Y-181580041D01*
X155267463Y-181644087D01*
X155232867Y-181705370D01*
X155137535Y-181840248D01*
X155025469Y-181958193D01*
X154895936Y-182059646D01*
X154748208Y-182145047D01*
X154581551Y-182214839D01*
X154395236Y-182269462D01*
X154248010Y-182299732D01*
X154196735Y-182308957D01*
X154155948Y-182316914D01*
X154131382Y-182322454D01*
X154126880Y-182324035D01*
X154133824Y-182334478D01*
X154155124Y-182363669D01*
X154189702Y-182410183D01*
X154236482Y-182472595D01*
X154294387Y-182549479D01*
X154362339Y-182639411D01*
X154439261Y-182740964D01*
X154524076Y-182852714D01*
X154615707Y-182973234D01*
X154713077Y-183101101D01*
X154815110Y-183234887D01*
X154822064Y-183243999D01*
X154924453Y-183378208D01*
X155022329Y-183506632D01*
X155114608Y-183627841D01*
X155200205Y-183740405D01*
X155278036Y-183842893D01*
X155347016Y-183933874D01*
X155406061Y-184011918D01*
X155454086Y-184075594D01*
X155490006Y-184123471D01*
X155512737Y-184154119D01*
X155521195Y-184166108D01*
X155521225Y-184166205D01*
X155509213Y-184168248D01*
X155475930Y-184170010D01*
X155425506Y-184171369D01*
X155362067Y-184172208D01*
X155305840Y-184172425D01*
X155090456Y-184172425D01*
X153714154Y-182343625D01*
X152016025Y-182343625D01*
X152016025Y-184172425D01*
X151673125Y-184172425D01*
X151673125Y-181248559D01*
X152016025Y-181248559D01*
X152016158Y-181387557D01*
X152016542Y-181518980D01*
X152017153Y-181640634D01*
X152017969Y-181750327D01*
X152018966Y-181845867D01*
X152020120Y-181925061D01*
X152021408Y-181985717D01*
X152022807Y-182025643D01*
X152024293Y-182042646D01*
X152024491Y-182043058D01*
X152038751Y-182044898D01*
X152075973Y-182046487D01*
X152133720Y-182047832D01*
X152209557Y-182048936D01*
X152301048Y-182049805D01*
X152405755Y-182050443D01*
X152521242Y-182050854D01*
X152645073Y-182051044D01*
X152774811Y-182051018D01*
X152908020Y-182050780D01*
X153042264Y-182050335D01*
X153175106Y-182049687D01*
X153304109Y-182048842D01*
X153426838Y-182047804D01*
X153540856Y-182046578D01*
X153643726Y-182045169D01*
X153733012Y-182043581D01*
X153806278Y-182041819D01*
X153861087Y-182039889D01*
X153870225Y-182039452D01*
X154048486Y-182026563D01*
X154205202Y-182006816D01*
X154343460Y-181979546D01*
X154466348Y-181944089D01*
X154576954Y-181899780D01*
X154621684Y-181877748D01*
X154699503Y-181829674D01*
X154776230Y-181769057D01*
X154844255Y-181702602D01*
X154895970Y-181637011D01*
X154897342Y-181634890D01*
X154952161Y-181526638D01*
X154985967Y-181408185D01*
X154998596Y-181283837D01*
X154989885Y-181157898D01*
X154959670Y-181034674D01*
X154923394Y-180947812D01*
X154864412Y-180849608D01*
X154791309Y-180764123D01*
X154702301Y-180690276D01*
X154595607Y-180626985D01*
X154469443Y-180573171D01*
X154322026Y-180527754D01*
X154175025Y-180494214D01*
X154152727Y-180490254D01*
X154127063Y-180486772D01*
X154096251Y-180483725D01*
X154058509Y-180481072D01*
X154012054Y-180478770D01*
X153955103Y-180476779D01*
X153885875Y-180475056D01*
X153802586Y-180473559D01*
X153703455Y-180472247D01*
X153586699Y-180471079D01*
X153450536Y-180470011D01*
X153293182Y-180469003D01*
X153112857Y-180468013D01*
X153041550Y-180467651D01*
X152016025Y-180462527D01*
X152016025Y-181248559D01*
X151673125Y-181248559D01*
X151673125Y-180158024D01*
X152870100Y-180162497D01*
G36*
X147855537Y-181168874D02*
G01*
X147974771Y-181306389D01*
X148089366Y-181438380D01*
X148198225Y-181563592D01*
X148300249Y-181680771D01*
X148394343Y-181788661D01*
X148479407Y-181886009D01*
X148554346Y-181971560D01*
X148618060Y-182044060D01*
X148669454Y-182102253D01*
X148707430Y-182144885D01*
X148730890Y-182170702D01*
X148738700Y-182178525D01*
X148747643Y-182168842D01*
X148771423Y-182140669D01*
X148808972Y-182095319D01*
X148859223Y-182034106D01*
X148921108Y-181958342D01*
X148993559Y-181869341D01*
X149075507Y-181768417D01*
X149165884Y-181656882D01*
X149263624Y-181536050D01*
X149367657Y-181407233D01*
X149476915Y-181271747D01*
X149559187Y-181169598D01*
X150371375Y-180160672D01*
X150572955Y-180159948D01*
X150650584Y-180160059D01*
X150705634Y-180161185D01*
X150740913Y-180163552D01*
X150759229Y-180167384D01*
X150763390Y-180172908D01*
X150762166Y-180175100D01*
X150753200Y-180186419D01*
X150730120Y-180215470D01*
X150692810Y-180262403D01*
X150641149Y-180327365D01*
X150575020Y-180410507D01*
X150494305Y-180511976D01*
X150398885Y-180631922D01*
X150288641Y-180770493D01*
X150163456Y-180927839D01*
X150023210Y-181104109D01*
X149867785Y-181299450D01*
X149697063Y-181514013D01*
X149510925Y-181747945D01*
X149309253Y-182001397D01*
X149091928Y-182274516D01*
X149003574Y-182385552D01*
X148904525Y-182510030D01*
X148904525Y-184172425D01*
X148548925Y-184172425D01*
X148548925Y-182493801D01*
X147567850Y-181348454D01*
X147441602Y-181201054D01*
X147319787Y-181058803D01*
X147203443Y-180922917D01*
X147093610Y-180794609D01*
X146991327Y-180675096D01*
X146897635Y-180565592D01*
X146813571Y-180467313D01*
X146740177Y-180381474D01*
X146678491Y-180309291D01*
X146629553Y-180251978D01*
X146594403Y-180210750D01*
X146574079Y-180186824D01*
X146569344Y-180181165D01*
X146564439Y-180173155D01*
X146566560Y-180167370D01*
X146578938Y-180163450D01*
X146604801Y-180161036D01*
X146647378Y-180159768D01*
X146709900Y-180159287D01*
X146766295Y-180159225D01*
X146980675Y-180159225D01*
X147855537Y-181168874D01*
G37*
X147855537Y-181168874D02*
X147974771Y-181306389D01*
X148089366Y-181438380D01*
X148198225Y-181563592D01*
X148300249Y-181680771D01*
X148394343Y-181788661D01*
X148479407Y-181886009D01*
X148554346Y-181971560D01*
X148618060Y-182044060D01*
X148669454Y-182102253D01*
X148707430Y-182144885D01*
X148730890Y-182170702D01*
X148738700Y-182178525D01*
X148747643Y-182168842D01*
X148771423Y-182140669D01*
X148808972Y-182095319D01*
X148859223Y-182034106D01*
X148921108Y-181958342D01*
X148993559Y-181869341D01*
X149075507Y-181768417D01*
X149165884Y-181656882D01*
X149263624Y-181536050D01*
X149367657Y-181407233D01*
X149476915Y-181271747D01*
X149559187Y-181169598D01*
X150371375Y-180160672D01*
X150572955Y-180159948D01*
X150650584Y-180160059D01*
X150705634Y-180161185D01*
X150740913Y-180163552D01*
X150759229Y-180167384D01*
X150763390Y-180172908D01*
X150762166Y-180175100D01*
X150753200Y-180186419D01*
X150730120Y-180215470D01*
X150692810Y-180262403D01*
X150641149Y-180327365D01*
X150575020Y-180410507D01*
X150494305Y-180511976D01*
X150398885Y-180631922D01*
X150288641Y-180770493D01*
X150163456Y-180927839D01*
X150023210Y-181104109D01*
X149867785Y-181299450D01*
X149697063Y-181514013D01*
X149510925Y-181747945D01*
X149309253Y-182001397D01*
X149091928Y-182274516D01*
X149003574Y-182385552D01*
X148904525Y-182510030D01*
X148904525Y-184172425D01*
X148548925Y-184172425D01*
X148548925Y-182493801D01*
X147567850Y-181348454D01*
X147441602Y-181201054D01*
X147319787Y-181058803D01*
X147203443Y-180922917D01*
X147093610Y-180794609D01*
X146991327Y-180675096D01*
X146897635Y-180565592D01*
X146813571Y-180467313D01*
X146740177Y-180381474D01*
X146678491Y-180309291D01*
X146629553Y-180251978D01*
X146594403Y-180210750D01*
X146574079Y-180186824D01*
X146569344Y-180181165D01*
X146564439Y-180173155D01*
X146566560Y-180167370D01*
X146578938Y-180163450D01*
X146604801Y-180161036D01*
X146647378Y-180159768D01*
X146709900Y-180159287D01*
X146766295Y-180159225D01*
X146980675Y-180159225D01*
X147855537Y-181168874D01*
G36*
X143800273Y-181849067D02*
G01*
X145329475Y-183538909D01*
X145335917Y-180159225D01*
X145539071Y-180159225D01*
X145620507Y-180159547D01*
X145679091Y-180161269D01*
X145717369Y-180165526D01*
X145737889Y-180173453D01*
X145743197Y-180186184D01*
X145735839Y-180204853D01*
X145718362Y-180230595D01*
X145713650Y-180236998D01*
X145685075Y-180275643D01*
X145677807Y-184173275D01*
X145413763Y-184166075D01*
X142268775Y-180673575D01*
X142262335Y-184172425D01*
X141919525Y-184172425D01*
X141919525Y-180159225D01*
X142095298Y-180159224D01*
X142271072Y-180159224D01*
X143800273Y-181849067D01*
G37*
X143800273Y-181849067D02*
X145329475Y-183538909D01*
X145335917Y-180159225D01*
X145539071Y-180159225D01*
X145620507Y-180159547D01*
X145679091Y-180161269D01*
X145717369Y-180165526D01*
X145737889Y-180173453D01*
X145743197Y-180186184D01*
X145735839Y-180204853D01*
X145718362Y-180230595D01*
X145713650Y-180236998D01*
X145685075Y-180275643D01*
X145677807Y-184173275D01*
X145413763Y-184166075D01*
X142268775Y-180673575D01*
X142262335Y-184172425D01*
X141919525Y-184172425D01*
X141919525Y-180159225D01*
X142095298Y-180159224D01*
X142271072Y-180159224D01*
X143800273Y-181849067D01*
G36*
X136904084Y-181359341D02*
G01*
X139285369Y-183740556D01*
X139285369Y-180565830D01*
X138491723Y-179771978D01*
X137698076Y-178978126D01*
X140084375Y-178978126D01*
X140084375Y-185328125D01*
X139295951Y-185328125D01*
X136914667Y-182946910D01*
X134533382Y-180565695D01*
X134533382Y-183740421D01*
X135327028Y-184534273D01*
X136120675Y-185328125D01*
X133734376Y-185328125D01*
X133734376Y-178978126D01*
X134522800Y-178978126D01*
X136904084Y-181359341D01*
G37*
X136904084Y-181359341D02*
X139285369Y-183740556D01*
X139285369Y-180565830D01*
X138491723Y-179771978D01*
X137698076Y-178978126D01*
X140084375Y-178978126D01*
X140084375Y-185328125D01*
X139295951Y-185328125D01*
X136914667Y-182946910D01*
X134533382Y-180565695D01*
X134533382Y-183740421D01*
X135327028Y-184534273D01*
X136120675Y-185328125D01*
X133734376Y-185328125D01*
X133734376Y-178978126D01*
X134522800Y-178978126D01*
X136904084Y-181359341D01*
%TD*%
M02*
