M48
; DRILL file {KiCad (5.1.10)-1} date 08/12/23 15:50:24
; FORMAT={-:-/ absolute / inch / decimal}
; #@! TF.CreationDate,2023-08-12T15:50:24-04:00
; #@! TF.GenerationSoftware,Kicad,Pcbnew,(5.1.10)-1
; #@! TF.FileFunction,NonPlated,1,2,NPTH
FMAT,2
INCH
T1C0.0670
T2C0.1181
T3C0.1200
T4C0.1570
%
G90
G05
T1
X3.737Y-3.937
X3.737Y-6.937
X3.8308Y-5.437
X3.8308Y-6.937
X3.9245Y-4.687
X4.0183Y-5.437
X4.137Y-3.937
X4.137Y-6.937
X4.2058Y-6.187
X4.2308Y-5.437
X4.2308Y-6.937
X4.3245Y-4.687
X4.4183Y-5.437
X4.487Y-3.937
X4.5808Y-6.937
X4.6058Y-6.187
X4.6745Y-6.937
X4.862Y-4.687
X4.887Y-3.937
X4.9808Y-6.937
X5.0495Y-5.437
X5.0745Y-6.937
X5.237Y-3.937
X5.262Y-4.687
X5.4245Y-6.187
X5.4245Y-6.937
X5.4495Y-5.437
X5.612Y-4.687
X5.637Y-3.937
X5.7995Y-5.437
X5.8245Y-6.187
X5.8245Y-6.937
X5.987Y-3.937
X6.012Y-4.687
X6.1745Y-6.187
X6.1995Y-5.437
X6.2683Y-6.937
X6.362Y-4.687
X6.387Y-3.937
X6.5495Y-5.437
X6.5745Y-6.187
X6.6683Y-6.937
X6.737Y-3.937
X6.762Y-4.687
X6.9245Y-6.187
X6.9495Y-5.437
X7.112Y-4.687
X7.137Y-3.937
X7.2995Y-5.437
X7.3245Y-6.187
X7.487Y-3.937
X7.512Y-4.687
X7.5808Y-6.937
X7.6745Y-6.187
X7.6995Y-5.437
X7.862Y-4.687
X7.887Y-3.937
X7.9808Y-6.937
X8.0495Y-5.437
X8.0745Y-6.187
X8.237Y-3.937
X8.262Y-4.687
X8.4245Y-6.187
X8.4495Y-5.437
X8.637Y-3.937
X8.8245Y-6.187
T2
X3.787Y-3.837
X3.787Y-6.837
X3.8808Y-5.337
X3.9308Y-7.137
X3.9745Y-4.587
X4.037Y-3.737
X4.037Y-6.737
X4.1183Y-5.637
X4.1308Y-5.237
X4.1808Y-7.037
X4.2245Y-4.487
X4.2558Y-6.087
X4.3683Y-5.537
X4.5058Y-5.987
X4.537Y-3.837
X4.6308Y-6.837
X4.7745Y-7.137
X4.787Y-3.737
X4.8808Y-6.737
X4.912Y-4.587
X5.0245Y-7.037
X5.0995Y-5.337
X5.162Y-4.487
X5.287Y-3.837
X5.3495Y-5.237
X5.4745Y-6.087
X5.4745Y-6.837
X5.537Y-3.737
X5.662Y-4.587
X5.7245Y-5.987
X5.7245Y-6.737
X5.8495Y-5.337
X5.912Y-4.487
X6.037Y-3.837
X6.0995Y-5.237
X6.2245Y-6.087
X6.287Y-3.737
X6.3183Y-6.837
X6.412Y-4.587
X6.4745Y-5.987
X6.5683Y-6.737
X6.5995Y-5.337
X6.662Y-4.487
X6.787Y-3.837
X6.8495Y-5.237
X6.9745Y-6.087
X7.037Y-3.737
X7.162Y-4.587
X7.2245Y-5.987
X7.3495Y-5.337
X7.412Y-4.487
X7.537Y-3.837
X7.5995Y-5.237
X7.6308Y-6.837
X7.7245Y-6.087
X7.787Y-3.737
X7.8808Y-6.737
X7.912Y-4.587
X7.9745Y-5.987
X8.0995Y-5.337
X8.162Y-4.487
X8.287Y-3.837
X8.3495Y-5.237
X8.4745Y-6.087
X8.537Y-3.737
X8.7245Y-5.987
T3
X3.9373Y-5.912
X4.8743Y-5.912
X7.3123Y-7.212
X8.2493Y-7.212
T4
X3.937Y-3.937
X3.937Y-6.937
X3.9373Y-6.512
X4.0308Y-5.437
X4.0308Y-6.937
X4.1245Y-4.687
X4.2183Y-5.437
X4.4058Y-6.187
X4.687Y-3.937
X4.7808Y-6.937
X4.8743Y-6.512
X4.8745Y-6.937
X5.062Y-4.687
X5.2495Y-5.437
X5.437Y-3.937
X5.6245Y-6.187
X5.6245Y-6.937
X5.812Y-4.687
X5.9995Y-5.437
X6.187Y-3.937
X6.3745Y-6.187
X6.4683Y-6.937
X6.562Y-4.687
X6.7495Y-5.437
X6.937Y-3.937
X7.1245Y-6.187
X7.312Y-4.687
X7.3123Y-6.612
X7.4995Y-5.437
X7.687Y-3.937
X7.7808Y-6.937
X7.8745Y-6.187
X8.062Y-4.687
X8.2493Y-6.612
X8.2495Y-5.437
X8.437Y-3.937
X8.6245Y-6.187
T0
M30
