%TF.GenerationSoftware,KiCad,Pcbnew,(5.1.10)-1*%
%TF.CreationDate,2023-08-12T15:50:22-04:00*%
%TF.ProjectId,niche65_mk2_left_RIGID,6e696368-6536-4355-9f6d-6b325f6c6566,rev?*%
%TF.SameCoordinates,Original*%
%TF.FileFunction,Soldermask,Bot*%
%TF.FilePolarity,Negative*%
%FSLAX46Y46*%
G04 Gerber Fmt 4.6, Leading zero omitted, Abs format (unit mm)*
G04 Created by KiCad (PCBNEW (5.1.10)-1) date 2023-08-12 15:50:22*
%MOMM*%
%LPD*%
G01*
G04 APERTURE LIST*
%ADD10C,3.987800*%
%ADD11C,3.048000*%
%ADD12R,2.550000X2.500000*%
%ADD13C,1.701800*%
%ADD14C,3.000000*%
%ADD15R,1.000000X0.900000*%
%ADD16R,4.850000X4.850000*%
%ADD17C,0.250000*%
%ADD18R,1.000000X1.800000*%
%ADD19R,0.900000X0.800000*%
%ADD20O,1.700000X1.700000*%
%ADD21R,1.700000X1.700000*%
G04 APERTURE END LIST*
%TO.C,REF\u002A\u002A*%
G36*
G01*
X195702500Y-162980000D02*
X195702500Y-161480000D01*
G75*
G02*
X195952500Y-161230000I250000J0D01*
G01*
X196452500Y-161230000D01*
G75*
G02*
X196702500Y-161480000I0J-250000D01*
G01*
X196702500Y-162980000D01*
G75*
G02*
X196452500Y-163230000I-250000J0D01*
G01*
X195952500Y-163230000D01*
G75*
G02*
X195702500Y-162980000I0J250000D01*
G01*
G37*
%TD*%
%TO.C,REF\u002A\u002A*%
G36*
G01*
X198242500Y-162980000D02*
X198242500Y-161480000D01*
G75*
G02*
X198492500Y-161230000I250000J0D01*
G01*
X198992500Y-161230000D01*
G75*
G02*
X199242500Y-161480000I0J-250000D01*
G01*
X199242500Y-162980000D01*
G75*
G02*
X198992500Y-163230000I-250000J0D01*
G01*
X198492500Y-163230000D01*
G75*
G02*
X198242500Y-162980000I0J250000D01*
G01*
G37*
%TD*%
%TO.C,REF\u002A\u002A*%
G36*
G01*
X203322500Y-162980000D02*
X203322500Y-161480000D01*
G75*
G02*
X203572500Y-161230000I250000J0D01*
G01*
X204072500Y-161230000D01*
G75*
G02*
X204322500Y-161480000I0J-250000D01*
G01*
X204322500Y-162980000D01*
G75*
G02*
X204072500Y-163230000I-250000J0D01*
G01*
X203572500Y-163230000D01*
G75*
G02*
X203322500Y-162980000I0J250000D01*
G01*
G37*
%TD*%
%TO.C,REF\u002A\u002A*%
G36*
G01*
X200782500Y-162980000D02*
X200782500Y-161480000D01*
G75*
G02*
X201032500Y-161230000I250000J0D01*
G01*
X201532500Y-161230000D01*
G75*
G02*
X201782500Y-161480000I0J-250000D01*
G01*
X201782500Y-162980000D01*
G75*
G02*
X201532500Y-163230000I-250000J0D01*
G01*
X201032500Y-163230000D01*
G75*
G02*
X200782500Y-162980000I0J250000D01*
G01*
G37*
%TD*%
%TO.C,J1*%
G36*
G01*
X114568742Y-125962492D02*
X114568742Y-125412492D01*
G75*
G02*
X114718742Y-125262492I150000J0D01*
G01*
X115018742Y-125262492D01*
G75*
G02*
X115168742Y-125412492I0J-150000D01*
G01*
X115168742Y-125962492D01*
G75*
G02*
X115018742Y-126112492I-150000J0D01*
G01*
X114718742Y-126112492D01*
G75*
G02*
X114568742Y-125962492I0J150000D01*
G01*
G37*
G36*
G01*
X115768742Y-125962492D02*
X115768742Y-125412492D01*
G75*
G02*
X115918742Y-125262492I150000J0D01*
G01*
X116218742Y-125262492D01*
G75*
G02*
X116368742Y-125412492I0J-150000D01*
G01*
X116368742Y-125962492D01*
G75*
G02*
X116218742Y-126112492I-150000J0D01*
G01*
X115918742Y-126112492D01*
G75*
G02*
X115768742Y-125962492I0J150000D01*
G01*
G37*
G36*
G01*
X116968742Y-125962492D02*
X116968742Y-125412492D01*
G75*
G02*
X117118742Y-125262492I150000J0D01*
G01*
X117418742Y-125262492D01*
G75*
G02*
X117568742Y-125412492I0J-150000D01*
G01*
X117568742Y-125962492D01*
G75*
G02*
X117418742Y-126112492I-150000J0D01*
G01*
X117118742Y-126112492D01*
G75*
G02*
X116968742Y-125962492I0J150000D01*
G01*
G37*
G36*
G01*
X118168742Y-125962492D02*
X118168742Y-125412492D01*
G75*
G02*
X118318742Y-125262492I150000J0D01*
G01*
X118618742Y-125262492D01*
G75*
G02*
X118768742Y-125412492I0J-150000D01*
G01*
X118768742Y-125962492D01*
G75*
G02*
X118618742Y-126112492I-150000J0D01*
G01*
X118318742Y-126112492D01*
G75*
G02*
X118168742Y-125962492I0J150000D01*
G01*
G37*
G36*
G01*
X113368742Y-122137492D02*
X113368742Y-121687492D01*
G75*
G02*
X113543742Y-121512492I175000J0D01*
G01*
X113893742Y-121512492D01*
G75*
G02*
X114068742Y-121687492I0J-175000D01*
G01*
X114068742Y-122137492D01*
G75*
G02*
X113893742Y-122312492I-175000J0D01*
G01*
X113543742Y-122312492D01*
G75*
G02*
X113368742Y-122137492I0J175000D01*
G01*
G37*
G36*
G01*
X119268742Y-122137492D02*
X119268742Y-121687492D01*
G75*
G02*
X119443742Y-121512492I175000J0D01*
G01*
X119793742Y-121512492D01*
G75*
G02*
X119968742Y-121687492I0J-175000D01*
G01*
X119968742Y-122137492D01*
G75*
G02*
X119793742Y-122312492I-175000J0D01*
G01*
X119443742Y-122312492D01*
G75*
G02*
X119268742Y-122137492I0J175000D01*
G01*
G37*
%TD*%
D10*
%TO.C,REF\u002A\u002A*%
X123806250Y-165405000D03*
X100006250Y-165405000D03*
D11*
X123806250Y-150165000D03*
X100006250Y-150165000D03*
%TD*%
%TO.C,REF\u002A\u002A*%
X209531250Y-183185000D03*
X185731250Y-183185000D03*
D10*
X209531250Y-167945000D03*
X185731250Y-167945000D03*
%TD*%
%TO.C,C1*%
G36*
G01*
X170700000Y-169315770D02*
X170200000Y-169315770D01*
G75*
G02*
X169975000Y-169090770I0J225000D01*
G01*
X169975000Y-168640770D01*
G75*
G02*
X170200000Y-168415770I225000J0D01*
G01*
X170700000Y-168415770D01*
G75*
G02*
X170925000Y-168640770I0J-225000D01*
G01*
X170925000Y-169090770D01*
G75*
G02*
X170700000Y-169315770I-225000J0D01*
G01*
G37*
G36*
G01*
X170700000Y-167765770D02*
X170200000Y-167765770D01*
G75*
G02*
X169975000Y-167540770I0J225000D01*
G01*
X169975000Y-167090770D01*
G75*
G02*
X170200000Y-166865770I225000J0D01*
G01*
X170700000Y-166865770D01*
G75*
G02*
X170925000Y-167090770I0J-225000D01*
G01*
X170925000Y-167540770D01*
G75*
G02*
X170700000Y-167765770I-225000J0D01*
G01*
G37*
%TD*%
%TO.C,C2*%
G36*
G01*
X180920000Y-167940770D02*
X180580000Y-167940770D01*
G75*
G02*
X180440000Y-167800770I0J140000D01*
G01*
X180440000Y-167520770D01*
G75*
G02*
X180580000Y-167380770I140000J0D01*
G01*
X180920000Y-167380770D01*
G75*
G02*
X181060000Y-167520770I0J-140000D01*
G01*
X181060000Y-167800770D01*
G75*
G02*
X180920000Y-167940770I-140000J0D01*
G01*
G37*
G36*
G01*
X180920000Y-168900770D02*
X180580000Y-168900770D01*
G75*
G02*
X180440000Y-168760770I0J140000D01*
G01*
X180440000Y-168480770D01*
G75*
G02*
X180580000Y-168340770I140000J0D01*
G01*
X180920000Y-168340770D01*
G75*
G02*
X181060000Y-168480770I0J-140000D01*
G01*
X181060000Y-168760770D01*
G75*
G02*
X180920000Y-168900770I-140000J0D01*
G01*
G37*
%TD*%
%TO.C,C3*%
G36*
G01*
X181920000Y-168900770D02*
X181580000Y-168900770D01*
G75*
G02*
X181440000Y-168760770I0J140000D01*
G01*
X181440000Y-168480770D01*
G75*
G02*
X181580000Y-168340770I140000J0D01*
G01*
X181920000Y-168340770D01*
G75*
G02*
X182060000Y-168480770I0J-140000D01*
G01*
X182060000Y-168760770D01*
G75*
G02*
X181920000Y-168900770I-140000J0D01*
G01*
G37*
G36*
G01*
X181920000Y-167940770D02*
X181580000Y-167940770D01*
G75*
G02*
X181440000Y-167800770I0J140000D01*
G01*
X181440000Y-167520770D01*
G75*
G02*
X181580000Y-167380770I140000J0D01*
G01*
X181920000Y-167380770D01*
G75*
G02*
X182060000Y-167520770I0J-140000D01*
G01*
X182060000Y-167800770D01*
G75*
G02*
X181920000Y-167940770I-140000J0D01*
G01*
G37*
%TD*%
%TO.C,C4*%
G36*
G01*
X180085000Y-177310770D02*
X180085000Y-176970770D01*
G75*
G02*
X180225000Y-176830770I140000J0D01*
G01*
X180505000Y-176830770D01*
G75*
G02*
X180645000Y-176970770I0J-140000D01*
G01*
X180645000Y-177310770D01*
G75*
G02*
X180505000Y-177450770I-140000J0D01*
G01*
X180225000Y-177450770D01*
G75*
G02*
X180085000Y-177310770I0J140000D01*
G01*
G37*
G36*
G01*
X181045000Y-177310770D02*
X181045000Y-176970770D01*
G75*
G02*
X181185000Y-176830770I140000J0D01*
G01*
X181465000Y-176830770D01*
G75*
G02*
X181605000Y-176970770I0J-140000D01*
G01*
X181605000Y-177310770D01*
G75*
G02*
X181465000Y-177450770I-140000J0D01*
G01*
X181185000Y-177450770D01*
G75*
G02*
X181045000Y-177310770I0J140000D01*
G01*
G37*
%TD*%
%TO.C,C5*%
G36*
G01*
X173175000Y-176640770D02*
X173175000Y-177140770D01*
G75*
G02*
X172950000Y-177365770I-225000J0D01*
G01*
X172500000Y-177365770D01*
G75*
G02*
X172275000Y-177140770I0J225000D01*
G01*
X172275000Y-176640770D01*
G75*
G02*
X172500000Y-176415770I225000J0D01*
G01*
X172950000Y-176415770D01*
G75*
G02*
X173175000Y-176640770I0J-225000D01*
G01*
G37*
G36*
G01*
X174725000Y-176640770D02*
X174725000Y-177140770D01*
G75*
G02*
X174500000Y-177365770I-225000J0D01*
G01*
X174050000Y-177365770D01*
G75*
G02*
X173825000Y-177140770I0J225000D01*
G01*
X173825000Y-176640770D01*
G75*
G02*
X174050000Y-176415770I225000J0D01*
G01*
X174500000Y-176415770D01*
G75*
G02*
X174725000Y-176640770I0J-225000D01*
G01*
G37*
%TD*%
%TO.C,C6*%
G36*
G01*
X172200000Y-169315770D02*
X171700000Y-169315770D01*
G75*
G02*
X171475000Y-169090770I0J225000D01*
G01*
X171475000Y-168640770D01*
G75*
G02*
X171700000Y-168415770I225000J0D01*
G01*
X172200000Y-168415770D01*
G75*
G02*
X172425000Y-168640770I0J-225000D01*
G01*
X172425000Y-169090770D01*
G75*
G02*
X172200000Y-169315770I-225000J0D01*
G01*
G37*
G36*
G01*
X172200000Y-167765770D02*
X171700000Y-167765770D01*
G75*
G02*
X171475000Y-167540770I0J225000D01*
G01*
X171475000Y-167090770D01*
G75*
G02*
X171700000Y-166865770I225000J0D01*
G01*
X172200000Y-166865770D01*
G75*
G02*
X172425000Y-167090770I0J-225000D01*
G01*
X172425000Y-167540770D01*
G75*
G02*
X172200000Y-167765770I-225000J0D01*
G01*
G37*
%TD*%
%TO.C,C7*%
G36*
G01*
X176214000Y-167881770D02*
X176714000Y-167881770D01*
G75*
G02*
X176939000Y-168106770I0J-225000D01*
G01*
X176939000Y-168556770D01*
G75*
G02*
X176714000Y-168781770I-225000J0D01*
G01*
X176214000Y-168781770D01*
G75*
G02*
X175989000Y-168556770I0J225000D01*
G01*
X175989000Y-168106770D01*
G75*
G02*
X176214000Y-167881770I225000J0D01*
G01*
G37*
G36*
G01*
X176214000Y-166331770D02*
X176714000Y-166331770D01*
G75*
G02*
X176939000Y-166556770I0J-225000D01*
G01*
X176939000Y-167006770D01*
G75*
G02*
X176714000Y-167231770I-225000J0D01*
G01*
X176214000Y-167231770D01*
G75*
G02*
X175989000Y-167006770I0J225000D01*
G01*
X175989000Y-166556770D01*
G75*
G02*
X176214000Y-166331770I225000J0D01*
G01*
G37*
%TD*%
%TO.C,C8*%
G36*
G01*
X177943000Y-177212770D02*
X177943000Y-177712770D01*
G75*
G02*
X177718000Y-177937770I-225000J0D01*
G01*
X177268000Y-177937770D01*
G75*
G02*
X177043000Y-177712770I0J225000D01*
G01*
X177043000Y-177212770D01*
G75*
G02*
X177268000Y-176987770I225000J0D01*
G01*
X177718000Y-176987770D01*
G75*
G02*
X177943000Y-177212770I0J-225000D01*
G01*
G37*
G36*
G01*
X176393000Y-177212770D02*
X176393000Y-177712770D01*
G75*
G02*
X176168000Y-177937770I-225000J0D01*
G01*
X175718000Y-177937770D01*
G75*
G02*
X175493000Y-177712770I0J225000D01*
G01*
X175493000Y-177212770D01*
G75*
G02*
X175718000Y-176987770I225000J0D01*
G01*
X176168000Y-176987770D01*
G75*
G02*
X176393000Y-177212770I0J-225000D01*
G01*
G37*
%TD*%
%TO.C,C9*%
G36*
G01*
X184250000Y-174920770D02*
X184250000Y-175260770D01*
G75*
G02*
X184110000Y-175400770I-140000J0D01*
G01*
X183830000Y-175400770D01*
G75*
G02*
X183690000Y-175260770I0J140000D01*
G01*
X183690000Y-174920770D01*
G75*
G02*
X183830000Y-174780770I140000J0D01*
G01*
X184110000Y-174780770D01*
G75*
G02*
X184250000Y-174920770I0J-140000D01*
G01*
G37*
G36*
G01*
X185210000Y-174920770D02*
X185210000Y-175260770D01*
G75*
G02*
X185070000Y-175400770I-140000J0D01*
G01*
X184790000Y-175400770D01*
G75*
G02*
X184650000Y-175260770I0J140000D01*
G01*
X184650000Y-174920770D01*
G75*
G02*
X184790000Y-174780770I140000J0D01*
G01*
X185070000Y-174780770D01*
G75*
G02*
X185210000Y-174920770I0J-140000D01*
G01*
G37*
%TD*%
%TO.C,C10*%
G36*
G01*
X175190000Y-167231770D02*
X174690000Y-167231770D01*
G75*
G02*
X174465000Y-167006770I0J225000D01*
G01*
X174465000Y-166556770D01*
G75*
G02*
X174690000Y-166331770I225000J0D01*
G01*
X175190000Y-166331770D01*
G75*
G02*
X175415000Y-166556770I0J-225000D01*
G01*
X175415000Y-167006770D01*
G75*
G02*
X175190000Y-167231770I-225000J0D01*
G01*
G37*
G36*
G01*
X175190000Y-168781770D02*
X174690000Y-168781770D01*
G75*
G02*
X174465000Y-168556770I0J225000D01*
G01*
X174465000Y-168106770D01*
G75*
G02*
X174690000Y-167881770I225000J0D01*
G01*
X175190000Y-167881770D01*
G75*
G02*
X175415000Y-168106770I0J-225000D01*
G01*
X175415000Y-168556770D01*
G75*
G02*
X175190000Y-168781770I-225000J0D01*
G01*
G37*
%TD*%
%TO.C,C11*%
G36*
G01*
X183680000Y-172810770D02*
X183680000Y-172470770D01*
G75*
G02*
X183820000Y-172330770I140000J0D01*
G01*
X184100000Y-172330770D01*
G75*
G02*
X184240000Y-172470770I0J-140000D01*
G01*
X184240000Y-172810770D01*
G75*
G02*
X184100000Y-172950770I-140000J0D01*
G01*
X183820000Y-172950770D01*
G75*
G02*
X183680000Y-172810770I0J140000D01*
G01*
G37*
G36*
G01*
X182720000Y-172810770D02*
X182720000Y-172470770D01*
G75*
G02*
X182860000Y-172330770I140000J0D01*
G01*
X183140000Y-172330770D01*
G75*
G02*
X183280000Y-172470770I0J-140000D01*
G01*
X183280000Y-172810770D01*
G75*
G02*
X183140000Y-172950770I-140000J0D01*
G01*
X182860000Y-172950770D01*
G75*
G02*
X182720000Y-172810770I0J140000D01*
G01*
G37*
%TD*%
%TO.C,C12*%
G36*
G01*
X183649000Y-176235770D02*
X183649000Y-175895770D01*
G75*
G02*
X183789000Y-175755770I140000J0D01*
G01*
X184069000Y-175755770D01*
G75*
G02*
X184209000Y-175895770I0J-140000D01*
G01*
X184209000Y-176235770D01*
G75*
G02*
X184069000Y-176375770I-140000J0D01*
G01*
X183789000Y-176375770D01*
G75*
G02*
X183649000Y-176235770I0J140000D01*
G01*
G37*
G36*
G01*
X182689000Y-176235770D02*
X182689000Y-175895770D01*
G75*
G02*
X182829000Y-175755770I140000J0D01*
G01*
X183109000Y-175755770D01*
G75*
G02*
X183249000Y-175895770I0J-140000D01*
G01*
X183249000Y-176235770D01*
G75*
G02*
X183109000Y-176375770I-140000J0D01*
G01*
X182829000Y-176375770D01*
G75*
G02*
X182689000Y-176235770I0J140000D01*
G01*
G37*
%TD*%
%TO.C,C13*%
G36*
G01*
X174710000Y-175420770D02*
X174710000Y-175760770D01*
G75*
G02*
X174570000Y-175900770I-140000J0D01*
G01*
X174290000Y-175900770D01*
G75*
G02*
X174150000Y-175760770I0J140000D01*
G01*
X174150000Y-175420770D01*
G75*
G02*
X174290000Y-175280770I140000J0D01*
G01*
X174570000Y-175280770D01*
G75*
G02*
X174710000Y-175420770I0J-140000D01*
G01*
G37*
G36*
G01*
X173750000Y-175420770D02*
X173750000Y-175760770D01*
G75*
G02*
X173610000Y-175900770I-140000J0D01*
G01*
X173330000Y-175900770D01*
G75*
G02*
X173190000Y-175760770I0J140000D01*
G01*
X173190000Y-175420770D01*
G75*
G02*
X173330000Y-175280770I140000J0D01*
G01*
X173610000Y-175280770D01*
G75*
G02*
X173750000Y-175420770I0J-140000D01*
G01*
G37*
%TD*%
%TO.C,C14*%
G36*
G01*
X172410000Y-175420770D02*
X172410000Y-175760770D01*
G75*
G02*
X172270000Y-175900770I-140000J0D01*
G01*
X171990000Y-175900770D01*
G75*
G02*
X171850000Y-175760770I0J140000D01*
G01*
X171850000Y-175420770D01*
G75*
G02*
X171990000Y-175280770I140000J0D01*
G01*
X172270000Y-175280770D01*
G75*
G02*
X172410000Y-175420770I0J-140000D01*
G01*
G37*
G36*
G01*
X171450000Y-175420770D02*
X171450000Y-175760770D01*
G75*
G02*
X171310000Y-175900770I-140000J0D01*
G01*
X171030000Y-175900770D01*
G75*
G02*
X170890000Y-175760770I0J140000D01*
G01*
X170890000Y-175420770D01*
G75*
G02*
X171030000Y-175280770I140000J0D01*
G01*
X171310000Y-175280770D01*
G75*
G02*
X171450000Y-175420770I0J-140000D01*
G01*
G37*
%TD*%
%TO.C,C15*%
G36*
G01*
X169920000Y-173690770D02*
X169580000Y-173690770D01*
G75*
G02*
X169440000Y-173550770I0J140000D01*
G01*
X169440000Y-173270770D01*
G75*
G02*
X169580000Y-173130770I140000J0D01*
G01*
X169920000Y-173130770D01*
G75*
G02*
X170060000Y-173270770I0J-140000D01*
G01*
X170060000Y-173550770D01*
G75*
G02*
X169920000Y-173690770I-140000J0D01*
G01*
G37*
G36*
G01*
X169920000Y-174650770D02*
X169580000Y-174650770D01*
G75*
G02*
X169440000Y-174510770I0J140000D01*
G01*
X169440000Y-174230770D01*
G75*
G02*
X169580000Y-174090770I140000J0D01*
G01*
X169920000Y-174090770D01*
G75*
G02*
X170060000Y-174230770I0J-140000D01*
G01*
X170060000Y-174510770D01*
G75*
G02*
X169920000Y-174650770I-140000J0D01*
G01*
G37*
%TD*%
%TO.C,C16*%
G36*
G01*
X193311250Y-184230000D02*
X193651250Y-184230000D01*
G75*
G02*
X193791250Y-184370000I0J-140000D01*
G01*
X193791250Y-184650000D01*
G75*
G02*
X193651250Y-184790000I-140000J0D01*
G01*
X193311250Y-184790000D01*
G75*
G02*
X193171250Y-184650000I0J140000D01*
G01*
X193171250Y-184370000D01*
G75*
G02*
X193311250Y-184230000I140000J0D01*
G01*
G37*
G36*
G01*
X193311250Y-185190000D02*
X193651250Y-185190000D01*
G75*
G02*
X193791250Y-185330000I0J-140000D01*
G01*
X193791250Y-185610000D01*
G75*
G02*
X193651250Y-185750000I-140000J0D01*
G01*
X193311250Y-185750000D01*
G75*
G02*
X193171250Y-185610000I0J140000D01*
G01*
X193171250Y-185330000D01*
G75*
G02*
X193311250Y-185190000I140000J0D01*
G01*
G37*
%TD*%
%TO.C,C17*%
G36*
G01*
X185830000Y-174340770D02*
X186170000Y-174340770D01*
G75*
G02*
X186310000Y-174480770I0J-140000D01*
G01*
X186310000Y-174760770D01*
G75*
G02*
X186170000Y-174900770I-140000J0D01*
G01*
X185830000Y-174900770D01*
G75*
G02*
X185690000Y-174760770I0J140000D01*
G01*
X185690000Y-174480770D01*
G75*
G02*
X185830000Y-174340770I140000J0D01*
G01*
G37*
G36*
G01*
X185830000Y-173380770D02*
X186170000Y-173380770D01*
G75*
G02*
X186310000Y-173520770I0J-140000D01*
G01*
X186310000Y-173800770D01*
G75*
G02*
X186170000Y-173940770I-140000J0D01*
G01*
X185830000Y-173940770D01*
G75*
G02*
X185690000Y-173800770I0J140000D01*
G01*
X185690000Y-173520770D01*
G75*
G02*
X185830000Y-173380770I140000J0D01*
G01*
G37*
%TD*%
%TO.C,C18*%
G36*
G01*
X182830000Y-173380770D02*
X183170000Y-173380770D01*
G75*
G02*
X183310000Y-173520770I0J-140000D01*
G01*
X183310000Y-173800770D01*
G75*
G02*
X183170000Y-173940770I-140000J0D01*
G01*
X182830000Y-173940770D01*
G75*
G02*
X182690000Y-173800770I0J140000D01*
G01*
X182690000Y-173520770D01*
G75*
G02*
X182830000Y-173380770I140000J0D01*
G01*
G37*
G36*
G01*
X182830000Y-174340770D02*
X183170000Y-174340770D01*
G75*
G02*
X183310000Y-174480770I0J-140000D01*
G01*
X183310000Y-174760770D01*
G75*
G02*
X183170000Y-174900770I-140000J0D01*
G01*
X182830000Y-174900770D01*
G75*
G02*
X182690000Y-174760770I0J140000D01*
G01*
X182690000Y-174480770D01*
G75*
G02*
X182830000Y-174340770I140000J0D01*
G01*
G37*
%TD*%
%TO.C,C19*%
G36*
G01*
X184785000Y-179650770D02*
X184445000Y-179650770D01*
G75*
G02*
X184305000Y-179510770I0J140000D01*
G01*
X184305000Y-179230770D01*
G75*
G02*
X184445000Y-179090770I140000J0D01*
G01*
X184785000Y-179090770D01*
G75*
G02*
X184925000Y-179230770I0J-140000D01*
G01*
X184925000Y-179510770D01*
G75*
G02*
X184785000Y-179650770I-140000J0D01*
G01*
G37*
G36*
G01*
X184785000Y-178690770D02*
X184445000Y-178690770D01*
G75*
G02*
X184305000Y-178550770I0J140000D01*
G01*
X184305000Y-178270770D01*
G75*
G02*
X184445000Y-178130770I140000J0D01*
G01*
X184785000Y-178130770D01*
G75*
G02*
X184925000Y-178270770I0J-140000D01*
G01*
X184925000Y-178550770D01*
G75*
G02*
X184785000Y-178690770I-140000J0D01*
G01*
G37*
%TD*%
%TO.C,C20*%
G36*
G01*
X180445000Y-179090770D02*
X180785000Y-179090770D01*
G75*
G02*
X180925000Y-179230770I0J-140000D01*
G01*
X180925000Y-179510770D01*
G75*
G02*
X180785000Y-179650770I-140000J0D01*
G01*
X180445000Y-179650770D01*
G75*
G02*
X180305000Y-179510770I0J140000D01*
G01*
X180305000Y-179230770D01*
G75*
G02*
X180445000Y-179090770I140000J0D01*
G01*
G37*
G36*
G01*
X180445000Y-178130770D02*
X180785000Y-178130770D01*
G75*
G02*
X180925000Y-178270770I0J-140000D01*
G01*
X180925000Y-178550770D01*
G75*
G02*
X180785000Y-178690770I-140000J0D01*
G01*
X180445000Y-178690770D01*
G75*
G02*
X180305000Y-178550770I0J140000D01*
G01*
X180305000Y-178270770D01*
G75*
G02*
X180445000Y-178130770I140000J0D01*
G01*
G37*
%TD*%
%TO.C,D1*%
G36*
G01*
X103987500Y-101756250D02*
X103987500Y-103006250D01*
G75*
G02*
X103737500Y-103256250I-250000J0D01*
G01*
X102987500Y-103256250D01*
G75*
G02*
X102737500Y-103006250I0J250000D01*
G01*
X102737500Y-101756250D01*
G75*
G02*
X102987500Y-101506250I250000J0D01*
G01*
X103737500Y-101506250D01*
G75*
G02*
X103987500Y-101756250I0J-250000D01*
G01*
G37*
G36*
G01*
X106787500Y-101756250D02*
X106787500Y-103006250D01*
G75*
G02*
X106537500Y-103256250I-250000J0D01*
G01*
X105787500Y-103256250D01*
G75*
G02*
X105537500Y-103006250I0J250000D01*
G01*
X105537500Y-101756250D01*
G75*
G02*
X105787500Y-101506250I250000J0D01*
G01*
X106537500Y-101506250D01*
G75*
G02*
X106787500Y-101756250I0J-250000D01*
G01*
G37*
%TD*%
%TO.C,D2*%
G36*
G01*
X127414085Y-102025000D02*
X126164085Y-102025000D01*
G75*
G02*
X125914085Y-101775000I0J250000D01*
G01*
X125914085Y-101025000D01*
G75*
G02*
X126164085Y-100775000I250000J0D01*
G01*
X127414085Y-100775000D01*
G75*
G02*
X127664085Y-101025000I0J-250000D01*
G01*
X127664085Y-101775000D01*
G75*
G02*
X127414085Y-102025000I-250000J0D01*
G01*
G37*
G36*
G01*
X127414085Y-99225000D02*
X126164085Y-99225000D01*
G75*
G02*
X125914085Y-98975000I0J250000D01*
G01*
X125914085Y-98225000D01*
G75*
G02*
X126164085Y-97975000I250000J0D01*
G01*
X127414085Y-97975000D01*
G75*
G02*
X127664085Y-98225000I0J-250000D01*
G01*
X127664085Y-98975000D01*
G75*
G02*
X127414085Y-99225000I-250000J0D01*
G01*
G37*
%TD*%
%TO.C,D3*%
G36*
G01*
X146464101Y-102025000D02*
X145214101Y-102025000D01*
G75*
G02*
X144964101Y-101775000I0J250000D01*
G01*
X144964101Y-101025000D01*
G75*
G02*
X145214101Y-100775000I250000J0D01*
G01*
X146464101Y-100775000D01*
G75*
G02*
X146714101Y-101025000I0J-250000D01*
G01*
X146714101Y-101775000D01*
G75*
G02*
X146464101Y-102025000I-250000J0D01*
G01*
G37*
G36*
G01*
X146464101Y-99225000D02*
X145214101Y-99225000D01*
G75*
G02*
X144964101Y-98975000I0J250000D01*
G01*
X144964101Y-98225000D01*
G75*
G02*
X145214101Y-97975000I250000J0D01*
G01*
X146464101Y-97975000D01*
G75*
G02*
X146714101Y-98225000I0J-250000D01*
G01*
X146714101Y-98975000D01*
G75*
G02*
X146464101Y-99225000I-250000J0D01*
G01*
G37*
%TD*%
%TO.C,D4*%
G36*
G01*
X165514117Y-99225000D02*
X164264117Y-99225000D01*
G75*
G02*
X164014117Y-98975000I0J250000D01*
G01*
X164014117Y-98225000D01*
G75*
G02*
X164264117Y-97975000I250000J0D01*
G01*
X165514117Y-97975000D01*
G75*
G02*
X165764117Y-98225000I0J-250000D01*
G01*
X165764117Y-98975000D01*
G75*
G02*
X165514117Y-99225000I-250000J0D01*
G01*
G37*
G36*
G01*
X165514117Y-102025000D02*
X164264117Y-102025000D01*
G75*
G02*
X164014117Y-101775000I0J250000D01*
G01*
X164014117Y-101025000D01*
G75*
G02*
X164264117Y-100775000I250000J0D01*
G01*
X165514117Y-100775000D01*
G75*
G02*
X165764117Y-101025000I0J-250000D01*
G01*
X165764117Y-101775000D01*
G75*
G02*
X165514117Y-102025000I-250000J0D01*
G01*
G37*
%TD*%
%TO.C,D5*%
G36*
G01*
X184564133Y-99225000D02*
X183314133Y-99225000D01*
G75*
G02*
X183064133Y-98975000I0J250000D01*
G01*
X183064133Y-98225000D01*
G75*
G02*
X183314133Y-97975000I250000J0D01*
G01*
X184564133Y-97975000D01*
G75*
G02*
X184814133Y-98225000I0J-250000D01*
G01*
X184814133Y-98975000D01*
G75*
G02*
X184564133Y-99225000I-250000J0D01*
G01*
G37*
G36*
G01*
X184564133Y-102025000D02*
X183314133Y-102025000D01*
G75*
G02*
X183064133Y-101775000I0J250000D01*
G01*
X183064133Y-101025000D01*
G75*
G02*
X183314133Y-100775000I250000J0D01*
G01*
X184564133Y-100775000D01*
G75*
G02*
X184814133Y-101025000I0J-250000D01*
G01*
X184814133Y-101775000D01*
G75*
G02*
X184564133Y-102025000I-250000J0D01*
G01*
G37*
%TD*%
%TO.C,D6*%
G36*
G01*
X203614149Y-102025000D02*
X202364149Y-102025000D01*
G75*
G02*
X202114149Y-101775000I0J250000D01*
G01*
X202114149Y-101025000D01*
G75*
G02*
X202364149Y-100775000I250000J0D01*
G01*
X203614149Y-100775000D01*
G75*
G02*
X203864149Y-101025000I0J-250000D01*
G01*
X203864149Y-101775000D01*
G75*
G02*
X203614149Y-102025000I-250000J0D01*
G01*
G37*
G36*
G01*
X203614149Y-99225000D02*
X202364149Y-99225000D01*
G75*
G02*
X202114149Y-98975000I0J250000D01*
G01*
X202114149Y-98225000D01*
G75*
G02*
X202364149Y-97975000I250000J0D01*
G01*
X203614149Y-97975000D01*
G75*
G02*
X203864149Y-98225000I0J-250000D01*
G01*
X203864149Y-98975000D01*
G75*
G02*
X203614149Y-99225000I-250000J0D01*
G01*
G37*
%TD*%
%TO.C,D7*%
G36*
G01*
X216442287Y-103006252D02*
X216442287Y-101756252D01*
G75*
G02*
X216692287Y-101506252I250000J0D01*
G01*
X217442287Y-101506252D01*
G75*
G02*
X217692287Y-101756252I0J-250000D01*
G01*
X217692287Y-103006252D01*
G75*
G02*
X217442287Y-103256252I-250000J0D01*
G01*
X216692287Y-103256252D01*
G75*
G02*
X216442287Y-103006252I0J250000D01*
G01*
G37*
G36*
G01*
X219242287Y-103006252D02*
X219242287Y-101756252D01*
G75*
G02*
X219492287Y-101506252I250000J0D01*
G01*
X220242287Y-101506252D01*
G75*
G02*
X220492287Y-101756252I0J-250000D01*
G01*
X220492287Y-103006252D01*
G75*
G02*
X220242287Y-103256252I-250000J0D01*
G01*
X219492287Y-103256252D01*
G75*
G02*
X219242287Y-103006252I0J250000D01*
G01*
G37*
%TD*%
%TO.C,D8*%
G36*
G01*
X108749992Y-120806242D02*
X108749992Y-122056242D01*
G75*
G02*
X108499992Y-122306242I-250000J0D01*
G01*
X107749992Y-122306242D01*
G75*
G02*
X107499992Y-122056242I0J250000D01*
G01*
X107499992Y-120806242D01*
G75*
G02*
X107749992Y-120556242I250000J0D01*
G01*
X108499992Y-120556242D01*
G75*
G02*
X108749992Y-120806242I0J-250000D01*
G01*
G37*
G36*
G01*
X111549992Y-120806242D02*
X111549992Y-122056242D01*
G75*
G02*
X111299992Y-122306242I-250000J0D01*
G01*
X110549992Y-122306242D01*
G75*
G02*
X110299992Y-122056242I0J250000D01*
G01*
X110299992Y-120806242D01*
G75*
G02*
X110549992Y-120556242I250000J0D01*
G01*
X111299992Y-120556242D01*
G75*
G02*
X111549992Y-120806242I0J-250000D01*
G01*
G37*
%TD*%
%TO.C,D9*%
G36*
G01*
X136939093Y-121075016D02*
X135689093Y-121075016D01*
G75*
G02*
X135439093Y-120825016I0J250000D01*
G01*
X135439093Y-120075016D01*
G75*
G02*
X135689093Y-119825016I250000J0D01*
G01*
X136939093Y-119825016D01*
G75*
G02*
X137189093Y-120075016I0J-250000D01*
G01*
X137189093Y-120825016D01*
G75*
G02*
X136939093Y-121075016I-250000J0D01*
G01*
G37*
G36*
G01*
X136939093Y-118275016D02*
X135689093Y-118275016D01*
G75*
G02*
X135439093Y-118025016I0J250000D01*
G01*
X135439093Y-117275016D01*
G75*
G02*
X135689093Y-117025016I250000J0D01*
G01*
X136939093Y-117025016D01*
G75*
G02*
X137189093Y-117275016I0J-250000D01*
G01*
X137189093Y-118025016D01*
G75*
G02*
X136939093Y-118275016I-250000J0D01*
G01*
G37*
%TD*%
%TO.C,D10*%
G36*
G01*
X155989109Y-118275016D02*
X154739109Y-118275016D01*
G75*
G02*
X154489109Y-118025016I0J250000D01*
G01*
X154489109Y-117275016D01*
G75*
G02*
X154739109Y-117025016I250000J0D01*
G01*
X155989109Y-117025016D01*
G75*
G02*
X156239109Y-117275016I0J-250000D01*
G01*
X156239109Y-118025016D01*
G75*
G02*
X155989109Y-118275016I-250000J0D01*
G01*
G37*
G36*
G01*
X155989109Y-121075016D02*
X154739109Y-121075016D01*
G75*
G02*
X154489109Y-120825016I0J250000D01*
G01*
X154489109Y-120075016D01*
G75*
G02*
X154739109Y-119825016I250000J0D01*
G01*
X155989109Y-119825016D01*
G75*
G02*
X156239109Y-120075016I0J-250000D01*
G01*
X156239109Y-120825016D01*
G75*
G02*
X155989109Y-121075016I-250000J0D01*
G01*
G37*
%TD*%
%TO.C,D11*%
G36*
G01*
X175039125Y-121075016D02*
X173789125Y-121075016D01*
G75*
G02*
X173539125Y-120825016I0J250000D01*
G01*
X173539125Y-120075016D01*
G75*
G02*
X173789125Y-119825016I250000J0D01*
G01*
X175039125Y-119825016D01*
G75*
G02*
X175289125Y-120075016I0J-250000D01*
G01*
X175289125Y-120825016D01*
G75*
G02*
X175039125Y-121075016I-250000J0D01*
G01*
G37*
G36*
G01*
X175039125Y-118275016D02*
X173789125Y-118275016D01*
G75*
G02*
X173539125Y-118025016I0J250000D01*
G01*
X173539125Y-117275016D01*
G75*
G02*
X173789125Y-117025016I250000J0D01*
G01*
X175039125Y-117025016D01*
G75*
G02*
X175289125Y-117275016I0J-250000D01*
G01*
X175289125Y-118025016D01*
G75*
G02*
X175039125Y-118275016I-250000J0D01*
G01*
G37*
%TD*%
%TO.C,D12*%
G36*
G01*
X194089141Y-121075016D02*
X192839141Y-121075016D01*
G75*
G02*
X192589141Y-120825016I0J250000D01*
G01*
X192589141Y-120075016D01*
G75*
G02*
X192839141Y-119825016I250000J0D01*
G01*
X194089141Y-119825016D01*
G75*
G02*
X194339141Y-120075016I0J-250000D01*
G01*
X194339141Y-120825016D01*
G75*
G02*
X194089141Y-121075016I-250000J0D01*
G01*
G37*
G36*
G01*
X194089141Y-118275016D02*
X192839141Y-118275016D01*
G75*
G02*
X192589141Y-118025016I0J250000D01*
G01*
X192589141Y-117275016D01*
G75*
G02*
X192839141Y-117025016I250000J0D01*
G01*
X194089141Y-117025016D01*
G75*
G02*
X194339141Y-117275016I0J-250000D01*
G01*
X194339141Y-118025016D01*
G75*
G02*
X194089141Y-118275016I-250000J0D01*
G01*
G37*
%TD*%
%TO.C,D13*%
G36*
G01*
X209717279Y-122056268D02*
X209717279Y-120806268D01*
G75*
G02*
X209967279Y-120556268I250000J0D01*
G01*
X210717279Y-120556268D01*
G75*
G02*
X210967279Y-120806268I0J-250000D01*
G01*
X210967279Y-122056268D01*
G75*
G02*
X210717279Y-122306268I-250000J0D01*
G01*
X209967279Y-122306268D01*
G75*
G02*
X209717279Y-122056268I0J250000D01*
G01*
G37*
G36*
G01*
X206917279Y-122056268D02*
X206917279Y-120806268D01*
G75*
G02*
X207167279Y-120556268I250000J0D01*
G01*
X207917279Y-120556268D01*
G75*
G02*
X208167279Y-120806268I0J-250000D01*
G01*
X208167279Y-122056268D01*
G75*
G02*
X207917279Y-122306268I-250000J0D01*
G01*
X207167279Y-122306268D01*
G75*
G02*
X206917279Y-122056268I0J250000D01*
G01*
G37*
%TD*%
%TO.C,D14*%
G36*
G01*
X117889077Y-137325032D02*
X116639077Y-137325032D01*
G75*
G02*
X116389077Y-137075032I0J250000D01*
G01*
X116389077Y-136325032D01*
G75*
G02*
X116639077Y-136075032I250000J0D01*
G01*
X117889077Y-136075032D01*
G75*
G02*
X118139077Y-136325032I0J-250000D01*
G01*
X118139077Y-137075032D01*
G75*
G02*
X117889077Y-137325032I-250000J0D01*
G01*
G37*
G36*
G01*
X117889077Y-140125032D02*
X116639077Y-140125032D01*
G75*
G02*
X116389077Y-139875032I0J250000D01*
G01*
X116389077Y-139125032D01*
G75*
G02*
X116639077Y-138875032I250000J0D01*
G01*
X117889077Y-138875032D01*
G75*
G02*
X118139077Y-139125032I0J-250000D01*
G01*
X118139077Y-139875032D01*
G75*
G02*
X117889077Y-140125032I-250000J0D01*
G01*
G37*
%TD*%
%TO.C,D15*%
G36*
G01*
X141701597Y-137325032D02*
X140451597Y-137325032D01*
G75*
G02*
X140201597Y-137075032I0J250000D01*
G01*
X140201597Y-136325032D01*
G75*
G02*
X140451597Y-136075032I250000J0D01*
G01*
X141701597Y-136075032D01*
G75*
G02*
X141951597Y-136325032I0J-250000D01*
G01*
X141951597Y-137075032D01*
G75*
G02*
X141701597Y-137325032I-250000J0D01*
G01*
G37*
G36*
G01*
X141701597Y-140125032D02*
X140451597Y-140125032D01*
G75*
G02*
X140201597Y-139875032I0J250000D01*
G01*
X140201597Y-139125032D01*
G75*
G02*
X140451597Y-138875032I250000J0D01*
G01*
X141701597Y-138875032D01*
G75*
G02*
X141951597Y-139125032I0J-250000D01*
G01*
X141951597Y-139875032D01*
G75*
G02*
X141701597Y-140125032I-250000J0D01*
G01*
G37*
%TD*%
%TO.C,D16*%
G36*
G01*
X160751613Y-140125032D02*
X159501613Y-140125032D01*
G75*
G02*
X159251613Y-139875032I0J250000D01*
G01*
X159251613Y-139125032D01*
G75*
G02*
X159501613Y-138875032I250000J0D01*
G01*
X160751613Y-138875032D01*
G75*
G02*
X161001613Y-139125032I0J-250000D01*
G01*
X161001613Y-139875032D01*
G75*
G02*
X160751613Y-140125032I-250000J0D01*
G01*
G37*
G36*
G01*
X160751613Y-137325032D02*
X159501613Y-137325032D01*
G75*
G02*
X159251613Y-137075032I0J250000D01*
G01*
X159251613Y-136325032D01*
G75*
G02*
X159501613Y-136075032I250000J0D01*
G01*
X160751613Y-136075032D01*
G75*
G02*
X161001613Y-136325032I0J-250000D01*
G01*
X161001613Y-137075032D01*
G75*
G02*
X160751613Y-137325032I-250000J0D01*
G01*
G37*
%TD*%
%TO.C,D17*%
G36*
G01*
X179801629Y-140125032D02*
X178551629Y-140125032D01*
G75*
G02*
X178301629Y-139875032I0J250000D01*
G01*
X178301629Y-139125032D01*
G75*
G02*
X178551629Y-138875032I250000J0D01*
G01*
X179801629Y-138875032D01*
G75*
G02*
X180051629Y-139125032I0J-250000D01*
G01*
X180051629Y-139875032D01*
G75*
G02*
X179801629Y-140125032I-250000J0D01*
G01*
G37*
G36*
G01*
X179801629Y-137325032D02*
X178551629Y-137325032D01*
G75*
G02*
X178301629Y-137075032I0J250000D01*
G01*
X178301629Y-136325032D01*
G75*
G02*
X178551629Y-136075032I250000J0D01*
G01*
X179801629Y-136075032D01*
G75*
G02*
X180051629Y-136325032I0J-250000D01*
G01*
X180051629Y-137075032D01*
G75*
G02*
X179801629Y-137325032I-250000J0D01*
G01*
G37*
%TD*%
%TO.C,D18*%
G36*
G01*
X198851645Y-140125032D02*
X197601645Y-140125032D01*
G75*
G02*
X197351645Y-139875032I0J250000D01*
G01*
X197351645Y-139125032D01*
G75*
G02*
X197601645Y-138875032I250000J0D01*
G01*
X198851645Y-138875032D01*
G75*
G02*
X199101645Y-139125032I0J-250000D01*
G01*
X199101645Y-139875032D01*
G75*
G02*
X198851645Y-140125032I-250000J0D01*
G01*
G37*
G36*
G01*
X198851645Y-137325032D02*
X197601645Y-137325032D01*
G75*
G02*
X197351645Y-137075032I0J250000D01*
G01*
X197351645Y-136325032D01*
G75*
G02*
X197601645Y-136075032I250000J0D01*
G01*
X198851645Y-136075032D01*
G75*
G02*
X199101645Y-136325032I0J-250000D01*
G01*
X199101645Y-137075032D01*
G75*
G02*
X198851645Y-137325032I-250000J0D01*
G01*
G37*
%TD*%
%TO.C,D19*%
G36*
G01*
X214479783Y-141106284D02*
X214479783Y-139856284D01*
G75*
G02*
X214729783Y-139606284I250000J0D01*
G01*
X215479783Y-139606284D01*
G75*
G02*
X215729783Y-139856284I0J-250000D01*
G01*
X215729783Y-141106284D01*
G75*
G02*
X215479783Y-141356284I-250000J0D01*
G01*
X214729783Y-141356284D01*
G75*
G02*
X214479783Y-141106284I0J250000D01*
G01*
G37*
G36*
G01*
X211679783Y-141106284D02*
X211679783Y-139856284D01*
G75*
G02*
X211929783Y-139606284I250000J0D01*
G01*
X212679783Y-139606284D01*
G75*
G02*
X212929783Y-139856284I0J-250000D01*
G01*
X212929783Y-141106284D01*
G75*
G02*
X212679783Y-141356284I-250000J0D01*
G01*
X211929783Y-141356284D01*
G75*
G02*
X211679783Y-141106284I0J250000D01*
G01*
G37*
%TD*%
%TO.C,D20*%
G36*
G01*
X115893750Y-158906250D02*
X115893750Y-160156250D01*
G75*
G02*
X115643750Y-160406250I-250000J0D01*
G01*
X114893750Y-160406250D01*
G75*
G02*
X114643750Y-160156250I0J250000D01*
G01*
X114643750Y-158906250D01*
G75*
G02*
X114893750Y-158656250I250000J0D01*
G01*
X115643750Y-158656250D01*
G75*
G02*
X115893750Y-158906250I0J-250000D01*
G01*
G37*
G36*
G01*
X118693750Y-158906250D02*
X118693750Y-160156250D01*
G75*
G02*
X118443750Y-160406250I-250000J0D01*
G01*
X117693750Y-160406250D01*
G75*
G02*
X117443750Y-160156250I0J250000D01*
G01*
X117443750Y-158906250D01*
G75*
G02*
X117693750Y-158656250I250000J0D01*
G01*
X118443750Y-158656250D01*
G75*
G02*
X118693750Y-158906250I0J-250000D01*
G01*
G37*
%TD*%
%TO.C,D22*%
G36*
G01*
X151226605Y-156375048D02*
X149976605Y-156375048D01*
G75*
G02*
X149726605Y-156125048I0J250000D01*
G01*
X149726605Y-155375048D01*
G75*
G02*
X149976605Y-155125048I250000J0D01*
G01*
X151226605Y-155125048D01*
G75*
G02*
X151476605Y-155375048I0J-250000D01*
G01*
X151476605Y-156125048D01*
G75*
G02*
X151226605Y-156375048I-250000J0D01*
G01*
G37*
G36*
G01*
X151226605Y-159175048D02*
X149976605Y-159175048D01*
G75*
G02*
X149726605Y-158925048I0J250000D01*
G01*
X149726605Y-158175048D01*
G75*
G02*
X149976605Y-157925048I250000J0D01*
G01*
X151226605Y-157925048D01*
G75*
G02*
X151476605Y-158175048I0J-250000D01*
G01*
X151476605Y-158925048D01*
G75*
G02*
X151226605Y-159175048I-250000J0D01*
G01*
G37*
%TD*%
%TO.C,D23*%
G36*
G01*
X170276621Y-159175048D02*
X169026621Y-159175048D01*
G75*
G02*
X168776621Y-158925048I0J250000D01*
G01*
X168776621Y-158175048D01*
G75*
G02*
X169026621Y-157925048I250000J0D01*
G01*
X170276621Y-157925048D01*
G75*
G02*
X170526621Y-158175048I0J-250000D01*
G01*
X170526621Y-158925048D01*
G75*
G02*
X170276621Y-159175048I-250000J0D01*
G01*
G37*
G36*
G01*
X170276621Y-156375048D02*
X169026621Y-156375048D01*
G75*
G02*
X168776621Y-156125048I0J250000D01*
G01*
X168776621Y-155375048D01*
G75*
G02*
X169026621Y-155125048I250000J0D01*
G01*
X170276621Y-155125048D01*
G75*
G02*
X170526621Y-155375048I0J-250000D01*
G01*
X170526621Y-156125048D01*
G75*
G02*
X170276621Y-156375048I-250000J0D01*
G01*
G37*
%TD*%
%TO.C,D24*%
G36*
G01*
X189326637Y-159175048D02*
X188076637Y-159175048D01*
G75*
G02*
X187826637Y-158925048I0J250000D01*
G01*
X187826637Y-158175048D01*
G75*
G02*
X188076637Y-157925048I250000J0D01*
G01*
X189326637Y-157925048D01*
G75*
G02*
X189576637Y-158175048I0J-250000D01*
G01*
X189576637Y-158925048D01*
G75*
G02*
X189326637Y-159175048I-250000J0D01*
G01*
G37*
G36*
G01*
X189326637Y-156375048D02*
X188076637Y-156375048D01*
G75*
G02*
X187826637Y-156125048I0J250000D01*
G01*
X187826637Y-155375048D01*
G75*
G02*
X188076637Y-155125048I250000J0D01*
G01*
X189326637Y-155125048D01*
G75*
G02*
X189576637Y-155375048I0J-250000D01*
G01*
X189576637Y-156125048D01*
G75*
G02*
X189326637Y-156375048I-250000J0D01*
G01*
G37*
%TD*%
%TO.C,D25*%
G36*
G01*
X208376653Y-156375048D02*
X207126653Y-156375048D01*
G75*
G02*
X206876653Y-156125048I0J250000D01*
G01*
X206876653Y-155375048D01*
G75*
G02*
X207126653Y-155125048I250000J0D01*
G01*
X208376653Y-155125048D01*
G75*
G02*
X208626653Y-155375048I0J-250000D01*
G01*
X208626653Y-156125048D01*
G75*
G02*
X208376653Y-156375048I-250000J0D01*
G01*
G37*
G36*
G01*
X208376653Y-159175048D02*
X207126653Y-159175048D01*
G75*
G02*
X206876653Y-158925048I0J250000D01*
G01*
X206876653Y-158175048D01*
G75*
G02*
X207126653Y-157925048I250000J0D01*
G01*
X208376653Y-157925048D01*
G75*
G02*
X208626653Y-158175048I0J-250000D01*
G01*
X208626653Y-158925048D01*
G75*
G02*
X208376653Y-159175048I-250000J0D01*
G01*
G37*
%TD*%
%TO.C,D26*%
G36*
G01*
X221204791Y-160156300D02*
X221204791Y-158906300D01*
G75*
G02*
X221454791Y-158656300I250000J0D01*
G01*
X222204791Y-158656300D01*
G75*
G02*
X222454791Y-158906300I0J-250000D01*
G01*
X222454791Y-160156300D01*
G75*
G02*
X222204791Y-160406300I-250000J0D01*
G01*
X221454791Y-160406300D01*
G75*
G02*
X221204791Y-160156300I0J250000D01*
G01*
G37*
G36*
G01*
X224004791Y-160156300D02*
X224004791Y-158906300D01*
G75*
G02*
X224254791Y-158656300I250000J0D01*
G01*
X225004791Y-158656300D01*
G75*
G02*
X225254791Y-158906300I0J-250000D01*
G01*
X225254791Y-160156300D01*
G75*
G02*
X225004791Y-160406300I-250000J0D01*
G01*
X224254791Y-160406300D01*
G75*
G02*
X224004791Y-160156300I0J250000D01*
G01*
G37*
%TD*%
%TO.C,D27*%
G36*
G01*
X108900000Y-170393812D02*
X110150000Y-170393812D01*
G75*
G02*
X110400000Y-170643812I0J-250000D01*
G01*
X110400000Y-171393812D01*
G75*
G02*
X110150000Y-171643812I-250000J0D01*
G01*
X108900000Y-171643812D01*
G75*
G02*
X108650000Y-171393812I0J250000D01*
G01*
X108650000Y-170643812D01*
G75*
G02*
X108900000Y-170393812I250000J0D01*
G01*
G37*
G36*
G01*
X108900000Y-173193812D02*
X110150000Y-173193812D01*
G75*
G02*
X110400000Y-173443812I0J-250000D01*
G01*
X110400000Y-174193812D01*
G75*
G02*
X110150000Y-174443812I-250000J0D01*
G01*
X108900000Y-174443812D01*
G75*
G02*
X108650000Y-174193812I0J250000D01*
G01*
X108650000Y-173443812D01*
G75*
G02*
X108900000Y-173193812I250000J0D01*
G01*
G37*
%TD*%
%TO.C,D28*%
G36*
G01*
X132176589Y-177034438D02*
X130926589Y-177034438D01*
G75*
G02*
X130676589Y-176784438I0J250000D01*
G01*
X130676589Y-176034438D01*
G75*
G02*
X130926589Y-175784438I250000J0D01*
G01*
X132176589Y-175784438D01*
G75*
G02*
X132426589Y-176034438I0J-250000D01*
G01*
X132426589Y-176784438D01*
G75*
G02*
X132176589Y-177034438I-250000J0D01*
G01*
G37*
G36*
G01*
X132176589Y-174234438D02*
X130926589Y-174234438D01*
G75*
G02*
X130676589Y-173984438I0J250000D01*
G01*
X130676589Y-173234438D01*
G75*
G02*
X130926589Y-172984438I250000J0D01*
G01*
X132176589Y-172984438D01*
G75*
G02*
X132426589Y-173234438I0J-250000D01*
G01*
X132426589Y-173984438D01*
G75*
G02*
X132176589Y-174234438I-250000J0D01*
G01*
G37*
%TD*%
%TO.C,D29*%
G36*
G01*
X151226605Y-175425064D02*
X149976605Y-175425064D01*
G75*
G02*
X149726605Y-175175064I0J250000D01*
G01*
X149726605Y-174425064D01*
G75*
G02*
X149976605Y-174175064I250000J0D01*
G01*
X151226605Y-174175064D01*
G75*
G02*
X151476605Y-174425064I0J-250000D01*
G01*
X151476605Y-175175064D01*
G75*
G02*
X151226605Y-175425064I-250000J0D01*
G01*
G37*
G36*
G01*
X151226605Y-178225064D02*
X149976605Y-178225064D01*
G75*
G02*
X149726605Y-177975064I0J250000D01*
G01*
X149726605Y-177225064D01*
G75*
G02*
X149976605Y-176975064I250000J0D01*
G01*
X151226605Y-176975064D01*
G75*
G02*
X151476605Y-177225064I0J-250000D01*
G01*
X151476605Y-177975064D01*
G75*
G02*
X151226605Y-178225064I-250000J0D01*
G01*
G37*
%TD*%
%TO.C,D30*%
G36*
G01*
X169235899Y-179206316D02*
X169235899Y-177956316D01*
G75*
G02*
X169485899Y-177706316I250000J0D01*
G01*
X170235899Y-177706316D01*
G75*
G02*
X170485899Y-177956316I0J-250000D01*
G01*
X170485899Y-179206316D01*
G75*
G02*
X170235899Y-179456316I-250000J0D01*
G01*
X169485899Y-179456316D01*
G75*
G02*
X169235899Y-179206316I0J250000D01*
G01*
G37*
G36*
G01*
X166435899Y-179206316D02*
X166435899Y-177956316D01*
G75*
G02*
X166685899Y-177706316I250000J0D01*
G01*
X167435899Y-177706316D01*
G75*
G02*
X167685899Y-177956316I0J-250000D01*
G01*
X167685899Y-179206316D01*
G75*
G02*
X167435899Y-179456316I-250000J0D01*
G01*
X166685899Y-179456316D01*
G75*
G02*
X166435899Y-179206316I0J250000D01*
G01*
G37*
%TD*%
%TO.C,D31*%
G36*
G01*
X208078889Y-171853186D02*
X206828889Y-171853186D01*
G75*
G02*
X206578889Y-171603186I0J250000D01*
G01*
X206578889Y-170853186D01*
G75*
G02*
X206828889Y-170603186I250000J0D01*
G01*
X208078889Y-170603186D01*
G75*
G02*
X208328889Y-170853186I0J-250000D01*
G01*
X208328889Y-171603186D01*
G75*
G02*
X208078889Y-171853186I-250000J0D01*
G01*
G37*
G36*
G01*
X208078889Y-174653186D02*
X206828889Y-174653186D01*
G75*
G02*
X206578889Y-174403186I0J250000D01*
G01*
X206578889Y-173653186D01*
G75*
G02*
X206828889Y-173403186I250000J0D01*
G01*
X208078889Y-173403186D01*
G75*
G02*
X208328889Y-173653186I0J-250000D01*
G01*
X208328889Y-174403186D01*
G75*
G02*
X208078889Y-174653186I-250000J0D01*
G01*
G37*
%TD*%
%TO.C,D100*%
G36*
G01*
X213787500Y-169575000D02*
X213787500Y-170825000D01*
G75*
G02*
X213537500Y-171075000I-250000J0D01*
G01*
X212787500Y-171075000D01*
G75*
G02*
X212537500Y-170825000I0J250000D01*
G01*
X212537500Y-169575000D01*
G75*
G02*
X212787500Y-169325000I250000J0D01*
G01*
X213537500Y-169325000D01*
G75*
G02*
X213787500Y-169575000I0J-250000D01*
G01*
G37*
G36*
G01*
X216587500Y-169575000D02*
X216587500Y-170825000D01*
G75*
G02*
X216337500Y-171075000I-250000J0D01*
G01*
X215587500Y-171075000D01*
G75*
G02*
X215337500Y-170825000I0J250000D01*
G01*
X215337500Y-169575000D01*
G75*
G02*
X215587500Y-169325000I250000J0D01*
G01*
X216337500Y-169325000D01*
G75*
G02*
X216587500Y-169575000I0J-250000D01*
G01*
G37*
%TD*%
%TO.C,D101*%
G36*
G01*
X216587500Y-172575000D02*
X216587500Y-173825000D01*
G75*
G02*
X216337500Y-174075000I-250000J0D01*
G01*
X215587500Y-174075000D01*
G75*
G02*
X215337500Y-173825000I0J250000D01*
G01*
X215337500Y-172575000D01*
G75*
G02*
X215587500Y-172325000I250000J0D01*
G01*
X216337500Y-172325000D01*
G75*
G02*
X216587500Y-172575000I0J-250000D01*
G01*
G37*
G36*
G01*
X213787500Y-172575000D02*
X213787500Y-173825000D01*
G75*
G02*
X213537500Y-174075000I-250000J0D01*
G01*
X212787500Y-174075000D01*
G75*
G02*
X212537500Y-173825000I0J250000D01*
G01*
X212537500Y-172575000D01*
G75*
G02*
X212787500Y-172325000I250000J0D01*
G01*
X213537500Y-172325000D01*
G75*
G02*
X213787500Y-172575000I0J-250000D01*
G01*
G37*
%TD*%
%TO.C,D102*%
G36*
G01*
X216587500Y-175575064D02*
X216587500Y-176825064D01*
G75*
G02*
X216337500Y-177075064I-250000J0D01*
G01*
X215587500Y-177075064D01*
G75*
G02*
X215337500Y-176825064I0J250000D01*
G01*
X215337500Y-175575064D01*
G75*
G02*
X215587500Y-175325064I250000J0D01*
G01*
X216337500Y-175325064D01*
G75*
G02*
X216587500Y-175575064I0J-250000D01*
G01*
G37*
G36*
G01*
X213787500Y-175575064D02*
X213787500Y-176825064D01*
G75*
G02*
X213537500Y-177075064I-250000J0D01*
G01*
X212787500Y-177075064D01*
G75*
G02*
X212537500Y-176825064I0J250000D01*
G01*
X212537500Y-175575064D01*
G75*
G02*
X212787500Y-175325064I250000J0D01*
G01*
X213537500Y-175325064D01*
G75*
G02*
X213787500Y-175575064I0J-250000D01*
G01*
G37*
%TD*%
%TO.C,D103*%
G36*
G01*
X216587500Y-178575000D02*
X216587500Y-179825000D01*
G75*
G02*
X216337500Y-180075000I-250000J0D01*
G01*
X215587500Y-180075000D01*
G75*
G02*
X215337500Y-179825000I0J250000D01*
G01*
X215337500Y-178575000D01*
G75*
G02*
X215587500Y-178325000I250000J0D01*
G01*
X216337500Y-178325000D01*
G75*
G02*
X216587500Y-178575000I0J-250000D01*
G01*
G37*
G36*
G01*
X213787500Y-178575000D02*
X213787500Y-179825000D01*
G75*
G02*
X213537500Y-180075000I-250000J0D01*
G01*
X212787500Y-180075000D01*
G75*
G02*
X212537500Y-179825000I0J250000D01*
G01*
X212537500Y-178575000D01*
G75*
G02*
X212787500Y-178325000I250000J0D01*
G01*
X213537500Y-178325000D01*
G75*
G02*
X213787500Y-178575000I0J-250000D01*
G01*
G37*
%TD*%
%TO.C,D104*%
G36*
G01*
X213787500Y-181575000D02*
X213787500Y-182825000D01*
G75*
G02*
X213537500Y-183075000I-250000J0D01*
G01*
X212787500Y-183075000D01*
G75*
G02*
X212537500Y-182825000I0J250000D01*
G01*
X212537500Y-181575000D01*
G75*
G02*
X212787500Y-181325000I250000J0D01*
G01*
X213537500Y-181325000D01*
G75*
G02*
X213787500Y-181575000I0J-250000D01*
G01*
G37*
G36*
G01*
X216587500Y-181575000D02*
X216587500Y-182825000D01*
G75*
G02*
X216337500Y-183075000I-250000J0D01*
G01*
X215587500Y-183075000D01*
G75*
G02*
X215337500Y-182825000I0J250000D01*
G01*
X215337500Y-181575000D01*
G75*
G02*
X215587500Y-181325000I250000J0D01*
G01*
X216337500Y-181325000D01*
G75*
G02*
X216587500Y-181575000I0J-250000D01*
G01*
G37*
%TD*%
%TO.C,L1*%
G36*
G01*
X176020000Y-178560270D02*
X176020000Y-178905270D01*
G75*
G02*
X175872500Y-179052770I-147500J0D01*
G01*
X175577500Y-179052770D01*
G75*
G02*
X175430000Y-178905270I0J147500D01*
G01*
X175430000Y-178560270D01*
G75*
G02*
X175577500Y-178412770I147500J0D01*
G01*
X175872500Y-178412770D01*
G75*
G02*
X176020000Y-178560270I0J-147500D01*
G01*
G37*
G36*
G01*
X176990000Y-178560270D02*
X176990000Y-178905270D01*
G75*
G02*
X176842500Y-179052770I-147500J0D01*
G01*
X176547500Y-179052770D01*
G75*
G02*
X176400000Y-178905270I0J147500D01*
G01*
X176400000Y-178560270D01*
G75*
G02*
X176547500Y-178412770I147500J0D01*
G01*
X176842500Y-178412770D01*
G75*
G02*
X176990000Y-178560270I0J-147500D01*
G01*
G37*
%TD*%
%TO.C,L2*%
G36*
G01*
X173320000Y-178222520D02*
X173320000Y-178735020D01*
G75*
G02*
X173101250Y-178953770I-218750J0D01*
G01*
X172663750Y-178953770D01*
G75*
G02*
X172445000Y-178735020I0J218750D01*
G01*
X172445000Y-178222520D01*
G75*
G02*
X172663750Y-178003770I218750J0D01*
G01*
X173101250Y-178003770D01*
G75*
G02*
X173320000Y-178222520I0J-218750D01*
G01*
G37*
G36*
G01*
X174895000Y-178222520D02*
X174895000Y-178735020D01*
G75*
G02*
X174676250Y-178953770I-218750J0D01*
G01*
X174238750Y-178953770D01*
G75*
G02*
X174020000Y-178735020I0J218750D01*
G01*
X174020000Y-178222520D01*
G75*
G02*
X174238750Y-178003770I218750J0D01*
G01*
X174676250Y-178003770D01*
G75*
G02*
X174895000Y-178222520I0J-218750D01*
G01*
G37*
%TD*%
%TO.C,L3*%
G36*
G01*
X173706250Y-167740770D02*
X173193750Y-167740770D01*
G75*
G02*
X172975000Y-167522020I0J218750D01*
G01*
X172975000Y-167084520D01*
G75*
G02*
X173193750Y-166865770I218750J0D01*
G01*
X173706250Y-166865770D01*
G75*
G02*
X173925000Y-167084520I0J-218750D01*
G01*
X173925000Y-167522020D01*
G75*
G02*
X173706250Y-167740770I-218750J0D01*
G01*
G37*
G36*
G01*
X173706250Y-169315770D02*
X173193750Y-169315770D01*
G75*
G02*
X172975000Y-169097020I0J218750D01*
G01*
X172975000Y-168659520D01*
G75*
G02*
X173193750Y-168440770I218750J0D01*
G01*
X173706250Y-168440770D01*
G75*
G02*
X173925000Y-168659520I0J-218750D01*
G01*
X173925000Y-169097020D01*
G75*
G02*
X173706250Y-169315770I-218750J0D01*
G01*
G37*
%TD*%
%TO.C,L4*%
G36*
G01*
X185280000Y-173468270D02*
X185280000Y-173813270D01*
G75*
G02*
X185132500Y-173960770I-147500J0D01*
G01*
X184837500Y-173960770D01*
G75*
G02*
X184690000Y-173813270I0J147500D01*
G01*
X184690000Y-173468270D01*
G75*
G02*
X184837500Y-173320770I147500J0D01*
G01*
X185132500Y-173320770D01*
G75*
G02*
X185280000Y-173468270I0J-147500D01*
G01*
G37*
G36*
G01*
X184310000Y-173468270D02*
X184310000Y-173813270D01*
G75*
G02*
X184162500Y-173960770I-147500J0D01*
G01*
X183867500Y-173960770D01*
G75*
G02*
X183720000Y-173813270I0J147500D01*
G01*
X183720000Y-173468270D01*
G75*
G02*
X183867500Y-173320770I147500J0D01*
G01*
X184162500Y-173320770D01*
G75*
G02*
X184310000Y-173468270I0J-147500D01*
G01*
G37*
%TD*%
%TO.C,R1*%
G36*
G01*
X211787500Y-172925000D02*
X211787500Y-173475000D01*
G75*
G02*
X211587500Y-173675000I-200000J0D01*
G01*
X211187500Y-173675000D01*
G75*
G02*
X210987500Y-173475000I0J200000D01*
G01*
X210987500Y-172925000D01*
G75*
G02*
X211187500Y-172725000I200000J0D01*
G01*
X211587500Y-172725000D01*
G75*
G02*
X211787500Y-172925000I0J-200000D01*
G01*
G37*
G36*
G01*
X210137500Y-172925000D02*
X210137500Y-173475000D01*
G75*
G02*
X209937500Y-173675000I-200000J0D01*
G01*
X209537500Y-173675000D01*
G75*
G02*
X209337500Y-173475000I0J200000D01*
G01*
X209337500Y-172925000D01*
G75*
G02*
X209537500Y-172725000I200000J0D01*
G01*
X209937500Y-172725000D01*
G75*
G02*
X210137500Y-172925000I0J-200000D01*
G01*
G37*
%TD*%
%TO.C,R2*%
G36*
G01*
X211787500Y-174425064D02*
X211787500Y-174975064D01*
G75*
G02*
X211587500Y-175175064I-200000J0D01*
G01*
X211187500Y-175175064D01*
G75*
G02*
X210987500Y-174975064I0J200000D01*
G01*
X210987500Y-174425064D01*
G75*
G02*
X211187500Y-174225064I200000J0D01*
G01*
X211587500Y-174225064D01*
G75*
G02*
X211787500Y-174425064I0J-200000D01*
G01*
G37*
G36*
G01*
X210137500Y-174425064D02*
X210137500Y-174975064D01*
G75*
G02*
X209937500Y-175175064I-200000J0D01*
G01*
X209537500Y-175175064D01*
G75*
G02*
X209337500Y-174975064I0J200000D01*
G01*
X209337500Y-174425064D01*
G75*
G02*
X209537500Y-174225064I200000J0D01*
G01*
X209937500Y-174225064D01*
G75*
G02*
X210137500Y-174425064I0J-200000D01*
G01*
G37*
%TD*%
%TO.C,R3*%
G36*
G01*
X211787500Y-175925064D02*
X211787500Y-176475064D01*
G75*
G02*
X211587500Y-176675064I-200000J0D01*
G01*
X211187500Y-176675064D01*
G75*
G02*
X210987500Y-176475064I0J200000D01*
G01*
X210987500Y-175925064D01*
G75*
G02*
X211187500Y-175725064I200000J0D01*
G01*
X211587500Y-175725064D01*
G75*
G02*
X211787500Y-175925064I0J-200000D01*
G01*
G37*
G36*
G01*
X210137500Y-175925064D02*
X210137500Y-176475064D01*
G75*
G02*
X209937500Y-176675064I-200000J0D01*
G01*
X209537500Y-176675064D01*
G75*
G02*
X209337500Y-176475064I0J200000D01*
G01*
X209337500Y-175925064D01*
G75*
G02*
X209537500Y-175725064I200000J0D01*
G01*
X209937500Y-175725064D01*
G75*
G02*
X210137500Y-175925064I0J-200000D01*
G01*
G37*
%TD*%
%TO.C,R4*%
G36*
G01*
X210137500Y-177425000D02*
X210137500Y-177975000D01*
G75*
G02*
X209937500Y-178175000I-200000J0D01*
G01*
X209537500Y-178175000D01*
G75*
G02*
X209337500Y-177975000I0J200000D01*
G01*
X209337500Y-177425000D01*
G75*
G02*
X209537500Y-177225000I200000J0D01*
G01*
X209937500Y-177225000D01*
G75*
G02*
X210137500Y-177425000I0J-200000D01*
G01*
G37*
G36*
G01*
X211787500Y-177425000D02*
X211787500Y-177975000D01*
G75*
G02*
X211587500Y-178175000I-200000J0D01*
G01*
X211187500Y-178175000D01*
G75*
G02*
X210987500Y-177975000I0J200000D01*
G01*
X210987500Y-177425000D01*
G75*
G02*
X211187500Y-177225000I200000J0D01*
G01*
X211587500Y-177225000D01*
G75*
G02*
X211787500Y-177425000I0J-200000D01*
G01*
G37*
%TD*%
%TO.C,R5*%
G36*
G01*
X210137500Y-178925000D02*
X210137500Y-179475000D01*
G75*
G02*
X209937500Y-179675000I-200000J0D01*
G01*
X209537500Y-179675000D01*
G75*
G02*
X209337500Y-179475000I0J200000D01*
G01*
X209337500Y-178925000D01*
G75*
G02*
X209537500Y-178725000I200000J0D01*
G01*
X209937500Y-178725000D01*
G75*
G02*
X210137500Y-178925000I0J-200000D01*
G01*
G37*
G36*
G01*
X211787500Y-178925000D02*
X211787500Y-179475000D01*
G75*
G02*
X211587500Y-179675000I-200000J0D01*
G01*
X211187500Y-179675000D01*
G75*
G02*
X210987500Y-179475000I0J200000D01*
G01*
X210987500Y-178925000D01*
G75*
G02*
X211187500Y-178725000I200000J0D01*
G01*
X211587500Y-178725000D01*
G75*
G02*
X211787500Y-178925000I0J-200000D01*
G01*
G37*
%TD*%
%TO.C,R6*%
G36*
G01*
X192666250Y-185770000D02*
X192296250Y-185770000D01*
G75*
G02*
X192161250Y-185635000I0J135000D01*
G01*
X192161250Y-185365000D01*
G75*
G02*
X192296250Y-185230000I135000J0D01*
G01*
X192666250Y-185230000D01*
G75*
G02*
X192801250Y-185365000I0J-135000D01*
G01*
X192801250Y-185635000D01*
G75*
G02*
X192666250Y-185770000I-135000J0D01*
G01*
G37*
G36*
G01*
X192666250Y-184750000D02*
X192296250Y-184750000D01*
G75*
G02*
X192161250Y-184615000I0J135000D01*
G01*
X192161250Y-184345000D01*
G75*
G02*
X192296250Y-184210000I135000J0D01*
G01*
X192666250Y-184210000D01*
G75*
G02*
X192801250Y-184345000I0J-135000D01*
G01*
X192801250Y-184615000D01*
G75*
G02*
X192666250Y-184750000I-135000J0D01*
G01*
G37*
%TD*%
D12*
%TO.C,SW1*%
X92440000Y-97460000D03*
D13*
X94920000Y-100000000D03*
X105080000Y-100000000D03*
D10*
X100000000Y-100000000D03*
D14*
X96190000Y-97460000D03*
X102540000Y-94920000D03*
D12*
X106290000Y-94920000D03*
%TD*%
%TO.C,SW2*%
X125340000Y-94920000D03*
D14*
X121590000Y-94920000D03*
X115240000Y-97460000D03*
D10*
X119050000Y-100000000D03*
D13*
X124130000Y-100000000D03*
X113970000Y-100000000D03*
D12*
X111490000Y-97460000D03*
%TD*%
%TO.C,SW3*%
X130540000Y-97460000D03*
D13*
X133020000Y-100000000D03*
X143180000Y-100000000D03*
D10*
X138100000Y-100000000D03*
D14*
X134290000Y-97460000D03*
X140640000Y-94920000D03*
D12*
X144390000Y-94920000D03*
%TD*%
%TO.C,SW4*%
X149590000Y-97460000D03*
D13*
X152070000Y-100000000D03*
X162230000Y-100000000D03*
D10*
X157150000Y-100000000D03*
D14*
X153340000Y-97460000D03*
X159690000Y-94920000D03*
D12*
X163440000Y-94920000D03*
%TD*%
%TO.C,SW5*%
X182490000Y-94920000D03*
D14*
X178740000Y-94920000D03*
X172390000Y-97460000D03*
D10*
X176200000Y-100000000D03*
D13*
X181280000Y-100000000D03*
X171120000Y-100000000D03*
D12*
X168640000Y-97460000D03*
%TD*%
%TO.C,SW6*%
X187690000Y-97460000D03*
D13*
X190170000Y-100000000D03*
X200330000Y-100000000D03*
D10*
X195250000Y-100000000D03*
D14*
X191440000Y-97460000D03*
X197790000Y-94920000D03*
D12*
X201540000Y-94920000D03*
%TD*%
%TO.C,SW7*%
X206740000Y-97460000D03*
D13*
X209220000Y-100000000D03*
X219380000Y-100000000D03*
D10*
X214300000Y-100000000D03*
D14*
X210490000Y-97460000D03*
X216840000Y-94920000D03*
D12*
X220590000Y-94920000D03*
%TD*%
%TO.C,SW8*%
X111052500Y-113970000D03*
D14*
X107302500Y-113970000D03*
X100952500Y-116510000D03*
D10*
X104762500Y-119050000D03*
D13*
X109842500Y-119050000D03*
X99682500Y-119050000D03*
D12*
X97202500Y-116510000D03*
%TD*%
%TO.C,SW9*%
X121015000Y-116510000D03*
D13*
X123495000Y-119050000D03*
X133655000Y-119050000D03*
D10*
X128575000Y-119050000D03*
D14*
X124765000Y-116510000D03*
X131115000Y-113970000D03*
D12*
X134865000Y-113970000D03*
%TD*%
%TO.C,SW10*%
X153915000Y-113970000D03*
D14*
X150165000Y-113970000D03*
X143815000Y-116510000D03*
D10*
X147625000Y-119050000D03*
D13*
X152705000Y-119050000D03*
X142545000Y-119050000D03*
D12*
X140065000Y-116510000D03*
%TD*%
%TO.C,SW11*%
X159115000Y-116510000D03*
D13*
X161595000Y-119050000D03*
X171755000Y-119050000D03*
D10*
X166675000Y-119050000D03*
D14*
X162865000Y-116510000D03*
X169215000Y-113970000D03*
D12*
X172965000Y-113970000D03*
%TD*%
%TO.C,SW12*%
X192015000Y-113970000D03*
D14*
X188265000Y-113970000D03*
X181915000Y-116510000D03*
D10*
X185725000Y-119050000D03*
D13*
X190805000Y-119050000D03*
X180645000Y-119050000D03*
D12*
X178165000Y-116510000D03*
%TD*%
%TO.C,SW13*%
X197215000Y-116510000D03*
D13*
X199695000Y-119050000D03*
X209855000Y-119050000D03*
D10*
X204775000Y-119050000D03*
D14*
X200965000Y-116510000D03*
X207315000Y-113970000D03*
D12*
X211065000Y-113970000D03*
%TD*%
%TO.C,SW14*%
X108671250Y-133020000D03*
D14*
X104921250Y-133020000D03*
X98571250Y-135560000D03*
D10*
X102381250Y-138100000D03*
D13*
X107461250Y-138100000D03*
X97301250Y-138100000D03*
D12*
X94821250Y-135560000D03*
%TD*%
%TO.C,SW15*%
X139627500Y-133020000D03*
D14*
X135877500Y-133020000D03*
X129527500Y-135560000D03*
D10*
X133337500Y-138100000D03*
D13*
X138417500Y-138100000D03*
X128257500Y-138100000D03*
D12*
X125777500Y-135560000D03*
%TD*%
%TO.C,SW16*%
X144827500Y-135560000D03*
D13*
X147307500Y-138100000D03*
X157467500Y-138100000D03*
D10*
X152387500Y-138100000D03*
D14*
X148577500Y-135560000D03*
X154927500Y-133020000D03*
D12*
X158677500Y-133020000D03*
%TD*%
%TO.C,SW17*%
X163877500Y-135560000D03*
D13*
X166357500Y-138100000D03*
X176517500Y-138100000D03*
D10*
X171437500Y-138100000D03*
D14*
X167627500Y-135560000D03*
X173977500Y-133020000D03*
D12*
X177727500Y-133020000D03*
%TD*%
%TO.C,SW18*%
X196777500Y-133020000D03*
D14*
X193027500Y-133020000D03*
X186677500Y-135560000D03*
D10*
X190487500Y-138100000D03*
D13*
X195567500Y-138100000D03*
X185407500Y-138100000D03*
D12*
X182927500Y-135560000D03*
%TD*%
%TO.C,SW19*%
X201977500Y-135560000D03*
D13*
X204457500Y-138100000D03*
X214617500Y-138100000D03*
D10*
X209537500Y-138100000D03*
D14*
X205727500Y-135560000D03*
X212077500Y-133020000D03*
D12*
X215827500Y-133020000D03*
%TD*%
%TO.C,SW20*%
X118196250Y-152070000D03*
D14*
X114446250Y-152070000D03*
X108096250Y-154610000D03*
D10*
X111906250Y-157150000D03*
D13*
X116986250Y-157150000D03*
X106826250Y-157150000D03*
D12*
X104346250Y-154610000D03*
%TD*%
%TO.C,SW22*%
X149152500Y-152070000D03*
D14*
X145402500Y-152070000D03*
X139052500Y-154610000D03*
D10*
X142862500Y-157150000D03*
D13*
X147942500Y-157150000D03*
X137782500Y-157150000D03*
D12*
X135302500Y-154610000D03*
%TD*%
%TO.C,SW23*%
X154352500Y-154610000D03*
D13*
X156832500Y-157150000D03*
X166992500Y-157150000D03*
D10*
X161912500Y-157150000D03*
D14*
X158102500Y-154610000D03*
X164452500Y-152070000D03*
D12*
X168202500Y-152070000D03*
%TD*%
%TO.C,SW24*%
X187252500Y-152070000D03*
D14*
X183502500Y-152070000D03*
X177152500Y-154610000D03*
D10*
X180962500Y-157150000D03*
D13*
X186042500Y-157150000D03*
X175882500Y-157150000D03*
D12*
X173402500Y-154610000D03*
%TD*%
%TO.C,SW25*%
X192452500Y-154610000D03*
D13*
X194932500Y-157150000D03*
X205092500Y-157150000D03*
D10*
X200012500Y-157150000D03*
D14*
X196202500Y-154610000D03*
X202552500Y-152070000D03*
D12*
X206302500Y-152070000D03*
%TD*%
%TO.C,SW26*%
X225352500Y-152070000D03*
D14*
X221602500Y-152070000D03*
X215252500Y-154610000D03*
D10*
X219062500Y-157150000D03*
D13*
X224142500Y-157150000D03*
X213982500Y-157150000D03*
D12*
X211502500Y-154610000D03*
%TD*%
%TO.C,SW27*%
X106290000Y-171120000D03*
D14*
X102540000Y-171120000D03*
X96190000Y-173660000D03*
D10*
X100000000Y-176200000D03*
D13*
X105080000Y-176200000D03*
X94920000Y-176200000D03*
D12*
X92440000Y-173660000D03*
%TD*%
%TO.C,SW28*%
X127721250Y-171120000D03*
D14*
X123971250Y-171120000D03*
X117621250Y-173660000D03*
D10*
X121431250Y-176200000D03*
D13*
X126511250Y-176200000D03*
X116351250Y-176200000D03*
D12*
X113871250Y-173660000D03*
%TD*%
%TO.C,SW29*%
X149152500Y-171120000D03*
D14*
X145402500Y-171120000D03*
X139052500Y-173660000D03*
D10*
X142862500Y-176200000D03*
D13*
X147942500Y-176200000D03*
X137782500Y-176200000D03*
D12*
X135302500Y-173660000D03*
%TD*%
%TO.C,SW30*%
X156733750Y-173660000D03*
D13*
X159213750Y-176200000D03*
X169373750Y-176200000D03*
D10*
X164293750Y-176200000D03*
D14*
X160483750Y-173660000D03*
X166833750Y-171120000D03*
D12*
X170583750Y-171120000D03*
%TD*%
%TO.C,SW31*%
X203921250Y-171120000D03*
D14*
X200171250Y-171120000D03*
X193821250Y-173660000D03*
D10*
X197631250Y-176200000D03*
D13*
X202711250Y-176200000D03*
X192551250Y-176200000D03*
D12*
X190071250Y-173660000D03*
%TD*%
D15*
%TO.C,SW100*%
X131756250Y-159200000D03*
X130156250Y-159200000D03*
X131756250Y-155100000D03*
X130156250Y-155100000D03*
%TD*%
D12*
%TO.C,SW141*%
X100853750Y-143180000D03*
D14*
X104603750Y-143180000D03*
X110953750Y-140640000D03*
D10*
X107143750Y-138100000D03*
D13*
X102063750Y-138100000D03*
X112223750Y-138100000D03*
D12*
X114703750Y-140640000D03*
%TD*%
%TO.C,SW271*%
X109941250Y-178740000D03*
D13*
X107461250Y-176200000D03*
X97301250Y-176200000D03*
D10*
X102381250Y-176200000D03*
D14*
X106191250Y-178740000D03*
X99841250Y-181280000D03*
D12*
X96091250Y-181280000D03*
%TD*%
%TO.C,SW281*%
X131372500Y-178740000D03*
D13*
X128892500Y-176200000D03*
X118732500Y-176200000D03*
D10*
X123812500Y-176200000D03*
D14*
X127622500Y-178740000D03*
X121272500Y-181280000D03*
D12*
X117522500Y-181280000D03*
%TD*%
D16*
%TO.C,U1*%
X178750000Y-172890770D03*
D17*
X182000000Y-175640770D03*
X181500000Y-174890770D03*
X177500000Y-176140770D03*
X176250000Y-175640770D03*
X180750000Y-170140770D03*
X181500000Y-169640770D03*
X176000000Y-169640770D03*
X176000000Y-170390770D03*
X176000000Y-170890770D03*
X175500000Y-171140770D03*
X175500000Y-171640770D03*
X175500000Y-172140770D03*
X175500000Y-172640770D03*
X175500000Y-173140770D03*
X175500000Y-173640770D03*
X175500000Y-174140770D03*
X176000000Y-171890770D03*
X176000000Y-172390770D03*
X176000000Y-172890770D03*
X176000000Y-173390770D03*
X176000000Y-173890770D03*
X176000000Y-174390770D03*
X175500000Y-175140770D03*
X176000000Y-174890770D03*
X175500000Y-175640770D03*
X176500000Y-169640770D03*
X177000000Y-169640770D03*
X177500000Y-169640770D03*
X178000000Y-169640770D03*
X178500000Y-169640770D03*
X179000000Y-169640770D03*
X179500000Y-169640770D03*
X180000000Y-169640770D03*
X180500000Y-169640770D03*
X181000000Y-169640770D03*
X180250000Y-170140770D03*
X179750000Y-170140770D03*
X179250000Y-170140770D03*
X178750000Y-170140770D03*
X178250000Y-170140770D03*
X177750000Y-170140770D03*
X176750000Y-170140770D03*
X176750000Y-175640770D03*
X177250000Y-175640770D03*
X177750000Y-175640770D03*
X178250000Y-175640770D03*
X178750000Y-175640770D03*
X179250000Y-175640770D03*
X179750000Y-175640770D03*
X180250000Y-175640770D03*
X178000000Y-176140770D03*
X178500000Y-176140770D03*
X179000000Y-176140770D03*
X179500000Y-176140770D03*
X180000000Y-176140770D03*
X180500000Y-176140770D03*
X181000000Y-176140770D03*
X181500000Y-176140770D03*
X181500000Y-174390770D03*
X181500000Y-173890770D03*
X181500000Y-172390770D03*
X181500000Y-171890770D03*
X181500000Y-171390770D03*
X181500000Y-170890770D03*
X182000000Y-174640770D03*
X182000000Y-173640770D03*
X182000000Y-173140770D03*
X182000000Y-172640770D03*
X182000000Y-172140770D03*
X182000000Y-171640770D03*
X182000000Y-171140770D03*
X182000000Y-170640770D03*
X182000000Y-170140770D03*
%TD*%
D18*
%TO.C,Y1*%
X171000000Y-173890770D03*
X173500000Y-173890770D03*
%TD*%
D19*
%TO.C,Y2*%
X183315000Y-179440770D03*
X181915000Y-178340770D03*
X181915000Y-179440770D03*
X183315000Y-178340770D03*
%TD*%
D20*
%TO.C,J10*%
X115240000Y-184455000D03*
X112700000Y-184455000D03*
X110160000Y-184455000D03*
X107620000Y-184455000D03*
X105080000Y-184455000D03*
X102540000Y-184455000D03*
X100000000Y-184455000D03*
X97460000Y-184455000D03*
X94920000Y-184455000D03*
D21*
X92380000Y-184455000D03*
%TD*%
M02*
