%TF.GenerationSoftware,KiCad,Pcbnew,(5.1.10)-1*%
%TF.CreationDate,2023-08-12T15:50:22-04:00*%
%TF.ProjectId,niche65_mk2_left_RIGID,6e696368-6536-4355-9f6d-6b325f6c6566,rev?*%
%TF.SameCoordinates,Original*%
%TF.FileFunction,Legend,Bot*%
%TF.FilePolarity,Positive*%
%FSLAX46Y46*%
G04 Gerber Fmt 4.6, Leading zero omitted, Abs format (unit mm)*
G04 Created by KiCad (PCBNEW (5.1.10)-1) date 2023-08-12 15:50:22*
%MOMM*%
%LPD*%
G01*
G04 APERTURE LIST*
%ADD10C,0.150000*%
%ADD11C,0.010000*%
%ADD12C,0.120000*%
G04 APERTURE END LIST*
D10*
X196659642Y-164470000D02*
X196716785Y-164441428D01*
X196802500Y-164441428D01*
X196888214Y-164470000D01*
X196945357Y-164527142D01*
X196973928Y-164584285D01*
X197002500Y-164698571D01*
X197002500Y-164784285D01*
X196973928Y-164898571D01*
X196945357Y-164955714D01*
X196888214Y-165012857D01*
X196802500Y-165041428D01*
X196745357Y-165041428D01*
X196659642Y-165012857D01*
X196631071Y-164984285D01*
X196631071Y-164784285D01*
X196745357Y-164784285D01*
X196373928Y-165041428D02*
X196373928Y-164441428D01*
X196031071Y-165041428D01*
X196031071Y-164441428D01*
X195745357Y-165041428D02*
X195745357Y-164441428D01*
X195602500Y-164441428D01*
X195516785Y-164470000D01*
X195459642Y-164527142D01*
X195431071Y-164584285D01*
X195402500Y-164698571D01*
X195402500Y-164784285D01*
X195431071Y-164898571D01*
X195459642Y-164955714D01*
X195516785Y-165012857D01*
X195602500Y-165041428D01*
X195745357Y-165041428D01*
X199556785Y-165012857D02*
X199471071Y-165041428D01*
X199328214Y-165041428D01*
X199271071Y-165012857D01*
X199242500Y-164984285D01*
X199213928Y-164927142D01*
X199213928Y-164870000D01*
X199242500Y-164812857D01*
X199271071Y-164784285D01*
X199328214Y-164755714D01*
X199442500Y-164727142D01*
X199499642Y-164698571D01*
X199528214Y-164670000D01*
X199556785Y-164612857D01*
X199556785Y-164555714D01*
X199528214Y-164498571D01*
X199499642Y-164470000D01*
X199442500Y-164441428D01*
X199299642Y-164441428D01*
X199213928Y-164470000D01*
X199013928Y-164441428D02*
X198871071Y-165041428D01*
X198756785Y-164612857D01*
X198642500Y-165041428D01*
X198499642Y-164441428D01*
X198271071Y-165041428D02*
X198271071Y-164441428D01*
X198128214Y-164441428D01*
X198042500Y-164470000D01*
X197985357Y-164527142D01*
X197956785Y-164584285D01*
X197928214Y-164698571D01*
X197928214Y-164784285D01*
X197956785Y-164898571D01*
X197985357Y-164955714D01*
X198042500Y-165012857D01*
X198128214Y-165041428D01*
X198271071Y-165041428D01*
X204622500Y-164441428D02*
X204422500Y-165041428D01*
X204222500Y-164441428D01*
X204022500Y-165041428D02*
X204022500Y-164441428D01*
X203879642Y-164441428D01*
X203793928Y-164470000D01*
X203736785Y-164527142D01*
X203708214Y-164584285D01*
X203679642Y-164698571D01*
X203679642Y-164784285D01*
X203708214Y-164898571D01*
X203736785Y-164955714D01*
X203793928Y-165012857D01*
X203879642Y-165041428D01*
X204022500Y-165041428D01*
X203422500Y-165041428D02*
X203422500Y-164441428D01*
X203279642Y-164441428D01*
X203193928Y-164470000D01*
X203136785Y-164527142D01*
X203108214Y-164584285D01*
X203079642Y-164698571D01*
X203079642Y-164784285D01*
X203108214Y-164898571D01*
X203136785Y-164955714D01*
X203193928Y-165012857D01*
X203279642Y-165041428D01*
X203422500Y-165041428D01*
X202096785Y-165012857D02*
X202011071Y-165041428D01*
X201868214Y-165041428D01*
X201811071Y-165012857D01*
X201782500Y-164984285D01*
X201753928Y-164927142D01*
X201753928Y-164870000D01*
X201782500Y-164812857D01*
X201811071Y-164784285D01*
X201868214Y-164755714D01*
X201982500Y-164727142D01*
X202039642Y-164698571D01*
X202068214Y-164670000D01*
X202096785Y-164612857D01*
X202096785Y-164555714D01*
X202068214Y-164498571D01*
X202039642Y-164470000D01*
X201982500Y-164441428D01*
X201839642Y-164441428D01*
X201753928Y-164470000D01*
X201553928Y-164441428D02*
X201411071Y-165041428D01*
X201296785Y-164612857D01*
X201182500Y-165041428D01*
X201039642Y-164441428D01*
X200468214Y-164984285D02*
X200496785Y-165012857D01*
X200582500Y-165041428D01*
X200639642Y-165041428D01*
X200725357Y-165012857D01*
X200782500Y-164955714D01*
X200811071Y-164898571D01*
X200839642Y-164784285D01*
X200839642Y-164698571D01*
X200811071Y-164584285D01*
X200782500Y-164527142D01*
X200725357Y-164470000D01*
X200639642Y-164441428D01*
X200582500Y-164441428D01*
X200496785Y-164470000D01*
X200468214Y-164498571D01*
X174850000Y-176690770D02*
X174950000Y-176690770D01*
X174850000Y-176790770D02*
X174850000Y-176490770D01*
X175150000Y-176790770D02*
X174850000Y-176790770D01*
X174850000Y-176490770D02*
X175150000Y-176790770D01*
X103140000Y-185526428D02*
X103082857Y-185526428D01*
X103025714Y-185555000D01*
X102997142Y-185583571D01*
X102968571Y-185640714D01*
X102940000Y-185755000D01*
X102940000Y-185897857D01*
X102968571Y-186012142D01*
X102997142Y-186069285D01*
X103025714Y-186097857D01*
X103082857Y-186126428D01*
X103140000Y-186126428D01*
X103197142Y-186097857D01*
X103225714Y-186069285D01*
X103254285Y-186012142D01*
X103282857Y-185897857D01*
X103282857Y-185755000D01*
X103254285Y-185640714D01*
X103225714Y-185583571D01*
X103197142Y-185555000D01*
X103140000Y-185526428D01*
X102711428Y-185583571D02*
X102682857Y-185555000D01*
X102625714Y-185526428D01*
X102482857Y-185526428D01*
X102425714Y-185555000D01*
X102397142Y-185583571D01*
X102368571Y-185640714D01*
X102368571Y-185697857D01*
X102397142Y-185783571D01*
X102740000Y-186126428D01*
X102368571Y-186126428D01*
X102082857Y-186126428D02*
X101968571Y-186126428D01*
X101911428Y-186097857D01*
X101882857Y-186069285D01*
X101825714Y-185983571D01*
X101797142Y-185869285D01*
X101797142Y-185640714D01*
X101825714Y-185583571D01*
X101854285Y-185555000D01*
X101911428Y-185526428D01*
X102025714Y-185526428D01*
X102082857Y-185555000D01*
X102111428Y-185583571D01*
X102140000Y-185640714D01*
X102140000Y-185783571D01*
X102111428Y-185840714D01*
X102082857Y-185869285D01*
X102025714Y-185897857D01*
X101911428Y-185897857D01*
X101854285Y-185869285D01*
X101825714Y-185840714D01*
X101797142Y-185783571D01*
X115840000Y-185526428D02*
X115782857Y-185526428D01*
X115725714Y-185555000D01*
X115697142Y-185583571D01*
X115668571Y-185640714D01*
X115640000Y-185755000D01*
X115640000Y-185897857D01*
X115668571Y-186012142D01*
X115697142Y-186069285D01*
X115725714Y-186097857D01*
X115782857Y-186126428D01*
X115840000Y-186126428D01*
X115897142Y-186097857D01*
X115925714Y-186069285D01*
X115954285Y-186012142D01*
X115982857Y-185897857D01*
X115982857Y-185755000D01*
X115954285Y-185640714D01*
X115925714Y-185583571D01*
X115897142Y-185555000D01*
X115840000Y-185526428D01*
X115268571Y-185526428D02*
X115211428Y-185526428D01*
X115154285Y-185555000D01*
X115125714Y-185583571D01*
X115097142Y-185640714D01*
X115068571Y-185755000D01*
X115068571Y-185897857D01*
X115097142Y-186012142D01*
X115125714Y-186069285D01*
X115154285Y-186097857D01*
X115211428Y-186126428D01*
X115268571Y-186126428D01*
X115325714Y-186097857D01*
X115354285Y-186069285D01*
X115382857Y-186012142D01*
X115411428Y-185897857D01*
X115411428Y-185755000D01*
X115382857Y-185640714D01*
X115354285Y-185583571D01*
X115325714Y-185555000D01*
X115268571Y-185526428D01*
X114840000Y-185583571D02*
X114811428Y-185555000D01*
X114754285Y-185526428D01*
X114611428Y-185526428D01*
X114554285Y-185555000D01*
X114525714Y-185583571D01*
X114497142Y-185640714D01*
X114497142Y-185697857D01*
X114525714Y-185783571D01*
X114868571Y-186126428D01*
X114497142Y-186126428D01*
X113300000Y-185526428D02*
X113242857Y-185526428D01*
X113185714Y-185555000D01*
X113157142Y-185583571D01*
X113128571Y-185640714D01*
X113100000Y-185755000D01*
X113100000Y-185897857D01*
X113128571Y-186012142D01*
X113157142Y-186069285D01*
X113185714Y-186097857D01*
X113242857Y-186126428D01*
X113300000Y-186126428D01*
X113357142Y-186097857D01*
X113385714Y-186069285D01*
X113414285Y-186012142D01*
X113442857Y-185897857D01*
X113442857Y-185755000D01*
X113414285Y-185640714D01*
X113385714Y-185583571D01*
X113357142Y-185555000D01*
X113300000Y-185526428D01*
X112728571Y-185526428D02*
X112671428Y-185526428D01*
X112614285Y-185555000D01*
X112585714Y-185583571D01*
X112557142Y-185640714D01*
X112528571Y-185755000D01*
X112528571Y-185897857D01*
X112557142Y-186012142D01*
X112585714Y-186069285D01*
X112614285Y-186097857D01*
X112671428Y-186126428D01*
X112728571Y-186126428D01*
X112785714Y-186097857D01*
X112814285Y-186069285D01*
X112842857Y-186012142D01*
X112871428Y-185897857D01*
X112871428Y-185755000D01*
X112842857Y-185640714D01*
X112814285Y-185583571D01*
X112785714Y-185555000D01*
X112728571Y-185526428D01*
X112328571Y-185526428D02*
X111957142Y-185526428D01*
X112157142Y-185755000D01*
X112071428Y-185755000D01*
X112014285Y-185783571D01*
X111985714Y-185812142D01*
X111957142Y-185869285D01*
X111957142Y-186012142D01*
X111985714Y-186069285D01*
X112014285Y-186097857D01*
X112071428Y-186126428D01*
X112242857Y-186126428D01*
X112300000Y-186097857D01*
X112328571Y-186069285D01*
X110760000Y-185526428D02*
X110702857Y-185526428D01*
X110645714Y-185555000D01*
X110617142Y-185583571D01*
X110588571Y-185640714D01*
X110560000Y-185755000D01*
X110560000Y-185897857D01*
X110588571Y-186012142D01*
X110617142Y-186069285D01*
X110645714Y-186097857D01*
X110702857Y-186126428D01*
X110760000Y-186126428D01*
X110817142Y-186097857D01*
X110845714Y-186069285D01*
X110874285Y-186012142D01*
X110902857Y-185897857D01*
X110902857Y-185755000D01*
X110874285Y-185640714D01*
X110845714Y-185583571D01*
X110817142Y-185555000D01*
X110760000Y-185526428D01*
X110188571Y-185526428D02*
X110131428Y-185526428D01*
X110074285Y-185555000D01*
X110045714Y-185583571D01*
X110017142Y-185640714D01*
X109988571Y-185755000D01*
X109988571Y-185897857D01*
X110017142Y-186012142D01*
X110045714Y-186069285D01*
X110074285Y-186097857D01*
X110131428Y-186126428D01*
X110188571Y-186126428D01*
X110245714Y-186097857D01*
X110274285Y-186069285D01*
X110302857Y-186012142D01*
X110331428Y-185897857D01*
X110331428Y-185755000D01*
X110302857Y-185640714D01*
X110274285Y-185583571D01*
X110245714Y-185555000D01*
X110188571Y-185526428D01*
X109474285Y-185726428D02*
X109474285Y-186126428D01*
X109617142Y-185497857D02*
X109760000Y-185926428D01*
X109388571Y-185926428D01*
X108220000Y-185526428D02*
X108162857Y-185526428D01*
X108105714Y-185555000D01*
X108077142Y-185583571D01*
X108048571Y-185640714D01*
X108020000Y-185755000D01*
X108020000Y-185897857D01*
X108048571Y-186012142D01*
X108077142Y-186069285D01*
X108105714Y-186097857D01*
X108162857Y-186126428D01*
X108220000Y-186126428D01*
X108277142Y-186097857D01*
X108305714Y-186069285D01*
X108334285Y-186012142D01*
X108362857Y-185897857D01*
X108362857Y-185755000D01*
X108334285Y-185640714D01*
X108305714Y-185583571D01*
X108277142Y-185555000D01*
X108220000Y-185526428D01*
X107648571Y-185526428D02*
X107591428Y-185526428D01*
X107534285Y-185555000D01*
X107505714Y-185583571D01*
X107477142Y-185640714D01*
X107448571Y-185755000D01*
X107448571Y-185897857D01*
X107477142Y-186012142D01*
X107505714Y-186069285D01*
X107534285Y-186097857D01*
X107591428Y-186126428D01*
X107648571Y-186126428D01*
X107705714Y-186097857D01*
X107734285Y-186069285D01*
X107762857Y-186012142D01*
X107791428Y-185897857D01*
X107791428Y-185755000D01*
X107762857Y-185640714D01*
X107734285Y-185583571D01*
X107705714Y-185555000D01*
X107648571Y-185526428D01*
X106905714Y-185526428D02*
X107191428Y-185526428D01*
X107220000Y-185812142D01*
X107191428Y-185783571D01*
X107134285Y-185755000D01*
X106991428Y-185755000D01*
X106934285Y-185783571D01*
X106905714Y-185812142D01*
X106877142Y-185869285D01*
X106877142Y-186012142D01*
X106905714Y-186069285D01*
X106934285Y-186097857D01*
X106991428Y-186126428D01*
X107134285Y-186126428D01*
X107191428Y-186097857D01*
X107220000Y-186069285D01*
X105680000Y-185526428D02*
X105622857Y-185526428D01*
X105565714Y-185555000D01*
X105537142Y-185583571D01*
X105508571Y-185640714D01*
X105480000Y-185755000D01*
X105480000Y-185897857D01*
X105508571Y-186012142D01*
X105537142Y-186069285D01*
X105565714Y-186097857D01*
X105622857Y-186126428D01*
X105680000Y-186126428D01*
X105737142Y-186097857D01*
X105765714Y-186069285D01*
X105794285Y-186012142D01*
X105822857Y-185897857D01*
X105822857Y-185755000D01*
X105794285Y-185640714D01*
X105765714Y-185583571D01*
X105737142Y-185555000D01*
X105680000Y-185526428D01*
X105251428Y-185583571D02*
X105222857Y-185555000D01*
X105165714Y-185526428D01*
X105022857Y-185526428D01*
X104965714Y-185555000D01*
X104937142Y-185583571D01*
X104908571Y-185640714D01*
X104908571Y-185697857D01*
X104937142Y-185783571D01*
X105280000Y-186126428D01*
X104908571Y-186126428D01*
X104565714Y-185783571D02*
X104622857Y-185755000D01*
X104651428Y-185726428D01*
X104680000Y-185669285D01*
X104680000Y-185640714D01*
X104651428Y-185583571D01*
X104622857Y-185555000D01*
X104565714Y-185526428D01*
X104451428Y-185526428D01*
X104394285Y-185555000D01*
X104365714Y-185583571D01*
X104337142Y-185640714D01*
X104337142Y-185669285D01*
X104365714Y-185726428D01*
X104394285Y-185755000D01*
X104451428Y-185783571D01*
X104565714Y-185783571D01*
X104622857Y-185812142D01*
X104651428Y-185840714D01*
X104680000Y-185897857D01*
X104680000Y-186012142D01*
X104651428Y-186069285D01*
X104622857Y-186097857D01*
X104565714Y-186126428D01*
X104451428Y-186126428D01*
X104394285Y-186097857D01*
X104365714Y-186069285D01*
X104337142Y-186012142D01*
X104337142Y-185897857D01*
X104365714Y-185840714D01*
X104394285Y-185812142D01*
X104451428Y-185783571D01*
X100600000Y-185526428D02*
X100542857Y-185526428D01*
X100485714Y-185555000D01*
X100457142Y-185583571D01*
X100428571Y-185640714D01*
X100400000Y-185755000D01*
X100400000Y-185897857D01*
X100428571Y-186012142D01*
X100457142Y-186069285D01*
X100485714Y-186097857D01*
X100542857Y-186126428D01*
X100600000Y-186126428D01*
X100657142Y-186097857D01*
X100685714Y-186069285D01*
X100714285Y-186012142D01*
X100742857Y-185897857D01*
X100742857Y-185755000D01*
X100714285Y-185640714D01*
X100685714Y-185583571D01*
X100657142Y-185555000D01*
X100600000Y-185526428D01*
X100200000Y-185526428D02*
X99828571Y-185526428D01*
X100028571Y-185755000D01*
X99942857Y-185755000D01*
X99885714Y-185783571D01*
X99857142Y-185812142D01*
X99828571Y-185869285D01*
X99828571Y-186012142D01*
X99857142Y-186069285D01*
X99885714Y-186097857D01*
X99942857Y-186126428D01*
X100114285Y-186126428D01*
X100171428Y-186097857D01*
X100200000Y-186069285D01*
X99457142Y-185526428D02*
X99400000Y-185526428D01*
X99342857Y-185555000D01*
X99314285Y-185583571D01*
X99285714Y-185640714D01*
X99257142Y-185755000D01*
X99257142Y-185897857D01*
X99285714Y-186012142D01*
X99314285Y-186069285D01*
X99342857Y-186097857D01*
X99400000Y-186126428D01*
X99457142Y-186126428D01*
X99514285Y-186097857D01*
X99542857Y-186069285D01*
X99571428Y-186012142D01*
X99600000Y-185897857D01*
X99600000Y-185755000D01*
X99571428Y-185640714D01*
X99542857Y-185583571D01*
X99514285Y-185555000D01*
X99457142Y-185526428D01*
X98060000Y-185526428D02*
X98002857Y-185526428D01*
X97945714Y-185555000D01*
X97917142Y-185583571D01*
X97888571Y-185640714D01*
X97860000Y-185755000D01*
X97860000Y-185897857D01*
X97888571Y-186012142D01*
X97917142Y-186069285D01*
X97945714Y-186097857D01*
X98002857Y-186126428D01*
X98060000Y-186126428D01*
X98117142Y-186097857D01*
X98145714Y-186069285D01*
X98174285Y-186012142D01*
X98202857Y-185897857D01*
X98202857Y-185755000D01*
X98174285Y-185640714D01*
X98145714Y-185583571D01*
X98117142Y-185555000D01*
X98060000Y-185526428D01*
X97660000Y-185526428D02*
X97288571Y-185526428D01*
X97488571Y-185755000D01*
X97402857Y-185755000D01*
X97345714Y-185783571D01*
X97317142Y-185812142D01*
X97288571Y-185869285D01*
X97288571Y-186012142D01*
X97317142Y-186069285D01*
X97345714Y-186097857D01*
X97402857Y-186126428D01*
X97574285Y-186126428D01*
X97631428Y-186097857D01*
X97660000Y-186069285D01*
X96717142Y-186126428D02*
X97060000Y-186126428D01*
X96888571Y-186126428D02*
X96888571Y-185526428D01*
X96945714Y-185612142D01*
X97002857Y-185669285D01*
X97060000Y-185697857D01*
X95720000Y-185523428D02*
X95520000Y-186123428D01*
X95320000Y-185523428D01*
X95120000Y-186123428D02*
X95120000Y-185523428D01*
X94977142Y-185523428D01*
X94891428Y-185552000D01*
X94834285Y-185609142D01*
X94805714Y-185666285D01*
X94777142Y-185780571D01*
X94777142Y-185866285D01*
X94805714Y-185980571D01*
X94834285Y-186037714D01*
X94891428Y-186094857D01*
X94977142Y-186123428D01*
X95120000Y-186123428D01*
X94520000Y-186123428D02*
X94520000Y-185523428D01*
X94377142Y-185523428D01*
X94291428Y-185552000D01*
X94234285Y-185609142D01*
X94205714Y-185666285D01*
X94177142Y-185780571D01*
X94177142Y-185866285D01*
X94205714Y-185980571D01*
X94234285Y-186037714D01*
X94291428Y-186094857D01*
X94377142Y-186123428D01*
X94520000Y-186123428D01*
X92837142Y-185555000D02*
X92894285Y-185526428D01*
X92980000Y-185526428D01*
X93065714Y-185555000D01*
X93122857Y-185612142D01*
X93151428Y-185669285D01*
X93180000Y-185783571D01*
X93180000Y-185869285D01*
X93151428Y-185983571D01*
X93122857Y-186040714D01*
X93065714Y-186097857D01*
X92980000Y-186126428D01*
X92922857Y-186126428D01*
X92837142Y-186097857D01*
X92808571Y-186069285D01*
X92808571Y-185869285D01*
X92922857Y-185869285D01*
X92551428Y-186126428D02*
X92551428Y-185526428D01*
X92208571Y-186126428D01*
X92208571Y-185526428D01*
X91922857Y-186126428D02*
X91922857Y-185526428D01*
X91780000Y-185526428D01*
X91694285Y-185555000D01*
X91637142Y-185612142D01*
X91608571Y-185669285D01*
X91580000Y-185783571D01*
X91580000Y-185869285D01*
X91608571Y-185983571D01*
X91637142Y-186040714D01*
X91694285Y-186097857D01*
X91780000Y-186126428D01*
X91922857Y-186126428D01*
D11*
%TO.C,G\u002A\u002A\u002A*%
G36*
X202439995Y-180194730D02*
G01*
X202377969Y-180199285D01*
X202325405Y-180206591D01*
X202278099Y-180216479D01*
X202207361Y-180237375D01*
X202123718Y-180268058D01*
X202036641Y-180304400D01*
X201955596Y-180342273D01*
X201890053Y-180377549D01*
X201855728Y-180400647D01*
X201838458Y-180417315D01*
X201836505Y-180434326D01*
X201852086Y-180460930D01*
X201878318Y-180494894D01*
X201909935Y-180533625D01*
X201932040Y-180558488D01*
X201937979Y-180563467D01*
X201951987Y-180552630D01*
X201981518Y-180525106D01*
X202000057Y-180506906D01*
X202074995Y-180451775D01*
X202178371Y-180405184D01*
X202305566Y-180368312D01*
X202451960Y-180342343D01*
X202612933Y-180328458D01*
X202705691Y-180326400D01*
X202885154Y-180333030D01*
X203036291Y-180353465D01*
X203162052Y-180388523D01*
X203265389Y-180439023D01*
X203347950Y-180504484D01*
X203389627Y-180549217D01*
X203411298Y-180585053D01*
X203419162Y-180624546D01*
X203419853Y-180650139D01*
X203407338Y-180730971D01*
X203367981Y-180802015D01*
X203298842Y-180867842D01*
X203263877Y-180892620D01*
X203210770Y-180925561D01*
X203153176Y-180956054D01*
X203086621Y-180985771D01*
X203006632Y-181016386D01*
X202908735Y-181049570D01*
X202788456Y-181086997D01*
X202641322Y-181130338D01*
X202583678Y-181146920D01*
X202384918Y-181206366D01*
X202217353Y-181262561D01*
X202078657Y-181317101D01*
X201966508Y-181371580D01*
X201878582Y-181427594D01*
X201812554Y-181486737D01*
X201766101Y-181550604D01*
X201736899Y-181620791D01*
X201722623Y-181698891D01*
X201720396Y-181739366D01*
X201733734Y-181860256D01*
X201778519Y-181970030D01*
X201853913Y-182067809D01*
X201959080Y-182152711D01*
X202093185Y-182223857D01*
X202226544Y-182272032D01*
X202274870Y-182283585D01*
X202343554Y-182296234D01*
X202424762Y-182308962D01*
X202510658Y-182320754D01*
X202593408Y-182330596D01*
X202665178Y-182337471D01*
X202718131Y-182340364D01*
X202742583Y-182338912D01*
X202762013Y-182336684D01*
X202807586Y-182332498D01*
X202871684Y-182327033D01*
X202920383Y-182323059D01*
X203013042Y-182312920D01*
X203112026Y-182297777D01*
X203200139Y-182280378D01*
X203224269Y-182274513D01*
X203302016Y-182250482D01*
X203391965Y-182216771D01*
X203484354Y-182177645D01*
X203569422Y-182137369D01*
X203637405Y-182100208D01*
X203664778Y-182082049D01*
X203682043Y-182066899D01*
X203685102Y-182051131D01*
X203671517Y-182026602D01*
X203638852Y-181985170D01*
X203634031Y-181979281D01*
X203570089Y-181901249D01*
X203530241Y-181948605D01*
X203476594Y-181994761D01*
X203395753Y-182041082D01*
X203294229Y-182084402D01*
X203178530Y-182121558D01*
X203169419Y-182124019D01*
X203075625Y-182142881D01*
X202958916Y-182157059D01*
X202828822Y-182166254D01*
X202694868Y-182170168D01*
X202566581Y-182168501D01*
X202453490Y-182160956D01*
X202372958Y-182148974D01*
X202236970Y-182110749D01*
X202117400Y-182058582D01*
X202019113Y-181995336D01*
X201946970Y-181923873D01*
X201920451Y-181882594D01*
X201899453Y-181811118D01*
X201899201Y-181729644D01*
X201919113Y-181654478D01*
X201929286Y-181635012D01*
X201960547Y-181592400D01*
X202001950Y-181552937D01*
X202056613Y-181515212D01*
X202127656Y-181477815D01*
X202218196Y-181439335D01*
X202331351Y-181398360D01*
X202470240Y-181353480D01*
X202637982Y-181303283D01*
X202705580Y-181283769D01*
X202872024Y-181234650D01*
X203010133Y-181190438D01*
X203124749Y-181149230D01*
X203220713Y-181109124D01*
X203302865Y-181068217D01*
X203376047Y-181024607D01*
X203392216Y-181013929D01*
X203492294Y-180932557D01*
X203559600Y-180844411D01*
X203594796Y-180748109D01*
X203598544Y-180642270D01*
X203591626Y-180598119D01*
X203555178Y-180496251D01*
X203489880Y-180407760D01*
X203394714Y-180331702D01*
X203268661Y-180267131D01*
X203210795Y-180244818D01*
X203166867Y-180229959D01*
X203125785Y-180218758D01*
X203081483Y-180210565D01*
X203027896Y-180204730D01*
X202958957Y-180200602D01*
X202868601Y-180197530D01*
X202750760Y-180194863D01*
X202743766Y-180194723D01*
X202616803Y-180192734D01*
X202517576Y-180192641D01*
X202439995Y-180194730D01*
G37*
X202439995Y-180194730D02*
X202377969Y-180199285D01*
X202325405Y-180206591D01*
X202278099Y-180216479D01*
X202207361Y-180237375D01*
X202123718Y-180268058D01*
X202036641Y-180304400D01*
X201955596Y-180342273D01*
X201890053Y-180377549D01*
X201855728Y-180400647D01*
X201838458Y-180417315D01*
X201836505Y-180434326D01*
X201852086Y-180460930D01*
X201878318Y-180494894D01*
X201909935Y-180533625D01*
X201932040Y-180558488D01*
X201937979Y-180563467D01*
X201951987Y-180552630D01*
X201981518Y-180525106D01*
X202000057Y-180506906D01*
X202074995Y-180451775D01*
X202178371Y-180405184D01*
X202305566Y-180368312D01*
X202451960Y-180342343D01*
X202612933Y-180328458D01*
X202705691Y-180326400D01*
X202885154Y-180333030D01*
X203036291Y-180353465D01*
X203162052Y-180388523D01*
X203265389Y-180439023D01*
X203347950Y-180504484D01*
X203389627Y-180549217D01*
X203411298Y-180585053D01*
X203419162Y-180624546D01*
X203419853Y-180650139D01*
X203407338Y-180730971D01*
X203367981Y-180802015D01*
X203298842Y-180867842D01*
X203263877Y-180892620D01*
X203210770Y-180925561D01*
X203153176Y-180956054D01*
X203086621Y-180985771D01*
X203006632Y-181016386D01*
X202908735Y-181049570D01*
X202788456Y-181086997D01*
X202641322Y-181130338D01*
X202583678Y-181146920D01*
X202384918Y-181206366D01*
X202217353Y-181262561D01*
X202078657Y-181317101D01*
X201966508Y-181371580D01*
X201878582Y-181427594D01*
X201812554Y-181486737D01*
X201766101Y-181550604D01*
X201736899Y-181620791D01*
X201722623Y-181698891D01*
X201720396Y-181739366D01*
X201733734Y-181860256D01*
X201778519Y-181970030D01*
X201853913Y-182067809D01*
X201959080Y-182152711D01*
X202093185Y-182223857D01*
X202226544Y-182272032D01*
X202274870Y-182283585D01*
X202343554Y-182296234D01*
X202424762Y-182308962D01*
X202510658Y-182320754D01*
X202593408Y-182330596D01*
X202665178Y-182337471D01*
X202718131Y-182340364D01*
X202742583Y-182338912D01*
X202762013Y-182336684D01*
X202807586Y-182332498D01*
X202871684Y-182327033D01*
X202920383Y-182323059D01*
X203013042Y-182312920D01*
X203112026Y-182297777D01*
X203200139Y-182280378D01*
X203224269Y-182274513D01*
X203302016Y-182250482D01*
X203391965Y-182216771D01*
X203484354Y-182177645D01*
X203569422Y-182137369D01*
X203637405Y-182100208D01*
X203664778Y-182082049D01*
X203682043Y-182066899D01*
X203685102Y-182051131D01*
X203671517Y-182026602D01*
X203638852Y-181985170D01*
X203634031Y-181979281D01*
X203570089Y-181901249D01*
X203530241Y-181948605D01*
X203476594Y-181994761D01*
X203395753Y-182041082D01*
X203294229Y-182084402D01*
X203178530Y-182121558D01*
X203169419Y-182124019D01*
X203075625Y-182142881D01*
X202958916Y-182157059D01*
X202828822Y-182166254D01*
X202694868Y-182170168D01*
X202566581Y-182168501D01*
X202453490Y-182160956D01*
X202372958Y-182148974D01*
X202236970Y-182110749D01*
X202117400Y-182058582D01*
X202019113Y-181995336D01*
X201946970Y-181923873D01*
X201920451Y-181882594D01*
X201899453Y-181811118D01*
X201899201Y-181729644D01*
X201919113Y-181654478D01*
X201929286Y-181635012D01*
X201960547Y-181592400D01*
X202001950Y-181552937D01*
X202056613Y-181515212D01*
X202127656Y-181477815D01*
X202218196Y-181439335D01*
X202331351Y-181398360D01*
X202470240Y-181353480D01*
X202637982Y-181303283D01*
X202705580Y-181283769D01*
X202872024Y-181234650D01*
X203010133Y-181190438D01*
X203124749Y-181149230D01*
X203220713Y-181109124D01*
X203302865Y-181068217D01*
X203376047Y-181024607D01*
X203392216Y-181013929D01*
X203492294Y-180932557D01*
X203559600Y-180844411D01*
X203594796Y-180748109D01*
X203598544Y-180642270D01*
X203591626Y-180598119D01*
X203555178Y-180496251D01*
X203489880Y-180407760D01*
X203394714Y-180331702D01*
X203268661Y-180267131D01*
X203210795Y-180244818D01*
X203166867Y-180229959D01*
X203125785Y-180218758D01*
X203081483Y-180210565D01*
X203027896Y-180204730D01*
X202958957Y-180200602D01*
X202868601Y-180197530D01*
X202750760Y-180194863D01*
X202743766Y-180194723D01*
X202616803Y-180192734D01*
X202517576Y-180192641D01*
X202439995Y-180194730D01*
G36*
X199848646Y-180204600D02*
G01*
X199720553Y-180220417D01*
X199605035Y-180249513D01*
X199492020Y-180294154D01*
X199419785Y-180330102D01*
X199366679Y-180359621D01*
X199341073Y-180382657D01*
X199341460Y-180408055D01*
X199366331Y-180444663D01*
X199394534Y-180478217D01*
X199441618Y-180533429D01*
X199481771Y-180490103D01*
X199536909Y-180445907D01*
X199614903Y-180409606D01*
X199720195Y-180379354D01*
X199776506Y-180367446D01*
X199960799Y-180345784D01*
X200137062Y-180352524D01*
X200302364Y-180386198D01*
X200453773Y-180445340D01*
X200588357Y-180528480D01*
X200703185Y-180634152D01*
X200795326Y-180760888D01*
X200861846Y-180907221D01*
X200863266Y-180911450D01*
X200876380Y-180958477D01*
X200890043Y-181019707D01*
X200902922Y-181087101D01*
X200913682Y-181152617D01*
X200920990Y-181208214D01*
X200923512Y-181245852D01*
X200920715Y-181257734D01*
X200906034Y-181249040D01*
X200871114Y-181226319D01*
X200826585Y-181196554D01*
X200654156Y-181100251D01*
X200464804Y-181031784D01*
X200262453Y-180992296D01*
X200092517Y-180982341D01*
X199915964Y-180994523D01*
X199754868Y-181029703D01*
X199611512Y-181085943D01*
X199488176Y-181161307D01*
X199387142Y-181253858D01*
X199310691Y-181361660D01*
X199261104Y-181482776D01*
X199240662Y-181615270D01*
X199243688Y-181702879D01*
X199273781Y-181835481D01*
X199333195Y-181956389D01*
X199418851Y-182063769D01*
X199527669Y-182155787D01*
X199656571Y-182230610D01*
X199802478Y-182286404D01*
X199962311Y-182321335D01*
X200132991Y-182333569D01*
X200287250Y-182324402D01*
X200471401Y-182288252D01*
X200633302Y-182226907D01*
X200772420Y-182140832D01*
X200888224Y-182030492D01*
X200980182Y-181896350D01*
X201047759Y-181738873D01*
X201075764Y-181636174D01*
X201088525Y-181567922D01*
X201095869Y-181497396D01*
X201097267Y-181450213D01*
X200917958Y-181450213D01*
X200907411Y-181552940D01*
X200880340Y-181673267D01*
X200826549Y-181794217D01*
X200751284Y-181905236D01*
X200708948Y-181952023D01*
X200647964Y-182003349D01*
X200569662Y-182055797D01*
X200484690Y-182103395D01*
X200403698Y-182140170D01*
X200338050Y-182160025D01*
X200267917Y-182167440D01*
X200178374Y-182169952D01*
X200081526Y-182167919D01*
X199989479Y-182161702D01*
X199914339Y-182151658D01*
X199892358Y-182146814D01*
X199765191Y-182103646D01*
X199658031Y-182043392D01*
X199581406Y-181981192D01*
X199510178Y-181906506D01*
X199464730Y-181833206D01*
X199440387Y-181750504D01*
X199432475Y-181647614D01*
X199432410Y-181637406D01*
X199433602Y-181565033D01*
X199439427Y-181514335D01*
X199452700Y-181473167D01*
X199476233Y-181429388D01*
X199483279Y-181417857D01*
X199561001Y-181320598D01*
X199661980Y-181243883D01*
X199787971Y-181186756D01*
X199940728Y-181148264D01*
X199993866Y-181139956D01*
X200157613Y-181132883D01*
X200328609Y-181153099D01*
X200498432Y-181198138D01*
X200658659Y-181265536D01*
X200800866Y-181352826D01*
X200847364Y-181389787D01*
X200917958Y-181450213D01*
X201097267Y-181450213D01*
X201098311Y-181415026D01*
X201096367Y-181311244D01*
X201095107Y-181277049D01*
X201081713Y-181097952D01*
X201055401Y-180944973D01*
X201013857Y-180812065D01*
X200954772Y-180693184D01*
X200875832Y-180582285D01*
X200795711Y-180494118D01*
X200681115Y-180391648D01*
X200562029Y-180313369D01*
X200432843Y-180257207D01*
X200287947Y-180221089D01*
X200121731Y-180202941D01*
X199999383Y-180199800D01*
X199848646Y-180204600D01*
G37*
X199848646Y-180204600D02*
X199720553Y-180220417D01*
X199605035Y-180249513D01*
X199492020Y-180294154D01*
X199419785Y-180330102D01*
X199366679Y-180359621D01*
X199341073Y-180382657D01*
X199341460Y-180408055D01*
X199366331Y-180444663D01*
X199394534Y-180478217D01*
X199441618Y-180533429D01*
X199481771Y-180490103D01*
X199536909Y-180445907D01*
X199614903Y-180409606D01*
X199720195Y-180379354D01*
X199776506Y-180367446D01*
X199960799Y-180345784D01*
X200137062Y-180352524D01*
X200302364Y-180386198D01*
X200453773Y-180445340D01*
X200588357Y-180528480D01*
X200703185Y-180634152D01*
X200795326Y-180760888D01*
X200861846Y-180907221D01*
X200863266Y-180911450D01*
X200876380Y-180958477D01*
X200890043Y-181019707D01*
X200902922Y-181087101D01*
X200913682Y-181152617D01*
X200920990Y-181208214D01*
X200923512Y-181245852D01*
X200920715Y-181257734D01*
X200906034Y-181249040D01*
X200871114Y-181226319D01*
X200826585Y-181196554D01*
X200654156Y-181100251D01*
X200464804Y-181031784D01*
X200262453Y-180992296D01*
X200092517Y-180982341D01*
X199915964Y-180994523D01*
X199754868Y-181029703D01*
X199611512Y-181085943D01*
X199488176Y-181161307D01*
X199387142Y-181253858D01*
X199310691Y-181361660D01*
X199261104Y-181482776D01*
X199240662Y-181615270D01*
X199243688Y-181702879D01*
X199273781Y-181835481D01*
X199333195Y-181956389D01*
X199418851Y-182063769D01*
X199527669Y-182155787D01*
X199656571Y-182230610D01*
X199802478Y-182286404D01*
X199962311Y-182321335D01*
X200132991Y-182333569D01*
X200287250Y-182324402D01*
X200471401Y-182288252D01*
X200633302Y-182226907D01*
X200772420Y-182140832D01*
X200888224Y-182030492D01*
X200980182Y-181896350D01*
X201047759Y-181738873D01*
X201075764Y-181636174D01*
X201088525Y-181567922D01*
X201095869Y-181497396D01*
X201097267Y-181450213D01*
X200917958Y-181450213D01*
X200907411Y-181552940D01*
X200880340Y-181673267D01*
X200826549Y-181794217D01*
X200751284Y-181905236D01*
X200708948Y-181952023D01*
X200647964Y-182003349D01*
X200569662Y-182055797D01*
X200484690Y-182103395D01*
X200403698Y-182140170D01*
X200338050Y-182160025D01*
X200267917Y-182167440D01*
X200178374Y-182169952D01*
X200081526Y-182167919D01*
X199989479Y-182161702D01*
X199914339Y-182151658D01*
X199892358Y-182146814D01*
X199765191Y-182103646D01*
X199658031Y-182043392D01*
X199581406Y-181981192D01*
X199510178Y-181906506D01*
X199464730Y-181833206D01*
X199440387Y-181750504D01*
X199432475Y-181647614D01*
X199432410Y-181637406D01*
X199433602Y-181565033D01*
X199439427Y-181514335D01*
X199452700Y-181473167D01*
X199476233Y-181429388D01*
X199483279Y-181417857D01*
X199561001Y-181320598D01*
X199661980Y-181243883D01*
X199787971Y-181186756D01*
X199940728Y-181148264D01*
X199993866Y-181139956D01*
X200157613Y-181132883D01*
X200328609Y-181153099D01*
X200498432Y-181198138D01*
X200658659Y-181265536D01*
X200800866Y-181352826D01*
X200847364Y-181389787D01*
X200917958Y-181450213D01*
X201097267Y-181450213D01*
X201098311Y-181415026D01*
X201096367Y-181311244D01*
X201095107Y-181277049D01*
X201081713Y-181097952D01*
X201055401Y-180944973D01*
X201013857Y-180812065D01*
X200954772Y-180693184D01*
X200875832Y-180582285D01*
X200795711Y-180494118D01*
X200681115Y-180391648D01*
X200562029Y-180313369D01*
X200432843Y-180257207D01*
X200287947Y-180221089D01*
X200121731Y-180202941D01*
X199999383Y-180199800D01*
X199848646Y-180204600D01*
G36*
X196782050Y-180360267D02*
G01*
X198202915Y-180360267D01*
X198211789Y-180415300D01*
X198217975Y-180461430D01*
X198225415Y-180528874D01*
X198233595Y-180611480D01*
X198242003Y-180703099D01*
X198250126Y-180797580D01*
X198257451Y-180888773D01*
X198263467Y-180970526D01*
X198267659Y-181036690D01*
X198269515Y-181081115D01*
X198268660Y-181097567D01*
X198249467Y-181096789D01*
X198211341Y-181084933D01*
X198195959Y-181078832D01*
X198076618Y-181039722D01*
X197934078Y-181010249D01*
X197777801Y-180991096D01*
X197617249Y-180982951D01*
X197461887Y-180986500D01*
X197321177Y-181002426D01*
X197273116Y-181011958D01*
X197110231Y-181061153D01*
X196969788Y-181128718D01*
X196855318Y-181212812D01*
X196819336Y-181248749D01*
X196749948Y-181337981D01*
X196704680Y-181431120D01*
X196680315Y-181537197D01*
X196673602Y-181658016D01*
X196675602Y-181734274D01*
X196683316Y-181791456D01*
X196699988Y-181844262D01*
X196728515Y-181906679D01*
X196806723Y-182027805D01*
X196912036Y-182129445D01*
X197043552Y-182211151D01*
X197200368Y-182272473D01*
X197381581Y-182312963D01*
X197585262Y-182332132D01*
X197676874Y-182333734D01*
X197770388Y-182332013D01*
X197852038Y-182327365D01*
X197889192Y-182323393D01*
X198007195Y-182300502D01*
X198130327Y-182265187D01*
X198251161Y-182220574D01*
X198362270Y-182169791D01*
X198456229Y-182115964D01*
X198525611Y-182062221D01*
X198536868Y-182050688D01*
X198572870Y-182011267D01*
X198490260Y-181947509D01*
X198441658Y-181913405D01*
X198413817Y-181901780D01*
X198407650Y-181907904D01*
X198392258Y-181942363D01*
X198349836Y-181982520D01*
X198286015Y-182025114D01*
X198206424Y-182066884D01*
X198116695Y-182104572D01*
X198022457Y-182134916D01*
X198009897Y-182138221D01*
X197835971Y-182172129D01*
X197668167Y-182184713D01*
X197509058Y-182177402D01*
X197361215Y-182151628D01*
X197227212Y-182108819D01*
X197109619Y-182050405D01*
X197011009Y-181977817D01*
X196933953Y-181892483D01*
X196881025Y-181795834D01*
X196854796Y-181689299D01*
X196857838Y-181574309D01*
X196873382Y-181506435D01*
X196922441Y-181400343D01*
X197000067Y-181311205D01*
X197105222Y-181239528D01*
X197236868Y-181185819D01*
X197393967Y-181150587D01*
X197575482Y-181134336D01*
X197637183Y-181133231D01*
X197791100Y-181138237D01*
X197923792Y-181155584D01*
X198046389Y-181187602D01*
X198170020Y-181236621D01*
X198201615Y-181251431D01*
X198274814Y-181283994D01*
X198327730Y-181300423D01*
X198368505Y-181302997D01*
X198379883Y-181301352D01*
X198406157Y-181296408D01*
X198426902Y-181290450D01*
X198442366Y-181279945D01*
X198452797Y-181261362D01*
X198458446Y-181231169D01*
X198459560Y-181185834D01*
X198456388Y-181121824D01*
X198449179Y-181035607D01*
X198438183Y-180923651D01*
X198423647Y-180782425D01*
X198419360Y-180740879D01*
X198365316Y-180216334D01*
X196782050Y-180207532D01*
X196782050Y-180360267D01*
G37*
X196782050Y-180360267D02*
X198202915Y-180360267D01*
X198211789Y-180415300D01*
X198217975Y-180461430D01*
X198225415Y-180528874D01*
X198233595Y-180611480D01*
X198242003Y-180703099D01*
X198250126Y-180797580D01*
X198257451Y-180888773D01*
X198263467Y-180970526D01*
X198267659Y-181036690D01*
X198269515Y-181081115D01*
X198268660Y-181097567D01*
X198249467Y-181096789D01*
X198211341Y-181084933D01*
X198195959Y-181078832D01*
X198076618Y-181039722D01*
X197934078Y-181010249D01*
X197777801Y-180991096D01*
X197617249Y-180982951D01*
X197461887Y-180986500D01*
X197321177Y-181002426D01*
X197273116Y-181011958D01*
X197110231Y-181061153D01*
X196969788Y-181128718D01*
X196855318Y-181212812D01*
X196819336Y-181248749D01*
X196749948Y-181337981D01*
X196704680Y-181431120D01*
X196680315Y-181537197D01*
X196673602Y-181658016D01*
X196675602Y-181734274D01*
X196683316Y-181791456D01*
X196699988Y-181844262D01*
X196728515Y-181906679D01*
X196806723Y-182027805D01*
X196912036Y-182129445D01*
X197043552Y-182211151D01*
X197200368Y-182272473D01*
X197381581Y-182312963D01*
X197585262Y-182332132D01*
X197676874Y-182333734D01*
X197770388Y-182332013D01*
X197852038Y-182327365D01*
X197889192Y-182323393D01*
X198007195Y-182300502D01*
X198130327Y-182265187D01*
X198251161Y-182220574D01*
X198362270Y-182169791D01*
X198456229Y-182115964D01*
X198525611Y-182062221D01*
X198536868Y-182050688D01*
X198572870Y-182011267D01*
X198490260Y-181947509D01*
X198441658Y-181913405D01*
X198413817Y-181901780D01*
X198407650Y-181907904D01*
X198392258Y-181942363D01*
X198349836Y-181982520D01*
X198286015Y-182025114D01*
X198206424Y-182066884D01*
X198116695Y-182104572D01*
X198022457Y-182134916D01*
X198009897Y-182138221D01*
X197835971Y-182172129D01*
X197668167Y-182184713D01*
X197509058Y-182177402D01*
X197361215Y-182151628D01*
X197227212Y-182108819D01*
X197109619Y-182050405D01*
X197011009Y-181977817D01*
X196933953Y-181892483D01*
X196881025Y-181795834D01*
X196854796Y-181689299D01*
X196857838Y-181574309D01*
X196873382Y-181506435D01*
X196922441Y-181400343D01*
X197000067Y-181311205D01*
X197105222Y-181239528D01*
X197236868Y-181185819D01*
X197393967Y-181150587D01*
X197575482Y-181134336D01*
X197637183Y-181133231D01*
X197791100Y-181138237D01*
X197923792Y-181155584D01*
X198046389Y-181187602D01*
X198170020Y-181236621D01*
X198201615Y-181251431D01*
X198274814Y-181283994D01*
X198327730Y-181300423D01*
X198368505Y-181302997D01*
X198379883Y-181301352D01*
X198406157Y-181296408D01*
X198426902Y-181290450D01*
X198442366Y-181279945D01*
X198452797Y-181261362D01*
X198458446Y-181231169D01*
X198459560Y-181185834D01*
X198456388Y-181121824D01*
X198449179Y-181035607D01*
X198438183Y-180923651D01*
X198423647Y-180782425D01*
X198419360Y-180740879D01*
X198365316Y-180216334D01*
X196782050Y-180207532D01*
X196782050Y-180360267D01*
G36*
X195860200Y-180191912D02*
G01*
X195831149Y-180196284D01*
X195823026Y-180206202D01*
X195827738Y-180220567D01*
X195830436Y-180242617D01*
X195832971Y-180295377D01*
X195835296Y-180375689D01*
X195837364Y-180480397D01*
X195839130Y-180606343D01*
X195840545Y-180750372D01*
X195841563Y-180909325D01*
X195842137Y-181080046D01*
X195842250Y-181198467D01*
X195842250Y-182146733D01*
X194990384Y-182151124D01*
X194138518Y-182155514D01*
X194148916Y-182299134D01*
X195084483Y-182303510D01*
X196020050Y-182307887D01*
X196020050Y-180190934D01*
X195916638Y-180190934D01*
X195860200Y-180191912D01*
G37*
X195860200Y-180191912D02*
X195831149Y-180196284D01*
X195823026Y-180206202D01*
X195827738Y-180220567D01*
X195830436Y-180242617D01*
X195832971Y-180295377D01*
X195835296Y-180375689D01*
X195837364Y-180480397D01*
X195839130Y-180606343D01*
X195840545Y-180750372D01*
X195841563Y-180909325D01*
X195842137Y-181080046D01*
X195842250Y-181198467D01*
X195842250Y-182146733D01*
X194990384Y-182151124D01*
X194138518Y-182155514D01*
X194148916Y-182299134D01*
X195084483Y-182303510D01*
X196020050Y-182307887D01*
X196020050Y-180190934D01*
X195916638Y-180190934D01*
X195860200Y-180191912D01*
G36*
X193405630Y-180191675D02*
G01*
X193376216Y-180195842D01*
X193366803Y-180206351D01*
X193370460Y-180226115D01*
X193371380Y-180229034D01*
X193381078Y-180265973D01*
X193383655Y-180284067D01*
X193383583Y-180305138D01*
X193383312Y-180355158D01*
X193382872Y-180429212D01*
X193382291Y-180522382D01*
X193381600Y-180629752D01*
X193381117Y-180703167D01*
X193378450Y-181105333D01*
X191786716Y-181105333D01*
X191786716Y-180190934D01*
X191683305Y-180190934D01*
X191626867Y-180191912D01*
X191597815Y-180196284D01*
X191589693Y-180206202D01*
X191594405Y-180220567D01*
X191597068Y-180242411D01*
X191599719Y-180295102D01*
X191602304Y-180375619D01*
X191604768Y-180480943D01*
X191607057Y-180608054D01*
X191609117Y-180753932D01*
X191610894Y-180915556D01*
X191612334Y-181089907D01*
X191613382Y-181273964D01*
X191613408Y-181279776D01*
X191617899Y-182309352D01*
X191795183Y-182299134D01*
X191804139Y-181257734D01*
X192591050Y-181257734D01*
X193377960Y-181257733D01*
X193382438Y-181778434D01*
X193386916Y-182299134D01*
X193564716Y-182309370D01*
X193564716Y-180190934D01*
X193461975Y-180190934D01*
X193405630Y-180191675D01*
G37*
X193405630Y-180191675D02*
X193376216Y-180195842D01*
X193366803Y-180206351D01*
X193370460Y-180226115D01*
X193371380Y-180229034D01*
X193381078Y-180265973D01*
X193383655Y-180284067D01*
X193383583Y-180305138D01*
X193383312Y-180355158D01*
X193382872Y-180429212D01*
X193382291Y-180522382D01*
X193381600Y-180629752D01*
X193381117Y-180703167D01*
X193378450Y-181105333D01*
X191786716Y-181105333D01*
X191786716Y-180190934D01*
X191683305Y-180190934D01*
X191626867Y-180191912D01*
X191597815Y-180196284D01*
X191589693Y-180206202D01*
X191594405Y-180220567D01*
X191597068Y-180242411D01*
X191599719Y-180295102D01*
X191602304Y-180375619D01*
X191604768Y-180480943D01*
X191607057Y-180608054D01*
X191609117Y-180753932D01*
X191610894Y-180915556D01*
X191612334Y-181089907D01*
X191613382Y-181273964D01*
X191613408Y-181279776D01*
X191617899Y-182309352D01*
X191795183Y-182299134D01*
X191804139Y-181257734D01*
X192591050Y-181257734D01*
X193377960Y-181257733D01*
X193382438Y-181778434D01*
X193386916Y-182299134D01*
X193564716Y-182309370D01*
X193564716Y-180190934D01*
X193461975Y-180190934D01*
X193405630Y-180191675D01*
G36*
X161907209Y-182946914D02*
G01*
X164288494Y-180565699D01*
X164288494Y-183740425D01*
X163494848Y-184534277D01*
X162701201Y-185328129D01*
X165087500Y-185328129D01*
X165087500Y-178978130D01*
X164299076Y-178978130D01*
X161917792Y-181359345D01*
X159536507Y-183740560D01*
X159536507Y-180565834D01*
X160330153Y-179771982D01*
X161123800Y-178978130D01*
X158737501Y-178978130D01*
X158737501Y-185328129D01*
X159525925Y-185328129D01*
X161907209Y-182946914D01*
G37*
X161907209Y-182946914D02*
X164288494Y-180565699D01*
X164288494Y-183740425D01*
X163494848Y-184534277D01*
X162701201Y-185328129D01*
X165087500Y-185328129D01*
X165087500Y-178978130D01*
X164299076Y-178978130D01*
X161917792Y-181359345D01*
X159536507Y-183740560D01*
X159536507Y-180565834D01*
X160330153Y-179771982D01*
X161123800Y-178978130D01*
X158737501Y-178978130D01*
X158737501Y-185328129D01*
X159525925Y-185328129D01*
X161907209Y-182946914D01*
G36*
X137172900Y-180146771D02*
G01*
X137076071Y-180257773D01*
X137003975Y-180340244D01*
X136923563Y-180431916D01*
X136836251Y-180531195D01*
X136743457Y-180636487D01*
X136646596Y-180746199D01*
X136547085Y-180858737D01*
X136446340Y-180972509D01*
X136345778Y-181085921D01*
X136246815Y-181197379D01*
X136150867Y-181305291D01*
X136059352Y-181408062D01*
X135973686Y-181504099D01*
X135895284Y-181591810D01*
X135825563Y-181669600D01*
X135765941Y-181735877D01*
X135717832Y-181789046D01*
X135682655Y-181827516D01*
X135661824Y-181849691D01*
X135656491Y-181854675D01*
X135646847Y-181845318D01*
X135621743Y-181818156D01*
X135582384Y-181774554D01*
X135529975Y-181715874D01*
X135465720Y-181643480D01*
X135390826Y-181558735D01*
X135306497Y-181463003D01*
X135213938Y-181357648D01*
X135114355Y-181244033D01*
X135008953Y-181123521D01*
X134906316Y-181005938D01*
X134796434Y-180880062D01*
X134691153Y-180759700D01*
X134591687Y-180646225D01*
X134499253Y-180541015D01*
X134415065Y-180445445D01*
X134340340Y-180360890D01*
X134276294Y-180288726D01*
X134224141Y-180230329D01*
X134185097Y-180187075D01*
X134160378Y-180160339D01*
X134151320Y-180151508D01*
X134133913Y-180149726D01*
X134096012Y-180148656D01*
X134042518Y-180148351D01*
X133978328Y-180148863D01*
X133948801Y-180149345D01*
X133761118Y-180152875D01*
X135413660Y-182107587D01*
X135384040Y-182139881D01*
X135362753Y-182163385D01*
X135326965Y-182203261D01*
X135278023Y-182257991D01*
X135217272Y-182326060D01*
X135146057Y-182405955D01*
X135065724Y-182496158D01*
X134977618Y-182595154D01*
X134883086Y-182701428D01*
X134783472Y-182813466D01*
X134680123Y-182929750D01*
X134574384Y-183048766D01*
X134467600Y-183168998D01*
X134361117Y-183288932D01*
X134256282Y-183407051D01*
X134154439Y-183521840D01*
X134056933Y-183631784D01*
X133965112Y-183735367D01*
X133880320Y-183831074D01*
X133803902Y-183917389D01*
X133737205Y-183992797D01*
X133681575Y-184055784D01*
X133638355Y-184104832D01*
X133608894Y-184138427D01*
X133594535Y-184155054D01*
X133593345Y-184156550D01*
X133594904Y-184162474D01*
X133609669Y-184166812D01*
X133640341Y-184169767D01*
X133689621Y-184171539D01*
X133760211Y-184172332D01*
X133805361Y-184172425D01*
X134027071Y-184172425D01*
X134808309Y-183304463D01*
X134922722Y-183177337D01*
X135032729Y-183055078D01*
X135137084Y-182939075D01*
X135234538Y-182830717D01*
X135323845Y-182731390D01*
X135403758Y-182642482D01*
X135473028Y-182565382D01*
X135530408Y-182501477D01*
X135574652Y-182452155D01*
X135604511Y-182418804D01*
X135618738Y-182402811D01*
X135619224Y-182402254D01*
X135648900Y-182368005D01*
X136328350Y-183158182D01*
X136435628Y-183282952D01*
X136540039Y-183404406D01*
X136640121Y-183520843D01*
X136734410Y-183630558D01*
X136821443Y-183731848D01*
X136899756Y-183823009D01*
X136967887Y-183902339D01*
X137024370Y-183968134D01*
X137067744Y-184018690D01*
X137096544Y-184052304D01*
X137103050Y-184059915D01*
X137198300Y-184171471D01*
X137411025Y-184171948D01*
X137481322Y-184171747D01*
X137541820Y-184170889D01*
X137588365Y-184169489D01*
X137616803Y-184167662D01*
X137623750Y-184166069D01*
X137615699Y-184155728D01*
X137592261Y-184127318D01*
X137554513Y-184082112D01*
X137503531Y-184021384D01*
X137440389Y-183946408D01*
X137366165Y-183858458D01*
X137281934Y-183758807D01*
X137188772Y-183648729D01*
X137087755Y-183529499D01*
X136979957Y-183402389D01*
X136866456Y-183268674D01*
X136760150Y-183143538D01*
X136642384Y-183004847D01*
X136529355Y-182871504D01*
X136422142Y-182744794D01*
X136321821Y-182626000D01*
X136229470Y-182516404D01*
X136146165Y-182417290D01*
X136072985Y-182329942D01*
X136011005Y-182255642D01*
X135961304Y-182195674D01*
X135924957Y-182151321D01*
X135903043Y-182123866D01*
X135896550Y-182114671D01*
X135904742Y-182103544D01*
X135928572Y-182074625D01*
X135966920Y-182029207D01*
X136018668Y-181968587D01*
X136082697Y-181894059D01*
X136157887Y-181806920D01*
X136243120Y-181708465D01*
X136337276Y-181599988D01*
X136439237Y-181482785D01*
X136547884Y-181358152D01*
X136662098Y-181227384D01*
X136738426Y-181140126D01*
X136855828Y-181005947D01*
X136968561Y-180877014D01*
X137075491Y-180754632D01*
X137175482Y-180640101D01*
X137267399Y-180534725D01*
X137350110Y-180439807D01*
X137422478Y-180356649D01*
X137483368Y-180286553D01*
X137531648Y-180230822D01*
X137566181Y-180190759D01*
X137585834Y-180167667D01*
X137590075Y-180162400D01*
X137588591Y-180156382D01*
X137573799Y-180152014D01*
X137542957Y-180149084D01*
X137493325Y-180147379D01*
X137422160Y-180146687D01*
X137386375Y-180146648D01*
X137172900Y-180146771D01*
G37*
X137172900Y-180146771D02*
X137076071Y-180257773D01*
X137003975Y-180340244D01*
X136923563Y-180431916D01*
X136836251Y-180531195D01*
X136743457Y-180636487D01*
X136646596Y-180746199D01*
X136547085Y-180858737D01*
X136446340Y-180972509D01*
X136345778Y-181085921D01*
X136246815Y-181197379D01*
X136150867Y-181305291D01*
X136059352Y-181408062D01*
X135973686Y-181504099D01*
X135895284Y-181591810D01*
X135825563Y-181669600D01*
X135765941Y-181735877D01*
X135717832Y-181789046D01*
X135682655Y-181827516D01*
X135661824Y-181849691D01*
X135656491Y-181854675D01*
X135646847Y-181845318D01*
X135621743Y-181818156D01*
X135582384Y-181774554D01*
X135529975Y-181715874D01*
X135465720Y-181643480D01*
X135390826Y-181558735D01*
X135306497Y-181463003D01*
X135213938Y-181357648D01*
X135114355Y-181244033D01*
X135008953Y-181123521D01*
X134906316Y-181005938D01*
X134796434Y-180880062D01*
X134691153Y-180759700D01*
X134591687Y-180646225D01*
X134499253Y-180541015D01*
X134415065Y-180445445D01*
X134340340Y-180360890D01*
X134276294Y-180288726D01*
X134224141Y-180230329D01*
X134185097Y-180187075D01*
X134160378Y-180160339D01*
X134151320Y-180151508D01*
X134133913Y-180149726D01*
X134096012Y-180148656D01*
X134042518Y-180148351D01*
X133978328Y-180148863D01*
X133948801Y-180149345D01*
X133761118Y-180152875D01*
X135413660Y-182107587D01*
X135384040Y-182139881D01*
X135362753Y-182163385D01*
X135326965Y-182203261D01*
X135278023Y-182257991D01*
X135217272Y-182326060D01*
X135146057Y-182405955D01*
X135065724Y-182496158D01*
X134977618Y-182595154D01*
X134883086Y-182701428D01*
X134783472Y-182813466D01*
X134680123Y-182929750D01*
X134574384Y-183048766D01*
X134467600Y-183168998D01*
X134361117Y-183288932D01*
X134256282Y-183407051D01*
X134154439Y-183521840D01*
X134056933Y-183631784D01*
X133965112Y-183735367D01*
X133880320Y-183831074D01*
X133803902Y-183917389D01*
X133737205Y-183992797D01*
X133681575Y-184055784D01*
X133638355Y-184104832D01*
X133608894Y-184138427D01*
X133594535Y-184155054D01*
X133593345Y-184156550D01*
X133594904Y-184162474D01*
X133609669Y-184166812D01*
X133640341Y-184169767D01*
X133689621Y-184171539D01*
X133760211Y-184172332D01*
X133805361Y-184172425D01*
X134027071Y-184172425D01*
X134808309Y-183304463D01*
X134922722Y-183177337D01*
X135032729Y-183055078D01*
X135137084Y-182939075D01*
X135234538Y-182830717D01*
X135323845Y-182731390D01*
X135403758Y-182642482D01*
X135473028Y-182565382D01*
X135530408Y-182501477D01*
X135574652Y-182452155D01*
X135604511Y-182418804D01*
X135618738Y-182402811D01*
X135619224Y-182402254D01*
X135648900Y-182368005D01*
X136328350Y-183158182D01*
X136435628Y-183282952D01*
X136540039Y-183404406D01*
X136640121Y-183520843D01*
X136734410Y-183630558D01*
X136821443Y-183731848D01*
X136899756Y-183823009D01*
X136967887Y-183902339D01*
X137024370Y-183968134D01*
X137067744Y-184018690D01*
X137096544Y-184052304D01*
X137103050Y-184059915D01*
X137198300Y-184171471D01*
X137411025Y-184171948D01*
X137481322Y-184171747D01*
X137541820Y-184170889D01*
X137588365Y-184169489D01*
X137616803Y-184167662D01*
X137623750Y-184166069D01*
X137615699Y-184155728D01*
X137592261Y-184127318D01*
X137554513Y-184082112D01*
X137503531Y-184021384D01*
X137440389Y-183946408D01*
X137366165Y-183858458D01*
X137281934Y-183758807D01*
X137188772Y-183648729D01*
X137087755Y-183529499D01*
X136979957Y-183402389D01*
X136866456Y-183268674D01*
X136760150Y-183143538D01*
X136642384Y-183004847D01*
X136529355Y-182871504D01*
X136422142Y-182744794D01*
X136321821Y-182626000D01*
X136229470Y-182516404D01*
X136146165Y-182417290D01*
X136072985Y-182329942D01*
X136011005Y-182255642D01*
X135961304Y-182195674D01*
X135924957Y-182151321D01*
X135903043Y-182123866D01*
X135896550Y-182114671D01*
X135904742Y-182103544D01*
X135928572Y-182074625D01*
X135966920Y-182029207D01*
X136018668Y-181968587D01*
X136082697Y-181894059D01*
X136157887Y-181806920D01*
X136243120Y-181708465D01*
X136337276Y-181599988D01*
X136439237Y-181482785D01*
X136547884Y-181358152D01*
X136662098Y-181227384D01*
X136738426Y-181140126D01*
X136855828Y-181005947D01*
X136968561Y-180877014D01*
X137075491Y-180754632D01*
X137175482Y-180640101D01*
X137267399Y-180534725D01*
X137350110Y-180439807D01*
X137422478Y-180356649D01*
X137483368Y-180286553D01*
X137531648Y-180230822D01*
X137566181Y-180190759D01*
X137585834Y-180167667D01*
X137590075Y-180162400D01*
X137588591Y-180156382D01*
X137573799Y-180152014D01*
X137542957Y-180149084D01*
X137493325Y-180147379D01*
X137422160Y-180146687D01*
X137386375Y-180146648D01*
X137172900Y-180146771D01*
G36*
X138665150Y-180451325D02*
G01*
X141979850Y-180451325D01*
X141979850Y-181924525D01*
X139185850Y-181924525D01*
X139185850Y-182229325D01*
X141979850Y-182229325D01*
X141979850Y-183867625D01*
X138690550Y-183867625D01*
X138690550Y-184172425D01*
X142322750Y-184172425D01*
X142322750Y-180146525D01*
X138665150Y-180146525D01*
X138665150Y-180451325D01*
G37*
X138665150Y-180451325D02*
X141979850Y-180451325D01*
X141979850Y-181924525D01*
X139185850Y-181924525D01*
X139185850Y-182229325D01*
X141979850Y-182229325D01*
X141979850Y-183867625D01*
X138690550Y-183867625D01*
X138690550Y-184172425D01*
X142322750Y-184172425D01*
X142322750Y-180146525D01*
X138665150Y-180146525D01*
X138665150Y-180451325D01*
G36*
X145951775Y-180162497D02*
G01*
X145747508Y-180163297D01*
X145566968Y-180164098D01*
X145408485Y-180164936D01*
X145270386Y-180165843D01*
X145151000Y-180166853D01*
X145048655Y-180168000D01*
X144961679Y-180169318D01*
X144888400Y-180170840D01*
X144827146Y-180172600D01*
X144776247Y-180174632D01*
X144734029Y-180176969D01*
X144698821Y-180179645D01*
X144668951Y-180182694D01*
X144642748Y-180186150D01*
X144623007Y-180189279D01*
X144430462Y-180227719D01*
X144260150Y-180274462D01*
X144110007Y-180330411D01*
X143977967Y-180396471D01*
X143861967Y-180473547D01*
X143759939Y-180562543D01*
X143751500Y-180571037D01*
X143676713Y-180652947D01*
X143618778Y-180731288D01*
X143572266Y-180814679D01*
X143531746Y-180911739D01*
X143524924Y-180930607D01*
X143509993Y-180973894D01*
X143499380Y-181009986D01*
X143492342Y-181044759D01*
X143488135Y-181084089D01*
X143486015Y-181133852D01*
X143485237Y-181199924D01*
X143485113Y-181245075D01*
X143486872Y-181352158D01*
X143493381Y-181439839D01*
X143505940Y-181513879D01*
X143525850Y-181580041D01*
X143554412Y-181644087D01*
X143589008Y-181705370D01*
X143684340Y-181840248D01*
X143796406Y-181958193D01*
X143925939Y-182059646D01*
X144073667Y-182145047D01*
X144240324Y-182214839D01*
X144426639Y-182269462D01*
X144573865Y-182299732D01*
X144625140Y-182308957D01*
X144665927Y-182316914D01*
X144690493Y-182322454D01*
X144694995Y-182324035D01*
X144688051Y-182334478D01*
X144666751Y-182363669D01*
X144632173Y-182410183D01*
X144585393Y-182472595D01*
X144527488Y-182549479D01*
X144459536Y-182639411D01*
X144382614Y-182740964D01*
X144297799Y-182852714D01*
X144206168Y-182973234D01*
X144108798Y-183101101D01*
X144006765Y-183234887D01*
X143999811Y-183243999D01*
X143897422Y-183378208D01*
X143799546Y-183506632D01*
X143707267Y-183627841D01*
X143621670Y-183740405D01*
X143543839Y-183842893D01*
X143474859Y-183933874D01*
X143415814Y-184011918D01*
X143367789Y-184075594D01*
X143331869Y-184123471D01*
X143309138Y-184154119D01*
X143300680Y-184166108D01*
X143300650Y-184166205D01*
X143312662Y-184168248D01*
X143345945Y-184170010D01*
X143396369Y-184171369D01*
X143459808Y-184172208D01*
X143516035Y-184172425D01*
X143731419Y-184172425D01*
X145107721Y-182343625D01*
X146805850Y-182343625D01*
X146805850Y-184172425D01*
X147148750Y-184172425D01*
X147148750Y-181248559D01*
X146805850Y-181248559D01*
X146805717Y-181387557D01*
X146805333Y-181518980D01*
X146804722Y-181640634D01*
X146803906Y-181750327D01*
X146802909Y-181845867D01*
X146801755Y-181925061D01*
X146800467Y-181985717D01*
X146799068Y-182025643D01*
X146797582Y-182042646D01*
X146797384Y-182043058D01*
X146783124Y-182044898D01*
X146745902Y-182046487D01*
X146688155Y-182047832D01*
X146612318Y-182048936D01*
X146520827Y-182049805D01*
X146416120Y-182050443D01*
X146300633Y-182050854D01*
X146176802Y-182051044D01*
X146047064Y-182051018D01*
X145913855Y-182050780D01*
X145779611Y-182050335D01*
X145646769Y-182049687D01*
X145517766Y-182048842D01*
X145395037Y-182047804D01*
X145281019Y-182046578D01*
X145178149Y-182045169D01*
X145088863Y-182043581D01*
X145015597Y-182041819D01*
X144960788Y-182039889D01*
X144951650Y-182039452D01*
X144773389Y-182026563D01*
X144616673Y-182006816D01*
X144478415Y-181979546D01*
X144355527Y-181944089D01*
X144244921Y-181899780D01*
X144200191Y-181877748D01*
X144122372Y-181829674D01*
X144045645Y-181769057D01*
X143977620Y-181702602D01*
X143925905Y-181637011D01*
X143924533Y-181634890D01*
X143869714Y-181526638D01*
X143835908Y-181408185D01*
X143823279Y-181283837D01*
X143831990Y-181157898D01*
X143862205Y-181034674D01*
X143898481Y-180947812D01*
X143957463Y-180849608D01*
X144030566Y-180764123D01*
X144119574Y-180690276D01*
X144226268Y-180626985D01*
X144352432Y-180573171D01*
X144499849Y-180527754D01*
X144646850Y-180494214D01*
X144669148Y-180490254D01*
X144694812Y-180486772D01*
X144725624Y-180483725D01*
X144763366Y-180481072D01*
X144809821Y-180478770D01*
X144866772Y-180476779D01*
X144936000Y-180475056D01*
X145019289Y-180473559D01*
X145118420Y-180472247D01*
X145235176Y-180471079D01*
X145371339Y-180470011D01*
X145528693Y-180469003D01*
X145709018Y-180468013D01*
X145780325Y-180467651D01*
X146805850Y-180462527D01*
X146805850Y-181248559D01*
X147148750Y-181248559D01*
X147148750Y-180158024D01*
X145951775Y-180162497D01*
G37*
X145951775Y-180162497D02*
X145747508Y-180163297D01*
X145566968Y-180164098D01*
X145408485Y-180164936D01*
X145270386Y-180165843D01*
X145151000Y-180166853D01*
X145048655Y-180168000D01*
X144961679Y-180169318D01*
X144888400Y-180170840D01*
X144827146Y-180172600D01*
X144776247Y-180174632D01*
X144734029Y-180176969D01*
X144698821Y-180179645D01*
X144668951Y-180182694D01*
X144642748Y-180186150D01*
X144623007Y-180189279D01*
X144430462Y-180227719D01*
X144260150Y-180274462D01*
X144110007Y-180330411D01*
X143977967Y-180396471D01*
X143861967Y-180473547D01*
X143759939Y-180562543D01*
X143751500Y-180571037D01*
X143676713Y-180652947D01*
X143618778Y-180731288D01*
X143572266Y-180814679D01*
X143531746Y-180911739D01*
X143524924Y-180930607D01*
X143509993Y-180973894D01*
X143499380Y-181009986D01*
X143492342Y-181044759D01*
X143488135Y-181084089D01*
X143486015Y-181133852D01*
X143485237Y-181199924D01*
X143485113Y-181245075D01*
X143486872Y-181352158D01*
X143493381Y-181439839D01*
X143505940Y-181513879D01*
X143525850Y-181580041D01*
X143554412Y-181644087D01*
X143589008Y-181705370D01*
X143684340Y-181840248D01*
X143796406Y-181958193D01*
X143925939Y-182059646D01*
X144073667Y-182145047D01*
X144240324Y-182214839D01*
X144426639Y-182269462D01*
X144573865Y-182299732D01*
X144625140Y-182308957D01*
X144665927Y-182316914D01*
X144690493Y-182322454D01*
X144694995Y-182324035D01*
X144688051Y-182334478D01*
X144666751Y-182363669D01*
X144632173Y-182410183D01*
X144585393Y-182472595D01*
X144527488Y-182549479D01*
X144459536Y-182639411D01*
X144382614Y-182740964D01*
X144297799Y-182852714D01*
X144206168Y-182973234D01*
X144108798Y-183101101D01*
X144006765Y-183234887D01*
X143999811Y-183243999D01*
X143897422Y-183378208D01*
X143799546Y-183506632D01*
X143707267Y-183627841D01*
X143621670Y-183740405D01*
X143543839Y-183842893D01*
X143474859Y-183933874D01*
X143415814Y-184011918D01*
X143367789Y-184075594D01*
X143331869Y-184123471D01*
X143309138Y-184154119D01*
X143300680Y-184166108D01*
X143300650Y-184166205D01*
X143312662Y-184168248D01*
X143345945Y-184170010D01*
X143396369Y-184171369D01*
X143459808Y-184172208D01*
X143516035Y-184172425D01*
X143731419Y-184172425D01*
X145107721Y-182343625D01*
X146805850Y-182343625D01*
X146805850Y-184172425D01*
X147148750Y-184172425D01*
X147148750Y-181248559D01*
X146805850Y-181248559D01*
X146805717Y-181387557D01*
X146805333Y-181518980D01*
X146804722Y-181640634D01*
X146803906Y-181750327D01*
X146802909Y-181845867D01*
X146801755Y-181925061D01*
X146800467Y-181985717D01*
X146799068Y-182025643D01*
X146797582Y-182042646D01*
X146797384Y-182043058D01*
X146783124Y-182044898D01*
X146745902Y-182046487D01*
X146688155Y-182047832D01*
X146612318Y-182048936D01*
X146520827Y-182049805D01*
X146416120Y-182050443D01*
X146300633Y-182050854D01*
X146176802Y-182051044D01*
X146047064Y-182051018D01*
X145913855Y-182050780D01*
X145779611Y-182050335D01*
X145646769Y-182049687D01*
X145517766Y-182048842D01*
X145395037Y-182047804D01*
X145281019Y-182046578D01*
X145178149Y-182045169D01*
X145088863Y-182043581D01*
X145015597Y-182041819D01*
X144960788Y-182039889D01*
X144951650Y-182039452D01*
X144773389Y-182026563D01*
X144616673Y-182006816D01*
X144478415Y-181979546D01*
X144355527Y-181944089D01*
X144244921Y-181899780D01*
X144200191Y-181877748D01*
X144122372Y-181829674D01*
X144045645Y-181769057D01*
X143977620Y-181702602D01*
X143925905Y-181637011D01*
X143924533Y-181634890D01*
X143869714Y-181526638D01*
X143835908Y-181408185D01*
X143823279Y-181283837D01*
X143831990Y-181157898D01*
X143862205Y-181034674D01*
X143898481Y-180947812D01*
X143957463Y-180849608D01*
X144030566Y-180764123D01*
X144119574Y-180690276D01*
X144226268Y-180626985D01*
X144352432Y-180573171D01*
X144499849Y-180527754D01*
X144646850Y-180494214D01*
X144669148Y-180490254D01*
X144694812Y-180486772D01*
X144725624Y-180483725D01*
X144763366Y-180481072D01*
X144809821Y-180478770D01*
X144866772Y-180476779D01*
X144936000Y-180475056D01*
X145019289Y-180473559D01*
X145118420Y-180472247D01*
X145235176Y-180471079D01*
X145371339Y-180470011D01*
X145528693Y-180469003D01*
X145709018Y-180468013D01*
X145780325Y-180467651D01*
X146805850Y-180462527D01*
X146805850Y-181248559D01*
X147148750Y-181248559D01*
X147148750Y-180158024D01*
X145951775Y-180162497D01*
G36*
X150966338Y-181168874D02*
G01*
X150847104Y-181306389D01*
X150732509Y-181438380D01*
X150623650Y-181563592D01*
X150521626Y-181680771D01*
X150427532Y-181788661D01*
X150342468Y-181886009D01*
X150267529Y-181971560D01*
X150203815Y-182044060D01*
X150152421Y-182102253D01*
X150114445Y-182144885D01*
X150090985Y-182170702D01*
X150083175Y-182178525D01*
X150074232Y-182168842D01*
X150050452Y-182140669D01*
X150012903Y-182095319D01*
X149962652Y-182034106D01*
X149900767Y-181958342D01*
X149828316Y-181869341D01*
X149746368Y-181768417D01*
X149655991Y-181656882D01*
X149558251Y-181536050D01*
X149454218Y-181407233D01*
X149344960Y-181271747D01*
X149262688Y-181169598D01*
X148450500Y-180160672D01*
X148248920Y-180159948D01*
X148171291Y-180160059D01*
X148116241Y-180161185D01*
X148080962Y-180163552D01*
X148062646Y-180167384D01*
X148058485Y-180172908D01*
X148059709Y-180175100D01*
X148068675Y-180186419D01*
X148091755Y-180215470D01*
X148129065Y-180262403D01*
X148180726Y-180327365D01*
X148246855Y-180410507D01*
X148327570Y-180511976D01*
X148422990Y-180631922D01*
X148533234Y-180770493D01*
X148658419Y-180927839D01*
X148798665Y-181104109D01*
X148954090Y-181299450D01*
X149124812Y-181514013D01*
X149310950Y-181747945D01*
X149512622Y-182001397D01*
X149729947Y-182274516D01*
X149818301Y-182385552D01*
X149917350Y-182510030D01*
X149917350Y-184172425D01*
X150272950Y-184172425D01*
X150272950Y-182493801D01*
X151254025Y-181348454D01*
X151380273Y-181201054D01*
X151502088Y-181058803D01*
X151618432Y-180922917D01*
X151728265Y-180794609D01*
X151830548Y-180675096D01*
X151924240Y-180565592D01*
X152008304Y-180467313D01*
X152081698Y-180381474D01*
X152143384Y-180309291D01*
X152192322Y-180251978D01*
X152227472Y-180210750D01*
X152247796Y-180186824D01*
X152252531Y-180181165D01*
X152257436Y-180173155D01*
X152255315Y-180167370D01*
X152242937Y-180163450D01*
X152217074Y-180161036D01*
X152174497Y-180159768D01*
X152111975Y-180159287D01*
X152055580Y-180159225D01*
X151841200Y-180159225D01*
X150966338Y-181168874D01*
G37*
X150966338Y-181168874D02*
X150847104Y-181306389D01*
X150732509Y-181438380D01*
X150623650Y-181563592D01*
X150521626Y-181680771D01*
X150427532Y-181788661D01*
X150342468Y-181886009D01*
X150267529Y-181971560D01*
X150203815Y-182044060D01*
X150152421Y-182102253D01*
X150114445Y-182144885D01*
X150090985Y-182170702D01*
X150083175Y-182178525D01*
X150074232Y-182168842D01*
X150050452Y-182140669D01*
X150012903Y-182095319D01*
X149962652Y-182034106D01*
X149900767Y-181958342D01*
X149828316Y-181869341D01*
X149746368Y-181768417D01*
X149655991Y-181656882D01*
X149558251Y-181536050D01*
X149454218Y-181407233D01*
X149344960Y-181271747D01*
X149262688Y-181169598D01*
X148450500Y-180160672D01*
X148248920Y-180159948D01*
X148171291Y-180160059D01*
X148116241Y-180161185D01*
X148080962Y-180163552D01*
X148062646Y-180167384D01*
X148058485Y-180172908D01*
X148059709Y-180175100D01*
X148068675Y-180186419D01*
X148091755Y-180215470D01*
X148129065Y-180262403D01*
X148180726Y-180327365D01*
X148246855Y-180410507D01*
X148327570Y-180511976D01*
X148422990Y-180631922D01*
X148533234Y-180770493D01*
X148658419Y-180927839D01*
X148798665Y-181104109D01*
X148954090Y-181299450D01*
X149124812Y-181514013D01*
X149310950Y-181747945D01*
X149512622Y-182001397D01*
X149729947Y-182274516D01*
X149818301Y-182385552D01*
X149917350Y-182510030D01*
X149917350Y-184172425D01*
X150272950Y-184172425D01*
X150272950Y-182493801D01*
X151254025Y-181348454D01*
X151380273Y-181201054D01*
X151502088Y-181058803D01*
X151618432Y-180922917D01*
X151728265Y-180794609D01*
X151830548Y-180675096D01*
X151924240Y-180565592D01*
X152008304Y-180467313D01*
X152081698Y-180381474D01*
X152143384Y-180309291D01*
X152192322Y-180251978D01*
X152227472Y-180210750D01*
X152247796Y-180186824D01*
X152252531Y-180181165D01*
X152257436Y-180173155D01*
X152255315Y-180167370D01*
X152242937Y-180163450D01*
X152217074Y-180161036D01*
X152174497Y-180159768D01*
X152111975Y-180159287D01*
X152055580Y-180159225D01*
X151841200Y-180159225D01*
X150966338Y-181168874D01*
G36*
X155021602Y-181849067D02*
G01*
X153492400Y-183538909D01*
X153485958Y-180159225D01*
X153282804Y-180159225D01*
X153201368Y-180159547D01*
X153142784Y-180161269D01*
X153104506Y-180165526D01*
X153083986Y-180173453D01*
X153078678Y-180186184D01*
X153086036Y-180204853D01*
X153103513Y-180230595D01*
X153108225Y-180236998D01*
X153136800Y-180275643D01*
X153144068Y-184173275D01*
X153408112Y-184166075D01*
X156553100Y-180673575D01*
X156559540Y-184172425D01*
X156902350Y-184172425D01*
X156902350Y-180159225D01*
X156726577Y-180159224D01*
X156550803Y-180159224D01*
X155021602Y-181849067D01*
G37*
X155021602Y-181849067D02*
X153492400Y-183538909D01*
X153485958Y-180159225D01*
X153282804Y-180159225D01*
X153201368Y-180159547D01*
X153142784Y-180161269D01*
X153104506Y-180165526D01*
X153083986Y-180173453D01*
X153078678Y-180186184D01*
X153086036Y-180204853D01*
X153103513Y-180230595D01*
X153108225Y-180236998D01*
X153136800Y-180275643D01*
X153144068Y-184173275D01*
X153408112Y-184166075D01*
X156553100Y-180673575D01*
X156559540Y-184172425D01*
X156902350Y-184172425D01*
X156902350Y-180159225D01*
X156726577Y-180159224D01*
X156550803Y-180159224D01*
X155021602Y-181849067D01*
D12*
%TO.C,J1*%
X118468742Y-126612492D02*
X118668742Y-127012492D01*
X118268742Y-127012492D02*
X118468742Y-126612492D01*
X117068742Y-126812492D02*
X117468742Y-126812492D01*
X115868742Y-126812492D02*
X116268742Y-126812492D01*
X116068742Y-127012492D02*
X116068742Y-126612492D01*
X113258742Y-122572492D02*
X113258742Y-125902492D01*
X113258742Y-125902492D02*
X114308742Y-125902492D01*
X120078742Y-122572492D02*
X120078742Y-125902492D01*
X120078742Y-125902492D02*
X119028742Y-125902492D01*
X114328742Y-121182492D02*
X114828742Y-121182492D01*
X114828742Y-121182492D02*
X115128742Y-121682492D01*
X115128742Y-121682492D02*
X118208742Y-121682492D01*
X118208742Y-121682492D02*
X118508742Y-121182492D01*
X118508742Y-121182492D02*
X119008742Y-121182492D01*
X114868742Y-126812492D02*
X115068742Y-126812492D01*
X115068742Y-126812492D02*
G75*
G03*
X114868742Y-127012492I-200000J0D01*
G01*
%TO.C,C1*%
X169940000Y-168231350D02*
X169940000Y-167950190D01*
X170960000Y-168231350D02*
X170960000Y-167950190D01*
%TO.C,C2*%
X181110000Y-168248606D02*
X181110000Y-168032934D01*
X180390000Y-168248606D02*
X180390000Y-168032934D01*
%TO.C,C3*%
X181390000Y-168248606D02*
X181390000Y-168032934D01*
X182110000Y-168248606D02*
X182110000Y-168032934D01*
%TO.C,C4*%
X180737164Y-176780770D02*
X180952836Y-176780770D01*
X180737164Y-177500770D02*
X180952836Y-177500770D01*
%TO.C,C5*%
X173640580Y-176380770D02*
X173359420Y-176380770D01*
X173640580Y-177400770D02*
X173359420Y-177400770D01*
%TO.C,C6*%
X171440000Y-168231350D02*
X171440000Y-167950190D01*
X172460000Y-168231350D02*
X172460000Y-167950190D01*
%TO.C,C7*%
X175954000Y-167416190D02*
X175954000Y-167697350D01*
X176974000Y-167416190D02*
X176974000Y-167697350D01*
%TO.C,C8*%
X176858580Y-177972770D02*
X176577420Y-177972770D01*
X176858580Y-176952770D02*
X176577420Y-176952770D01*
%TO.C,C9*%
X184557836Y-174730770D02*
X184342164Y-174730770D01*
X184557836Y-175450770D02*
X184342164Y-175450770D01*
%TO.C,C10*%
X175450000Y-167697350D02*
X175450000Y-167416190D01*
X174430000Y-167697350D02*
X174430000Y-167416190D01*
%TO.C,C11*%
X183372164Y-173000770D02*
X183587836Y-173000770D01*
X183372164Y-172280770D02*
X183587836Y-172280770D01*
%TO.C,C12*%
X183341164Y-176425770D02*
X183556836Y-176425770D01*
X183341164Y-175705770D02*
X183556836Y-175705770D01*
%TO.C,C13*%
X174057836Y-175950770D02*
X173842164Y-175950770D01*
X174057836Y-175230770D02*
X173842164Y-175230770D01*
%TO.C,C14*%
X171757836Y-175950770D02*
X171542164Y-175950770D01*
X171757836Y-175230770D02*
X171542164Y-175230770D01*
%TO.C,C15*%
X170110000Y-173998606D02*
X170110000Y-173782934D01*
X169390000Y-173998606D02*
X169390000Y-173782934D01*
%TO.C,C16*%
X193841250Y-184882164D02*
X193841250Y-185097836D01*
X193121250Y-184882164D02*
X193121250Y-185097836D01*
%TO.C,C17*%
X185640000Y-174032934D02*
X185640000Y-174248606D01*
X186360000Y-174032934D02*
X186360000Y-174248606D01*
%TO.C,C18*%
X183360000Y-174032934D02*
X183360000Y-174248606D01*
X182640000Y-174032934D02*
X182640000Y-174248606D01*
%TO.C,C19*%
X184255000Y-178998606D02*
X184255000Y-178782934D01*
X184975000Y-178998606D02*
X184975000Y-178782934D01*
%TO.C,C20*%
X180255000Y-178782934D02*
X180255000Y-178998606D01*
X180975000Y-178782934D02*
X180975000Y-178998606D01*
%TO.C,D1*%
X104762500Y-101190620D02*
X107143760Y-101190620D01*
X107143760Y-101190620D02*
X107143760Y-103571880D01*
X107143760Y-103571880D02*
X104762500Y-103571880D01*
%TO.C,D2*%
X125598455Y-102381260D02*
X125598455Y-100000000D01*
X127979715Y-102381260D02*
X125598455Y-102381260D01*
X127979715Y-100000000D02*
X127979715Y-102381260D01*
%TO.C,D3*%
X144648471Y-102381260D02*
X144648471Y-100000000D01*
X147029731Y-102381260D02*
X144648471Y-102381260D01*
X147029731Y-100000000D02*
X147029731Y-102381260D01*
%TO.C,D4*%
X166079747Y-100000000D02*
X166079747Y-102381260D01*
X166079747Y-102381260D02*
X163698487Y-102381260D01*
X163698487Y-102381260D02*
X163698487Y-100000000D01*
%TO.C,D5*%
X185129763Y-100000000D02*
X185129763Y-102381260D01*
X185129763Y-102381260D02*
X182748503Y-102381260D01*
X182748503Y-102381260D02*
X182748503Y-100000000D01*
%TO.C,D6*%
X201798519Y-102381260D02*
X201798519Y-100000000D01*
X204179779Y-102381260D02*
X201798519Y-102381260D01*
X204179779Y-100000000D02*
X204179779Y-102381260D01*
%TO.C,D7*%
X216086027Y-101190622D02*
X218467287Y-101190622D01*
X216086027Y-103571882D02*
X216086027Y-101190622D01*
X218467287Y-103571882D02*
X216086027Y-103571882D01*
%TO.C,D8*%
X109524992Y-120240612D02*
X111906252Y-120240612D01*
X111906252Y-120240612D02*
X111906252Y-122621872D01*
X111906252Y-122621872D02*
X109524992Y-122621872D01*
%TO.C,D9*%
X135123463Y-121431276D02*
X135123463Y-119050016D01*
X137504723Y-121431276D02*
X135123463Y-121431276D01*
X137504723Y-119050016D02*
X137504723Y-121431276D01*
%TO.C,D10*%
X156554739Y-119050016D02*
X156554739Y-121431276D01*
X156554739Y-121431276D02*
X154173479Y-121431276D01*
X154173479Y-121431276D02*
X154173479Y-119050016D01*
%TO.C,D11*%
X173223495Y-121431276D02*
X173223495Y-119050016D01*
X175604755Y-121431276D02*
X173223495Y-121431276D01*
X175604755Y-119050016D02*
X175604755Y-121431276D01*
%TO.C,D12*%
X192273511Y-121431276D02*
X192273511Y-119050016D01*
X194654771Y-121431276D02*
X192273511Y-121431276D01*
X194654771Y-119050016D02*
X194654771Y-121431276D01*
%TO.C,D13*%
X208942279Y-122621898D02*
X206561019Y-122621898D01*
X206561019Y-122621898D02*
X206561019Y-120240638D01*
X206561019Y-120240638D02*
X208942279Y-120240638D01*
%TO.C,D14*%
X118454707Y-138100032D02*
X118454707Y-140481292D01*
X118454707Y-140481292D02*
X116073447Y-140481292D01*
X116073447Y-140481292D02*
X116073447Y-138100032D01*
%TO.C,D15*%
X142267227Y-138100032D02*
X142267227Y-140481292D01*
X142267227Y-140481292D02*
X139885967Y-140481292D01*
X139885967Y-140481292D02*
X139885967Y-138100032D01*
%TO.C,D16*%
X158935983Y-140481292D02*
X158935983Y-138100032D01*
X161317243Y-140481292D02*
X158935983Y-140481292D01*
X161317243Y-138100032D02*
X161317243Y-140481292D01*
%TO.C,D17*%
X177985999Y-140481292D02*
X177985999Y-138100032D01*
X180367259Y-140481292D02*
X177985999Y-140481292D01*
X180367259Y-138100032D02*
X180367259Y-140481292D01*
%TO.C,D18*%
X197036015Y-140481292D02*
X197036015Y-138100032D01*
X199417275Y-140481292D02*
X197036015Y-140481292D01*
X199417275Y-138100032D02*
X199417275Y-140481292D01*
%TO.C,D19*%
X213704783Y-141671914D02*
X211323523Y-141671914D01*
X211323523Y-141671914D02*
X211323523Y-139290654D01*
X211323523Y-139290654D02*
X213704783Y-139290654D01*
%TO.C,D20*%
X116668750Y-158340620D02*
X119050010Y-158340620D01*
X119050010Y-158340620D02*
X119050010Y-160721880D01*
X119050010Y-160721880D02*
X116668750Y-160721880D01*
%TO.C,D22*%
X151792235Y-157150048D02*
X151792235Y-159531308D01*
X151792235Y-159531308D02*
X149410975Y-159531308D01*
X149410975Y-159531308D02*
X149410975Y-157150048D01*
%TO.C,D23*%
X168460991Y-159531308D02*
X168460991Y-157150048D01*
X170842251Y-159531308D02*
X168460991Y-159531308D01*
X170842251Y-157150048D02*
X170842251Y-159531308D01*
%TO.C,D24*%
X187511007Y-159531308D02*
X187511007Y-157150048D01*
X189892267Y-159531308D02*
X187511007Y-159531308D01*
X189892267Y-157150048D02*
X189892267Y-159531308D01*
%TO.C,D25*%
X208942283Y-157150048D02*
X208942283Y-159531308D01*
X208942283Y-159531308D02*
X206561023Y-159531308D01*
X206561023Y-159531308D02*
X206561023Y-157150048D01*
%TO.C,D26*%
X220848531Y-158340670D02*
X223229791Y-158340670D01*
X220848531Y-160721930D02*
X220848531Y-158340670D01*
X223229791Y-160721930D02*
X220848531Y-160721930D01*
%TO.C,D27*%
X110715630Y-170037552D02*
X110715630Y-172418812D01*
X108334370Y-170037552D02*
X110715630Y-170037552D01*
X108334370Y-172418812D02*
X108334370Y-170037552D01*
%TO.C,D28*%
X130360959Y-177390698D02*
X130360959Y-175009438D01*
X132742219Y-177390698D02*
X130360959Y-177390698D01*
X132742219Y-175009438D02*
X132742219Y-177390698D01*
%TO.C,D29*%
X151792235Y-176200064D02*
X151792235Y-178581324D01*
X151792235Y-178581324D02*
X149410975Y-178581324D01*
X149410975Y-178581324D02*
X149410975Y-176200064D01*
%TO.C,D30*%
X168460899Y-179771946D02*
X166079639Y-179771946D01*
X166079639Y-179771946D02*
X166079639Y-177390686D01*
X166079639Y-177390686D02*
X168460899Y-177390686D01*
%TO.C,D31*%
X208644519Y-172628186D02*
X208644519Y-175009446D01*
X208644519Y-175009446D02*
X206263259Y-175009446D01*
X206263259Y-175009446D02*
X206263259Y-172628186D01*
%TO.C,D100*%
X216943760Y-169009370D02*
X216943760Y-171390630D01*
X216943760Y-171390630D02*
X214562500Y-171390630D01*
X216943760Y-169009370D02*
X214562500Y-169009370D01*
%TO.C,D101*%
X216943760Y-172009370D02*
X214562500Y-172009370D01*
X216943760Y-174390630D02*
X214562500Y-174390630D01*
X216943760Y-172009370D02*
X216943760Y-174390630D01*
%TO.C,D102*%
X216943760Y-175009434D02*
X214562500Y-175009434D01*
X216943760Y-177390694D02*
X214562500Y-177390694D01*
X216943760Y-175009434D02*
X216943760Y-177390694D01*
%TO.C,D103*%
X216943760Y-178009370D02*
X214562500Y-178009370D01*
X216943760Y-180390630D02*
X214562500Y-180390630D01*
X216943760Y-178009370D02*
X216943760Y-180390630D01*
%TO.C,D104*%
X216943760Y-181009370D02*
X216943760Y-183390630D01*
X216943760Y-183390630D02*
X214562500Y-183390630D01*
X216943760Y-181009370D02*
X214562500Y-181009370D01*
%TO.C,L2*%
X173832779Y-177968770D02*
X173507221Y-177968770D01*
X173832779Y-178988770D02*
X173507221Y-178988770D01*
%TO.C,L3*%
X173960000Y-168253549D02*
X173960000Y-167927991D01*
X172940000Y-168253549D02*
X172940000Y-167927991D01*
%TO.C,R1*%
X210799758Y-173722500D02*
X210325242Y-173722500D01*
X210799758Y-172677500D02*
X210325242Y-172677500D01*
%TO.C,R2*%
X210799758Y-175222564D02*
X210325242Y-175222564D01*
X210799758Y-174177564D02*
X210325242Y-174177564D01*
%TO.C,R3*%
X210799758Y-176722564D02*
X210325242Y-176722564D01*
X210799758Y-175677564D02*
X210325242Y-175677564D01*
%TO.C,R4*%
X210799758Y-177177500D02*
X210325242Y-177177500D01*
X210799758Y-178222500D02*
X210325242Y-178222500D01*
%TO.C,R5*%
X210799758Y-178677500D02*
X210325242Y-178677500D01*
X210799758Y-179722500D02*
X210325242Y-179722500D01*
%TO.C,R6*%
X192101250Y-185143641D02*
X192101250Y-184836359D01*
X192861250Y-185143641D02*
X192861250Y-184836359D01*
%TO.C,SW100*%
X129406250Y-159350000D02*
X129406250Y-154950000D01*
X132506250Y-154950000D02*
X132506250Y-159350000D01*
%TO.C,U1*%
X182360000Y-176500770D02*
X181800000Y-176500770D01*
X182360000Y-176500770D02*
X182360000Y-175940770D01*
X182360000Y-169280770D02*
X182360000Y-169840770D01*
X182360000Y-169280770D02*
X181800000Y-169280770D01*
X175140000Y-169280770D02*
X175700000Y-169280770D01*
X175140000Y-169280770D02*
X175140000Y-169840770D01*
X175140000Y-176500770D02*
X175700000Y-176500770D01*
%TO.C,Y1*%
X172925000Y-173015770D02*
X171575000Y-173015770D01*
X172925000Y-174765770D02*
X171575000Y-174765770D01*
%TO.C,Y2*%
X183965000Y-177740770D02*
X183965000Y-180040770D01*
X183965000Y-180040770D02*
X181265000Y-180040770D01*
%TO.C,L1*%
D10*
X176376666Y-178015150D02*
X176852857Y-178015150D01*
X176852857Y-177015150D01*
X175519523Y-178015150D02*
X176090952Y-178015150D01*
X175805238Y-178015150D02*
X175805238Y-177015150D01*
X175900476Y-177158008D01*
X175995714Y-177253246D01*
X176090952Y-177300865D01*
%TO.C,SW1*%
X96570833Y-102786011D02*
X96427976Y-102833630D01*
X96189880Y-102833630D01*
X96094642Y-102786011D01*
X96047023Y-102738392D01*
X95999404Y-102643154D01*
X95999404Y-102547916D01*
X96047023Y-102452678D01*
X96094642Y-102405059D01*
X96189880Y-102357440D01*
X96380357Y-102309821D01*
X96475595Y-102262202D01*
X96523214Y-102214583D01*
X96570833Y-102119345D01*
X96570833Y-102024107D01*
X96523214Y-101928869D01*
X96475595Y-101881250D01*
X96380357Y-101833630D01*
X96142261Y-101833630D01*
X95999404Y-101881250D01*
X95666071Y-101833630D02*
X95427976Y-102833630D01*
X95237500Y-102119345D01*
X95047023Y-102833630D01*
X94808928Y-101833630D01*
X93904166Y-102833630D02*
X94475595Y-102833630D01*
X94189880Y-102833630D02*
X94189880Y-101833630D01*
X94285119Y-101976488D01*
X94380357Y-102071726D01*
X94475595Y-102119345D01*
%TO.C,SW2*%
X115620833Y-102786011D02*
X115477976Y-102833630D01*
X115239880Y-102833630D01*
X115144642Y-102786011D01*
X115097023Y-102738392D01*
X115049404Y-102643154D01*
X115049404Y-102547916D01*
X115097023Y-102452678D01*
X115144642Y-102405059D01*
X115239880Y-102357440D01*
X115430357Y-102309821D01*
X115525595Y-102262202D01*
X115573214Y-102214583D01*
X115620833Y-102119345D01*
X115620833Y-102024107D01*
X115573214Y-101928869D01*
X115525595Y-101881250D01*
X115430357Y-101833630D01*
X115192261Y-101833630D01*
X115049404Y-101881250D01*
X114716071Y-101833630D02*
X114477976Y-102833630D01*
X114287500Y-102119345D01*
X114097023Y-102833630D01*
X113858928Y-101833630D01*
X113525595Y-101928869D02*
X113477976Y-101881250D01*
X113382738Y-101833630D01*
X113144642Y-101833630D01*
X113049404Y-101881250D01*
X113001785Y-101928869D01*
X112954166Y-102024107D01*
X112954166Y-102119345D01*
X113001785Y-102262202D01*
X113573214Y-102833630D01*
X112954166Y-102833630D01*
%TO.C,SW3*%
X134670833Y-102786011D02*
X134527976Y-102833630D01*
X134289880Y-102833630D01*
X134194642Y-102786011D01*
X134147023Y-102738392D01*
X134099404Y-102643154D01*
X134099404Y-102547916D01*
X134147023Y-102452678D01*
X134194642Y-102405059D01*
X134289880Y-102357440D01*
X134480357Y-102309821D01*
X134575595Y-102262202D01*
X134623214Y-102214583D01*
X134670833Y-102119345D01*
X134670833Y-102024107D01*
X134623214Y-101928869D01*
X134575595Y-101881250D01*
X134480357Y-101833630D01*
X134242261Y-101833630D01*
X134099404Y-101881250D01*
X133766071Y-101833630D02*
X133527976Y-102833630D01*
X133337500Y-102119345D01*
X133147023Y-102833630D01*
X132908928Y-101833630D01*
X132623214Y-101833630D02*
X132004166Y-101833630D01*
X132337500Y-102214583D01*
X132194642Y-102214583D01*
X132099404Y-102262202D01*
X132051785Y-102309821D01*
X132004166Y-102405059D01*
X132004166Y-102643154D01*
X132051785Y-102738392D01*
X132099404Y-102786011D01*
X132194642Y-102833630D01*
X132480357Y-102833630D01*
X132575595Y-102786011D01*
X132623214Y-102738392D01*
%TO.C,SW4*%
X153720833Y-102786011D02*
X153577976Y-102833630D01*
X153339880Y-102833630D01*
X153244642Y-102786011D01*
X153197023Y-102738392D01*
X153149404Y-102643154D01*
X153149404Y-102547916D01*
X153197023Y-102452678D01*
X153244642Y-102405059D01*
X153339880Y-102357440D01*
X153530357Y-102309821D01*
X153625595Y-102262202D01*
X153673214Y-102214583D01*
X153720833Y-102119345D01*
X153720833Y-102024107D01*
X153673214Y-101928869D01*
X153625595Y-101881250D01*
X153530357Y-101833630D01*
X153292261Y-101833630D01*
X153149404Y-101881250D01*
X152816071Y-101833630D02*
X152577976Y-102833630D01*
X152387500Y-102119345D01*
X152197023Y-102833630D01*
X151958928Y-101833630D01*
X151149404Y-102166964D02*
X151149404Y-102833630D01*
X151387500Y-101786011D02*
X151625595Y-102500297D01*
X151006547Y-102500297D01*
%TO.C,SW5*%
X172770833Y-102786011D02*
X172627976Y-102833630D01*
X172389880Y-102833630D01*
X172294642Y-102786011D01*
X172247023Y-102738392D01*
X172199404Y-102643154D01*
X172199404Y-102547916D01*
X172247023Y-102452678D01*
X172294642Y-102405059D01*
X172389880Y-102357440D01*
X172580357Y-102309821D01*
X172675595Y-102262202D01*
X172723214Y-102214583D01*
X172770833Y-102119345D01*
X172770833Y-102024107D01*
X172723214Y-101928869D01*
X172675595Y-101881250D01*
X172580357Y-101833630D01*
X172342261Y-101833630D01*
X172199404Y-101881250D01*
X171866071Y-101833630D02*
X171627976Y-102833630D01*
X171437500Y-102119345D01*
X171247023Y-102833630D01*
X171008928Y-101833630D01*
X170151785Y-101833630D02*
X170627976Y-101833630D01*
X170675595Y-102309821D01*
X170627976Y-102262202D01*
X170532738Y-102214583D01*
X170294642Y-102214583D01*
X170199404Y-102262202D01*
X170151785Y-102309821D01*
X170104166Y-102405059D01*
X170104166Y-102643154D01*
X170151785Y-102738392D01*
X170199404Y-102786011D01*
X170294642Y-102833630D01*
X170532738Y-102833630D01*
X170627976Y-102786011D01*
X170675595Y-102738392D01*
%TO.C,SW6*%
X191820833Y-102786011D02*
X191677976Y-102833630D01*
X191439880Y-102833630D01*
X191344642Y-102786011D01*
X191297023Y-102738392D01*
X191249404Y-102643154D01*
X191249404Y-102547916D01*
X191297023Y-102452678D01*
X191344642Y-102405059D01*
X191439880Y-102357440D01*
X191630357Y-102309821D01*
X191725595Y-102262202D01*
X191773214Y-102214583D01*
X191820833Y-102119345D01*
X191820833Y-102024107D01*
X191773214Y-101928869D01*
X191725595Y-101881250D01*
X191630357Y-101833630D01*
X191392261Y-101833630D01*
X191249404Y-101881250D01*
X190916071Y-101833630D02*
X190677976Y-102833630D01*
X190487500Y-102119345D01*
X190297023Y-102833630D01*
X190058928Y-101833630D01*
X189249404Y-101833630D02*
X189439880Y-101833630D01*
X189535119Y-101881250D01*
X189582738Y-101928869D01*
X189677976Y-102071726D01*
X189725595Y-102262202D01*
X189725595Y-102643154D01*
X189677976Y-102738392D01*
X189630357Y-102786011D01*
X189535119Y-102833630D01*
X189344642Y-102833630D01*
X189249404Y-102786011D01*
X189201785Y-102738392D01*
X189154166Y-102643154D01*
X189154166Y-102405059D01*
X189201785Y-102309821D01*
X189249404Y-102262202D01*
X189344642Y-102214583D01*
X189535119Y-102214583D01*
X189630357Y-102262202D01*
X189677976Y-102309821D01*
X189725595Y-102405059D01*
%TO.C,SW7*%
X210870833Y-102786011D02*
X210727976Y-102833630D01*
X210489880Y-102833630D01*
X210394642Y-102786011D01*
X210347023Y-102738392D01*
X210299404Y-102643154D01*
X210299404Y-102547916D01*
X210347023Y-102452678D01*
X210394642Y-102405059D01*
X210489880Y-102357440D01*
X210680357Y-102309821D01*
X210775595Y-102262202D01*
X210823214Y-102214583D01*
X210870833Y-102119345D01*
X210870833Y-102024107D01*
X210823214Y-101928869D01*
X210775595Y-101881250D01*
X210680357Y-101833630D01*
X210442261Y-101833630D01*
X210299404Y-101881250D01*
X209966071Y-101833630D02*
X209727976Y-102833630D01*
X209537500Y-102119345D01*
X209347023Y-102833630D01*
X209108928Y-101833630D01*
X208823214Y-101833630D02*
X208156547Y-101833630D01*
X208585119Y-102833630D01*
%TO.C,SW8*%
X101333333Y-121836011D02*
X101190476Y-121883630D01*
X100952380Y-121883630D01*
X100857142Y-121836011D01*
X100809523Y-121788392D01*
X100761904Y-121693154D01*
X100761904Y-121597916D01*
X100809523Y-121502678D01*
X100857142Y-121455059D01*
X100952380Y-121407440D01*
X101142857Y-121359821D01*
X101238095Y-121312202D01*
X101285714Y-121264583D01*
X101333333Y-121169345D01*
X101333333Y-121074107D01*
X101285714Y-120978869D01*
X101238095Y-120931250D01*
X101142857Y-120883630D01*
X100904761Y-120883630D01*
X100761904Y-120931250D01*
X100428571Y-120883630D02*
X100190476Y-121883630D01*
X100000000Y-121169345D01*
X99809523Y-121883630D01*
X99571428Y-120883630D01*
X99047619Y-121312202D02*
X99142857Y-121264583D01*
X99190476Y-121216964D01*
X99238095Y-121121726D01*
X99238095Y-121074107D01*
X99190476Y-120978869D01*
X99142857Y-120931250D01*
X99047619Y-120883630D01*
X98857142Y-120883630D01*
X98761904Y-120931250D01*
X98714285Y-120978869D01*
X98666666Y-121074107D01*
X98666666Y-121121726D01*
X98714285Y-121216964D01*
X98761904Y-121264583D01*
X98857142Y-121312202D01*
X99047619Y-121312202D01*
X99142857Y-121359821D01*
X99190476Y-121407440D01*
X99238095Y-121502678D01*
X99238095Y-121693154D01*
X99190476Y-121788392D01*
X99142857Y-121836011D01*
X99047619Y-121883630D01*
X98857142Y-121883630D01*
X98761904Y-121836011D01*
X98714285Y-121788392D01*
X98666666Y-121693154D01*
X98666666Y-121502678D01*
X98714285Y-121407440D01*
X98761904Y-121359821D01*
X98857142Y-121312202D01*
%TO.C,SW9*%
X125145833Y-121836011D02*
X125002976Y-121883630D01*
X124764880Y-121883630D01*
X124669642Y-121836011D01*
X124622023Y-121788392D01*
X124574404Y-121693154D01*
X124574404Y-121597916D01*
X124622023Y-121502678D01*
X124669642Y-121455059D01*
X124764880Y-121407440D01*
X124955357Y-121359821D01*
X125050595Y-121312202D01*
X125098214Y-121264583D01*
X125145833Y-121169345D01*
X125145833Y-121074107D01*
X125098214Y-120978869D01*
X125050595Y-120931250D01*
X124955357Y-120883630D01*
X124717261Y-120883630D01*
X124574404Y-120931250D01*
X124241071Y-120883630D02*
X124002976Y-121883630D01*
X123812500Y-121169345D01*
X123622023Y-121883630D01*
X123383928Y-120883630D01*
X122955357Y-121883630D02*
X122764880Y-121883630D01*
X122669642Y-121836011D01*
X122622023Y-121788392D01*
X122526785Y-121645535D01*
X122479166Y-121455059D01*
X122479166Y-121074107D01*
X122526785Y-120978869D01*
X122574404Y-120931250D01*
X122669642Y-120883630D01*
X122860119Y-120883630D01*
X122955357Y-120931250D01*
X123002976Y-120978869D01*
X123050595Y-121074107D01*
X123050595Y-121312202D01*
X123002976Y-121407440D01*
X122955357Y-121455059D01*
X122860119Y-121502678D01*
X122669642Y-121502678D01*
X122574404Y-121455059D01*
X122526785Y-121407440D01*
X122479166Y-121312202D01*
%TO.C,SW10*%
X144672023Y-121836011D02*
X144529166Y-121883630D01*
X144291071Y-121883630D01*
X144195833Y-121836011D01*
X144148214Y-121788392D01*
X144100595Y-121693154D01*
X144100595Y-121597916D01*
X144148214Y-121502678D01*
X144195833Y-121455059D01*
X144291071Y-121407440D01*
X144481547Y-121359821D01*
X144576785Y-121312202D01*
X144624404Y-121264583D01*
X144672023Y-121169345D01*
X144672023Y-121074107D01*
X144624404Y-120978869D01*
X144576785Y-120931250D01*
X144481547Y-120883630D01*
X144243452Y-120883630D01*
X144100595Y-120931250D01*
X143767261Y-120883630D02*
X143529166Y-121883630D01*
X143338690Y-121169345D01*
X143148214Y-121883630D01*
X142910119Y-120883630D01*
X142005357Y-121883630D02*
X142576785Y-121883630D01*
X142291071Y-121883630D02*
X142291071Y-120883630D01*
X142386309Y-121026488D01*
X142481547Y-121121726D01*
X142576785Y-121169345D01*
X141386309Y-120883630D02*
X141291071Y-120883630D01*
X141195833Y-120931250D01*
X141148214Y-120978869D01*
X141100595Y-121074107D01*
X141052976Y-121264583D01*
X141052976Y-121502678D01*
X141100595Y-121693154D01*
X141148214Y-121788392D01*
X141195833Y-121836011D01*
X141291071Y-121883630D01*
X141386309Y-121883630D01*
X141481547Y-121836011D01*
X141529166Y-121788392D01*
X141576785Y-121693154D01*
X141624404Y-121502678D01*
X141624404Y-121264583D01*
X141576785Y-121074107D01*
X141529166Y-120978869D01*
X141481547Y-120931250D01*
X141386309Y-120883630D01*
%TO.C,SW11*%
X163722023Y-121836011D02*
X163579166Y-121883630D01*
X163341071Y-121883630D01*
X163245833Y-121836011D01*
X163198214Y-121788392D01*
X163150595Y-121693154D01*
X163150595Y-121597916D01*
X163198214Y-121502678D01*
X163245833Y-121455059D01*
X163341071Y-121407440D01*
X163531547Y-121359821D01*
X163626785Y-121312202D01*
X163674404Y-121264583D01*
X163722023Y-121169345D01*
X163722023Y-121074107D01*
X163674404Y-120978869D01*
X163626785Y-120931250D01*
X163531547Y-120883630D01*
X163293452Y-120883630D01*
X163150595Y-120931250D01*
X162817261Y-120883630D02*
X162579166Y-121883630D01*
X162388690Y-121169345D01*
X162198214Y-121883630D01*
X161960119Y-120883630D01*
X161055357Y-121883630D02*
X161626785Y-121883630D01*
X161341071Y-121883630D02*
X161341071Y-120883630D01*
X161436309Y-121026488D01*
X161531547Y-121121726D01*
X161626785Y-121169345D01*
X160102976Y-121883630D02*
X160674404Y-121883630D01*
X160388690Y-121883630D02*
X160388690Y-120883630D01*
X160483928Y-121026488D01*
X160579166Y-121121726D01*
X160674404Y-121169345D01*
%TO.C,SW12*%
X182772023Y-121836011D02*
X182629166Y-121883630D01*
X182391071Y-121883630D01*
X182295833Y-121836011D01*
X182248214Y-121788392D01*
X182200595Y-121693154D01*
X182200595Y-121597916D01*
X182248214Y-121502678D01*
X182295833Y-121455059D01*
X182391071Y-121407440D01*
X182581547Y-121359821D01*
X182676785Y-121312202D01*
X182724404Y-121264583D01*
X182772023Y-121169345D01*
X182772023Y-121074107D01*
X182724404Y-120978869D01*
X182676785Y-120931250D01*
X182581547Y-120883630D01*
X182343452Y-120883630D01*
X182200595Y-120931250D01*
X181867261Y-120883630D02*
X181629166Y-121883630D01*
X181438690Y-121169345D01*
X181248214Y-121883630D01*
X181010119Y-120883630D01*
X180105357Y-121883630D02*
X180676785Y-121883630D01*
X180391071Y-121883630D02*
X180391071Y-120883630D01*
X180486309Y-121026488D01*
X180581547Y-121121726D01*
X180676785Y-121169345D01*
X179724404Y-120978869D02*
X179676785Y-120931250D01*
X179581547Y-120883630D01*
X179343452Y-120883630D01*
X179248214Y-120931250D01*
X179200595Y-120978869D01*
X179152976Y-121074107D01*
X179152976Y-121169345D01*
X179200595Y-121312202D01*
X179772023Y-121883630D01*
X179152976Y-121883630D01*
%TO.C,SW13*%
X201822023Y-121836011D02*
X201679166Y-121883630D01*
X201441071Y-121883630D01*
X201345833Y-121836011D01*
X201298214Y-121788392D01*
X201250595Y-121693154D01*
X201250595Y-121597916D01*
X201298214Y-121502678D01*
X201345833Y-121455059D01*
X201441071Y-121407440D01*
X201631547Y-121359821D01*
X201726785Y-121312202D01*
X201774404Y-121264583D01*
X201822023Y-121169345D01*
X201822023Y-121074107D01*
X201774404Y-120978869D01*
X201726785Y-120931250D01*
X201631547Y-120883630D01*
X201393452Y-120883630D01*
X201250595Y-120931250D01*
X200917261Y-120883630D02*
X200679166Y-121883630D01*
X200488690Y-121169345D01*
X200298214Y-121883630D01*
X200060119Y-120883630D01*
X199155357Y-121883630D02*
X199726785Y-121883630D01*
X199441071Y-121883630D02*
X199441071Y-120883630D01*
X199536309Y-121026488D01*
X199631547Y-121121726D01*
X199726785Y-121169345D01*
X198822023Y-120883630D02*
X198202976Y-120883630D01*
X198536309Y-121264583D01*
X198393452Y-121264583D01*
X198298214Y-121312202D01*
X198250595Y-121359821D01*
X198202976Y-121455059D01*
X198202976Y-121693154D01*
X198250595Y-121788392D01*
X198298214Y-121836011D01*
X198393452Y-121883630D01*
X198679166Y-121883630D01*
X198774404Y-121836011D01*
X198822023Y-121788392D01*
%TO.C,SW14*%
X99428273Y-140886011D02*
X99285416Y-140933630D01*
X99047321Y-140933630D01*
X98952083Y-140886011D01*
X98904464Y-140838392D01*
X98856845Y-140743154D01*
X98856845Y-140647916D01*
X98904464Y-140552678D01*
X98952083Y-140505059D01*
X99047321Y-140457440D01*
X99237797Y-140409821D01*
X99333035Y-140362202D01*
X99380654Y-140314583D01*
X99428273Y-140219345D01*
X99428273Y-140124107D01*
X99380654Y-140028869D01*
X99333035Y-139981250D01*
X99237797Y-139933630D01*
X98999702Y-139933630D01*
X98856845Y-139981250D01*
X98523511Y-139933630D02*
X98285416Y-140933630D01*
X98094940Y-140219345D01*
X97904464Y-140933630D01*
X97666369Y-139933630D01*
X96761607Y-140933630D02*
X97333035Y-140933630D01*
X97047321Y-140933630D02*
X97047321Y-139933630D01*
X97142559Y-140076488D01*
X97237797Y-140171726D01*
X97333035Y-140219345D01*
X95904464Y-140266964D02*
X95904464Y-140933630D01*
X96142559Y-139886011D02*
X96380654Y-140600297D01*
X95761607Y-140600297D01*
%TO.C,SW15*%
X130384523Y-140886011D02*
X130241666Y-140933630D01*
X130003571Y-140933630D01*
X129908333Y-140886011D01*
X129860714Y-140838392D01*
X129813095Y-140743154D01*
X129813095Y-140647916D01*
X129860714Y-140552678D01*
X129908333Y-140505059D01*
X130003571Y-140457440D01*
X130194047Y-140409821D01*
X130289285Y-140362202D01*
X130336904Y-140314583D01*
X130384523Y-140219345D01*
X130384523Y-140124107D01*
X130336904Y-140028869D01*
X130289285Y-139981250D01*
X130194047Y-139933630D01*
X129955952Y-139933630D01*
X129813095Y-139981250D01*
X129479761Y-139933630D02*
X129241666Y-140933630D01*
X129051190Y-140219345D01*
X128860714Y-140933630D01*
X128622619Y-139933630D01*
X127717857Y-140933630D02*
X128289285Y-140933630D01*
X128003571Y-140933630D02*
X128003571Y-139933630D01*
X128098809Y-140076488D01*
X128194047Y-140171726D01*
X128289285Y-140219345D01*
X126813095Y-139933630D02*
X127289285Y-139933630D01*
X127336904Y-140409821D01*
X127289285Y-140362202D01*
X127194047Y-140314583D01*
X126955952Y-140314583D01*
X126860714Y-140362202D01*
X126813095Y-140409821D01*
X126765476Y-140505059D01*
X126765476Y-140743154D01*
X126813095Y-140838392D01*
X126860714Y-140886011D01*
X126955952Y-140933630D01*
X127194047Y-140933630D01*
X127289285Y-140886011D01*
X127336904Y-140838392D01*
%TO.C,SW16*%
X149434523Y-140886011D02*
X149291666Y-140933630D01*
X149053571Y-140933630D01*
X148958333Y-140886011D01*
X148910714Y-140838392D01*
X148863095Y-140743154D01*
X148863095Y-140647916D01*
X148910714Y-140552678D01*
X148958333Y-140505059D01*
X149053571Y-140457440D01*
X149244047Y-140409821D01*
X149339285Y-140362202D01*
X149386904Y-140314583D01*
X149434523Y-140219345D01*
X149434523Y-140124107D01*
X149386904Y-140028869D01*
X149339285Y-139981250D01*
X149244047Y-139933630D01*
X149005952Y-139933630D01*
X148863095Y-139981250D01*
X148529761Y-139933630D02*
X148291666Y-140933630D01*
X148101190Y-140219345D01*
X147910714Y-140933630D01*
X147672619Y-139933630D01*
X146767857Y-140933630D02*
X147339285Y-140933630D01*
X147053571Y-140933630D02*
X147053571Y-139933630D01*
X147148809Y-140076488D01*
X147244047Y-140171726D01*
X147339285Y-140219345D01*
X145910714Y-139933630D02*
X146101190Y-139933630D01*
X146196428Y-139981250D01*
X146244047Y-140028869D01*
X146339285Y-140171726D01*
X146386904Y-140362202D01*
X146386904Y-140743154D01*
X146339285Y-140838392D01*
X146291666Y-140886011D01*
X146196428Y-140933630D01*
X146005952Y-140933630D01*
X145910714Y-140886011D01*
X145863095Y-140838392D01*
X145815476Y-140743154D01*
X145815476Y-140505059D01*
X145863095Y-140409821D01*
X145910714Y-140362202D01*
X146005952Y-140314583D01*
X146196428Y-140314583D01*
X146291666Y-140362202D01*
X146339285Y-140409821D01*
X146386904Y-140505059D01*
%TO.C,SW17*%
X168484523Y-140886011D02*
X168341666Y-140933630D01*
X168103571Y-140933630D01*
X168008333Y-140886011D01*
X167960714Y-140838392D01*
X167913095Y-140743154D01*
X167913095Y-140647916D01*
X167960714Y-140552678D01*
X168008333Y-140505059D01*
X168103571Y-140457440D01*
X168294047Y-140409821D01*
X168389285Y-140362202D01*
X168436904Y-140314583D01*
X168484523Y-140219345D01*
X168484523Y-140124107D01*
X168436904Y-140028869D01*
X168389285Y-139981250D01*
X168294047Y-139933630D01*
X168055952Y-139933630D01*
X167913095Y-139981250D01*
X167579761Y-139933630D02*
X167341666Y-140933630D01*
X167151190Y-140219345D01*
X166960714Y-140933630D01*
X166722619Y-139933630D01*
X165817857Y-140933630D02*
X166389285Y-140933630D01*
X166103571Y-140933630D02*
X166103571Y-139933630D01*
X166198809Y-140076488D01*
X166294047Y-140171726D01*
X166389285Y-140219345D01*
X165484523Y-139933630D02*
X164817857Y-139933630D01*
X165246428Y-140933630D01*
%TO.C,SW18*%
X187534523Y-140886011D02*
X187391666Y-140933630D01*
X187153571Y-140933630D01*
X187058333Y-140886011D01*
X187010714Y-140838392D01*
X186963095Y-140743154D01*
X186963095Y-140647916D01*
X187010714Y-140552678D01*
X187058333Y-140505059D01*
X187153571Y-140457440D01*
X187344047Y-140409821D01*
X187439285Y-140362202D01*
X187486904Y-140314583D01*
X187534523Y-140219345D01*
X187534523Y-140124107D01*
X187486904Y-140028869D01*
X187439285Y-139981250D01*
X187344047Y-139933630D01*
X187105952Y-139933630D01*
X186963095Y-139981250D01*
X186629761Y-139933630D02*
X186391666Y-140933630D01*
X186201190Y-140219345D01*
X186010714Y-140933630D01*
X185772619Y-139933630D01*
X184867857Y-140933630D02*
X185439285Y-140933630D01*
X185153571Y-140933630D02*
X185153571Y-139933630D01*
X185248809Y-140076488D01*
X185344047Y-140171726D01*
X185439285Y-140219345D01*
X184296428Y-140362202D02*
X184391666Y-140314583D01*
X184439285Y-140266964D01*
X184486904Y-140171726D01*
X184486904Y-140124107D01*
X184439285Y-140028869D01*
X184391666Y-139981250D01*
X184296428Y-139933630D01*
X184105952Y-139933630D01*
X184010714Y-139981250D01*
X183963095Y-140028869D01*
X183915476Y-140124107D01*
X183915476Y-140171726D01*
X183963095Y-140266964D01*
X184010714Y-140314583D01*
X184105952Y-140362202D01*
X184296428Y-140362202D01*
X184391666Y-140409821D01*
X184439285Y-140457440D01*
X184486904Y-140552678D01*
X184486904Y-140743154D01*
X184439285Y-140838392D01*
X184391666Y-140886011D01*
X184296428Y-140933630D01*
X184105952Y-140933630D01*
X184010714Y-140886011D01*
X183963095Y-140838392D01*
X183915476Y-140743154D01*
X183915476Y-140552678D01*
X183963095Y-140457440D01*
X184010714Y-140409821D01*
X184105952Y-140362202D01*
%TO.C,SW19*%
X206584523Y-140886011D02*
X206441666Y-140933630D01*
X206203571Y-140933630D01*
X206108333Y-140886011D01*
X206060714Y-140838392D01*
X206013095Y-140743154D01*
X206013095Y-140647916D01*
X206060714Y-140552678D01*
X206108333Y-140505059D01*
X206203571Y-140457440D01*
X206394047Y-140409821D01*
X206489285Y-140362202D01*
X206536904Y-140314583D01*
X206584523Y-140219345D01*
X206584523Y-140124107D01*
X206536904Y-140028869D01*
X206489285Y-139981250D01*
X206394047Y-139933630D01*
X206155952Y-139933630D01*
X206013095Y-139981250D01*
X205679761Y-139933630D02*
X205441666Y-140933630D01*
X205251190Y-140219345D01*
X205060714Y-140933630D01*
X204822619Y-139933630D01*
X203917857Y-140933630D02*
X204489285Y-140933630D01*
X204203571Y-140933630D02*
X204203571Y-139933630D01*
X204298809Y-140076488D01*
X204394047Y-140171726D01*
X204489285Y-140219345D01*
X203441666Y-140933630D02*
X203251190Y-140933630D01*
X203155952Y-140886011D01*
X203108333Y-140838392D01*
X203013095Y-140695535D01*
X202965476Y-140505059D01*
X202965476Y-140124107D01*
X203013095Y-140028869D01*
X203060714Y-139981250D01*
X203155952Y-139933630D01*
X203346428Y-139933630D01*
X203441666Y-139981250D01*
X203489285Y-140028869D01*
X203536904Y-140124107D01*
X203536904Y-140362202D01*
X203489285Y-140457440D01*
X203441666Y-140505059D01*
X203346428Y-140552678D01*
X203155952Y-140552678D01*
X203060714Y-140505059D01*
X203013095Y-140457440D01*
X202965476Y-140362202D01*
%TO.C,SW20*%
X108953273Y-159936011D02*
X108810416Y-159983630D01*
X108572321Y-159983630D01*
X108477083Y-159936011D01*
X108429464Y-159888392D01*
X108381845Y-159793154D01*
X108381845Y-159697916D01*
X108429464Y-159602678D01*
X108477083Y-159555059D01*
X108572321Y-159507440D01*
X108762797Y-159459821D01*
X108858035Y-159412202D01*
X108905654Y-159364583D01*
X108953273Y-159269345D01*
X108953273Y-159174107D01*
X108905654Y-159078869D01*
X108858035Y-159031250D01*
X108762797Y-158983630D01*
X108524702Y-158983630D01*
X108381845Y-159031250D01*
X108048511Y-158983630D02*
X107810416Y-159983630D01*
X107619940Y-159269345D01*
X107429464Y-159983630D01*
X107191369Y-158983630D01*
X106858035Y-159078869D02*
X106810416Y-159031250D01*
X106715178Y-158983630D01*
X106477083Y-158983630D01*
X106381845Y-159031250D01*
X106334226Y-159078869D01*
X106286607Y-159174107D01*
X106286607Y-159269345D01*
X106334226Y-159412202D01*
X106905654Y-159983630D01*
X106286607Y-159983630D01*
X105667559Y-158983630D02*
X105572321Y-158983630D01*
X105477083Y-159031250D01*
X105429464Y-159078869D01*
X105381845Y-159174107D01*
X105334226Y-159364583D01*
X105334226Y-159602678D01*
X105381845Y-159793154D01*
X105429464Y-159888392D01*
X105477083Y-159936011D01*
X105572321Y-159983630D01*
X105667559Y-159983630D01*
X105762797Y-159936011D01*
X105810416Y-159888392D01*
X105858035Y-159793154D01*
X105905654Y-159602678D01*
X105905654Y-159364583D01*
X105858035Y-159174107D01*
X105810416Y-159078869D01*
X105762797Y-159031250D01*
X105667559Y-158983630D01*
%TO.C,SW22*%
X139909523Y-159936011D02*
X139766666Y-159983630D01*
X139528571Y-159983630D01*
X139433333Y-159936011D01*
X139385714Y-159888392D01*
X139338095Y-159793154D01*
X139338095Y-159697916D01*
X139385714Y-159602678D01*
X139433333Y-159555059D01*
X139528571Y-159507440D01*
X139719047Y-159459821D01*
X139814285Y-159412202D01*
X139861904Y-159364583D01*
X139909523Y-159269345D01*
X139909523Y-159174107D01*
X139861904Y-159078869D01*
X139814285Y-159031250D01*
X139719047Y-158983630D01*
X139480952Y-158983630D01*
X139338095Y-159031250D01*
X139004761Y-158983630D02*
X138766666Y-159983630D01*
X138576190Y-159269345D01*
X138385714Y-159983630D01*
X138147619Y-158983630D01*
X137814285Y-159078869D02*
X137766666Y-159031250D01*
X137671428Y-158983630D01*
X137433333Y-158983630D01*
X137338095Y-159031250D01*
X137290476Y-159078869D01*
X137242857Y-159174107D01*
X137242857Y-159269345D01*
X137290476Y-159412202D01*
X137861904Y-159983630D01*
X137242857Y-159983630D01*
X136861904Y-159078869D02*
X136814285Y-159031250D01*
X136719047Y-158983630D01*
X136480952Y-158983630D01*
X136385714Y-159031250D01*
X136338095Y-159078869D01*
X136290476Y-159174107D01*
X136290476Y-159269345D01*
X136338095Y-159412202D01*
X136909523Y-159983630D01*
X136290476Y-159983630D01*
%TO.C,SW23*%
X158959523Y-159936011D02*
X158816666Y-159983630D01*
X158578571Y-159983630D01*
X158483333Y-159936011D01*
X158435714Y-159888392D01*
X158388095Y-159793154D01*
X158388095Y-159697916D01*
X158435714Y-159602678D01*
X158483333Y-159555059D01*
X158578571Y-159507440D01*
X158769047Y-159459821D01*
X158864285Y-159412202D01*
X158911904Y-159364583D01*
X158959523Y-159269345D01*
X158959523Y-159174107D01*
X158911904Y-159078869D01*
X158864285Y-159031250D01*
X158769047Y-158983630D01*
X158530952Y-158983630D01*
X158388095Y-159031250D01*
X158054761Y-158983630D02*
X157816666Y-159983630D01*
X157626190Y-159269345D01*
X157435714Y-159983630D01*
X157197619Y-158983630D01*
X156864285Y-159078869D02*
X156816666Y-159031250D01*
X156721428Y-158983630D01*
X156483333Y-158983630D01*
X156388095Y-159031250D01*
X156340476Y-159078869D01*
X156292857Y-159174107D01*
X156292857Y-159269345D01*
X156340476Y-159412202D01*
X156911904Y-159983630D01*
X156292857Y-159983630D01*
X155959523Y-158983630D02*
X155340476Y-158983630D01*
X155673809Y-159364583D01*
X155530952Y-159364583D01*
X155435714Y-159412202D01*
X155388095Y-159459821D01*
X155340476Y-159555059D01*
X155340476Y-159793154D01*
X155388095Y-159888392D01*
X155435714Y-159936011D01*
X155530952Y-159983630D01*
X155816666Y-159983630D01*
X155911904Y-159936011D01*
X155959523Y-159888392D01*
%TO.C,SW24*%
X178009523Y-159936011D02*
X177866666Y-159983630D01*
X177628571Y-159983630D01*
X177533333Y-159936011D01*
X177485714Y-159888392D01*
X177438095Y-159793154D01*
X177438095Y-159697916D01*
X177485714Y-159602678D01*
X177533333Y-159555059D01*
X177628571Y-159507440D01*
X177819047Y-159459821D01*
X177914285Y-159412202D01*
X177961904Y-159364583D01*
X178009523Y-159269345D01*
X178009523Y-159174107D01*
X177961904Y-159078869D01*
X177914285Y-159031250D01*
X177819047Y-158983630D01*
X177580952Y-158983630D01*
X177438095Y-159031250D01*
X177104761Y-158983630D02*
X176866666Y-159983630D01*
X176676190Y-159269345D01*
X176485714Y-159983630D01*
X176247619Y-158983630D01*
X175914285Y-159078869D02*
X175866666Y-159031250D01*
X175771428Y-158983630D01*
X175533333Y-158983630D01*
X175438095Y-159031250D01*
X175390476Y-159078869D01*
X175342857Y-159174107D01*
X175342857Y-159269345D01*
X175390476Y-159412202D01*
X175961904Y-159983630D01*
X175342857Y-159983630D01*
X174485714Y-159316964D02*
X174485714Y-159983630D01*
X174723809Y-158936011D02*
X174961904Y-159650297D01*
X174342857Y-159650297D01*
%TO.C,SW25*%
X197059523Y-159936011D02*
X196916666Y-159983630D01*
X196678571Y-159983630D01*
X196583333Y-159936011D01*
X196535714Y-159888392D01*
X196488095Y-159793154D01*
X196488095Y-159697916D01*
X196535714Y-159602678D01*
X196583333Y-159555059D01*
X196678571Y-159507440D01*
X196869047Y-159459821D01*
X196964285Y-159412202D01*
X197011904Y-159364583D01*
X197059523Y-159269345D01*
X197059523Y-159174107D01*
X197011904Y-159078869D01*
X196964285Y-159031250D01*
X196869047Y-158983630D01*
X196630952Y-158983630D01*
X196488095Y-159031250D01*
X196154761Y-158983630D02*
X195916666Y-159983630D01*
X195726190Y-159269345D01*
X195535714Y-159983630D01*
X195297619Y-158983630D01*
X194964285Y-159078869D02*
X194916666Y-159031250D01*
X194821428Y-158983630D01*
X194583333Y-158983630D01*
X194488095Y-159031250D01*
X194440476Y-159078869D01*
X194392857Y-159174107D01*
X194392857Y-159269345D01*
X194440476Y-159412202D01*
X195011904Y-159983630D01*
X194392857Y-159983630D01*
X193488095Y-158983630D02*
X193964285Y-158983630D01*
X194011904Y-159459821D01*
X193964285Y-159412202D01*
X193869047Y-159364583D01*
X193630952Y-159364583D01*
X193535714Y-159412202D01*
X193488095Y-159459821D01*
X193440476Y-159555059D01*
X193440476Y-159793154D01*
X193488095Y-159888392D01*
X193535714Y-159936011D01*
X193630952Y-159983630D01*
X193869047Y-159983630D01*
X193964285Y-159936011D01*
X194011904Y-159888392D01*
%TO.C,SW26*%
X216109523Y-159936011D02*
X215966666Y-159983630D01*
X215728571Y-159983630D01*
X215633333Y-159936011D01*
X215585714Y-159888392D01*
X215538095Y-159793154D01*
X215538095Y-159697916D01*
X215585714Y-159602678D01*
X215633333Y-159555059D01*
X215728571Y-159507440D01*
X215919047Y-159459821D01*
X216014285Y-159412202D01*
X216061904Y-159364583D01*
X216109523Y-159269345D01*
X216109523Y-159174107D01*
X216061904Y-159078869D01*
X216014285Y-159031250D01*
X215919047Y-158983630D01*
X215680952Y-158983630D01*
X215538095Y-159031250D01*
X215204761Y-158983630D02*
X214966666Y-159983630D01*
X214776190Y-159269345D01*
X214585714Y-159983630D01*
X214347619Y-158983630D01*
X214014285Y-159078869D02*
X213966666Y-159031250D01*
X213871428Y-158983630D01*
X213633333Y-158983630D01*
X213538095Y-159031250D01*
X213490476Y-159078869D01*
X213442857Y-159174107D01*
X213442857Y-159269345D01*
X213490476Y-159412202D01*
X214061904Y-159983630D01*
X213442857Y-159983630D01*
X212585714Y-158983630D02*
X212776190Y-158983630D01*
X212871428Y-159031250D01*
X212919047Y-159078869D01*
X213014285Y-159221726D01*
X213061904Y-159412202D01*
X213061904Y-159793154D01*
X213014285Y-159888392D01*
X212966666Y-159936011D01*
X212871428Y-159983630D01*
X212680952Y-159983630D01*
X212585714Y-159936011D01*
X212538095Y-159888392D01*
X212490476Y-159793154D01*
X212490476Y-159555059D01*
X212538095Y-159459821D01*
X212585714Y-159412202D01*
X212680952Y-159364583D01*
X212871428Y-159364583D01*
X212966666Y-159412202D01*
X213014285Y-159459821D01*
X213061904Y-159555059D01*
%TO.C,SW27*%
X97047023Y-178986011D02*
X96904166Y-179033630D01*
X96666071Y-179033630D01*
X96570833Y-178986011D01*
X96523214Y-178938392D01*
X96475595Y-178843154D01*
X96475595Y-178747916D01*
X96523214Y-178652678D01*
X96570833Y-178605059D01*
X96666071Y-178557440D01*
X96856547Y-178509821D01*
X96951785Y-178462202D01*
X96999404Y-178414583D01*
X97047023Y-178319345D01*
X97047023Y-178224107D01*
X96999404Y-178128869D01*
X96951785Y-178081250D01*
X96856547Y-178033630D01*
X96618452Y-178033630D01*
X96475595Y-178081250D01*
X96142261Y-178033630D02*
X95904166Y-179033630D01*
X95713690Y-178319345D01*
X95523214Y-179033630D01*
X95285119Y-178033630D01*
X94951785Y-178128869D02*
X94904166Y-178081250D01*
X94808928Y-178033630D01*
X94570833Y-178033630D01*
X94475595Y-178081250D01*
X94427976Y-178128869D01*
X94380357Y-178224107D01*
X94380357Y-178319345D01*
X94427976Y-178462202D01*
X94999404Y-179033630D01*
X94380357Y-179033630D01*
X94047023Y-178033630D02*
X93380357Y-178033630D01*
X93808928Y-179033630D01*
%TO.C,SW28*%
X118478273Y-178986011D02*
X118335416Y-179033630D01*
X118097321Y-179033630D01*
X118002083Y-178986011D01*
X117954464Y-178938392D01*
X117906845Y-178843154D01*
X117906845Y-178747916D01*
X117954464Y-178652678D01*
X118002083Y-178605059D01*
X118097321Y-178557440D01*
X118287797Y-178509821D01*
X118383035Y-178462202D01*
X118430654Y-178414583D01*
X118478273Y-178319345D01*
X118478273Y-178224107D01*
X118430654Y-178128869D01*
X118383035Y-178081250D01*
X118287797Y-178033630D01*
X118049702Y-178033630D01*
X117906845Y-178081250D01*
X117573511Y-178033630D02*
X117335416Y-179033630D01*
X117144940Y-178319345D01*
X116954464Y-179033630D01*
X116716369Y-178033630D01*
X116383035Y-178128869D02*
X116335416Y-178081250D01*
X116240178Y-178033630D01*
X116002083Y-178033630D01*
X115906845Y-178081250D01*
X115859226Y-178128869D01*
X115811607Y-178224107D01*
X115811607Y-178319345D01*
X115859226Y-178462202D01*
X116430654Y-179033630D01*
X115811607Y-179033630D01*
X115240178Y-178462202D02*
X115335416Y-178414583D01*
X115383035Y-178366964D01*
X115430654Y-178271726D01*
X115430654Y-178224107D01*
X115383035Y-178128869D01*
X115335416Y-178081250D01*
X115240178Y-178033630D01*
X115049702Y-178033630D01*
X114954464Y-178081250D01*
X114906845Y-178128869D01*
X114859226Y-178224107D01*
X114859226Y-178271726D01*
X114906845Y-178366964D01*
X114954464Y-178414583D01*
X115049702Y-178462202D01*
X115240178Y-178462202D01*
X115335416Y-178509821D01*
X115383035Y-178557440D01*
X115430654Y-178652678D01*
X115430654Y-178843154D01*
X115383035Y-178938392D01*
X115335416Y-178986011D01*
X115240178Y-179033630D01*
X115049702Y-179033630D01*
X114954464Y-178986011D01*
X114906845Y-178938392D01*
X114859226Y-178843154D01*
X114859226Y-178652678D01*
X114906845Y-178557440D01*
X114954464Y-178509821D01*
X115049702Y-178462202D01*
%TO.C,SW29*%
X135147023Y-171842261D02*
X135004166Y-171889880D01*
X134766071Y-171889880D01*
X134670833Y-171842261D01*
X134623214Y-171794642D01*
X134575595Y-171699404D01*
X134575595Y-171604166D01*
X134623214Y-171508928D01*
X134670833Y-171461309D01*
X134766071Y-171413690D01*
X134956547Y-171366071D01*
X135051785Y-171318452D01*
X135099404Y-171270833D01*
X135147023Y-171175595D01*
X135147023Y-171080357D01*
X135099404Y-170985119D01*
X135051785Y-170937500D01*
X134956547Y-170889880D01*
X134718452Y-170889880D01*
X134575595Y-170937500D01*
X134242261Y-170889880D02*
X134004166Y-171889880D01*
X133813690Y-171175595D01*
X133623214Y-171889880D01*
X133385119Y-170889880D01*
X133051785Y-170985119D02*
X133004166Y-170937500D01*
X132908928Y-170889880D01*
X132670833Y-170889880D01*
X132575595Y-170937500D01*
X132527976Y-170985119D01*
X132480357Y-171080357D01*
X132480357Y-171175595D01*
X132527976Y-171318452D01*
X133099404Y-171889880D01*
X132480357Y-171889880D01*
X132004166Y-171889880D02*
X131813690Y-171889880D01*
X131718452Y-171842261D01*
X131670833Y-171794642D01*
X131575595Y-171651785D01*
X131527976Y-171461309D01*
X131527976Y-171080357D01*
X131575595Y-170985119D01*
X131623214Y-170937500D01*
X131718452Y-170889880D01*
X131908928Y-170889880D01*
X132004166Y-170937500D01*
X132051785Y-170985119D01*
X132099404Y-171080357D01*
X132099404Y-171318452D01*
X132051785Y-171413690D01*
X132004166Y-171461309D01*
X131908928Y-171508928D01*
X131718452Y-171508928D01*
X131623214Y-171461309D01*
X131575595Y-171413690D01*
X131527976Y-171318452D01*
%TO.C,SW30*%
X156578273Y-171842261D02*
X156435416Y-171889880D01*
X156197321Y-171889880D01*
X156102083Y-171842261D01*
X156054464Y-171794642D01*
X156006845Y-171699404D01*
X156006845Y-171604166D01*
X156054464Y-171508928D01*
X156102083Y-171461309D01*
X156197321Y-171413690D01*
X156387797Y-171366071D01*
X156483035Y-171318452D01*
X156530654Y-171270833D01*
X156578273Y-171175595D01*
X156578273Y-171080357D01*
X156530654Y-170985119D01*
X156483035Y-170937500D01*
X156387797Y-170889880D01*
X156149702Y-170889880D01*
X156006845Y-170937500D01*
X155673511Y-170889880D02*
X155435416Y-171889880D01*
X155244940Y-171175595D01*
X155054464Y-171889880D01*
X154816369Y-170889880D01*
X154530654Y-170889880D02*
X153911607Y-170889880D01*
X154244940Y-171270833D01*
X154102083Y-171270833D01*
X154006845Y-171318452D01*
X153959226Y-171366071D01*
X153911607Y-171461309D01*
X153911607Y-171699404D01*
X153959226Y-171794642D01*
X154006845Y-171842261D01*
X154102083Y-171889880D01*
X154387797Y-171889880D01*
X154483035Y-171842261D01*
X154530654Y-171794642D01*
X153292559Y-170889880D02*
X153197321Y-170889880D01*
X153102083Y-170937500D01*
X153054464Y-170985119D01*
X153006845Y-171080357D01*
X152959226Y-171270833D01*
X152959226Y-171508928D01*
X153006845Y-171699404D01*
X153054464Y-171794642D01*
X153102083Y-171842261D01*
X153197321Y-171889880D01*
X153292559Y-171889880D01*
X153387797Y-171842261D01*
X153435416Y-171794642D01*
X153483035Y-171699404D01*
X153530654Y-171508928D01*
X153530654Y-171270833D01*
X153483035Y-171080357D01*
X153435416Y-170985119D01*
X153387797Y-170937500D01*
X153292559Y-170889880D01*
%TO.C,SW31*%
X189915773Y-171842261D02*
X189772916Y-171889880D01*
X189534821Y-171889880D01*
X189439583Y-171842261D01*
X189391964Y-171794642D01*
X189344345Y-171699404D01*
X189344345Y-171604166D01*
X189391964Y-171508928D01*
X189439583Y-171461309D01*
X189534821Y-171413690D01*
X189725297Y-171366071D01*
X189820535Y-171318452D01*
X189868154Y-171270833D01*
X189915773Y-171175595D01*
X189915773Y-171080357D01*
X189868154Y-170985119D01*
X189820535Y-170937500D01*
X189725297Y-170889880D01*
X189487202Y-170889880D01*
X189344345Y-170937500D01*
X189011011Y-170889880D02*
X188772916Y-171889880D01*
X188582440Y-171175595D01*
X188391964Y-171889880D01*
X188153869Y-170889880D01*
X187868154Y-170889880D02*
X187249107Y-170889880D01*
X187582440Y-171270833D01*
X187439583Y-171270833D01*
X187344345Y-171318452D01*
X187296726Y-171366071D01*
X187249107Y-171461309D01*
X187249107Y-171699404D01*
X187296726Y-171794642D01*
X187344345Y-171842261D01*
X187439583Y-171889880D01*
X187725297Y-171889880D01*
X187820535Y-171842261D01*
X187868154Y-171794642D01*
X186296726Y-171889880D02*
X186868154Y-171889880D01*
X186582440Y-171889880D02*
X186582440Y-170889880D01*
X186677678Y-171032738D01*
X186772916Y-171127976D01*
X186868154Y-171175595D01*
%TO.C,SW141*%
X114191964Y-136123511D02*
X114049107Y-136171130D01*
X113811011Y-136171130D01*
X113715773Y-136123511D01*
X113668154Y-136075892D01*
X113620535Y-135980654D01*
X113620535Y-135885416D01*
X113668154Y-135790178D01*
X113715773Y-135742559D01*
X113811011Y-135694940D01*
X114001488Y-135647321D01*
X114096726Y-135599702D01*
X114144345Y-135552083D01*
X114191964Y-135456845D01*
X114191964Y-135361607D01*
X114144345Y-135266369D01*
X114096726Y-135218750D01*
X114001488Y-135171130D01*
X113763392Y-135171130D01*
X113620535Y-135218750D01*
X113287202Y-135171130D02*
X113049107Y-136171130D01*
X112858630Y-135456845D01*
X112668154Y-136171130D01*
X112430059Y-135171130D01*
X111525297Y-136171130D02*
X112096726Y-136171130D01*
X111811011Y-136171130D02*
X111811011Y-135171130D01*
X111906250Y-135313988D01*
X112001488Y-135409226D01*
X112096726Y-135456845D01*
X110668154Y-135504464D02*
X110668154Y-136171130D01*
X110906250Y-135123511D02*
X111144345Y-135837797D01*
X110525297Y-135837797D01*
X109620535Y-136171130D02*
X110191964Y-136171130D01*
X109906250Y-136171130D02*
X109906250Y-135171130D01*
X110001488Y-135313988D01*
X110096726Y-135409226D01*
X110191964Y-135456845D01*
%TO.C,SW271*%
X109429464Y-169461011D02*
X109286607Y-169508630D01*
X109048511Y-169508630D01*
X108953273Y-169461011D01*
X108905654Y-169413392D01*
X108858035Y-169318154D01*
X108858035Y-169222916D01*
X108905654Y-169127678D01*
X108953273Y-169080059D01*
X109048511Y-169032440D01*
X109238988Y-168984821D01*
X109334226Y-168937202D01*
X109381845Y-168889583D01*
X109429464Y-168794345D01*
X109429464Y-168699107D01*
X109381845Y-168603869D01*
X109334226Y-168556250D01*
X109238988Y-168508630D01*
X109000892Y-168508630D01*
X108858035Y-168556250D01*
X108524702Y-168508630D02*
X108286607Y-169508630D01*
X108096130Y-168794345D01*
X107905654Y-169508630D01*
X107667559Y-168508630D01*
X107334226Y-168603869D02*
X107286607Y-168556250D01*
X107191369Y-168508630D01*
X106953273Y-168508630D01*
X106858035Y-168556250D01*
X106810416Y-168603869D01*
X106762797Y-168699107D01*
X106762797Y-168794345D01*
X106810416Y-168937202D01*
X107381845Y-169508630D01*
X106762797Y-169508630D01*
X106429464Y-168508630D02*
X105762797Y-168508630D01*
X106191369Y-169508630D01*
X104858035Y-169508630D02*
X105429464Y-169508630D01*
X105143750Y-169508630D02*
X105143750Y-168508630D01*
X105238988Y-168651488D01*
X105334226Y-168746726D01*
X105429464Y-168794345D01*
%TO.C,SW281*%
X130860714Y-169461011D02*
X130717857Y-169508630D01*
X130479761Y-169508630D01*
X130384523Y-169461011D01*
X130336904Y-169413392D01*
X130289285Y-169318154D01*
X130289285Y-169222916D01*
X130336904Y-169127678D01*
X130384523Y-169080059D01*
X130479761Y-169032440D01*
X130670238Y-168984821D01*
X130765476Y-168937202D01*
X130813095Y-168889583D01*
X130860714Y-168794345D01*
X130860714Y-168699107D01*
X130813095Y-168603869D01*
X130765476Y-168556250D01*
X130670238Y-168508630D01*
X130432142Y-168508630D01*
X130289285Y-168556250D01*
X129955952Y-168508630D02*
X129717857Y-169508630D01*
X129527380Y-168794345D01*
X129336904Y-169508630D01*
X129098809Y-168508630D01*
X128765476Y-168603869D02*
X128717857Y-168556250D01*
X128622619Y-168508630D01*
X128384523Y-168508630D01*
X128289285Y-168556250D01*
X128241666Y-168603869D01*
X128194047Y-168699107D01*
X128194047Y-168794345D01*
X128241666Y-168937202D01*
X128813095Y-169508630D01*
X128194047Y-169508630D01*
X127622619Y-168937202D02*
X127717857Y-168889583D01*
X127765476Y-168841964D01*
X127813095Y-168746726D01*
X127813095Y-168699107D01*
X127765476Y-168603869D01*
X127717857Y-168556250D01*
X127622619Y-168508630D01*
X127432142Y-168508630D01*
X127336904Y-168556250D01*
X127289285Y-168603869D01*
X127241666Y-168699107D01*
X127241666Y-168746726D01*
X127289285Y-168841964D01*
X127336904Y-168889583D01*
X127432142Y-168937202D01*
X127622619Y-168937202D01*
X127717857Y-168984821D01*
X127765476Y-169032440D01*
X127813095Y-169127678D01*
X127813095Y-169318154D01*
X127765476Y-169413392D01*
X127717857Y-169461011D01*
X127622619Y-169508630D01*
X127432142Y-169508630D01*
X127336904Y-169461011D01*
X127289285Y-169413392D01*
X127241666Y-169318154D01*
X127241666Y-169127678D01*
X127289285Y-169032440D01*
X127336904Y-168984821D01*
X127432142Y-168937202D01*
X126289285Y-169508630D02*
X126860714Y-169508630D01*
X126575000Y-169508630D02*
X126575000Y-168508630D01*
X126670238Y-168651488D01*
X126765476Y-168746726D01*
X126860714Y-168794345D01*
%TD*%
M02*
